<svg width="54" height="54" viewBox="0 0 54 54" fill="none" xmlns="http://www.w3.org/2000/svg">
<path d="M38.425 49.2508C32.3994 49.2508 27.4831 44.3358 27.4831 38.3001C27.4831 32.2644 32.3994 27.3611 38.4367 27.3611C44.474 27.3611 49.3785 32.2761 49.3785 38.3118C49.3785 44.3358 44.4623 49.2508 38.425 49.2508ZM38.425 34.8094C37.4674 34.8094 36.4982 34.8094 35.5406 34.8094C34.6531 34.8094 34.0576 35.3348 34.0459 36.117C34.0459 36.8992 34.6414 37.4362 35.5173 37.4362C37.4557 37.4362 39.3942 37.4362 41.3327 37.4362C42.2085 37.4362 42.8041 36.8875 42.8041 36.1053C42.7924 35.3465 42.2085 34.8094 41.3561 34.8094C40.3751 34.7978 39.4059 34.8094 38.425 34.8094ZM38.3783 41.8141C39.3825 41.8141 40.3868 41.8141 41.3911 41.8141C42.2085 41.8141 42.7924 41.2654 42.8041 40.5183C42.8157 39.7478 42.2202 39.1991 41.3794 39.1874C39.4176 39.1874 37.4441 39.1874 35.4822 39.1874C34.6414 39.1874 34.0459 39.7478 34.0576 40.5066C34.0576 41.2654 34.6531 41.8025 35.5056 41.8141C36.4631 41.8141 37.4207 41.8141 38.3783 41.8141Z" fill="#7231E5"/>
<path d="M6.11322 45.258C6.11322 33.35 6.11322 21.4419 6.11322 9.53392C6.13658 9.46387 6.17161 9.4055 6.18329 9.33545C6.66207 7.31576 8.14512 6.11328 10.2004 6.11328C21.6677 6.11328 33.1351 6.11328 44.6025 6.11328C44.9762 6.11328 45.3615 6.1483 45.7235 6.2417C47.5219 6.69701 48.678 8.26139 48.678 10.2461C48.678 16.6554 48.678 23.053 48.6896 29.4623C48.6896 29.6842 48.748 29.9293 48.8531 30.1161C50.4763 32.7429 51.1653 35.5915 50.885 38.6735C50.4062 44.0555 46.5176 48.8421 41.3211 50.3364C40.3752 50.6049 39.3943 50.745 38.4251 50.9435C37.7244 50.9435 37.0237 50.9435 36.3231 50.9435C36.2063 50.9201 36.1012 50.8734 35.9844 50.8617C33.9292 50.6633 32.0491 49.9978 30.2741 48.9471C30.0055 48.7837 29.6552 48.6786 29.3516 48.6786C22.964 48.6669 16.5763 48.6669 10.1887 48.6669C8.35531 48.6669 6.84891 47.6162 6.31174 45.9584C6.24167 45.725 6.18329 45.4915 6.11322 45.258ZM37.3741 48.3167C43.3997 48.3167 48.3276 43.4017 48.3276 37.3777C48.3276 31.3419 43.4114 26.427 37.3858 26.427C31.3484 26.427 26.4322 31.3419 26.4322 37.366C26.4322 43.4017 31.3485 48.3167 37.3741 48.3167ZM26.0585 8.74005C25.8833 8.74005 25.7432 8.74005 25.6031 8.74005C20.5 8.74005 15.3852 8.74005 10.2821 8.74005C9.25449 8.74005 8.75235 9.24205 8.75235 10.2694C8.75235 15.3945 8.75235 20.508 8.75235 25.6331C8.75235 25.7732 8.76403 25.9133 8.77571 26.0534C14.5678 26.0534 20.3131 26.0534 26.0702 26.0534C26.0585 20.2862 26.0585 14.5423 26.0585 8.74005ZM28.7327 8.74005C28.7327 14.8108 28.7327 20.8232 28.7327 26.9056C31.2901 24.8626 34.1511 23.8119 37.3741 23.8002C40.6088 23.8002 43.4698 24.8626 46.0505 26.9173C46.0505 26.6838 46.0505 26.5554 46.0505 26.427C46.0505 21.045 46.0505 15.663 46.0505 10.2694C46.0505 9.21871 45.5484 8.72838 44.4857 8.72838C39.3943 8.72838 34.3029 8.72838 29.1998 8.72838C29.0596 8.74005 28.9195 8.74005 28.7327 8.74005ZM8.74067 28.7268C8.74067 28.902 8.74067 29.0421 8.74067 29.1938C8.74067 34.2956 8.74067 39.409 8.74067 44.5108C8.74067 45.5382 9.25449 46.0402 10.2704 46.0402C15.6655 46.0402 21.0722 46.0402 26.4672 46.0402C26.5957 46.0402 26.7125 46.0402 26.911 46.0402C26.7942 45.8767 26.7358 45.7833 26.6657 45.7016C23.2092 41.2419 22.8355 35.2179 25.7549 30.3963C26.0935 29.8359 26.0819 29.3106 26.0585 28.7268C20.2898 28.7268 14.5444 28.7268 8.74067 28.7268Z" fill="black"/>
<path d="M37.374 33.8753C38.3549 33.8753 39.3242 33.8753 40.3051 33.8753C41.1575 33.8753 41.7531 34.4123 41.7531 35.1712C41.7648 35.9534 41.1575 36.5021 40.2817 36.5021C38.3433 36.5021 36.4048 36.5021 34.4663 36.5021C33.5905 36.5021 32.9832 35.965 32.9949 35.1829C32.9949 34.4007 33.6022 33.8753 34.4896 33.8753C35.4589 33.8636 36.4165 33.8753 37.374 33.8753Z" fill="black"/>
<path d="M37.3273 40.8799C36.3697 40.8799 35.4005 40.8799 34.4429 40.8799C33.5905 40.8799 33.0066 40.3429 32.9949 39.5724C32.9949 38.8136 33.5788 38.2532 34.4196 38.2532C36.3814 38.2532 38.3549 38.2532 40.3167 38.2532C41.1575 38.2532 41.7531 38.8136 41.7414 39.5841C41.7297 40.3312 41.1458 40.8799 40.3284 40.8799C39.3475 40.8799 38.3432 40.8799 37.3273 40.8799Z" fill="black"/>
<path d="M16.0979 18.7218C15.5023 18.7218 14.9651 18.7218 14.428 18.7218C13.6106 18.7102 13.0267 18.1615 13.0267 17.4143C13.0267 16.6671 13.6106 16.1067 14.428 16.1067C14.9651 16.1067 15.5023 16.1067 16.0979 16.1067C16.0979 15.5697 16.0979 15.0677 16.0979 14.5657C16.0979 13.6434 16.6234 13.0363 17.4174 13.048C18.2115 13.0597 18.7253 13.6551 18.7253 14.5891C18.7253 15.0794 18.7253 15.5697 18.7253 16.1184C19.2975 16.1184 19.8347 16.1184 20.3719 16.1184C21.2126 16.1301 21.8082 16.6905 21.7965 17.4493C21.7849 18.1965 21.201 18.7335 20.3835 18.7452C19.8581 18.7452 19.3326 18.7452 18.737 18.7452C18.737 19.3289 18.7487 19.9126 18.737 20.4847C18.7136 21.4887 17.7211 22.1074 16.8452 21.6638C16.3548 21.4186 16.1212 21.01 16.1096 20.4613C16.0979 19.8893 16.0979 19.3406 16.0979 18.7218Z" fill="black"/>
<path d="M37.3856 18.7218C36.5448 18.7218 35.6924 18.7218 34.8516 18.7218C34.0341 18.7218 33.4503 18.1731 33.4503 17.4259C33.4386 16.6671 34.0341 16.1067 34.8749 16.1067C36.5448 16.1067 38.2264 16.1067 39.8963 16.1067C40.7371 16.1067 41.3326 16.6671 41.3209 17.4259C41.3209 18.1964 40.7254 18.7218 39.8729 18.7335C39.0438 18.7218 38.2147 18.7218 37.3856 18.7218Z" fill="black"/>
<path d="M15.642 37.366C15.1749 36.934 14.7662 36.5721 14.3925 36.1985C13.7853 35.5915 13.7619 34.7976 14.2991 34.2489C14.8363 33.7119 15.6303 33.7352 16.2492 34.3306C16.6229 34.6925 16.9966 35.0661 17.3703 35.428C17.382 35.4397 17.3936 35.428 17.5338 35.4514C17.8491 35.1128 18.1994 34.7042 18.5848 34.3306C19.192 33.7235 19.9861 33.7002 20.5349 34.2372C21.0721 34.7742 21.0487 35.5798 20.4532 36.1869C20.0795 36.5721 19.6708 36.9224 19.192 37.366C19.6941 37.833 20.1379 38.1949 20.5349 38.6268C21.2589 39.409 20.9086 40.5882 19.8926 40.8217C19.3905 40.9384 18.9701 40.775 18.6198 40.413C18.2344 40.0161 17.8724 39.6075 17.417 39.1288C16.9733 39.5958 16.6229 40.0044 16.2492 40.378C15.642 40.9851 14.8479 41.0084 14.2991 40.4714C13.7619 39.9344 13.7853 39.1288 14.3925 38.5218C14.7662 38.1599 15.1749 37.8096 15.642 37.366Z" fill="black"/>
</svg>
