<svg width="54" height="54" viewBox="0 0 54 54" fill="none" xmlns="http://www.w3.org/2000/svg">
<rect width="28.9393" height="5.57665" rx="2.78833" transform="matrix(0.707059 -0.707155 0.707059 0.707155 14.6571 36.6667)" fill="#7231E5"/>
<path d="M38.4311 15.5641C36.716 13.8487 33.9245 13.8487 32.2093 15.5641L15.5615 32.2142C14.7309 33.0449 14.2729 34.1501 14.2729 35.3255C14.2729 36.5009 14.73 37.6062 15.5615 38.4369C16.419 39.2945 17.5458 39.7238 18.6724 39.7238C19.799 39.7238 20.9257 39.2945 21.7833 38.4369L38.4311 21.7868C39.2617 20.9561 39.7197 19.8508 39.7197 18.6754C39.7197 17.5 39.2625 16.3949 38.4311 15.5641ZM37.1586 20.5141L20.5108 37.1642C19.4966 38.1785 17.8472 38.1785 16.8338 37.1642C16.3434 36.6728 16.0726 36.0203 16.0726 35.3255C16.0726 34.6307 16.3426 33.9782 16.8338 33.4868L33.4817 16.8368C33.9883 16.3292 34.6542 16.0762 35.3201 16.0762C35.986 16.0762 36.652 16.33 37.1585 16.8368C37.649 17.3282 37.9198 17.9806 37.9198 18.6754C37.9198 19.3703 37.65 20.0228 37.1586 20.5141Z" fill="black"/>
<path d="M50.579 5.32268L48.6703 3.41375C46.4691 1.21232 43.5319 0 40.3986 0C37.2652 0 34.328 1.21232 32.1278 3.41375L26.7564 8.7859C22.8428 12.6991 22.2201 18.8948 25.2752 23.5181L25.8826 24.4369L31.0632 19.2556L30.8508 18.7084C30.6447 18.1801 30.5413 17.6257 30.5413 17.0586C30.5413 15.8481 31.0047 14.7186 31.8461 13.8762L37.2166 8.50405C38.0589 7.66345 39.1882 7.19996 40.3986 7.19996C41.6089 7.19996 42.7383 7.66345 43.5814 8.505L45.4909 10.4148C47.2457 12.1688 47.2448 15.0236 45.4909 16.7787L40.1195 22.1508C38.8839 23.3838 36.952 23.7907 35.2871 23.1453L34.74 22.9338L29.5603 28.1151L30.479 28.7226C32.4425 30.0204 34.6896 30.655 36.9258 30.655C39.9521 30.655 42.9577 29.4921 45.2074 27.2412L50.5788 21.8691C55.1404 17.3071 55.1404 9.88397 50.579 5.32268ZM49.3083 20.5958L43.9368 25.9679C40.8908 29.0144 36.2114 29.7066 32.4363 27.7823L35.2035 25.013C35.7668 25.1732 36.3472 25.2542 36.9357 25.2542C38.6266 25.2542 40.2086 24.6035 41.3901 23.4227L46.7615 18.0506C49.2172 15.5945 49.2172 11.5975 46.7615 9.14148L44.852 7.23171C43.6704 6.05093 42.0885 5.40021 40.3985 5.40021C38.7084 5.40021 37.1265 6.05093 35.9441 7.23171L30.5736 12.6039C29.3921 13.7846 28.7414 15.3677 28.7414 17.0588C28.7414 17.6484 28.8224 18.2288 28.9817 18.7922L26.2137 21.5598C24.2924 17.7852 24.9826 13.1052 28.0278 10.0587L33.3992 4.68651C35.2602 2.82526 37.7456 1.80017 40.3985 1.80017C43.0513 1.80017 45.5368 2.82526 47.3995 4.68556L49.3082 6.59448C53.1679 10.4545 53.1679 16.7356 49.3083 20.5958Z" fill="black"/>
<path d="M28.7188 30.4822L28.1114 29.5634L22.9318 34.7438L23.1468 35.2918C23.8028 36.9631 23.4105 38.8603 22.1479 40.1239L16.7765 45.4961C15.9342 46.3367 14.8049 46.8001 13.5945 46.8001C12.3841 46.8001 11.2539 46.3367 10.4125 45.4961L8.50384 43.5871C7.66241 42.7456 7.19898 41.6152 7.19898 40.4047C7.19898 39.1942 7.66241 38.0638 8.50384 37.2214L13.8743 31.8502C15.1107 30.6145 17.0518 30.2104 18.7057 30.8557L19.2529 31.0672L24.4335 25.8859L23.5148 25.2784C18.893 22.2247 12.6982 22.8466 8.7846 26.7598L3.41329 32.132C1.21215 34.3333 0 37.2719 0 40.4047C0 43.5376 1.21215 46.4761 3.41329 48.6766L5.3228 50.5864C7.52393 52.7878 10.4611 54.0001 13.5945 54.0001C16.727 54.0001 19.6651 52.7878 21.8662 50.5864L27.2376 45.2142C31.1512 41.3012 31.7738 35.1056 28.7188 30.4822ZM25.9651 43.9418L20.5937 49.3139C18.7327 51.1752 16.2473 52.2003 13.5945 52.2003C10.9416 52.2003 8.45617 51.1752 6.59528 49.3139L4.68577 47.4041C2.82477 45.5429 1.79982 43.058 1.79982 40.4048C1.79982 37.7516 2.82477 35.2658 4.68577 33.4046L10.0572 28.0325C11.9613 26.1281 14.5044 25.1444 17.0655 25.1444C18.6007 25.1444 20.1431 25.4972 21.5577 26.2189L18.7897 28.9865C18.2272 28.8272 17.646 28.7462 17.0565 28.7462C15.3656 28.7462 13.7836 29.3969 12.6021 30.5777L7.23168 35.9498C6.05011 37.1306 5.39947 38.7147 5.39947 40.4048C5.39947 42.095 6.05011 43.6782 7.23252 44.8598L9.14119 46.7687C10.3228 47.9495 11.9047 48.6002 13.5947 48.6002C15.2846 48.6002 16.8667 47.9495 18.0491 46.7687L23.4205 41.3966C25.0466 39.7694 25.6423 37.3942 25.0151 35.2045L27.7795 32.4406C29.7005 36.2152 29.0103 40.8953 25.9651 43.9418Z" fill="black"/>
<path d="M42.9319 41.6639L37.9819 36.7139C37.6309 36.362 37.0603 36.362 36.7093 36.7139C36.3574 37.0658 36.3574 37.6345 36.7093 37.9865L41.6593 42.9365C41.8348 43.1121 42.0652 43.2002 42.2955 43.2002C42.5259 43.2002 42.7563 43.1121 42.9318 42.9365C43.2839 42.5845 43.2839 42.0158 42.9319 41.6639Z" fill="black"/>
<path d="M42.2948 32.4006H39.5948C39.0979 32.4006 38.6948 32.8029 38.6948 33.3006C38.6948 33.7983 39.0979 34.2006 39.5948 34.2006H42.2948C42.7917 34.2006 43.1948 33.7983 43.1948 33.3006C43.1948 32.8029 42.7917 32.4006 42.2948 32.4006Z" fill="black"/>
<path d="M33.2953 38.7C32.7985 38.7 32.3954 39.1023 32.3954 39.5999V42.3C32.3954 42.7977 32.7985 43.2 33.2953 43.2C33.7922 43.2 34.1953 42.7977 34.1953 42.3V39.6C34.1953 39.1023 33.7922 38.7 33.2953 38.7Z" fill="black"/>
<path d="M17.285 16.0135L12.335 11.0635C11.984 10.7116 11.4134 10.7116 11.0624 11.0635C10.7105 11.4154 10.7105 11.9841 11.0624 12.3361L16.0124 17.2861C16.1879 17.4617 16.4183 17.5498 16.6487 17.5498C16.879 17.5498 17.1094 17.4617 17.2849 17.2861C17.6369 16.9342 17.6369 16.3655 17.285 16.0135Z" fill="black"/>
<path d="M14.3985 19.7998H11.6984C11.2016 19.7998 10.7985 20.2021 10.7985 20.6998C10.7985 21.1975 11.2016 21.5998 11.6984 21.5998H14.3985C14.8953 21.5998 15.2985 21.1975 15.2985 20.6998C15.2985 20.2021 14.8953 19.7998 14.3985 19.7998Z" fill="black"/>
<path d="M20.6971 10.7998C20.2003 10.7998 19.7971 11.2021 19.7971 11.6998V14.3998C19.7971 14.8975 20.2003 15.2998 20.6971 15.2998C21.194 15.2998 21.5971 14.8975 21.5971 14.3998V11.6998C21.5971 11.2021 21.1939 10.7998 20.6971 10.7998Z" fill="black"/>
</svg>
