<svg width="40" height="40" viewBox="0 0 40 40" fill="none" xmlns="http://www.w3.org/2000/svg">
<circle cx="20" cy="20" r="20" fill="#7A49D2"/>
<path d="M29.8063 25.1153C29.8063 25.0323 29.7232 25.0323 29.7232 24.9493C29.3911 24.2851 28.6439 23.4549 27.6477 22.5416C27.1495 22.1265 26.9004 21.7944 26.7344 21.6284C26.4853 21.2963 26.4853 21.0472 26.5684 20.7151C26.6514 20.466 26.9835 20.0509 27.5646 19.3037C27.8967 18.8886 28.0628 18.6395 28.3118 18.3905C29.5572 16.73 30.1383 15.6507 29.9723 15.1526L29.8893 15.0695C29.8063 14.9865 29.7232 14.9035 29.5572 14.9035C29.3911 14.8205 29.1421 14.8205 28.893 14.9035H25.7381C25.6551 14.9035 25.6551 14.9035 25.4891 14.9035C25.406 14.9035 25.323 14.9035 25.323 14.9035H25.24H25.157L25.0739 14.9865C24.9909 15.0695 24.9909 15.0695 24.9909 15.1526C24.6588 16.0658 24.2437 16.813 23.8286 17.6433C23.5795 18.0584 23.3305 18.4735 23.0814 18.8056C22.8323 19.1377 22.6663 19.3867 22.5002 19.5528C22.3342 19.7188 22.1681 19.8018 22.0851 19.9679C22.0021 20.0509 21.8361 20.1339 21.8361 20.0509C21.753 20.0509 21.67 20.0509 21.67 19.9679C21.587 19.8849 21.504 19.8018 21.4209 19.7188C21.3379 19.6358 21.3379 19.4698 21.2549 19.3037C21.2549 19.1377 21.2549 18.9716 21.2549 18.8886C21.2549 18.8056 21.2549 18.5565 21.2549 18.3905C21.2549 18.1414 21.2549 17.9753 21.2549 17.8923C21.2549 17.6433 21.2549 17.3112 21.2549 16.9791C21.2549 16.647 21.2549 16.3979 21.2549 16.2319C21.2549 16.0658 21.2549 15.8168 21.2549 15.6507C21.2549 15.4016 21.2549 15.2356 21.2549 15.1526C21.2549 15.0695 21.1719 14.9035 21.1719 14.8205C21.0889 14.7375 21.0058 14.6544 20.9228 14.5714C20.8398 14.4884 20.6737 14.4884 20.5907 14.4054C20.1756 14.3223 19.6775 14.2393 19.0963 14.2393C17.7679 14.2393 16.8547 14.3223 16.5226 14.4884C16.3565 14.5714 16.1905 14.6544 16.1075 14.8205C15.9414 14.9865 15.9414 15.0695 16.0245 15.0695C16.4396 15.1526 16.7717 15.3186 16.9377 15.5677L17.0207 15.7337C17.1038 15.8168 17.1037 15.9828 17.1868 16.2319C17.2698 16.4809 17.2698 16.73 17.2698 17.0621C17.2698 17.5602 17.2698 18.0584 17.2698 18.3905C17.2698 18.8056 17.1868 19.0546 17.1868 19.3037C17.1868 19.5528 17.1038 19.7188 17.0207 19.8019C16.9377 19.9679 16.9377 20.0509 16.8547 20.0509C16.8547 20.0509 16.8547 20.1339 16.7717 20.1339C16.6886 20.1339 16.6056 20.217 16.4396 20.217C16.3565 20.217 16.1905 20.1339 16.1075 20.0509C15.9414 19.9679 15.7754 19.8019 15.6924 19.6358C15.5263 19.4698 15.3603 19.2207 15.1942 18.8886C15.0282 18.5565 14.7791 18.2244 14.6131 17.7263L14.447 17.3942C14.364 17.2281 14.198 16.896 14.0319 16.4809C13.8659 16.0658 13.6998 15.7337 13.5338 15.3186C13.4507 15.1526 13.3677 15.0695 13.2847 14.9865H13.2017C13.2017 14.9865 13.1186 14.9035 13.0356 14.9035C12.9526 14.9035 12.8696 14.8205 12.7866 14.8205H9.79773C9.46564 14.8205 9.2996 14.9035 9.21657 14.9865L9.13354 15.0695C9.13354 15.0695 9.13354 15.1526 9.13354 15.2356C9.13354 15.3186 9.13355 15.4016 9.21657 15.5677C9.63169 16.564 10.1298 17.5602 10.628 18.5565C11.1261 19.4698 11.6242 20.3 11.9563 20.8812C12.3714 21.4623 12.7035 22.0435 13.1186 22.5416C13.5338 23.0397 13.7828 23.3718 13.8658 23.5379C14.0319 23.7039 14.1149 23.7869 14.1979 23.87L14.447 24.119C14.6131 24.2851 14.8621 24.5342 15.1942 24.7832C15.5263 25.0323 15.9414 25.2814 16.3565 25.5304C16.7717 25.7795 17.2698 25.9456 17.7679 26.1116C18.3491 26.2776 18.8472 26.3607 19.3454 26.2776H20.5907C20.8398 26.2776 21.0058 26.1946 21.1719 26.0286L21.2549 25.9455C21.2549 25.8625 21.3379 25.8625 21.3379 25.7795C21.3379 25.6965 21.3379 25.6135 21.3379 25.4474C21.3379 25.1153 21.3379 24.8663 21.4209 24.6172C21.504 24.3681 21.504 24.2021 21.587 24.036C21.67 23.87 21.753 23.787 21.8361 23.7039C21.9191 23.6209 22.0021 23.5379 22.0021 23.5379H22.0851C22.2512 23.4549 22.5002 23.5379 22.6663 23.7039C22.9154 23.87 23.1644 24.119 23.3305 24.3681C23.4965 24.6172 23.7456 24.8663 24.0777 25.1983C24.4098 25.5304 24.6588 25.7795 24.8249 25.8625L25.0739 26.0286C25.24 26.1116 25.406 26.1946 25.6551 26.2776C25.9042 26.3607 26.0702 26.3607 26.2363 26.3607L29.0591 26.2776C29.3081 26.2776 29.5572 26.1946 29.7232 26.1116C29.8893 26.0286 29.9723 25.9455 29.9723 25.7795C29.9723 25.6965 29.9723 25.5304 29.9723 25.4474C29.8062 25.2814 29.8063 25.1983 29.8063 25.1153Z" fill="white"/>
</svg>
