<svg width="92" height="92" viewBox="0 0 92 92" fill="none" xmlns="http://www.w3.org/2000/svg">
<g clip-path="url(#clip0_2264_8004)">
<rect x="41.9076" y="56.5935" width="7.9824" height="6.95006" fill="#AB54FF"/>
<path d="M85.5932 46.0108C85.2201 47.2774 84.7019 48.4817 83.7276 49.4369C83.5617 49.5823 83.6032 49.9768 83.6032 50.2467C83.6032 58.1165 83.6032 65.9656 83.6032 73.8353C83.6032 77.9467 81.1364 80.4177 77.0112 80.4177C73.1348 80.4177 69.2377 80.4177 65.3612 80.4177C65.0503 80.4177 64.6564 80.4592 64.4699 80.2931C64.1382 79.9817 63.7858 79.5664 63.7443 79.1511C63.6822 78.5904 64.0967 78.1959 64.6979 78.1128C64.9467 78.0713 65.2161 78.0921 65.4649 78.0921C69.3828 78.0921 73.2799 78.0921 77.1978 78.0921C79.7682 78.0921 81.2608 76.597 81.2608 74.043C81.2608 66.7546 81.2608 59.4662 81.2608 52.1571C81.2608 51.9287 81.2608 51.7003 81.2608 51.3265C72.1191 56.9952 62.0031 58.7602 51.6176 59.4455C50.9128 63.8268 48.9228 65.8202 45.4817 65.6748C42.3722 65.5503 40.3407 63.2662 40.0298 59.4662C38.7031 59.3624 37.3764 59.2378 36.0497 59.134C31.5307 58.7187 27.0739 57.9504 22.6999 56.7253C21.8293 56.4761 21.4147 55.9155 21.5805 55.2302C21.7464 54.545 22.3683 54.2335 23.1767 54.4204C25.0631 54.8565 26.9288 55.4379 28.8359 55.7286C32.505 56.31 36.2156 56.7461 40.0713 57.2652C40.0713 56.31 40.0713 55.5832 40.0713 54.8357C40.0713 52.7177 41.1699 51.6172 43.2636 51.6172C45.0256 51.6172 46.7876 51.5964 48.5496 51.6172C50.3116 51.638 51.4725 52.7593 51.5139 54.5243C51.5347 55.3548 51.5139 56.1647 51.5139 57.0991C53.504 56.9122 55.4111 56.8084 57.3182 56.5799C62.2311 55.9985 67.0818 55.0226 71.7459 53.3199C75.2699 52.0325 78.6074 50.4336 81.5924 48.1288C82.7326 47.2566 83.2715 46.1561 83.2508 44.7234C83.2301 39.4491 83.2508 34.1957 83.2508 28.9215C83.2508 26.5128 81.7168 24.9762 79.3122 24.9762C56.9451 24.9762 34.5987 24.9762 12.2315 24.9762C9.82692 24.9762 8.31367 26.5128 8.31367 28.9423C8.31367 34.2165 8.31367 39.4699 8.31367 44.7441C8.31367 46.1769 8.85264 47.2774 9.99276 48.1495C12.273 49.8937 14.7605 51.2434 17.3932 52.3647C17.6212 52.4686 17.87 52.5516 18.098 52.6762C18.8028 53.0292 19.093 53.6106 18.8235 54.2543C18.5748 54.8773 17.9114 55.1264 17.1859 54.815C16.025 54.3166 14.8642 53.7975 13.7241 53.2368C12.6047 52.6762 11.5267 52.0117 10.3452 51.368C10.3244 51.6587 10.3037 51.9079 10.3037 52.1571C10.3037 59.4247 10.3037 66.6923 10.3037 73.9599C10.3037 76.6178 11.7755 78.0921 14.4496 78.0921C29.3956 78.0921 44.3415 78.0921 59.3082 78.0921C59.5984 78.0921 59.8887 78.0713 60.1581 78.0921C60.8422 78.1336 61.2983 78.6112 61.319 79.2134C61.3397 79.8363 60.8837 80.3139 60.2203 80.397C60.0338 80.4177 59.8679 80.4177 59.6814 80.4177C44.5696 80.4177 29.4785 80.4177 14.3667 80.4177C11.0914 80.4177 8.64534 78.4658 8.08565 75.4134C7.982 74.9151 8.00273 74.3752 8.00273 73.8561C8.00273 66.0278 8.00273 58.1788 8.00273 50.3506C8.00273 49.8315 7.89908 49.4369 7.52595 49.0424C6.51021 47.9626 5.99197 46.6337 5.99197 45.1594C5.99197 39.6153 5.97124 34.0919 6.0127 28.5477C6.03343 25.2669 8.6868 22.6713 12.0035 22.6506C18.1602 22.6298 24.3376 22.6506 30.4942 22.6506C30.7844 22.6506 31.0539 22.6506 31.4478 22.6506C31.4478 22.0484 31.4478 21.5085 31.4478 20.9686C31.4478 19.7228 31.4685 18.4769 31.4478 17.231C31.4271 15.6944 32.0697 14.5524 33.3756 13.7218C36.3814 11.8115 39.6981 10.8355 43.2221 10.524C44.611 10.3995 46.0206 10.4202 47.4095 10.441C48.135 10.4618 48.5911 11.0432 48.5082 11.6869C48.4252 12.3929 47.9899 12.7251 47.2851 12.7459C47.0778 12.7459 46.8705 12.7459 46.6632 12.7251C43.9477 12.642 41.2736 12.912 38.7031 13.8256C37.2728 14.324 35.9046 15.0507 34.5779 15.7567C34.2048 15.9436 33.8524 16.5043 33.8317 16.9195C33.7488 18.7884 33.7902 20.6572 33.7902 22.5883C34.6816 22.5883 35.5522 22.5883 36.4851 22.5883C36.4851 21.3632 36.5058 20.1588 36.4851 18.9337C36.4643 18.0616 36.7753 17.5217 37.5837 17.1895C43.0978 14.8639 48.5911 14.8846 54.0844 17.231C54.7892 17.5425 55.1001 18.0408 55.0794 18.8091C55.0587 20.055 55.0794 21.3009 55.0794 22.5883C55.9708 22.5883 56.8207 22.5883 57.7121 22.5883C57.7328 22.4222 57.7742 22.2145 57.7742 22.0276C57.7742 20.4495 57.7535 18.8714 57.7742 17.2725C57.7742 16.5458 57.5462 15.9851 56.8829 15.6737C55.3696 14.9677 53.8149 14.3032 52.2809 13.6387C52.0736 13.5557 51.8249 13.5142 51.6176 13.4519C50.8921 13.2027 50.5397 12.6005 50.7469 11.9568C50.9335 11.3546 51.5554 11.0224 52.2602 11.2093C54.3746 11.7699 56.3854 12.5797 58.2303 13.7633C59.4948 14.5731 60.1167 15.6944 60.1167 17.2103C60.096 18.7053 60.1167 20.2211 60.1167 21.7162C60.1167 21.9861 60.1167 22.2768 60.1167 22.6506C60.4898 22.6506 60.8008 22.6506 61.091 22.6506C67.0196 22.6506 72.9482 22.6506 78.8976 22.6506C82.5045 22.6506 84.4738 24.1456 85.4481 27.5926C85.4689 27.6756 85.5103 27.7379 85.5518 27.8002C85.5932 33.8635 85.5932 39.9475 85.5932 46.0108ZM52.7162 22.5883C52.737 22.3599 52.7577 22.1938 52.7577 22.0276C52.7577 21.1971 52.7784 20.3665 52.737 19.5359C52.7163 19.349 52.4882 19.0791 52.3017 19.0168C47.9692 17.3764 43.616 17.3764 39.2835 19.0168C39.097 19.0791 38.8689 19.349 38.8482 19.5359C38.8068 20.5326 38.8275 21.5501 38.8275 22.5883C43.4916 22.5883 48.0521 22.5883 52.7162 22.5883ZM42.4137 57.4105C42.4137 58.2619 42.393 59.134 42.4137 59.9853C42.4966 61.8957 43.8855 63.3077 45.7097 63.3284C47.5961 63.37 49.0886 61.9995 49.1508 60.0684C49.213 58.2826 49.1715 56.4969 49.1715 54.6904C49.1715 54.1713 48.9642 53.9428 48.4252 53.9428C46.6632 53.9636 44.9012 53.9636 43.1392 53.9428C42.6003 53.9428 42.393 54.1713 42.393 54.6904C42.4137 55.604 42.4137 56.5177 42.4137 57.4105Z" fill="black"/>
</g>
<path opacity="0.06" fill-rule="evenodd" clip-rule="evenodd" d="M4.6362 63.8427C-0.565074 61.9933 -1.6531 55.1522 2.72013 51.7951L68.2979 1.45433C72.4967 -1.76887 78.6317 0.656652 79.4625 5.86833L91.9102 83.9521C92.7414 89.166 87.6575 93.3621 82.6616 91.5857L4.6362 63.8427Z" fill="#934AEF"/>
<defs>
<clipPath id="clip0_2264_8004">
<rect width="80.8218" height="80.4221" fill="white" transform="translate(5.98679 5.95728)"/>
</clipPath>
</defs>
</svg>
