<svg width="92" height="92" viewBox="0 0 92 92" fill="none" xmlns="http://www.w3.org/2000/svg">
<path d="M19.4687 47.9996C19.4687 64.2836 32.7166 77.5309 49.0001 77.5309C65.2835 77.5309 78.5314 64.2836 78.5314 47.9996C78.5314 31.7162 65.2835 18.4683 49.0001 18.4683C32.7166 18.4683 19.4687 31.7162 19.4687 47.9996V47.9996ZM75.7189 47.9996C75.7189 62.7329 63.7328 74.7184 49.0001 74.7184C34.2674 74.7184 22.2812 62.7329 22.2812 47.9996C22.2812 33.2669 34.2674 21.2808 49.0001 21.2808C63.7328 21.2808 75.7189 33.2669 75.7189 47.9996V47.9996Z" fill="black"/>
<path d="M76.8131 25.1415C71.6062 18.8122 64.3436 14.4128 56.3642 12.7538C55.6056 12.5967 54.8591 13.084 54.7009 13.8448C54.5427 14.605 55.0316 15.3493 55.7918 15.5075C71.0865 18.6875 82.1877 32.3524 82.1877 47.9997C82.1877 66.2997 67.3 81.1873 49.0001 81.1873C30.7001 81.1873 15.8125 66.2997 15.8125 47.9997C15.8125 31.9289 27.2718 18.1943 43.0608 15.3422C43.8249 15.2043 44.3325 14.4726 44.1946 13.7085C44.0562 12.9444 43.3251 12.4363 42.561 12.5747C34.3657 14.0546 26.8779 18.3942 21.4765 24.7938C16.0102 31.2708 13 39.5122 13 47.9997C13 57.6161 16.7447 66.6562 23.5441 73.4562C30.3436 80.2557 39.3843 83.9998 49.0001 83.9998C58.6159 83.9998 67.6566 80.2551 74.456 73.4562C81.2555 66.6562 85.0002 57.6161 85.0002 47.9997C85.0002 39.6764 82.0926 31.5581 76.8131 25.1415V25.1415Z" fill="black"/>
<path d="M49.1708 14.8125L49.2697 14.8131H49.2818C50.0525 14.8131 50.6809 14.1912 50.6875 13.4189C50.6941 12.6422 50.0695 12.0071 49.2933 12.0005L49.1944 12C49.1901 12 49.1862 12 49.1824 12C48.4111 12 47.7827 12.6218 47.7761 13.3947C47.7701 14.1715 48.3941 14.8059 49.1708 14.8125V14.8125Z" fill="black"/>
<path d="M47.6119 25.4534C47.6119 25.8231 47.7625 26.1845 48.0239 26.4476C48.2871 26.7091 48.6485 26.8596 49.0182 26.8596C49.3895 26.8596 49.751 26.7091 50.0125 26.4476C50.2756 26.1845 50.4261 25.8231 50.4261 25.4534C50.4261 25.0831 50.2756 24.7206 50.0125 24.4591C49.7521 24.1976 49.3895 24.0471 49.0182 24.0471C48.6485 24.0471 48.286 24.196 48.0239 24.4591C47.7625 24.7206 47.6119 25.082 47.6119 25.4534V25.4534Z" fill="black"/>
<path d="M48.982 69.1404C48.6106 69.1404 48.2475 69.2909 47.9877 69.5524C47.7246 69.8138 47.5757 70.1769 47.5757 70.5466C47.5757 70.918 47.7246 71.2794 47.9877 71.5409C48.2492 71.8035 48.6106 71.9529 48.982 71.9529C49.3516 71.9529 49.7131 71.8035 49.9757 71.5409C50.2377 71.2794 50.3882 70.9163 50.3882 70.5466C50.3882 70.1769 50.2377 69.8155 49.9757 69.5524C49.7142 69.2909 49.3516 69.1404 48.982 69.1404Z" fill="black"/>
<path d="M71.5464 49.4244C71.9167 49.4244 72.2792 49.275 72.5407 49.0136C72.8038 48.7504 72.9527 48.389 72.9527 48.0182C72.9527 47.648 72.8038 47.2854 72.5407 47.0239C72.2792 46.7625 71.9178 46.613 71.5464 46.613C71.1767 46.613 70.8142 46.7625 70.5527 47.0239C70.2907 47.2865 70.1402 47.648 70.1402 48.0182C70.1402 48.3879 70.2907 48.7504 70.5527 49.0136C70.8153 49.275 71.1767 49.4244 71.5464 49.4244Z" fill="black"/>
<path d="M26.4537 46.5754C26.0818 46.5754 25.7209 46.7249 25.4595 46.9863C25.1963 47.2478 25.0475 47.6104 25.0475 47.9817C25.0475 48.3514 25.1963 48.7145 25.4595 48.976C25.7209 49.2374 26.0824 49.3879 26.4537 49.3879C26.8234 49.3879 27.186 49.2374 27.4474 48.976C27.7089 48.7145 27.86 48.3514 27.86 47.9817C27.86 47.6104 27.7095 47.2478 27.4474 46.9863C27.186 46.7243 26.8234 46.5754 26.4537 46.5754Z" fill="black"/>
<path d="M37.743 27.0581C37.3734 27.0581 37.0103 27.2086 36.7488 27.4701C36.4873 27.7316 36.3368 28.0947 36.3368 28.4644C36.3368 28.8341 36.4873 29.1972 36.7488 29.4586C37.0103 29.7201 37.3734 29.8706 37.743 29.8706C38.1127 29.8706 38.4758 29.7201 38.7373 29.4586C38.9988 29.1972 39.1493 28.8341 39.1493 28.4644C39.1493 28.0947 38.9988 27.7316 38.7373 27.4701C38.4758 27.2086 38.1127 27.0581 37.743 27.0581Z" fill="black"/>
<path d="M60.2571 66.1292C59.8874 66.1292 59.5243 66.2797 59.2628 66.5411C59.0014 66.8026 58.8508 67.1652 58.8508 67.5354C58.8508 67.9051 59.0014 68.2682 59.2628 68.5297C59.5243 68.7911 59.8874 68.9417 60.2571 68.9417C60.6268 68.9417 60.9899 68.7911 61.2514 68.5297C61.5128 68.2682 61.6634 67.9051 61.6634 67.5354C61.6634 67.1652 61.5128 66.8026 61.2514 66.5411C60.9899 66.2797 60.6268 66.1292 60.2571 66.1292Z" fill="black"/>
<path d="M68.5359 38.1494C68.9056 38.1494 69.2681 37.9989 69.5296 37.7369C69.7911 37.4754 69.9421 37.1129 69.9421 36.7432C69.9421 36.3729 69.7916 36.0104 69.5296 35.7489C69.2681 35.4874 68.9056 35.3369 68.5359 35.3369C68.1657 35.3369 67.8031 35.4869 67.5416 35.7489C67.2802 36.0104 67.1296 36.3729 67.1296 36.7432C67.1296 37.1129 67.2796 37.4754 67.5416 37.7369C67.8031 37.9989 68.1657 38.1494 68.5359 38.1494Z" fill="black"/>
<path d="M29.4643 57.8506C29.0946 57.8506 28.732 58.0011 28.4705 58.2626C28.2085 58.5241 28.058 58.8871 28.058 59.2568C28.058 59.6265 28.2085 59.9896 28.4705 60.2511C28.732 60.5126 29.0946 60.6631 29.4643 60.6631C29.8345 60.6631 30.197 60.5126 30.4585 60.2511C30.72 59.9896 30.8705 59.6265 30.8705 59.2568C30.8705 58.8871 30.7205 58.5241 30.4585 58.2626C30.197 58.0011 29.8356 57.8506 29.4643 57.8506Z" fill="black"/>
<path d="M50.6366 44.7275C49.7762 44.7275 48.9325 45.0778 48.324 45.6864C47.7141 46.2949 47.3639 47.1399 47.3639 48.0003C47.3639 48.8607 47.7141 49.7057 48.324 50.3142C48.9325 50.9228 49.7762 51.273 50.6366 51.273C51.4983 51.273 52.342 50.9228 52.9505 50.3142C53.5591 49.7057 53.9094 48.8607 53.9094 48.0003C53.9094 47.1399 53.5604 46.2949 52.9505 45.6864C52.342 45.0778 51.5008 44.7275 50.6366 44.7275Z" fill="#AB54FF"/>
<path d="M29.4831 35.3042C29.1129 35.3042 28.7503 35.4542 28.4888 35.7162C28.2274 35.9777 28.0768 36.3391 28.0768 36.7105C28.0768 37.0801 28.2268 37.4416 28.4888 37.7042C28.752 37.9656 29.1129 38.1167 29.4831 38.1167C29.8544 38.1167 30.2159 37.9662 30.4768 37.7042C30.7399 37.4416 30.8894 37.0801 30.8894 36.7105C30.8894 36.3391 30.7399 35.9777 30.4768 35.7162C30.2159 35.4547 29.8544 35.3042 29.4831 35.3042Z" fill="black"/>
<path d="M68.517 60.6958C68.8873 60.6958 69.2498 60.5453 69.5113 60.2838C69.7728 60.0223 69.9233 59.6592 69.9233 59.2896C69.9233 58.9199 69.7728 58.5568 69.5113 58.2953C69.2498 58.0338 68.8873 57.8833 68.517 57.8833C68.1457 57.8833 67.7843 58.0338 67.5228 58.2953C67.2602 58.5568 67.1108 58.9199 67.1108 59.2896C67.1108 59.6592 67.2602 60.0223 67.5228 60.2838C67.7832 60.5453 68.1457 60.6958 68.517 60.6958Z" fill="black"/>
<path d="M60.2894 29.8884C60.6596 29.8884 61.0222 29.739 61.2837 29.4775C61.5468 29.215 61.6956 28.8519 61.6956 28.4822C61.6956 28.1125 61.5468 27.7494 61.2837 27.4879C61.0222 27.2264 60.6596 27.0759 60.2894 27.0759C59.9197 27.0759 59.5571 27.2264 59.2957 27.4879C59.0342 27.7494 58.8831 28.1125 58.8831 28.4822C58.8831 28.8519 59.0336 29.215 59.2957 29.4775C59.5571 29.7396 59.9197 29.8884 60.2894 29.8884Z" fill="black"/>
<path d="M37.7102 66.1113C37.3389 66.1113 36.978 66.2602 36.7159 66.5233C36.4545 66.7848 36.304 67.1462 36.304 67.5176C36.304 67.8873 36.4545 68.2498 36.7159 68.5113C36.978 68.7733 37.3394 68.9238 37.7102 68.9238C38.0804 68.9238 38.443 68.7733 38.7045 68.5113C38.966 68.2487 39.1165 67.8873 39.1165 67.5176C39.1165 67.1473 38.966 66.7848 38.7045 66.5233C38.443 66.2602 38.0804 66.1113 37.7102 66.1113Z" fill="black"/>
<path d="M60.5771 34.4516L51.5512 43.478C50.797 43.0506 49.9269 42.8056 49.0002 42.8056C48.0779 42.8056 47.2122 43.0484 46.4607 43.4714L42.1458 39.1565C41.5965 38.6078 40.7066 38.6078 40.1567 39.1565C39.608 39.7058 39.608 40.5963 40.1567 41.1456L44.4716 45.46C44.0487 46.2114 43.8064 47.0777 43.8064 47.9994C43.8064 50.8636 46.1361 53.1938 49.0002 53.1938C51.8644 53.1938 54.194 50.8636 54.194 47.9994C54.194 47.0821 53.954 46.2202 53.5348 45.4715L62.5662 36.4407C63.1149 35.8914 63.1149 35.0009 62.5662 34.4516C62.0169 33.9028 61.1264 33.9028 60.5771 34.4516V34.4516ZM49.0002 50.3813C47.6868 50.3813 46.6189 49.3129 46.6189 47.9994C46.6189 46.6866 47.6868 45.6182 49.0002 45.6182C50.3136 45.6182 51.3815 46.6866 51.3815 47.9994C51.3815 49.3129 50.3136 50.3813 49.0002 50.3813V50.3813Z" fill="black"/>
<path d="M55.1276 59.8123H42.908C42.1312 59.8123 41.5017 60.4423 41.5017 61.2185C41.5017 61.9952 42.1312 62.6248 42.908 62.6248H55.1276C55.9043 62.6248 56.5338 61.9952 56.5338 61.2185C56.5338 60.4423 55.9043 59.8123 55.1276 59.8123Z" fill="black"/>
<path opacity="0.06" fill-rule="evenodd" clip-rule="evenodd" d="M41.7206 89.2744C38.6649 93.5205 32.2003 92.6505 30.3361 87.7423L0.448255 9.0531C-1.34162 4.34068 2.48301 -0.601232 7.40837 0.0597362L86.3055 10.6475C91.2329 11.3087 93.665 17.0944 90.7299 21.1729L41.7206 89.2744Z" fill="#934AEF"/>
</svg>
