<svg width="92" height="92" viewBox="0 0 92 92" fill="none" xmlns="http://www.w3.org/2000/svg">
<g opacity="0.9">
<path opacity="0.06" fill-rule="evenodd" clip-rule="evenodd" d="M3.4069 49.4027C-1.32239 46.6278 -1.07971 39.7752 3.83428 37.3349L77.5209 0.740777C82.2389 -1.60226 87.7706 1.90797 87.5876 7.12874L84.8461 85.3488C84.663 90.5717 78.8945 93.6939 74.3519 91.0286L3.4069 49.4027Z" fill="#934AEF"/>
<rect width="8.31576" height="19.5392" transform="matrix(0.94083 -0.338878 0.345184 0.938535 16.3856 60.8306)" fill="#A356F3"/>
<mask id="mask0_2264_8036" style="mask-type:alpha" maskUnits="userSpaceOnUse" x="15" y="46" width="77" height="34">
<path fill-rule="evenodd" clip-rule="evenodd" d="M15.9372 46.2031H91.8543V79.6362H15.9372V46.2031Z" fill="white"/>
</mask>
<g mask="url(#mask0_2264_8036)">
<path fill-rule="evenodd" clip-rule="evenodd" d="M88.0291 53.4619L60.7195 69.14H45.7243L41.4134 57.3619L49.9155 52.6585H68.711C69.3873 52.6572 70.0353 52.9245 70.5117 53.4013C70.7882 53.6756 70.9948 54.0117 71.1138 54.3813C71.2165 54.6401 71.267 54.9161 71.2614 55.1941C71.2614 56.5944 70.12 57.7296 68.711 57.7296H54.6852V60.2652H68.711C71.2862 60.2571 73.4491 58.3388 73.7505 55.7964L85.4734 49.0692C86.2621 48.6165 87.2342 48.616 88.0235 49.0692C88.8123 49.5217 89.2985 50.358 89.2985 51.2637C89.3054 52.1705 88.8198 53.0106 88.0291 53.4619V53.4619ZM34.5393 75.6613L27.5631 56.5884L37.148 53.118L44.1255 72.1822L34.5393 75.6613ZM24.0835 76.7466L18.8562 62.4447L26.0447 59.8429L31.2789 74.1386L24.0835 76.7466ZM91.1719 48.7279C89.7519 46.3172 86.6456 45.4902 84.2039 46.8719L73.3209 53.1145C73.0842 52.5541 72.7438 52.0442 72.316 51.6094C71.3621 50.6556 70.0647 50.1201 68.711 50.1225H49.585C49.3684 50.1225 49.1554 50.1777 48.9655 50.2822L40.5325 54.948L39.1105 51.066C38.8708 50.4073 38.1392 50.0662 37.4774 50.3052L25.4911 54.6409C25.1729 54.7554 24.9133 54.9913 24.7701 55.2959C24.6263 55.6011 24.6108 55.9503 24.7266 56.2666L25.1624 57.457L16.7786 60.4947C16.4605 60.6092 16.2007 60.8445 16.0575 61.1497C15.9137 61.4543 15.8982 61.8034 16.014 62.1197L22.1229 78.7994C22.3626 79.458 23.0936 79.7985 23.756 79.5602L32.1447 76.525L32.5807 77.7156C32.8204 78.3742 33.552 78.7144 34.2144 78.4757L46.1999 74.1386C46.8623 73.9001 47.2049 73.1735 46.965 72.5149L46.6525 71.6753H61.0607C61.2848 71.6753 61.5047 71.6165 61.6983 71.5058L89.3041 55.6582C90.8898 54.7586 91.8649 53.0792 91.8542 51.2634C91.8525 50.3738 91.6177 49.4999 91.1719 48.7279V48.7279Z" fill="black"/>
</g>
<path fill-rule="evenodd" clip-rule="evenodd" d="M45.5172 31.8732L60.6378 16.9092L62.42 18.6731L47.2989 33.6365L45.5172 31.8732Z" fill="black"/>
<path fill-rule="evenodd" clip-rule="evenodd" d="M61.481 32.9395C61.481 33.5811 60.956 34.1011 60.3071 34.1011C59.6589 34.1011 59.1333 33.5811 59.1333 32.9395C59.1333 32.298 59.6589 31.7779 60.3071 31.7779C60.956 31.7779 61.481 32.298 61.481 32.9395M56.7857 32.9394C56.7857 34.8639 58.3623 36.4243 60.3071 36.4243C62.2524 36.4243 63.8286 34.8639 63.8286 32.9394C63.8286 31.0148 62.2524 29.4546 60.3071 29.4546C58.3623 29.4546 56.7857 31.0148 56.7857 32.9394" fill="black"/>
<path fill-rule="evenodd" clip-rule="evenodd" d="M49.0385 17.8385C49.6873 17.8385 50.2123 18.3587 50.2123 19.0001C50.2123 19.6416 49.6873 20.1618 49.0385 20.1618C48.3902 20.1618 47.8647 19.6416 47.8647 19.0001C47.8647 18.3587 48.3902 17.8385 49.0385 17.8385M49.0385 22.4848C50.9837 22.4848 52.56 20.9245 52.56 18.9999C52.56 17.0755 50.9837 15.5151 49.0385 15.5151C47.0937 15.5151 45.5172 17.0755 45.5172 18.9999C45.5172 20.9245 47.0937 22.4848 49.0385 22.4848" fill="black"/>
<path fill-rule="evenodd" clip-rule="evenodd" d="M55.3771 9.74028C64.0455 9.74028 71.0726 16.6944 71.0726 25.2728C71.0726 33.8512 64.0455 40.8053 55.3771 40.8053C46.7087 40.8053 39.6816 33.8512 39.6816 25.2728C39.6912 16.6981 46.7133 9.74983 55.3771 9.74028M55.3771 43.3941C65.4908 43.3941 73.6886 35.2809 73.6886 25.2728C73.6886 15.2648 65.4908 7.15161 55.3771 7.15161C45.264 7.15161 37.0657 15.2648 37.0657 25.2728C37.0765 35.2765 45.2686 43.3834 55.3771 43.3941" fill="black"/>
<mask id="mask1_2264_8036" style="mask-type:alpha" maskUnits="userSpaceOnUse" x="15" y="2" width="77" height="78">
<path fill-rule="evenodd" clip-rule="evenodd" d="M15.9372 79.6362H92V2.96948H15.9372V79.6362Z" fill="white"/>
</mask>
<g mask="url(#mask1_2264_8036)">
<path fill-rule="evenodd" clip-rule="evenodd" d="M52.56 5.75736H55.3772V2.96948H52.56V5.75736Z" fill="black"/>
<path fill-rule="evenodd" clip-rule="evenodd" d="M46.9257 3.8529L50.2579 2.96948L51.1514 6.26682L47.8195 7.15131L46.9257 3.8529Z" fill="black"/>
<path fill-rule="evenodd" clip-rule="evenodd" d="M41.2914 7.28826L43.9707 5.75757L45.5172 8.4087L42.8387 9.93939L41.2914 7.28826Z" fill="black"/>
<path fill-rule="evenodd" clip-rule="evenodd" d="M37.0657 10.6357L39.1786 8.54517L41.2914 10.6357L39.1786 12.727L37.0657 10.6357Z" fill="black"/>
<path fill-rule="evenodd" clip-rule="evenodd" d="M34.2486 15.3782L35.7951 12.7271L38.4743 14.2577L36.9271 16.9089L34.2486 15.3782Z" fill="black"/>
<path fill-rule="evenodd" clip-rule="evenodd" d="M31.4314 20.2067L32.3252 16.9092L35.6572 17.7934L34.7645 21.091L31.4314 20.2067Z" fill="black"/>
<path fill-rule="evenodd" clip-rule="evenodd" d="M31.4314 26.6665H34.2486V23.8787H31.4314V26.6665Z" fill="black"/>
<path fill-rule="evenodd" clip-rule="evenodd" d="M31.4314 28.9443L34.7643 28.0605L35.6572 31.3586L32.3245 32.2424L31.4314 28.9443Z" fill="black"/>
<path fill-rule="evenodd" clip-rule="evenodd" d="M34.2486 36.5611L36.9275 35.0303L38.4743 37.6815L35.7946 39.2121L34.2486 36.5611Z" fill="black"/>
<path fill-rule="evenodd" clip-rule="evenodd" d="M37.0657 41.303L39.179 39.2122L41.2914 41.303L39.179 43.394L37.0657 41.303Z" fill="black"/>
<path fill-rule="evenodd" clip-rule="evenodd" d="M41.2914 44.6509L42.8379 41.9998L45.5172 43.5304L43.9699 46.1816L41.2914 44.6509Z" fill="black"/>
<path fill-rule="evenodd" clip-rule="evenodd" d="M46.9257 48.0852L47.8193 44.7878L51.1514 45.6721L50.2581 48.9697L46.9257 48.0852Z" fill="black"/>
<path fill-rule="evenodd" clip-rule="evenodd" d="M52.56 48.9695H55.3772V46.1816H52.56V48.9695Z" fill="black"/>
<path fill-rule="evenodd" clip-rule="evenodd" d="M58.1943 45.6725L61.5256 44.7878L62.42 48.085L59.0885 48.9697L58.1943 45.6725Z" fill="black"/>
<path fill-rule="evenodd" clip-rule="evenodd" d="M62.42 43.5297L65.0997 41.9998L66.6457 44.6507L63.9668 46.1816L62.42 43.5297Z" fill="black"/>
<path fill-rule="evenodd" clip-rule="evenodd" d="M68.0543 41.3026L70.1679 39.2122L72.28 41.3033L70.1671 43.394L68.0543 41.3026Z" fill="black"/>
<path fill-rule="evenodd" clip-rule="evenodd" d="M72.28 37.6822L73.8265 35.0303L76.5057 36.5612L74.9592 39.2121L72.28 37.6822Z" fill="black"/>
<path fill-rule="evenodd" clip-rule="evenodd" d="M73.6886 31.3588L74.5815 28.0605L77.9143 28.9441L77.0214 32.2424L73.6886 31.3588Z" fill="black"/>
<path fill-rule="evenodd" clip-rule="evenodd" d="M73.6886 26.6665H76.5057V23.8787H73.6886V26.6665Z" fill="black"/>
<path fill-rule="evenodd" clip-rule="evenodd" d="M73.6886 17.7929L77.0212 16.9092L77.9143 20.2072L74.5817 21.091L73.6886 17.7929Z" fill="black"/>
<path fill-rule="evenodd" clip-rule="evenodd" d="M72.28 14.2577L74.959 12.7271L76.5057 15.3788L73.826 16.9089L72.28 14.2577Z" fill="black"/>
<path fill-rule="evenodd" clip-rule="evenodd" d="M68.0543 10.6357L70.1671 8.54517L72.28 10.6357L70.1671 12.727L68.0543 10.6357Z" fill="black"/>
<path fill-rule="evenodd" clip-rule="evenodd" d="M62.42 8.40947L63.9668 5.75757L66.6457 7.28826L65.0997 9.93939L62.42 8.40947Z" fill="black"/>
<path fill-rule="evenodd" clip-rule="evenodd" d="M58.1943 6.26672L59.0894 2.96948L62.42 3.85428L61.5256 7.15131L58.1943 6.26672Z" fill="black"/>
</g>
</g>
</svg>
