<svg width="92" height="92" viewBox="0 0 92 92" fill="none" xmlns="http://www.w3.org/2000/svg">
<path opacity="0.06" fill-rule="evenodd" clip-rule="evenodd" d="M89.4953 54.5114C93.706 58.0376 92.3898 64.8717 87.1776 66.5466L9.01845 91.6629C4.01409 93.2711 -0.869371 88.8812 0.131455 83.6743L15.1263 5.66096C16.1275 0.451787 22.2867 -1.77255 26.331 1.61442L89.4953 54.5114Z" fill="#934AEF"/>
<ellipse cx="68.6733" cy="30.4394" rx="8.39889" ry="8.4831" fill="#AB54FF"/>
<path d="M69.9085 27.1958L63.4858 33.6829" stroke="white" stroke-width="2" stroke-linecap="round" stroke-linejoin="round"/>
<path d="M63.4858 27.1958L69.9085 33.6829" stroke="white" stroke-width="2" stroke-linecap="round" stroke-linejoin="round"/>
<path d="M45.8545 73.1056C46.4089 73.5028 47.0476 73.6248 47.7019 73.4573C47.8659 73.4155 48.0669 73.3428 48.2977 73.2188C48.4423 73.5477 48.6762 73.8633 49.027 74.1548C50.4557 75.342 52.6887 74.9409 53.9642 73.7113C54.1614 73.5212 54.3335 73.3161 54.4791 73.0997C55.6918 73.7386 57.8406 74.1056 61.5814 73.0074C62.142 72.8427 62.4644 72.2504 62.3014 71.684C62.1384 71.1177 61.5518 70.7918 60.9913 70.9568C56.2356 72.353 55.1056 70.9975 54.9718 70.8017C54.8275 70.2954 54.3518 70.0253 53.8292 70.0982C53.2966 70.1727 52.9227 70.6979 52.9362 71.2411C52.9469 71.6738 52.6701 72.0069 52.5041 72.167C52.1106 72.5465 51.5482 72.7595 51.0398 72.7228C50.7513 72.702 50.5134 72.6249 50.3702 72.5059C50.0895 72.2726 50.1958 71.8455 50.8642 70.5193C51.0757 70.0999 51.2944 69.6662 51.4576 69.2265C51.6554 68.6936 51.4048 68.0976 50.8876 67.8715C50.3704 67.6457 49.7687 67.869 49.5197 68.3794C49.1107 69.2175 48.6246 70.0617 47.9973 70.7546C47.6366 71.153 46.8137 71.7805 46.9235 70.7389C47.0259 69.7672 47.659 68.9819 48.179 68.199C48.5407 67.6545 48.9505 67.0374 49.3571 66.7096C49.8133 66.3417 49.8878 65.67 49.5237 65.2091C49.1596 64.7483 48.4946 64.6729 48.0372 65.0414C47.4212 65.5378 46.8118 66.0347 46.2043 66.53C43.8906 68.4164 41.7051 70.1983 39.2771 71.869C38.7946 72.201 38.6699 72.8652 38.9986 73.3526C39.3274 73.8399 39.9849 73.9659 40.4674 73.6339C41.9823 72.5916 43.432 71.4854 44.8389 70.3684C44.8322 70.4163 44.8265 70.4646 44.8213 70.5131C44.704 71.6231 45.0709 72.5438 45.8545 73.1056V73.1056Z" fill="black"/>
<path d="M20.6526 20.0882H52.0372C52.6211 20.0882 53.0944 19.6102 53.0944 19.0204C53.0944 18.4307 52.6212 17.9526 52.0372 17.9526H20.6526C20.0688 17.9526 19.5954 18.4306 19.5954 19.0204C19.5955 19.6101 20.0688 20.0882 20.6526 20.0882Z" fill="black"/>
<path d="M20.6526 25.7591H49.4459C50.0297 25.7591 50.503 25.2811 50.503 24.6913C50.503 24.1016 50.0297 23.6235 49.4459 23.6235H20.6526C20.0688 23.6235 19.5954 24.1015 19.5954 24.6913C19.5955 25.281 20.0688 25.7591 20.6526 25.7591Z" fill="black"/>
<path d="M20.6526 31.4302H49.4459C50.0297 31.4302 50.503 30.9523 50.503 30.3625C50.503 29.7726 50.0297 29.2947 49.4459 29.2947H20.6526C20.0688 29.2947 19.5954 29.7728 19.5954 30.3625C19.5954 30.9521 20.0688 31.4302 20.6526 31.4302Z" fill="black"/>
<path d="M20.6526 37.1011H52.0372C52.6211 37.1011 53.0944 36.623 53.0944 36.0334C53.0944 35.4437 52.6212 34.9656 52.0372 34.9656H20.6526C20.0688 34.9656 19.5954 35.4437 19.5954 36.0334C19.5954 36.623 20.0688 37.1011 20.6526 37.1011Z" fill="black"/>
<path d="M20.6526 42.7723H54.4759C55.0597 42.7723 55.5331 42.2942 55.5331 41.7045C55.5331 41.1148 55.0597 40.6367 54.4759 40.6367H20.6526C20.0688 40.6367 19.5954 41.1147 19.5954 41.7045C19.5954 42.2943 20.0688 42.7723 20.6526 42.7723Z" fill="black"/>
<path d="M20.6526 48.4435H59.0915C59.6753 48.4435 60.1487 47.9656 60.1487 47.3757C60.1487 46.7861 59.6753 46.3081 59.0915 46.3081H20.6526C20.0688 46.3081 19.5954 46.7861 19.5954 47.3757C19.5955 47.9656 20.0688 48.4435 20.6526 48.4435V48.4435Z" fill="black"/>
<path d="M20.6526 54.1141H59.0915C59.6753 54.1141 60.1487 53.6361 60.1487 53.0463C60.1487 52.4566 59.6753 51.9785 59.0915 51.9785H20.6526C20.0688 51.9785 19.5954 52.4565 19.5954 53.0463C19.5955 53.636 20.0688 54.1141 20.6526 54.1141V54.1141Z" fill="black"/>
<path d="M20.6526 59.7853H59.0915C59.6753 59.7853 60.1487 59.3073 60.1487 58.7177C60.1487 58.128 59.6753 57.6499 59.0915 57.6499H20.6526C20.0688 57.6499 19.5954 58.1279 19.5954 58.7177C19.5955 59.3072 20.0688 59.7853 20.6526 59.7853V59.7853Z" fill="black"/>
<path d="M68.1058 18.5788V12.3809C68.1058 11.057 67.0393 9.97998 65.7287 9.97998H16.2106C14.8998 9.97998 13.8335 11.057 13.8335 12.3809V80.4338C13.8335 81.7577 14.8998 82.8347 16.2106 82.8347H30.5974C31.1813 82.8347 31.6546 82.3567 31.6546 81.7669C31.6546 81.1773 31.1814 80.6992 30.5974 80.6992H16.2106C16.0656 80.6992 15.9477 80.5801 15.9477 80.4336V12.3809C15.9477 12.2345 16.0656 12.1154 16.2106 12.1154H65.7287C65.8737 12.1154 65.9916 12.2345 65.9916 12.3809V18.5784C63.9429 18.7724 62.012 19.5286 60.3556 20.7983C59.8906 21.1548 59.7997 21.8246 60.1526 22.2943C60.5054 22.7639 61.1685 22.8559 61.6337 22.4993C63.2017 21.2974 65.0742 20.6622 67.0486 20.6622C71.9928 20.6622 76.0152 24.7248 76.0152 29.7186C76.0152 34.7125 71.9929 38.7751 67.0486 38.7751C62.1044 38.7751 58.0821 34.7125 58.0821 29.7186C58.0821 28.3949 58.3581 27.1195 58.9026 25.9282C59.1473 25.3927 58.9158 24.7584 58.3858 24.5112C57.8555 24.2641 57.2276 24.4979 56.9831 25.0332C56.3095 26.5072 55.968 28.0835 55.968 29.7185C55.968 35.5295 60.3759 40.3187 65.9916 40.8581V80.4338C65.9916 80.5802 65.8737 80.6993 65.7287 80.6993H35.507C34.9232 80.6993 34.4499 81.1773 34.4499 81.7671C34.4499 82.3567 34.9231 82.8348 35.507 82.8348H65.7286C67.0393 82.8348 68.1057 81.7578 68.1057 80.4339V40.8581C73.7215 40.3186 78.1293 35.5295 78.1293 29.7185C78.1293 23.9075 73.7215 19.1183 68.1058 18.5788V18.5788Z" fill="black"/>
</svg>
