<svg width="36" height="31" xmlns="http://www.w3.org/2000/svg" xmlns:xlink="http://www.w3.org/1999/xlink"><defs><path id="a" d="M0 0h53v40H0z"/></defs><g transform="translate(-7 -2)" fill="none" fill-rule="evenodd"><mask id="b" fill="#fff"><use xlink:href="#a"/></mask><path d="M38.7322 6.1798C37.2202 4.7264 35.131 4 32.4642 4c-.7382 0-1.4914.126-2.259.3778-.768.252-1.4825.592-2.1426 1.0197-.661.4276-1.229.8291-1.7056 1.204-.476.375-.9285.7736-1.357 1.1953a16.44 16.44 0 0 0-1.357-1.1953c-.4764-.3749-1.0447-.7762-1.7056-1.204-.6607-.428-1.375-.7677-2.1429-1.0197C19.0268 4.126 18.2737 4 17.5356 4c-2.6667 0-4.7559.7266-6.2678 2.1798C9.756 7.6328 9 9.6484 9 12.2265c0 .7852.1401 1.594.4197 2.4257.2797.832.5984 1.5411.9554 2.127.357.5857.7619 1.1572 1.2143 1.7138.4524.5567.783.9402.9911 1.1513.2083.2107.372.3632.491.4568l11.1428 10.5822c.2143.2111.4762.3167.7857.3167.3094 0 .5715-.1056.7857-.3163l11.125-10.5471C39.637 17.4532 41 14.8164 41 12.2266c0-2.5782-.756-4.5937-2.2678-6.0468" stroke="#994EF0" stroke-width="3" mask="url(#b)"/></g></svg>