<svg width="89" height="89" viewBox="0 0 89 89" fill="none" xmlns="http://www.w3.org/2000/svg">
<path fill-rule="evenodd" clip-rule="evenodd" d="M38.2535 63.42C48.0345 63.42 55.9635 55.491 55.9635 45.71C55.9635 35.929 48.0345 28 38.2535 28C28.4726 28 20.5435 35.929 20.5435 45.71C20.5435 55.491 28.4726 63.42 38.2535 63.42Z" stroke="black" stroke-width="1.265"/>
<path d="M52.0435 58.5L61.0435 66.5" stroke="black" stroke-width="1.265" stroke-linecap="round"/>
<mask id="mask0_627_4438" style="mask-type:alpha" maskUnits="userSpaceOnUse" x="31" y="32" width="47" height="25">
<path fill-rule="evenodd" clip-rule="evenodd" d="M31.5435 32.1047H77.5175V56.4743H31.5435V32.1047Z" fill="white"/>
</mask>
<g mask="url(#mask0_627_4438)">
<path fill-rule="evenodd" clip-rule="evenodd" d="M75.8727 37.587H33.1881V34.4534C33.1881 34.0652 33.504 33.7494 33.8921 33.7494H75.169C75.557 33.7494 75.8727 34.0652 75.8727 34.4534V37.587ZM33.1881 49.3473H75.8727V39.2317H33.1881V49.3473ZM75.8727 54.1256C75.8727 54.5138 75.557 54.8296 75.1688 54.8296H33.8921C33.504 54.8296 33.1881 54.5138 33.1881 54.1256V50.992H75.8727V54.1256ZM75.169 32.1047H33.8921C32.5971 32.1047 31.5435 33.1584 31.5435 34.4534V54.1256C31.5435 55.4207 32.5971 56.4743 33.8921 56.4743H75.169C76.4641 56.4743 77.5175 55.4207 77.5175 54.1256V34.4534C77.5175 33.1583 76.4641 32.1047 75.169 32.1047Z" fill="black"/>
</g>
<path fill-rule="evenodd" clip-rule="evenodd" d="M36.5415 46.0005L37.1808 41.7308L37.82 46.0005H36.5415ZM38.218 40.2354H36.2762L34.9253 48.6782H36.1435L36.3727 47.1465H38.0009L38.2301 48.6782H39.5689L38.218 40.2354Z" fill="black"/>
<rect x="33.5435" y="34" width="43" height="3" fill="#7231E5"/>
<path fill-rule="evenodd" clip-rule="evenodd" d="M43.4164 46.6398C43.4164 47.2669 43.1751 47.472 42.7289 47.472H41.969V44.8788H42.56C43.163 44.8788 43.4163 45.12 43.4163 45.904V46.6398H43.4164ZM41.969 41.4414H42.6083C43.0786 41.4414 43.2837 41.7067 43.2837 42.3098V42.7801C43.2837 43.4555 42.9821 43.6727 42.4877 43.6727H41.969V41.4414ZM43.754 44.1792C44.3449 43.9018 44.6103 43.347 44.6103 42.4785V42.177C44.6103 40.8744 44.0193 40.2351 42.6443 40.2351H40.6422V48.6778H42.7288C44.0554 48.6779 44.7429 47.9784 44.7429 46.6758V45.9883C44.743 45.0958 44.4657 44.4565 43.754 44.1792Z" fill="black"/>
<path fill-rule="evenodd" clip-rule="evenodd" d="M49.8447 43.0818V42.2616C49.8447 40.9108 49.1693 40.1389 47.8667 40.1389C46.5642 40.1389 45.8887 40.9109 45.8887 42.2616V46.6518C45.8887 48.0027 46.5641 48.7746 47.8667 48.7746C49.1693 48.7746 49.8447 48.0026 49.8447 46.6518V45.5302H48.5904V46.7363C48.5904 47.3393 48.3251 47.5563 47.9029 47.5563C47.4807 47.5563 47.2154 47.3393 47.2154 46.7363V42.1772C47.2154 41.5741 47.4807 41.345 47.9029 41.345C48.3251 41.345 48.5904 41.5741 48.5904 42.1772V43.0818H49.8447Z" fill="black"/>
<mask id="mask1_627_4438" style="mask-type:alpha" maskUnits="userSpaceOnUse" x="31" y="32" width="47" height="25">
<path fill-rule="evenodd" clip-rule="evenodd" d="M31.5435 56.3695H77.5175V32H31.5435V56.3695Z" fill="white"/>
</mask>
<g mask="url(#mask1_627_4438)">
<path fill-rule="evenodd" clip-rule="evenodd" d="M53.3783 45.0595H55.7905V43.8534H53.3783V45.0595Z" fill="black"/>
<path fill-rule="evenodd" clip-rule="evenodd" d="M61.7607 40.2354C61.5556 40.8022 61.3265 41.2967 60.3011 41.2967V42.2375H61.3265V48.6781H62.6531V40.2354H61.7607Z" fill="black"/>
<path fill-rule="evenodd" clip-rule="evenodd" d="M66.0423 47.472C66.0302 47.4116 66.0302 47.3514 66.0302 47.2909C66.0302 45.9039 68.6717 44.915 68.6717 42.2615C68.6717 40.9106 67.9962 40.1389 66.6937 40.1389C65.3912 40.1389 64.7157 40.9109 64.7157 42.2615V43.0818H65.97V42.1772C65.97 41.574 66.2353 41.3449 66.6576 41.3449C67.0796 41.3449 67.3451 41.5499 67.3451 42.3097C67.3451 44.746 64.7158 45.1562 64.7158 47.6407V48.678H68.551V47.472H68.5509H66.0423Z" fill="black"/>
<path fill-rule="evenodd" clip-rule="evenodd" d="M73.8336 42.4787V42.2616C73.8336 40.9108 73.1583 40.1389 71.8556 40.1389C70.5531 40.1389 69.8776 40.9109 69.8776 42.2616V42.7199H71.1319V42.1772C71.1319 41.5741 71.3973 41.345 71.8195 41.345C72.2418 41.345 72.507 41.55 72.507 42.3098V42.7801C72.507 43.4555 72.2054 43.6727 71.7109 43.6727H71.1924V44.8788H71.6387C72.2418 44.8788 72.5071 45.1684 72.5071 45.9521V46.6155C72.5071 47.3633 72.2419 47.5684 71.8196 47.5684C71.3974 47.5684 71.132 47.3392 71.132 46.7362V45.9521H69.8777V46.6517C69.8777 48.0026 70.5532 48.7744 71.8557 48.7744C73.1584 48.7744 73.8337 48.0025 73.8337 46.6517V45.9884C73.8337 45.1321 73.5684 44.5048 72.9051 44.2154C73.5441 43.9502 73.8336 43.3833 73.8336 42.4787Z" fill="black"/>
<path fill-rule="evenodd" clip-rule="evenodd" d="M41.2165 34.7817C41.7141 34.7817 42.1174 35.1852 42.1174 35.6827C42.1174 36.1803 41.7141 36.5836 41.2165 36.5836C40.7189 36.5836 40.3156 36.1803 40.3156 35.6827C40.3156 35.1852 40.7189 34.7817 41.2165 34.7817Z" fill="black"/>
<path fill-rule="evenodd" clip-rule="evenodd" d="M41.2165 52.0137C41.7141 52.0137 42.1174 52.4171 42.1174 52.9146C42.1174 53.4122 41.7141 53.8154 41.2165 53.8154C40.7189 53.8154 40.3156 53.4122 40.3156 52.9146C40.3156 52.4171 40.7189 52.0137 41.2165 52.0137Z" fill="black"/>
<path fill-rule="evenodd" clip-rule="evenodd" d="M67.8451 34.7817C68.3426 34.7817 68.746 35.1852 68.746 35.6827C68.746 36.1803 68.3426 36.5836 67.8451 36.5836C67.3475 36.5836 66.9441 36.1803 66.9441 35.6827C66.9441 35.1852 67.3475 34.7817 67.8451 34.7817Z" fill="black"/>
<path fill-rule="evenodd" clip-rule="evenodd" d="M67.8451 52.0137C68.3426 52.0137 68.746 52.4171 68.746 52.9146C68.746 53.4122 68.3426 53.8154 67.8451 53.8154C67.3475 53.8154 66.9441 53.4122 66.9441 52.9146C66.9441 52.4171 67.3475 52.0137 67.8451 52.0137Z" fill="black"/>
</g>
<path opacity="0.06" fill-rule="evenodd" clip-rule="evenodd" d="M32.5733 66.3505C28.2313 69.7841 21.8102 67.0576 21.2653 61.5489L17.7541 26.0506C17.2309 20.7616 22.5609 16.8419 27.4537 18.9174L58.9561 32.2806C63.8509 34.3569 64.735 40.9174 60.5644 44.2154L32.5733 66.3505Z" fill="#934AEF"/>
</svg>
