<svg width="89" height="89" viewBox="0 0 89 89" fill="none" xmlns="http://www.w3.org/2000/svg">
<path opacity="0.06" fill-rule="evenodd" clip-rule="evenodd" d="M43.9378 64.9975C40.6688 69.4647 33.7531 68.5494 31.7588 63.3856L18.9072 30.1096C16.9924 25.1517 21.0839 19.9524 26.353 20.6478L60.2783 25.1252C65.5496 25.8209 68.1514 31.9079 65.0115 36.1987L43.9378 64.9975Z" fill="#934AEF"/>
<g clip-path="url(#clip0_627_6071)">
<circle cx="49" cy="35.9999" r="7" fill="#7231E5"/>
<path d="M48.5361 44.9274C53.7565 44.9274 57.9998 40.6841 57.9998 35.4637C57.9998 30.2432 53.7565 25.9999 48.5361 25.9999C44.4601 25.9999 40.9932 28.59 39.6613 32.2042C39.6278 32.1975 39.5943 32.1908 39.5609 32.1774C39.7951 31.7558 39.929 31.2672 39.929 30.7518C39.929 29.1255 38.6038 27.8003 36.9774 27.8003C35.351 27.8003 34.0258 29.1255 34.0258 30.7518C34.0258 31.2672 34.1597 31.7558 34.3939 32.1774C30.3313 33.3152 27.3396 37.0365 27.3396 41.4538V47.2633C27.3396 50.1479 26.242 52.892 24.2609 54.9869C23.9998 55.2613 23.9262 55.6629 24.0802 56.0109C24.2274 56.3589 24.5687 56.5798 24.9502 56.5798H32.7274C33.1624 58.5341 34.9026 59.9999 36.9774 59.9999C39.0589 59.9999 40.7991 58.5341 41.2341 56.5798H49.0113C49.3861 56.5798 49.7274 56.3522 49.8813 56.0109C50.0286 55.6629 49.9617 55.2613 49.7006 54.9869C47.7128 52.892 46.6219 50.1546 46.6219 47.2633V44.7266C47.2309 44.8605 47.8735 44.9274 48.5361 44.9274ZM36.9774 29.6944C37.5664 29.6944 38.0416 30.1696 38.0416 30.7585C38.0416 31.3475 37.5597 31.8227 36.9774 31.8227C36.3884 31.8227 35.9132 31.3475 35.9132 30.7585C35.9132 30.1696 36.3884 29.6944 36.9774 29.6944ZM36.9707 58.1125C35.94 58.1125 35.0632 57.4833 34.6884 56.5865H39.2597C38.8849 57.4766 38.0014 58.1125 36.9707 58.1125ZM47.0235 54.6924H26.9246C28.4239 52.5239 29.2337 49.9471 29.2337 47.2633V41.4538C29.2337 37.1837 32.7073 33.7101 36.9774 33.7101C37.7337 33.7101 38.4766 33.8172 39.1928 34.0381C39.1191 34.5066 39.0723 34.9818 39.0723 35.4704C39.0723 39.3322 41.4014 42.6518 44.7211 44.1243V47.27C44.7211 49.9471 45.5309 52.5239 47.0235 54.6924ZM40.9597 35.4637C40.9597 31.2873 44.3597 27.8873 48.5361 27.8873C52.7124 27.8873 56.1124 31.2873 56.1124 35.4637C56.1124 39.64 52.7124 43.04 48.5361 43.04C44.3597 43.04 40.9597 39.64 40.9597 35.4637Z" fill="black"/>
<path d="M51.6281 34.52H49.4796V30.4908C49.4796 29.9688 49.058 29.5471 48.5359 29.5471C48.0139 29.5471 47.5922 29.9688 47.5922 30.4908V35.4637C47.5922 35.9857 48.0139 36.4074 48.5359 36.4074H51.6281C52.1501 36.4074 52.5718 35.9857 52.5718 35.4637C52.5718 34.9416 52.1501 34.52 51.6281 34.52Z" fill="white"/>
</g>
<defs>
<clipPath id="clip0_627_6071">
<rect width="34" height="34" fill="white" transform="translate(24 25.9999)"/>
</clipPath>
</defs>
</svg>
