<svg width="89" height="89" viewBox="0 0 89 89" fill="none" xmlns="http://www.w3.org/2000/svg">
<path opacity="0.06" fill-rule="evenodd" clip-rule="evenodd" d="M33.5733 65.3505C29.2313 68.7841 22.8102 66.0576 22.2653 60.5489L18.7541 25.0506C18.2309 19.7616 23.5609 15.8419 28.4537 17.9174L59.9561 31.2806C64.8509 33.3569 65.735 39.9174 61.5644 43.2154L33.5733 65.3505Z" fill="#934AEF"/>
<mask id="mask0_627_4489" style="mask-type:alpha" maskUnits="userSpaceOnUse" x="18" y="50" width="55" height="24">
<path fill-rule="evenodd" clip-rule="evenodd" d="M18.5435 50.0154H72.4401V74H18.5435V50.0154Z" fill="white"/>
</mask>
<g mask="url(#mask0_627_4489)">
<path fill-rule="evenodd" clip-rule="evenodd" d="M69.7244 55.2226L50.3363 66.4699H39.6906L36.6301 58.0204L42.6661 54.6462H56.0098C56.4899 54.6453 56.95 54.8371 57.2881 55.1791C57.4844 55.3759 57.6311 55.617 57.7156 55.8822C57.7885 56.0678 57.8244 56.2658 57.8204 56.4652C57.8204 57.4698 57.0101 58.2842 56.0098 58.2842H46.0523V60.1032H56.0098C57.838 60.0974 59.3735 58.7212 59.5875 56.8973L67.91 52.0713C68.47 51.7465 69.1601 51.7462 69.7204 52.0713C70.2805 52.3959 70.6257 52.9959 70.6257 53.6456C70.6305 54.2961 70.2858 54.8988 69.7244 55.2226ZM31.75 71.1485L26.7972 57.4658L33.6019 54.9762L38.5555 68.6527L31.75 71.1485ZM24.3269 71.927L20.6159 61.667L25.7193 59.8004L29.4352 70.056L24.3269 71.927ZM71.9556 51.8266C70.9475 50.0972 68.7422 49.504 67.0088 50.4951L59.2825 54.9736C59.1145 54.5715 58.8728 54.2057 58.569 53.8938C57.8918 53.2095 56.9708 52.8254 56.0098 52.8271H42.4314C42.2777 52.8271 42.1264 52.8667 41.9916 52.9416L36.0047 56.2889L34.9952 53.504C34.825 53.0314 34.3056 52.7867 33.8358 52.9581L25.3262 56.0686C25.1004 56.1507 24.9161 56.32 24.8144 56.5385C24.7123 56.7574 24.7013 57.0079 24.7835 57.2348L25.0929 58.0888L19.1409 60.268C18.9151 60.3501 18.7306 60.5189 18.629 60.7379C18.5269 60.9564 18.5159 61.2069 18.5981 61.4338L22.9351 73.3997C23.1052 73.8721 23.6241 74.1164 24.0944 73.9454L30.0499 71.768L30.3594 72.6221C30.5296 73.0946 31.049 73.3387 31.5192 73.1674L40.0283 70.056C40.4985 69.885 40.7417 69.3637 40.5714 68.8912L40.3495 68.2889H50.5785C50.7376 68.2889 50.8937 68.2467 51.0311 68.1673L70.6296 56.7984C71.7554 56.153 72.4476 54.9482 72.44 53.6456C72.4388 53.0074 72.2721 52.3804 71.9556 51.8266Z" fill="black"/>
</g>
<path fill-rule="evenodd" clip-rule="evenodd" d="M39.5435 39.7351L50.2782 29L51.5435 30.2654L40.8085 41L39.5435 39.7351Z" fill="black"/>
<path fill-rule="evenodd" clip-rule="evenodd" d="M50.8769 40.4999C50.8769 40.9602 50.5042 41.3333 50.0435 41.3333C49.5833 41.3333 49.2102 40.9602 49.2102 40.4999C49.2102 40.0397 49.5833 39.6666 50.0435 39.6666C50.5042 39.6666 50.8769 40.0397 50.8769 40.4999ZM47.5435 40.4999C47.5435 41.8806 48.6628 43 50.0435 43C51.4245 43 52.5435 41.8806 52.5435 40.4999C52.5435 39.1193 51.4245 38 50.0435 38C48.6628 38 47.5435 39.1193 47.5435 40.4999Z" fill="black"/>
<path fill-rule="evenodd" clip-rule="evenodd" d="M42.0435 29.6666C42.5041 29.6666 42.8768 30.0398 42.8768 30.4999C42.8768 30.9602 42.5041 31.3334 42.0435 31.3334C41.5832 31.3334 41.2102 30.9602 41.2102 30.4999C41.2102 30.0398 41.5832 29.6666 42.0435 29.6666ZM42.0435 33C43.4244 33 44.5435 31.8806 44.5435 30.4999C44.5435 29.1194 43.4244 28 42.0435 28C40.6628 28 39.5435 29.1194 39.5435 30.4999C39.5435 31.8806 40.6628 33 42.0435 33Z" fill="black"/>
<path fill-rule="evenodd" clip-rule="evenodd" d="M46.5435 23.8571C52.6975 23.8571 57.6863 28.8459 57.6863 35C57.6863 41.1541 52.6975 46.1429 46.5435 46.1429C40.3894 46.1429 35.4006 41.1541 35.4006 35C35.4075 28.8486 40.3927 23.864 46.5435 23.8571ZM46.5435 48C53.7236 48 59.5435 42.1797 59.5435 35C59.5435 27.8203 53.7236 22 46.5435 22C39.3638 22 33.5435 27.8203 33.5435 35C33.5512 42.1766 39.367 47.9923 46.5435 48Z" fill="black"/>
<mask id="mask1_627_4489" style="mask-type:alpha" maskUnits="userSpaceOnUse" x="18" y="19" width="55" height="55">
<path fill-rule="evenodd" clip-rule="evenodd" d="M18.5435 74H72.5435V19H18.5435V74Z" fill="white"/>
</mask>
<g mask="url(#mask1_627_4489)">
<path fill-rule="evenodd" clip-rule="evenodd" d="M44.5435 21H46.5435V19H44.5435V21Z" fill="black"/>
<path fill-rule="evenodd" clip-rule="evenodd" d="M40.5435 19.6338L42.9092 19L43.5435 21.3655L41.178 22L40.5435 19.6338Z" fill="black"/>
<path fill-rule="evenodd" clip-rule="evenodd" d="M36.5435 22.0981L38.4456 21L39.5435 22.9019L37.642 24L36.5435 22.0981Z" fill="black"/>
<path fill-rule="evenodd" clip-rule="evenodd" d="M33.5435 24.4997L35.0435 23L36.5435 24.4997L35.0435 26L33.5435 24.4997Z" fill="black"/>
<path fill-rule="evenodd" clip-rule="evenodd" d="M31.5435 27.9019L32.6414 26L34.5435 27.0981L33.4451 29L31.5435 27.9019Z" fill="black"/>
<path fill-rule="evenodd" clip-rule="evenodd" d="M29.5435 31.3656L30.178 29L32.5435 29.6344L31.9098 32L29.5435 31.3656Z" fill="black"/>
<path fill-rule="evenodd" clip-rule="evenodd" d="M29.5435 36H31.5435V34H29.5435V36Z" fill="black"/>
<path fill-rule="evenodd" clip-rule="evenodd" d="M29.5435 37.634L31.9096 37L32.5435 39.366L30.1776 40L29.5435 37.634Z" fill="black"/>
<path fill-rule="evenodd" clip-rule="evenodd" d="M31.5435 43.0982L33.4454 42L34.5435 43.902L32.6411 45L31.5435 43.0982Z" fill="black"/>
<path fill-rule="evenodd" clip-rule="evenodd" d="M33.5435 46.4999L35.0438 45L36.5435 46.4999L35.0438 48L33.5435 46.4999Z" fill="black"/>
<path fill-rule="evenodd" clip-rule="evenodd" d="M36.5435 48.9019L37.6414 47L39.5435 48.0981L38.4451 50L36.5435 48.9019Z" fill="black"/>
<path fill-rule="evenodd" clip-rule="evenodd" d="M40.5435 51.3655L41.1779 49L43.5435 49.6344L42.9093 52L40.5435 51.3655Z" fill="black"/>
<path fill-rule="evenodd" clip-rule="evenodd" d="M44.5435 52H46.5435V50H44.5435V52Z" fill="black"/>
<path fill-rule="evenodd" clip-rule="evenodd" d="M48.5435 49.6346L50.9085 49L51.5435 51.3654L49.1784 52L48.5435 49.6346Z" fill="black"/>
<path fill-rule="evenodd" clip-rule="evenodd" d="M51.5435 48.0976L53.446 47L54.5435 48.9018L52.6416 50L51.5435 48.0976Z" fill="black"/>
<path fill-rule="evenodd" clip-rule="evenodd" d="M55.5435 46.4997L57.044 45L58.5435 46.5002L57.0435 48L55.5435 46.4997Z" fill="black"/>
<path fill-rule="evenodd" clip-rule="evenodd" d="M58.5435 43.9024L59.6414 42L61.5435 43.0982L60.4456 45L58.5435 43.9024Z" fill="black"/>
<path fill-rule="evenodd" clip-rule="evenodd" d="M59.5435 39.3661L60.1774 37L62.5435 37.6339L61.9096 40L59.5435 39.3661Z" fill="black"/>
<path fill-rule="evenodd" clip-rule="evenodd" d="M59.5435 36H61.5435V34H59.5435V36Z" fill="black"/>
<path fill-rule="evenodd" clip-rule="evenodd" d="M59.5435 29.634L61.9095 29L62.5435 31.366L60.1776 32L59.5435 29.634Z" fill="black"/>
<path fill-rule="evenodd" clip-rule="evenodd" d="M58.5435 27.0981L60.4454 26L61.5435 27.9023L59.6411 29L58.5435 27.0981Z" fill="black"/>
<path fill-rule="evenodd" clip-rule="evenodd" d="M55.5435 24.4997L57.0435 23L58.5435 24.4997L57.0435 26L55.5435 24.4997Z" fill="black"/>
<path fill-rule="evenodd" clip-rule="evenodd" d="M51.5435 22.9024L52.6416 21L54.5435 22.0981L53.446 24L51.5435 22.9024Z" fill="black"/>
<path fill-rule="evenodd" clip-rule="evenodd" d="M48.5435 21.3654L49.179 19L51.5435 19.6347L50.9085 22L48.5435 21.3654Z" fill="black"/>
</g>
<rect x="26.5435" y="57.3942" width="7" height="14" transform="rotate(-20 26.5435 57.3942)" fill="#7231E5"/>
</svg>
