<svg width="89" height="89" viewBox="0 0 89 89" fill="none" xmlns="http://www.w3.org/2000/svg">
<path opacity="0.06" fill-rule="evenodd" clip-rule="evenodd" d="M39.5733 63.3505C35.2313 66.7841 28.8102 64.0576 28.2653 58.5489L24.7541 23.0506C24.231 17.7616 29.5609 13.8419 34.4537 15.9174L65.9561 29.2806C70.8509 31.3569 71.735 37.9174 67.5644 41.2154L39.5733 63.3505Z" fill="#934AEF"/>
<path d="M50.1827 63C49.4805 62.6857 49.2431 62.128 49.2728 61.3574C49.3123 60.2725 49.2827 59.1774 49.2728 58.0925C49.2728 58.0722 49.253 58.052 49.2332 57.981C46.8199 57.981 44.3967 57.981 41.9537 57.981C41.9537 57.545 41.9537 57.1597 41.9537 56.7237C44.3868 56.7237 46.81 56.7237 49.2629 56.7237C49.2629 55.0912 49.2629 53.5196 49.2629 51.8973C51.0844 50.0366 53.7048 46.8084 53.2821 43.0509C52.977 40.3399 52.2107 38.1085 49.975 36.6165C48.3757 35.5492 45.9744 33.7288 41.5897 35.6337C38.1795 37.0623 37.2051 40.1937 35.7918 42.9138C35.6434 42.9138 35.4951 42.9138 35.3566 42.9138C32.7652 42.9138 30.164 42.9036 27.5726 42.9239C26.8209 42.9341 26.2769 42.6806 26 41.9404C26 36.313 26 30.6856 26 25.0582C26.2572 24.3181 26.7616 24.0544 27.5133 24.0544C31.4201 24.0747 35.3269 24.0646 39.2337 24.0646C40.2525 24.0646 40.6976 24.5209 40.6976 25.5652C40.6976 26.7211 40.6976 27.8669 40.6976 29.0633C43.1406 29.0633 45.5737 29.0633 48.0265 29.0633C48.0265 29.5095 48.0265 29.9049 48.0265 30.3308C45.5934 30.3308 43.1801 30.3308 40.7272 30.3308C40.7272 31.9531 40.7272 33.5348 40.7272 35.1571C43.9021 33.6362 47.0276 33.6666 49.975 35.6337C52.9224 37.6007 54.2478 40.5006 54.1884 44.1407C54.3368 44.1407 54.4753 44.1407 54.6236 44.1407C57.2546 44.1407 59.8855 44.1407 62.5263 44.1407C63.5351 44.1407 63.9901 44.6172 63.9901 45.6514C63.9901 50.9138 63.9802 56.166 64 61.4284C64 62.199 63.7428 62.7161 63.0307 62.9797C58.7382 63 54.4654 63 50.1827 63ZM62.7241 61.7123C62.7241 56.2776 62.7241 50.8631 62.7241 45.4385C59.7965 45.4385 56.8985 45.4385 53.9906 45.4385C53.9708 45.4993 53.961 45.55 53.9511 45.6007C53.4565 47.7503 52.3587 49.5044 50.697 50.9037C50.5882 50.9949 50.5091 51.1977 50.4992 51.3498C50.4893 53.0228 50.4893 54.6958 50.4893 56.3688C50.4893 56.4804 50.5091 56.5817 50.519 56.673C52.5664 56.673 54.5742 56.673 56.6611 56.673C56.0776 56.1964 55.5632 55.7706 55.0292 55.3244C55.2962 54.9797 55.5336 54.6755 55.7907 54.3511C57.0271 55.365 58.2238 56.3485 59.4503 57.3523C58.2041 58.3764 57.0073 59.3599 55.7907 60.3536C55.5237 60.0089 55.2863 59.6945 55.039 59.3701C55.5929 58.9138 56.1171 58.488 56.7007 58.0013C54.5841 58.0013 52.5664 58.0013 50.5388 58.0013C50.5388 59.2484 50.5388 60.4854 50.5388 61.7224C54.6137 61.7123 58.659 61.7123 62.7241 61.7123ZM39.481 29.0633C39.481 27.9378 39.4612 26.8631 39.4909 25.7883C39.5008 25.3928 39.3821 25.3117 39.0161 25.3117C35.2379 25.3219 31.4498 25.3219 27.6715 25.3219C27.5429 25.3219 27.4045 25.332 27.2561 25.3422C27.2561 30.787 27.2561 36.2015 27.2561 41.6159C30.1838 41.6159 33.0817 41.6159 35.9896 41.6159C36.4841 39.3751 37.5919 37.5602 39.3227 36.1305C39.4315 36.0393 39.481 35.8263 39.481 35.6641C39.4909 34.0316 39.4909 32.3992 39.4909 30.7566C39.4909 30.6349 39.481 30.5133 39.4711 30.3713C37.4237 30.3713 35.4159 30.3713 33.3191 30.3713C33.9027 30.858 34.4269 31.2839 34.961 31.73C34.684 32.0747 34.4466 32.3789 34.1994 32.7034C32.9729 31.6996 31.7762 30.716 30.5398 29.7021C31.7762 28.6882 32.9828 27.7046 34.1994 26.7008C34.4565 27.0354 34.7038 27.3498 34.961 27.6844C34.4071 28.1406 33.8829 28.5766 33.2993 29.0532C35.4159 29.0633 37.4237 29.0633 39.481 29.0633Z" fill="black"/>
<path d="M55.3951 29.7021C55.3951 30.7464 54.594 31.588 53.5752 31.588C52.5565 31.588 51.7355 30.7566 51.7355 29.7224C51.7355 28.678 52.5367 27.8364 53.5554 27.8364C54.5742 27.8364 55.3951 28.6577 55.3951 29.7021ZM54.1785 29.7021C54.1687 29.3675 53.8818 29.0836 53.5554 29.0836C53.229 29.0937 52.9521 29.3878 52.9521 29.7224C52.962 30.057 53.2488 30.3409 53.5752 30.3307C53.9115 30.3307 54.1884 30.0367 54.1785 29.7021Z" fill="black"/>
<path d="M49.3025 30.3205C49.3025 29.9048 49.3025 29.5195 49.3025 29.1038C49.6882 29.1038 50.064 29.1038 50.4696 29.1038C50.4696 29.4992 50.4696 29.8946 50.4696 30.3205C50.0937 30.3205 49.7179 30.3205 49.3025 30.3205Z" fill="black"/>
<path d="M56.6512 30.3002C56.6512 29.9048 56.6512 29.5195 56.6512 29.1038C57.037 29.1038 57.4128 29.1038 57.8282 29.1038C57.8282 29.4891 57.8282 29.8744 57.8282 30.3002C57.4524 30.3002 57.0666 30.3002 56.6512 30.3002Z" fill="black"/>
<path d="M38.2447 57.3321C38.2447 58.3765 37.4336 59.218 36.4248 59.218C35.406 59.218 34.595 58.3967 34.5851 57.3524C34.5851 56.308 35.3863 55.4664 36.405 55.4664C37.4237 55.4664 38.2447 56.2979 38.2447 57.3321ZM36.4347 57.9709C36.7611 57.9607 37.038 57.6565 37.0281 57.3219C37.0182 56.9873 36.7314 56.7034 36.3951 56.7136C36.0588 56.7237 35.7918 57.0178 35.8017 57.3524C35.8116 57.6971 36.1083 57.981 36.4347 57.9709Z" fill="black"/>
<path d="M32.152 57.9506C32.152 57.5552 32.152 57.1699 32.152 56.744C32.5476 56.744 32.9235 56.744 33.329 56.744C33.329 57.1395 33.329 57.5349 33.329 57.9506C32.9432 57.9506 32.5575 57.9506 32.152 57.9506Z" fill="black"/>
<path d="M40.6778 56.7339C40.6778 57.1597 40.6778 57.545 40.6778 57.9506C40.2821 57.9506 39.9063 57.9506 39.5107 57.9506C39.5107 57.545 39.5107 57.1496 39.5107 56.7339C39.8964 56.7339 40.2722 56.7339 40.6778 56.7339Z" fill="black"/>
<path d="M60.9141 49.2002C60.9141 49.6159 60.9141 49.9911 60.9141 50.4068C58.8865 50.4068 56.8688 50.4068 54.8214 50.4068C54.8214 50.0215 54.8214 49.6261 54.8214 49.2002C56.8391 49.2002 58.8568 49.2002 60.9141 49.2002Z" fill="black"/>
<path d="M56.038 52.9315C56.038 52.5259 56.038 52.1304 56.038 51.7147C57.6502 51.7147 59.2624 51.7147 60.8943 51.7147C60.8943 52.1203 60.8943 52.5157 60.8943 52.9315C59.2821 52.9315 57.6897 52.9315 56.038 52.9315Z" fill="black"/>
<path d="M54.8017 47.9024C54.8017 47.4867 54.8017 47.1014 54.8017 46.6857C55.6127 46.6857 56.4039 46.6857 57.215 46.6857C57.215 47.0912 57.215 47.4765 57.215 47.9024C56.4237 47.9024 55.6325 47.9024 54.8017 47.9024Z" fill="black"/>
<path d="M60.9042 46.6857C60.9042 47.0912 60.9042 47.4765 60.9042 47.9024C60.113 47.9024 59.3217 47.9024 58.5008 47.9024C58.5008 47.507 58.5008 47.1115 58.5008 46.6857C59.292 46.6857 60.0734 46.6857 60.9042 46.6857Z" fill="black"/>
<path d="M29.076 36.6373C31.1135 36.6373 33.1312 36.6373 35.1687 36.6373C35.1687 37.0429 35.1687 37.4383 35.1687 37.8642C33.1411 37.8642 31.1234 37.8642 29.076 37.8642C29.076 37.4485 29.076 37.0632 29.076 36.6373Z" fill="black"/>
<path d="M29.076 40.3688C29.076 39.9633 29.076 39.5678 29.076 39.1521C30.6882 39.1521 32.2905 39.1521 33.9323 39.1521C33.9323 39.5475 33.9323 39.943 33.9323 40.3688C32.3201 40.3688 30.7179 40.3688 29.076 40.3688Z" fill="black"/>
<path d="M32.7652 35.3498C32.7652 34.9239 32.7652 34.5386 32.7652 34.1229C33.9719 34.1229 35.1687 34.1229 36.3852 34.1229C36.3852 34.5285 36.3852 34.9239 36.3852 35.3498C35.1786 35.3498 33.9818 35.3498 32.7652 35.3498Z" fill="black"/>
<path d="M29.0661 35.3395C29.0661 34.9238 29.0661 34.5385 29.0661 34.1329C29.8772 34.1329 30.6684 34.1329 31.4794 34.1329C31.4794 34.5284 31.4794 34.9137 31.4794 35.3395C30.6882 35.3395 29.8969 35.3395 29.0661 35.3395Z" fill="black"/>
<circle cx="44.85" cy="43.85" r="8.85" fill="#F9F4FE"/>
<path fill-rule="evenodd" clip-rule="evenodd" d="M40.2667 48.0513L48.3177 40L49.2667 40.949L41.2154 49L40.2667 48.0513Z" fill="black"/>
<path fill-rule="evenodd" clip-rule="evenodd" d="M48.3111 48.1667C48.3111 48.5042 48.0378 48.7778 47.7 48.7778C47.3625 48.7778 47.0889 48.5042 47.0889 48.1667C47.0889 47.8292 47.3625 47.5556 47.7 47.5556C48.0378 47.5556 48.3111 47.8292 48.3111 48.1667ZM45.8667 48.1667C45.8667 49.1792 46.6875 50 47.7 50C48.7127 50 49.5333 49.1792 49.5333 48.1667C49.5333 47.1542 48.7127 46.3334 47.7 46.3334C46.6875 46.3334 45.8667 47.1542 45.8667 48.1667Z" fill="black"/>
<path fill-rule="evenodd" clip-rule="evenodd" d="M41.8333 40.2222C42.1711 40.2222 42.4444 40.4959 42.4444 40.8333C42.4444 41.1708 42.1711 41.4445 41.8333 41.4445C41.4958 41.4445 41.2222 41.1708 41.2222 40.8333C41.2222 40.4959 41.4958 40.2222 41.8333 40.2222ZM41.8333 42.6667C42.846 42.6667 43.6667 41.8458 43.6667 40.8333C43.6667 39.8209 42.846 39 41.8333 39C40.8208 39 40 39.8209 40 40.8333C40 41.8458 40.8208 42.6667 41.8333 42.6667Z" fill="black"/>
</svg>
