<svg width="89" height="89" viewBox="0 0 89 89" fill="none" xmlns="http://www.w3.org/2000/svg">
<path opacity="0.06" fill-rule="evenodd" clip-rule="evenodd" d="M29.5733 76.3505C25.2313 79.7841 18.8102 77.0576 18.2653 71.5489L14.7541 36.0506C14.231 30.7616 19.5609 26.8419 24.4537 28.9174L55.9561 42.2806C60.8509 44.3569 61.735 50.9174 57.5644 54.2154L29.5733 76.3505Z" fill="#934AEF"/>
<path fill-rule="evenodd" clip-rule="evenodd" d="M55.5435 17L56.0361 27H64.5435L55.5435 17Z" fill="#7231E5"/>
<mask id="mask0_627_4553" style="mask-type:alpha" maskUnits="userSpaceOnUse" x="26" y="15" width="39" height="51">
<path fill-rule="evenodd" clip-rule="evenodd" d="M26.5435 15H64.5435V66H26.5435V15Z" fill="white"/>
</mask>
<g mask="url(#mask0_627_4553)">
<path fill-rule="evenodd" clip-rule="evenodd" d="M62.8913 56.1291C62.8913 56.9517 62.2305 57.7743 61.2392 57.7743H36.4566C35.6305 57.7743 34.8044 57.1162 34.8044 56.1291V18.2904C34.8044 17.4679 35.4653 16.6453 36.4566 16.6453H52.9783V24.8711C52.9783 26.6808 54.4653 28.1614 56.2826 28.1614H62.8913V56.1291ZM59.587 59.4194C59.587 60.2419 58.9261 61.0645 57.9348 61.0645H33.1522C32.3262 61.0645 31.5 60.4065 31.5 59.4194V21.5806C31.5 20.7581 32.1609 19.9355 33.1522 19.9355V56.129C33.1522 57.9386 34.6391 59.4194 36.4566 59.4194H59.587ZM54.6305 64.3548H29.8479C29.0218 64.3548 28.1957 63.6968 28.1957 62.7097V24.871C28.1957 24.0484 28.8566 23.2258 29.8479 23.2258V59.4194C29.8479 61.2289 31.3348 62.7097 33.1522 62.7097H56.2826C56.2826 63.5323 55.6218 64.3548 54.6305 64.3548ZM54.6305 17.4678L62.3957 26.5161H56.2826C55.4565 26.5161 54.6305 25.6936 54.6305 24.871V17.4678ZM54.6305 15H36.4566C34.6391 15 33.1522 16.4805 33.1522 18.2903C31.3348 18.2903 29.8479 19.7708 29.8479 21.5806C28.0304 21.5806 26.5435 23.0612 26.5435 24.871V62.7097C26.5435 64.5192 28.0304 66 29.8479 66H54.6305C56.4478 66 57.9348 64.5192 57.9348 62.7097C59.7522 62.7097 61.2392 61.2289 61.2392 59.4194C63.0565 59.4194 64.5435 57.9386 64.5435 56.129V27.3388V26.5161L54.6305 15Z" fill="black"/>
</g>
<path fill-rule="evenodd" clip-rule="evenodd" d="M45.988 34.25H50.8769C52.2247 34.25 53.3213 35.3715 53.3213 36.75C53.3213 38.1307 52.2272 39.25 50.8769 39.25H45.988V34.25ZM50.8769 40.5C52.9024 40.5 54.5435 38.8219 54.5435 36.75C54.5435 34.6823 52.8987 33 50.8769 33H45.3769C45.0394 33 44.7657 33.2798 44.7657 33.625V39.25H44.1546C43.8172 39.25 43.5435 39.5298 43.5435 39.875C43.5435 40.2202 43.8172 40.5 44.1546 40.5H44.7657V43H44.1546C43.8172 43 43.5435 43.2798 43.5435 43.625C43.5435 43.9702 43.8172 44.25 44.1546 44.25H44.7657V47.375C44.7657 47.7202 45.0394 48 45.3769 48C45.7143 48 45.988 47.7202 45.988 47.375V44.25H50.2657C50.6032 44.25 50.8769 43.9702 50.8769 43.625C50.8769 43.2798 50.6032 43 50.2657 43H45.988V40.5H50.8769Z" fill="black"/>
</svg>
