<svg width="89" height="89" viewBox="0 0 89 89" fill="none" xmlns="http://www.w3.org/2000/svg">
<path d="M59.871 33.5272L59.871 33.5272L59.8789 33.5269C60.6769 33.4922 61.4112 33.487 62.2346 33.5357C51.8656 35.5245 44.7878 39.3639 41.9276 44.87C39.6175 49.2808 40.5649 53.5595 41.8259 56.4245L17.5392 56.3843C17.2391 51.459 18.6624 47.2704 21.7966 43.8581C25.8961 39.4344 32.4648 36.8502 39.3425 35.3794C46.2059 33.9116 53.297 33.569 58.3583 33.569V33.5692L58.3722 33.5688L59.871 33.5272Z" stroke="black"/>
<path d="M26.2699 46.418C24.7369 49.173 24.0757 52.4096 24.4863 56.1754H24.481H24.4661H24.4513H24.4364H24.4216H24.4067H24.3918H24.3769H24.362H24.3471H24.3321H24.3172H24.3022H24.2873H24.2723H24.2573H24.2423H24.2273H24.2123H24.1973H24.1823H24.1673H24.1522H24.1372H24.1221H24.107H24.092H24.0769H24.0618H24.0467H24.0316H24.0164H24.0013H23.9862H23.971H23.9558H23.9407H23.9255H23.9103H23.8951H23.8799H23.8647H23.8495H23.8343H23.8191H23.8038H23.7886H23.7733H23.7581H23.7428H23.7275H23.7122H23.6969H23.6816H23.6663H23.651H23.6357H23.6203H23.605H23.5897H23.5743H23.559H23.5436H23.5282H23.5128H23.4975H23.4821H23.4667H23.4513H23.4358H23.4204H23.405H23.3896H23.3741H23.3587H23.3432H23.3278H23.3123H23.2968H23.2814H23.2659H23.2504H23.2349H23.2194H23.2039H23.1884H23.1729H23.1573H23.1418H23.1263H23.1107H23.0952H23.0796H23.0641H23.0485H23.033H23.0174H23.0018H22.9862H22.9707H22.9551H22.9395H22.9239H22.9083H22.8926H22.877H22.8614H22.8458H22.8302H22.8145H22.7989H22.7832H22.7676H22.752H22.7363H22.7206H22.705H22.6893H22.6736H22.658H22.6423H22.6266H22.6109H22.5952H22.5795H22.5638H22.5481H22.5324H22.5167H22.501H22.4853H22.4696H22.4539H22.4381H22.4224H22.4067H22.3909H22.3752H22.3595H22.3437H22.328H22.3122H22.2965H22.2807H22.265H22.2492H22.2335H22.2177H22.2019H22.1862H22.1704H22.1546H22.1389H22.1231H22.1073H22.0915H22.0757H22.06H22.0442H22.0284H22.0126H21.9968H21.981H21.9652H21.9494H21.9336H21.9178H21.902H21.8862H21.8704H21.8546H21.8388H21.823H21.8072H21.7914H21.7756H21.7598H21.744H21.7282H21.7124H21.6966H21.6807H21.6649H21.6491H21.6333H21.6175H21.6017H21.5859H21.57H21.5542H21.5384H21.5226H21.5068H21.491H21.4752H21.4593H21.4435H21.4277H21.4119H21.3961H21.3803H21.3645H21.3487H21.3328H21.317H21.3012H21.2854H21.2696H21.2538H21.238H21.2222H21.2064H21.1906H21.1748H21.159H21.1432H21.1274H21.1116H21.0958H21.08H21.0642H21.0484H21.0326H21.0168H21.0011H20.9853H20.9695H20.9537H20.9379H20.9222H20.9064H20.8906H20.8748H20.8591H20.8433H20.8276H20.8118H20.796H20.7803H20.7645H20.7488H20.733H20.7173H20.7015H20.6858H20.6701H20.6543H20.6386H20.6229H20.6072H20.5914H20.5757H20.56H20.5443H20.5286H20.5129H20.4972H20.4815H20.4658H20.4501H20.4344H20.4187H20.4031H20.3874H20.3717H20.356H20.3404H20.3247H20.3091H20.2934H20.2778H20.2621H20.2465H20.2309H20.2152H20.1996H20.184H20.1684H20.1528H20.1371H20.1215H20.106H20.0904H20.0748H20.0592H20.0436H20.028H20.0125H19.9969H19.9814H19.9658H19.9503H19.9347H19.9192H19.9037H19.8881H19.8726H19.8571H19.8416H19.8261H19.8106H19.7951H19.7796H19.7642H19.7487H19.7332H19.7178H19.7023H19.6869H19.6714H19.656H19.6406H19.6252H19.6098H19.5943H19.5789H19.5636H19.5482H19.5328H19.5174H19.502H19.4867H19.4713H19.456H19.4407H19.4253H19.41H19.3947H19.3794H19.3641H19.3488H19.3335H19.3182H19.3029H19.2877H19.2724H19.2572H19.2419H19.2267H19.2115H19.1963H19.1811H19.1659H19.1507H19.1355H19.1203H19.1052H19.09H19.0748H19.0597H19.0446H19.0294H19.0143H18.9992H18.9841H18.969H18.954H18.9389H18.9238H18.9088H18.8937H18.8787H18.8637H18.8487H18.8336H18.8186H18.8037H18.7887H18.7737H18.7588H18.7438H18.7289H18.7139H18.699H18.6841H18.6692H18.6543H18.6394H18.6246H18.6097H18.5948H18.58H18.5652H18.5504H18.5355H18.5207H18.506H18.4912H18.4764H18.4617H18.4469H18.4322H18.4174H18.4027H18.388H18.3733H18.3587H18.344H18.3293H18.3147H18.3H18.2854H18.2708H18.2562H18.2416H18.227H18.2125H18.1979H18.1834H18.1688H18.1543H18.1398H18.1253H18.1108H18.0964H18.0819H18.0674H18.053H18.0386H18.0242H18.0098H17.9954H17.981H17.9666H17.9523H17.938H17.9236H17.9093H17.895H17.8807H17.8665H17.8522H17.838H17.8237H17.8095H17.7953H17.7811H17.7669H17.7527H17.7386H17.7337C17.5044 52.0165 18.5472 48.5824 20.5357 45.7544C22.6032 42.814 25.7154 40.4976 29.5601 38.7165C35.3319 36.0425 42.6956 34.6018 50.4731 34.048C43.9999 35.0481 38.1345 36.7401 33.6114 39.3602C30.4199 41.2089 27.8762 43.5313 26.2699 46.418Z" stroke="black"/>
<path d="M42.6956 43.2107C39.7691 47.3752 39.8288 52.0494 41.5373 56.1753H34.2062C33.3932 51.7725 34.2687 48.2761 36.1267 45.4778C38.0509 42.5799 41.0556 40.392 44.4375 38.7434C47.5876 37.2078 51.0315 36.1559 54.161 35.4345C48.5005 37.471 44.8247 40.181 42.6956 43.2107Z" fill="#7231E5" stroke="black"/>
<path fill-rule="evenodd" clip-rule="evenodd" d="M61.9239 54.0108C60.9247 54.552 59.8006 54.8435 58.5099 54.8435C57.5107 54.8435 56.5531 54.6769 55.7205 54.3439C54.8878 54.0108 54.2633 53.5528 53.8469 52.9283C53.5971 52.5536 53.4306 52.1373 53.4306 51.7625C53.4306 50.8882 53.9302 50.1805 54.9711 49.556C55.9703 48.9731 57.136 48.6816 58.5099 48.6816C59.8006 48.6816 60.9247 48.9731 61.9239 49.5143V51.0964C61.4659 50.5968 61.008 50.2221 60.55 49.9723C59.9671 49.6392 59.2594 49.4727 58.5099 49.4727C57.5524 49.4727 56.7197 49.6809 56.0952 50.1388C55.4707 50.5968 55.1376 51.138 55.1376 51.7625C55.1376 52.3871 55.429 52.9283 56.0952 53.3446C56.7613 53.8026 57.5524 54.0524 58.5516 54.0524C59.8006 54.0524 60.9247 53.5112 61.9656 52.3871V54.0108H61.9239Z" fill="black"/>
<path fill-rule="evenodd" clip-rule="evenodd" d="M69.7927 48.6399V48.973C69.0849 48.7648 68.3355 48.6399 67.5445 48.6399C66.1706 48.6399 65.0048 48.9313 64.0056 49.5142C63.0064 50.0971 62.4652 50.8465 62.4652 51.7208C62.4652 52.1371 62.5901 52.5118 62.8815 52.8866C63.2978 53.4694 63.9223 53.9274 64.755 54.3021C65.5877 54.6352 66.5453 54.8017 67.5445 54.8017C68.3355 54.8017 69.1266 54.6768 69.7927 54.4686V54.9682H71.4581V48.6399H69.7927ZM67.5445 54.0107C66.5869 54.0107 65.7542 53.7609 65.0881 53.3029C64.4636 52.8449 64.1305 52.3453 64.1305 51.7208C64.1305 51.0963 64.4636 50.5551 65.0881 50.0971C65.7542 49.6391 66.5453 49.4309 67.5029 49.4309C68.2523 49.4309 68.9184 49.5975 69.5429 49.9305C69.6262 49.9722 69.7095 50.0138 69.7927 50.0554V53.2613C69.0849 53.8025 68.3355 54.0107 67.5445 54.0107Z" fill="black"/>
<path fill-rule="evenodd" clip-rule="evenodd" d="M51.3905 49.7225C50.3913 49.1396 49.2256 48.8481 47.8517 48.8481C47.019 48.8481 46.2696 48.973 45.6034 49.1812V48.8481H43.9381V56.717H45.6034V54.7185C46.3112 54.9267 47.0606 55.0516 47.8517 55.0516C48.8509 55.0516 49.8084 54.8851 50.6411 54.552C51.4738 54.2189 52.0983 53.7609 52.5147 53.1364C52.7645 52.7617 52.931 52.3454 52.931 51.9707C52.931 51.0547 52.3898 50.347 51.3905 49.7225ZM50.3081 53.5111C49.6419 53.9691 48.8509 54.2189 47.8517 54.2189C47.0606 54.2189 46.2696 53.9691 45.6034 53.5528V50.347C45.6867 50.3053 45.77 50.2637 45.8532 50.2221C46.4361 49.889 47.1439 49.7225 47.8933 49.7225C48.8509 49.7225 49.6835 49.9306 50.3081 50.3886C50.9326 50.8466 51.2656 51.3878 51.2656 52.0123C51.224 52.5536 50.9326 53.0948 50.3081 53.5111Z" fill="black"/>
</svg>
