<svg width="89" height="89" viewBox="0 0 89 89" fill="none" xmlns="http://www.w3.org/2000/svg">
<path d="M32.8089 49.0219V52.0732H30.6409V43.0799H34.2296C34.9173 43.0799 35.5247 43.2075 36.0517 43.4628C36.5829 43.714 36.9927 44.0743 37.2809 44.5438C37.5733 45.0091 37.7195 45.5382 37.7195 46.1312C37.7195 47.0083 37.4045 47.7104 36.7744 48.2375C36.1485 48.7604 35.2879 49.0219 34.1925 49.0219H32.8089ZM32.8089 47.348H34.2296C34.6496 47.348 34.9688 47.243 35.187 47.033C35.4094 46.823 35.5205 46.5265 35.5205 46.1436C35.5205 45.7235 35.4073 45.3879 35.1808 45.1367C34.9543 44.8856 34.6455 44.7579 34.2543 44.7538H32.8089V47.348ZM46.1569 49.0281C46.1281 49.654 45.9593 50.2079 45.6504 50.6896C45.3416 51.1673 44.9072 51.5379 44.3471 51.8015C43.7912 52.065 43.155 52.1968 42.4385 52.1968C41.2567 52.1968 40.3261 51.8118 39.6466 51.0417C38.9672 50.2717 38.6275 49.1846 38.6275 47.7804V47.3357C38.6275 46.4545 38.7798 45.6844 39.0845 45.0256C39.3934 44.3626 39.836 43.852 40.4125 43.4937C40.989 43.1314 41.6561 42.9502 42.4138 42.9502C43.505 42.9502 44.3821 43.2384 45.0451 43.8149C45.7081 44.3873 46.0849 45.1779 46.1755 46.1868H44.0136C43.9971 45.6391 43.8592 45.2459 43.5997 45.007C43.3403 44.7682 42.945 44.6488 42.4138 44.6488C41.8744 44.6488 41.4791 44.8506 41.2279 45.2541C40.9767 45.6576 40.8449 46.3021 40.8326 47.1874V47.8236C40.8326 48.7831 40.952 49.4687 41.1908 49.8805C41.4338 50.2923 41.8497 50.4982 42.4385 50.4982C42.9368 50.4982 43.3177 50.3808 43.5812 50.1461C43.8448 49.9114 43.9848 49.5387 44.0012 49.0281H46.1569ZM52.2904 50.3932H49.3194L48.8006 52.0732H46.4843L49.7827 43.0799H51.821L55.1441 52.0732H52.8155L52.2904 50.3932ZM49.8383 48.7193H51.7716L50.8018 45.6L49.8383 48.7193Z" fill="#7231E5"/>
<path fill-rule="evenodd" clip-rule="evenodd" d="M43.0435 65.0732C52.7085 65.0732 60.5435 57.2382 60.5435 47.5732C60.5435 37.9083 52.7085 30.0732 43.0435 30.0732C33.3785 30.0732 25.5435 37.9083 25.5435 47.5732C25.5435 57.2382 33.3785 65.0732 43.0435 65.0732Z" stroke="black" stroke-width="1.5"/>
<path d="M56.1535 60.9482L65.1535 68.9482" stroke="black" stroke-width="1.265" stroke-linecap="round"/>
<path opacity="0.06" fill-rule="evenodd" clip-rule="evenodd" d="M38.5733 64.4239C34.2314 67.8575 27.8102 65.1309 27.2654 59.6223L23.7541 24.1239C23.231 18.835 28.561 14.9152 33.4537 16.9907L64.9561 30.3539C69.8509 32.4303 70.735 38.9907 66.5645 42.2888L38.5733 64.4239Z" fill="#934AEF"/>
</svg>
