<svg width="89" height="89" viewBox="0 0 89 89" fill="none" xmlns="http://www.w3.org/2000/svg">
<path d="M31.4236 27.9738H30.8651V30H30.0468V25.2723H30.8651V27.2595H31.3164L32.7062 25.2723H33.7128L32.0892 27.5355L33.8556 30H32.8685L31.4236 27.9738ZM37.7262 25.9347H36.252V30H35.437V25.9347H33.9758V25.2723H37.7262V25.9347ZM41.8207 30H41.0349V26.2042L39.8757 26.6003V25.9347L41.72 25.256H41.8207V30ZM44.006 29.1687C44.1532 29.1687 44.2668 29.211 44.3469 29.2954C44.427 29.3776 44.4671 29.4816 44.4671 29.6071C44.4671 29.7305 44.427 29.8333 44.3469 29.9156C44.2668 29.9957 44.1532 30.0357 44.006 30.0357C43.8653 30.0357 43.7538 29.9957 43.6715 29.9156C43.5893 29.8355 43.5481 29.7327 43.5481 29.6071C43.5481 29.4816 43.5882 29.3776 43.6683 29.2954C43.7484 29.211 43.8609 29.1687 44.006 29.1687ZM48.4999 30H45.321V29.4577L46.8959 27.74C47.1232 27.4868 47.2844 27.2757 47.3797 27.1069C47.4771 26.9358 47.5258 26.7648 47.5258 26.5938C47.5258 26.3687 47.4619 26.1869 47.3342 26.0483C47.2087 25.9098 47.0387 25.8405 46.8244 25.8405C46.569 25.8405 46.3709 25.9184 46.2302 26.0743C46.0895 26.2302 46.0192 26.4434 46.0192 26.714H45.2301C45.2301 26.4261 45.2951 26.1674 45.425 25.9379C45.557 25.7063 45.7442 25.5266 45.9867 25.3989C46.2313 25.2712 46.5127 25.2073 46.8309 25.2073C47.2899 25.2073 47.6514 25.3231 47.9155 25.5548C48.1817 25.7842 48.3148 26.1024 48.3148 26.5094C48.3148 26.7454 48.2477 26.9932 48.1135 27.253C47.9815 27.5106 47.7639 27.8039 47.4609 28.1329L46.3049 29.3701H48.4999V30ZM31.4236 35.9738H30.8651V38H30.0468V33.2723H30.8651V35.2595H31.3164L32.7062 33.2723H33.7128L32.0892 35.5355L33.8556 38H32.8685L31.4236 35.9738ZM37.2975 33.9347H35.1188V35.0809H36.0864C36.4327 35.0809 36.7347 35.1404 36.9923 35.2595C37.2499 35.3785 37.4458 35.5474 37.58 35.766C37.7142 35.9847 37.7814 36.2379 37.7814 36.5258C37.7814 36.9674 37.6309 37.3224 37.33 37.5909C37.0313 37.8593 36.6232 37.9957 36.1059 38H34.2972V33.2723H37.2975V33.9347ZM35.1188 35.74V37.3441H36.0831C36.3602 37.3441 36.5756 37.2694 36.7293 37.12C36.8852 36.9685 36.9631 36.7683 36.9631 36.5193C36.9631 36.2812 36.8873 36.0929 36.7358 35.9543C36.5843 35.8158 36.3743 35.7444 36.1059 35.74H35.1188ZM39.5575 33.2723L40.9213 36.896L42.2818 33.2723H43.3436V38H42.5253V36.4414L42.6065 34.3568L41.2103 38H40.6225L39.2295 34.36L39.3107 36.4414V38H38.4925V33.2723H39.5575ZM48.9285 36.0095C48.9285 36.6893 48.8008 37.2023 48.5454 37.5487C48.2921 37.8928 47.9057 38.0649 47.3862 38.0649C46.8753 38.0649 46.49 37.8972 46.2302 37.5616C45.9726 37.224 45.8406 36.725 45.8341 36.0647V35.2465C45.8341 34.5668 45.9607 34.057 46.214 33.7171C46.4694 33.3773 46.858 33.2073 47.3797 33.2073C47.8971 33.2073 48.2824 33.3729 48.5356 33.7041C48.7911 34.0353 48.922 34.531 48.9285 35.1913V36.0095ZM48.1395 35.1263C48.1395 34.6826 48.0789 34.3579 47.9577 34.1522C47.8364 33.9444 47.6438 33.8405 47.3797 33.8405C47.1221 33.8405 46.9327 33.939 46.8115 34.136C46.6902 34.3308 46.6264 34.636 46.6199 35.0517V36.1232C46.6199 36.5648 46.6816 36.8938 46.805 37.1103C46.9283 37.3268 47.1221 37.435 47.3862 37.435C47.6395 37.435 47.8267 37.3354 47.9479 37.1363C48.0692 36.935 48.133 36.6211 48.1395 36.1946V35.1263ZM50.1689 37.1687C50.3161 37.1687 50.4298 37.211 50.5099 37.2954C50.59 37.3776 50.63 37.4816 50.63 37.6071C50.63 37.7305 50.59 37.8333 50.5099 37.9156C50.4298 37.9957 50.3161 38.0357 50.1689 38.0357C50.0282 38.0357 49.9167 37.9957 49.8345 37.9156C49.7522 37.8355 49.7111 37.7327 49.7111 37.6071C49.7111 37.4816 49.7511 37.3776 49.8312 37.2954C49.9113 37.211 50.0239 37.1687 50.1689 37.1687ZM53.7212 36.0225C53.4571 36.3018 53.1487 36.4414 52.7958 36.4414C52.3802 36.4414 52.049 36.2964 51.8022 36.0063C51.5554 35.7141 51.432 35.3309 51.432 34.8568C51.432 34.5451 51.4948 34.2626 51.6204 34.0094C51.7459 33.7561 51.9245 33.5591 52.1561 33.4184C52.3878 33.2777 52.6562 33.2073 52.9614 33.2073C53.4376 33.2073 53.8154 33.3848 54.0946 33.7398C54.3739 34.0949 54.5135 34.57 54.5135 35.1653V35.3861C54.5135 36.239 54.3208 36.8895 53.9355 37.3376C53.5502 37.7857 52.9755 38.013 52.2113 38.0195H52.1172V37.3668H52.2308C52.6962 37.3603 53.0534 37.2488 53.3023 37.0324C53.5513 36.8137 53.6909 36.4771 53.7212 36.0225ZM52.9614 35.8245C53.1194 35.8245 53.2677 35.779 53.4063 35.6881C53.5448 35.5972 53.6519 35.4716 53.7277 35.3114V35.003C53.7277 34.6544 53.6563 34.3741 53.5134 34.162C53.3705 33.9498 53.1855 33.8437 52.9582 33.8437C52.7309 33.8437 52.549 33.9379 52.4126 34.1262C52.2784 34.3124 52.2113 34.5484 52.2113 34.8341C52.2113 35.1307 52.2795 35.3699 52.4159 35.5517C52.5523 35.7335 52.7341 35.8245 52.9614 35.8245ZM31.4236 43.9738H30.8651V46H30.0468V41.2723H30.8651V43.2595H31.3164L32.7062 41.2723H33.7128L32.0892 43.5355L33.8556 46H32.8685L31.4236 43.9738ZM35.3753 41.2723L36.739 44.896L38.0996 41.2723H39.1614V46H38.3431V44.4414L38.4243 42.3568L37.028 46H36.4403L35.0473 42.36L35.1285 44.4414V46H34.3102V41.2723H35.3753ZM44.7463 44.0095C44.7463 44.6893 44.6186 45.2023 44.3632 45.5487C44.1099 45.8928 43.7235 46.0649 43.204 46.0649C42.6931 46.0649 42.3078 45.8972 42.048 45.5616C41.7904 45.224 41.6584 44.725 41.6519 44.0647V43.2465C41.6519 42.5668 41.7785 42.057 42.0318 41.7171C42.2872 41.3773 42.6758 41.2073 43.1975 41.2073C43.7148 41.2073 44.1002 41.3729 44.3534 41.7041C44.6089 42.0353 44.7398 42.531 44.7463 43.1913V44.0095ZM43.9573 43.1263C43.9573 42.6826 43.8967 42.3579 43.7754 42.1522C43.6542 41.9444 43.4616 41.8405 43.1975 41.8405C42.9399 41.8405 42.7505 41.939 42.6292 42.136C42.508 42.3308 42.4441 42.636 42.4377 43.0517V44.1232C42.4377 44.5648 42.4993 44.8938 42.6227 45.1103C42.7461 45.3268 42.9399 45.435 43.204 45.435C43.4572 45.435 43.6445 45.3354 43.7657 45.1363C43.8869 44.935 43.9508 44.6211 43.9573 44.1946V43.1263ZM45.9867 45.1687C46.1339 45.1687 46.2475 45.211 46.3276 45.2954C46.4077 45.3776 46.4478 45.4816 46.4478 45.6071C46.4478 45.7305 46.4077 45.8333 46.3276 45.9156C46.2475 45.9957 46.1339 46.0357 45.9867 46.0357C45.846 46.0357 45.7345 45.9957 45.6522 45.9156C45.57 45.8355 45.5289 45.7327 45.5289 45.6071C45.5289 45.4816 45.5689 45.3776 45.649 45.2954C45.7291 45.211 45.8417 45.1687 45.9867 45.1687ZM50.4482 41.7106L48.5584 46H47.7304L49.6169 41.9054H47.1719V41.2723H50.4482V41.7106ZM31.4236 51.9738H30.8651V54H30.0468V49.2723H30.8651V51.2595H31.3164L32.7062 49.2723H33.7128L32.0892 51.5355L33.8556 54H32.8685L31.4236 51.9738ZM34.3102 54V49.2723H35.9305C36.4652 49.2723 36.8722 49.3794 37.1514 49.5937C37.4307 49.808 37.5703 50.1273 37.5703 50.5516C37.5703 50.7681 37.5118 50.9629 37.3949 51.1361C37.2781 51.3093 37.107 51.4435 36.8819 51.5387C37.1373 51.608 37.3343 51.739 37.4729 51.9316C37.6136 52.1221 37.6839 52.3516 37.6839 52.62C37.6839 53.0638 37.5411 53.4047 37.2553 53.6428C36.9717 53.8809 36.5648 54 36.0344 54H34.3102ZM35.1317 51.8667V53.3441H36.0442C36.3018 53.3441 36.5031 53.2802 36.6481 53.1525C36.7932 53.0248 36.8657 52.8473 36.8657 52.62C36.8657 52.1286 36.6146 51.8775 36.1124 51.8667H35.1317ZM35.1317 51.2627H35.937C36.1925 51.2627 36.3916 51.2054 36.5345 51.0906C36.6795 50.9737 36.752 50.8092 36.752 50.5971C36.752 50.3633 36.6849 50.1944 36.5507 50.0905C36.4187 49.9866 36.2119 49.9347 35.9305 49.9347H35.1317V51.2627ZM42.1129 52.4609C42.0653 52.9653 41.8792 53.3592 41.5544 53.6428C41.2297 53.9242 40.7979 54.0649 40.2589 54.0649C39.8822 54.0649 39.5499 53.9762 39.262 53.7987C38.9763 53.619 38.7555 53.3647 38.5996 53.0356C38.4438 52.7066 38.3626 52.3245 38.3561 51.8894V51.4478C38.3561 51.0019 38.4351 50.609 38.5931 50.2691C38.7511 49.9293 38.9774 49.6673 39.2718 49.4833C39.5683 49.2993 39.9103 49.2073 40.2978 49.2073C40.8195 49.2073 41.2395 49.3491 41.5577 49.6327C41.8759 49.9163 42.061 50.3167 42.1129 50.8341H41.2947C41.2557 50.4942 41.1561 50.2496 40.996 50.1003C40.8379 49.9487 40.6052 49.873 40.2978 49.873C39.9407 49.873 39.6657 50.0039 39.4731 50.2659C39.2826 50.5256 39.1852 50.9077 39.1808 51.4121V51.831C39.1808 52.3418 39.2718 52.7315 39.4536 52.9999C39.6376 53.2683 39.906 53.4025 40.2589 53.4025C40.5814 53.4025 40.8239 53.33 40.9862 53.185C41.1486 53.0399 41.2514 52.7986 41.2947 52.4609H42.1129ZM46.516 54H45.7302V50.2042L44.571 50.6003V49.9347L46.4153 49.256H46.516V54Z" fill="black"/>
<mask id="path-2-inside-1_627_4390" fill="white">
<path fill-rule="evenodd" clip-rule="evenodd" d="M53.0758 15H29.3835C26.7105 15 24.5435 17.1669 24.5435 19.84V58.16C24.5435 60.8331 26.7105 63 29.3835 63H60.7035C63.3766 63 65.5435 60.8331 65.5435 58.16V29.2725L64.6965 28.3029V58.16C64.6965 60.3653 62.9088 62.153 60.7035 62.153H29.3835C27.1783 62.153 25.3905 60.3653 25.3905 58.16V19.84C25.3905 17.6347 27.1783 15.847 29.3835 15.847H53.8157L53.0758 15Z"/>
</mask>
<path d="M53.0758 15L53.9871 14.204L53.6255 13.79H53.0758V15ZM65.5435 29.2725H66.7535V28.8185L66.4548 28.4765L65.5435 29.2725ZM64.6965 28.3029L65.6078 27.5069L63.4865 25.0785V28.3029H64.6965ZM53.8157 15.847V17.057H56.4793L54.727 15.051L53.8157 15.847ZM53.0758 13.79H29.3835V16.21H53.0758V13.79ZM29.3835 13.79C26.0422 13.79 23.3335 16.4987 23.3335 19.84H25.7535C25.7535 17.8352 27.3787 16.21 29.3835 16.21V13.79ZM23.3335 19.84V58.16H25.7535V19.84H23.3335ZM23.3335 58.16C23.3335 61.5013 26.0422 64.21 29.3835 64.21V61.79C27.3787 61.79 25.7535 60.1648 25.7535 58.16H23.3335ZM29.3835 64.21H60.7035V61.79H29.3835V64.21ZM60.7035 64.21C64.0449 64.21 66.7535 61.5013 66.7535 58.16H64.3335C64.3335 60.1648 62.7083 61.79 60.7035 61.79V64.21ZM66.7535 58.16V29.2725H64.3335V58.16H66.7535ZM66.4548 28.4765L65.6078 27.5069L63.7853 29.099L64.6323 30.0686L66.4548 28.4765ZM65.9065 58.16V28.3029H63.4865V58.16H65.9065ZM60.7035 63.363C63.5771 63.363 65.9065 61.0335 65.9065 58.16H63.4865C63.4865 59.697 62.2405 60.943 60.7035 60.943V63.363ZM29.3835 63.363H60.7035V60.943H29.3835V63.363ZM24.1805 58.16C24.1805 61.0335 26.51 63.363 29.3835 63.363V60.943C27.8465 60.943 26.6005 59.697 26.6005 58.16H24.1805ZM24.1805 19.84V58.16H26.6005V19.84H24.1805ZM29.3835 14.637C26.51 14.637 24.1805 16.9665 24.1805 19.84H26.6005C26.6005 18.303 27.8465 17.057 29.3835 17.057V14.637ZM53.8157 14.637H29.3835V17.057H53.8157V14.637ZM54.727 15.051L53.9871 14.204L52.1645 15.796L52.9044 16.643L54.727 15.051Z" fill="black" mask="url(#path-2-inside-1_627_4390)"/>
<path d="M52.422 30H51.817V30.605H52.422V30ZM52.422 15.5791V14.9741H51.817V15.5791H52.422ZM52.4394 30L53.0443 29.9884L53.0329 29.395H52.4394V30ZM52.4482 30.4597L51.8433 30.4713L51.8549 31.0762L52.4598 31.0646L52.4482 30.4597ZM64.9745 30.2192L64.9861 30.8241L65.591 30.8125L65.5794 30.2076L64.9745 30.2192ZM64.9568 29.2998L65.5617 29.2882L65.5501 28.6833L64.9452 28.6949L64.9568 29.2998ZM53.3416 29.5228H52.7366V30.1395L53.3532 30.1277L53.3416 29.5228ZM53.3416 15.5791H53.9466V14.9741H53.3416V15.5791ZM53.027 30V15.5791H51.817V30H53.027ZM52.4394 29.395H52.422V30.605H52.4394V29.395ZM53.0531 30.4481L53.0443 29.9884L51.8345 30.0116L51.8433 30.4713L53.0531 30.4481ZM64.9629 29.6144L52.4366 29.8548L52.4598 31.0646L64.9861 30.8241L64.9629 29.6144ZM64.352 29.3114L64.3696 30.2309L65.5794 30.2076L65.5617 29.2882L64.352 29.3114ZM53.3532 30.1277L64.9685 29.9047L64.9452 28.6949L53.33 28.9179L53.3532 30.1277ZM52.7366 15.5791V29.5228H53.9466V15.5791H52.7366ZM52.422 16.1841H53.3416V14.9741H52.422V16.1841Z" fill="black"/>
<path opacity="0.06" fill-rule="evenodd" clip-rule="evenodd" d="M31.5733 74.3504C27.2313 77.784 20.8102 75.0574 20.2653 69.5488L16.7541 34.0505C16.231 28.7615 21.561 24.8418 26.4537 26.9172L57.9561 40.2805C62.8509 42.3568 63.735 48.9173 59.5644 52.2153L31.5733 74.3504Z" fill="#934AEF"/>
<path fill-rule="evenodd" clip-rule="evenodd" d="M54.5435 17L55.0908 29H64.5435L54.5435 17Z" fill="#7231E5"/>
</svg>
