<svg width="89" height="89" viewBox="0 0 89 89" fill="none" xmlns="http://www.w3.org/2000/svg">
<path opacity="0.06" fill-rule="evenodd" clip-rule="evenodd" d="M39.5733 63.3505C35.2313 66.7841 28.8102 64.0576 28.2653 58.5489L24.7541 23.0506C24.231 17.7616 29.5609 13.8419 34.4537 15.9174L65.9561 29.2806C70.8509 31.3569 71.735 37.9174 67.5644 41.2154L39.5733 63.3505Z" fill="#934AEF"/>
<g clip-path="url(#clip0_627_4591)">
<path d="M58.1326 28.1214C56.949 28.1214 55.7654 28.1214 54.5701 28.1214C53.9725 28.1214 53.6326 27.8403 53.6326 27.3833C53.6326 26.9147 53.9842 26.6335 54.5701 26.6335C56.9608 26.6335 59.3397 26.6335 61.7303 26.6335C62.4451 26.6335 62.8436 27.2193 62.5154 27.7583C62.3397 28.0511 62.0584 28.1332 61.7303 28.1332C60.535 28.1214 59.3279 28.1214 58.1326 28.1214Z" fill="#7231E5"/>
<path d="M32.6444 27.3598C32.6561 26.9498 33.0076 26.61 33.4178 26.6335C33.828 26.6569 34.1444 27.0084 34.1209 27.4184C34.0975 27.8285 33.7811 28.1214 33.3709 28.1214C32.949 28.1096 32.6326 27.7816 32.6444 27.3598Z" fill="#7231E5"/>
<path d="M28.1209 27.3833C28.1209 27.805 27.7928 28.1214 27.3709 28.1214C26.9725 28.1214 26.6444 27.7933 26.6326 27.4067C26.6209 27.0084 26.9725 26.6452 27.3709 26.6335C27.7811 26.6218 28.1209 26.9615 28.1209 27.3833Z" fill="#7231E5"/>
<path d="M39.3943 26.6336C39.7928 26.6336 40.1443 26.9968 40.1326 27.3951C40.1209 27.8052 39.7693 28.1332 39.3592 28.1215C38.949 28.1098 38.6561 27.7934 38.6443 27.3834C38.6443 26.9733 38.9842 26.6219 39.3943 26.6336Z" fill="#7231E5"/>
<path d="M22 59.3496C22 48.1963 22 37.0312 22 25.8662C22.0234 25.831 22.0586 25.7959 22.0703 25.7607C22.3164 23.8862 24.0859 22 26.7227 22C38.582 22.0234 50.4531 22.0117 62.3125 22.0117C65.0547 22.0117 67 23.9448 67 26.6863C67 37.3358 67.0117 47.9737 67 58.6233C67 60.6384 66.0508 62.0794 64.1992 62.8995C63.9531 63.0049 63.9297 63.1221 63.9414 63.3564C63.9883 63.8485 64.0234 64.3523 63.9883 64.8443C63.9062 65.9925 63.2148 66.6602 62.1602 66.9883C59.3711 66.9883 56.5938 66.9883 53.8164 66.9883C51.918 66.3791 51.8477 64.8795 52.0586 63.2744C51.4961 63.2744 50.9922 63.2744 50.4883 63.2744C50.4883 63.8368 50.5117 64.364 50.4883 64.8912C50.418 66.0159 49.7148 66.6251 48.7305 67C45.918 67 43.1055 67 40.293 67C38.418 66.3791 38.3945 64.8677 38.5586 63.2744C37.9844 63.2744 37.4805 63.2744 37.0117 63.2744C37.0117 63.6962 37.0117 64.0945 37.0117 64.4811C37.0234 65.1138 36.9297 65.7464 36.4609 66.1799C36.0977 66.5197 35.6172 66.7305 35.1953 66.9883C32.4062 66.9883 29.6289 66.9883 26.8516 66.9883C25.832 66.6602 25.1406 66.0393 25.0352 64.9263C24.9883 64.4343 25 63.9305 25.0703 63.4384C25.1172 63.087 25.0117 62.9698 24.707 62.8292C23.4414 62.302 22.6211 61.353 22.1992 60.0643C22.1172 59.83 22.0703 59.5957 22 59.3496ZM65.5 32.5441C51.4727 32.5441 37.4922 32.5441 23.5 32.5441C23.5 32.7316 23.5 32.8722 23.5 33.0245C23.5 41.5184 23.5 50.0122 23.5 58.5061C23.5 58.635 23.5 58.7756 23.5 58.9045C23.5586 60.1463 24.4375 61.2945 25.5273 61.5639C25.9023 61.107 26.2305 60.6149 26.6523 60.2166C27.0625 59.8183 27.5664 59.5254 28.0352 59.1856C25.832 57.1002 26.2422 54.3705 27.5195 52.8709C28.2461 52.0273 29.1484 51.4884 30.25 51.3127C31.6211 51.1018 32.8516 51.4533 33.9297 52.3437C35.4648 51.0666 36.9648 49.8131 38.4648 48.5478C38.5469 48.4775 38.6055 48.3369 38.6055 48.2197C38.582 47.6925 38.5 47.177 38.5117 46.6498C38.582 44.6464 39.5195 43.1468 41.2422 42.1393C41.3477 42.0807 41.4531 42.0104 41.5703 41.9401C39.4492 39.9719 39.6484 37.1953 41.0898 35.5551C42.6484 33.7743 45.2734 33.4814 47.1602 34.8873C48.0742 35.5668 48.6719 36.4806 48.8828 37.6053C49.2109 39.3275 48.6602 40.7568 47.4062 41.9636C49.5625 43.0531 50.8984 45.1619 50.3828 48.208C50.3594 48.3135 50.4531 48.4775 50.5352 48.5595C50.875 48.8641 51.2266 49.1453 51.5781 49.4382C52.7383 50.3989 53.8984 51.3713 55.0469 52.3319C57.2734 50.5512 59.875 51.1487 61.2461 52.5897C61.9844 53.3629 62.418 54.265 62.5 55.3312C62.6289 56.8776 62.0547 58.1546 60.8828 59.2208C62.0078 59.748 62.8164 60.5446 63.4023 61.5873C63.5195 61.5522 63.6016 61.5405 63.6719 61.5053C64.9023 60.9313 65.4883 59.9471 65.4883 58.5998C65.4883 50.0591 65.4883 41.5301 65.4883 32.9893C65.5 32.8487 65.5 32.7081 65.5 32.5441ZM23.5117 30.9625C37.5273 30.9625 51.5078 30.9625 65.5117 30.9625C65.5117 29.5918 65.5117 28.2562 65.5117 26.9323C65.5117 24.6946 64.3281 23.5113 62.1133 23.5113C50.3828 23.5113 38.6523 23.5113 26.9102 23.5113C26.7461 23.5113 26.582 23.5113 26.4297 23.5113C24.8828 23.5582 23.582 24.7415 23.5234 26.2762C23.4531 27.8227 23.5117 29.3692 23.5117 30.9625ZM45.25 49.7662C45.25 50.188 45.2734 50.5629 45.2383 50.9261C45.2148 51.2307 45.332 51.3478 45.625 51.4181C49.0234 52.3554 50.125 56.4442 47.6523 58.9513C47.5703 59.0333 47.5 59.1153 47.4062 59.2208C48.4961 59.748 49.3047 60.5095 49.8789 61.5405C49.9375 61.6459 50.125 61.7279 50.2539 61.7397C50.9102 61.7631 51.5664 61.7514 52.2344 61.7397C52.3516 61.7397 52.5391 61.6694 52.5859 61.5756C53.1602 60.5329 53.9805 59.7597 55.082 59.2208C53.3711 57.5337 53.043 55.6241 54.0859 53.4801C52.6445 52.2734 51.2148 51.0901 49.7969 49.8834C49.4922 49.6256 49.2344 49.4499 48.8008 49.6608C48.5547 49.7779 48.2266 49.7545 47.9336 49.7545C47.0664 49.7662 46.1992 49.7662 45.25 49.7662ZM33.918 59.2208C35.0195 59.7597 35.8398 60.5329 36.4141 61.5756C36.4609 61.6694 36.6484 61.7279 36.7656 61.7397C37.4219 61.7514 38.0781 61.7514 38.7461 61.7397C38.875 61.7397 39.0508 61.6694 39.0977 61.5756C39.6719 60.5212 40.4922 59.748 41.7227 59.1505C41.5234 59.0216 41.3594 58.963 41.2539 58.8459C40.2461 57.7563 39.8125 56.4676 40.082 55.0148C40.4219 53.1169 41.5703 51.9336 43.4102 51.383C43.5391 51.3478 43.7266 51.2307 43.7383 51.1369C43.7734 50.6917 43.75 50.2465 43.75 49.7662C42.8008 49.7662 41.9102 49.7779 41.0195 49.7545C40.668 49.7428 40.3281 49.6373 39.9883 49.6139C39.8125 49.6022 39.5898 49.6139 39.4609 49.7076C38.5469 50.4457 37.6562 51.1955 36.7539 51.9453C36.1328 52.4608 35.5234 52.9763 34.9141 53.4801C35.9453 55.6475 35.6055 57.5337 33.918 59.2208ZM47.5 48.2666C47.7227 48.2666 47.8984 48.2666 48.0742 48.2666C48.7422 48.2549 49 47.9971 49 47.3293C49 47.1067 49 46.8959 49 46.6733C48.9531 44.8925 47.7109 43.3929 45.9531 43.1C45.2148 42.9828 44.4297 42.9828 43.6797 43.0297C43.1523 43.0648 42.6016 43.182 42.1211 43.4046C40.5625 44.1192 39.6602 45.982 40.0469 47.6574C40.1055 47.88 40.3867 48.126 40.6328 48.2197C40.8789 48.3135 41.1953 48.2432 41.5117 48.2432C41.5117 47.7863 41.5117 47.3645 41.5117 46.9427C41.5117 46.3569 41.8047 46.0055 42.2734 46.0172C42.7188 46.0289 43 46.3804 43.0117 46.931C43.0117 47.3645 43.0117 47.798 43.0117 48.2432C44.0312 48.2432 45.0039 48.2432 46.0117 48.2432C46.0117 47.7745 46.0117 47.3411 46.0117 46.8959C46.0234 46.3569 46.3281 46.0055 46.7734 46.0172C47.207 46.0289 47.5 46.3569 47.5 46.8841C47.5 47.3059 47.5 47.7511 47.5 48.2666ZM61.0117 65.4652C62.2656 65.6058 62.5117 65.3832 62.5117 64.1999C62.5117 64.0945 62.5117 63.9891 62.5117 63.8953C62.418 62.0325 61.1172 60.5681 59.2656 60.3103C58.7031 60.2283 58.1289 60.2518 57.5547 60.2518C54.9414 60.2518 53.2188 62.1731 53.5117 64.7623C53.5586 65.1841 53.7813 65.4418 54.1914 65.5004C54.4492 65.5355 54.707 65.5004 55 65.5004C55 65.0552 55 64.6686 55 64.2702C55 63.6024 55.2812 63.2393 55.7617 63.251C56.2305 63.2627 56.5 63.6142 56.5 64.2468C56.5 64.6569 56.5 65.0552 56.5 65.5004C57.0391 65.5004 57.5195 65.5004 58 65.5004C58.4922 65.5004 58.9844 65.5004 59.5117 65.5004C59.5117 64.9966 59.5117 64.5631 59.5117 64.1179C59.5234 63.5907 59.793 63.2627 60.2383 63.2393C60.6953 63.2275 61 63.5673 61.0117 64.1179C61.0117 64.5631 61.0117 64.9966 61.0117 65.4652ZM32.5 65.5004C32.5 65.0083 32.5 64.5866 32.5 64.1648C32.5117 63.6024 32.7812 63.2627 33.2266 63.251C33.6953 63.2393 33.9883 63.5907 34 64.1765C34.0117 64.61 34 65.0435 34 65.5121C34.2227 65.5121 34.3867 65.5121 34.5391 65.5121C35.2305 65.5121 35.4883 65.2426 35.5 64.5514C35.5 64.2468 35.5 63.9305 35.4648 63.6259C35.2891 61.9037 34.0117 60.5564 32.2891 60.3103C31.7148 60.2283 31.1172 60.2518 30.5312 60.2518C27.918 60.2518 26.207 62.1731 26.4883 64.7623C26.5352 65.2075 26.8164 65.477 27.2617 65.5004C27.4844 65.5121 27.7188 65.5004 27.9766 65.5004C27.9766 65.0083 27.9648 64.5749 27.9766 64.1297C27.9883 63.579 28.293 63.2393 28.75 63.251C29.1836 63.2627 29.4648 63.5907 29.4766 64.1179C29.4883 64.5631 29.4766 65.02 29.4766 65.4887C29.6641 65.5004 29.793 65.5121 29.9219 65.5121C30.7656 65.5004 31.5977 65.5004 32.5 65.5004ZM47.5 65.5004C47.7461 65.5004 47.9336 65.5004 48.1211 65.5004C48.707 65.4887 48.9766 65.2192 48.9883 64.6451C48.9883 64.3991 48.9883 64.1531 48.9883 63.8953C48.9414 62.3372 47.9805 60.943 46.4805 60.4744C45.168 60.076 43.7969 60.0292 42.5078 60.4861C40.3516 61.2359 39.8242 63.1104 40.0469 64.9146C40.0703 65.1255 40.3633 65.3715 40.5977 65.4535C40.8672 65.5473 41.1836 65.477 41.4766 65.477C41.4883 65.395 41.5 65.3715 41.5 65.3481C41.5 64.9498 41.5 64.5631 41.5 64.1648C41.5 63.6024 41.7812 63.2627 42.2266 63.251C42.6953 63.2393 42.9883 63.6024 42.9883 64.1765C42.9883 64.61 42.9883 65.0435 42.9883 65.5004C43.5273 65.5004 44.0078 65.5004 44.4883 65.5004C44.9805 65.5004 45.4727 65.5004 45.9766 65.5004C45.9766 64.9849 45.9648 64.528 45.9766 64.0711C45.9883 63.579 46.2812 63.251 46.7031 63.251C47.1367 63.2393 47.4531 63.579 47.4648 64.0828C47.5 64.5397 47.5 64.9849 47.5 65.5004ZM57.9766 58.7404C59.6406 58.7521 61.0117 57.3931 61.0117 55.7412C61.0117 54.1127 59.6758 52.7771 58.0586 52.7537C56.3711 52.742 55.0234 54.0542 55.0117 55.7295C54.9883 57.3814 56.3242 58.7404 57.9766 58.7404ZM30.9883 58.7404C32.6406 58.7404 33.9766 57.4283 33.9883 55.7646C34 54.1127 32.6758 52.7654 31.0234 52.7537C29.3477 52.742 27.9883 54.0893 27.9883 55.7529C28 57.3931 29.3477 58.7404 30.9883 58.7404ZM44.5 35.5199C42.8359 35.5199 41.5117 36.8438 41.5 38.4957C41.5 40.1476 42.8242 41.4949 44.4648 41.5066C46.1289 41.5184 47.4883 40.1593 47.4883 38.4957C47.4883 36.8438 46.1641 35.5199 44.5 35.5199ZM44.5117 52.7537C42.8477 52.742 41.5117 54.0659 41.5 55.7178C41.4883 57.3814 42.8008 58.7287 44.4531 58.7404C46.1406 58.7521 47.4883 57.4283 47.4883 55.7529C47.5 54.101 46.1758 52.7654 44.5117 52.7537Z" fill="black"/>
<path d="M57.9766 29.4981C56.793 29.4981 55.6094 29.4981 54.4141 29.4981C53.0078 29.4863 52 28.5491 52 27.2604C52 25.9716 53.0195 25.0109 54.4023 24.9992C56.8516 24.9992 59.2891 24.9875 61.7383 24.9992C62.9336 25.0109 63.8594 25.8779 63.9883 27.0495C64.1055 28.1156 63.3789 29.1466 62.3125 29.416C62.0781 29.4746 61.8203 29.4863 61.5742 29.4863C60.3789 29.5098 59.1719 29.4981 57.9766 29.4981ZM58 27.9984C59.1953 27.9984 60.4023 27.9984 61.5977 27.9984C61.9258 27.9984 62.207 27.9281 62.3828 27.6235C62.6992 27.0846 62.3008 26.4988 61.5977 26.4988C59.207 26.4871 56.8281 26.4988 54.4375 26.4988C53.8516 26.4988 53.5 26.7917 53.5 27.2486C53.5 27.7173 53.8398 27.9867 54.4375 27.9867C55.6328 27.9984 56.8164 27.9984 58 27.9984Z" fill="black"/>
<path d="M33.25 29.4981C31.9961 29.4981 30.9766 28.4788 31 27.237C31.0117 26.0068 32.0195 25.011 33.25 24.9993C34.4922 24.9993 35.5117 26.0302 35.5 27.2721C35.4883 28.514 34.4922 29.4981 33.25 29.4981ZM32.5117 27.237C32.5 27.6587 32.8164 27.9868 33.2383 27.9985C33.6484 27.9985 33.9648 27.7056 33.9883 27.2955C34.0117 26.8738 33.6953 26.5223 33.2852 26.5106C32.875 26.4872 32.5234 26.8269 32.5117 27.237Z" fill="black"/>
<path d="M29.4883 27.2487C29.4883 28.4905 28.5274 29.4864 27.2852 29.4981C26.0313 29.5098 25 28.514 25 27.2721C24.9883 26.0302 26.0195 24.9992 27.2617 25.011C28.4922 25.011 29.4883 26.0068 29.4883 27.2487ZM27.9883 27.2604C27.9883 26.8386 27.6484 26.4989 27.2383 26.5106C26.8399 26.5223 26.4883 26.8855 26.5 27.2838C26.5117 27.6821 26.8399 27.9985 27.2383 27.9985C27.6602 27.9985 27.9883 27.6821 27.9883 27.2604Z" fill="black"/>
<path d="M39.2383 29.4981C37.9961 29.4981 37.0117 28.514 37 27.2721C37 26.0185 37.9961 24.9992 39.25 25.011C40.4922 25.011 41.5117 26.0537 41.5 27.2955C41.4883 28.514 40.4805 29.4981 39.2383 29.4981ZM39.2617 26.5106C38.8516 26.5106 38.5117 26.8503 38.5234 27.2604C38.5234 27.6704 38.8281 27.975 39.2383 27.9985C39.6602 28.0102 40 27.6939 40.0117 27.2721C40.0117 26.8738 39.6602 26.5106 39.2617 26.5106Z" fill="black"/>
</g>
<defs>
<clipPath id="clip0_627_4591">
<rect width="45" height="45" fill="white" transform="translate(22 22)"/>
</clipPath>
</defs>
</svg>
