<svg width="89" height="89" viewBox="0 0 89 89" fill="none" xmlns="http://www.w3.org/2000/svg">
<path fill-rule="evenodd" clip-rule="evenodd" d="M38.5 54C42.6422 54 46 50.6421 46 46.5C46 42.3579 42.6422 39 38.5 39C34.3579 39 31 42.3579 31 46.5C31 50.6421 34.3579 54 38.5 54Z" fill="#7231E5"/>
<path fill-rule="evenodd" clip-rule="evenodd" d="M37.2487 36.1589C42.2767 36.1589 46.3668 40.2275 46.3668 45.2291C46.3668 50.2302 42.2767 54.2992 37.2487 54.2992C32.2211 54.2992 28.1306 50.2302 28.1306 45.2291C28.1306 40.2275 32.2211 36.1589 37.2487 36.1589ZM37.2487 37.5846C33.0112 37.5846 29.5638 41.0138 29.5638 45.2291C29.5638 49.4443 33.0112 52.8736 37.2487 52.8736C41.4862 52.8736 44.9336 49.4443 44.9336 45.2291C44.9336 41.0138 41.4862 37.5846 37.2487 37.5846Z" fill="black"/>
<path d="M38.4751 49.1152C38.8707 49.1152 39.1917 48.7963 39.1917 48.4024C39.1917 48.0088 38.8707 47.6895 38.4751 47.6895H37.9933V42.0557C37.9933 41.8066 37.8623 41.5753 37.6481 41.4461C37.4338 41.3169 37.1674 41.3084 36.9453 41.4239L35.6909 42.075C35.3401 42.257 35.2042 42.6876 35.3871 43.0366C35.5704 43.3856 36.0033 43.5211 36.3541 43.3388L36.5601 43.2319V47.6899H36.0783C35.6827 47.6899 35.3617 48.0088 35.3617 48.4027C35.3617 48.7963 35.6827 49.1155 36.0783 49.1155H38.4751V49.1152Z" fill="black"/>
<path d="M50.9775 38.2462H51.9374C52.3331 38.2462 52.654 37.9269 52.654 37.5334C52.654 37.1395 52.3331 36.8206 51.9374 36.8206H50.9775C50.5819 36.8206 50.261 37.1395 50.261 37.5334C50.261 37.9269 50.5819 38.2462 50.9775 38.2462Z" fill="black"/>
<path d="M55.689 38.2462H56.6486C57.0445 38.2462 57.3651 37.9269 57.3651 37.5334C57.3651 37.1395 57.0445 36.8206 56.6486 36.8206H55.689C55.293 36.8206 54.9724 37.1395 54.9724 37.5334C54.9724 37.9269 55.293 38.2462 55.689 38.2462Z" fill="black"/>
<path d="M60.4001 38.2462H61.3597C61.7557 38.2462 62.0763 37.9269 62.0763 37.5334C62.0763 37.1395 61.7557 36.8206 61.3597 36.8206H60.4001C60.0042 36.8206 59.6836 37.1395 59.6836 37.5334C59.6836 37.9269 60.0045 38.2462 60.4001 38.2462Z" fill="black"/>
<path d="M65.1117 38.2462H66.0712C66.4672 38.2462 66.7878 37.9269 66.7878 37.5334C66.7878 37.1395 66.4672 36.8206 66.0712 36.8206H65.1117C64.7157 36.8206 64.3951 37.1395 64.3951 37.5334C64.3951 37.9269 64.7157 38.2462 65.1117 38.2462Z" fill="black"/>
<path d="M50.9775 41.9217H51.9374C52.3331 41.9217 52.654 41.6024 52.654 41.2089C52.654 40.815 52.3331 40.4961 51.9374 40.4961H50.9775C50.5819 40.4961 50.261 40.815 50.261 41.2089C50.261 41.6024 50.5819 41.9217 50.9775 41.9217Z" fill="black"/>
<path d="M55.689 41.9217H56.6486C57.0445 41.9217 57.3651 41.6024 57.3651 41.2089C57.3651 40.815 57.0445 40.4961 56.6486 40.4961H55.689C55.293 40.4961 54.9724 40.815 54.9724 41.2089C54.9724 41.6024 55.293 41.9217 55.689 41.9217Z" fill="black"/>
<path d="M60.4001 41.9217H61.3597C61.7557 41.9217 62.0763 41.6024 62.0763 41.2089C62.0763 40.815 61.7557 40.4961 61.3597 40.4961H60.4001C60.0042 40.4961 59.6836 40.815 59.6836 41.2089C59.6836 41.6024 60.0045 41.9217 60.4001 41.9217Z" fill="black"/>
<path d="M65.1117 41.9217H66.0712C66.4672 41.9217 66.7878 41.6024 66.7878 41.2089C66.7878 40.815 66.4672 40.4961 66.0712 40.4961H65.1117C64.7157 40.4961 64.3951 40.815 64.3951 41.2089C64.3951 41.6024 64.7157 41.9217 65.1117 41.9217Z" fill="black"/>
<path d="M50.9775 45.5971H51.9374C52.3331 45.5971 52.654 45.2782 52.654 44.8843C52.654 44.4904 52.3331 44.1715 51.9374 44.1715H50.9775C50.5819 44.1715 50.261 44.4904 50.261 44.8843C50.261 45.2782 50.5819 45.5971 50.9775 45.5971Z" fill="black"/>
<path d="M55.689 45.5971H56.6486C57.0445 45.5971 57.3651 45.2782 57.3651 44.8843C57.3651 44.4904 57.0445 44.1715 56.6486 44.1715H55.689C55.293 44.1715 54.9724 44.4904 54.9724 44.8843C54.9724 45.2782 55.293 45.5971 55.689 45.5971Z" fill="black"/>
<path d="M60.4001 45.5971H61.3597C61.7557 45.5971 62.0763 45.2782 62.0763 44.8843C62.0763 44.4904 61.7557 44.1715 61.3597 44.1715H60.4001C60.0042 44.1715 59.6836 44.4904 59.6836 44.8843C59.6836 45.2782 60.0045 45.5971 60.4001 45.5971Z" fill="black"/>
<path d="M65.1117 45.5971H66.0712C66.4672 45.5971 66.7878 45.2782 66.7878 44.8843C66.7878 44.4904 66.4672 44.1715 66.0712 44.1715H65.1117C64.7157 44.1715 64.3951 44.4904 64.3951 44.8843C64.3951 45.2782 64.7157 45.5971 65.1117 45.5971Z" fill="black"/>
<path d="M50.9775 49.2729H51.9374C52.3331 49.2729 52.654 48.9536 52.654 48.5601C52.654 48.1662 52.3331 47.8473 51.9374 47.8473H50.9775C50.5819 47.8473 50.261 48.1662 50.261 48.5601C50.261 48.9536 50.5819 49.2729 50.9775 49.2729Z" fill="black"/>
<path d="M55.689 49.2729H56.6486C57.0445 49.2729 57.3651 48.9536 57.3651 48.5601C57.3651 48.1662 57.0445 47.8473 56.6486 47.8473H55.689C55.293 47.8473 54.9724 48.1662 54.9724 48.5601C54.9724 48.9536 55.293 49.2729 55.689 49.2729Z" fill="black"/>
<path d="M60.4001 49.2729H61.3597C61.7557 49.2729 62.0763 48.9536 62.0763 48.5601C62.0763 48.1662 61.7557 47.8473 61.3597 47.8473H60.4001C60.0042 47.8473 59.6836 48.1662 59.6836 48.5601C59.6836 48.9536 60.0045 49.2729 60.4001 49.2729Z" fill="black"/>
<path d="M65.1117 49.2729H66.0712C66.4672 49.2729 66.7878 48.9536 66.7878 48.5601C66.7878 48.1662 66.4672 47.8473 66.0712 47.8473H65.1117C64.7157 47.8473 64.3951 48.1662 64.3951 48.5601C64.3951 48.9536 64.7157 49.2729 65.1117 49.2729Z" fill="black"/>
<path d="M50.9775 52.9483H51.9374C52.3331 52.9483 52.654 52.6294 52.654 52.2355C52.654 51.8416 52.3331 51.5227 51.9374 51.5227H50.9775C50.5819 51.5227 50.261 51.8416 50.261 52.2355C50.261 52.6294 50.5819 52.9483 50.9775 52.9483Z" fill="black"/>
<path d="M55.689 52.9483H56.6486C57.0445 52.9483 57.3651 52.6294 57.3651 52.2355C57.3651 51.8416 57.0445 51.5227 56.6486 51.5227H55.689C55.293 51.5227 54.9724 51.8416 54.9724 52.2355C54.9724 52.6294 55.293 52.9483 55.689 52.9483Z" fill="black"/>
<path d="M60.4001 52.9483H61.3597C61.7557 52.9483 62.0763 52.6294 62.0763 52.2355C62.0763 51.8416 61.7557 51.5227 61.3597 51.5227H60.4001C60.0042 51.5227 59.6836 51.8416 59.6836 52.2355C59.6836 52.6294 60.0045 52.9483 60.4001 52.9483Z" fill="black"/>
<path d="M65.1117 52.9483H66.0712C66.4672 52.9483 66.7878 52.6294 66.7878 52.2355C66.7878 51.8416 66.4672 51.5227 66.0712 51.5227H65.1117C64.7157 51.5227 64.3951 51.8416 64.3951 52.2355C64.3951 52.6294 64.7157 52.9483 65.1117 52.9483Z" fill="black"/>
<path fill-rule="evenodd" clip-rule="evenodd" d="M44.8056 24.9869C44.8056 26.0305 43.9521 26.8792 42.903 26.8792H41.9606C40.9115 26.8792 40.0583 26.0301 40.0583 24.9869V23.3092C40.0583 22.2656 40.9119 21.4165 41.9606 21.4165H42.903C43.9521 21.4165 44.8056 22.2656 44.8056 23.3092V24.9869ZM41.4915 23.3092V24.9869C41.4915 25.2441 41.702 25.4535 41.9606 25.4535H42.9033C43.162 25.4535 43.3725 25.2441 43.3725 24.9869V23.3092C43.3725 23.0515 43.162 22.8421 42.9033 22.8421H41.9606C41.702 22.8421 41.4915 23.0515 41.4915 23.3092Z" fill="black"/>
<path d="M47.292 22.8421H48.2344C48.4445 22.8421 48.6304 22.9832 48.686 23.1852C48.7908 23.5646 49.185 23.7885 49.5668 23.6834C49.9486 23.5791 50.1729 23.1866 50.068 22.8072C49.8414 21.9882 49.0875 21.4165 48.2344 21.4165H47.2924C46.2433 21.4165 45.3897 22.2656 45.3897 23.3088V24.9865C45.3897 26.0301 46.2433 26.8792 47.2924 26.8792H48.2344C48.9633 26.8792 49.6373 26.4552 49.9515 25.7995C50.1217 25.4439 49.9702 25.0184 49.6127 24.8491C49.2559 24.6798 48.8278 24.8306 48.6576 25.1862C48.5789 25.3511 48.4165 25.4535 48.2344 25.4535H47.2924C47.0334 25.4535 46.8229 25.2441 46.8229 24.9865V23.3092C46.8229 23.0515 47.0334 22.8421 47.292 22.8421Z" fill="black"/>
<path d="M52.6268 26.8792C53.0224 26.8792 53.3434 26.5602 53.3434 26.1663V22.8421H54.1435C54.5395 22.8421 54.8601 22.5232 54.8601 22.1293C54.8601 21.7354 54.5395 21.4165 54.1435 21.4165H51.1096C50.7137 21.4165 50.3931 21.7354 50.3931 22.1293C50.3931 22.5232 50.7137 22.8421 51.1096 22.8421H51.9102V26.1663C51.9102 26.5602 52.2308 26.8792 52.6268 26.8792Z" fill="black"/>
<path d="M30.0087 55.3292C30.0064 55.3292 30.0046 55.3292 30.0023 55.3292C29.6097 55.3292 29.2895 55.6444 29.2857 56.0357C29.2824 56.4296 29.6004 56.7515 29.996 56.7548H30.0064H30.0128C30.4058 56.7548 30.7256 56.44 30.7294 56.0487C30.7327 55.6548 30.4147 55.3329 30.0191 55.3292H30.0087Z" fill="black"/>
<path d="M31.9875 55.3292C31.9852 55.3292 31.9834 55.3292 31.9811 55.3292C31.5885 55.3292 31.2683 55.6444 31.2646 56.0357C31.2612 56.4296 31.5792 56.7515 31.9748 56.7548H31.9852H31.9916C32.3846 56.7548 32.7044 56.44 32.7082 56.0487C32.7115 55.6548 32.3935 55.3329 31.9979 55.3292H31.9875Z" fill="black"/>
<path d="M23.55 22.175C23.55 19.6207 25.6207 17.55 28.175 17.55H66.7434C69.2977 17.55 71.3684 19.6207 71.3684 22.175V60.93C71.3684 61.7695 70.6879 62.45 69.8484 62.45H25.07C24.2306 62.45 23.55 61.7695 23.55 60.93V22.175Z" stroke="black" stroke-width="1.1"/>
<path opacity="0.06" fill-rule="evenodd" clip-rule="evenodd" d="M42.0298 66.3505C37.6878 69.7841 31.2667 67.0576 30.7218 61.5489L27.2106 26.0506C26.6874 20.7616 32.0174 16.8419 36.9102 18.9174L68.4125 32.2806C73.3074 34.3569 74.1914 40.9174 70.0209 44.2154L42.0298 66.3505Z" fill="#934AEF"/>
</svg>
