<svg width="89" height="89" viewBox="0 0 89 89" fill="none" xmlns="http://www.w3.org/2000/svg">
<path d="M24.4024 44.4998C24.4024 55.5819 33.4183 64.5974 44.5 64.5974C55.5818 64.5974 64.5977 55.5819 64.5977 44.4998C64.5977 33.418 55.5818 24.4021 44.5 24.4021C33.4183 24.4021 24.4024 33.418 24.4024 44.4998ZM62.6836 44.4998C62.6836 54.5265 54.5264 62.6833 44.5 62.6833C34.4736 62.6833 26.3164 54.5265 26.3164 44.4998C26.3164 34.4734 34.4736 26.3162 44.5 26.3162C54.5264 26.3162 62.6836 34.4734 62.6836 44.4998Z" fill="black"/>
<path d="M63.4283 28.9435C59.8847 24.6362 54.9421 21.6421 49.5117 20.5131C48.9955 20.4062 48.4874 20.7378 48.3797 21.2555C48.2721 21.7729 48.6048 22.2795 49.1222 22.3871C59.531 24.5513 67.086 33.851 67.086 44.4998C67.086 56.9539 56.9541 67.0857 44.5 67.0857C32.0459 67.0857 21.9141 56.9539 21.9141 44.4998C21.9141 33.5627 29.7128 24.2156 40.4581 22.2746C40.9781 22.1808 41.3235 21.6828 41.2297 21.1628C41.1355 20.6428 40.6379 20.297 40.1179 20.3912C34.5406 21.3983 29.4447 24.3517 25.7688 28.7069C22.0487 33.1149 20 38.7236 20 44.4998C20 51.0442 22.5485 57.1965 27.1759 61.8243C31.8033 66.4517 37.956 68.9998 44.5 68.9998C51.0441 68.9998 57.1968 66.4513 61.8242 61.8243C66.4516 57.1965 69 51.0442 69 44.4998C69 38.8354 67.0213 33.3104 63.4283 28.9435Z" fill="black"/>
<path d="M44.6162 21.9142L44.6835 21.9146H44.6917C45.2162 21.9146 45.6439 21.4914 45.6484 20.9658C45.6529 20.4371 45.2278 20.005 44.6996 20.0005L44.6323 20.0001C44.6293 20.0001 44.6267 20.0001 44.6241 20.0001C44.0992 20.0001 43.6715 20.4233 43.6671 20.9493C43.6629 21.4779 44.0876 21.9097 44.6162 21.9142Z" fill="black"/>
<path d="M43.5554 29.1559C43.5554 29.4075 43.6578 29.6535 43.8357 29.8325C44.0148 30.0105 44.2608 30.1129 44.5124 30.1129C44.7651 30.1129 45.0111 30.0105 45.189 29.8325C45.3681 29.6535 45.4705 29.4075 45.4705 29.1559C45.4705 28.9039 45.3681 28.6572 45.189 28.4792C45.0118 28.3013 44.7651 28.1989 44.5124 28.1989C44.2608 28.1989 44.0141 28.3002 43.8357 28.4792C43.6578 28.6572 43.5554 28.9032 43.5554 29.1559Z" fill="black"/>
<path d="M44.4877 58.8871C44.235 58.8871 43.9878 58.9895 43.811 59.1675C43.632 59.3454 43.5306 59.5925 43.5306 59.8441C43.5306 60.0968 43.632 60.3428 43.811 60.5208C43.989 60.6995 44.235 60.8011 44.4877 60.8011C44.7393 60.8011 44.9853 60.6995 45.1639 60.5208C45.3423 60.3428 45.4447 60.0957 45.4447 59.8441C45.4447 59.5925 45.3423 59.3465 45.1639 59.1675C44.986 58.9895 44.7393 58.8871 44.4877 58.8871Z" fill="black"/>
<path d="M59.844 45.4693C60.096 45.4693 60.3427 45.3677 60.5207 45.1897C60.6997 45.0106 60.8011 44.7647 60.8011 44.5123C60.8011 44.2603 60.6997 44.0136 60.5207 43.8357C60.3427 43.6577 60.0967 43.556 59.844 43.556C59.5924 43.556 59.3457 43.6577 59.1677 43.8357C58.9894 44.0144 58.887 44.2603 58.887 44.5123C58.887 44.7639 58.9894 45.0106 59.1677 45.1897C59.3464 45.3677 59.5924 45.4693 59.844 45.4693Z" fill="black"/>
<path d="M29.156 43.5305C28.9029 43.5305 28.6573 43.6322 28.4794 43.8102C28.3003 43.9881 28.199 44.2348 28.199 44.4875C28.199 44.7391 28.3003 44.9863 28.4794 45.1642C28.6573 45.3421 28.9033 45.4446 29.156 45.4446C29.4076 45.4446 29.6544 45.3421 29.8323 45.1642C30.0103 44.9863 30.1131 44.7391 30.1131 44.4875C30.1131 44.2348 30.0106 43.9881 29.8323 43.8102C29.6544 43.6318 29.4076 43.5305 29.156 43.5305Z" fill="black"/>
<path d="M36.839 30.2479C36.5874 30.2479 36.3403 30.3504 36.1623 30.5283C35.9844 30.7063 35.882 30.9534 35.882 31.205C35.882 31.4566 35.9844 31.7037 36.1623 31.8816C36.3403 32.0596 36.5874 32.162 36.839 32.162C37.0906 32.162 37.3377 32.0596 37.5156 31.8816C37.6936 31.7037 37.796 31.4566 37.796 31.205C37.796 30.9534 37.6936 30.7063 37.5156 30.5283C37.3377 30.3504 37.0906 30.2479 36.839 30.2479Z" fill="black"/>
<path d="M52.1611 56.8379C51.9095 56.8379 51.6624 56.9403 51.4844 57.1183C51.3065 57.2962 51.204 57.543 51.204 57.7949C51.204 58.0465 51.3065 58.2936 51.4844 58.4716C51.6624 58.6495 51.9095 58.752 52.1611 58.752C52.4127 58.752 52.6598 58.6495 52.8377 58.4716C53.0157 58.2936 53.1181 58.0465 53.1181 57.7949C53.1181 57.543 53.0157 57.2962 52.8377 57.1183C52.6598 56.9403 52.4127 56.8379 52.1611 56.8379Z" fill="black"/>
<path d="M57.7952 37.7961C58.0468 37.7961 58.2936 37.6937 58.4715 37.5154C58.6495 37.3374 58.7523 37.0907 58.7523 36.8391C58.7523 36.5871 58.6498 36.3404 58.4715 36.1625C58.2936 35.9845 58.0468 35.8821 57.7952 35.8821C57.5433 35.8821 57.2965 35.9841 57.1186 36.1625C56.9406 36.3404 56.8382 36.5871 56.8382 36.8391C56.8382 37.0907 56.9403 37.3374 57.1186 37.5154C57.2965 37.6937 57.5433 37.7961 57.7952 37.7961Z" fill="black"/>
<path d="M31.2049 51.2039C30.9533 51.2039 30.7065 51.3063 30.5286 51.4842C30.3503 51.6622 30.2478 51.9093 30.2478 52.1609C30.2478 52.4125 30.3503 52.6596 30.5286 52.8375C30.7065 53.0155 30.9533 53.1179 31.2049 53.1179C31.4568 53.1179 31.7036 53.0155 31.8815 52.8375C32.0595 52.6596 32.1619 52.4125 32.1619 52.1609C32.1619 51.9093 32.0598 51.6622 31.8815 51.4842C31.7036 51.3063 31.4576 51.2039 31.2049 51.2039Z" fill="black"/>
<path d="M45.6138 42.2729C45.0282 42.2729 44.454 42.5113 44.0399 42.9255C43.6249 43.3396 43.3865 43.9147 43.3865 44.5002C43.3865 45.0858 43.6249 45.6609 44.0399 46.075C44.454 46.4891 45.0282 46.7275 45.6138 46.7275C46.2002 46.7275 46.7744 46.4891 47.1885 46.075C47.6026 45.6609 47.841 45.0858 47.841 44.5002C47.841 43.9147 47.6035 43.3396 47.1885 42.9255C46.7744 42.5113 46.2019 42.2729 45.6138 42.2729Z" fill="#AB54FF"/>
<path d="M31.2176 35.8599C30.9657 35.8599 30.7189 35.9619 30.541 36.1402C30.363 36.3182 30.2606 36.5642 30.2606 36.8169C30.2606 37.0685 30.3627 37.3145 30.541 37.4932C30.7201 37.6711 30.9657 37.7739 31.2176 37.7739C31.4704 37.7739 31.7163 37.6715 31.8939 37.4932C32.073 37.3145 32.1747 37.0685 32.1747 36.8169C32.1747 36.5642 32.073 36.3182 31.8939 36.1402C31.7163 35.9623 31.4704 35.8599 31.2176 35.8599Z" fill="black"/>
<path d="M57.7824 53.1401C58.0344 53.1401 58.2811 53.0377 58.4591 52.8598C58.637 52.6818 58.7395 52.4347 58.7395 52.1831C58.7395 51.9315 58.637 51.6844 58.4591 51.5065C58.2811 51.3285 58.0344 51.2261 57.7824 51.2261C57.5297 51.2261 57.2837 51.3285 57.1058 51.5065C56.9271 51.6844 56.8254 51.9315 56.8254 52.1831C56.8254 52.4347 56.9271 52.6818 57.1058 52.8598C57.283 53.0377 57.5297 53.1401 57.7824 53.1401Z" fill="black"/>
<path d="M52.183 32.1742C52.435 32.1742 52.6817 32.0725 52.8596 31.8946C53.0387 31.7159 53.14 31.4688 53.14 31.2172C53.14 30.9656 53.0387 30.7185 52.8596 30.5405C52.6817 30.3626 52.435 30.2601 52.183 30.2601C51.9314 30.2601 51.6847 30.3626 51.5067 30.5405C51.3288 30.7185 51.226 30.9656 51.226 31.2172C51.226 31.4688 51.3284 31.7159 51.5067 31.8946C51.6847 32.0729 51.9314 32.1742 52.183 32.1742Z" fill="black"/>
<path d="M36.8167 56.8257C36.5639 56.8257 36.3183 56.927 36.14 57.1061C35.9621 57.284 35.8596 57.53 35.8596 57.7827C35.8596 58.0343 35.9621 58.281 36.14 58.459C36.3183 58.6373 36.5643 58.7397 36.8167 58.7397C37.0686 58.7397 37.3154 58.6373 37.4933 58.459C37.6712 58.2803 37.7737 58.0343 37.7737 57.7827C37.7737 57.5307 37.6712 57.284 37.4933 57.1061C37.3154 56.927 37.0686 56.8257 36.8167 56.8257Z" fill="black"/>
<path d="M52.3788 35.2796L46.2362 41.4226C45.723 41.1317 45.1308 40.965 44.5001 40.965C43.8724 40.965 43.2833 41.1302 42.7719 41.4181L39.8353 38.4816C39.4615 38.1081 38.8559 38.1081 38.4817 38.4816C38.1082 38.8554 38.1082 39.4614 38.4817 39.8352L41.4182 42.7714C41.1303 43.2828 40.9655 43.8723 40.9655 44.4996C40.9655 46.4488 42.5509 48.0347 44.5001 48.0347C46.4493 48.0347 48.0348 46.4488 48.0348 44.4996C48.0348 43.8753 47.8714 43.2888 47.5862 42.7792L53.7325 36.6333C54.106 36.2594 54.106 35.6535 53.7325 35.2796C53.3586 34.9061 52.7526 34.9061 52.3788 35.2796ZM44.5001 46.1206C43.6063 46.1206 42.8795 45.3935 42.8795 44.4996C42.8795 43.6062 43.6063 42.879 44.5001 42.879C45.394 42.879 46.1207 43.6062 46.1207 44.4996C46.1207 45.3935 45.394 46.1206 44.5001 46.1206Z" fill="black"/>
<path d="M48.6702 52.5388H40.3541C39.8255 52.5388 39.397 52.9676 39.397 53.4958C39.397 54.0245 39.8255 54.4529 40.3541 54.4529H48.6702C49.1988 54.4529 49.6272 54.0245 49.6272 53.4958C49.6272 52.9676 49.1988 52.5388 48.6702 52.5388Z" fill="black"/>
<path opacity="0.06" fill-rule="evenodd" clip-rule="evenodd" d="M46.9378 64.9975C43.6689 69.4647 36.7532 68.5494 34.7588 63.3856L21.9072 30.1096C19.9924 25.1517 24.084 19.9524 29.353 20.6478L63.2784 25.1252C68.5497 25.8209 71.1514 31.9079 68.0115 36.1987L46.9378 64.9975Z" fill="#934AEF"/>
</svg>
