<svg width="89" height="89" viewBox="0 0 89 89" fill="none" xmlns="http://www.w3.org/2000/svg">
<path opacity="0.06" fill-rule="evenodd" clip-rule="evenodd" d="M37.0298 66.3505C32.6878 69.7841 26.2667 67.0576 25.7218 61.5489L22.2106 26.0506C21.6874 20.7616 27.0174 16.8419 31.9102 18.9174L63.4125 32.2806C68.3074 34.3569 69.1914 40.9174 65.0209 44.2154L37.0298 66.3505Z" fill="#934AEF"/>
<g clip-path="url(#clip0_627_4469)">
<path d="M37.1869 51.4939C37.9916 51.2324 38.7353 50.9834 39.479 50.7717C39.6009 50.7343 39.8081 50.7842 39.9057 50.8713C41.3443 52.2534 42.7829 53.6355 44.3069 55.1172C43.3803 55.4035 42.5635 55.7397 41.71 55.9016C41.3687 55.9638 40.8566 55.7148 40.6006 55.4409C39.4424 54.1833 38.3573 52.8635 37.1869 51.4939Z" fill="#AA53FE"/>
<path d="M54.1578 51.4939C53.024 52.8013 51.9511 54.0588 50.8416 55.2915C50.3662 55.8145 49.7322 55.9639 49.0495 55.7647C48.4033 55.5779 47.7693 55.3413 47.0744 55.1172C47.1841 54.9927 47.2329 54.918 47.306 54.8557C48.6471 53.5608 50.0004 52.2659 51.3293 50.946C51.5366 50.7468 51.7073 50.697 51.9755 50.7966C52.6704 51.0332 53.3653 51.2449 54.1578 51.4939Z" fill="#AA53FE"/>
<path d="M57.096 34C57.8885 34.0374 58.559 34.5105 59.3393 34.0498C59.3393 34.9961 59.3393 35.8926 59.3393 36.8015C59.3393 38.2708 59.3271 38.2957 57.8763 38.2957C57.6203 38.2957 57.3642 38.2957 57.1082 38.2957C57.096 36.8513 57.096 35.4568 57.096 34Z" fill="#AA53FE"/>
<path d="M34.2243 38.2707C33.7123 38.2707 33.188 38.2957 32.6516 38.2583C32.298 38.2458 32.0176 38.0466 32.0054 37.6482C31.9932 36.5649 32.0054 35.4692 32.0054 34.3611C32.6882 34.5852 33.3343 34.7844 33.9805 35.021C34.0902 35.0583 34.2121 35.2451 34.2121 35.3696C34.2365 36.3159 34.2243 37.2622 34.2243 38.2707Z" fill="#AA53FE"/>
<path d="M49.8663 43.687C50.2808 43.687 50.549 43.8862 50.6222 44.2722C50.6953 44.6458 50.5003 44.957 50.1467 45.0317C49.3055 45.2061 48.4643 45.3555 47.623 45.48C47.2573 45.5298 46.9891 45.3181 46.9281 44.9321C46.855 44.5337 47.0256 44.2224 47.4158 44.1353C48.2448 43.9734 49.0738 43.8364 49.8663 43.687Z" fill="#AA53FE"/>
<path d="M39.0766 61.0439C39.0766 61.7412 39.0766 62.4011 39.0766 63.0984C37.382 63.0984 35.6995 63.0984 33.9805 63.0984C33.9805 62.4385 33.9805 61.7537 33.9805 61.0439C35.6629 61.0439 37.3454 61.0439 39.0766 61.0439Z" fill="#AA53FE"/>
<path d="M46.9568 18C47.6395 18.137 48.3344 18.2241 48.9928 18.4109C52.9795 19.5066 55.8689 21.9595 57.6245 25.7695C57.7221 25.9812 57.8074 26.28 57.7465 26.4792C57.6733 26.6909 57.4295 26.9399 57.2222 26.9897C57.015 27.0395 56.7224 26.915 56.5395 26.7656C56.381 26.6536 56.32 26.4045 56.2225 26.2178C54.1011 21.9719 50.6996 19.7183 46.0424 19.519C44.1649 19.4319 42.2873 19.4443 40.4342 19.9673C36.3134 21.1377 32.8753 25.0474 32.3267 29.3804C32.1926 30.4512 32.217 31.5344 32.1316 32.6052C32.1072 32.9788 32.2535 33.1282 32.5705 33.2402C34.5212 33.9624 36.5328 34.1243 38.5688 33.8877C42.5068 33.4519 45.9814 31.7959 49.2976 29.7041C49.9559 29.2808 50.5899 28.8201 51.2361 28.3594C51.8822 27.8987 52.2846 28.0107 52.6015 28.7578C53.4915 30.8745 55.1374 32.0449 57.2588 32.6426C57.2588 31.7585 57.2588 30.9243 57.2588 30.0776C57.2588 29.9282 57.2344 29.7788 57.2466 29.6294C57.271 29.231 57.4782 28.9695 57.8806 28.9321C58.2951 28.8948 58.5999 29.094 58.6487 29.5173C58.7218 30.1897 58.7584 30.8745 58.7706 31.5469C58.7706 31.8457 58.8559 32.02 59.1241 32.1819C59.7581 32.5679 60.0995 33.1655 60.1117 33.9126C60.136 35.1702 60.136 36.4402 60.1117 37.6978C60.0995 38.4448 59.7581 39.0425 59.1363 39.4285C58.8559 39.6028 58.7828 39.802 58.7828 40.1133C58.7828 41.1592 58.8681 42.23 58.6974 43.2385C58.3804 45.0688 57.2344 46.2268 55.4788 46.7124C53.8329 47.1606 52.187 47.5964 50.529 48.0198C50.1876 48.1069 49.9437 48.219 50.0779 48.6423C50.1876 48.9785 50.2485 49.3645 50.7728 49.2773C51.0288 49.2275 51.3214 49.2773 51.5774 49.3645C54.4669 50.2734 57.3563 51.1575 60.2214 52.1162C64.4153 53.5232 66.9634 57.1838 66.9878 61.7783C67 63.5215 66.9634 65.2646 67 67.0078C67.0244 67.9914 66.6952 68.6763 65.7808 69.0249C51.931 69.0249 38.0812 69.0249 24.2314 69.0249C23.317 68.6638 22.9756 67.979 23.0122 67.0078C23.0488 65.5012 23.0244 63.9822 23.0244 62.4756C23.0244 62.3137 23.0244 62.1394 23.0488 61.9775C23.0975 61.5666 23.3292 61.3425 23.7193 61.3301C24.1338 61.3176 24.3899 61.5417 24.4508 61.9651C24.4752 62.1394 24.4752 62.3262 24.4752 62.5129C24.4752 63.9946 24.4752 65.4639 24.4752 66.9455C24.4752 67.1199 24.4752 67.3066 24.4752 67.5059C25.8407 67.5059 27.1452 67.5059 28.5107 67.5059C28.5107 67.3191 28.5107 67.1448 28.5107 66.9704C28.5107 65.0156 28.5107 63.0483 28.5107 61.0935C28.5107 60.9067 28.5107 60.72 28.5472 60.5456C28.6448 60.1597 28.8886 59.9355 29.2909 59.9729C29.6811 59.9978 29.9249 60.2468 29.9615 60.6453C29.9981 61.0686 29.9737 61.5044 29.9737 61.9402C29.9737 63.783 29.9737 65.6257 29.9737 67.5059C39.9831 67.5059 49.9681 67.5059 60.0019 67.5059C60.0019 67.3315 60.0019 67.1448 60.0019 66.9704C60.0019 65.0156 60.0019 63.0483 60.0019 61.0935C60.0019 60.9316 59.9897 60.7573 60.0141 60.5955C60.0873 60.2344 60.3067 59.9978 60.6725 59.9729C61.0504 59.948 61.3065 60.1348 61.404 60.4958C61.4528 60.6826 61.4528 60.8943 61.4528 61.081C61.4528 63.2102 61.4528 65.3269 61.4528 67.4934C62.7817 67.4934 64.0862 67.4934 65.4273 67.4934C65.4395 67.4062 65.4882 67.2942 65.4882 67.1946C65.4882 65.1899 65.5248 63.1728 65.4638 61.1682C65.3663 57.7815 63.1596 54.7434 60.0141 53.6353C58.4658 53.0998 56.893 52.6143 55.3203 52.1411C55.1618 52.0913 54.8692 52.1909 54.7595 52.3279C53.6866 53.5356 52.6503 54.7683 51.6018 55.9885C50.4314 57.3457 49.1635 57.6943 47.4932 57.1216C46.6642 56.8352 45.8229 56.3372 45.0061 56.3372C44.1405 56.3496 43.2749 56.8227 42.4214 57.1465C41.3851 57.5449 40.361 57.6694 39.3979 56.9846C39.0809 56.7605 38.8005 56.4741 38.5445 56.1753C37.435 54.8928 36.3378 53.5979 35.2161 52.3279C35.0942 52.1909 34.8138 52.0789 34.6553 52.1287C33.0704 52.6143 31.4854 53.0998 29.9249 53.6601C27.6207 54.4819 26.0357 56.113 25.0726 58.3916C25.0238 58.5161 24.9751 58.6406 24.9263 58.7527C24.719 59.1885 24.3655 59.3628 23.9875 59.2258C23.5974 59.0764 23.3779 58.6406 23.5974 58.1924C24.0363 57.2834 24.4508 56.3621 25.0238 55.5527C26.2918 53.7349 28.0596 52.6267 30.12 51.9668C32.8265 51.1077 35.5453 50.2361 38.2519 49.3894C38.5932 49.2773 38.9834 49.2649 39.3491 49.2649C39.8002 49.2649 39.8368 48.9163 39.9343 48.605C40.0319 48.2812 39.8856 48.1443 39.5686 48.0696C37.752 47.6213 35.9476 47.1606 34.1311 46.6875C31.9365 46.1147 30.693 44.4836 30.6808 42.1802C30.6686 41.3459 30.693 40.5242 30.6686 39.6899C30.6564 39.4783 30.5345 39.279 30.4491 39.0798C30.2663 38.5942 29.9371 38.1211 29.9127 37.6355C29.8396 36.4153 29.8396 35.1826 29.9127 33.9499C29.9371 33.4893 30.1565 32.9912 30.4126 32.5928C30.5954 32.3064 30.693 32.0698 30.693 31.7461C30.6686 29.4426 31.0709 27.2139 32.156 25.1719C34.192 21.312 37.3253 18.9587 41.5802 18.1868C41.946 18.1245 42.3117 18.0623 42.6775 18C44.0917 18 45.5181 18 46.9568 18ZM45.8473 46.7622C45.8351 46.7373 45.8229 46.6999 45.7986 46.6875C44.9573 46.1023 44.616 45.2681 44.8598 44.272C45.1036 43.251 45.8473 42.7654 46.8349 42.616C47.5298 42.5039 48.2125 42.3794 48.8953 42.2549C49.6511 42.1179 50.3461 42.3171 50.8337 42.9148C51.1263 43.2759 51.3946 43.3506 51.7847 43.2136C51.9554 43.1638 52.1383 43.1265 52.3089 43.114C52.6625 43.1016 52.8941 42.9272 53.1014 42.6409C53.9061 41.4705 54.5766 40.2129 54.7351 38.8059C54.918 37.2122 54.8936 35.606 54.9789 33.9998C55.0033 33.5515 54.8692 33.29 54.4669 33.0659C53.4672 32.5181 52.6503 31.7461 52.0163 30.7749C51.8579 30.5383 51.7116 30.2893 51.5409 30.0154C49.0781 31.771 46.5057 33.1904 43.726 34.2114C40.934 35.2324 38.0568 35.7305 35.082 35.3943C34.3139 42.728 40.6171 47.5591 45.8473 46.7622ZM41.4339 47.7956C41.4705 48.7419 41.3242 49.5637 40.7146 50.2361C42.1532 51.6306 43.5675 53.0002 45.0061 54.3823C46.4447 52.9878 47.859 51.6182 49.2976 50.2361C48.688 49.5513 48.5417 48.7295 48.5783 47.7956C46.1765 48.5552 43.8479 48.5676 41.4339 47.7956ZM36.5206 51.5061C37.691 52.8757 38.7761 54.1831 39.9343 55.4407C40.1904 55.7146 40.7024 55.9636 41.0438 55.9014C41.8972 55.7519 42.7262 55.4158 43.6406 55.1169C42.1166 53.6353 40.678 52.2532 39.2394 50.8711C39.1419 50.7839 38.9346 50.7341 38.8127 50.7715C38.0568 51.0081 37.3253 51.2571 36.5206 51.5061ZM38.2397 46.2268C38.2031 46.1272 38.2031 46.0898 38.1787 46.0774C36.1793 44.5085 34.765 42.5039 34.0213 40.0261C33.9969 39.9265 33.8506 39.802 33.7653 39.802C33.2411 39.7895 32.7046 39.7895 32.2048 39.7895C32.2048 40.8853 32.1316 41.9187 32.2291 42.9272C32.3267 43.9358 32.9485 44.7202 33.8872 45.0315C35.3015 45.5046 36.7645 45.8284 38.2397 46.2268ZM53.4915 51.5061C52.6991 51.2571 52.0042 51.0454 51.3092 50.7964C51.041 50.7092 50.8703 50.7466 50.6631 50.9458C49.322 52.2532 47.9809 53.5481 46.6398 54.8555C46.5666 54.9177 46.5179 55.0049 46.4081 55.1169C47.1031 55.3411 47.737 55.5776 48.3832 55.7644C49.0659 55.9636 49.6999 55.8267 50.1754 55.2913C51.2848 54.0835 52.3577 52.8135 53.4915 51.5061ZM56.4298 34.0122C56.4298 35.469 56.4298 36.8635 56.4298 38.2954C56.6858 38.2954 56.9418 38.2954 57.1978 38.2954C58.6487 38.2954 58.6608 38.283 58.6608 36.8013C58.6608 35.9048 58.6608 35.0083 58.6608 34.0496C57.8928 34.5227 57.21 34.0496 56.4298 34.0122ZM33.558 38.283C33.558 37.262 33.5702 36.3281 33.5459 35.3818C33.5459 35.2573 33.4239 35.0706 33.3142 35.0332C32.6802 34.7966 32.0341 34.5974 31.3391 34.3733C31.3391 35.4814 31.327 36.5771 31.3391 37.6604C31.3391 38.0588 31.6196 38.2581 31.9853 38.2705C32.5217 38.3079 33.0582 38.283 33.558 38.283ZM57.2832 41.981C56.5395 43.4875 55.3813 44.1724 53.9061 44.3591C53.7841 44.3716 53.6257 44.3965 53.5403 44.4712C52.9917 44.9817 52.4552 45.5171 51.8579 46.1147C52.9673 45.8159 53.9792 45.5544 55.0033 45.2805C55.1252 45.2432 55.2593 45.2058 55.3813 45.1685C56.6614 44.7202 57.4051 43.5498 57.2832 41.981ZM49.2001 43.6992C48.3954 43.8486 47.5664 43.9731 46.7495 44.1599C46.3594 44.2471 46.1887 44.5583 46.2618 44.9568C46.3228 45.3428 46.591 45.5544 46.9568 45.5046C47.798 45.3801 48.6514 45.2432 49.4805 45.0564C49.834 44.9817 50.0169 44.6704 49.9559 44.2969C49.895 43.8984 49.6268 43.7117 49.2001 43.6992ZM56.1006 39.7771C55.7226 40.7109 55.4056 41.5203 55.0521 42.4043C55.9543 41.7568 56.1737 40.8852 56.1006 39.7771Z" fill="black"/>
<path d="M35.8379 64.6546C34.9723 64.6546 34.1189 64.6671 33.2533 64.6546C32.3145 64.6421 31.8146 64.1316 31.8024 63.1729C31.7902 62.4258 31.7902 61.6788 31.8024 60.9317C31.8146 60.0726 32.3511 59.5372 33.1801 59.5372C34.9479 59.5247 36.7279 59.5247 38.4957 59.5372C39.2882 59.5372 39.8368 60.0477 39.8734 60.8445C39.9099 61.6663 39.9099 62.5005 39.8734 63.3348C39.8368 64.1441 39.3247 64.6297 38.5201 64.6546C37.6301 64.6671 36.7279 64.6546 35.8379 64.6546ZM38.4104 61.0562C36.6791 61.0562 34.9967 61.0562 33.3142 61.0562C33.3142 61.7659 33.3142 62.4507 33.3142 63.1107C35.0332 63.1107 36.7157 63.1107 38.4104 63.1107C38.4104 62.4134 38.4104 61.7535 38.4104 61.0562Z" fill="black"/>
<path d="M56.1006 39.7771C56.1737 40.8853 55.9543 41.7568 55.0521 42.4043C55.4057 41.5327 55.7348 40.7109 56.1006 39.7771Z" fill="white"/>
</g>
<defs>
<clipPath id="clip0_627_4469">
<rect width="44" height="51" fill="white" transform="translate(23 18)"/>
</clipPath>
</defs>
</svg>
