<svg width="25" height="25" viewBox="0 0 25 25" fill="none" xmlns="http://www.w3.org/2000/svg">
  <path d="M23.8081 14.6432H23.434V11.2734C23.434 10.7399 23.1684 10.2675 22.7629 9.9805V9.52167C22.7629 8.85609 22.2215 8.31464 21.5559 8.31464H21.2765L22.3453 6.74628C22.7036 6.22059 22.5674 5.5014 22.0417 5.1431L14.7892 0.20072C14.5345 0.027136 14.2276 -0.0369265 13.9247 0.0205442C13.7757 0.0483514 13.6337 0.105437 13.5069 0.188496C13.3801 0.271556 13.271 0.378939 13.186 0.504431L6.9262 9.69012H5.18425L5.60452 5.43573C5.60925 5.38778 5.64041 5.34623 5.68386 5.32987C6.22532 5.12572 6.69456 4.74447 7.0051 4.25638C7.02957 4.21796 7.07571 4.19598 7.12346 4.20082L9.85564 4.47074C9.90219 4.47534 9.94919 4.47072 9.99396 4.45715C10.0387 4.44359 10.0804 4.42133 10.1166 4.39167C10.1527 4.362 10.1827 4.3255 10.2048 4.28425C10.2268 4.243 10.2405 4.19781 10.2451 4.15126C10.2497 4.1047 10.2451 4.0577 10.2316 4.01293C10.218 3.96817 10.1957 3.92651 10.1661 3.89034C10.1364 3.85417 10.0999 3.8242 10.0587 3.80214C10.0174 3.78007 9.97221 3.76635 9.92566 3.76175L7.19348 3.49183C6.87634 3.46078 6.5739 3.60692 6.40398 3.87391C6.17566 4.2328 5.83064 4.51307 5.43254 4.66317C5.13289 4.77616 4.92712 5.0453 4.89548 5.36566L4.46833 9.69007H4.01409L4.67874 2.96136C4.70266 2.71918 4.91882 2.54125 5.1613 2.56551L10.6825 3.11092C10.7765 3.12021 10.8704 3.09177 10.9434 3.03185C11.0165 2.97194 11.0627 2.88546 11.072 2.79144C11.0813 2.69743 11.0528 2.60357 10.9929 2.53052C10.933 2.45748 10.8465 2.41123 10.7525 2.40194L5.23132 1.85653C4.59832 1.79408 4.03225 2.25819 3.9697 2.8913L3.43396 8.31464H2.52161C1.85608 8.31464 1.31458 8.85609 1.31458 9.52167V9.83465C0.770093 10.0853 0.390991 10.6357 0.390991 11.2734V23.4167C0.390991 24.2897 1.10125 25 1.97434 25H21.8507C22.7237 25 23.434 24.2897 23.434 23.4167V20.0469H23.8081C24.2497 20.0469 24.6089 19.6876 24.6089 19.2461V15.4441C24.609 15.0025 24.2497 14.6432 23.8081 14.6432ZM21.5559 9.02714C21.8286 9.02709 22.0505 9.24896 22.0505 9.52172V9.70321C21.9842 9.69466 21.9175 9.69031 21.8507 9.69017H20.3392L20.791 9.02714H21.5559ZM13.7747 0.905603C13.8073 0.857605 13.849 0.816532 13.8975 0.784759C13.946 0.752987 14.0003 0.731144 14.0573 0.720495C14.1142 0.709548 14.1728 0.710001 14.2295 0.721827C14.2863 0.733653 14.3401 0.756617 14.388 0.789392L21.6405 5.73177C21.8415 5.86883 21.8937 6.14393 21.7567 6.34501L19.4771 9.69003H18.93L20.0476 8.05004C20.2289 7.78407 20.2438 7.44559 20.0865 7.16664C19.8774 6.79603 19.7927 6.35966 19.8478 5.93783C19.8888 5.62401 19.7508 5.31766 19.4875 5.13827L15.7278 2.57616C15.4645 2.39672 15.1288 2.38026 14.8518 2.53324C14.4795 2.73881 14.0423 2.81952 13.6209 2.76053C13.3084 2.71669 12.9915 2.8578 12.8129 3.11976L8.33543 9.69007H7.78835L13.7747 0.905603ZM13.9316 6.95497C12.3803 6.95497 11.1069 8.16459 11.0031 9.69007H9.19749L13.4015 3.52098H13.4016C13.4131 3.50391 13.4286 3.4899 13.4468 3.48014C13.4649 3.47039 13.4851 3.46518 13.5057 3.46498C13.5112 3.46498 13.5166 3.46537 13.522 3.4661C14.0951 3.54628 14.6896 3.43661 15.1961 3.15697C15.2359 3.1349 15.2871 3.13807 15.3265 3.16493L19.0863 5.72709C19.1256 5.75394 19.1472 5.80043 19.1414 5.84554C19.0663 6.41923 19.1817 7.01268 19.466 7.51669C19.4888 7.55716 19.486 7.60902 19.459 7.64881L18.0679 9.69003H16.8603C16.7564 8.16459 15.483 6.95497 13.9316 6.95497ZM16.1459 9.69012H11.7174C11.8195 8.55785 12.7733 7.66747 13.9316 7.66747C15.09 7.66742 16.0439 8.55785 16.1459 9.69012ZM2.02703 9.52167C2.02703 9.24891 2.24885 9.02704 2.52161 9.02704H3.3636L3.29812 9.69007H2.02703V9.52167ZM1.10344 11.2734C1.10344 10.7932 1.49412 10.4025 1.97434 10.4025H21.8507C22.3309 10.4025 22.7215 10.7932 22.7215 11.2734V12.2619H1.10344V11.2734ZM22.7215 23.4167C22.7215 23.8969 22.3309 24.2875 21.8507 24.2875H1.97434C1.49412 24.2875 1.10344 23.8969 1.10344 23.4167V22.4282H3.02444C3.07122 22.4282 3.11753 22.419 3.16075 22.4011C3.20397 22.3832 3.24323 22.357 3.27631 22.3239C3.30939 22.2908 3.33562 22.2515 3.35353 22.2083C3.37143 22.1651 3.38064 22.1188 3.38064 22.072C3.38064 22.0252 3.37143 21.9789 3.35353 21.9357C3.33562 21.8925 3.30939 21.8532 3.27631 21.8201C3.24323 21.7871 3.20397 21.7608 3.16075 21.7429C3.11753 21.725 3.07122 21.7158 3.02444 21.7158H1.10344V12.9743H22.7215V14.6432H19.3344C18.2673 14.6432 17.3428 15.2653 16.9041 16.1658C16.9027 16.1688 16.901 16.1717 16.8995 16.1747C16.8958 16.1824 16.8926 16.1904 16.8889 16.1981C16.8367 16.3091 16.7913 16.424 16.7543 16.5425L16.754 16.5435C16.6733 16.803 16.6324 17.0733 16.6326 17.3451C16.6326 18.8349 17.8447 20.0469 19.3344 20.0469H22.7215V21.7158H5.3054C5.25862 21.7158 5.2123 21.725 5.16908 21.7429C5.12587 21.7608 5.0866 21.7871 5.05352 21.8201C5.02045 21.8532 4.99421 21.8925 4.97631 21.9357C4.95841 21.9789 4.94919 22.0252 4.94919 22.072C4.94919 22.1188 4.95841 22.1651 4.97631 22.2083C4.99421 22.2515 5.02045 22.2908 5.05352 22.3239C5.0866 22.357 5.12587 22.3832 5.16908 22.4011C5.2123 22.419 5.25862 22.4282 5.3054 22.4282H22.7215V23.4167ZM23.8965 19.246C23.8965 19.2948 23.8569 19.3344 23.8081 19.3344H19.3345C18.5804 19.3344 17.9229 18.9126 17.5856 18.2925C17.5393 18.2075 17.4994 18.1192 17.4661 18.0284C17.3879 17.8152 17.3452 17.585 17.3452 17.3451C17.3449 17.0467 17.4121 16.7521 17.5416 16.4833C17.5556 16.4544 17.5703 16.4258 17.5856 16.3976C17.9229 15.7775 18.5804 15.3557 19.3345 15.3557H23.8081C23.8568 15.3557 23.8965 15.3953 23.8965 15.4441V19.246Z" fill="black"/>
  <path d="M19.418 15.8999C18.621 15.8999 17.9727 16.5483 17.9727 17.3452C17.9727 18.1421 18.621 18.7905 19.418 18.7905C20.215 18.7905 20.8633 18.1421 20.8633 17.3452C20.8633 16.5483 20.215 15.8999 19.418 15.8999ZM19.418 18.078C19.0139 18.078 18.6851 17.7493 18.6851 17.3452C18.6851 16.9412 19.0139 16.6124 19.418 16.6124C19.8221 16.6124 20.1509 16.9411 20.1509 17.3452C20.1509 17.7493 19.8221 18.078 19.418 18.078Z" fill="black"/>
</svg>
