<svg width="25" height="25" viewBox="0 0 25 25" fill="none" xmlns="http://www.w3.org/2000/svg">
  <path d="M3.6161 17.0196H4.57391V17.7033H3.6161V18.6611H2.93236V17.7033H1.97455V17.0196H2.93236V16.0618H3.6161V17.0196ZM22.2821 18.9269V21.5899C22.2821 22.5192 21.3558 23.3611 19.6737 23.9604C18.1022 24.5204 16.0198 24.8287 13.81 24.8287C11.6003 24.8287 9.51791 24.5204 7.94642 23.9604C6.26434 23.3611 5.33798 22.5192 5.33798 21.5899V18.9269C5.33798 17.9976 6.26434 17.1554 7.94638 16.5557C9.5181 15.9953 11.6005 15.6867 13.81 15.6867C16.0196 15.6867 18.102 15.9953 19.6737 16.5557C21.3558 17.1554 22.2821 17.9976 22.2821 18.9269ZM21.5984 21.5899V20.2457C21.1567 20.6438 20.5084 21.0011 19.6737 21.2986C18.1024 21.8587 16.02 22.1671 13.81 22.1671C11.6001 22.1671 9.51766 21.8587 7.94638 21.2986C7.11166 21.0011 6.46332 20.6438 6.02167 20.2457V21.5899C6.02167 22.0264 6.4391 22.4809 7.18847 22.8834V22.1532H7.87221V23.1989C8.38973 23.4057 9.00414 23.5902 9.70062 23.7401V22.8688H10.3844V23.8714C10.9515 23.9678 11.5631 24.042 12.2128 24.0886V23.1803H12.8965V24.1267C13.5058 24.1511 14.1157 24.1511 14.7249 24.1267V23.1803H15.4087V24.0885C16.0584 24.0418 16.67 23.9676 17.2371 23.8712V22.8688H17.9208V23.7399C18.6168 23.59 19.2307 23.4056 19.7479 23.1989V22.1532H20.4316V22.8834C21.1809 22.4809 21.5984 22.0264 21.5984 21.5899ZM21.5984 18.9269C21.5984 17.7177 18.3998 16.3705 13.81 16.3705C9.22025 16.3705 6.02167 17.7177 6.02167 18.9269C6.02167 20.1361 9.22025 21.4833 13.81 21.4833C18.3998 21.4833 21.5984 20.1361 21.5984 18.9269ZM18.463 17.503C17.2163 17.2055 15.5639 17.0417 13.81 17.0417V17.7255C15.512 17.7255 17.108 17.8827 18.3043 18.1681C19.6591 18.4913 19.9361 18.8488 19.9361 18.9269C19.9361 19.005 19.6591 19.3625 18.3043 19.6857C17.108 19.9711 15.512 20.1283 13.81 20.1283C12.1086 20.1283 10.5127 19.9711 9.3163 19.6857C7.96102 19.3625 7.68397 19.005 7.68397 18.9269C7.68397 18.8568 7.92479 18.5319 9.10272 18.2217C10.1494 17.946 11.5818 17.7728 13.1362 17.7337L13.119 17.0501C11.5132 17.0905 10.025 17.2717 8.92855 17.5604C7.63095 17.9022 7.00018 18.3491 7.00018 18.9269C7.00018 19.5302 7.72601 20.0093 9.15761 20.3508C10.4045 20.6482 12.0567 20.8121 13.81 20.8121C15.5638 20.8121 17.2162 20.6483 18.4629 20.3508C19.8941 20.0094 20.6198 19.5303 20.6198 18.9269C20.6198 18.3235 19.8942 17.8444 18.463 17.503ZM6.60678 8.87671C7.68773 7.60581 9.33676 6.29741 11.2501 5.19258C13.1641 4.08774 15.122 3.31372 16.763 3.01304C18.5194 2.69131 19.7426 2.95718 20.2073 3.76196L20.2073 3.76206L20.2074 3.76211C20.4301 4.14722 20.6526 4.53291 20.8752 4.9186C21.0962 5.30176 21.3173 5.68486 21.5387 6.06763C22.0035 6.87256 21.6222 8.06489 20.4652 9.4252C19.3843 10.6961 17.7352 12.0045 15.8219 13.1093C13.9079 14.2142 11.95 14.9882 10.309 15.2889C9.8226 15.378 9.37699 15.422 8.97719 15.422C7.93319 15.422 7.20077 15.1219 6.86473 14.5399C6.64193 14.1548 6.41937 13.769 6.19681 13.3833C5.97577 13.0001 5.75472 12.617 5.53334 12.2343L5.53324 12.2341L5.53319 12.234C5.06864 11.4292 5.44989 10.2369 6.60678 8.87671ZM20.2829 5.2603L20.2743 5.24541C20.0909 5.81104 19.7079 6.44478 19.1337 7.11982C18.053 8.39028 16.404 9.69844 14.4903 10.8034C12.5759 11.9084 10.6181 12.6827 8.97748 12.9834C8.49105 13.0726 8.0455 13.1167 7.64569 13.1167C7.32909 13.1167 7.04159 13.0886 6.78466 13.0339L6.7891 13.0416C7.01156 13.4271 7.23397 13.8126 7.45678 14.1978C7.67504 14.5758 8.26361 14.7607 9.11366 14.7349L8.74852 14.1025L9.34066 13.7606L9.86366 14.6663C10.4152 14.5867 11.0396 14.4394 11.7177 14.2211L11.2816 13.4675L11.8734 13.125L12.3757 13.993C12.915 13.793 13.4817 13.5515 14.0676 13.2671L13.6136 12.4802L14.2058 12.1385L14.6788 12.9583C14.9488 12.8166 15.2159 12.6694 15.48 12.517C15.744 12.3646 16.005 12.2069 16.2626 12.0439L15.7895 11.2249L16.3816 10.8829L16.8357 11.669C17.3746 11.304 17.8669 10.9341 18.3096 10.5673L17.8087 9.69795L18.4012 9.35664L18.8362 10.1116C19.3644 9.6334 19.8042 9.16636 20.149 8.72837L19.6262 7.82275L20.2183 7.48091L20.5833 8.11313C21.0308 7.38989 21.1649 6.78765 20.9466 6.40962C20.7251 6.02666 20.5039 5.64355 20.2829 5.2603ZM6.12538 11.8922L6.12543 11.8923C6.42562 12.4127 7.44574 12.5691 8.85419 12.3109C10.4199 12.0239 12.3001 11.2782 14.1485 10.2113C18.1223 7.9167 20.2188 5.15107 19.6151 4.10391C19.0104 3.05728 15.5669 3.49023 11.5919 5.78472C7.61737 8.07979 5.52098 10.8455 6.12538 11.8922ZM6.97274 11.4037C6.67108 10.8807 7.05995 10.1028 8.12836 9.09146C9.05897 8.2106 10.408 7.24233 11.9268 6.36494L11.927 6.36489C13.4467 5.48809 14.9599 4.804 16.1879 4.43848C17.5982 4.0187 18.4662 4.07104 18.7678 4.59399C19.0694 5.11597 18.6806 5.89355 17.612 6.90483C16.6811 7.78569 15.3322 8.75391 13.8135 9.63115C12.2947 10.5078 10.7817 11.1919 9.55297 11.5578C8.92479 11.7448 8.40419 11.8383 7.9933 11.8383C7.48168 11.8382 7.14008 11.6933 6.97274 11.4037ZM7.56493 11.0619C7.6038 11.1292 8.0225 11.3 9.35795 10.9024C10.537 10.5514 11.9979 9.88955 13.4717 9.03896C14.9454 8.1877 16.249 7.25337 17.1421 6.40815C18.1536 5.45093 18.2147 5.00332 18.1758 4.93579C18.1366 4.86787 17.718 4.69653 16.3831 5.0938C15.2049 5.44448 13.7437 6.1062 12.2689 6.95703C10.7949 7.80845 9.49139 8.74282 8.59847 9.58804C7.5868 10.5456 7.52587 10.9941 7.56493 11.0619ZM6.02167 1.82075H5.33793V6.93364H6.02167V1.82075ZM7.30892 1.82075H6.62518V4.3772H7.30892V1.82075ZM21.7327 1.82075H21.0489V3.96475H21.7327V1.82075ZM13.8779 0.170898H13.1941V2.9751H13.8779V0.170898ZM22.0676 13.8472V12.8894H21.3839V13.8472H20.4275V14.531H21.3839V15.4874H22.0676V14.531H23.0254V13.8472H22.0676Z" fill="black"/>
</svg>
