<svg width="25" height="25" viewBox="0 0 25 25" fill="none" xmlns="http://www.w3.org/2000/svg">
  <g clip-path="url(#clip0_3660_27549)">
    <path d="M10.6055 9.64844C10.166 9.61426 9.81934 9.73145 9.56543 9.93165C8.51074 9.37012 4.60938 7.28516 4.60938 7.28516C4.15039 7.05079 3.79395 7.7295 4.24316 7.97364L9.12109 10.5762C8.94531 11.1035 9.07227 11.7285 9.50684 12.1094C8.88184 12.8027 7.41211 14.4238 7.41211 14.4238C7.0752 14.8047 7.6416 15.3272 7.99316 14.9512L10.2637 12.4414C12.1094 12.6416 12.4561 9.91211 10.6055 9.64844ZM10.4639 11.6748C9.62891 11.6943 9.58984 10.4443 10.4395 10.4199C11.25 10.4443 11.2744 11.6162 10.4639 11.6748ZM10.0439 4.49707V3.60352C10.0537 3.09082 10.8154 3.09082 10.8252 3.60352V4.49707C10.8203 5.01465 10.0537 5.01465 10.0439 4.49707ZM3.84766 11.4746H2.9541C2.44141 11.4648 2.44141 10.7031 2.9541 10.6934H3.84766C4.36523 10.7031 4.36523 11.4697 3.84766 11.4746ZM21.2012 14.3555C21.8066 14.0186 21.9043 13.0518 21.25 12.666C21.499 12.2363 21.8457 11.6357 21.8457 11.6357C22.3584 10.7275 21.626 9.81934 20.8008 9.79493C20.1758 4.63379 15.7129 0.60059 10.4346 0.605473C-2.12891 0.961919 -3.75 18.291 8.07617 21.2012C7.99805 21.5869 8.09082 22.0117 8.36426 22.3096C7.73926 22.9981 8.04199 24.3506 9.27246 24.3897H15.6006C15.8643 24.3945 16.1035 24.3164 16.2939 24.1797C17.0215 24.3213 17.8955 24.3897 18.9648 24.3897C21.7529 24.3897 24.9512 23.96 24.9512 20.5908C24.9512 18.794 23.0176 16.3037 21.2012 14.3555ZM9.26758 20.2344C8.70605 20.2441 8.64746 19.3457 9.26758 19.3311H15.5957C16.2061 19.3359 16.167 20.2441 15.5957 20.2344H9.26758ZM9.26758 18.5449C8.65723 18.5303 8.69141 17.6416 9.26758 17.6416C9.43359 17.6465 13.9697 17.6416 15.5957 17.6416C16.1914 17.6465 16.1768 18.54 15.5957 18.5449H9.26758ZM14.6338 16.8604H9.27246C8.04199 16.8994 7.73926 18.252 8.36426 18.9404C8.34473 18.96 8.33008 18.9844 8.31055 19.0088C-0.766601 16.4795 0.634766 3.09082 10.4346 2.80762C14.502 2.79786 17.9199 5.77149 18.5742 9.70704C18.335 9.78028 18.125 9.92188 17.9785 10.1318C16.9482 9.18458 15.3857 10.4248 16.0791 11.6406L16.6748 12.666C16.0889 13.0371 16.0498 14.0137 16.7285 14.3506C15.8984 15.2441 15.1953 16.084 14.6338 16.8604ZM19.3359 10.625C19.4189 10.7422 19.4043 10.8984 19.4092 11.0352V12.5147H17.4902L16.7578 11.25C16.4746 10.7422 17.2266 10.3027 17.5244 10.8057L17.7881 11.2598C17.876 11.4111 18.0566 11.4893 18.2275 11.4404C18.501 11.3672 18.5352 11.1133 18.5156 10.8691C18.5107 10.4297 19.1016 10.2588 19.3359 10.625ZM17.2021 13.6963C16.9043 13.6816 16.958 13.2422 17.2607 13.2959H20.7227C20.9814 13.2959 20.9863 13.6963 20.7227 13.6963H17.2021ZM21.167 11.2451L20.4346 12.5098H19.4043C19.4385 12.4512 20.1562 11.2061 20.3955 10.8008C20.6592 10.332 21.46 10.6982 21.167 11.2451ZM10.4346 1.39161C15.3662 1.39161 19.5361 5.17579 20.0391 10.0488C20.0049 10.0732 19.9707 10.1025 19.9414 10.1318C19.7998 9.92188 19.5898 9.79004 19.3604 9.70704C18.7061 5.30762 14.917 2.02637 10.4346 2.02637C-0.0390625 2.23145 -2.00684 16.8066 8.03223 19.751C8.02246 20.0049 8.10059 20.2441 8.23242 20.459C-2.82715 17.5977 -1.03027 1.67969 10.4346 1.39161ZM9.26758 21.9238C8.6377 21.9092 8.7207 21.0059 9.26758 21.0156H15.5957C16.1914 21.0205 16.1768 21.9189 15.5957 21.9238H9.26758ZM9.26758 23.6084C8.67188 23.5986 8.67676 22.7148 9.26758 22.7051H15.5957C15.9961 22.6953 16.1865 23.2129 15.9131 23.4863C15.8398 23.5596 15.7373 23.6084 15.5957 23.6133C15.6006 23.6084 9.26758 23.6084 9.26758 23.6084ZM16.792 23.4766C16.8945 23.0664 16.8018 22.6367 16.499 22.3145C16.9336 21.8652 16.9385 21.0791 16.499 20.625C16.9336 20.1758 16.9385 19.3945 16.499 18.9356C17.2363 18.2031 16.665 16.8311 15.6055 16.8604C16.1768 16.1182 16.875 15.3223 17.6807 14.4824H20.2393C26.4209 20.7129 25.3027 24.4043 16.792 23.4766ZM19.458 18.9502C21.0254 18.9648 21.3574 21.1523 19.8877 21.6406V21.8213C19.8779 22.334 19.1162 22.334 19.1064 21.8213V21.6602C18.5156 21.5039 18.0762 20.9668 18.0762 20.3272C18.0859 19.8145 18.8477 19.8145 18.8574 20.3272C18.8574 20.6592 19.126 20.9277 19.458 20.9277C20.249 20.9082 20.249 19.7461 19.458 19.7266C17.8027 19.6777 17.5977 17.3779 19.1064 17.0166V16.8555C19.1162 16.3428 19.8779 16.3428 19.8877 16.8555V17.041C20.3955 17.1973 20.8203 17.6318 20.8398 18.3447C20.8301 18.8574 20.0684 18.8574 20.0586 18.3447C20.0586 18.0127 19.79 17.7441 19.458 17.7441C18.667 17.7686 18.667 18.9307 19.458 18.9502Z" fill="black"/>
  </g>
  <defs>
    <clipPath id="clip0_3660_27549">
      <rect width="25" height="25" fill="white"/>
    </clipPath>
  </defs>
</svg>
