<svg width="48" height="48" viewBox="0 0 48 48" fill="none" xmlns="http://www.w3.org/2000/svg">
<path d="M12.75 46.5H11.25C10.0095 46.5 9 45.4905 9 44.25V41.25C9 40.836 9.336 40.5 9.75 40.5C10.164 40.5 10.5 40.836 10.5 41.25V44.25C10.5 44.6625 10.836 45 11.25 45H12.75C13.164 45 13.5 44.6625 13.5 44.25V41.25C13.5 40.836 13.836 40.5 14.25 40.5C14.664 40.5 15 40.836 15 41.25V44.25C15 45.4905 13.9905 46.5 12.75 46.5Z" fill="black"/>
<path d="M38.25 46.5H36.75C35.5095 46.5 34.5 45.4905 34.5 44.25V41.25C34.5 40.836 34.836 40.5 35.25 40.5C35.664 40.5 36 40.836 36 41.25V44.25C36 44.6625 36.336 45 36.75 45H38.25C38.664 45 39 44.6625 39 44.25V41.25C39 40.836 39.336 40.5 39.75 40.5C40.164 40.5 40.5 40.836 40.5 41.25V44.25C40.5 45.4905 39.4905 46.5 38.25 46.5Z" fill="black"/>
<path d="M12.087 31.362L14.487 24.159C14.6625 23.6355 15.3015 23.1 15.8295 23.0355C17.439 22.836 20.739 22.5 24.75 22.5C28.761 22.5 32.061 22.836 33.672 23.0355C34.2 23.1 34.839 23.6355 35.0145 24.159L37.4145 31.362C38.094 31.527 38.6955 31.7355 39.207 31.9995L36.4365 23.685C36.081 22.62 34.947 21.6825 33.8565 21.5475C32.211 21.3435 28.842 21 24.75 21C20.658 21 17.289 21.3435 15.645 21.5475C14.553 21.6825 13.419 22.62 13.0635 23.685L10.293 31.9995C10.806 31.7355 11.406 31.5285 12.087 31.362Z" fill="black"/>
<path d="M41.25 42H8.25C7.836 42 7.5 41.664 7.5 41.25C7.5 40.836 7.836 40.5 8.25 40.5H41.25C41.664 40.5 42 40.836 42 41.25C42 41.664 41.664 42 41.25 42Z" fill="black"/>
<path d="M8.25 38.25C7.836 38.25 7.5 37.914 7.5 37.5V35.25C7.5 30.792 12.0195 30 24.75 30C37.4805 30 42 30.792 42 35.25V37.032C42 37.446 41.664 37.782 41.25 37.782C40.836 37.782 40.5 37.446 40.5 37.032V35.25C40.5 32.6055 38.3115 31.5 24.75 31.5C12.3855 31.5 9 32.3055 9 35.25V37.5C9 37.914 8.664 38.25 8.25 38.25Z" fill="black"/>
<path d="M41.25 39H35.25C34.836 39 34.5 38.664 34.5 38.25V36.75C34.5 35.5095 35.5095 34.5 36.75 34.5H41.25C41.664 34.5 42 34.836 42 35.25V38.25C42 38.664 41.664 39 41.25 39ZM36 37.5H40.5V36H36.75C36.336 36 36 36.3375 36 36.75V37.5Z" fill="black"/>
<path d="M14.25 39H8.25C7.836 39 7.5 38.664 7.5 38.25V35.25C7.5 34.836 7.836 34.5 8.25 34.5H12.75C13.9905 34.5 15 35.5095 15 36.75V38.25C15 38.664 14.664 39 14.25 39ZM9 37.5H13.5V36.75C13.5 36.3375 13.164 36 12.75 36H9V37.5Z" fill="black"/>
<path d="M32.25 39C31.836 39 31.5 38.664 31.5 38.25C31.5 37.0095 30.4905 36 29.25 36H20.25C19.0095 36 18 37.0095 18 38.25C18 38.664 17.664 39 17.25 39C16.836 39 16.5 38.664 16.5 38.25C16.5 36.1815 18.183 34.5 20.25 34.5H29.25C31.317 34.5 33 36.1815 33 38.25C33 38.664 32.664 39 32.25 39Z" fill="black"/>
<path d="M35.25 19.5C35.0955 19.5 34.944 19.4535 34.8135 19.3605C34.7745 19.332 30.726 16.5 24.75 16.5C18.774 16.5 14.7255 19.332 14.6865 19.3605C14.4555 19.5225 14.154 19.545 13.9035 19.413C13.653 19.2825 13.497 19.0245 13.5 18.741C13.503 18.4425 13.617 11.3595 16.6665 6.357C16.8825 6.0015 17.343 5.889 17.6985 6.1065C18.051 6.3225 18.165 6.783 17.9475 7.137C15.879 10.533 15.261 15.1185 15.0765 17.3805C16.8195 16.4505 20.2545 15 24.75 15C29.2425 15 32.6775 16.449 34.4205 17.379C34.101 13.536 32.517 3 24.75 3C24.336 3 24 2.664 24 2.25C24 1.836 24.336 1.5 24.75 1.5C35.6775 1.5 35.991 18.0375 36 18.741C36.003 19.023 35.847 19.2825 35.5965 19.413C35.487 19.47 35.3685 19.5 35.25 19.5Z" fill="black"/>
<path d="M14.25 19.5C14.0895 19.5 13.929 19.449 13.794 19.3455C11.7 17.748 9.546 16.902 7.563 16.902C5.964 16.902 4.833 17.4315 4.1655 17.8725C3.9135 18.039 3.5865 18.0405 3.336 17.874C3.084 17.7075 2.9565 17.406 3.012 17.109C4.9395 6.8625 15.4065 1.5 24.75 1.5C34.0935 1.5 44.5605 6.8625 46.4865 17.1105C46.542 17.4075 46.4145 17.7075 46.1625 17.8755C45.912 18.042 45.585 18.0405 45.333 17.874C44.667 17.4315 43.536 16.9035 41.9355 16.9035C39.9525 16.9035 37.797 17.748 35.7045 19.347C35.445 19.548 35.082 19.5525 34.812 19.362C34.7745 19.332 30.726 16.5 24.75 16.5C18.747 16.5 14.727 19.332 14.6865 19.359C14.556 19.4535 14.403 19.5 14.25 19.5ZM24.75 15C30.0915 15 33.9345 17.046 35.2215 17.838C37.47 16.2225 39.7275 15.4035 41.937 15.4035C43.005 15.4035 43.9095 15.5985 44.6475 15.8655C42.1605 7.41 32.994 3 24.75 3C16.506 3 7.3395 7.41 4.8525 15.864C5.589 15.597 6.495 15.402 7.563 15.402C9.7725 15.402 12.03 16.221 14.2785 17.8365C15.5655 17.046 19.4085 15 24.75 15Z" fill="black"/>
<path d="M24.75 19.5C24.336 19.5 24 19.164 24 18.75V16.5C24 16.086 24.336 15.75 24.75 15.75C25.164 15.75 25.5 16.086 25.5 16.5V18.75C25.5 19.164 25.164 19.5 24.75 19.5Z" fill="black"/>
<path d="M41.25 30H39.75C39.336 30 39 29.664 39 29.25C39 28.836 39.336 28.5 39.75 28.5H41.25C41.664 28.5 42 28.836 42 29.25C42 29.664 41.664 30 41.25 30Z" fill="black"/>
<path d="M9.75 30H8.25C7.836 30 7.5 29.664 7.5 29.25C7.5 28.836 7.836 28.5 8.25 28.5H9.75C10.164 28.5 10.5 28.836 10.5 29.25C10.5 29.664 10.164 30 9.75 30Z" fill="black"/>
<rect x="9.27273" y="36" width="3.81818" height="1.09091" rx="0.545455" fill="#AB54FF"/>
<rect x="36.5455" y="36" width="3.81818" height="1.09091" rx="0.545455" fill="#AB54FF"/>
</svg>
