<svg width="48" height="48" viewBox="0 0 48 48" fill="none" xmlns="http://www.w3.org/2000/svg">
<g clip-path="url(#clip0_1860_8719)">
<path d="M33.5538 9.35999C32.9039 9.35999 32.2291 9.35999 31.5543 9.35999C30.4671 9.35999 29.3674 9.35999 28.2801 9.35999C27.6428 9.35999 27.4054 9.11006 27.4054 8.48522C27.4054 6.79816 27.4054 5.1111 27.4054 3.43654C27.4054 3.34906 27.4179 3.26158 27.4179 3.22409C29.4548 5.24856 31.4918 7.29803 33.5538 9.35999Z" fill="#AB54FF"/>
<path d="M29.5673 29.5424C29.3299 29.4049 29.1174 29.3299 28.9675 29.18C28.3551 28.6051 27.7553 28.0178 27.1554 27.4179C26.768 27.043 26.743 26.5931 27.0679 26.2557C27.3804 25.9308 27.8302 25.9433 28.2301 26.3057C28.4676 26.5306 28.705 26.7681 28.9425 26.9805C29.3799 27.3929 29.7298 27.3929 30.1546 26.968C30.9669 26.1432 31.7542 25.306 32.579 24.4937C32.729 24.3437 32.9789 24.1438 33.1539 24.1688C33.4288 24.2062 33.7537 24.3562 33.9162 24.5562C34.1411 24.8311 34.0411 25.181 33.7912 25.4434C33.2538 26.0058 32.704 26.5681 32.1666 27.118C31.5418 27.7678 30.917 28.4177 30.2671 29.055C30.0672 29.2674 29.8047 29.3924 29.5673 29.5424Z" fill="#AB54FF"/>
<path d="M0 1.69956C0.424889 0.449883 1.31216 0 2.62432 0C10.2348 0.0249935 17.8329 0.0124967 25.4434 0C25.9183 0 26.2682 0.137464 26.5931 0.474876C29.3174 3.22416 32.0666 5.96095 34.8034 8.68524C35.1159 8.99766 35.2533 9.31008 35.2533 9.75996C35.2283 11.397 35.2533 13.0341 35.2408 14.6837C35.2408 14.9836 35.3158 15.1461 35.5907 15.3085C38.7524 17.1705 40.7519 19.8948 41.5642 23.4939C41.5892 23.6313 41.6267 23.7688 41.6267 23.9063C41.6517 24.3062 41.4892 24.5686 41.0893 24.6686C40.7019 24.7561 40.3895 24.5561 40.277 24.1562C40.127 23.6189 40.0146 23.069 39.8396 22.5316C38.2525 17.7829 33.5788 14.7212 28.5426 15.1211C23.6064 15.5085 19.5199 19.2325 18.6451 24.0937C17.3705 31.2044 23.094 37.5527 30.2921 37.0154C35.6657 36.6155 39.9771 32.3166 40.402 26.9305C40.4395 26.3806 40.7269 26.0807 41.1518 26.0932C41.6017 26.1182 41.8516 26.4681 41.8016 27.043C41.6267 29.1049 40.9893 31.0044 39.9021 32.704C40.477 33.2788 41.0393 33.8412 41.6142 34.416C42.139 34.1786 42.314 34.2161 42.8014 34.7035C44.1885 36.0906 45.5881 37.4777 46.9753 38.8774C47.9625 39.8646 48.2374 41.0518 47.7876 42.364C47.3502 43.6511 46.4004 44.3759 45.0633 44.5634C44.0635 44.7009 43.1513 44.4384 42.4265 43.7386C40.9018 42.264 39.4147 40.7394 37.9151 39.2398C37.5777 38.9024 37.5902 38.5275 37.8401 38.1776C37.2653 37.6027 36.7154 37.0529 36.1531 36.4905C36.1406 36.4905 36.1156 36.4905 36.0906 36.503C35.4033 36.7529 35.2033 37.2278 35.2283 37.9651C35.2783 40.427 35.2158 42.9013 35.2658 45.3632C35.2908 46.6754 34.8159 47.5501 33.5538 47.975C22.9315 47.975 12.3093 47.975 1.68706 47.975C0.837282 47.7001 0.274928 47.1377 0 46.288C0 34.391 0 22.4816 0 10.5722C0.249935 10.2848 0.512367 10.0099 0.949753 10.1848C1.38714 10.3598 1.41213 10.7222 1.41213 11.1096C1.41213 22.5566 1.41213 34.0036 1.41213 45.4632C1.41213 46.4004 1.58709 46.5754 2.53684 46.5754C12.6092 46.5754 22.6816 46.5754 32.7665 46.5754C33.6787 46.5754 33.8537 46.4004 33.8537 45.4757C33.8537 43.0513 33.8537 40.6394 33.8537 38.2151C33.8537 38.0401 33.8537 37.8776 33.8537 37.7027C33.0664 37.8901 32.3166 38.1151 31.5543 38.24C30.8545 38.3525 30.1297 38.4275 29.4173 38.4275C24.3312 38.44 19.2325 38.44 14.1463 38.44C14.0213 38.44 13.8964 38.4525 13.7714 38.4275C13.3965 38.3775 13.1716 38.1526 13.1466 37.7777C13.1216 37.4278 13.309 37.1778 13.6464 37.0779C13.8089 37.0279 13.9839 37.0279 14.1588 37.0279C17.108 37.0279 20.0573 37.0279 23.019 37.0279C23.1815 37.0279 23.3564 37.0279 23.4939 37.0279C22.6691 36.3905 21.8443 35.7532 21.0195 35.1409C20.8946 35.0534 20.6946 35.0409 20.5322 35.0409C18.4577 35.0284 16.3832 35.0409 14.2963 35.0409C14.1588 35.0409 14.0089 35.0534 13.8714 35.0284C13.4215 34.9909 13.1466 34.716 13.1466 34.3286C13.1466 33.9162 13.434 33.6287 13.9214 33.6287C15.6209 33.6163 17.3205 33.6287 19.0325 33.6287C19.195 33.6287 19.3575 33.6287 19.6074 33.6287C19.3825 33.2788 19.195 33.0164 19.02 32.7415C18.2328 31.5293 17.6704 30.2046 17.3705 28.7925C17.2955 28.4551 17.158 28.3801 16.8331 28.3801C15.9458 28.4051 15.0586 28.3926 14.1588 28.3801C14.0338 28.3801 13.9089 28.3926 13.7839 28.3676C13.384 28.3051 13.1216 28.0177 13.1341 27.6428C13.1466 27.2679 13.4215 26.9805 13.8339 26.9805C14.7212 26.968 15.6084 26.9805 16.5082 26.968C16.6707 26.968 16.8456 26.968 17.0456 26.968C17.0456 26.2807 17.0456 25.6308 17.0456 24.931C16.0958 24.931 15.1461 24.931 14.1963 24.931C13.4715 24.931 13.1341 24.7061 13.1341 24.2312C13.1341 23.7563 13.4715 23.5189 14.1838 23.5189C15.1835 23.5189 16.1833 23.5189 17.183 23.5064C17.208 23.5064 17.2455 23.4939 17.3205 23.4689C17.7079 21.6944 18.4577 20.0448 19.6199 18.4827C19.3575 18.4827 19.195 18.4827 19.0325 18.4827C17.4205 18.4827 15.8209 18.4827 14.2088 18.4827C14.0338 18.4827 13.8214 18.5327 13.7089 18.4452C13.4965 18.2827 13.2091 18.0578 13.1841 17.8329C13.1716 17.6079 13.409 17.3205 13.609 17.1455C13.7339 17.0331 13.9964 17.0706 14.1963 17.0706C16.2833 17.0706 18.3827 17.0831 20.4697 17.0581C20.7196 17.0581 20.9945 16.9331 21.207 16.7831C21.9693 16.2458 22.7066 15.6709 23.5064 15.0711C23.3314 15.0711 23.169 15.0711 23.019 15.0711C20.0698 15.0711 17.1205 15.0711 14.1588 15.0711C13.9839 15.0711 13.8089 15.0711 13.6464 15.0336C13.284 14.9211 13.0966 14.6587 13.1466 14.2838C13.1841 13.9339 13.3965 13.7214 13.7589 13.6714C13.8339 13.6589 13.9089 13.6589 13.9964 13.6589C19.2075 13.6589 24.4311 13.6589 29.6423 13.6589C30.9794 13.6589 32.2791 13.9089 33.5413 14.3338C33.6287 14.3588 33.7162 14.3838 33.8287 14.4087C33.8287 12.9841 33.8287 11.5845 33.8287 10.1099C33.6537 10.1099 33.4913 10.1099 33.3288 10.1099C31.3668 10.1099 29.3923 10.1099 27.4304 10.1099C25.9932 10.1099 25.131 9.24759 25.131 7.81047C25.131 5.86097 25.131 3.91148 25.131 1.94949C25.131 1.77454 25.131 1.61208 25.131 1.38714C24.931 1.38714 24.7686 1.38714 24.5936 1.38714C17.2205 1.38714 9.84744 1.38714 2.47436 1.38714C1.59958 1.38714 1.41213 1.57459 1.41213 2.46186C1.41213 4.2239 1.41213 5.98594 1.41213 7.76048C1.41213 8.16038 1.34965 8.53528 0.924759 8.67274C0.49987 8.8477 0.212445 8.61026 0 8.26035C0 6.07342 0 3.88649 0 1.69956ZM39.3897 38.7524C40.6519 40.0146 41.9266 41.2768 43.2013 42.5514C44.076 43.4137 45.2382 43.4512 46.038 42.6514C46.8128 41.8641 46.7753 40.7019 45.938 39.8521C44.8133 38.7149 43.6886 37.6027 42.5639 36.4655C42.414 36.3155 42.314 36.1156 42.2015 35.9531C41.2018 36.9404 40.3145 37.8152 39.3897 38.7524ZM32.679 8.73523C30.617 6.67326 28.5801 4.6238 26.5431 2.58683C26.5431 2.62432 26.5306 2.71179 26.5306 2.79927C26.5306 4.48633 26.5306 6.17339 26.5306 7.84796C26.5306 8.48529 26.7805 8.72273 27.4054 8.72273C28.4926 8.72273 29.5923 8.72273 30.6795 8.72273C31.3543 8.73523 32.0417 8.73523 32.679 8.73523ZM38.8649 37.0529C39.3897 36.528 39.9146 35.9906 40.4145 35.4908C39.9646 35.0409 39.4647 34.541 39.0273 34.1036C38.515 34.616 37.9776 35.1409 37.4777 35.6532C37.9151 36.1031 38.415 36.5905 38.8649 37.0529Z" fill="black"/>
<path d="M11.0471 16.1207C11.0471 16.6081 11.0596 17.083 11.0471 17.5704C11.0346 18.5326 10.3848 19.1949 9.43504 19.2199C8.4228 19.2324 7.41057 19.2449 6.39833 19.2199C5.51106 19.2074 4.84873 18.5826 4.82374 17.6953C4.78625 16.6331 4.78625 15.5709 4.82374 14.5212C4.86123 13.6214 5.49857 13.0091 6.39833 12.9966C7.42306 12.9716 8.46029 12.9716 9.48503 12.9966C10.3973 13.0216 11.0221 13.6839 11.0471 14.5836C11.0596 15.0835 11.0471 15.5959 11.0471 16.1207ZM9.64748 16.0958C9.64748 15.6459 9.63499 15.196 9.64748 14.7461C9.65998 14.4837 9.54751 14.3837 9.28508 14.3837C8.38531 14.3837 7.47305 14.3837 6.57329 14.3837C6.31085 14.3837 6.21088 14.4962 6.21088 14.7461C6.21088 15.6459 6.21088 16.5581 6.21088 17.4579C6.21088 17.7078 6.31085 17.8203 6.57329 17.8203C7.47305 17.8078 8.38531 17.8078 9.28508 17.8203C9.54751 17.8203 9.64748 17.7203 9.64748 17.4579C9.63499 16.9955 9.64748 16.5456 9.64748 16.0958Z" fill="black"/>
<path d="M11.0596 36.0531C11.0596 36.5405 11.0596 37.0153 11.0596 37.5027C11.0471 38.49 10.4098 39.1523 9.42255 39.1648C8.43531 39.1773 7.46056 39.1773 6.47332 39.1648C5.49857 39.1523 4.84874 38.5274 4.82375 37.5652C4.79875 36.553 4.79875 35.5407 4.82375 34.5285C4.84874 33.5662 5.51107 32.9414 6.48581 32.9289C7.44806 32.9164 8.42281 32.9164 9.38506 32.9289C10.3973 32.9414 11.0471 33.5912 11.0596 34.6035C11.0596 35.0783 11.0596 35.5657 11.0596 36.0531ZM9.64749 36.0531C9.64749 35.6157 9.63499 35.1783 9.64749 34.7409C9.65999 34.441 9.56001 34.316 9.24759 34.316C8.36032 34.3285 7.47306 34.3285 6.58579 34.316C6.33585 34.316 6.21088 34.4035 6.21088 34.6659C6.21088 35.5657 6.21088 36.478 6.21088 37.3777C6.21088 37.6277 6.29836 37.7526 6.56079 37.7526C7.46056 37.7401 8.37282 37.7401 9.27259 37.7526C9.56001 37.7526 9.64749 37.6152 9.64749 37.3527C9.63499 36.9279 9.64749 36.4905 9.64749 36.0531Z" fill="black"/>
<path d="M7.92294 29.0799C7.42307 29.0799 6.9232 29.0924 6.42333 29.0799C5.51106 29.0674 4.86123 28.4801 4.82374 27.5803C4.78625 26.5056 4.78625 25.4184 4.82374 24.3437C4.86123 23.4564 5.49857 22.8815 6.38584 22.8691C7.41057 22.8566 8.4478 22.8566 9.47253 22.8691C10.3848 22.8815 11.0221 23.5314 11.0346 24.4561C11.0471 25.4684 11.0471 26.4931 11.0346 27.5054C11.0221 28.4176 10.3598 29.0549 9.46004 29.0799C8.96017 29.0924 8.4478 29.0799 7.92294 29.0799ZM6.28586 27.6678C7.33559 27.6678 8.36032 27.6803 9.38506 27.6553C9.47253 27.6553 9.62249 27.4304 9.63499 27.3179C9.65998 26.4306 9.63499 25.5434 9.64749 24.6561C9.64749 24.3687 9.53502 24.2812 9.26009 24.2812C8.37282 24.2937 7.48555 24.2937 6.59828 24.2812C6.31085 24.2812 6.21088 24.3937 6.22338 24.6686C6.23587 25.5559 6.22338 26.4431 6.23587 27.3304C6.22338 27.4304 6.26087 27.5303 6.28586 27.6678Z" fill="black"/>
<path d="M38.6399 26.0682C38.6149 29.9422 36.1406 33.4413 32.4915 34.7034C28.7675 36.0031 24.6936 34.8284 22.2567 31.7542C21.8943 31.3043 21.8943 30.8794 22.2442 30.6045C22.5941 30.3296 22.994 30.442 23.3689 30.8794C25.4809 33.3663 28.1552 34.3535 31.3293 33.5662C34.4785 32.7789 36.403 30.667 37.0653 27.4928C38.1026 22.4691 33.7912 17.7953 28.655 18.3577C24.6436 18.7951 21.6194 22.1442 21.6944 26.1307C21.7068 26.843 21.9193 27.5428 22.0068 28.2551C22.0443 28.505 22.0693 28.8175 21.9443 29.0049C21.8318 29.1799 21.4819 29.3548 21.2945 29.3048C21.057 29.2424 20.7821 28.9799 20.7071 28.7425C20.1572 27.0679 20.1323 25.3684 20.5946 23.6688C21.7443 19.4949 25.6308 16.6581 29.8672 16.8956C34.2661 17.1455 37.8027 20.2947 38.515 24.6186C38.5775 25.1059 38.5899 25.5933 38.6399 26.0682Z" fill="black"/>
<path d="M28.5676 24.8935C29.3299 24.1687 30.0797 23.4564 30.8295 22.7566C31.4918 22.1317 32.2666 21.9443 33.1164 22.2567C33.9537 22.5566 34.4285 23.1814 34.5285 24.0687C34.6035 24.731 34.416 25.3184 33.9537 25.7933C32.7165 27.0804 31.4918 28.3551 30.2296 29.6173C29.3424 30.5045 28.0677 30.492 27.1554 29.6423C26.4931 29.0299 25.8433 28.3926 25.2059 27.7428C24.3312 26.8555 24.3312 25.5308 25.1684 24.6686C25.9932 23.8188 27.2929 23.7813 28.2052 24.5811C28.3551 24.6936 28.4926 24.831 28.5676 24.8935ZM28.6925 28.9175C28.93 28.755 29.1924 28.6425 29.3799 28.4551C30.0297 27.8177 30.642 27.1679 31.2794 26.5181C31.8292 25.9557 32.3666 25.4059 32.9039 24.8435C33.1539 24.5811 33.2538 24.2187 33.0289 23.9562C32.8664 23.7438 32.5415 23.5938 32.2666 23.5688C32.0917 23.5439 31.8417 23.7438 31.6918 23.8938C30.8795 24.706 30.0797 25.5433 29.2674 26.3681C28.8425 26.793 28.4926 26.793 28.0552 26.3806C27.8178 26.1557 27.5928 25.9182 27.3429 25.7058C26.9555 25.3434 26.4931 25.3309 26.1807 25.6558C25.8558 25.9932 25.8808 26.4306 26.2682 26.818C26.868 27.4178 27.4679 28.0052 28.0802 28.58C28.2302 28.705 28.4426 28.78 28.6925 28.9175Z" fill="black"/>
</g>
<defs>
<clipPath id="clip0_1860_8719">
<rect width="48" height="48" fill="white"/>
</clipPath>
</defs>
</svg>
