<svg width="49" height="48" viewBox="0 0 49 48" fill="none" xmlns="http://www.w3.org/2000/svg">
<path d="M4.31244 23.9998C4.31244 34.8557 13.1443 43.6873 23.9999 43.6873C34.8555 43.6873 43.6874 34.8557 43.6874 23.9998C43.6874 13.1441 34.8555 4.31219 23.9999 4.31219C13.1443 4.31219 4.31244 13.1441 4.31244 23.9998V23.9998ZM41.8124 23.9998C41.8124 33.8219 33.8217 41.8123 23.9999 41.8123C14.1782 41.8123 6.18744 33.8219 6.18744 23.9998C6.18744 14.1779 14.1782 6.1872 23.9999 6.1872C33.8217 6.1872 41.8124 14.1779 41.8124 23.9998V23.9998Z" fill="black"/>
<path d="M42.542 8.76094C39.0707 4.54144 34.229 1.60845 28.9094 0.502491C28.4037 0.397754 27.906 0.722584 27.8005 1.22979C27.6951 1.73663 28.021 2.23284 28.5278 2.33831C38.7242 4.45831 46.125 13.5682 46.125 23.9998C46.125 36.1997 36.2 46.1248 24 46.1248C11.8 46.1248 1.875 36.1997 1.875 23.9998C1.875 13.2859 9.51453 4.12946 20.0405 2.22808C20.5499 2.13616 20.8883 1.64837 20.7964 1.13897C20.7041 0.629566 20.2167 0.29082 19.7073 0.383105C14.2438 1.36968 9.25195 4.26276 5.651 8.52913C2.00684 12.8471 0 18.3414 0 23.9998C0 30.4107 2.49646 36.4374 7.02942 40.9708C11.5624 45.5037 17.5895 47.9998 24 47.9998C30.4105 47.9998 36.4376 45.5034 40.9706 40.9708C45.5035 36.4374 48 30.4107 48 23.9998C48 18.4509 46.0616 13.0387 42.542 8.76094V8.76094Z" fill="black"/>
<path d="M24.1138 1.87501L24.1797 1.87537H24.1878C24.7016 1.87537 25.1205 1.46082 25.1249 0.945926C25.1293 0.428102 24.7129 0.00476075 24.1955 0.000366212L24.1295 0C24.1266 0 24.1241 0 24.1215 0C23.6073 0 23.1884 0.414552 23.184 0.929812C23.18 1.44764 23.596 1.87061 24.1138 1.87501V1.87501Z" fill="black"/>
<path d="M23.0745 8.96891C23.0745 9.21537 23.1749 9.45633 23.3492 9.63175C23.5246 9.80607 23.7656 9.90641 24.012 9.90641C24.2596 9.90641 24.5005 9.80607 24.6749 9.63175C24.8503 9.45633 24.9506 9.21537 24.9506 8.96891C24.9506 8.72208 24.8503 8.48038 24.6749 8.30606C24.5013 8.13174 24.2596 8.0314 24.012 8.0314C23.7656 8.0314 23.5239 8.13065 23.3492 8.30606C23.1749 8.48038 23.0745 8.72135 23.0745 8.96891V8.96891Z" fill="black"/>
<path d="M23.9879 38.0934C23.7404 38.0934 23.4983 38.1938 23.3251 38.3681C23.1497 38.5424 23.0504 38.7845 23.0504 39.0309C23.0504 39.2785 23.1497 39.5195 23.3251 39.6938C23.4994 39.8688 23.7404 39.9685 23.9879 39.9685C24.2344 39.9685 24.4753 39.8688 24.6504 39.6938C24.8251 39.5195 24.9254 39.2774 24.9254 39.0309C24.9254 38.7845 24.8251 38.5435 24.6504 38.3681C24.4761 38.1938 24.2344 38.0934 23.9879 38.0934Z" fill="black"/>
<path d="M39.0308 24.9495C39.2776 24.9495 39.5193 24.8499 39.6937 24.6756C39.8691 24.5002 39.9683 24.2592 39.9683 24.012C39.9683 23.7652 39.8691 23.5235 39.6937 23.3492C39.5193 23.1749 39.2784 23.0753 39.0308 23.0753C38.7844 23.0753 38.5427 23.1749 38.3683 23.3492C38.1937 23.5242 38.0933 23.7652 38.0933 24.012C38.0933 24.2585 38.1937 24.5002 38.3683 24.6756C38.5434 24.8499 38.7844 24.9495 39.0308 24.9495Z" fill="black"/>
<path d="M8.96912 23.0502C8.72119 23.0502 8.48059 23.1498 8.30627 23.3241C8.13086 23.4984 8.03162 23.7401 8.03162 23.9877C8.03162 24.2341 8.13086 24.4762 8.30627 24.6505C8.48059 24.8248 8.72156 24.9252 8.96912 24.9252C9.21558 24.9252 9.45728 24.8248 9.63159 24.6505C9.80591 24.4762 9.90662 24.2341 9.90662 23.9877C9.90662 23.7401 9.80627 23.4984 9.63159 23.3241C9.45728 23.1494 9.21558 23.0502 8.96912 23.0502Z" fill="black"/>
<path d="M16.4953 10.0386C16.2488 10.0386 16.0068 10.139 15.8325 10.3133C15.6581 10.4876 15.5578 10.7297 15.5578 10.9761C15.5578 11.2226 15.6581 11.4647 15.8325 11.639C16.0068 11.8133 16.2488 11.9136 16.4953 11.9136C16.7418 11.9136 16.9838 11.8133 17.1581 11.639C17.3325 11.4647 17.4328 11.2226 17.4328 10.9761C17.4328 10.7297 17.3325 10.4876 17.1581 10.3133C16.9838 10.139 16.7418 10.0386 16.4953 10.0386Z" fill="black"/>
<path d="M31.5048 36.0862C31.2583 36.0862 31.0162 36.1865 30.8419 36.3608C30.6676 36.5351 30.5673 36.7768 30.5673 37.0237C30.5673 37.2701 30.6676 37.5122 30.8419 37.6865C31.0162 37.8608 31.2583 37.9612 31.5048 37.9612C31.7512 37.9612 31.9933 37.8608 32.1676 37.6865C32.3419 37.5122 32.4423 37.2701 32.4423 37.0237C32.4423 36.7768 32.3419 36.5351 32.1676 36.3608C31.9933 36.1865 31.7512 36.0862 31.5048 36.0862Z" fill="black"/>
<path d="M37.0238 17.4329C37.2703 17.4329 37.512 17.3325 37.6863 17.1578C37.8606 16.9835 37.9613 16.7418 37.9613 16.4954C37.9613 16.2485 37.861 16.0068 37.6863 15.8325C37.512 15.6582 37.2703 15.5579 37.0238 15.5579C36.777 15.5579 36.5353 15.6578 36.361 15.8325C36.1866 16.0068 36.0863 16.2485 36.0863 16.4954C36.0863 16.7418 36.1863 16.9835 36.361 17.1578C36.5353 17.3325 36.777 17.4329 37.0238 17.4329Z" fill="black"/>
<path d="M10.9762 30.567C10.7297 30.567 10.488 30.6673 10.3137 30.8416C10.139 31.0159 10.0387 31.258 10.0387 31.5045C10.0387 31.7509 10.139 31.993 10.3137 32.1673C10.488 32.3416 10.7297 32.442 10.9762 32.442C11.223 32.442 11.4647 32.3416 11.639 32.1673C11.8134 31.993 11.9137 31.7509 11.9137 31.5045C11.9137 31.258 11.8137 31.0159 11.639 30.8416C11.4647 30.6673 11.2238 30.567 10.9762 30.567Z" fill="black"/>
<path d="M25.0909 21.8184C24.5174 21.8184 23.9549 22.0519 23.5492 22.4576C23.1426 22.8633 22.9091 23.4266 22.9091 24.0002C22.9091 24.5738 23.1426 25.1371 23.5492 25.5428C23.9549 25.9485 24.5174 26.182 25.0909 26.182C25.6654 26.182 26.2279 25.9485 26.6336 25.5428C27.0392 25.1371 27.2728 24.5738 27.2728 24.0002C27.2728 23.4266 27.0401 22.8633 26.6336 22.4576C26.2279 22.0519 25.6671 21.8184 25.0909 21.8184Z" fill="#AB54FF"/>
<path d="M10.9886 15.5361C10.7418 15.5361 10.5001 15.6361 10.3258 15.8108C10.1515 15.9851 10.0511 16.2261 10.0511 16.4736C10.0511 16.7201 10.1511 16.9611 10.3258 17.1361C10.5012 17.3104 10.7418 17.4111 10.9886 17.4111C11.2362 17.4111 11.4772 17.3108 11.6511 17.1361C11.8265 16.9611 11.9261 16.7201 11.9261 16.4736C11.9261 16.2261 11.8265 15.9851 11.6511 15.8108C11.4772 15.6365 11.2362 15.5361 10.9886 15.5361Z" fill="black"/>
<path d="M37.0114 32.4638C37.2582 32.4638 37.4999 32.3634 37.6742 32.1891C37.8485 32.0148 37.9489 31.7727 37.9489 31.5262C37.9489 31.2798 37.8485 31.0377 37.6742 30.8634C37.4999 30.6891 37.2582 30.5887 37.0114 30.5887C36.7638 30.5887 36.5228 30.6891 36.3485 30.8634C36.1735 31.0377 36.0739 31.2798 36.0739 31.5262C36.0739 31.7727 36.1735 32.0148 36.3485 32.1891C36.5221 32.3634 36.7638 32.4638 37.0114 32.4638Z" fill="black"/>
<path d="M31.5261 11.9257C31.7729 11.9257 32.0146 11.8261 32.189 11.6517C32.3644 11.4767 32.4636 11.2346 32.4636 10.9882C32.4636 10.7417 32.3644 10.4996 32.189 10.3253C32.0146 10.151 31.7729 10.0507 31.5261 10.0507C31.2797 10.0507 31.038 10.151 30.8636 10.3253C30.6893 10.4996 30.5886 10.7417 30.5886 10.9882C30.5886 11.2346 30.689 11.4767 30.8636 11.6517C31.038 11.8264 31.2797 11.9257 31.5261 11.9257Z" fill="black"/>
<path d="M16.4734 36.0741C16.2259 36.0741 15.9853 36.1733 15.8106 36.3488C15.6363 36.5231 15.5359 36.764 15.5359 37.0116C15.5359 37.2581 15.6363 37.4998 15.8106 37.6741C15.9853 37.8488 16.2263 37.9491 16.4734 37.9491C16.7203 37.9491 16.962 37.8488 17.1363 37.6741C17.3106 37.499 17.4109 37.2581 17.4109 37.0116C17.4109 36.7648 17.3106 36.5231 17.1363 36.3488C16.962 36.1733 16.7203 36.0741 16.4734 36.0741Z" fill="black"/>
<path d="M31.718 14.9677L25.7008 20.9853C25.198 20.7004 24.6179 20.537 24.0001 20.537C23.3852 20.537 22.8081 20.6989 22.3071 20.9809L19.4305 18.1043C19.0643 17.7384 18.471 17.7384 18.1045 18.1043C17.7386 18.4705 17.7386 19.0641 18.1045 19.4303L20.981 22.3066C20.6991 22.8076 20.5376 23.3851 20.5376 23.9996C20.5376 25.909 22.0907 27.4625 24.0001 27.4625C25.9095 27.4625 27.4626 25.909 27.4626 23.9996C27.4626 23.388 27.3026 22.8134 27.0232 22.3143L33.044 16.2937C33.4099 15.9275 33.4099 15.3339 33.044 14.9677C32.6778 14.6018 32.0842 14.6018 31.718 14.9677V14.9677ZM24.0001 25.5875C23.1245 25.5875 22.4126 24.8752 22.4126 23.9996C22.4126 23.1243 23.1245 22.412 24.0001 22.412C24.8757 22.412 25.5876 23.1243 25.5876 23.9996C25.5876 24.8752 24.8757 25.5875 24.0001 25.5875V25.5875Z" fill="black"/>
<path d="M28.085 31.8748H19.9387C19.4208 31.8748 19.0012 32.2948 19.0012 32.8123C19.0012 33.3301 19.4208 33.7498 19.9387 33.7498H28.085C28.6028 33.7498 29.0225 33.3301 29.0225 32.8123C29.0225 32.2948 28.6028 31.8748 28.085 31.8748Z" fill="black"/>
<path opacity="0.06" fill-rule="evenodd" clip-rule="evenodd" d="M27.1536 43.6144C23.9048 48.1448 16.9071 47.1998 14.925 41.963L2.85703 10.0781C0.98055 5.12026 5.05224 -0.023463 10.2945 0.682507L42.1512 4.97266C47.3956 5.67893 50.0195 11.7287 46.9424 16.0197L27.1536 43.6144Z" fill="#934AEF"/>
</svg>
