<svg width="47" height="47" viewBox="0 0 47 47" fill="none" xmlns="http://www.w3.org/2000/svg">
<path d="M40.3115 0H6.68846C2.8923 0 0 2.89231 0 6.68846V40.3115C0 44.1077 2.8923 47 6.68846 47H40.3115C44.1077 47 47 44.1077 47 40.3115V6.68846C47 2.89231 44.1077 0 40.3115 0ZM23.5 37.6C31.2731 37.6 37.6 31.4538 37.6 24.0423C37.6 22.7769 37.4192 21.3308 37.0577 20.2462H41.0346V39.4077C41.0346 40.3115 40.3115 41.2154 39.2269 41.2154H7.77308C6.86924 41.2154 5.96539 40.4923 5.96539 39.4077V20.0654H10.1231C9.76155 21.3308 9.58077 22.5962 9.58077 23.8615C9.40001 31.4538 15.7269 37.6 23.5 37.6ZM23.5 32.1769C18.4385 32.1769 14.4615 28.2 14.4615 23.3192C14.4615 18.4385 18.4385 14.4615 23.5 14.4615C28.5615 14.4615 32.5385 18.4385 32.5385 23.3192C32.5385 28.3808 28.5615 32.1769 23.5 32.1769ZM40.8539 12.8346C40.8539 13.9192 39.95 14.8231 38.8654 14.8231H33.8038C32.7192 14.8231 31.8154 13.9192 31.8154 12.8346V7.95385C31.8154 6.86923 32.7192 5.96538 33.8038 5.96538H38.8654C39.95 5.96538 40.8539 6.86923 40.8539 7.95385V12.8346Z" fill="#F41D77" style="fill:#F41D77;fill:color(display-p3 0.9569 0.1137 0.4667);fill-opacity:1;"/>
</svg>
