<svg width="53" height="53" viewBox="0 0 53 53" fill="none" xmlns="http://www.w3.org/2000/svg">
<path d="M37.5418 7.729H15.4584C8.83342 7.729 4.41675 11.0415 4.41675 18.7707V34.229C4.41675 41.9582 8.83342 45.2707 15.4584 45.2707H37.5418C44.1668 45.2707 48.5834 41.9582 48.5834 34.229V18.7707C48.5834 11.0415 44.1668 7.729 37.5418 7.729ZM38.5797 21.1778L31.6676 26.6986C30.2101 27.869 28.3551 28.4432 26.5001 28.4432C24.6451 28.4432 22.768 27.869 21.3326 26.6986L14.4205 21.1778C13.7138 20.6036 13.6034 19.5436 14.1555 18.8369C14.7297 18.1303 15.7676 17.9978 16.4742 18.5719L23.3863 24.0928C25.0647 25.4398 27.9134 25.4398 29.5917 24.0928L36.5038 18.5719C37.2105 17.9978 38.2705 18.1082 38.8226 18.8369C39.3968 19.5436 39.2863 20.6036 38.5797 21.1778Z" fill="#A657EE" style="fill:#A657EE;fill:color(display-p3 0.6510 0.3412 0.9333);fill-opacity:1;"/>
</svg>
