<svg width="55" height="48" viewBox="0 0 55 48" fill="none" xmlns="http://www.w3.org/2000/svg">
<path d="M0.964428 23.0396L13.6092 27.7568L18.5385 43.6238C18.7528 44.6959 20.0387 44.9103 20.896 44.2671L27.9684 38.4778C28.6114 37.8345 29.683 37.8345 30.5403 38.4778L43.185 47.6978C44.0422 48.341 45.3281 47.9122 45.5425 46.8401L54.9724 1.81216C55.1867 0.740066 54.1152 -0.332018 53.0436 0.0968198L0.964428 20.2522C-0.321476 20.681 -0.321476 22.6108 0.964428 23.0396ZM17.8955 25.3982L42.7563 10.1745C43.1849 9.96007 43.6136 10.6033 43.185 10.8178L22.8248 29.901C22.1819 30.5443 21.5389 31.4019 21.5389 32.474L20.896 37.6201C20.896 38.2634 19.8244 38.4778 19.6101 37.6201L17.0382 28.1857C16.3953 27.1136 16.824 25.8271 17.8955 25.3982Z" fill="#4578FF" style="fill:#4578FF;fill:color(display-p3 0.2706 0.4706 1.0000);fill-opacity:1;"/>
</svg>
