<svg width="19" height="19" viewBox="0 0 19 19" fill="none" xmlns="http://www.w3.org/2000/svg">
<path fill-rule="evenodd" clip-rule="evenodd" d="M9.50004 8.38046L13.6902 4.19025C13.9994 3.88108 14.5007 3.88108 14.8098 4.19025C15.119 4.49941 15.119 5.00067 14.8098 5.30983L10.6196 9.50004L14.8098 13.6902C15.119 13.9994 15.119 14.5007 14.8098 14.8098C14.5007 15.119 13.9994 15.119 13.6902 14.8098L9.50004 10.6196L5.30983 14.8098C5.00067 15.119 4.49941 15.119 4.19025 14.8098C3.88108 14.5007 3.88108 13.9994 4.19025 13.6902L8.38046 9.50004L4.19025 5.30983C3.88108 5.00067 3.88108 4.49941 4.19025 4.19025C4.49941 3.88108 5.00067 3.88108 5.30983 4.19025L9.50004 8.38046Z" fill="#7D8D93"/>
<mask id="mask0" mask-type="alpha" maskUnits="userSpaceOnUse" x="3" y="3" width="13" height="13">
<path fill-rule="evenodd" clip-rule="evenodd" d="M9.50004 8.38046L13.6902 4.19025C13.9994 3.88108 14.5007 3.88108 14.8098 4.19025C15.119 4.49941 15.119 5.00067 14.8098 5.30983L10.6196 9.50004L14.8098 13.6902C15.119 13.9994 15.119 14.5007 14.8098 14.8098C14.5007 15.119 13.9994 15.119 13.6902 14.8098L9.50004 10.6196L5.30983 14.8098C5.00067 15.119 4.49941 15.119 4.19025 14.8098C3.88108 14.5007 3.88108 13.9994 4.19025 13.6902L8.38046 9.50004L4.19025 5.30983C3.88108 5.00067 3.88108 4.49941 4.19025 4.19025C4.49941 3.88108 5.00067 3.88108 5.30983 4.19025L9.50004 8.38046Z" fill="white"/>
</mask>
<g mask="url(#mask0)">
</g>
</svg>
