<svg width="20" height="19" viewBox="0 0 20 19" fill="none" xmlns="http://www.w3.org/2000/svg">
<path d="M19.5184 7.03163C19.398 6.70088 19.0796 6.46725 18.708 6.44013L13.3852 6.04375L11.0819 1.26538C10.9316 0.95125 10.5983 0.75 10.2313 0.75C9.86441 0.75 9.5311 0.95125 9.38078 1.2645L7.07745 6.04375L1.75468 6.44013C1.38963 6.46725 1.07498 6.69213 0.950807 7.015C0.826631 7.33788 0.914395 7.69925 1.17675 7.939L5.11024 11.5326L3.71909 17.1781C3.6332 17.5273 3.78352 17.8904 4.09816 18.0943C4.25875 18.1975 4.44361 18.25 4.62941 18.25C4.8096 18.25 4.99073 18.201 5.14759 18.103L10.2313 14.9268L15.3151 18.103C15.64 18.306 16.0667 18.2981 16.3841 18.082C16.6997 17.8659 16.8388 17.487 16.7314 17.1353L15.0238 11.5353L19.2589 7.9635C19.5361 7.729 19.6379 7.36325 19.5184 7.03163Z" fill="#FDE126"/>
</svg>
