<svg width="20" height="19" viewBox="0 0 20 19" fill="none" xmlns="http://www.w3.org/2000/svg">
<path d="M13.2835 7.04099L18.3286 7.41669L14.3516 10.7708L13.8474 11.196L14.0398 11.8269L15.6662 17.1604L10.7337 14.0787L10.2039 13.7476L9.674 14.0787L4.72307 17.1719L6.05373 11.7719L6.19587 11.1951L5.75727 10.7943L2.0616 7.41799L7.12425 7.04099L7.70012 6.99811L7.95082 6.4779L10.2037 1.80341L12.457 6.47797L12.7077 6.99811L13.2835 7.04099ZM1.80133 7.43738L1.80148 7.43736C1.8014 7.43737 1.80135 7.43737 1.80133 7.43738ZM10.204 1.75C10.204 1.75001 10.204 1.75001 10.2039 1.75C10.204 1.75 10.204 1.75 10.204 1.75Z" stroke="#FDE126" stroke-width="2"/>
</svg>
