<svg width="20" height="19" viewBox="0 0 20 19" fill="none" xmlns="http://www.w3.org/2000/svg">
<path d="M3.39499 17.1781C3.30909 17.5273 3.45848 17.8904 3.77405 18.0943C3.93464 18.1975 4.1195 18.25 4.3053 18.25C4.4855 18.25 4.66663 18.201 4.82348 18.103L9.90723 14.9268L14.991 18.103C15.3159 18.306 15.7416 18.2981 16.06 18.082C16.3756 17.8659 16.5147 17.487 16.4073 17.1353L14.6997 11.5353L18.9347 7.9635C19.212 7.72988 19.3138 7.36325 19.1943 7.0325C19.0739 6.70175 18.7555 6.46813 18.3839 6.441L13.0611 6.04375L10.7578 1.26538C10.6075 0.95125 10.2742 0.75 9.90723 0.75C9.5403 0.75 9.20699 0.95125 9.05667 1.2645L6.75334 6.04375L1.43058 6.44013C1.06459 6.46725 0.749944 6.69213 0.626701 7.015C0.501592 7.33788 0.591222 7.69925 0.852646 7.939L4.78707 11.5326L3.39499 17.1781ZM9.90723 3.75038L11.8138 7.70625L12.3627 7.74738C12.3637 7.74738 12.3637 7.74738 12.3637 7.74738L16.0722 8.023L13.0182 10.599C13.0172 10.5999 13.0172 10.5999 13.0172 10.6008L12.585 10.9648L12.7446 11.4871C12.7446 11.4871 12.7446 11.4889 12.7446 11.4898L13.9145 15.3266L9.90723 12.8233V3.75038Z" fill="#FDE126"/>
</svg>
