<svg width="86" height="72" viewBox="0 0 86 72" fill="none" xmlns="http://www.w3.org/2000/svg">
<g clip-path="url(#clip0_95_4359)">
<path d="M35.5492 68.8414C33.0184 62.0312 30.5101 55.3106 27.9346 48.3884C34.8325 50.9647 41.5512 53.4513 48.4716 56.0275C47.4638 57.0132 46.5455 57.8869 45.6497 58.7605C45.1346 59.2758 44.6195 59.791 44.1044 60.3063C43.3429 61.0904 43.3429 61.6952 44.1044 62.4793C45.6497 64.025 47.195 65.5707 48.6955 67.0493C47.9789 67.7213 47.307 68.371 46.5007 69.1327C45.9408 68.5502 45.2018 67.7437 44.4403 66.9821C43.6341 66.1532 42.8278 65.3467 41.9992 64.5403C41.2153 63.7786 40.6106 63.801 39.8268 64.5627C38.6174 65.7724 37.408 66.9821 36.1986 68.1694C36.0195 68.3934 35.8179 68.5726 35.5492 68.8414Z" fill="#7231E5"/>
<path d="M0 5.42127C0.0895833 5.19725 0.179167 4.95083 0.246354 4.72681C1.03021 1.97136 3.42656 0.0671912 6.29323 0.0223873C8.91354 -0.0224167 11.5115 -1.47363e-05 14.1094 -1.47363e-05C32.2276 -1.47363e-05 50.3234 -1.47363e-05 68.4417 -1.47363e-05C68.7552 -1.47363e-05 69.0688 -1.47368e-05 69.3599 0.0223873C70.0318 0.0671912 70.4573 0.470427 70.5245 1.12008C70.5917 1.83695 70.2333 2.30739 69.5391 2.4642C69.1807 2.55381 68.8224 2.53141 68.4641 2.53141C47.9719 2.53141 27.4797 2.53141 6.9875 2.53141C5.8901 2.53141 4.8599 2.68822 3.98646 3.40509C3.15781 4.07715 2.57552 4.92842 2.55313 5.98132C2.48594 8.73676 2.53073 11.5146 2.53073 14.3149C29.4953 14.3149 56.4151 14.3149 83.4245 14.3149C83.4469 14.0908 83.4693 13.8444 83.4693 13.598C83.4693 11.313 83.4693 9.00559 83.4693 6.72058C83.4693 4.21156 81.8344 2.57621 79.326 2.55381C78.0495 2.55381 76.7505 2.55381 75.474 2.55381C74.4661 2.55381 73.9286 2.10577 73.9062 1.2993C73.8839 0.470427 74.4438 0.0223873 75.5188 0.0223873C76.9521 0.0223873 78.3854 -1.47354e-05 79.7964 0.0447892C83.1557 0.134397 85.888 2.86744 86 6.22774C86.0224 6.76539 86 7.28063 86 7.81828C86 24.8214 86 41.8021 86 58.8052C86 62.2103 84.0292 64.7641 80.8714 65.4586C80.401 65.5706 79.9307 65.593 79.4604 65.593C75.8995 65.6154 72.3609 65.593 68.8 65.593C68.6656 65.593 68.5089 65.593 68.3745 65.5706C67.6802 65.481 67.2995 65.0554 67.2771 64.4057C67.2323 63.7337 67.613 63.2856 68.2625 63.1288C68.576 63.0616 68.9344 63.0616 69.2703 63.0616C72.5625 63.0616 75.8771 63.0616 79.1693 63.0616C81.9016 63.0616 83.4693 61.4711 83.4693 58.7156C83.4693 45.0504 83.4693 31.3852 83.4693 17.72C83.4693 17.4735 83.4693 17.2271 83.4693 16.8911C56.4823 16.8911 29.5625 16.8911 2.50833 16.8911C2.50833 17.6304 2.50833 18.392 2.50833 19.1313C2.50833 21.3491 2.50833 23.5445 2.50833 25.7623C2.50833 26.4791 2.44115 27.1288 1.67969 27.42C0.895833 27.7785 0.447917 27.2856 0 26.748C0 19.6465 0 12.5227 0 5.42127Z" fill="black"/>
<path d="M0 31.4525C0.134375 31.3181 0.246354 31.1165 0.403125 31.0717C0.828646 30.9597 1.34375 30.7356 1.72448 30.87C2.06042 30.9821 2.30677 31.4749 2.48594 31.8557C2.59792 32.0798 2.50833 32.4158 2.50833 32.6846C2.50833 41.3542 2.50833 50.0462 2.50833 58.7157C2.50833 61.4712 4.07604 63.0617 6.80833 63.0841C13.8406 63.0841 20.8505 63.0841 27.8828 63.0841C28.1068 63.0841 28.3307 63.0841 28.6667 63.0841C28.5099 62.6585 28.4203 62.3224 28.2859 61.9864C26.6286 57.5508 24.9937 53.1376 23.3365 48.702C22.8437 47.3579 23.2245 46.1482 24.3891 45.7674C24.8818 45.6106 25.5312 45.5882 26.0016 45.7674C33.325 48.4556 40.626 51.1663 47.9271 53.8993C49.5396 54.5041 49.8531 56.0723 48.6437 57.3044C47.3224 58.6485 45.9562 59.9926 44.4557 61.4712C45.0156 61.964 45.4859 62.4345 46.0234 62.8153C46.2922 62.9945 46.6953 63.0617 47.0312 63.0617C51.9583 63.0841 56.8854 63.0617 61.8125 63.0841C62.1484 63.0841 62.4844 63.0841 62.7979 63.1737C63.425 63.3529 63.7161 63.801 63.6713 64.4282C63.6266 65.0555 63.2682 65.4587 62.6411 65.5483C62.35 65.5931 62.0365 65.5707 61.7229 65.5707C57.4901 65.5707 53.2797 65.5707 48.9573 65.5707C49.0917 65.8172 49.1812 66.0188 49.2708 66.198C49.6964 67.0493 49.6292 67.8557 49.0021 68.5278C48.0839 69.5135 47.1432 70.4768 46.1578 71.3728C45.2396 72.2017 44.1198 72.1345 43.1568 71.1936C41.925 69.9839 40.6932 68.7518 39.4615 67.5197C39.3047 67.3629 39.1479 67.2285 38.9016 67.0045C37.6026 68.3038 36.326 69.5807 35.0495 70.8576C33.549 72.3585 32.0708 72.0449 31.3318 70.0735C30.8615 68.819 30.3464 67.5645 29.9432 66.2876C29.7417 65.6603 29.4281 65.5035 28.801 65.5035C21.8583 65.5259 14.9156 65.4139 7.97292 65.5483C3.96406 65.7275 1.0974 64.2938 0 60.1943C0 50.6062 0 41.0405 0 31.4525ZM33.549 68.8414C33.8401 68.5726 34.0417 68.3934 34.2208 68.2142C35.4302 67.0045 36.6396 65.7948 37.849 64.6074C38.6328 63.8458 39.2375 63.8234 40.0214 64.585C40.85 65.3915 41.6562 66.198 42.4625 67.0269C43.224 67.7885 43.9406 68.595 44.5229 69.1774C45.3292 68.4158 46.0234 67.7661 46.7177 67.0941C45.2172 65.5931 43.6719 64.0698 42.1266 62.5241C41.3651 61.74 41.3651 61.1351 42.1266 60.3511C42.6417 59.8358 43.1568 59.3206 43.6719 58.8053C44.5677 57.9092 45.4859 57.0356 46.4938 56.0723C39.5734 53.4961 32.8547 50.987 25.9568 48.4332C28.5099 55.3106 30.9958 62.0312 33.549 68.8414Z" fill="black"/>
<path d="M19.7308 35.0815C18.9022 37.4337 18.0959 39.6291 17.3121 41.8245C17.0881 42.4518 16.9537 43.1462 16.5954 43.7063C16.3491 44.0871 15.8564 44.4456 15.4084 44.5576C14.8485 44.692 14.4006 44.2887 14.2215 43.7287C12.8329 39.7411 11.4668 35.7536 10.1006 31.766C9.85427 31.0268 10.2126 30.3323 10.8621 30.1307C11.5787 29.9067 12.2058 30.2203 12.497 31.0268C13.3704 33.5134 14.2215 36 15.0725 38.4642C15.1621 38.7331 15.2517 38.9795 15.4084 39.4275C15.5652 39.0467 15.6772 38.8003 15.7668 38.5762C16.6626 36.112 17.536 33.6254 18.4095 31.1612C18.6334 30.4891 18.947 29.9739 19.7308 29.9739C20.5147 29.9739 20.8282 30.4891 21.0522 31.1612C21.8584 33.5806 22.6871 35.9776 23.5157 38.3746C23.6277 38.6882 23.7397 39.0019 23.9189 39.4723C24.6579 37.3889 25.3298 35.44 26.0241 33.5134C26.3152 32.7069 26.584 31.878 26.8751 31.0716C27.1887 30.2427 27.8605 29.8843 28.5772 30.1755C29.2267 30.4219 29.4954 31.1164 29.2267 31.9228C27.8829 35.8208 26.5168 39.7411 25.1506 43.6391C24.9491 44.2439 24.5683 44.6472 23.8741 44.6472C23.1798 44.6248 22.8439 44.1991 22.6423 43.5943C21.7913 41.0629 20.9178 38.509 20.0444 35.9776C19.9548 35.6864 19.8652 35.4624 19.7308 35.0815Z" fill="black"/>
<path d="M47.2549 39.4499C48.2403 36.672 49.1362 34.0958 50.0544 31.5196C50.144 31.2731 50.2112 31.0267 50.3008 30.8027C50.6143 30.153 51.2638 29.8842 51.9133 30.1082C52.5403 30.3322 52.8763 30.9819 52.6299 31.6764C51.9804 33.6029 51.2862 35.5295 50.6143 37.4561C49.92 39.4275 49.2258 41.3988 48.5539 43.3926C48.3299 44.0423 48.0164 44.5799 47.2325 44.5799C46.4487 44.5799 46.1351 44.0423 45.9112 43.3926C44.993 40.682 44.0747 37.9489 43.0893 35.0591C42.8653 35.6191 42.7086 36.0224 42.5518 36.4256C41.7232 38.733 40.8945 41.0628 40.0883 43.3702C39.8643 44.0199 39.5508 44.5575 38.7669 44.5575C37.9831 44.5575 37.6695 44.0423 37.4456 43.3702C36.1466 39.5619 34.8252 35.7759 33.5263 31.9676C33.1232 30.7803 33.8174 29.7722 34.87 30.1082C35.2956 30.2426 35.7659 30.7803 35.9226 31.2507C36.8185 33.6925 37.6247 36.1568 38.4758 38.621C38.543 38.845 38.6325 39.069 38.7893 39.4499C39.1028 38.5762 39.394 37.8369 39.6403 37.1201C40.357 35.1039 41.0961 33.0653 41.8127 31.0491C42.0367 30.3995 42.395 29.9514 43.1117 29.9514C43.8284 29.9514 44.1867 30.4219 44.3883 31.0715C45.2169 33.5357 46.0679 36 46.8966 38.4418C46.9638 38.7106 47.0758 38.957 47.2549 39.4499Z" fill="black"/>
<path d="M65.9557 35.0591C64.9479 37.8818 64.0296 40.5028 63.089 43.1239C63.0218 43.3031 62.9546 43.4823 62.8874 43.6839C62.6635 44.2664 62.2604 44.7144 61.6333 44.5576C61.1854 44.4456 60.6255 44.0647 60.4911 43.6839C59.0802 39.7411 57.7364 35.776 56.3703 31.8108C56.1239 31.0716 56.4375 30.3771 57.0645 30.1531C57.8036 29.8843 58.4531 30.2203 58.7666 31.0716C59.6177 33.5134 60.4687 35.9776 61.2973 38.4418C61.3869 38.7331 61.4989 39.0019 61.6781 39.5171C62.0364 38.509 62.35 37.7026 62.6411 36.8737C63.3354 34.9471 64.0072 33.043 64.6791 31.1164C64.9031 30.4443 65.2614 29.9515 66.0453 29.9739C66.7843 29.9963 67.0979 30.4891 67.3218 31.1164C68.2401 33.8494 69.1807 36.5601 70.1437 39.4499C70.3229 39.0243 70.4348 38.7555 70.5244 38.4642C71.3755 36.0448 72.2041 33.603 73.0999 31.206C73.2567 30.7804 73.7046 30.3099 74.1301 30.1531C74.4213 30.0187 75.1156 30.2427 75.2723 30.5115C75.4963 30.8924 75.5859 31.542 75.4291 31.9677C74.3765 35.1487 73.2343 38.3074 72.1369 41.4661C71.913 42.0934 71.689 42.7206 71.465 43.3703C71.2411 44.0423 70.9275 44.6248 70.0989 44.6024C69.315 44.58 69.0239 44.0423 68.7999 43.3927C67.9937 40.9509 67.1427 38.5314 66.314 36.0896C66.2468 35.7984 66.1348 35.5072 65.9557 35.0591Z" fill="black"/>
<path d="M25.0609 6.09326C26.3374 6.09326 27.3901 7.19096 27.3677 8.46787C27.3453 9.74478 26.2479 10.7977 24.9937 10.7753C23.7619 10.7305 22.7093 9.67758 22.7093 8.44547C22.6869 7.16856 23.7843 6.09326 25.0609 6.09326Z" fill="black"/>
<path d="M17.894 10.7754C16.6622 10.7978 15.5872 9.78971 15.5424 8.5128C15.4976 7.21348 16.5278 6.11579 17.8268 6.09338C19.081 6.07098 20.1336 7.07907 20.1784 8.33358C20.2008 9.6553 19.1929 10.753 17.894 10.7754Z" fill="black"/>
<path d="M8.37634 8.35598C8.39874 7.10147 9.45134 6.07097 10.7055 6.09338C12.0045 6.11578 13.0347 7.19107 12.9899 8.49039C12.9451 9.7673 11.9149 10.7754 10.6607 10.753C9.36176 10.753 8.35395 9.6777 8.37634 8.35598Z" fill="black"/>
</g>
<defs>
<clipPath id="clip0_95_4359">
<rect width="86" height="72" fill="white"/>
</clipPath>
</defs>
</svg>
