<svg width="86" height="72" viewBox="0 0 86 72" fill="none" xmlns="http://www.w3.org/2000/svg">
<path d="M30.8462 56.9256C29.9524 57.3233 29.0993 57.6812 28.2462 58.059C25.6665 52.7896 26.4384 43.0262 35.0509 37.7965C43.1149 32.9049 53.779 35.5694 58.5524 43.6028C63.3665 51.7158 60.3806 62.0758 51.9509 66.5299C43.6228 70.9443 33.5884 67.7031 29.2821 60.2265C30.1759 59.8288 31.0696 59.451 32.004 59.0334C34.4212 62.6524 37.7524 64.8596 42.0993 65.4363C45.5728 65.8936 48.8228 65.138 51.7274 63.1893C57.4759 59.3714 59.4665 51.9743 56.3993 45.8896C53.3118 39.785 46.1009 36.9017 39.5399 38.9697C33.8728 40.7593 27.6571 47.6196 30.8462 56.9256Z" fill="#7231E5"/>
<path d="M38.4831 53.5849C37.4878 51.1789 38.8081 48.1365 41.3471 46.9036C44.0487 45.6111 47.319 46.5656 48.8221 49.1108C50.3253 51.6561 49.5737 54.8973 47.0956 56.5676C44.7596 58.1186 41.4284 57.7607 39.7424 55.6927C41.1034 55.116 42.444 54.5593 43.744 53.9428C44.1096 53.7837 44.5362 53.4457 44.6174 53.1276C44.719 52.7696 44.5768 52.1532 44.3128 51.9544C43.9674 51.7157 43.3378 51.6163 42.9315 51.7555C41.5706 52.2526 40.2706 52.8691 38.9503 53.4258C38.8081 53.4457 38.6659 53.5054 38.4831 53.5849Z" fill="#7231E5"/>
<path d="M12.9707 35.1914C12.9707 31.3537 12.9707 27.5955 12.9707 23.7776C15.2863 23.7776 17.5816 23.7776 19.9379 23.7776C19.9379 27.5756 19.9379 31.3537 19.9379 35.1914C17.6426 35.1914 15.3473 35.1914 12.9707 35.1914Z" fill="#7231E5"/>
<path d="M4 57.2937C4 39.7951 4 22.2965 4 4.79798C5.11719 1.97435 6.41719 1 9.0375 1C31.6859 1 54.3344 1 76.9828 1C80.0703 1 82 2.90893 82 5.9513C82 22.6744 82 39.3974 82 56.1205C82 56.4983 82 56.8761 81.9188 57.234C81.4719 59.5804 79.6234 61.032 77.0234 61.0519C71.4172 61.0718 65.8109 61.0718 60.1844 61.0519C59.6359 61.0519 59.3312 61.2308 59.0266 61.6683C51.5109 72.6049 35.0984 72.8236 27.2578 62.1058C26.9125 61.6285 26.5875 61.1314 26.1609 60.5548C25.6531 62.1455 25.1859 63.6369 24.6781 65.1084C24.5359 65.4862 24.2313 65.9634 23.8859 66.1225C21.0625 67.3951 18.2188 68.628 15.3344 69.8012C14.9891 69.9403 14.3188 69.821 14.0547 69.5625C13.7906 69.304 13.7703 68.7274 13.7703 68.2899C13.7703 68.0115 13.9937 67.7331 14.1156 67.4746C14.4609 66.719 14.7859 65.9634 15.1719 65.1084C14.3391 65.3271 13.7297 65.2277 13.4047 64.5516C13.0594 63.8159 13.4453 63.279 14.1359 62.8216C13.7297 62.6824 13.425 62.583 13.1203 62.4836C12.2672 62.1853 11.2922 62.0461 10.5813 61.549C9.99219 61.1513 9.48438 61.0718 8.85469 61.0718C7.0875 61.0718 5.70625 60.3758 4.77187 58.9242C4.42656 58.4072 4.24375 57.8306 4 57.2937ZM79.5625 17.5043C55.1469 17.5043 30.8125 17.5043 6.4375 17.5043C6.4375 17.7032 6.4375 17.8424 6.4375 18.0014C6.4375 30.7674 6.4375 43.5533 6.4375 56.3193C6.4375 57.7709 7.29062 58.6458 8.77344 58.7055C10.9875 58.8049 13.1609 58.785 15.1719 57.6118C16.2484 56.9755 17.4875 56.6176 18.625 56.0608C19.3969 55.683 20.0672 55.683 20.8594 56.0608C22.1391 56.6971 23.4594 57.234 24.7797 57.8107C22.1391 49.0614 23.9266 41.545 31.3609 35.9573C37.8609 31.0856 45.2141 30.4493 52.2828 34.4859C61.9312 39.9939 64.2266 48.445 60.9359 58.6657C61.1594 58.6657 61.4031 58.6657 61.6672 58.6657C66.6844 58.6657 71.7219 58.6657 76.7391 58.6657C78.7703 58.6657 79.5625 57.8902 79.5625 55.9216C79.5625 43.3942 79.5625 30.8669 79.5625 18.3395C79.5625 18.1009 79.5625 17.8225 79.5625 17.5043ZM79.5422 15.0187C79.5625 14.7602 79.5625 14.5614 79.5625 14.3625C79.5625 11.5389 79.5625 8.69539 79.5625 5.87176C79.5625 4.2611 78.6687 3.40605 77.0031 3.40605C54.3344 3.40605 31.6656 3.40605 9.01719 3.40605C7.31094 3.38617 6.4375 4.2611 6.4375 5.91153C6.4375 8.69539 6.4375 11.4792 6.4375 14.2631C6.4375 14.5017 6.45781 14.7403 6.47812 15.0187C30.8328 15.0187 55.1469 15.0187 79.5422 15.0187ZM29.9594 56.0409C26.7703 46.7349 33.0063 39.8746 38.6328 38.1049C45.1937 36.0369 52.4047 38.9202 55.4922 45.0248C58.5594 51.0896 56.5687 58.5066 50.8203 62.3245C47.9156 64.2533 44.6656 65.0288 41.1922 64.5715C36.8453 63.9948 33.5141 61.7876 31.0969 58.1686C30.1625 58.5663 29.2687 58.964 28.375 59.3617C32.6609 66.8383 42.6953 70.0795 51.0438 65.6651C59.4734 61.211 62.4594 50.851 57.6453 42.738C52.8719 34.6847 42.2078 32.0202 34.1437 36.9317C25.5312 42.1614 24.7391 51.9248 27.3391 57.1942C28.1922 56.7965 29.0453 56.4187 29.9594 56.0409ZM32.2953 55.0268C33.1688 54.649 33.9609 54.2911 34.7938 53.953C35.2203 53.7939 35.2203 53.5752 35.1594 53.1576C34.9969 52.2032 34.8547 51.2288 34.9156 50.2942C35.2 46.4963 38.45 43.3545 42.2281 43.1159C46.5547 42.8375 50.0891 45.4026 51.0031 49.4591C51.8359 53.1775 49.6625 57.1147 45.9859 58.4867C42.7359 59.7196 39.2828 58.9043 36.8859 56.3392C36.7031 56.1602 36.3578 55.9216 36.175 55.9813C35.2406 56.3193 34.3469 56.7568 33.4125 57.1545C36.4391 62.0859 43.3859 63.7363 48.6063 60.853C54.05 57.8504 56.0609 51.2089 53.1562 45.8202C50.2516 40.4314 43.5078 38.264 37.9422 40.9484C31.9094 43.9112 30.3859 50.513 32.2953 55.0268ZM37.5969 52.7003C37.7797 52.6208 37.9219 52.581 38.0641 52.5213C39.3844 51.9447 40.6844 51.3282 42.0453 50.851C42.4313 50.7118 43.0813 50.8112 43.4266 51.0499C43.6906 51.2487 43.8328 51.8651 43.7313 52.2231C43.65 52.5611 43.2031 52.8793 42.8578 53.0383C41.5375 53.6548 40.1969 54.2115 38.8563 54.7882C40.5625 56.8562 43.8937 57.234 46.2094 55.6631C48.6875 54.0127 49.4391 50.7516 47.9359 48.2063C46.4328 45.6611 43.1625 44.7066 40.4609 45.9991C37.9219 47.232 36.5812 50.2942 37.5969 52.7003ZM14.7047 60.3957C16.3703 61.2507 17.9547 61.6484 19.6 60.5548C19.9453 60.3161 20.3719 60.1968 20.7781 60.0378C21.2453 59.819 21.7125 59.6202 22.2812 59.3617C21.9562 59.2026 21.7734 59.1429 21.6109 59.0236C20.3922 58.1885 19.2141 58.2282 17.9141 58.9839C16.8984 59.5406 15.8016 59.9184 14.7047 60.3957ZM23.2969 61.5291C21.6922 62.2251 20.2906 62.8216 18.8891 63.438C18.7469 63.4977 18.5641 63.617 18.5031 63.7562C18.1172 64.5715 17.7516 65.4066 17.3047 66.4009C19.0719 65.6254 20.6562 64.9493 22.2406 64.2533C22.3625 64.1937 22.5047 64.0744 22.5453 63.955C22.7688 63.2193 23.0125 62.4637 23.2969 61.5291Z" fill="black"/>
<path d="M14.7041 60.3956C15.801 59.9183 16.9182 59.5405 17.8932 58.9639C19.1729 58.2082 20.3713 58.1685 21.59 59.0036C21.7525 59.1229 21.9557 59.1826 22.2604 59.3417C21.6916 59.6002 21.2244 59.799 20.7572 60.0178C20.3713 60.1967 19.9447 60.316 19.5791 60.5348C17.9541 61.6682 16.3697 61.2506 14.7041 60.3956Z" fill="white"/>
<path d="M23.2967 61.5291C22.992 62.4636 22.7686 63.2193 22.5248 63.955C22.4842 64.0743 22.342 64.1936 22.2201 64.2533C20.6357 64.9492 19.0514 65.6452 17.2842 66.4008C17.7311 65.4066 18.0967 64.5714 18.4826 63.7561C18.5436 63.6169 18.7264 63.5175 18.8686 63.438C20.2904 62.8414 21.692 62.225 23.2967 61.5291Z" fill="white"/>
<path d="M68.1469 36.7727C68.8173 36.7727 69.4063 36.7727 70.1173 36.7727C70.1173 36.4744 70.1173 36.2159 70.1173 35.9574C70.1173 33.2332 70.1173 30.4891 70.1173 27.7649C70.1173 26.7905 70.7266 26.2536 71.5798 26.4127C72.2298 26.532 72.5548 27.0291 72.5548 27.8842C72.5548 30.5686 72.5548 33.2531 72.5548 35.9375C72.5548 36.196 72.5548 36.4744 72.5548 36.7727C73.2048 36.7727 73.7735 36.7727 74.4641 36.7727C74.4844 36.4943 74.5048 36.2159 74.5048 35.9176C74.5048 31.8015 74.5048 27.6655 74.5048 23.5493C74.5048 23.2709 74.5048 22.9925 74.5454 22.734C74.6266 22.1375 75.0126 21.7995 75.6016 21.7597C76.2313 21.7 76.6985 21.9983 76.861 22.5948C76.9423 22.8732 76.9423 23.1914 76.9423 23.4897C76.9423 27.6058 76.9423 31.7418 76.9423 35.858C76.9423 36.1562 76.9423 36.4346 76.9423 36.8323C77.3688 36.8323 77.7344 36.8124 78.0798 36.8323C78.8313 36.8721 79.2985 37.3095 79.3188 37.9856C79.3391 38.6617 78.8719 39.1191 78.1407 39.1986C77.9985 39.2185 77.836 39.1986 77.6938 39.1986C72.0063 39.1986 66.3188 39.1986 60.6313 39.1986C60.3876 39.1986 60.1235 39.1986 59.8798 39.1389C59.2501 38.9799 58.9454 38.5424 58.986 37.926C59.0266 37.3095 59.3923 36.9118 60.0423 36.8522C60.4485 36.8124 60.8344 36.8522 61.3626 36.8522C61.3626 35.9972 61.3626 35.2415 61.3626 34.4859C61.3626 34.0087 61.3626 33.5513 61.3626 33.0741C61.3626 32.0799 61.8298 31.5032 62.6016 31.5032C63.3735 31.5032 63.8001 32.06 63.8001 33.0741C63.8001 34.2871 63.8001 35.5 63.8001 36.7727C64.4501 36.7727 65.0391 36.7727 65.7094 36.7727C65.7298 36.534 65.7501 36.2954 65.7501 36.0767C65.7501 34.2871 65.7501 32.4974 65.7501 30.7078C65.7501 29.7533 66.1969 29.2363 66.9891 29.2562C67.761 29.2562 68.1876 29.7732 68.1876 30.7476C68.1876 32.5173 68.1876 34.2672 68.1876 36.0369C68.1469 36.2557 68.1469 36.4943 68.1469 36.7727Z" fill="black"/>
<path d="M9.62656 28.5803C9.62656 26.3731 9.62656 24.1658 9.62656 21.9586C9.62656 20.8849 10.0531 20.4673 11.1297 20.4673C14.0953 20.4673 17.0609 20.4673 20.0266 20.4673C21.0828 20.4673 21.5094 20.8849 21.5094 21.899C21.5094 26.3929 21.5094 30.8869 21.5094 35.3808C21.5094 36.3154 21.0828 36.7529 20.1078 36.7529C17.0609 36.7728 14.0141 36.7728 10.9672 36.7529C10.0125 36.7529 9.58594 36.3154 9.58594 35.361C9.62656 33.0941 9.62656 30.8471 9.62656 28.5803ZM12.0844 34.3071C14.4406 34.3071 16.7359 34.3071 19.0516 34.3071C19.0516 30.4693 19.0516 26.6713 19.0516 22.8932C16.7156 22.8932 14.4203 22.8932 12.0844 22.8932C12.0844 26.7111 12.0844 30.4693 12.0844 34.3071Z" fill="black"/>
<path d="M66.6029 21.6205C66.0951 21.5807 65.831 21.5609 65.5466 21.5211C64.8763 21.4217 64.4904 21.0439 64.4701 20.3877C64.4498 19.7116 64.8357 19.2145 65.4857 19.1946C67.0498 19.1946 68.6341 19.2741 70.1982 19.4133C70.7466 19.4531 71.0717 19.9502 71.0513 20.507C70.9701 21.9387 70.8888 23.3903 70.7467 24.822C70.6857 25.4583 70.0763 25.8759 69.4467 25.8162C68.817 25.7565 68.3498 25.2594 68.3498 24.6032C68.3498 24.2055 68.4107 23.8277 68.4513 23.3107C68.1263 23.5295 67.9029 23.6686 67.6795 23.8277C64.8357 25.8162 61.992 27.8246 59.1482 29.8329C58.5998 30.2306 58.0513 30.3499 57.4623 29.9125C56.7716 29.3954 56.8529 28.4808 57.6654 27.9041C60.0216 26.2338 62.3982 24.5635 64.7748 22.8931C65.3232 22.5153 65.8716 22.1375 66.6029 21.6205Z" fill="black"/>
<path d="M34.6313 27.2677C37.4953 27.2677 40.3594 27.2677 43.2234 27.2677C43.4672 27.2677 43.7313 27.2478 43.975 27.2876C44.5641 27.387 44.9297 27.7449 44.9906 28.3216C45.0516 28.938 44.7469 29.3954 44.1375 29.5544C43.8531 29.634 43.5281 29.634 43.2438 29.634C37.4547 29.634 31.6656 29.634 25.8969 29.634C25.6938 29.634 25.4906 29.6539 25.2875 29.6141C24.5563 29.5345 24.1094 29.0573 24.1094 28.4011C24.1297 27.7449 24.5969 27.2677 25.3484 27.2677C26.7094 27.2478 28.0906 27.2478 29.4516 27.2478C31.1781 27.2677 32.9047 27.2677 34.6313 27.2677Z" fill="black"/>
<path d="M34.4691 23.609C31.5238 23.609 28.5785 23.609 25.6332 23.609C24.6378 23.609 24.1097 23.2113 24.0894 22.4755C24.0691 21.7 24.6175 21.2427 25.6332 21.2427C31.605 21.2427 37.5566 21.2427 43.5285 21.2427C44.1379 21.2427 44.7066 21.3819 44.8691 21.9784C44.9707 22.3562 44.9097 22.913 44.666 23.1914C44.4222 23.4698 43.8738 23.609 43.4472 23.609C40.4613 23.6288 37.4754 23.609 34.4691 23.609Z" fill="black"/>
<path d="M32.0309 9.33181C32.0309 9.96813 32.0512 10.6243 32.0309 11.2606C32.0106 12.0958 31.5434 12.5333 30.6903 12.5531C29.3699 12.573 28.0496 12.573 26.7293 12.5531C25.8762 12.5333 25.409 12.1157 25.3887 11.2606C25.3684 9.88859 25.3481 8.53643 25.3887 7.16438C25.409 6.34911 25.8559 5.93153 26.6887 5.91164C28.0293 5.89176 29.3699 5.89176 30.7309 5.91164C31.584 5.93153 32.0106 6.36899 32.0309 7.22403C32.0309 7.93988 32.0309 8.63585 32.0309 9.33181ZM29.5324 10.1272C29.5324 9.49089 29.5324 8.93412 29.5324 8.35746C28.9434 8.35746 28.4153 8.35746 27.8262 8.35746C27.8262 8.97389 27.8262 9.53066 27.8262 10.1272C28.4153 10.1272 28.9637 10.1272 29.5324 10.1272Z" fill="black"/>
<path d="M15.9846 9.23217C15.9846 9.90825 16.0049 10.5843 15.9846 11.2405C15.9439 12.1353 15.5174 12.5529 14.6033 12.5728C13.3033 12.5927 12.0236 12.5927 10.7236 12.5728C9.80957 12.5728 9.3627 12.1353 9.34238 11.2604C9.32207 9.92814 9.32207 8.57598 9.34238 7.2437C9.3627 6.40854 9.80957 5.97108 10.683 5.95119C12.0033 5.93131 13.3236 5.93131 14.6439 5.95119C15.5174 5.97108 15.9439 6.36877 15.9846 7.22382C16.0049 7.88001 15.9846 8.55609 15.9846 9.23217ZM13.4658 10.127C13.7908 8.33736 13.4252 7.97943 11.8205 8.43678C11.8205 8.99356 11.8205 9.55033 11.8205 10.127C12.3893 10.127 12.9174 10.127 13.4658 10.127Z" fill="black"/>
<path d="M23.967 9.25208C23.967 9.94804 23.9873 10.644 23.967 11.34C23.9467 12.1155 23.4998 12.5529 22.7279 12.5529C21.3264 12.5728 19.9451 12.5728 18.5436 12.5529C17.8326 12.5331 17.3857 12.1354 17.3654 11.4394C17.3248 9.96793 17.3248 8.51634 17.3654 7.04487C17.3857 6.38868 17.792 5.9711 18.4826 5.95121C19.9248 5.91144 21.367 5.91144 22.8092 5.95121C23.5201 5.9711 23.9264 6.40856 23.9467 7.10453C23.9873 7.82038 23.967 8.53623 23.967 9.25208ZM21.4686 10.1469C21.4686 9.49069 21.4686 8.91404 21.4686 8.35727C20.8795 8.35727 20.3717 8.35727 19.8436 8.35727C19.8436 8.99358 19.8436 9.55035 19.8436 10.1469C20.4326 10.1469 20.9201 10.1469 21.4686 10.1469Z" fill="black"/>
</svg>
