<svg width="86" height="72" viewBox="0 0 86 72" fill="none" xmlns="http://www.w3.org/2000/svg">
<g clip-path="url(#clip0_95_4370)">
<path d="M61.2681 10.7856C62.2537 12.4919 62.418 14.1044 61.7815 15.7544C61.494 16.5044 61.1244 17.2169 60.7959 17.9669C60.3852 18.9231 60.878 19.5981 62.0073 19.6169C64.2659 19.6356 66.5245 19.6356 68.7831 19.6356C69.7687 19.6356 69.8919 19.7481 69.8919 20.6669C69.8919 23.7794 69.8919 26.8919 69.8919 30.0231C69.8919 30.8106 69.7276 30.9794 68.8653 30.9794C65.3747 30.9794 61.8841 30.9794 58.3936 30.9794C56.9563 30.9794 55.6627 30.5856 54.5745 29.7231C54.3691 29.5544 54.1843 29.2356 54.1843 28.9731C54.1638 26.5356 54.1638 24.0981 54.1843 21.6606C54.1843 21.3794 54.3691 21.0231 54.5745 20.7981C55.8475 19.4481 57.1205 18.0981 58.4552 16.7856C60.0567 15.1919 61.0628 13.3731 61.1655 11.1981C61.1449 11.1044 61.186 11.0294 61.2681 10.7856Z" fill="#7231E5"/>
<path d="M48.0039 19.8794C49.318 19.8794 50.5294 19.8794 51.8025 19.8794C51.8025 23.4044 51.8025 26.9106 51.8025 30.4356C50.5294 30.4356 49.2975 30.4356 48.0039 30.4356C48.0039 26.9294 48.0039 23.4231 48.0039 19.8794Z" fill="#7231E5"/>
<path d="M44.3757 71.9995C43.7802 71.587 43.5749 71.0245 43.6365 70.3495C43.6981 69.7683 43.6571 69.187 43.6571 68.4933C43.3491 68.4933 43.0821 68.4933 42.7947 68.4933C40.8235 68.4933 38.8524 68.4933 36.8607 68.4933C33.4933 68.4933 31.2347 66.4683 31.2142 63.412C31.1937 59.8495 31.2142 56.287 31.2142 52.7245C31.2142 52.4808 31.2142 52.2183 31.2142 51.8058C30.8652 52.0308 30.6598 52.162 30.4545 52.312C28.8735 53.4183 27.2719 54.5433 25.7114 55.6683C25.2392 56.0058 24.7669 56.2308 24.1715 55.9495C23.5966 55.687 23.5555 55.1995 23.5555 54.6933C23.576 53.5495 23.5555 52.4058 23.5555 51.1495C23.1859 51.1495 22.8779 51.1495 22.5905 51.1495C19.5105 51.1495 16.4306 51.1683 13.3507 51.1495C9.6343 51.112 6.82131 49.0495 6.14373 45.862C6.0616 45.5058 6.04107 45.112 6.04107 44.737C6.04107 41.2495 6.04107 37.762 6.02053 34.2558C6.02053 33.6558 6.20533 33.187 6.92397 33.0745C7.72475 32.9433 8.29967 33.3745 8.3202 34.1808C8.34073 35.212 8.3202 36.2433 8.3202 37.2745C8.3202 39.6558 8.3202 42.0558 8.3202 44.437C8.34073 47.212 10.2708 49.012 13.3302 49.0308C16.9029 49.0495 20.4551 49.0308 24.0277 49.0308C25.5882 49.0308 25.8552 49.2745 25.8552 50.7183C25.8552 51.3745 25.8552 52.0308 25.8552 52.762C26.081 52.6495 26.2453 52.5933 26.3685 52.4995C27.9084 51.412 29.4689 50.3245 30.9883 49.237C31.1937 49.087 31.3374 48.8433 31.4195 48.6183C32.1382 46.537 33.9656 45.2058 36.3474 45.112C37.1892 45.0745 38.0311 45.112 38.9756 45.112C38.9756 44.7745 38.9756 44.512 38.9756 44.2683C38.9756 38.0995 38.9756 31.9495 38.9756 25.7808C38.9756 22.9308 36.9839 21.112 33.8835 21.112C27.0666 21.112 20.2292 21.112 13.4123 21.112C10.2913 21.112 8.34073 22.912 8.3202 25.7808C8.3202 26.4183 8.34073 27.0558 8.29967 27.6745C8.2586 28.3683 7.82741 28.7245 7.1293 28.7245C6.41065 28.7245 6 28.3683 6 27.6558C6.02053 26.4558 5.9384 25.2558 6.18479 24.0933C6.78024 21.2058 9.5727 19.0495 12.7758 19.0308C20.0033 18.9745 27.2514 19.012 34.4789 19.012C34.9101 19.012 35.3413 19.087 35.8546 19.1245C35.8546 18.8245 35.8546 18.5808 35.8546 18.3183C35.8546 14.962 35.8546 11.6245 35.8546 8.26828C35.8751 3.37453 39.5505 0.01828 44.9095 -0.000469986C50.0633 -0.000469986 55.217 -0.000469986 60.3912 -0.000469986C61.2947 -0.000469986 61.7053 0.28078 61.7875 0.89953C61.8901 1.66828 61.3973 2.09953 60.4323 2.11828C55.2786 2.11828 50.1249 2.11828 44.9506 2.11828C44.4168 2.11828 43.8624 2.13703 43.3491 2.23078C40.4129 2.71828 38.2364 4.96828 38.2159 7.68703C38.1543 11.662 38.1953 15.6558 38.2159 19.6308C38.2159 19.8745 38.4007 20.212 38.6265 20.3808C40.4334 21.7683 41.3163 23.5308 41.3163 25.6683C41.3163 29.3245 41.3163 32.9808 41.2958 36.637C41.2958 37.1433 41.4395 37.462 41.9734 37.5745C42.9179 37.762 43.8624 38.062 44.8274 38.062C49.2625 38.1183 53.6976 38.0808 58.1532 38.0808C59.4467 38.0808 59.7753 38.3995 59.7958 39.5808C59.7958 40.7245 59.7958 41.8683 59.7958 43.1808C60.1243 42.9745 60.3296 42.8245 60.5555 42.6933C62.5472 41.3058 64.5389 39.8808 66.5511 38.5308C66.9206 38.287 67.4134 38.137 67.8652 38.1183C69.3435 38.0433 70.8424 38.1558 72.3208 37.987C75.3596 37.6495 77.6798 35.3058 77.6798 32.512C77.7209 24.2433 77.7209 15.9745 77.6798 7.68703C77.6593 4.64953 74.8874 2.19328 71.561 2.11828C70.4317 2.09953 69.3024 2.11828 68.1731 2.09953C67.3108 2.09953 66.8796 1.70578 66.8796 1.01203C66.9001 0.35578 67.3108 -0.03797 68.1526 -0.000469986C69.9595 0.05578 71.828 -0.03797 73.5733 0.29953C77.2897 1.03078 79.9795 4.16203 80 7.63078C80.0411 15.9183 80.0616 24.2245 80 32.512C79.9795 36.712 76.1809 40.0495 71.4584 40.162C70.5139 40.1808 69.5488 40.1245 68.6043 40.1808C68.1731 40.1995 67.7009 40.3308 67.3518 40.5745C64.7647 42.337 62.1981 44.137 59.6315 45.937C59.1593 46.2745 58.687 46.5183 58.0916 46.237C57.5167 45.9745 57.4551 45.5058 57.4551 44.9808C57.4756 43.4058 57.4551 41.8495 57.4551 40.237C52.0755 39.8995 46.7164 40.612 41.3574 39.7495C41.3574 41.4183 41.3574 43.1808 41.3574 45.037C41.6243 45.037 41.8912 45.037 42.1787 45.037C45.1559 45.037 48.1332 45.037 51.1104 45.037C54.7653 45.037 56.9417 47.0245 56.9623 50.3808C56.9623 51.8995 56.9828 53.4183 56.9623 54.9558C56.9417 55.7808 56.4079 56.212 55.6071 56.0808C54.8679 55.9683 54.6626 55.4995 54.6626 54.8995C54.6626 53.3995 54.6626 51.8995 54.6626 50.3995C54.6626 48.1683 53.5128 47.137 51.0694 47.137C46.429 47.137 41.7886 47.137 37.1276 47.137C34.6842 47.137 33.5549 48.1683 33.5549 50.4183C33.5549 54.637 33.5549 58.8558 33.5549 63.0745C33.5549 65.3058 34.6842 66.337 37.1482 66.337C39.5094 66.337 41.8707 66.337 44.232 66.337C45.6898 66.337 45.9773 66.5995 45.9978 67.9308C45.9978 68.137 45.9978 68.3433 45.9978 68.6433C46.2031 68.5495 46.3674 68.512 46.4906 68.4183C46.9423 68.1183 47.4145 67.8183 47.8252 67.462C48.8518 66.562 50.0017 66.2058 51.439 66.2808C53.369 66.3745 54.601 65.1933 54.6626 63.4308C54.6831 62.8495 54.6421 62.2495 54.6831 61.6683C54.7242 61.012 55.1349 60.6745 55.8124 60.6745C56.49 60.6745 56.9623 61.012 56.9417 61.6495C56.9417 62.6995 56.9828 63.787 56.7364 64.7808C56.2026 66.937 54.1082 68.4183 51.6854 68.3808C50.6177 68.362 49.7758 68.6433 48.9956 69.262C47.8047 70.1808 46.5522 71.0245 45.3407 71.9058C44.9917 71.9995 44.6837 71.9995 44.3757 71.9995Z" fill="black"/>
<path d="M53.1021 31.2938C52.6298 31.425 52.1576 31.6313 51.6853 31.65C49.8169 31.6875 47.9484 31.6688 46.0594 31.6688C45.0122 31.6688 44.6221 31.3313 44.6221 30.3563C44.6221 26.2875 44.6221 22.2 44.6221 18.1313C44.6221 17.1563 44.9917 16.8375 46.0594 16.8188C47.8457 16.8 49.6526 16.8 51.4389 16.8188C51.9523 16.8188 52.445 16.9688 53.1637 17.1C54.293 15.8813 55.6482 14.5875 56.7364 13.1438C57.3113 12.375 57.455 11.325 57.763 10.3875C57.8862 9.99377 57.8246 9.52502 57.9889 9.15002C58.3174 8.30627 59.0361 7.81877 60.0216 7.74377C61.0072 7.66877 61.7874 8.04377 62.2597 8.83127C63.5943 11.025 63.7997 13.3125 62.8962 15.675C62.7935 15.9188 62.6909 16.1625 62.6088 16.4063C62.5882 16.4438 62.6088 16.5 62.6293 16.5938C64.3951 16.5938 66.1609 16.5938 67.9267 16.5938C69.98 16.5938 71.1914 17.6813 71.1914 19.5563C71.1914 22.7813 71.1914 26.025 71.1914 29.25C71.1914 30.8813 70.0621 32.1 68.2963 32.1188C64.3951 32.175 60.4939 32.175 56.5927 32.0625C55.4223 32.0438 54.2519 31.5563 53.1021 31.2938ZM60.268 9.86252C60.1859 10.1063 60.1448 10.2 60.1448 10.275C60.0422 12.4688 59.0361 14.2688 57.4345 15.8625C56.1204 17.175 54.8268 18.525 53.5538 19.875C53.3485 20.1 53.1637 20.4375 53.1637 20.7375C53.1432 23.175 53.1432 25.6125 53.1637 28.05C53.1637 28.3125 53.3485 28.6313 53.5538 28.8C54.642 29.6625 55.9561 30.0375 57.3729 30.0563C60.8635 30.0563 64.354 30.0563 67.8446 30.0563C68.707 30.0563 68.8712 29.8875 68.8712 29.1C68.8712 25.9875 68.8712 22.875 68.8712 19.7438C68.8712 18.825 68.748 18.7125 67.7625 18.7125C65.5039 18.7125 63.2453 18.7125 60.9867 18.6938C59.8368 18.675 59.3646 18.0188 59.7752 17.0438C60.1038 16.3125 60.4734 15.5813 60.7608 14.8313C61.3973 13.1813 61.2331 11.5688 60.268 9.86252ZM47.0039 18.9563C47.0039 22.5 47.0039 26.0063 47.0039 29.5125C48.2974 29.5125 49.5294 29.5125 50.8024 29.5125C50.8024 25.9688 50.8024 22.4813 50.8024 18.9563C49.5294 18.9563 48.318 18.9563 47.0039 18.9563Z" fill="black"/>
<path d="M20.1267 34.0501C18.7304 34.0501 17.4779 34.0501 16.2255 34.0501C15.2399 34.0501 14.7266 33.6751 14.7266 33.0001C14.7266 32.3251 15.2604 31.9501 16.2255 31.9501C17.6422 31.9501 19.0384 31.9501 20.4963 31.9501C20.7016 30.8064 20.9069 29.7376 21.1122 28.6501C21.1328 28.5189 21.1533 28.3689 21.1944 28.2376C21.3792 27.5064 21.8309 27.1689 22.529 27.2439C23.2066 27.3189 23.5762 27.7876 23.4735 28.5376C23.3708 29.3251 23.2066 30.1126 23.0629 30.9001C23.0013 31.2189 22.9602 31.5376 22.8986 31.9501C23.7404 31.9501 24.5412 31.9876 25.3215 31.9314C25.4857 31.9126 25.7116 31.6126 25.7526 31.4251C25.9785 30.3751 26.1428 29.3064 26.3686 28.2376C26.5124 27.4876 27.0462 27.1314 27.7649 27.2626C28.4219 27.3751 28.7504 27.9001 28.6272 28.6126C28.4424 29.7001 28.2371 30.7689 28.0318 31.9501C29.1816 31.9501 30.2493 31.9501 31.317 31.9501C31.8919 31.9501 32.4053 32.1564 32.4874 32.6814C32.549 33.0376 32.3642 33.4876 32.1178 33.8064C31.9741 33.9939 31.5223 34.0501 31.2144 34.0501C30.0645 34.0689 28.9147 34.0689 27.6622 34.0689C27.4979 34.9126 27.3542 35.7189 27.1694 36.6564C27.5595 36.6564 27.888 36.6564 28.196 36.6564C29.12 36.6564 30.044 36.6564 30.968 36.6564C32.0562 36.6564 32.549 36.9939 32.549 37.6876C32.5695 38.4189 32.0357 38.7564 30.9269 38.7564C29.9208 38.7564 28.9352 38.7564 27.9291 38.7564C26.7998 38.7564 26.7998 38.7564 26.5945 39.7501C26.4097 40.6689 26.266 41.6064 26.0812 42.5251C25.9374 43.2189 25.4036 43.5751 24.726 43.4626C24.069 43.3501 23.7199 42.8064 23.8431 42.1314C24.0279 41.1001 24.2127 40.0501 24.3975 39.0189C24.3975 38.9814 24.377 38.9251 24.3564 38.8314C23.494 38.8314 22.6111 38.8314 21.6666 38.8314C21.4408 40.0126 21.2354 41.1751 21.0096 42.3564C20.8453 43.2001 20.332 43.6126 19.5928 43.4814C18.9152 43.3689 18.5867 42.8064 18.7304 42.0001C18.9152 40.9689 19.1206 39.9376 19.3259 38.7939C18.4225 38.7939 17.5806 38.7939 16.7593 38.7939C16.4308 38.7939 16.0817 38.8126 15.7532 38.7564C15.0962 38.6626 14.7676 38.2689 14.7882 37.6689C14.8292 37.1064 15.1783 36.7314 15.8148 36.7126C16.862 36.6751 17.9091 36.6564 18.9768 36.6939C19.5518 36.7126 19.7982 36.5626 19.8392 36.0189C19.8392 35.3814 20.0035 34.7814 20.1267 34.0501ZM22.0157 36.6189C23.0013 36.6189 23.8636 36.6189 24.7876 36.6189C24.9313 35.7751 25.0956 34.9689 25.2393 34.0689C24.3975 34.0689 23.6172 34.0501 22.8575 34.0876C22.6933 34.0876 22.4469 34.2751 22.4058 34.4251C22.2621 35.1189 22.1594 35.8314 22.0157 36.6189Z" fill="black"/>
<path d="M50.6992 55.7063C50.6787 57.3001 50.1448 58.4251 49.1798 59.4001C47.9068 60.6939 46.2847 61.5564 44.6215 62.3251C44.3341 62.4564 43.8002 62.4751 43.5333 62.3251C42.1165 61.5189 40.6587 60.7689 39.4062 59.7939C37.7431 58.5189 37.086 56.7938 37.5993 54.8063C38.2564 52.2563 41.1926 51.1126 43.6976 52.4063C43.8824 52.5001 44.2109 52.5376 44.3546 52.4438C46.6953 50.9251 50.7814 52.4063 50.6992 55.7063ZM39.6937 55.9313C39.6526 55.9688 39.6115 56.0063 39.5705 56.0251C39.9401 56.6813 40.1454 57.4689 40.6998 57.9376C41.6238 58.7439 42.7736 59.3814 43.8208 60.0564C43.944 60.1314 44.1904 60.1501 44.293 60.0751C45.4428 59.3064 46.6543 58.5939 47.6809 57.6939C48.4612 57.0189 48.6049 56.0438 48.2353 55.0688C47.9889 54.4501 47.4756 54.0751 46.7569 53.9813C46.0794 53.8876 45.566 54.0938 45.1759 54.6188C44.4778 55.5751 43.7181 55.5563 42.9584 54.6188C42.1371 53.5876 40.5355 53.7376 39.9811 54.9001C39.8169 55.2376 39.7758 55.5938 39.6937 55.9313Z" fill="black"/>
</g>
<defs>
<clipPath id="clip0_95_4370">
<rect width="86" height="72" fill="white"/>
</clipPath>
</defs>
</svg>
