<svg width="86" height="72" viewBox="0 0 86 72" fill="none" xmlns="http://www.w3.org/2000/svg">
<path d="M37.6926 27.0378C37.802 27.0195 37.9114 27.0013 38.0207 27.0195C41.1926 27.2023 44.6379 24.6615 44.5286 20.2927C44.4739 18.1905 44.5103 16.0884 44.5286 13.9862C44.5286 13.7486 44.5468 13.5109 44.565 13.255C50.4895 13.255 56.3046 13.2367 62.1379 13.2733C63.6692 13.2916 64.7812 14.5529 64.7994 16.1066C64.8176 19.397 64.8176 22.6873 64.7994 25.9776C64.7994 27.6045 63.6874 28.7561 62.065 28.9206C61.2265 28.9937 60.9348 29.3045 60.9166 30.1271C60.8983 30.8217 60.9166 31.5163 60.9166 32.3755C60.6249 32.1195 60.4608 31.9733 60.315 31.8088C59.5312 31.0228 58.7655 30.1819 57.927 29.4507C57.5989 29.1583 57.1067 28.9389 56.6692 28.9389C54.8463 28.8841 53.0233 28.9206 51.2004 28.9206C50.4166 28.9206 49.9244 29.3228 49.9244 29.9443C49.9244 30.5658 50.3983 30.9679 51.2004 30.9679C52.7317 30.9679 54.2629 31.0045 55.776 30.9496C56.3228 30.9314 56.7056 31.0959 57.0884 31.4798C58.4009 32.8324 59.7499 34.1669 61.0989 35.5013C61.4452 35.8486 61.9009 36.0862 62.3202 35.7937C62.6301 35.5744 62.7942 35.1357 62.94 34.7518C63.0312 34.5324 62.9582 34.2583 62.9582 34.0023C62.9582 32.9604 62.9582 31.9002 62.9582 30.8765C65.5286 30.0905 66.9869 28.1346 66.8775 25.1916C66.7681 22.2669 66.8593 19.3421 66.8593 16.4174C66.8593 15.9787 66.8593 15.54 66.7681 15.1195C66.2577 12.6701 64.3072 11.1346 61.6822 11.1346C56.2681 11.1163 50.8358 11.1346 45.4218 11.1346C45.1301 11.1346 44.8567 11.1163 44.5286 11.098C44.5286 10.4217 44.5468 9.83675 44.5286 9.23352C44.4192 5.7604 41.8306 3.01847 38.44 3.00019C30.8567 2.94535 23.2734 2.96363 15.69 3.00019C12.3359 3.05503 9.61971 5.7604 9.58325 9.10556C9.51033 13.054 9.52856 17.0206 9.58325 20.969C9.61971 23.7109 11.4791 25.9959 14.0859 26.7636C14.3046 26.8185 14.5051 26.8916 14.7421 26.9647C14.7421 28.1894 14.7603 29.3776 14.7421 30.5475C14.7421 31.1142 14.7968 31.626 15.3801 31.8636C15.9452 32.1013 16.3645 31.8088 16.7655 31.4066C18.0963 30.054 19.427 28.7195 20.776 27.3851C20.9765 27.1841 21.3046 27.0013 21.578 27.0013C26.026 26.983 30.4556 26.983 34.9036 26.983C35.2864 26.983 35.4504 27.0927 35.5598 27.4765C36.3072 29.6884 38.0754 30.9496 40.427 30.9679C42.2681 30.9862 44.1093 30.9679 45.9687 30.9679C46.8437 30.9679 47.2994 30.6023 47.2994 29.9443C47.2994 29.2862 46.8437 28.9206 45.9869 28.9206C44.0911 28.9206 42.2135 28.9389 40.3176 28.9206C39.0051 28.9023 37.9661 28.1346 37.6926 27.0378Z" fill="#7231E5"/>
<path d="M66.549 38.828C66.549 38.2247 66.4943 37.6763 66.5672 37.128C66.6766 36.1774 67.5334 35.4097 68.5542 35.3731C70.1948 35.3366 71.8354 35.3366 73.4761 35.3731C74.6063 35.3914 75.4813 36.214 75.536 37.3473C75.5906 39.029 75.5724 40.729 75.536 42.4108C75.536 42.5753 75.2807 42.8129 75.0985 42.8495C72.8563 43.343 71.5073 42.4656 70.9969 40.1989C70.9058 39.8151 70.8511 39.4312 70.8146 39.0473C70.687 37.7495 69.9761 37.4204 68.8823 38.1699C68.2078 38.6817 67.4787 38.9194 66.549 38.828Z" fill="#7231E5"/>
<path d="M21.4686 38.8099C20.5207 38.9379 19.7551 38.682 19.0806 38.1884C18.6796 37.8777 18.2056 37.6035 17.7863 37.9325C17.4765 38.1701 17.3124 38.6454 17.1848 39.0658C16.9843 39.7605 16.9296 40.5099 16.6926 41.1863C15.9634 43.1422 14.177 43.197 12.7186 42.868C12.591 42.8497 12.4634 42.5755 12.4634 42.411C12.4452 40.7658 12.427 39.1207 12.4634 37.4755C12.4999 36.2325 13.3931 35.4099 14.6327 35.3916C16.164 35.3734 17.677 35.3734 19.2082 35.3916C20.6119 35.4099 21.4322 36.2508 21.4686 37.6583C21.4686 38.0239 21.4686 38.3895 21.4686 38.8099Z" fill="#7231E5"/>
<path d="M48.3027 35.3732C48.3027 36.3603 48.3027 37.2378 48.3027 38.17C45.3313 38.17 42.3782 38.17 39.4251 38.17C39.0423 36.7808 39.8261 35.4646 41.1933 35.4098C43.2897 35.3184 45.386 35.3732 47.4824 35.3732C47.7376 35.3732 47.9746 35.3732 48.3027 35.3732Z" fill="#7231E5"/>
<path d="M8 49.5636C8.45573 48.1378 9.14844 46.8948 10.6068 46.1454C9.4401 44.5185 9.36719 42.7088 9.40365 40.8626C9.4401 39.4733 9.40365 38.0841 9.40365 36.6765C9.4401 34.0443 11.1719 32.326 13.8151 32.3077C15.2917 32.3077 16.7682 32.2894 18.263 32.3077C20.7422 32.326 22.4922 34.0626 22.5104 36.5303C22.5286 38.4862 22.5104 40.4604 22.5104 42.4163C22.5104 43.6776 22.1641 44.8475 21.5807 45.7615C22.3646 46.6755 23.112 47.4981 23.7865 48.3755C25.1172 50.0938 26.4115 51.8303 27.6875 53.5669C27.9427 53.9142 28.2161 54.0604 28.6536 54.0421C29.7839 54.0056 30.9323 54.0239 32.1536 54.0239C32.1536 53.1282 32.2448 52.2873 32.1354 51.4647C31.6979 48.2292 33.5026 46.4378 36.1276 45.1765C36.3099 45.0851 36.4922 44.9938 36.6562 44.9206C35.9271 41.9228 36.2734 38.9249 36.3099 35.9636C36.3281 33.9529 38.1875 32.3443 40.3021 32.3077C42.9271 32.2712 45.5339 32.2894 48.1589 32.3077C48.9609 32.3077 49.362 32.6916 49.362 33.4776C49.3802 36.4937 49.3802 39.5099 49.3438 42.526C49.3255 43.2755 49.125 44.0067 49.0156 44.7561C49.7083 45.14 50.4375 45.4873 51.1302 45.926C52.9167 47.0411 54.0104 48.54 53.8281 50.7701C53.737 51.812 53.8099 52.8722 53.8099 54.0239C55.1589 54.0239 56.4714 54.0421 57.7839 54.0056C57.9479 54.0056 58.1302 53.7497 58.276 53.5669C59.625 51.7938 60.9557 49.9841 62.3229 48.211C62.9609 47.3884 63.6719 46.6389 64.4193 45.7798C63.5078 44.4454 63.4349 42.7636 63.4713 41.0636C63.5078 39.5647 63.4714 38.0475 63.4896 36.5486C63.526 34.0808 65.2578 32.3443 67.737 32.3077C69.2865 32.2894 70.8359 32.2894 72.3854 32.3077C74.6641 32.326 76.4505 33.8798 76.5599 36.1647C76.6693 38.3948 76.6693 40.6432 76.5417 42.8733C76.4688 43.9701 75.9766 45.0486 75.6484 46.2185C75.6849 46.2368 75.8672 46.3647 76.0312 46.511C77.2891 47.4615 77.9818 48.7411 78 50.3314C78.0365 52.5981 78.0182 54.8464 78 57.1131C78 57.9174 77.599 58.3561 76.9609 58.3378C76.3411 58.3196 75.9583 57.8808 75.9583 57.1314C75.9583 54.9196 75.9583 52.7077 75.9583 50.4776C75.9583 49.2895 75.4297 48.412 74.3542 47.9002C74.1354 47.7905 73.7708 47.8088 73.5521 47.9368C71.1276 49.3443 68.7578 49.3077 66.388 47.8454C66.1693 47.7174 65.7865 47.6626 65.5859 47.7722C65.2214 47.9733 64.875 48.2475 64.6198 48.5948C62.9245 50.8067 61.2474 53.0185 59.6068 55.2669C59.151 55.8884 58.6406 56.126 57.875 56.1077C55.7057 56.0712 53.5547 56.0894 51.3854 56.1077C50.5286 56.1077 49.8542 56.6378 49.6172 57.369C49.3802 58.1368 49.599 59.0142 50.2734 59.4529C50.6198 59.6722 51.0755 59.8368 51.4766 59.8368C54.2839 59.8733 57.0729 59.855 59.8802 59.855C60.7005 59.855 61.2292 59.3981 61.6849 58.7948C63.0339 57.0034 64.3646 55.212 65.7135 53.4389C65.75 53.3841 65.7865 53.3292 65.8411 53.2744C66.3333 52.6529 66.9167 52.5067 67.4271 52.9088C67.901 53.2927 67.9375 53.8776 67.5 54.4809C66.5339 55.7787 65.5312 57.0583 64.6016 58.3744C64.3464 58.74 64.1823 59.2335 64.1641 59.6722C64.1276 62.14 64.1458 64.6077 64.1458 67.0755C64.1458 67.3131 64.1458 67.569 64.1458 67.8615C68.1198 67.8615 72.0208 67.8615 75.9948 67.8615C75.9948 66.454 75.9948 65.083 75.9948 63.6938C75.9948 63.1271 75.9766 62.5421 76.013 61.9755C76.0495 61.3905 76.487 60.9701 77.0156 60.9701C77.5443 60.9701 78.0365 61.3722 78.0365 61.9572C78.0547 64.2787 78.0547 66.6185 78.0365 68.94C78.0365 69.5249 77.6536 69.854 77.0885 69.9454C76.9245 69.9636 76.7786 69.9636 76.6146 69.9636C54.2474 69.9636 31.862 69.9636 9.49479 69.9819C8.875 69.9819 8.38281 69.8357 8.03646 69.3056C8.03646 66.7464 8.03646 64.1873 8.03646 61.6282C8.40104 61.2077 8.78385 60.8056 9.42188 61.0615C10.0599 61.3174 10.0964 61.8475 10.0964 62.4142C10.0781 63.4013 10.0964 64.3701 10.0964 65.3572C10.0964 66.1981 10.0964 67.0206 10.0964 67.8615C14.0885 67.8615 17.9896 67.8615 21.9635 67.8615C21.9635 67.5873 21.9635 67.3679 21.9635 67.1486C21.9635 64.6443 21.9818 62.1217 21.9453 59.6174C21.9453 59.2153 21.7812 58.7765 21.5443 58.4475C20.5599 57.0765 19.5208 55.7421 18.5182 54.3895C18.2083 53.9873 18.1354 53.4937 18.5 53.1464C18.7552 52.9088 19.2109 52.7626 19.5755 52.7808C19.8307 52.7991 20.1042 53.1099 20.2865 53.3475C21.7083 55.212 23.1302 57.0948 24.5339 58.9776C24.9896 59.5991 25.5547 59.8916 26.3385 59.8916C29.0547 59.8733 31.7526 59.8916 34.4687 59.8733C34.7604 59.8733 35.0703 59.855 35.3437 59.7454C36.2005 59.4346 36.6745 58.612 36.5286 57.6798C36.401 56.7841 35.6901 56.1443 34.724 56.126C32.5182 56.1077 30.3125 56.0895 28.0885 56.126C27.4141 56.126 26.9401 55.9067 26.5391 55.3583C24.8802 53.1282 23.2031 50.8981 21.526 48.6862C21.3437 48.4486 21.1615 48.211 20.9245 48.0282C20.487 47.6808 20.0859 47.5895 19.5208 47.9368C17.2786 49.326 14.9635 49.3443 12.6667 48.0099C12.2109 47.7357 11.8828 47.7722 11.4818 48.0282C10.5885 48.5948 10.1146 49.4174 10.1146 50.4776C10.1146 52.6529 10.0964 54.8099 10.1146 56.9851C10.1146 57.5701 10.0234 58.1185 9.40365 58.3196C8.78385 58.5206 8.36458 58.1916 8.05469 57.6615C8 54.9561 8 52.269 8 49.5636ZM23.987 67.8981C36.7109 67.8981 49.3438 67.8981 61.9766 67.8981C61.9766 65.9056 61.9766 63.9497 61.9766 61.9938C49.2891 61.9938 36.6562 61.9938 23.987 61.9938C23.987 63.9679 23.987 65.9056 23.987 67.8981ZM37.7135 46.5841C36.7474 47.2604 35.763 47.9002 34.8516 48.6131C34.5781 48.8325 34.3047 49.2529 34.2865 49.5819C34.2318 51.0443 34.2682 52.5249 34.2682 54.0421C35.8177 54.0056 37.0573 54.554 37.8958 55.797C38.7526 57.0583 38.7161 58.4292 38.151 59.8368C41.4323 59.8368 44.6042 59.8368 47.849 59.8368C47.2839 58.4292 47.2474 57.0765 48.0859 55.8153C48.9427 54.5357 50.2005 54.0056 51.75 54.0239C51.75 52.6895 51.8047 51.4099 51.7135 50.1303C51.6771 49.5819 51.4583 48.9056 51.0755 48.5583C50.2734 47.8636 49.3255 47.3701 48.4141 46.8034C48.0312 46.5658 47.7578 46.6572 47.4297 46.9862C45.8984 48.5034 44.0573 49.1615 41.888 48.869C40.2839 48.7045 38.9714 47.9002 37.7135 46.5841ZM38.3333 39.3088C38.3333 40.4421 38.2969 41.5206 38.3333 42.5808C38.4062 44.811 40.0104 46.5475 42.2708 46.8948C44.3125 47.2056 46.4271 45.8895 47.0833 43.8604C47.5573 42.3798 47.2839 40.8443 47.3385 39.3088C44.2943 39.3088 41.3594 39.3088 38.3333 39.3088ZM65.5495 37.8282C66.4609 37.9196 67.2083 37.6819 67.8828 37.2067C68.9766 36.4572 69.6875 36.7862 69.8151 38.0841C69.8516 38.4679 69.9062 38.8518 69.9974 39.2357C70.5078 41.5024 71.8568 42.3798 74.099 41.8862C74.2812 41.8497 74.5182 41.5938 74.5365 41.4475C74.5729 39.7658 74.5911 38.0658 74.5365 36.3841C74.5 35.2325 73.625 34.4282 72.4766 34.4099C70.8359 34.3733 69.1953 34.3733 67.5547 34.4099C66.5339 34.4282 65.6771 35.1959 65.5677 36.1647C65.513 36.6765 65.5495 37.2249 65.5495 37.8282ZM20.4688 37.8099C20.4688 37.3712 20.4688 37.0056 20.4688 36.64C20.4505 35.2325 19.612 34.3733 18.2083 34.3733C16.6771 34.355 15.1641 34.355 13.6328 34.3733C12.3932 34.3916 11.5 35.2142 11.4635 36.4572C11.4271 38.1024 11.4453 39.7475 11.4635 41.3927C11.4635 41.5572 11.6094 41.8314 11.7187 41.8497C13.1771 42.1787 14.9453 42.1239 15.6927 40.1679C15.9479 39.4916 15.9844 38.7421 16.1849 38.0475C16.3125 37.6454 16.4766 37.1701 16.7865 36.9142C17.2057 36.5851 17.6797 36.8593 18.0807 37.1701C18.7734 37.7002 19.5208 37.9378 20.4688 37.8099ZM18.0443 39.6013C17.2786 42.8733 15.237 44.4088 11.7917 44.0067C11.901 44.2443 11.9557 44.4271 12.0286 44.5733C12.8672 46.1271 14.6719 47.1142 16.349 46.9314C18.2812 46.712 19.9036 45.469 20.2865 43.6411C20.5417 42.4529 20.4688 41.2099 20.5599 40.0217C19.6484 39.8755 18.8828 39.7475 18.0443 39.6013ZM74.1719 43.9884C70.7266 44.3905 68.7031 42.8368 67.9375 39.583C67.099 39.7292 66.3333 39.8572 65.5495 39.9851C65.5495 40.9722 65.4948 41.9593 65.5677 42.9282C65.7135 44.9755 67.4635 46.6389 69.6328 46.8948C71.5286 47.1325 73.5521 45.8712 74.1719 43.9884ZM47.3021 34.3733C46.974 34.3733 46.737 34.3733 46.4818 34.3733C44.3854 34.3733 42.2891 34.3185 40.1927 34.4099C38.8073 34.4647 38.0417 35.7991 38.4245 37.1701C41.3776 37.1701 44.3125 37.1701 47.3021 37.1701C47.3021 36.2561 47.3021 35.3787 47.3021 34.3733Z" fill="black"/>
<path d="M36.6926 26.0378C36.9661 27.1528 38.0233 27.9023 39.3176 27.9206C41.2135 27.9388 43.0911 27.9206 44.9869 27.9206C45.8437 27.9206 46.2994 28.2862 46.2994 28.9442C46.2994 29.6023 45.8437 29.9679 44.9687 29.9679C43.1275 29.9679 41.2864 29.9862 39.427 29.9679C37.0754 29.9496 35.3072 28.6883 34.5598 26.4765C34.4322 26.0926 34.2681 25.9829 33.9036 25.9829C29.4556 26.0012 25.026 25.9829 20.578 26.0012C20.3046 26.0012 19.9765 26.184 19.776 26.3851C18.427 27.7012 17.0963 29.0539 15.7655 30.4066C15.3645 30.8087 14.9452 31.1012 14.3801 30.8636C13.7968 30.6259 13.7421 30.1141 13.7421 29.5474C13.7603 28.3593 13.7421 27.1711 13.7421 25.9647C13.5051 25.8915 13.2864 25.8184 13.0859 25.7636C10.4609 24.9958 8.61971 22.6926 8.58325 19.969C8.52856 16.0206 8.51033 12.0539 8.58325 8.10551C8.61971 4.76035 11.3359 2.05498 14.6718 2.0367C22.2551 2.00014 29.8385 2.00014 37.4218 2.0367C40.8124 2.05498 43.401 4.79691 43.5103 8.27003C43.5286 8.85498 43.5103 9.4582 43.5103 10.1345C43.8385 10.1528 44.1119 10.1711 44.4036 10.1711C49.8176 10.1711 55.2499 10.1711 60.664 10.1711C63.289 10.1711 65.2395 11.7066 65.7499 14.1561C65.841 14.5765 65.841 15.0152 65.841 15.4539C65.841 18.3786 65.7681 21.3034 65.8593 24.2281C65.9687 27.1711 64.5103 29.127 61.94 29.913C61.94 30.9367 61.94 31.9786 61.94 33.0388C61.94 33.2948 62.0129 33.569 61.9218 33.7883C61.7759 34.1539 61.5937 34.6109 61.302 34.8302C60.8827 35.1227 60.427 34.9034 60.0806 34.5378C58.7499 33.2034 57.401 31.869 56.0702 30.5163C55.6874 30.1324 55.3046 29.9679 54.7577 29.9862C53.2265 30.0227 51.7135 30.0044 50.1822 30.0044C49.3983 30.0044 48.9062 29.6023 48.9062 28.9808C48.9062 28.3593 49.3801 27.9571 50.1822 27.9571C52.0051 27.9571 53.828 27.9206 55.6509 27.9754C56.0702 27.9937 56.5806 28.213 56.9088 28.4872C57.7473 29.2184 58.4947 30.0593 59.2968 30.8453C59.4426 30.9915 59.6249 31.1378 59.8983 31.412C59.8983 30.5528 59.8801 29.8582 59.8983 29.1636C59.9166 28.341 60.2082 28.0302 61.0468 27.9571C62.6692 27.8109 63.7812 26.6593 63.7812 25.0141C63.7994 21.7238 63.7994 18.4335 63.7812 15.1431C63.7629 13.5894 62.6509 12.3098 61.1197 12.3098C55.2864 12.2733 49.453 12.2915 43.5468 12.2915C43.5286 12.5475 43.5103 12.7851 43.5103 13.0227C43.5103 15.1249 43.4739 17.227 43.5103 19.3292C43.6197 23.698 40.1744 26.2388 37.0025 26.0561C36.9114 26.0012 36.802 26.0195 36.6926 26.0378ZM15.802 27.2625C15.8567 27.2808 15.9114 27.3173 15.9661 27.3356C16.8228 26.4582 17.7161 25.5991 18.5546 24.7034C19.0832 24.1184 19.6666 23.9356 20.414 23.9356C25.9921 23.9539 31.5702 23.9539 37.1666 23.9539C39.6457 23.9539 41.4504 22.1808 41.4687 19.6948C41.5051 15.9292 41.4869 12.1636 41.4687 8.37971C41.4504 5.89369 39.664 4.08401 37.1848 4.08401C29.7655 4.06573 22.328 4.06573 14.9088 4.08401C12.4296 4.08401 10.6431 5.91197 10.6249 8.37971C10.6067 12.127 10.6067 15.8743 10.6249 19.6216C10.6249 22.0345 12.2473 23.7528 14.6536 23.9539C15.4556 24.0087 15.802 24.3561 15.802 25.1786C15.802 25.855 15.802 26.5679 15.802 27.2625Z" fill="black"/>
<path d="M25.9924 15.0334C22.9117 15.0334 19.8492 15.0334 16.7684 15.0334C16.2033 15.0334 15.7841 14.8689 15.5836 14.3205C15.4013 13.8087 15.6929 13.242 16.2398 13.0592C16.4768 12.9861 16.732 12.9861 16.9872 12.9861C23.021 12.9861 29.0549 12.9861 35.107 12.9861C35.1981 12.9861 35.2893 12.9861 35.3804 12.9861C36.1096 13.0226 36.5835 13.4248 36.5835 14.028C36.5835 14.6312 36.1096 15.0517 35.3804 15.0517C32.2268 15.0334 29.1096 15.0334 25.9924 15.0334Z" fill="white"/>
<path d="M26.0653 7.59375C29.1096 7.59375 32.1721 7.59375 35.2163 7.59375C36.0731 7.59375 36.5653 7.97762 36.5471 8.61741C36.5471 9.25719 36.0549 9.64106 35.1981 9.64106C29.0731 9.64106 22.9481 9.64106 16.8231 9.64106C15.9846 9.64106 15.5106 9.22063 15.5288 8.56257C15.5471 7.97762 16.0028 7.59375 16.6955 7.59375C19.2476 7.59375 21.7997 7.59375 24.3517 7.59375C24.9168 7.59375 25.5002 7.59375 26.0653 7.59375Z" fill="white"/>
<path d="M21.2889 20.4626C19.7576 20.4626 18.2446 20.4809 16.7133 20.4626C15.8383 20.4443 15.255 19.768 15.6014 19.1282C15.7654 18.8174 16.2394 18.4518 16.5675 18.4518C19.7029 18.397 22.8383 18.4153 25.9738 18.4336C26.6482 18.4336 27.031 18.8357 27.031 19.4389C27.031 20.0422 26.63 20.4626 25.9191 20.4809C24.3878 20.4809 22.8383 20.4626 21.2889 20.4626Z" fill="white"/>
</svg>
