<svg width="78" height="78" viewBox="0 0 78 78" fill="none" xmlns="http://www.w3.org/2000/svg">
<path d="M74.9737 33.7929C35.2612 33.9212 36.6849 33.474 35.426 34.1581C34.9481 34.4173 34.5491 34.8008 34.2711 35.2681C33.993 35.7353 33.8463 36.2689 33.8464 36.8127V38.4283L30.7198 36.527V35.7226C34.8485 33.5622 37.5575 29.4055 37.5575 24.4087V24.3913C38.1506 24.2649 38.7103 24.0398 39.2141 23.721C39.2541 23.7004 39.2933 23.6774 39.3314 23.6517C40.5454 22.8342 41.1639 21.6208 41.193 20.4278C41.1805 20.3807 41.3481 18.8513 39.9613 17.5112C40.8675 13.2477 40.5626 9.86548 39.048 7.45403C37.5909 5.13384 35.4264 4.3613 34.2656 4.1075C34.1167 4.0749 33.9869 3.99735 33.9002 3.88919C30.6805 -0.122631 23.5332 -1.18294 17.2741 1.42335C16.9976 1.54196 16.779 1.76489 16.6658 2.04372C16.5526 2.32256 16.554 2.63478 16.6697 2.9126C16.7853 3.19041 17.0059 3.41138 17.2835 3.52751C17.5611 3.64364 17.8734 3.64556 18.1524 3.53286C23.4194 1.33972 29.554 2.12429 32.1176 5.3197C32.5301 5.83386 33.1194 6.19613 33.7769 6.3401C34.5875 6.51758 36.099 7.05611 37.1128 8.66974C38.2252 10.441 38.4761 13.0175 37.8655 16.3381C37.4469 16.222 36.5446 16.077 36.1252 16.1736C35.7103 16.2237 33.9107 16.3386 32.672 14.7676C31.9407 13.8404 30.626 13.6517 29.679 14.3381C27.1379 16.1797 19.9144 19.0536 13.6708 16.3101C13.4596 16.1813 13.2667 16.1463 13.0618 16.1434C13.0422 16.1437 13.0582 16.1408 12.9657 16.1455C12.4696 16.1514 11.9768 16.2258 11.5011 16.3666C10.6402 12.6354 11.2355 8.84965 14.0079 6.19278L14.0083 6.19232C14.1166 6.0885 14.2034 5.96437 14.2637 5.82702C14.324 5.68966 14.3567 5.54177 14.3599 5.39178C14.363 5.2418 14.3366 5.09267 14.2821 4.9529C14.2276 4.81312 14.1461 4.68545 14.0423 4.57717C13.8326 4.35844 13.5445 4.23199 13.2416 4.22561C12.9386 4.21924 12.6455 4.33348 12.4267 4.5432C8.84877 7.97353 8.12666 12.9069 9.44672 17.5643C7.08585 19.9255 8.43759 23.6811 11.9444 24.4C11.9979 25.6242 12.0914 26.713 12.2485 27.3768C12.7232 29.3807 13.6471 31.1927 14.9957 32.7637C16.0635 34.0051 17.3098 35.0106 18.6821 35.7533V36.5171L13.4604 39.5976C13.445 39.6019 8.73162 40.9067 9.03326 40.8242C6.41294 41.5306 4.61864 43.3941 4.11072 45.9371C4.10796 45.9512 4.10543 45.9652 4.10311 45.9793L0.0848889 70.9561C-0.509709 74.6527 2.34765 78 6.08601 78H43.4579C44.8647 78 46.2092 77.5049 47.2717 76.6184C47.8521 77.452 48.816 78 49.9066 78H61.9331C63.703 78 65.143 76.5601 65.143 74.7901C65.143 73.02 63.703 71.5801 61.9331 71.5801H61.4884V69.8345H66.0709C66.2209 69.8345 66.3695 69.805 66.5081 69.7476C66.6467 69.6902 66.7727 69.6061 66.8788 69.5C66.9849 69.3939 67.069 69.2679 67.1264 69.1293C67.1838 68.9907 67.2134 68.8421 67.2133 68.6921C67.2134 68.5421 67.1838 68.3935 67.1264 68.2549C67.069 68.1163 66.9849 67.9903 66.8788 67.8842C66.7727 67.7782 66.6467 67.694 66.5081 67.6366C66.3695 67.5792 66.2209 67.5497 66.0709 67.5497H61.4884V52.5453C62.507 51.9663 62.0932 50.4098 60.925 50.4098H51.0542C49.8046 50.4098 49.4667 52.141 50.6254 52.6107V67.5497C35.4364 67.5497 36.6282 67.6164 36.3461 67.3341C36.0345 67.0226 36.1309 68.8626 36.1309 36.8127C36.1309 36.7161 36.1499 36.6206 36.1868 36.5314C36.2238 36.4423 36.2779 36.3612 36.3462 36.293C36.4144 36.2248 36.4954 36.1707 36.5846 36.1337C36.6738 36.0968 36.7693 36.0779 36.8658 36.0779C77.4638 36.1093 75.0155 35.9991 75.3229 36.166C75.4394 36.2291 75.5367 36.3225 75.6045 36.4364C75.6723 36.5502 75.7082 36.6803 75.7082 36.8128V66.8148C75.7083 66.9473 75.6725 67.0775 75.6047 67.1914C75.5369 67.3053 75.4395 67.3987 75.3229 67.4618C75.0388 67.6163 75.1273 67.5209 71.4022 67.5498C71.2521 67.5498 71.1036 67.5793 70.965 67.6367C70.8264 67.6942 70.7004 67.7783 70.5943 67.8844C70.4882 67.9905 70.4041 68.1164 70.3467 68.2551C70.2893 68.3937 70.2597 68.5422 70.2598 68.6923C70.2597 68.8423 70.2893 68.9909 70.3467 69.1295C70.4041 69.2681 70.4882 69.394 70.5943 69.5001C70.7004 69.6062 70.8264 69.6904 70.965 69.7478C71.1036 69.8052 71.2521 69.8347 71.4022 69.8347C74.8011 69.7408 75.863 70.196 77.1085 68.9503C77.3899 68.6706 77.613 68.3378 77.7648 67.9712C77.9167 67.6046 77.9943 67.2116 77.9932 66.8148V36.8127C77.9935 35.1384 76.6349 33.7929 74.9737 33.7929ZM37.5584 18.6434C39.3305 19.3525 39.3824 21.2806 37.5584 22.0105V18.6434ZM11.8856 22.0026C10.0765 21.2643 10.1341 19.3513 11.903 18.6435C11.8823 19.7631 11.8765 20.8829 11.8856 22.0026ZM52.9105 52.6989H59.2037V71.5802H52.9105V52.6989ZM50.6257 69.8347V71.5802C49.9983 71.5906 49.8402 71.5537 49.3986 71.6244C49.3646 71.1439 49.3178 71.0068 49.1364 69.8347H50.6257ZM49.9068 73.8651H61.9333C62.1785 73.8654 62.4136 73.9629 62.587 74.1363C62.7604 74.3098 62.8579 74.5449 62.8581 74.7901C62.8579 75.0353 62.7604 75.2704 62.587 75.4438C62.4136 75.6172 62.1785 75.7148 61.9333 75.715H49.9068C49.6615 75.7148 49.4264 75.6172 49.253 75.4439C49.0796 75.2705 48.982 75.0354 48.9817 74.7901C48.982 74.5449 49.0795 74.3097 49.253 74.1363C49.4264 73.9629 49.6615 73.8653 49.9068 73.8651ZM33.556 40.9259L28.6271 44.8511C30.7755 39.3877 30.7477 39.5999 30.7195 39.2011L33.556 40.9259ZM16.7286 31.2745C13.5894 27.6178 14.2725 24.2545 14.1881 18.9482C19.8815 20.7783 26.9629 19.0616 30.9327 16.251C32.3068 17.9466 34.0732 18.385 35.2736 18.4636C35.274 19.0201 35.2667 21.1016 35.2723 24.4108C35.2725 34.1212 23.1066 38.6892 16.7286 31.2745ZM21.5069 40.2021L20.9673 38.8087V36.7077C23.3856 37.4395 25.9772 37.4199 28.4348 36.6644V39.1006L28.0033 40.197C27.0438 40.8441 25.9131 41.1903 24.7558 41.1913C23.5986 41.1922 22.4673 40.8478 21.5069 40.2021ZM26.8183 43.2083L24.9386 47.9849C24.8765 48.1428 24.7138 48.1359 24.7291 48.1275C24.5755 48.1272 24.5554 48.0722 24.5175 47.9773C24.5111 47.9613 22.6758 43.2218 22.6691 43.2039C24.0281 43.5675 25.4586 43.569 26.8183 43.2083ZM18.6912 39.1647C18.7315 39.4837 18.8509 39.5893 20.8402 44.8086L20.7048 44.6987L20.8242 44.7956L15.9075 40.8071L18.6912 39.1647ZM20.6961 44.6917C20.6617 44.6638 20.6706 44.6712 20.6961 44.6917V44.6917ZM9.04681 40.8217C9.01482 40.8329 8.98329 40.8455 8.95236 40.8595C8.97095 40.851 9.00203 40.8364 9.04681 40.8217ZM19.2028 75.7152V71.7012C21.302 72.0507 22.9823 73.6555 23.4433 75.7152H19.2028ZM30.2384 75.7152H25.9795C26.4419 73.6492 28.1306 72.0411 30.2384 71.698V75.7152ZM30.5925 69.3627C28.1136 69.5228 25.9591 70.89 24.7114 72.882C23.4669 70.8953 21.3204 69.5303 18.8495 69.3642C18.6468 68.9611 18.3638 68.6036 18.0179 68.3138C19.44 67.0913 20.2614 65.2589 20.6105 63.4241H28.8124C29.1608 65.2552 29.9814 67.0943 31.4148 68.3216C31.0732 68.6095 30.7935 68.9637 30.5925 69.3627ZM30.9497 62.2239C30.9348 61.9314 30.8081 61.6557 30.5958 61.4539C30.3835 61.2521 30.1017 61.1396 29.8088 61.1397H19.6141C19.0083 61.1397 18.5078 61.6159 18.4734 62.2205C18.4726 62.2349 18.3838 63.6648 17.6923 65.0389C16.0042 68.3929 12.9392 67.3565 11.7369 67.55L13.9209 52.7892C13.9652 52.4895 13.8887 52.1845 13.7081 51.9412C13.5276 51.6979 13.2578 51.5363 12.9581 51.4919C12.3342 51.3988 11.753 51.8307 11.6607 52.4547L9.42722 67.5498H8.2493C8.09926 67.5498 7.9507 67.5793 7.81208 67.6367C7.67347 67.6942 7.54752 67.7783 7.44143 67.8844C7.33535 67.9905 7.2512 68.1164 7.19379 68.2551C7.13639 68.3937 7.10685 68.5422 7.10687 68.6923C7.10685 68.8423 7.13639 68.9909 7.19379 69.1295C7.2512 69.2681 7.33535 69.394 7.44143 69.5001C7.54752 69.6062 7.67347 69.6904 7.81208 69.7478C7.9507 69.8052 8.09926 69.8347 8.2493 69.8347H15.9134C16.1792 69.835 16.434 69.9405 16.6222 70.1281C16.8105 70.3157 16.9167 70.5703 16.9178 70.836V75.7152H6.08617C3.75378 75.7149 1.96953 73.6267 2.34095 71.3188L6.35566 46.3649C7.06543 42.8799 10.3315 43.0312 13.6484 41.9165L17.5415 45.0747V52.4128C17.5415 52.5628 17.571 52.7114 17.6284 52.85C17.6858 52.9886 17.77 53.1146 17.8761 53.2207C17.9822 53.3268 18.1081 53.4109 18.2467 53.4683C18.3853 53.5257 18.5339 53.5552 18.6839 53.5552C18.834 53.5552 18.9825 53.5257 19.1211 53.4683C19.2598 53.4109 19.3857 53.3268 19.4918 53.2207C19.5979 53.1146 19.682 52.9886 19.7394 52.85C19.7968 52.7114 19.8264 52.5628 19.8264 52.4128V46.9284L22.5393 49.1292C23.4892 50.838 25.9626 50.8405 26.9166 49.1345L29.6326 46.9715V52.4128C29.6325 52.5628 29.6621 52.7114 29.7195 52.85C29.7769 52.9886 29.861 53.1146 29.9671 53.2207C30.0732 53.3268 30.1992 53.4109 30.3378 53.4683C30.4764 53.5257 30.625 53.5552 30.775 53.5552C30.925 53.5552 31.0736 53.5257 31.2122 53.4683C31.3508 53.4109 31.4768 53.3268 31.5829 53.2207C31.6889 53.1146 31.7731 52.9886 31.8305 52.85C31.8879 52.7114 31.9174 52.5628 31.9174 52.4128V45.1519L33.8462 43.6159C33.8572 68.3749 33.8228 66.789 33.8717 67.1877C32.9649 66.7959 32.2567 66.0838 31.7306 65.0384C31.0392 63.6646 30.9503 62.2347 30.9497 62.2239ZM46.8221 69.8347L47.0835 71.4597C47.4429 73.6926 45.7166 75.7153 43.4581 75.7153H32.5238V70.8362C32.5248 70.5704 32.6311 70.3159 32.8193 70.1283C33.0075 69.9406 33.2624 69.8351 33.5281 69.8348L46.8221 69.8347Z" fill="black"/>
</svg>
