<svg version="1.1" id="Слой_1" xmlns="http://www.w3.org/2000/svg" xmlns:xlink="http://www.w3.org/1999/xlink" x="0px" y="0px"
	 viewBox="0 0 178.3 43" style="enable-background:new 0 0 178.3 43;" xml:space="preserve">
<style type="text/css">
	.st0{fill:#323E48;}
	.st1{fill:url(#SVGID_1_);}
</style>
<g>
	<g>
		<path class="st0" d="M43,7.4h7.9c4,0,6.7,3.3,6.7,6.5c0,3.3-2.7,6.6-6.7,6.6H46v5.3h-3V7.4z M50.6,17.7c2.6,0,4-2,4-3.8
			c0-1.9-1.4-3.8-4-3.8H46v7.6H50.6z"/>
		<path class="st0" d="M58.5,19.1c0-3.9,2.7-7,6.9-7c4.3,0,6.4,3.6,6.4,7.2V20H61.5c0.4,2.3,2.4,3.6,5.1,3.6c1.7,0,3.1-0.5,4.3-1.2
			v2.5c-1.1,0.8-2.9,1.3-4.9,1.3C61.8,26.2,58.5,23.4,58.5,19.1z M68.8,17.7c0-1.4-1.1-3.2-3.5-3.2c-2.3,0-3.6,1.6-3.7,3.2H68.8z"/>
		<path class="st0" d="M74.4,12.4h3v5.2h6.8v-5.2h3v13.4h-3v-5.6h-6.8v5.6h-3V12.4z"/>
		<path class="st0" d="M89.7,19.1c0-3.9,2.7-7,6.9-7c4.3,0,6.4,3.6,6.4,7.2V20H92.7c0.4,2.3,2.4,3.6,5.1,3.6c1.7,0,3.1-0.5,4.3-1.2
			v2.5c-1.1,0.8-2.9,1.3-4.9,1.3C93,26.2,89.7,23.4,89.7,19.1z M100,17.7c0-1.4-1.1-3.2-3.5-3.2c-2.3,0-3.6,1.6-3.7,3.2H100z"/>
		<path class="st0" d="M104.7,19.1c0-4.2,3.3-7,7.3-7c1.6,0,2.8,0.3,4,0.9v2.5c-1.2-0.6-2.3-0.9-3.6-0.9c-2.6,0-4.8,1.8-4.8,4.5
			s2.1,4.5,4.8,4.5c1.5,0,2.7-0.3,3.8-1v2.5c-1.3,0.7-2.6,1.1-4.3,1.1C108,26.2,104.7,23.3,104.7,19.1z"/>
		<path class="st0" d="M117.7,19.1c0-4.2,3.3-7,7.3-7c1.6,0,2.8,0.3,4,0.9v2.5c-1.2-0.6-2.3-0.9-3.6-0.9c-2.6,0-4.8,1.8-4.8,4.5
			s2.1,4.5,4.8,4.5c1.5,0,2.7-0.3,3.8-1v2.5c-1.3,0.7-2.6,1.1-4.3,1.1C121.1,26.2,117.7,23.3,117.7,19.1z"/>
		<path class="st0" d="M145.6,23.3v2.2c-0.4,0.3-1.1,0.4-1.7,0.4c-1.3,0-2.4-0.6-2.8-1.9c-1,1.1-2.6,2.1-4.9,2.1c-2.8,0-5-1.6-5-4.5
			c0-3,2.2-3.9,5.1-3.9c2,0,4.6,0,4.6,0v-0.2c0-2.3-1.9-2.9-3.9-2.9c-1.6,0-3.2,0.6-4.2,1.2v-2.6c1-0.5,2.5-1.1,4.9-1.1
			c3.6,0,6.2,1.7,6.2,5.1v5c0,0.8,0.5,1.3,1.1,1.3C145,23.5,145.3,23.5,145.6,23.3z M140.7,20c0,0-2.1,0-3.5,0
			c-1.9,0-3.2,0.4-3.2,1.7c0,1.5,1.3,2,2.9,2c1.6,0,3.1-0.8,3.8-1.6V20z"/>
		<path class="st0" d="M147.7,12.4h3v5.2h6.8v-5.2h3v13.4h-3v-5.6h-6.8v5.6h-3V12.4z"/>
		<path class="st0" d="M163,19.1c0-4.2,3.3-7,7.3-7c1.6,0,2.8,0.3,4,0.9v2.5c-1.2-0.6-2.3-0.9-3.6-0.9c-2.6,0-4.8,1.8-4.8,4.5
			s2.1,4.5,4.8,4.5c1.5,0,2.7-0.3,3.8-1v2.5c-1.3,0.7-2.6,1.1-4.3,1.1C166.3,26.2,163,23.3,163,19.1z"/>
	</g>
	<g>
		<path class="st0" d="M43,33h1.4v2.6l2.4-2.6h1.7l-2.8,3l3.3,3.6h-1.7l-2.8-3v3H43V33z"/>
		<path class="st0" d="M50.8,33h2.9c1.4,0,2.3,0.8,2.3,2s-0.9,2-2.3,2h-1.5v2.6h-1.4V33z M53.6,35.8c0.6,0,1-0.3,1-0.8
			c0-0.5-0.4-0.8-1-0.8h-1.4v1.6H53.6z"/>
		<path class="st0" d="M58,33h4.8v1.2h-3.5v1.3h2.8v1.2h-2.8v1.7H63v1.2H58V33z"/>
		<path class="st0" d="M64.8,38.4h0.6c0.6-0.9,0.9-2.1,0.9-4.3v-1h4.6v5.4h0.9v2.6h-1.3v-1.3H66v1.3h-1.3V38.4z M69.6,38.4v-4.2
			h-1.9c0,1.4-0.1,2.8-0.7,4.2H69.6z"/>
		<path class="st0" d="M73.9,33h1.4v4.3l3.2-4.3h1.2v6.6h-1.3v-4.3L75,39.6h-1.1V33z"/>
		<path class="st0" d="M87.1,33v1.2H85v5.4h-1.4v-5.4h-2.1V33H87.1z"/>
	</g>
	<radialGradient id="SVGID_1_" cx="4.8589" cy="31.7926" r="24.887" gradientUnits="userSpaceOnUse">
		<stop  offset="0" style="stop-color:#D6005E"/>
		<stop  offset="1" style="stop-color:#E3448A"/>
	</radialGradient>
	<path class="st1" d="M8.3,33H4V14.5C4,8.2,9.2,3,15.5,3h14.2v11.4c0,6.4-5.2,11.5-11.5,11.5H11l1.6-4.3h5.5c4,0,7.2-3.2,7.2-7.2
		V7.3h-9.9c-4,0-7.2,3.2-7.2,7.2V33z"/>
</g>
</svg>
