<?xml version="1.0" encoding="utf-8"?>
<svg version="1.0" id="Layer_1" xmlns="http://www.w3.org/2000/svg" x="0px" y="0px"
	 viewBox="0 0 991.4 392.9" enable-background="new 0 0 991.4 392.9" xml:space="preserve">
<g>
	<path fill="#50287D" d="M130,266.4l16.1-18.9h7.4l-18.1,21.1l19.4,22.3h-7.9L130,271.2v19.6h-5.7v-19.6l-16.9,19.6h-7.9l19.4-22.3
		l-18.1-21.1h7.4l16.1,18.9v-18.9h5.7V266.4z M200.6,290.8h-5.7v-34l-23.3,34h-6.2v-43.3h5.7v34.1l23.3-34.1h6.2V290.8z
		 M239.3,278.5c0,8-5.8,13.1-13.5,13.1c-6.5,0-11.5-3.6-12.8-7l1.6-5.2c2.8,4,6.9,6,11.3,6c4.8,0,7.8-2.8,7.8-7.2c0-3.6-2.8-7-8.3-7
		h-3.7v-6.2h3.8c4.2,0,6.5-2.9,6.5-6.2c0-3.3-2.4-5.9-6-5.9c-4.2,0-7.4,2.2-9.8,5.4l-1.2-5.5c1.8-3.3,6-6,10.9-6
		c7,0,11.8,4.9,11.8,11.6c0,3.7-1.6,7.1-4.3,9.1C236.9,269.5,239.3,273.3,239.3,278.5z M252.4,247.5h5.7v18h23.5v-18h5.7v43.3h-5.7
		v-19.2h-23.5v19.2h-5.7V247.5z M302.7,290.8v-43.3h5.7v17h6.5c8,0,13.6,5.4,13.6,13.1c0,8-5.9,13.2-13.6,13.2H302.7z M315.8,284.7
		c4,0,6.9-3.1,6.9-7.1c0-4.2-3-7.1-6.9-7.1h-7.4v14.1H315.8z M272.3,158.8H307v-26.7h15.5v72.1H307v-28.9h-34.7v28.9h-15.5v-72.1
		h15.5V158.8z M635.3,203.9v-7.5c0,0-7.9,9.5-21.8,9.5c-18,0-37-13.2-37-37.8c0-27.6,20-38.1,35.9-38.1c14,0,22.6,9.2,22.6,9.2v-7.3
		h15v72.1H635.3z M591.9,168.1c0,9.4,7.3,21,22.8,21c13.8,0,20-8.6,20-8.6v-25.5c-4.9-5.5-12-8.5-20-8.5
		C601.2,146.6,591.9,155.8,591.9,168.1z M688.3,158.8H723v-26.7h15.5v72.1H723v-28.9h-34.7v28.9h-15.5v-72.1h15.5V158.8z
		 M834.5,204.2h19.9v-19.9h-19.9V204.2z M164.2,133.9c0,16.6-11.6,31.1-32.6,31.1h-12.9v39.1h-16.1V102.1c0,0,6.7,0,28.9,0
		C149.9,102.1,164.2,115.1,164.2,133.9z M118.4,148.3h15.2c4,0,7.4-1.3,10.1-3.8c2.7-2.6,4.1-6,4.1-10.2c0-4-1.3-7.4-3.8-10.1
		c-2.6-2.7-6-4.1-10.1-4.1h-15.5V148.3z M460.1,206.3c-17.5,0-37.3-13.3-37.3-38c0-21.8,16.3-37.8,37.4-37.8
		c14.9,0,24.6,9,26.4,12.2l-4.3,12.8c0,0-9.1-8.5-19.9-8.5c-16.7,0-24,11.7-24,21.2c0,13.3,10.2,21.5,24.2,21.5
		c10.1,0,18.8-6.1,20.8-8.4l4.5,12.8C488,194.1,478.1,206.3,460.1,206.3z M537.5,206.3c-17.5,0-37.3-13.3-37.3-38
		c0-21.8,16.3-37.8,37.4-37.8c14.9,0,24.6,9,26.4,12.2l-4.3,12.8c0,0-9.1-8.5-19.9-8.5c-16.7,0-24,11.7-24,21.2
		c0,13.3,10.2,21.5,24.2,21.5c10.1,0,18.8-6.1,20.8-8.4l4.5,12.8C565.4,194.1,555.4,206.3,537.5,206.3z M791.2,206.3
		c-17.5,0-37.3-13.3-37.3-38c0-21.8,16.3-37.8,37.4-37.8c14.9,0,24.6,9,26.4,12.2l-4.3,12.8c0,0-9.1-8.5-19.9-8.5
		c-16.7,0-24,11.7-24,21.2c0,13.3,10.2,21.5,24.2,21.5c10.1,0,18.8-6.1,20.8-8.4l4.5,12.8C819.1,194.1,809.1,206.3,791.2,206.3z
		 M378.4,190.7c12.8,0,20.3-7,22.3-9.5l4.5,12.1c-1,1.7-11.2,13.2-27.2,13.2c-22.1,0-38-14.5-38-37.8c0-17.7,11.8-38,36.1-38
		c21.2,0,34.4,17.3,34.4,37.4c0,2.1-0.1,4-0.4,5.7h-54.3C356.6,179.3,362.8,190.7,378.4,190.7z M375.5,146.9
		c-13.8,0-18.9,10-19.6,14.1H395C393.4,153.9,386.8,146.9,375.5,146.9z M207.9,190.7c12.8,0,20.3-7,22.3-9.5l4.5,12.1
		c-1,1.7-11.2,13.2-27.2,13.2c-22.1,0-38-14.5-38-37.8c0-17.7,11.8-38,36.1-38c21.2,0,34.4,17.3,34.4,37.4c0,2.1-0.1,4-0.4,5.7
		h-54.3C186.1,179.3,192.3,190.7,207.9,190.7z M205,146.9c-13.8,0-18.9,10-19.6,14.1h39.1C222.9,153.9,216.3,146.9,205,146.9z"/>
	<polygon fill="#CEDC00" points="889.3,175.3 834.5,73.2 944.1,73.2 	"/>
</g>
<g>
</g>
<g>
</g>
<g>
</g>
<g>
</g>
<g>
</g>
<g>
</g>
<g>
</g>
<g>
</g>
<g>
</g>
<g>
</g>
<g>
</g>
<g>
</g>
<g>
</g>
<g>
</g>
<g>
</g>
</svg>
