<svg width="135" height="135" viewBox="0 0 135 135" fill="none" xmlns="http://www.w3.org/2000/svg">
<g clip-path="url(#clip0_1003_29786)">
<path d="M119.67 44.8458L121.062 40.3845L116.457 40.529C116.068 40.529 113.239 40.4486 110.496 38.4569C110.7 38.477 110.905 38.5052 111.113 38.5052C113.937 38.5052 116.669 36.8024 117.764 34.3692L119.746 29.9722C117.263 30.0041 114.992 29.6909 114.992 29.6909C114.972 29.6871 113.183 29.458 111.113 27.3419C109.629 25.8241 107.792 25.0211 105.802 25.0211C104.932 25.0211 104.154 25.1775 103.484 25.3903C103.588 25.033 103.688 24.6716 103.744 24.2982C104.378 20.1823 101.731 17.0422 101.731 17.0461L98.2686 12.7535L96.1228 17.7969C96.1147 17.8131 95.573 18.9935 94.6024 19.5718C94.3095 18.0901 93.5913 16.4236 92.0551 14.8296C89.1588 11.8259 85.6326 11.3802 83.7876 11.3802C82.9332 11.3802 82.3235 11.4724 82.1749 11.4966L77.995 12.3197C78.2358 11.3841 78.7492 9.75784 79.6879 8.29222L81.9945 4.69435L76.1897 5.35686L74.3405 1.42556L70.7623 3.2727L67.453 0L64.1517 3.2727L60.5613 1.42556L58.716 5.35686L52.9155 4.69435L55.2261 8.29222C56.1648 9.75784 56.6782 11.3802 56.9149 12.3158L52.9278 11.5288L52.7912 11.5046C52.5905 11.4724 51.9849 11.3802 51.1264 11.3802C49.2814 11.3802 45.7552 11.8298 42.8668 14.8296C41.3264 16.4197 40.6085 18.0901 40.3117 19.5718C39.3489 19.0016 38.8113 17.8372 38.8113 17.8372L36.6613 12.7655L33.1431 17.0861C32.714 17.6444 30.5921 20.5958 31.1695 24.3062C31.2298 24.6756 31.3262 25.0371 31.4304 25.3945C30.7645 25.1817 29.9862 25.0248 29.1157 25.0248C27.1262 25.0248 25.2888 25.8281 23.8007 27.3458C21.7386 29.4542 19.9576 29.6909 19.9738 29.6909C19.9738 29.6909 18.0923 30.0284 15.18 29.9762L17.1497 34.3732C18.2447 36.8105 20.9806 38.5091 23.8007 38.5091C24.0131 38.5091 24.2177 38.4812 24.4264 38.4609C21.6905 40.4528 18.8626 40.5332 18.5216 40.5369L13.8281 40.3845L15.2482 44.8418C15.9622 47.1386 18.349 50.9454 22.9221 51.355C22.4247 53.4431 21.3216 55.7802 18.8987 56.7879L15.4048 58.2295L17.3102 61.5503C18.3851 63.3412 20.9085 65.4375 24.5027 65.4375C25.2807 65.4335 26.0308 65.3571 26.7531 65.2046C26.9376 66.0237 27.1701 66.8429 27.4429 67.6541C28.514 70.8424 27.5913 73.067 27.5795 73.0912L25.8544 76.709L29.7054 77.7249C29.7535 77.7411 30.9168 78.0584 32.3729 78.0584C33.0349 78.0584 33.6647 77.9901 34.2585 77.8493C34.7077 77.7451 35.1369 77.6046 35.55 77.436C36.0474 78.3314 36.6533 79.1465 37.3594 79.8775C39.8262 82.4111 43.3203 83.6962 47.7489 83.6962H47.7648L50.926 83.6559L44.3954 86.3704L49.3535 88.7677C51.1544 89.6473 53.2927 90.6872 55.4667 91.4822L54.8491 93.1768L56.558 93.956C56.7103 94.0241 59.9956 95.4978 65.4593 95.8111C65.4593 95.8111 66.7789 95.8712 67.5052 95.8712C68.2312 95.8712 69.5349 95.8069 69.5349 95.8069C74.9623 95.4857 78.2236 94.0281 78.3761 93.956L80.089 93.1728L79.4632 91.4742C81.7017 90.6551 83.9159 89.5751 85.6407 88.7315L90.5066 86.3664L83.9961 83.648L87.1693 83.6881C91.6018 83.6881 95.0998 82.4032 97.5627 79.8652C98.2649 79.1386 98.8705 78.3232 99.3719 77.4279C99.7852 77.5966 100.218 77.7372 100.668 77.8414C101.257 77.982 101.887 78.0502 102.549 78.0502C103.981 78.0502 105.156 77.733 105.189 77.7249L109.055 76.701L107.371 73.1513C107.331 73.0588 106.408 70.8383 107.479 67.6461C107.752 66.8308 107.98 66.0116 108.165 65.1965C108.891 65.3491 109.649 65.4293 110.431 65.4293C115.008 65.4293 117.203 62.205 117.628 61.5062L119.513 58.2215L116.019 56.784C113.592 55.776 112.493 53.435 112 51.3508C116.509 50.9655 118.932 47.1587 119.67 44.8458ZM57.22 13.8537L57.1717 13.8658L57.2117 13.8136L57.22 13.8537Z" fill="white"/>
<path d="M67.4592 13.6569C63.7604 13.6608 60.9884 14.8735 60.3828 16.2991L67.4592 19.0939L74.5353 16.2991C73.9337 14.8735 71.1617 13.6608 67.4592 13.6569Z" fill="white"/>
<path d="M67.5339 87.6434H67.526H67.4657H67.3977H67.3936C65.1512 87.6595 62.0663 87.1977 60.578 86.7639L58.7891 91.6106C59.9684 92.0323 63.9638 92.8355 67.4657 92.8355C70.9596 92.8355 74.9591 92.0283 76.1345 91.6106L74.3495 86.7639C72.8571 87.2015 69.7763 87.6595 67.5339 87.6434Z" fill="white"/>
<path d="M81.0723 82.8249C79.7404 83.5799 76.768 84.7123 75.0391 85.2384L76.4912 89.2418C79.1669 88.511 81.3732 87.6557 83.1982 86.7401L80.1856 85.7361L81.0723 82.8249Z" fill="white"/>
<path d="M53.8525 82.8249L54.7431 85.7361L51.7266 86.7401C53.5476 87.6557 55.7659 88.511 58.4295 89.2418L59.8817 85.2384C58.1608 84.7123 55.1843 83.5759 53.8525 82.8249Z" fill="white"/>
<path d="M67.4634 9.02291C70.2513 9.02291 72.9872 9.68955 75.0892 10.8622C75.2818 10.2156 75.5504 9.43252 75.9158 8.61352L75.1214 8.70973L74.2869 8.7981L73.9339 8.03916L72.8711 5.79047L70.9334 6.8025L70.1792 7.18796L69.5775 6.59359L67.4715 4.50549L65.3696 6.59359L64.7677 7.18796L64.0135 6.8025L62.0642 5.79047L61.0132 8.03916L60.6521 8.7981L59.8177 8.70973L59.0234 8.61352C59.3886 9.43665 59.6533 10.2156 59.8498 10.8622C61.9558 9.68955 64.6836 9.02291 67.4634 9.02291Z" fill="white"/>
<path d="M110.026 35.0121C110.387 35.1365 110.756 35.1927 111.121 35.1927C112.698 35.1927 114.222 34.1727 114.748 33.0041C114.748 33.0041 111.855 32.8274 108.747 29.6673C107.756 28.6432 106.709 28.3381 105.81 28.3381C104.414 28.3381 103.367 29.0768 103.367 29.0768C107.122 31.0768 107.888 34.2892 110.026 35.0121Z" fill="white"/>
<path d="M23.802 35.1927C24.167 35.1927 24.5361 35.1365 24.8891 35.0121C27.0353 34.2892 27.8055 31.0768 31.5601 29.0768C31.5601 29.0768 30.5091 28.3381 29.121 28.3381C28.2186 28.3381 27.1715 28.6432 26.1768 29.6673C23.0718 32.8274 20.1797 33.0041 20.1797 33.0041C20.697 34.1727 22.2254 35.1927 23.802 35.1927Z" fill="white"/>
<path d="M111.049 48.0661C111.113 48.0699 111.17 48.0699 111.238 48.0699C115.173 48.0699 116.509 43.8498 116.509 43.8498H116.432C115.71 43.8498 109.858 43.681 105.722 38.4166C102.998 34.9553 100.768 31.9114 96.3592 30.7149L95.9261 30.6384L95.8297 30.1969C95.7095 29.5221 96.1706 28.8918 97.2177 28.2092C103.299 24.2218 99.1714 19.138 99.1714 19.138C99.1714 19.138 97.4345 23.2057 93.5471 23.2057C93.4551 23.2057 93.3547 23.2017 93.2584 23.2017C92.8171 23.1777 92.3918 23.1616 91.9628 23.0693L91.2446 22.9287C91.2446 22.9287 92.352 19.9131 89.6802 17.1422C87.6664 15.0502 85.2155 14.6967 83.7995 14.6967C83.0855 14.6967 82.6322 14.7892 82.6322 14.7892C83.9759 16.548 84.9467 19.4633 83.3943 21.2621C82.0546 22.8082 78.7812 22.8845 78.7812 25.1894C78.7812 26.1652 79.6918 27.3057 81.3285 28.3295C86.2504 31.4336 91.1364 35.5497 93.1661 41.0668C95.7055 47.9496 92.8453 52.5152 88.7616 55.1334C88.7616 55.1334 90.0414 56.3138 91.8985 56.4625C92.2757 56.4987 92.6447 56.5148 92.9898 56.5148C96.9089 56.5148 98.9347 54.6756 98.9347 54.6756C98.9347 54.6756 98.6016 57.2174 96.5599 59.5787C94.6785 61.7589 92.2075 63.04 88.4407 63.0962C88.4407 63.0962 88.3203 64.847 89.989 66.3608C91.0562 67.3165 93.5232 67.6298 93.5232 67.6298C93.5232 67.6298 88.9061 68.5653 88.3966 75.3919C88.1197 79.0901 87.1771 80.375 87.1771 80.375H87.2612C97.9759 80.375 97.699 71.1756 97.699 71.1756C97.699 71.1756 98.4451 73.898 101.434 74.6087C101.795 74.7052 102.18 74.7414 102.549 74.7414C103.512 74.7414 104.346 74.5164 104.346 74.5164C104.346 74.5164 102.781 71.2117 104.334 66.5897C105.622 62.7549 105.413 59.9118 105.413 59.9118C105.413 59.9118 106.857 62.0962 110.435 62.1165H110.472C113.452 62.1165 114.752 59.8556 114.752 59.8556C107.607 56.8882 108.313 47.3072 108.313 47.3072C108.313 47.3072 109.24 47.9978 111.049 48.0661ZM108.899 58.0726C105.995 56.6392 104.157 52.8324 103.712 51.4592C103.231 59.0083 99.5484 64.2487 95.2442 69.2923C93.0099 71.9064 92.2314 74.4481 92.2314 74.4481C92.2314 74.4481 92.6608 71.569 94.5942 69.2238C98.6099 64.3932 102.424 58.3819 102.709 51.431C102.906 46.5802 101.658 42.6451 99.7127 39.4045C100.8 42.7815 100.648 46.9177 96.953 50.7765C96.953 50.7765 104.306 41.9544 94.0248 32.9114C89.909 29.4699 85.4081 27.3458 83.0896 25.8398C91.4653 28.5745 95.553 25.5628 95.553 25.5628C92.8774 27.8838 89.4155 27.8437 87.2695 27.5104C87.8511 27.7957 88.4567 28.0927 89.1106 28.4421C96.1706 32.2809 102.517 38.5973 103.6 47.3473V47.279C105.245 55.8681 108.899 58.0726 108.899 58.0726Z" fill="white"/>
<path d="M41.3997 67.6298C41.3997 67.6298 43.8666 67.3205 44.9338 66.3608C46.5983 64.847 46.4822 63.0962 46.4822 63.0962C42.7113 63.0442 40.2444 61.7589 38.3509 59.5826C36.3253 57.2215 35.9883 54.6796 35.9883 54.6796C35.9883 54.6796 38.0139 56.5187 41.9291 56.5187C42.2822 56.5187 42.6472 56.5027 43.0242 56.4665C44.8815 56.318 46.1651 55.1374 46.1651 55.1374C42.0816 52.5194 39.2174 47.9496 41.7527 41.0668C43.7866 35.5536 48.6684 31.4336 53.5903 28.3295C55.2271 27.3057 56.1376 26.1691 56.1376 25.1894C56.1376 22.8845 52.8684 22.8082 51.5287 21.2621C49.9761 19.4633 50.9508 16.5439 52.2906 14.7892C52.2906 14.7892 51.8454 14.6967 51.1272 14.6967C49.7153 14.6967 47.2642 15.0502 45.2507 17.1422C42.571 19.9131 43.6821 22.9287 43.6821 22.9287L42.9641 23.0693C42.5349 23.1616 42.1057 23.1777 41.6683 23.2017C41.5682 23.2017 41.4797 23.2057 41.3836 23.2057C37.4885 23.2057 35.7595 19.1421 35.7595 19.1421C35.7595 19.1421 31.6316 24.2255 37.7092 28.213C38.7561 28.8957 39.2133 29.5263 39.0931 30.2009L38.9967 30.6426L38.5554 30.7188C34.155 31.9154 31.9207 34.9594 29.1969 38.4208C25.069 43.6771 19.2244 43.8498 18.4944 43.8498H18.4141C18.4141 43.8498 19.7499 48.0699 23.6852 48.0699C23.7492 48.0699 23.8054 48.0699 23.8736 48.0661C25.683 48.0016 26.6136 47.3072 26.6136 47.3072C26.6136 47.3072 27.3114 56.8842 20.1752 59.8556C20.1752 59.8556 21.4749 62.1165 24.4553 62.1165H24.4914C28.0735 62.0962 29.5138 59.9118 29.5138 59.9118C29.5138 59.9118 29.3051 62.7549 30.5887 66.5897C32.1413 71.2117 30.5849 74.5164 30.5849 74.5164C30.5849 74.5164 31.4192 74.7414 32.378 74.7414C32.7508 74.7414 33.1322 74.7052 33.4891 74.6087C36.4735 73.898 37.2238 71.1756 37.2238 71.1756C37.2238 71.1756 36.9508 80.375 47.6655 80.375H47.7418C47.7418 80.375 46.8031 79.0901 46.5303 75.3919C46.0167 68.5653 41.3997 67.6298 41.3997 67.6298ZM39.6788 69.2923C35.3744 64.2487 31.6961 59.0083 31.2105 51.4592C30.7655 52.8283 28.936 56.6392 26.032 58.0726C26.032 58.0726 29.6823 55.8681 31.3228 47.279V47.3473C32.4101 38.6015 38.7521 32.2809 45.8163 28.4421C46.4621 28.0885 47.0756 27.7915 47.6535 27.5104C45.5073 27.8437 42.0455 27.8838 39.37 25.5628C39.37 25.5628 43.4576 28.5745 51.8292 25.8398C49.5107 27.3458 45.014 29.4699 40.8981 32.9114C30.6129 41.9544 37.9699 50.7765 37.9699 50.7765C34.2713 46.9135 34.1229 42.7815 35.21 39.4045C33.2605 42.6489 32.0167 46.5802 32.2175 51.431C32.4982 58.3819 36.3131 64.3932 40.3207 69.2238C42.258 71.5651 42.6953 74.4481 42.6953 74.4481C42.6953 74.4481 41.909 71.9064 39.6788 69.2923Z" fill="white"/>
<path d="M59.5373 33.9956C59.7137 34.1842 59.8862 34.3891 60.0507 34.594C60.0909 34.6422 60.127 34.6863 60.1668 34.7425C60.3194 34.9473 60.476 35.1641 60.6242 35.3851C60.6564 35.4292 60.6885 35.4814 60.7246 35.5336C60.9051 35.8066 61.0736 36.0877 61.2421 36.3768C62.7866 39.0474 65.2615 40.6414 67.4558 40.6455C69.6541 40.6414 72.1211 39.0474 73.6735 36.3768C73.846 36.0798 74.0184 35.7907 74.1989 35.5215C74.2271 35.4814 74.2551 35.4453 74.2791 35.405C74.4317 35.1762 74.5921 34.9513 74.7606 34.7345C74.7967 34.6863 74.8288 34.6462 74.8607 34.6061C75.0334 34.3932 75.2098 34.1842 75.3903 33.9916C75.4226 33.9595 75.4465 33.9315 75.4746 33.9072C76.2608 33.1002 77.1997 32.4858 78.4271 32.1445L77.8816 31.8273H77.8493L75.6753 30.5622L73.441 29.2813L67.4718 32.5338L67.4558 32.5219L67.4438 32.5338L61.4707 29.2813L59.2403 30.5583L57.0622 31.8233H57.0382L56.4844 32.1403C57.7159 32.4818 58.6507 33.0881 59.441 33.8953C59.477 33.9275 59.5011 33.9636 59.5373 33.9956ZM65.041 33.7345H67.5682H70.0912V35.4693C69.4976 34.7425 68.3423 34.8912 68.3423 34.8912V37.3928C68.3423 37.3928 68.3864 38.6215 68.8157 39.1558H67.5682H66.3165C66.7536 38.6255 66.7938 37.3928 66.7938 37.3928V34.8912C66.7938 34.8912 65.6427 34.7425 65.041 35.4693V33.7345Z" fill="white"/>
<path d="M66.9429 30.3695V20.2143L60.4844 18.0216L62.1893 27.864L66.9429 30.3695ZM65.5549 22.708V24.3381L65.2421 24.1936C65.2259 24.1817 64.7685 24.0771 63.9664 23.4428C62.6424 22.4148 62.6186 21.4672 62.6186 21.4672L65.5549 22.708Z" fill="white"/>
<path d="M72.7417 27.864L74.4388 18.0216L67.9844 20.2143V30.3695L72.7417 27.864ZM69.3722 22.708L72.3085 21.4712C72.3085 21.4712 72.2845 22.4187 70.9567 23.4467C70.1584 24.0812 69.697 24.1855 69.681 24.1978L69.3681 24.3423V22.708H69.3722Z" fill="white"/>
<path d="M57.8118 53.9128C58.4415 54.1417 59.2038 54.1902 59.593 54.1902C59.609 54.1417 59.6291 54.0816 59.6492 54.0093C59.6852 53.8928 59.7172 53.7804 59.7414 53.652C59.8496 53.0897 59.8898 52.4513 59.8977 52.0417C59.633 51.8769 59.2599 51.5839 59.0512 51.1461C58.8106 50.6403 58.4697 50.4074 57.9681 50.4074C57.3185 50.4074 56.6204 50.7969 56.3236 50.9816C56.087 52.383 57.1179 53.6559 57.8118 53.9128Z" fill="white"/>
<path d="M72.099 48.5236C70.8996 49.8285 68.553 52.1015 68.4365 52.2178L68.2962 52.3623L60.8791 52.2458C60.8749 52.9809 60.7547 53.6073 60.6382 54.0649C60.6183 54.1413 60.5982 54.2218 60.5781 54.302L69.4032 55.8882C70.322 55.2454 72.8491 53.3983 73.8278 52.6756C73.1138 51.6315 73.0458 50.3949 73.2062 49.5234C72.7407 49.2222 72.3838 48.8851 72.099 48.5236Z" fill="white"/>
<path d="M73.0964 39.5937C71.3875 41.2925 69.7468 41.9189 68.2827 42.0634C68.0181 42.0914 67.7492 42.1075 67.4765 42.1075H67.4564H67.4402C67.1675 42.1075 66.8947 42.0914 66.63 42.0634C66.3732 42.0394 66.1046 41.9991 65.8356 41.9389C65.7394 42.3205 65.619 43.1196 65.9643 43.8744C66.2731 44.5611 66.9028 45.0709 67.8214 45.4084L68.1302 45.5289L68.1343 45.8621C68.1343 45.9625 68.2065 48.1227 70.5612 48.7211C70.9463 48.3236 71.2953 47.9663 71.5521 47.6693C71.0706 46.5369 71.3233 45.3802 72.0213 44.8142C71.9892 44.9345 71.6845 47.7695 73.9549 48.8215L74.3278 48.9984L74.2156 49.3957C74.1796 49.5164 73.4214 52.2589 76.1691 53.2787L76.6547 53.4636L76.4379 53.9374C76.3898 54.0419 75.3108 56.5314 77.8498 57.9448H83.3576V53.568C81.4002 53.3272 80.5697 51.7528 80.3573 50.6365C79.4463 50.4801 78.7406 50.0866 78.2591 49.4439C77.1039 47.9222 78.0987 46.5287 78.1107 46.4523C78.1066 46.4646 78.1107 47.9502 79.0252 48.8658C79.4787 49.3073 80.0161 49.6486 80.8304 49.7251L81.2315 49.7612L81.2678 50.1708C81.2758 50.2591 81.4964 52.267 83.3617 52.5841L83.3576 43.6457C83.3576 42.2601 83.7628 40.8667 84.2482 39.5818H73.0964V39.5937Z" fill="white"/>
<path d="M58.2812 43.6886L58.1328 49.3826L58.7786 49.4791L60.359 44.018L59.5567 42.3394L58.2812 43.6886Z" fill="white"/>
<path d="M75.7029 69.8026C75.7512 69.8026 75.8074 69.8105 75.8596 69.8226C76.8422 70.1037 77.0911 73.6532 78.816 73.9707C78.9843 74.0068 79.1408 74.0148 79.2771 74.0148C79.7746 74.0148 80.0714 73.8019 80.3924 73.4245C80.3924 73.4245 79.5259 72.0592 78.8761 71.1397C78.0135 69.935 77.3438 68.4774 75.739 68.4774C75.7029 68.4774 75.6548 68.4774 75.6148 68.4813C75.0852 68.5095 74.7605 68.7666 74.7605 68.7666C74.1105 68.3569 73.5047 68.2163 72.9552 68.2163C71.9483 68.2163 71.1661 68.6781 70.7771 68.6781H70.7609L67.1746 68.3247C66.6132 68.2725 66.1719 67.7065 66.0115 67.4855C65.9713 67.4252 65.9512 67.389 65.9512 67.389C65.9512 67.2928 65.9512 67.1923 65.9433 67.1039C65.8229 64.1687 63.5525 62.9118 62.7461 62.8917C62.7461 62.8917 62.8424 62.3337 62.6219 62.1209L61.8316 63.0804L59.2361 61.7754L61.0853 63.9398L59.5169 65.7025C59.3204 65.9034 59.3444 66.1764 59.4247 66.2888L60.1026 66.8872L60.9609 66.365C61.0052 66.3331 61.0815 66.3249 61.1775 66.3249C61.4142 66.3249 61.7713 66.3853 62.0921 66.3853C62.4412 66.3853 62.7461 66.3088 62.7823 65.9797C62.6739 67.0678 61.667 68.9592 62.329 70.445L62.8184 71.5653L59.6493 71.1075L58.1651 73.6171C57.7079 74.4525 57.6354 75.356 58.0766 75.8458L58.6304 76.5406C58.6304 76.5406 59.4087 75.7134 59.5851 75.1714L59.3324 74.8942C59.1198 74.6612 59.1318 74.4525 59.2603 74.1996L60.1907 72.6534L63.9335 73.5369L64.13 73.1998C64.3828 72.7779 64.7478 72.6495 65.1491 72.6495C65.3134 72.6495 65.4819 72.6695 65.6583 72.6977C66.3524 72.8343 67.4957 73.0189 68.639 73.0189C69.8946 73.0189 71.1379 72.794 71.7999 72.0513C73.1556 74.063 75.9035 74.3842 75.6869 75.4043L74.965 78.8495C75.4424 78.8295 75.9035 78.7973 76.3408 78.737L77.0267 75.1511C77.103 74.7618 77.1753 74.2357 77.1753 74.2357C76.9106 73.9667 76.2687 73.3965 75.9075 72.7057C75.4223 71.7742 75.6869 71.2882 75.2337 70.0755C75.2498 70.0835 75.3862 69.8026 75.7029 69.8026ZM61.7031 64.7669C61.5186 64.7629 61.3862 64.6062 61.3943 64.4216C61.4104 64.2449 61.5588 64.1044 61.7394 64.1204C61.9238 64.1286 62.0561 64.2892 62.0482 64.4659C62.032 64.6424 61.8797 64.7792 61.7031 64.7669Z" fill="white"/>
<path d="M56.5962 73.0626C56.5962 73.0626 57.8358 72.5526 57.9481 72.1871L57.7838 71.7735C57.6673 71.5045 57.6835 71.2115 57.9081 71.0507L59.2479 70.1232L61.4863 70.5528C61.4863 70.5528 61.0811 70.0469 61.1213 69.3682L58.9872 68.9145L56.9734 70.1432C56.111 70.7898 56.0467 71.8458 56.3315 72.4722L56.5962 73.0626Z" fill="white"/>
<path d="M72.4141 78.9012C72.8151 78.8853 73.2564 78.8771 73.742 78.8771C73.742 78.8771 74.8931 75.5081 74.9574 75.3997C74.3116 75.1146 72.9718 74.4039 72.4543 74.0787C72.7954 74.5885 73.6255 75.175 73.4611 75.6246L72.4141 78.9012Z" fill="white"/>
<path d="M83.3774 58.9203H51.5547V70.9028C51.5547 75.8017 55.0968 78.8696 60.3238 78.8696C64.6923 78.8696 65.8434 79.0383 67.4681 80.6526C68.5872 79.5362 69.514 79.1187 71.4153 78.9619L71.4596 78.7775L72.4623 75.6733C72.4062 75.605 70.7657 73.7378 70.7657 73.7378C70.1157 73.9546 69.5702 73.9907 68.6516 73.9907C67.7088 73.9907 66.6457 73.8823 65.4946 73.6655C65.3781 73.6375 65.2699 73.6294 65.1615 73.6294C65.0212 73.6294 65.009 73.6415 64.9729 73.7098L64.7723 74.039L64.4073 74.6413L63.7214 74.4847L60.6687 73.766L60.2516 74.4565L60.3157 74.5287L60.6888 74.9383L60.5244 75.4725C60.2997 76.1714 59.5696 76.9863 59.349 77.2113L58.5869 78.0304L57.8928 77.1509L57.3713 76.4966C56.8219 75.8821 56.6934 74.9383 57.0024 73.9506C56.9941 73.9588 56.9823 73.9627 56.9703 73.9627L56.1078 74.3201L55.7186 73.4769L55.4458 72.8784C54.9764 71.8265 55.149 70.2883 56.4125 69.3608L58.8717 67.9713L61.2104 68.4333C61.2666 68.2083 61.3508 67.4053 61.4188 67.2004C61.3748 67.1966 61.3307 67.1843 61.2865 67.1843L59.9387 67.6862L58.6389 66.7869C58.6389 66.7869 58.1297 66.2971 58.5907 65.8071L59.8504 63.8997L56.6614 59.8921L61.5632 61.908L61.8882 61.5024L62.5502 60.7115L63.3003 61.4262C63.5129 61.6309 63.6332 61.8838 63.6933 62.1367C65.045 62.6628 67.4642 64.2169 67.6766 66.7428L66.9185 67.0479V67.068C67.0911 67.2727 67.2354 67.3573 67.2797 67.365L70.7775 67.7104C70.8658 67.6944 70.9781 67.6543 71.1025 67.6181C71.5359 67.4694 72.1896 67.2566 72.9639 67.2566C73.5936 67.2566 74.2034 67.4013 74.7889 67.6743C75.0055 67.5939 75.2703 67.5337 75.5752 67.5137L75.7437 67.5097C77.617 67.5097 78.5476 68.9111 79.2939 70.0275C79.4183 70.22 79.5425 70.4049 79.671 70.5855C80.3247 71.5091 81.1792 72.8625 81.2153 72.9187L81.6004 73.5208L81.1272 74.0711C80.7622 74.4926 80.2165 74.9867 79.2778 74.9867C79.0852 74.9867 78.8728 74.9665 78.644 74.9224C78.4433 74.8861 78.263 74.8261 78.0862 74.7539C78.0582 74.9383 78.0222 75.1593 77.9861 75.3481L77.3722 78.5523C81.0428 77.6488 83.3735 74.8742 83.3735 70.9068L83.3774 58.9203Z" fill="#FFDD2D"/>
<path d="M51.5544 57.9567H76.301C75.0653 56.6799 75.0814 55.0617 75.3984 54.0095C75.0373 53.8368 74.7405 53.6281 74.4758 53.4032C73.5089 54.1179 70.5565 56.2702 69.7863 56.8084L69.6219 56.9207L59.9102 55.162H59.7135C59.481 55.162 59.14 55.154 58.7669 55.1098C58.6627 55.5475 58.2855 55.8487 57.8523 55.8487C57.8042 55.8487 57.748 55.8447 57.6958 55.8326C57.4432 55.7883 57.2224 55.6599 57.074 55.4471C56.9217 55.2384 56.8616 54.9895 56.9057 54.7324L56.9418 54.5235C55.9388 53.8167 55.0163 52.2386 55.4255 50.5761L55.4655 50.3995L55.6058 50.2992C55.6259 50.2831 55.7944 50.1707 56.0433 50.026L55.3372 49.9176C55.0725 49.8696 54.8959 49.6244 54.9361 49.3635C54.9802 49.0985 55.229 48.9097 55.4897 48.9619L57.1704 49.2271L57.3229 43.3L59.8259 40.6497L61.3863 43.9385L59.7378 49.6407L61.222 49.8735C61.4827 49.9136 61.6632 50.1586 61.623 50.4276C61.583 50.6647 61.3824 50.8291 61.1457 50.8291C61.1217 50.8291 61.0935 50.8291 61.0696 50.8253L59.8619 50.6286C59.8781 50.6647 59.9021 50.6845 59.9181 50.7248C60.0466 50.9897 60.3314 51.1827 60.5001 51.2629L67.905 51.3794C68.2179 51.0743 68.996 50.3111 69.7944 49.5041C67.9732 48.8134 67.3114 47.2393 67.1988 46.1952C66.1801 45.7616 65.4781 45.111 65.0889 44.2637C64.6155 43.2157 64.7842 42.1676 64.9084 41.6576C63.9216 41.2963 62.8828 40.6378 61.8237 39.5858H50.6719C51.1492 40.8706 51.5544 42.2639 51.5544 43.6495V57.9567Z" fill="#FFDD2D"/>
<path d="M61.7441 64.1204C61.5636 64.1041 61.411 64.2449 61.3992 64.4214C61.387 64.6062 61.5234 64.7627 61.708 64.7668C61.8844 64.7827 62.0409 64.6461 62.0569 64.4655C62.0569 64.2888 61.9286 64.1242 61.7441 64.1204Z" fill="black"/>
<path d="M83.3311 85.8479L81.4979 85.1453L82.0032 83.2499L82.5609 81.1819C82.5609 81.1819 79.3116 82.9448 74.7346 84.2698C73.4347 84.6434 72.4521 84.812 72.4521 84.812V86.2174C72.4521 86.2174 70.0049 86.643 67.53 86.643H67.502H67.4659H67.4177H67.3897C64.9145 86.643 62.4676 86.2174 62.4676 86.2174V84.812C62.4676 84.812 61.4808 84.6434 60.1852 84.2698C55.608 82.9448 52.3627 81.1819 52.3627 81.1819L52.9123 83.2499L53.4299 85.1453L51.5925 85.8479L49.5547 86.611C51.8934 87.7393 55.1307 89.3857 58.0952 90.1967L57.3973 92.1083C57.3973 92.1083 61.1558 93.8228 67.4177 93.8389V93.8429H67.4378H67.4659H67.49H67.5061V93.8389C73.7759 93.8228 77.5304 92.1083 77.5304 92.1083L76.8284 90.1967C79.7931 89.3857 83.0382 87.7393 85.365 86.611L83.3311 85.8479ZM51.7291 86.7395L54.7456 85.7355L53.8552 82.8243C55.1829 83.5793 58.1633 84.7117 59.8882 85.2376L58.432 89.241C55.7686 88.5062 53.5503 87.6509 51.7291 86.7395ZM67.4659 92.8349C63.964 92.8349 59.9645 92.0279 58.7891 91.6104L60.5782 86.7635C62.0624 87.1971 65.1512 87.6591 67.3936 87.643H67.3977H67.4659H67.526H67.5341C69.7765 87.6591 72.8573 87.1971 74.3496 86.7635L76.1345 91.6104C74.9591 92.0319 70.9637 92.8349 67.4659 92.8349ZM76.4916 89.241L75.0395 85.2376C76.7685 84.7117 79.7409 83.5793 81.0726 82.8243L80.1861 85.7355L83.1987 86.7395C81.3735 87.6509 79.1672 88.5062 76.4916 89.241Z" fill="black"/>
<path d="M67.4631 10.1957C71.1938 10.1957 74.1784 11.4325 75.827 12.7536C75.827 12.7536 76.3163 9.80216 77.9892 7.1961L74.9847 7.53738L73.4122 4.19241L70.3915 5.75051L67.4631 2.85129L64.5428 5.75051L61.5182 4.19241L59.9498 7.53738L56.9453 7.1961C58.6179 9.80216 59.1075 12.7536 59.1075 12.7536C60.7602 11.4325 63.7365 10.1957 67.4631 10.1957ZM59.8134 8.71003L60.6479 8.7984L61.0087 8.03926L62.0599 5.79056L64.0093 6.79847L64.7635 7.18413L65.3654 6.58976L67.4672 4.50166L69.5732 6.58976L70.1749 7.18413L70.9289 6.79847L72.8664 5.79056L73.9297 8.03926L74.2827 8.7984L75.1171 8.71003L75.9111 8.6136C75.5461 9.43675 75.2775 10.2157 75.085 10.8623C72.9829 9.68965 70.2471 9.02321 67.4592 9.02321C64.6833 9.02321 61.9515 9.68965 59.8416 10.8623C59.6449 10.2157 59.3802 9.43282 59.0153 8.6136L59.8134 8.71003Z" fill="black"/>
<path d="M111.232 49.3588C116.058 49.3588 117.671 44.4438 117.739 44.2349L118.277 42.5044L116.467 42.5605H116.459C115.821 42.5605 110.498 42.42 106.723 37.6174L106.366 37.1717C103.899 34.0315 101.561 31.048 97.3809 29.6867C97.5012 29.5783 97.6738 29.4417 97.9105 29.2891C100.129 27.8275 101.42 26.0526 101.745 23.9927C102.219 20.8924 100.245 18.4229 100.157 18.3226L98.8129 16.6602L97.9747 18.6319C97.9186 18.7564 96.5065 21.9127 93.5379 21.9127H93.3173C93.1128 21.9004 92.9202 21.8924 92.7277 21.8766C92.8319 20.467 92.5751 18.2865 90.6018 16.2426C88.2309 13.781 85.3186 13.4117 83.7942 13.4117C82.9799 13.4117 82.4383 13.512 82.3821 13.5201L80.3522 13.9216L81.6039 15.572C82.5869 16.845 83.4773 19.194 82.4223 20.4229C82.0853 20.8122 81.3914 21.1295 80.7255 21.4467C79.3575 22.0771 77.4922 22.9526 77.4922 25.1851C77.4922 26.6307 78.6114 28.1408 80.6413 29.4256C86.6503 33.2084 90.357 37.1556 91.9575 41.5125C94.4326 48.2145 91.2033 52.0372 88.0663 54.049L86.6584 54.9563L87.8897 56.0887C88.0543 56.2335 89.5626 57.5626 91.789 57.7554C92.2101 57.7834 92.6153 57.8076 92.9924 57.8076C94.4204 57.8076 95.636 57.5827 96.6228 57.2815C96.35 57.7594 96.0169 58.2452 95.5958 58.7351C93.8027 60.8151 91.5964 61.7627 88.4232 61.8111L87.2441 61.8312L87.1519 63.0158C87.1397 63.2525 87.0514 65.4492 89.1294 67.3164C89.4463 67.6054 89.8314 67.8425 90.2326 68.0392C88.8245 69.308 87.3925 71.5167 87.1158 75.3032C86.8829 78.4634 86.129 79.6319 86.1208 79.6443L84.8171 81.6359L87.172 81.6679C91.0627 81.6679 94.0434 80.5918 96.1092 78.4634C97.3287 77.2027 98.0268 75.7813 98.4398 74.5202C99.1178 75.0985 99.9924 75.6046 101.132 75.8736C101.565 75.9738 102.038 76.0302 102.548 76.0302C103.647 76.0302 104.565 75.7971 104.67 75.7731L106.174 75.3715L105.508 73.9661C105.46 73.8537 104.204 71.0348 105.556 67.0112C106.138 65.2725 106.435 63.7145 106.579 62.5016C107.526 62.9958 108.793 63.4051 110.434 63.4093C114.157 63.4093 115.797 60.6265 115.874 60.51L116.608 59.233L115.248 58.671C110.811 56.8277 109.828 51.8765 109.632 49.1942C110.033 49.2704 110.49 49.3427 111.008 49.3588H111.232ZM114.75 59.8556C114.75 59.8556 113.451 62.1163 110.47 62.1163H110.434C106.856 62.0962 105.412 59.9116 105.412 59.9116C105.412 59.9116 105.62 62.7548 104.329 66.5896C102.776 71.2113 104.341 74.5162 104.341 74.5162C104.341 74.5162 103.506 74.7412 102.543 74.7412C102.175 74.7412 101.79 74.705 101.428 74.6086C98.4399 73.898 97.6939 71.1752 97.6939 71.1752C97.6939 71.1752 97.9706 80.375 87.2561 80.375H87.172C87.172 80.375 88.1144 79.09 88.3953 75.3916C88.9047 68.5653 93.5219 67.6297 93.5219 67.6297C93.5219 67.6297 91.059 67.3203 89.9918 66.3606C88.3231 64.8469 88.4394 63.096 88.4394 63.096C92.2101 63.0438 94.6772 61.7589 96.5585 59.5783C98.5965 57.2172 98.9333 54.6754 98.9333 54.6754C98.9333 54.6754 96.9075 56.5146 92.9882 56.5146C92.6433 56.5146 92.2742 56.4985 91.8974 56.4624C90.044 56.3139 88.7604 55.1332 88.7604 55.1332C92.84 52.515 95.704 47.9455 93.165 41.0626C91.1311 35.5493 86.2451 31.4294 81.3272 28.3252C79.6906 27.3016 78.7799 26.165 78.7799 25.1851C78.7799 22.8803 82.0532 22.8081 83.3969 21.2579C84.9456 19.4591 83.9748 16.5397 82.6309 14.785C82.6309 14.785 83.0841 14.6925 83.7984 14.6925C85.2142 14.6925 87.6653 15.0499 89.679 17.138C92.3546 19.9087 91.2435 22.9244 91.2435 22.9244L91.9614 23.065C92.3907 23.1573 92.816 23.1734 93.2572 23.1934C93.3536 23.1934 93.4496 23.1976 93.5459 23.1976C97.433 23.1976 99.1698 19.1298 99.1698 19.1298C99.1698 19.1298 103.302 24.2174 97.2205 28.2007C96.1734 28.8835 95.7123 29.514 95.8325 30.1886L95.9287 30.6303L96.3618 30.7066C100.771 31.9031 103.001 34.9471 105.725 38.4085C109.86 43.6729 115.713 43.8415 116.435 43.8415H116.512C116.512 43.8415 115.176 48.0618 111.24 48.0618C111.176 48.0618 111.12 48.0618 111.052 48.0578C109.243 47.9935 108.316 47.2988 108.316 47.2988C108.316 47.2988 107.606 56.8838 114.75 59.8556Z" fill="black"/>
<path d="M102.752 30.2172C104.553 31.1771 105.6 32.4619 106.518 33.6023C107.421 34.7146 108.279 35.7867 109.619 36.2324C110.097 36.3972 110.602 36.4734 111.115 36.4734C113.129 36.4734 115.151 35.2406 115.917 33.534L116.688 31.8235L114.822 31.7109C114.734 31.7069 112.335 31.4901 109.663 28.7556C108.564 27.6353 107.237 27.0449 105.804 27.0449C104.055 27.0449 102.76 27.9204 102.615 28.0085L100.898 29.2174L102.752 30.2172ZM105.808 28.3379C106.707 28.3379 107.754 28.6432 108.745 29.667C111.854 32.8274 114.746 33.0039 114.746 33.0039C114.22 34.1685 112.696 35.1925 111.119 35.1925C110.754 35.1925 110.389 35.1361 110.024 35.0116C107.886 34.2888 107.12 31.0764 103.361 29.0768C103.361 29.0768 104.412 28.3379 105.808 28.3379Z" fill="black"/>
<path d="M103.596 47.2794V47.3435C102.513 38.5977 96.1671 32.2813 89.1071 28.4383C88.453 28.0889 87.8513 27.7919 87.2658 27.5068C89.416 27.84 92.8777 27.8803 95.5493 25.5593C95.5493 25.5593 91.4617 28.571 83.0859 25.8364C85.4044 27.3421 89.9093 29.4665 94.0211 32.9076C104.302 41.9508 96.9452 50.7729 96.9452 50.7729C100.64 46.9139 100.792 42.7779 99.7051 39.4009C101.651 42.6413 102.894 46.5766 102.702 51.4274C102.417 58.3784 98.6021 64.3896 94.5866 69.2203C92.6571 71.5653 92.224 74.4446 92.224 74.4446C92.224 74.4446 93.002 71.9026 95.2363 69.2885C99.5408 64.2451 103.219 59.0047 103.701 51.4554C104.146 52.8249 105.979 56.6357 108.887 58.0693C108.895 58.0732 105.241 55.8686 103.596 47.2794Z" fill="black"/>
<path d="M48.8005 79.6401C48.7963 79.628 48.0504 78.4594 47.8097 75.2992C47.5287 71.5125 46.1007 69.304 44.6888 68.0352C45.0979 67.8425 45.4749 67.6056 45.7918 67.3124C47.8659 65.445 47.7776 63.2485 47.7656 63.0118L47.6854 61.8272L46.498 61.8072C43.3329 61.7549 41.1226 60.8072 39.3294 58.7311C38.9123 58.2412 38.5753 57.7552 38.3024 57.2775C39.2894 57.5787 40.4969 57.8036 41.9289 57.8036C42.314 57.8036 42.7111 57.7794 43.1322 57.7514C45.3586 57.5584 46.8671 56.2334 47.0354 56.0847L48.267 54.9523L46.859 54.0451C43.7101 52.0292 40.4927 48.2063 42.9637 41.5083C44.5644 37.1516 48.267 33.2044 54.284 29.4217C56.3137 28.1368 57.4251 26.6268 57.4251 25.1811C57.4251 22.9486 55.5637 22.0693 54.1959 21.4428C53.53 21.1255 52.8361 20.8083 52.4989 20.4189C51.44 19.194 52.3345 16.841 53.3134 15.568L54.5729 13.9177L52.5351 13.5161C52.475 13.508 51.9415 13.4077 51.123 13.4077C49.5988 13.4077 46.6945 13.7771 44.3196 16.2386C42.3421 18.2866 42.0812 20.467 42.1817 21.8726C41.989 21.8885 41.7966 21.8964 41.596 21.9087H41.3794C38.4029 21.9087 36.995 18.7524 36.9388 18.6279L36.1004 16.6563L34.7443 18.3186C34.6682 18.419 32.6866 20.8926 33.1679 23.9887C33.4889 26.0486 34.7806 27.8235 36.9989 29.2851C37.2395 29.4375 37.408 29.5743 37.5284 29.6827C33.3523 31.044 31.0179 34.0315 28.5507 37.1716L28.1937 37.6173C24.423 42.42 19.0879 42.5605 18.4501 42.5605L16.6328 42.5043L17.1864 44.2349C17.2505 44.4438 18.8592 49.3588 23.6889 49.3588L23.9216 49.3506C24.4311 49.3347 24.8883 49.2665 25.2976 49.1862C25.097 51.8644 24.1142 56.8157 19.6734 58.6628L18.3177 59.2251L19.0518 60.5018C19.1239 60.6184 20.7687 63.4012 24.4993 63.4012C26.1277 63.3972 27.3954 62.9876 28.3461 62.4939C28.4905 63.7065 28.7873 65.2643 29.3691 67.0031C30.7209 71.0267 29.4616 73.8456 29.4133 73.9582L28.7475 75.3635L30.2556 75.765C30.3559 75.7892 31.2826 76.0221 32.3778 76.0221C32.8911 76.0221 33.3645 75.9659 33.7898 75.8654C34.9329 75.5964 35.8154 75.0906 36.4855 74.5123C36.8944 75.7731 37.5966 77.1946 38.812 78.4556C40.882 80.5837 43.8585 81.6599 47.7494 81.6599L50.1083 81.6277L48.8005 79.6401ZM47.6611 80.375C36.9467 80.375 37.2196 71.1754 37.2196 71.1754C37.2196 71.1754 36.4733 73.8978 33.4848 74.6087C33.1278 74.7048 32.7467 74.741 32.3738 74.741C31.4109 74.741 30.5806 74.5162 30.5806 74.5162C30.5806 74.5162 32.1371 71.2115 30.5845 66.5895C29.3009 62.7547 29.5094 59.9116 29.5094 59.9116C29.5094 59.9116 28.0694 62.0962 24.4872 62.1161H24.4512C21.4705 62.1161 20.1708 59.8554 20.1708 59.8554C27.3112 56.888 26.6092 47.3068 26.6092 47.3068C26.6092 47.3068 25.6827 47.9977 23.8694 48.0657C23.8054 48.0699 23.745 48.0699 23.681 48.0699C19.7418 48.0699 18.4099 43.8496 18.4099 43.8496H18.4901C19.2162 43.8496 25.061 43.6808 29.1967 38.4164C31.9203 34.9551 34.1548 31.9152 38.5554 30.7147L38.9967 30.6384L39.0927 30.1967C39.2133 29.5221 38.7559 28.8916 37.709 28.209C31.6275 24.2216 35.7593 19.1378 35.7593 19.1378C35.7593 19.1378 37.4882 23.2015 41.3835 23.2015C41.4795 23.2015 41.5678 23.1976 41.6681 23.1976C42.1054 23.1733 42.5388 23.1575 42.9637 23.0649L43.6819 22.9244C43.6819 22.9244 42.5707 19.9087 45.2505 17.1381C47.2642 15.0459 49.7151 14.6927 51.127 14.6927C51.8451 14.6927 52.2906 14.785 52.2906 14.785C50.9506 16.5437 49.98 19.4591 51.5282 21.2581C52.868 22.8041 56.1374 22.8803 56.1374 25.1852C56.1374 26.161 55.2268 27.3014 53.5901 28.3254C48.668 31.4296 43.7822 35.5495 41.7523 41.0626C39.2172 47.9454 42.0775 52.511 46.1651 55.1332C46.1651 55.1332 44.8813 56.3139 43.024 56.4624C42.647 56.4985 42.282 56.5144 41.9289 56.5144C38.0137 56.5144 35.9881 54.6754 35.9881 54.6754C35.9881 54.6754 36.3249 57.2172 38.3507 59.5785C40.2442 61.7587 42.7111 63.0438 46.482 63.096C46.482 63.096 46.6022 64.8466 44.9335 66.3606C43.8624 67.3163 41.3995 67.6294 41.3995 67.6294C41.3995 67.6294 46.0206 68.5651 46.526 75.3915C46.8028 79.0899 47.7374 80.375 47.7374 80.375H47.6611Z" fill="black"/>
<path d="M23.7981 36.4776C24.3155 36.4776 24.821 36.4014 25.2985 36.2366C26.6461 35.7909 27.5007 34.7186 28.4033 33.6065C29.3258 32.4661 30.3648 31.181 32.166 30.2213L34.0191 29.2253L32.2984 28.0169C32.1539 27.9246 30.8623 27.053 29.1173 27.053C27.6812 27.053 26.3495 27.6395 25.2542 28.7637C22.5827 31.4943 20.188 31.7153 20.0995 31.7192L18.2344 31.8274L19.0005 33.5421C19.7706 35.2408 21.7883 36.4776 23.7981 36.4776ZM26.1729 29.6712C27.1678 28.6474 28.2147 28.3421 29.1173 28.3421C30.5052 28.3421 31.5564 29.0808 31.5564 29.0808C27.8014 31.0847 27.0312 34.293 24.8852 35.016C24.5323 35.1403 24.1631 35.1967 23.7981 35.1967C22.2217 35.1967 20.6973 34.1766 20.1758 33.0081C20.1758 33.0041 23.064 32.8274 26.1729 29.6712Z" fill="black"/>
<path d="M32.2209 51.4314C32.0201 46.5806 33.2639 42.6453 35.2132 39.4049C34.1263 42.7819 34.2747 46.9178 37.9733 50.7769C37.9733 50.7769 30.6163 41.9548 40.9015 32.9116C45.0174 29.4705 49.5181 27.346 51.8326 25.8404C43.461 28.5749 39.3734 25.5632 39.3734 25.5632C42.0448 27.8842 45.5067 27.8439 47.6569 27.5066C47.0753 27.7917 46.4655 28.0891 45.8195 28.4383C38.7514 32.2813 32.4094 38.5979 31.3225 47.3435V47.2752C29.6816 55.8646 26.0312 58.069 26.0312 58.069C28.9356 56.6355 30.7647 52.8289 31.2101 51.4554C31.6953 59.0047 35.3738 64.2449 39.6781 69.2885C41.9124 71.9028 42.6987 74.4444 42.6987 74.4444C42.6987 74.4444 42.2614 71.5655 40.3239 69.2202C36.3165 64.3976 32.5016 58.3823 32.2209 51.4314Z" fill="black"/>
<path d="M65.0391 33.7349V35.4697C65.637 34.7427 66.7923 34.8914 66.7923 34.8914V37.393C66.7923 37.393 66.7521 38.6217 66.315 39.156H67.5662H68.8139C68.3847 38.6257 68.3405 37.393 68.3405 37.393V34.8914C68.3405 34.8914 69.4958 34.7427 70.0896 35.4697V33.7349H67.5662H65.0391Z" fill="black"/>
<path d="M63.9652 23.4469C64.7634 24.0814 65.2248 24.1859 65.2407 24.1978L65.5537 24.3423V22.708L62.6172 21.4712C62.6172 21.4753 62.6454 22.4189 63.9652 23.4469Z" fill="black"/>
<path d="M70.9517 23.4469C72.2796 22.4189 72.3035 21.4712 72.3035 21.4712L69.3672 22.708V24.3423L69.6762 24.1978C69.6963 24.1859 70.1535 24.0814 70.9517 23.4469Z" fill="black"/>
<path d="M76.244 16.7932C76.244 14.3157 72.076 12.087 67.4749 12.087H67.471H67.459H67.4468C62.8457 12.087 58.6781 14.3157 58.6781 16.7932L58.7703 17.4037L60.6073 27.9605L58.7622 29.0325L53.9885 31.8235H54.0045C54.0045 31.8235 52.9296 32.3736 52.4322 32.7149C50.6149 33.9799 50.2298 35.8228 51.285 36.586C51.5457 35.0839 52.7329 33.51 54.9554 33.51C56.5559 33.51 57.7754 34.3372 58.7622 35.578C59.0149 35.8911 59.2555 36.2245 59.4802 36.586C59.7571 37.0396 60.0338 37.4371 60.3107 37.8226H48.0156C48.9183 39.6416 49.7765 41.5691 49.7765 43.6614V70.9026C49.7765 77.4961 54.8431 80.6444 60.3227 80.6444C64.5587 80.6444 65.1283 80.4519 67.4669 82.7808C69.7934 80.4477 70.3632 80.6444 74.6031 80.6444C80.0869 80.6444 85.1452 77.4961 85.1452 70.9026V43.6614C85.1452 41.5691 86.0038 39.6416 86.9102 37.8226H74.6114C74.8842 37.4412 75.1609 37.0396 75.4378 36.586C75.6662 36.2245 75.9029 35.8911 76.1518 35.578C77.1467 34.3331 78.3619 33.51 79.9625 33.51C82.1848 33.51 83.3681 35.0799 83.633 36.586C84.6879 35.8228 84.307 33.9799 82.4777 32.7149C81.9883 32.3736 80.9133 31.8235 80.9133 31.8235H80.9292L76.1557 29.0325L74.3186 27.9605L76.1557 17.4037L76.244 16.7932ZM60.4871 18.022L66.9456 20.2145V30.3698L62.192 27.8602L60.4871 18.022ZM61.8229 39.5935C62.8818 40.6495 63.921 41.3042 64.9078 41.6656C64.7793 42.1754 64.6108 43.2276 65.0881 44.2756C65.4773 45.1188 66.1833 45.7694 67.1982 46.2031C67.3106 47.2472 67.9684 48.8172 69.7934 49.512C68.9952 50.3191 68.2169 51.0778 67.9002 51.3871L60.4991 51.2708C60.3308 51.1862 60.0458 50.9976 59.9175 50.7286C59.9013 50.6925 59.8773 50.6724 59.8653 50.6321L61.0728 50.8289C61.101 50.833 61.1248 50.833 61.1491 50.833C61.3816 50.833 61.5862 50.6724 61.6264 50.4316C61.6666 50.1624 61.4861 49.9174 61.2253 49.8773L59.7411 49.6445L61.3897 43.9465L59.8292 40.6576L57.3261 43.3078L57.1737 49.2349L55.4929 48.9698C55.2319 48.9176 54.9834 49.1104 54.9395 49.3715C54.8992 49.6323 55.0756 49.8773 55.3405 49.9256L56.0464 50.034C55.7938 50.1785 55.6292 50.2909 55.6091 50.3069L55.4649 50.4074L55.4247 50.5841C55.0155 52.2464 55.9422 53.8247 56.941 54.5313L56.9047 54.7403C56.8649 54.997 56.9209 55.246 57.0732 55.455C57.2177 55.6678 57.4424 55.7963 57.6911 55.8404C57.7433 55.8485 57.7995 55.8525 57.8476 55.8525C58.2807 55.8525 58.658 55.5513 58.7662 55.1137C59.1392 55.1576 59.4802 55.1658 59.7127 55.1658H59.9094L69.6211 56.9206L69.7855 56.8122C70.5598 56.27 73.5082 54.1177 74.4748 53.407C74.7397 53.6359 75.0365 53.8445 75.3976 54.0175C75.0846 55.0695 75.0645 56.6877 76.3039 57.9646H51.5536V43.6651C51.5536 42.2798 51.1484 40.8865 50.6711 39.6016H61.8229V39.5935ZM73.8251 52.676C72.8422 53.3988 70.3151 55.246 69.4004 55.8886L60.5754 54.3025C60.5955 54.2221 60.6154 54.1459 60.6355 54.0655C60.7519 53.6079 60.8682 52.9813 60.8763 52.2464L68.2932 52.3671L68.4337 52.2224C68.5461 52.11 70.8966 49.8372 72.0961 48.5279C72.3809 48.8855 72.738 49.2269 73.2035 49.5279C73.0428 50.3955 73.111 51.6321 73.8251 52.676ZM59.0509 51.1463C59.2597 51.5839 59.6367 51.8771 59.8974 52.0417C59.8895 52.4513 59.8493 53.0897 59.7411 53.652C59.7169 53.7764 59.6848 53.893 59.6487 54.0093C59.6286 54.0816 59.6087 54.1419 59.5925 54.19C59.2035 54.19 58.4372 54.1419 57.8115 53.913C57.1176 53.6559 56.0825 52.383 56.3232 50.9815C56.6241 50.7969 57.318 50.4074 57.9678 50.4074C58.4694 50.4034 58.8103 50.6403 59.0509 51.1463ZM58.1323 49.3834L58.2807 43.6933L59.5565 42.3402L60.3588 44.0187L58.7782 49.4797L58.1323 49.3834ZM73.7449 78.8817C73.2634 78.8817 72.8184 78.8898 72.4169 78.9057L73.468 75.6331C73.6325 75.1793 72.802 74.597 72.4613 74.087C72.9786 74.4124 74.3186 75.1229 74.9644 75.4082C74.896 75.5126 73.7449 78.8817 73.7449 78.8817ZM77.0422 75.1632L76.3564 78.7451C75.9188 78.8053 75.4537 78.8376 74.9764 78.8575L75.6985 75.4122C75.9151 74.3882 73.1672 74.0709 71.8113 72.0592C71.1495 72.8061 69.902 73.0269 68.6503 73.0269C67.5071 73.0269 66.364 72.8422 65.6697 72.7056C65.4933 72.6776 65.3248 72.6576 65.1604 72.6576C64.7592 72.6576 64.3942 72.7821 64.1415 73.2077L63.9409 73.5448L60.1983 72.6614L59.2675 74.2035C59.1353 74.4525 59.1272 74.6653 59.3399 74.8982L59.5925 75.1751C59.4201 75.7213 58.642 76.5446 58.642 76.5446L58.0843 75.8499C57.643 75.3558 57.7151 74.4567 58.1765 73.6213L59.6607 71.1116L62.8298 71.5693L62.3363 70.445C61.6745 68.9592 62.6814 67.0678 62.7896 65.9797C62.7535 66.3088 62.4527 66.3813 62.0996 66.3813C61.7789 66.3813 61.4218 66.3211 61.1851 66.3211C61.0929 66.3211 61.0125 66.3291 60.9685 66.361L60.1101 66.8832L59.4319 66.285C59.3519 66.1685 59.3237 65.8993 59.5243 65.6985L61.0929 63.9398L59.2395 61.7754L61.8349 63.0805L62.6252 62.1206C62.8418 62.3337 62.7495 62.8917 62.7495 62.8917C63.5597 62.9118 65.8303 64.1687 65.9507 67.1C65.9588 67.1883 65.9588 67.2888 65.9588 67.385C65.9588 67.385 65.9789 67.4212 66.0187 67.4815C66.1793 67.7025 66.6206 68.2685 67.1821 68.3207L70.7683 68.6743H70.7843C71.1775 68.6743 71.9597 68.2123 72.9626 68.2123C73.5082 68.2123 74.1179 68.3529 74.7677 68.7624C74.7677 68.7624 75.0927 68.5055 75.6222 68.4772C75.6624 68.4734 75.7064 68.4734 75.7466 68.4734C77.3552 68.4734 78.0211 69.927 78.8835 71.1355C79.5333 72.0551 80.3997 73.4205 80.3997 73.4205C80.079 73.8019 79.782 74.0108 79.2846 74.0108C79.1482 74.0108 78.9917 73.9987 78.8232 73.9667C77.0984 73.6492 76.8497 70.0995 75.8668 69.8186C75.8148 69.8025 75.7586 69.7986 75.7105 69.7986C75.3934 69.7986 75.2531 70.0795 75.2531 70.0795C75.7023 71.2883 75.4417 71.7781 75.923 72.7098C76.2842 73.4003 76.9259 73.9707 77.1906 74.2397C77.1906 74.2476 77.1185 74.7697 77.0422 75.1632ZM57.7833 71.7741L57.9477 72.1877C57.8395 72.5492 56.5959 73.063 56.5959 73.063L56.3273 72.4769C56.0423 71.8506 56.1026 70.7942 56.9692 70.1478L58.9828 68.9191L61.1169 69.3729C61.0767 70.0515 61.4819 70.5575 61.4819 70.5575L59.2435 70.1277L57.9037 71.0553C57.6791 71.2119 57.6631 71.5051 57.7833 71.7741ZM77.3792 78.5484L77.9929 75.3439C78.025 75.1553 78.065 74.9343 78.0932 74.7497C78.2659 74.822 78.4501 74.8821 78.651 74.9182C78.8794 74.9623 79.092 74.9826 79.2846 74.9826C80.2233 74.9826 80.7688 74.4886 81.1338 74.0669L81.6072 73.5168L81.2221 72.9145C81.186 72.8543 80.3356 71.5051 79.6778 70.5814C79.5495 70.4007 79.4249 70.22 79.3005 70.0233C78.5546 68.9072 77.6198 67.5057 75.7466 67.5057L75.5781 67.5095C75.2693 67.5296 75.0044 67.5899 74.7917 67.6701C74.2021 67.3932 73.5964 67.2526 72.9668 67.2526C72.1924 67.2526 71.5385 67.4655 71.1054 67.6141C70.981 67.6503 70.8687 67.6902 70.7804 67.7063L67.2784 67.361C67.2343 67.3529 67.0898 67.2687 66.9174 67.0598V67.0438L67.6756 66.7386C67.4631 64.2127 65.04 62.6589 63.688 62.1327C63.6281 61.8798 63.5077 61.6269 63.2951 61.422L62.5408 60.7073L61.879 61.5024L61.5543 61.9078L56.6521 59.8921L59.8412 63.8995L58.5817 65.8069C58.1203 66.2969 58.6298 66.7869 58.6298 66.7869L59.9293 67.6822L61.2774 67.1804C61.3254 67.1804 61.3656 67.1923 61.4098 67.1964C61.3455 67.4011 61.2614 68.2044 61.2052 68.4291L58.8665 67.9673L56.4073 69.3568C55.1438 70.2844 54.9714 71.8222 55.4406 72.8744L55.7134 73.4726L56.1026 74.3159L56.9609 73.9586C56.9731 73.9544 56.9851 73.9506 56.993 73.9425C56.6842 74.9304 56.8088 75.87 57.3622 76.4882L57.8836 77.1469L58.5776 78.0264L59.3399 77.2071C59.5643 76.9824 60.2906 76.167 60.515 75.4684L60.6798 74.9343L60.3065 74.5248L60.2464 74.4525L60.6634 73.7618L63.7162 74.4805L64.4021 74.6371L64.7673 74.0348L64.9679 73.7054C65.0039 73.6373 65.016 73.6252 65.1563 73.6252C65.2647 73.6252 65.3731 73.6373 65.4894 73.6616C66.6405 73.8783 67.7036 73.9867 68.6464 73.9867C69.5608 73.9867 70.1064 73.9506 70.7605 73.7338C70.7605 73.7338 72.401 75.5968 72.4571 75.6693L71.4544 78.7691L71.41 78.9579C69.5088 79.1104 68.5821 79.5281 67.4631 80.6486C65.8382 79.0344 64.687 78.8656 60.3186 78.8656C55.0916 78.8656 51.5495 75.7977 51.5495 70.8988V58.9203H83.3681L83.3764 70.8988C83.3803 74.874 81.0496 77.6448 77.3792 78.5484ZM84.2589 39.5935C83.7733 40.8786 83.3681 42.2719 83.3681 43.6572L83.3722 52.5958C81.5071 52.2825 81.2863 50.2708 81.2782 50.1825L81.2422 49.7729L80.8411 49.7368C80.0307 49.6603 79.4933 49.3153 79.0398 48.8734C78.1254 47.9577 78.1212 46.4722 78.1254 46.4602C78.1133 46.5363 77.1185 47.9298 78.2738 49.4517C78.7592 50.0941 79.461 50.4876 80.3717 50.6444C80.5843 51.7606 81.4146 53.3347 83.3722 53.5755V57.9527H77.8686C75.3294 56.539 76.4044 54.0494 76.4565 53.9452L76.6731 53.4711L76.1879 53.2867C73.44 52.2664 74.1942 49.52 74.2342 49.4036L74.3465 49.002L73.9737 48.8253C71.7029 47.7733 72.0119 44.9343 72.0399 44.8176C71.342 45.384 71.0894 46.5404 71.5707 47.6729C71.3099 47.9701 70.9609 48.3312 70.5799 48.7249C68.2292 48.1265 68.157 45.9621 68.157 45.8619L68.1529 45.5285L67.8441 45.408C66.9255 45.0666 66.2956 44.5567 65.9868 43.87C65.6378 43.1111 65.7621 42.3159 65.8583 41.9346C66.1271 41.9947 66.3959 42.039 66.6527 42.059C66.9174 42.087 67.1902 42.1031 67.4631 42.1031H67.4791H67.4992C67.7719 42.1031 68.0406 42.087 68.3054 42.059C69.7695 41.9145 71.41 41.284 73.1189 39.5893H84.2589V39.5935ZM75.6823 30.5584L77.8565 31.8235H77.8887L78.4342 32.1407C77.2066 32.482 76.2679 33.0964 75.4817 33.9035C75.4537 33.9277 75.4256 33.9596 75.3976 33.9878C75.217 34.1806 75.0365 34.3895 74.868 34.6021C74.8361 34.6424 74.8038 34.6865 74.7677 34.7307C74.5992 34.9475 74.4429 35.1685 74.2904 35.4014C74.2663 35.4415 74.2381 35.4816 74.2102 35.5177C74.0298 35.7867 73.8572 36.076 73.6845 36.373C72.1363 39.0434 69.6651 40.6376 67.4669 40.6415C65.2728 40.6376 62.8018 39.0434 61.2533 36.373C61.0846 36.0841 60.9163 35.8028 60.7358 35.5296C60.6995 35.4776 60.6676 35.4254 60.6355 35.3813C60.4831 35.1603 60.3308 34.9435 60.1741 34.7387C60.1341 34.6825 60.098 34.6384 60.0578 34.5902C59.8895 34.3853 59.7169 34.1806 59.5442 33.9918C59.5082 33.9638 59.4843 33.9277 59.4483 33.8953C58.658 33.0883 57.7232 32.4778 56.4917 32.1407L57.0453 31.8235H57.0693L59.2435 30.5584L61.478 29.2777L67.4468 32.53L67.459 32.5181L67.4749 32.53L73.4439 29.2777L75.6823 30.5584ZM72.738 27.864L67.9803 30.3736V20.2145L74.4346 18.022L72.738 27.864ZM67.4631 19.0982L60.3867 16.2993C60.9886 14.8738 63.7643 13.6611 67.4631 13.6571C71.1655 13.6611 73.9413 14.8738 74.5391 16.2993L67.4631 19.0982Z" fill="black"/>
<path d="M12.7286 134.46V121.889H20.0943V117.315H0V121.889H7.36538V134.46H12.7286ZM27.6039 117.315H22.2407V134.46H27.6039V117.315ZM31.5287 117.315V134.46H36.4628V124.987L45.6517 134.46H50.2285V117.315H45.2942V126.716L36.3197 117.315H31.5287ZM60.7695 127.977L66.9549 134.46H73.8556L65.2387 125.528L73.534 117.315H67.0264L60.7695 123.762H59.3391V117.315H54.1547V134.46H59.3391V127.977H60.7695ZM84.5234 116.847C77.5513 116.847 73.3679 120.809 73.3679 125.924C73.3679 131.038 77.5513 135 84.5234 135C91.4598 135 95.6433 131.038 95.6433 125.924C95.6433 120.809 91.4598 116.847 84.5234 116.847ZM84.5234 130.822C81.0554 130.822 78.8384 128.733 78.8384 125.924C78.8384 123.114 81.0554 121.061 84.5234 121.061C87.9559 121.061 90.2084 123.114 90.2084 125.924C90.2084 128.733 87.9559 130.822 84.5234 130.822ZM115.305 117.315H98.1068V134.46H103.291V128.481H114.554V124.699H103.291V121.673H115.305V117.315ZM134.823 117.315H117.625V134.46H122.81V128.481H134.073V124.699H122.81V121.673H134.823V117.315Z" fill="black"/>
</g>
<defs>
<clipPath id="clip0_1003_29786">
<rect width="135" height="135" fill="white"/>
</clipPath>
</defs>
</svg>
