<svg width="90" height="90" viewBox="0 0 90 90" fill="none" xmlns="http://www.w3.org/2000/svg">
<path d="M7.90625 43.9991C7.90625 63.9016 24.098 80.0927 43.9999 80.0927C63.9017 80.0927 80.0935 63.9016 80.0935 43.9991C80.0935 24.0973 63.9017 7.90552 43.9999 7.90552C24.098 7.90552 7.90625 24.0973 7.90625 43.9991V43.9991ZM76.656 43.9991C76.656 62.0063 62.0064 76.6552 43.9999 76.6552C25.9933 76.6552 11.3437 62.0063 11.3437 43.9991C11.3437 25.9926 25.9933 11.343 43.9999 11.343C62.0064 11.343 76.656 25.9926 76.656 43.9991V43.9991Z" fill="black"/>
<path d="M77.9933 16.0616C71.6293 8.32591 62.7529 2.9488 53.0004 0.921216C52.0732 0.7292 51.1608 1.32472 50.9675 2.25458C50.7741 3.18378 51.3716 4.09351 52.3008 4.28686C70.9942 8.17351 84.5622 24.8749 84.5622 43.9992C84.5622 66.3657 66.3663 84.5616 43.9998 84.5616C21.6333 84.5616 3.43749 66.3657 3.43749 43.9992C3.43749 24.3572 17.4432 7.5706 36.7408 4.08478C37.6747 3.91626 38.2951 3.02198 38.1266 2.08808C37.9574 1.15419 37.0638 0.533156 36.1299 0.702345C26.1135 2.51105 16.9618 7.81499 10.3601 15.6366C3.67918 23.5529 0 33.6257 0 43.9992C0 55.7525 4.57683 66.8015 12.8872 75.1125C21.1976 83.4229 32.2472 87.9991 43.9998 87.9991C55.7524 87.9991 66.802 83.4222 75.1124 75.1125C83.4228 66.8015 87.9997 55.7525 87.9997 43.9992C87.9997 33.8264 84.446 23.904 77.9933 16.0616V16.0616Z" fill="black"/>
<path d="M44.2086 3.43749L44.3295 3.43816H44.3442C45.2862 3.43816 46.0542 2.67815 46.0623 1.73419C46.0704 0.784848 45.307 0.00872798 44.3583 0.000671384L44.2375 0C44.2321 0 44.2274 0 44.2227 0C43.2801 0 42.512 0.760007 42.504 1.70464C42.4966 2.65398 43.2593 3.42943 44.2086 3.43749V3.43749Z" fill="black"/>
<path d="M42.3037 16.4429C42.3037 16.8947 42.4877 17.3365 42.8072 17.6581C43.1288 17.9776 43.5706 18.1616 44.0225 18.1616C44.4763 18.1616 44.9181 17.9776 45.2377 17.6581C45.5593 17.3365 45.7432 16.8947 45.7432 16.4429C45.7432 15.9904 45.5593 15.5472 45.2377 15.2277C44.9194 14.9081 44.4763 14.7241 44.0225 14.7241C43.5706 14.7241 43.1275 14.9061 42.8072 15.2277C42.4877 15.5472 42.3037 15.989 42.3037 16.4429V16.4429Z" fill="black"/>
<path d="M43.9775 69.8374C43.5237 69.8374 43.0799 70.0214 42.7623 70.3409C42.4407 70.6605 42.2588 71.1043 42.2588 71.5561C42.2588 72.01 42.4407 72.4518 42.7623 72.7714C43.0819 73.0923 43.5237 73.2749 43.9775 73.2749C44.4294 73.2749 44.8711 73.0923 45.1921 72.7714C45.5123 72.4518 45.6963 72.008 45.6963 71.5561C45.6963 71.1043 45.5123 70.6625 45.1921 70.3409C44.8725 70.0214 44.4294 69.8374 43.9775 69.8374Z" fill="black"/>
<path d="M71.5566 45.7406C72.0091 45.7406 72.4523 45.558 72.7718 45.2384C73.0934 44.9168 73.2754 44.475 73.2754 44.0218C73.2754 43.5693 73.0934 43.1262 72.7718 42.8066C72.4523 42.4871 72.0105 42.3044 71.5566 42.3044C71.1048 42.3044 70.6617 42.4871 70.3421 42.8066C70.0218 43.1276 69.8379 43.5693 69.8379 44.0218C69.8379 44.4737 70.0218 44.9168 70.3421 45.2384C70.663 45.558 71.1048 45.7406 71.5566 45.7406Z" fill="black"/>
<path d="M16.4434 42.2583C15.9888 42.2583 15.5477 42.4409 15.2281 42.7605C14.9066 43.0801 14.7246 43.5232 14.7246 43.977C14.7246 44.4289 14.9066 44.8727 15.2281 45.1922C15.5477 45.5118 15.9895 45.6958 16.4434 45.6958C16.8952 45.6958 17.3383 45.5118 17.6579 45.1922C17.9775 44.8727 18.1621 44.4289 18.1621 43.977C18.1621 43.5232 17.9781 43.0801 17.6579 42.7605C17.3383 42.4402 16.8952 42.2583 16.4434 42.2583Z" fill="black"/>
<path d="M30.2412 18.4041C29.7894 18.4041 29.3456 18.588 29.026 18.9076C28.7064 19.2272 28.5225 19.671 28.5225 20.1228C28.5225 20.5746 28.7064 21.0184 29.026 21.338C29.3456 21.6576 29.7894 21.8415 30.2412 21.8415C30.693 21.8415 31.1368 21.6576 31.4564 21.338C31.776 21.0184 31.9599 20.5746 31.9599 20.1228C31.9599 19.671 31.776 19.2272 31.4564 18.9076C31.1368 18.588 30.693 18.4041 30.2412 18.4041Z" fill="black"/>
<path d="M57.7588 66.1575C57.3069 66.1575 56.8632 66.3414 56.5436 66.661C56.224 66.9806 56.04 67.4237 56.04 67.8762C56.04 68.3281 56.224 68.7718 56.5436 69.0914C56.8632 69.411 57.3069 69.595 57.7588 69.595C58.2106 69.595 58.6544 69.411 58.974 69.0914C59.2936 68.7718 59.4775 68.3281 59.4775 67.8762C59.4775 67.4237 59.2936 66.9806 58.974 66.661C58.6544 66.3414 58.2106 66.1575 57.7588 66.1575Z" fill="black"/>
<path d="M67.8769 31.9599C68.3288 31.9599 68.7719 31.776 69.0915 31.4557C69.4111 31.1362 69.5957 30.693 69.5957 30.2412C69.5957 29.7887 69.4117 29.3456 69.0915 29.026C68.7719 28.7064 68.3288 28.5225 67.8769 28.5225C67.4244 28.5225 66.9813 28.7057 66.6617 29.026C66.3422 29.3456 66.1582 29.7887 66.1582 30.2412C66.1582 30.693 66.3415 31.1362 66.6617 31.4557C66.9813 31.776 67.4244 31.9599 67.8769 31.9599Z" fill="black"/>
<path d="M20.123 56.0391C19.6712 56.0391 19.2281 56.223 18.9085 56.5426C18.5883 56.8622 18.4043 57.306 18.4043 57.7578C18.4043 58.2096 18.5883 58.6534 18.9085 58.973C19.2281 59.2926 19.6712 59.4765 20.123 59.4765C20.5756 59.4765 21.0187 59.2926 21.3382 58.973C21.6578 58.6534 21.8418 58.2096 21.8418 57.7578C21.8418 57.306 21.6585 56.8622 21.3382 56.5426C21.0187 56.223 20.5769 56.0391 20.123 56.0391Z" fill="black"/>
<path d="M46 40C44.9484 40 43.9172 40.4281 43.1734 41.1719C42.4281 41.9156 42 42.9484 42 44C42 45.0516 42.4281 46.0844 43.1734 46.8281C43.9172 47.5719 44.9484 48 46 48C47.0531 48 48.0844 47.5719 48.8281 46.8281C49.5719 46.0844 50 45.0516 50 44C50 42.9484 49.5734 41.9156 48.8281 41.1719C48.0844 40.4281 47.0563 40 46 40Z" fill="#AB54FF"/>
<path d="M20.1455 28.4827C19.693 28.4827 19.2499 28.666 18.9303 28.9862C18.6107 29.3058 18.4268 29.7476 18.4268 30.2014C18.4268 30.6533 18.61 31.095 18.9303 31.4159C19.2519 31.7355 19.693 31.9202 20.1455 31.9202C20.5994 31.9202 21.0411 31.7362 21.36 31.4159C21.6816 31.095 21.8642 30.6533 21.8642 30.2014C21.8642 29.7476 21.6816 29.3058 21.36 28.9862C21.0411 28.6666 20.5994 28.4827 20.1455 28.4827Z" fill="black"/>
<path d="M67.8535 59.5163C68.306 59.5163 68.7491 59.3324 69.0687 59.0128C69.3883 58.6932 69.5723 58.2494 69.5723 57.7976C69.5723 57.3458 69.3883 56.902 69.0687 56.5824C68.7491 56.2628 68.306 56.0789 67.8535 56.0789C67.3997 56.0789 66.9579 56.2628 66.6383 56.5824C66.3174 56.902 66.1348 57.3458 66.1348 57.7976C66.1348 58.2494 66.3174 58.6932 66.6383 59.0128C66.9565 59.3324 67.3997 59.5163 67.8535 59.5163Z" fill="black"/>
<path d="M57.7978 21.8638C58.2504 21.8638 58.6935 21.6811 59.0131 21.3616C59.3346 21.0406 59.5166 20.5969 59.5166 20.145C59.5166 19.6932 59.3346 19.2494 59.0131 18.9298C58.6935 18.6102 58.2504 18.4263 57.7978 18.4263C57.346 18.4263 56.9029 18.6102 56.5833 18.9298C56.2637 19.2494 56.0791 19.6932 56.0791 20.145C56.0791 20.5969 56.2631 21.0406 56.5833 21.3616C56.9029 21.6818 57.346 21.8638 57.7978 21.8638Z" fill="black"/>
<path d="M30.2012 66.1355C29.7473 66.1355 29.3062 66.3174 28.986 66.639C28.6664 66.9586 28.4824 67.4004 28.4824 67.8542C28.4824 68.3061 28.6664 68.7492 28.986 69.0688C29.3062 69.389 29.748 69.573 30.2012 69.573C30.6537 69.573 31.0968 69.389 31.4164 69.0688C31.7359 68.7479 31.9199 68.3061 31.9199 67.8542C31.9199 67.4017 31.7359 66.9586 31.4164 66.639C31.0968 66.3174 30.6537 66.1355 30.2012 66.1355Z" fill="black"/>
<path d="M58.1495 27.4405L47.118 38.4727C46.1962 37.9504 45.1327 37.6509 44.0001 37.6509C42.8729 37.6509 41.8148 37.9477 40.8963 38.4647L35.6226 33.1909C34.9512 32.5202 33.8636 32.5202 33.1915 33.1909C32.5208 33.8623 32.5208 34.9506 33.1915 35.622L38.4652 40.8951C37.9483 41.8135 37.6522 42.8723 37.6522 43.9989C37.6522 47.4995 40.4995 50.3475 44.0001 50.3475C47.5007 50.3475 50.3481 47.4995 50.3481 43.9989C50.3481 42.8777 50.0547 41.8243 49.5424 40.9092L60.5806 29.8716C61.2513 29.2002 61.2513 28.1119 60.5806 27.4405C59.9092 26.7698 58.8209 26.7698 58.1495 27.4405V27.4405ZM44.0001 46.91C42.3948 46.91 41.0897 45.6042 41.0897 43.9989C41.0897 42.3943 42.3948 41.0884 44.0001 41.0884C45.6054 41.0884 46.9106 42.3943 46.9106 43.9989C46.9106 45.6042 45.6054 46.91 44.0001 46.91V46.91Z" fill="black"/>
<path d="M51.4886 58.4368H36.5537C35.6044 58.4368 34.835 59.2068 34.835 60.1555C34.835 61.1048 35.6044 61.8743 36.5537 61.8743H51.4886C52.438 61.8743 53.2074 61.1048 53.2074 60.1555C53.2074 59.2068 52.438 58.4368 51.4886 58.4368Z" fill="black"/>
</svg>
