<svg width="90" height="90" viewBox="0 0 90 90" fill="none" xmlns="http://www.w3.org/2000/svg">
<ellipse cx="68.2335" cy="24.4074" rx="10.4503" ry="10.1201" fill="#AB54FF"/>
<path d="M69.7707 20.5378L61.7793 28.2767" stroke="white" stroke-width="2" stroke-linecap="round" stroke-linejoin="round"/>
<path d="M61.7793 20.5378L69.7707 28.2767" stroke="white" stroke-width="2" stroke-linecap="round" stroke-linejoin="round"/>
<path d="M39.8418 75.3066C40.5316 75.7806 41.3264 75.9261 42.1404 75.7263C42.3444 75.6764 42.5946 75.5896 42.8817 75.4418C43.0617 75.8341 43.3527 76.2106 43.7892 76.5584C45.5668 77.9747 48.3452 77.4961 49.9323 76.0293C50.1777 75.8025 50.3918 75.5579 50.573 75.2997C52.0819 76.0619 54.7555 76.4997 59.41 75.1895C60.1075 74.9931 60.5087 74.2864 60.3059 73.6108C60.1031 72.9352 59.3732 72.5465 58.6757 72.7432C52.7586 74.4088 51.3525 72.7918 51.186 72.5582C51.0065 71.9542 50.4145 71.632 49.7644 71.7189C49.1016 71.8079 48.6364 72.4344 48.6532 73.0824C48.6665 73.5986 48.3221 73.996 48.1156 74.187C47.626 74.6397 46.9262 74.8938 46.2936 74.85C45.9346 74.8252 45.6387 74.7332 45.4604 74.5913C45.1113 74.3129 45.2434 73.8035 46.0752 72.2214C46.3383 71.721 46.6104 71.2036 46.8135 70.679C47.0596 70.0433 46.7478 69.3324 46.1043 69.0626C45.4608 68.7932 44.7121 69.0596 44.4022 69.6685C43.8933 70.6683 43.2886 71.6755 42.508 72.502C42.0592 72.9773 41.0354 73.7259 41.1719 72.4833C41.2994 71.3241 42.0871 70.3872 42.7341 69.4532C43.1841 68.8038 43.694 68.0675 44.1999 67.6764C44.7675 67.2376 44.8602 66.4362 44.4073 65.8864C43.9542 65.3367 43.1268 65.2468 42.5576 65.6864C41.7912 66.2785 41.0329 66.8713 40.2771 67.4622C37.3982 69.7126 34.6789 71.8384 31.6579 73.8315C31.0576 74.2275 30.9024 75.0199 31.3114 75.6013C31.7205 76.1827 32.5386 76.333 33.139 75.9369C35.0239 74.6935 36.8277 73.3738 38.5781 72.0413C38.5699 72.0985 38.5627 72.156 38.5562 72.2139C38.4104 73.5382 38.8668 74.6365 39.8418 75.3066V75.3066Z" fill="black"/>
<path d="M8.48336 12.0586H47.5337C48.2601 12.0586 48.8491 11.4884 48.8491 10.7848C48.8491 10.0814 48.2603 9.51099 47.5337 9.51099H8.48336C7.75695 9.51099 7.16797 10.0812 7.16797 10.7848C7.16814 11.4883 7.75695 12.0586 8.48336 12.0586Z" fill="black"/>
<path d="M8.48336 18.8238H44.3094C45.0358 18.8238 45.6248 18.2536 45.6248 17.5499C45.6248 16.8465 45.0358 16.2761 44.3094 16.2761H8.48336C7.75695 16.2761 7.16797 16.8463 7.16797 17.5499C7.16814 18.2534 7.75695 18.8238 8.48336 18.8238Z" fill="black"/>
<path d="M8.48336 25.5892H44.3094C45.0358 25.5892 45.6248 25.019 45.6248 24.3153C45.6248 23.6117 45.0358 23.0415 44.3094 23.0415H8.48336C7.75695 23.0415 7.16797 23.6119 7.16797 24.3153C7.16797 25.0188 7.75695 25.5892 8.48336 25.5892Z" fill="black"/>
<path d="M8.48336 32.3545H47.5337C48.2601 32.3545 48.8491 31.7842 48.8491 31.0807C48.8491 30.3773 48.2603 29.8069 47.5337 29.8069H8.48336C7.75695 29.8069 7.16797 30.3773 7.16797 31.0807C7.16797 31.7842 7.75695 32.3545 8.48336 32.3545Z" fill="black"/>
<path d="M8.48336 39.1197H50.568C51.2944 39.1197 51.8834 38.5493 51.8834 37.8458C51.8834 37.1424 51.2944 36.572 50.568 36.572H8.48336C7.75695 36.572 7.16797 37.1422 7.16797 37.8458C7.16797 38.5495 7.75695 39.1197 8.48336 39.1197Z" fill="black"/>
<path d="M8.48336 45.8854H56.3109C57.0373 45.8854 57.6263 45.3152 57.6263 44.6115C57.6263 43.9081 57.0373 43.3379 56.3109 43.3379H8.48336C7.75695 43.3379 7.16797 43.9081 7.16797 44.6115C7.16814 45.3152 7.75695 45.8854 8.48336 45.8854V45.8854Z" fill="black"/>
<path d="M8.48336 52.6504H56.3109C57.0373 52.6504 57.6263 52.0802 57.6263 51.3766C57.6263 50.6732 57.0373 50.1028 56.3109 50.1028H8.48336C7.75695 50.1028 7.16797 50.673 7.16797 51.3766C7.16814 52.0801 7.75695 52.6504 8.48336 52.6504V52.6504Z" fill="black"/>
<path d="M8.48336 59.4161H56.3109C57.0373 59.4161 57.6263 58.8459 57.6263 58.1425C57.6263 57.439 57.0373 56.8687 56.3109 56.8687H8.48336C7.75695 56.8687 7.16797 57.4389 7.16797 58.1425C7.16814 58.8458 7.75695 59.4161 8.48336 59.4161V59.4161Z" fill="black"/>
<path d="M67.5283 10.2582V2.86424C67.5283 1.28486 66.2014 0 64.5706 0H2.9577C1.32679 0 0 1.28486 0 2.86424V84.0492C0 85.6286 1.32679 86.9134 2.9577 86.9134H20.8585C21.5849 86.9134 22.1739 86.3432 22.1739 85.6396C22.1739 84.9361 21.5851 84.3658 20.8585 84.3658H2.9577C2.77733 84.3658 2.63061 84.2237 2.63061 84.049V2.86424C2.63061 2.68956 2.77733 2.54748 2.9577 2.54748H64.5706C64.751 2.54748 64.8977 2.68956 64.8977 2.86424V10.2576C62.3486 10.489 59.9461 11.3913 57.8851 12.906C57.3065 13.3312 57.1934 14.1302 57.6325 14.6906C58.0715 15.2508 58.8966 15.3606 59.4754 14.9352C61.4264 13.5013 63.7562 12.7435 66.2129 12.7435C72.3646 12.7435 77.3696 17.5901 77.3696 23.5476C77.3696 29.5051 72.3648 34.3517 66.2129 34.3517C60.061 34.3517 55.0563 29.5051 55.0563 23.5476C55.0563 21.9684 55.3997 20.4469 56.0772 19.0257C56.3817 18.3869 56.0937 17.6302 55.4342 17.3353C54.7744 17.0405 53.9931 17.3194 53.6888 17.958C52.8508 19.7164 52.4258 21.597 52.4258 23.5474C52.4258 30.4798 57.9104 36.1932 64.8977 36.8367V84.0492C64.8977 84.2238 64.751 84.3659 64.5706 84.3659H26.9673C26.2409 84.3659 25.6519 84.9361 25.6519 85.6398C25.6519 86.3432 26.2407 86.9136 26.9673 86.9136H64.5704C66.2014 86.9136 67.5281 85.6287 67.5281 84.0493V36.8367C74.5156 36.193 80 30.4798 80 23.5474C80 16.6151 74.5156 10.9017 67.5283 10.2582V10.2582Z" fill="black"/>
</svg>
