<svg width="90" height="90" viewBox="0 0 90 90" fill="none" xmlns="http://www.w3.org/2000/svg">
<path d="M62.913 17.55C61.6946 17.55 60.4293 17.55 59.164 17.55C57.1255 17.55 55.0635 17.55 53.025 17.55C51.83 17.55 51.3848 17.0814 51.3848 15.9098C51.3848 12.7465 51.3848 9.58331 51.3848 6.4435C51.3848 6.27948 51.4082 6.11546 51.4082 6.04517C55.2275 9.84105 59.0468 13.6838 62.913 17.55Z" fill="#AB54FF"/>
<path d="M55.4383 55.392C54.9931 55.1343 54.5948 54.9937 54.3136 54.7125C53.1655 53.6347 52.0408 52.5334 50.9161 51.4087C50.1897 50.7057 50.1428 49.8622 50.752 49.2295C51.3378 48.6203 52.1814 48.6438 52.9312 49.3233C53.3764 49.745 53.8216 50.1902 54.2668 50.5886C55.0869 51.3618 55.7429 51.3618 56.5396 50.5651C58.0626 49.0187 59.5388 47.4488 61.0853 45.9257C61.3665 45.6445 61.8351 45.2696 62.1631 45.3165C62.6786 45.3868 63.2879 45.668 63.5925 46.0429C64.0142 46.5584 63.8268 47.2144 63.3581 47.7065C62.3506 48.7609 61.3196 49.8153 60.3121 50.8463C59.1405 52.0647 57.9689 53.2832 56.7505 54.4782C56.3756 54.8765 55.8835 55.1108 55.4383 55.392Z" fill="#AB54FF"/>
<path d="M0 3.18667C0.796668 0.84353 2.4603 0 4.92059 0C19.1903 0.0468628 33.4366 0.0234314 47.7063 0C48.5967 0 49.2528 0.257745 49.862 0.890393C54.9701 6.0453 60.125 11.1768 65.2564 16.2848C65.8422 16.8706 66.1 17.4564 66.1 18.2999C66.0531 21.3694 66.1 24.4389 66.0765 27.5319C66.0765 28.0942 66.2171 28.3989 66.7326 28.7035C72.6608 32.1947 76.4098 37.3028 77.9328 44.051C77.9797 44.3088 78.05 44.5665 78.05 44.8243C78.0968 45.5741 77.7922 46.0661 77.0424 46.2536C76.3161 46.4176 75.7303 46.0427 75.5194 45.2929C75.2382 44.2853 75.0273 43.2544 74.6993 42.2468C71.7235 33.3429 62.9602 27.6022 53.5173 28.352C44.2619 29.0784 36.5998 36.0609 34.9596 45.1757C32.5696 58.5082 43.3012 70.4114 56.7977 69.4038C66.8732 68.654 74.957 60.5936 75.7537 50.4947C75.824 49.4637 76.3629 48.9013 77.1596 48.9248C78.0031 48.9716 78.4717 49.6277 78.378 50.7055C78.05 54.5717 76.855 58.1333 74.8164 61.32C75.8943 62.3978 76.9487 63.4522 78.0266 64.5301C79.0107 64.0849 79.3387 64.1552 80.2525 65.069C82.8534 67.6699 85.4777 70.2708 88.0786 72.8951C89.9297 74.7462 90.4452 76.9721 89.6017 79.4324C88.7816 81.8459 87.0008 83.2049 84.4936 83.5564C82.6191 83.8141 80.9086 83.3221 79.5496 82.0099C76.691 79.245 73.9026 76.3864 71.0909 73.5746C70.4582 72.9419 70.4816 72.239 70.9503 71.5829C69.8724 70.5051 68.8414 69.4741 67.787 68.4197C67.7636 68.4197 67.7167 68.4197 67.6699 68.4431C66.3811 68.9117 66.0062 69.8021 66.0531 71.1846C66.1468 75.8006 66.0297 80.44 66.1234 85.056C66.1703 87.5163 65.2799 89.1565 62.9133 89.9531C42.9966 89.9531 23.0799 89.9531 3.16324 89.9531C1.5699 89.4377 0.515491 88.3832 0 86.7899C0 64.4832 0 42.1531 0 19.823C0.468628 19.284 0.960687 18.7686 1.78079 19.0966C2.60088 19.4246 2.64775 20.1041 2.64775 20.8305C2.64775 42.2937 2.64775 63.7568 2.64775 85.2434C2.64775 87.0008 2.97579 87.3288 4.75657 87.3288C23.6423 87.3288 42.528 87.3288 61.4371 87.3288C63.1476 87.3288 63.4757 87.0008 63.4757 85.2669C63.4757 80.7212 63.4757 76.1989 63.4757 71.6532C63.4757 71.3252 63.4757 71.0206 63.4757 70.6925C61.9995 71.044 60.5936 71.4658 59.1643 71.7001C57.8521 71.911 56.4931 72.0516 55.1575 72.0516C45.6209 72.075 36.0609 72.075 26.5243 72.075C26.29 72.075 26.0557 72.0984 25.8214 72.0516C25.1185 71.9578 24.6967 71.5361 24.6498 70.8331C24.603 70.177 24.9544 69.7084 25.5871 69.521C25.8917 69.4272 26.2197 69.4272 26.5478 69.4272C32.0776 69.4272 37.6074 69.4272 43.1606 69.4272C43.4652 69.4272 43.7933 69.4272 44.051 69.4272C42.5046 68.2322 40.9581 67.0372 39.4116 65.8891C39.1773 65.7251 38.8024 65.7016 38.4978 65.7016C34.6082 65.6782 30.7186 65.7016 26.8055 65.7016C26.5478 65.7016 26.2666 65.7251 26.0089 65.6782C25.1653 65.6079 24.6498 65.0924 24.6498 64.3661C24.6498 63.5928 25.1888 63.0539 26.1026 63.0539C29.2892 63.0305 32.4759 63.0539 35.686 63.0539C35.9906 63.0539 36.2952 63.0539 36.7639 63.0539C36.3421 62.3978 35.9906 61.9058 35.6626 61.3903C34.1864 59.1174 33.132 56.6337 32.5696 53.9859C32.4291 53.3533 32.1713 53.2127 31.5621 53.2127C29.8985 53.2596 28.2348 53.2361 26.5478 53.2127C26.3135 53.2127 26.0791 53.2361 25.8448 53.1893C25.095 53.0721 24.603 52.5332 24.6264 51.8303C24.6498 51.1273 25.1653 50.5884 25.9386 50.5884C27.6022 50.565 29.2658 50.5884 30.9529 50.565C31.2575 50.565 31.5855 50.565 31.9604 50.565C31.9604 49.2762 31.9604 48.0578 31.9604 46.7456C30.1796 46.7456 28.3989 46.7456 26.6181 46.7456C25.259 46.7456 24.6264 46.3239 24.6264 45.4335C24.6264 44.5431 25.259 44.0979 26.5946 44.0979C28.4691 44.0979 30.3437 44.0979 32.2182 44.0745C32.265 44.0745 32.3353 44.051 32.4759 44.0042C33.2023 40.6769 34.6082 37.584 36.7873 34.655C36.2952 34.655 35.9906 34.655 35.686 34.655C32.6634 34.655 29.6641 34.655 26.6415 34.655C26.3135 34.655 25.9151 34.7488 25.7042 34.5847C25.3059 34.2801 24.767 33.8584 24.7201 33.4366C24.6967 33.0148 25.1419 32.4759 25.5168 32.1479C25.7511 31.937 26.2432 32.0073 26.6181 32.0073C30.5311 32.0073 34.4676 32.0307 38.3806 31.9839C38.8493 31.9839 39.3647 31.7495 39.7631 31.4684C41.1924 30.4608 42.5748 29.383 44.0745 28.2583C43.7464 28.2583 43.4418 28.2583 43.1606 28.2583C37.6308 28.2583 32.101 28.2583 26.5478 28.2583C26.2197 28.2583 25.8917 28.2583 25.5871 28.188C24.9076 27.9771 24.5561 27.485 24.6498 26.7821C24.7201 26.126 25.1185 25.7277 25.798 25.634C25.9386 25.6105 26.0791 25.6105 26.2432 25.6105C36.0141 25.6105 45.8084 25.6105 55.5793 25.6105C58.0864 25.6105 60.5233 26.0791 62.8899 26.8758C63.0539 26.9227 63.2179 26.9695 63.4288 27.0164C63.4288 24.3452 63.4288 21.7209 63.4288 18.956C63.1008 18.956 62.7961 18.956 62.4915 18.956C58.8128 18.956 55.1106 18.956 51.4319 18.956C48.7373 18.956 47.1205 17.3392 47.1205 14.6446C47.1205 10.9893 47.1205 7.33403 47.1205 3.6553C47.1205 3.32726 47.1205 3.02265 47.1205 2.60089C46.7456 2.60089 46.441 2.60089 46.113 2.60089C32.2885 2.60089 18.4639 2.60089 4.63942 2.60089C2.99922 2.60089 2.64775 2.95236 2.64775 4.61599C2.64775 7.91981 2.64775 11.2236 2.64775 14.5509C2.64775 15.3007 2.53059 16.0036 1.73392 16.2614C0.937256 16.5894 0.398334 16.1442 0 15.4882C0 11.3877 0 7.28717 0 3.18667ZM73.8558 72.6608C76.2223 75.0273 78.6123 77.3939 81.0023 79.7839C82.6425 81.4007 84.8217 81.471 86.3213 79.9714C87.774 78.4952 87.7037 76.3161 86.1338 74.7227C84.025 72.5905 81.9162 70.5051 79.8073 68.3728C79.5262 68.0916 79.3387 67.7167 79.1278 67.4121C77.2533 69.2632 75.5897 70.9034 73.8558 72.6608ZM61.2731 16.3785C57.4069 12.5124 53.5876 8.66962 49.7683 4.8503C49.7683 4.92059 49.7449 5.08461 49.7449 5.24863C49.7449 8.41187 49.7449 11.5751 49.7449 14.7149C49.7449 15.9099 50.2135 16.3551 51.3851 16.3551C53.4236 16.3551 55.4855 16.3551 57.5241 16.3551C58.7894 16.3785 60.0781 16.3785 61.2731 16.3785ZM72.8716 69.4741C73.8558 68.49 74.8399 67.4824 75.7771 66.5452C74.9336 65.7016 73.9963 64.7644 73.1762 63.9443C72.2156 64.905 71.208 65.8891 70.2708 66.8498C71.0909 67.6933 72.0281 68.6071 72.8716 69.4741Z" fill="black"/>
<path d="M20.7137 30.2265C20.7137 31.1403 20.7372 32.0307 20.7137 32.9445C20.6903 34.7488 19.4719 35.9906 17.6911 36.0375C15.7931 36.0609 13.8952 36.0843 11.9973 36.0375C10.3336 36.014 9.09177 34.8425 9.04491 33.1789C8.97461 31.1872 8.97461 29.1955 9.04491 27.2273C9.1152 25.5402 10.3102 24.3921 11.9973 24.3686C13.9186 24.3218 15.8634 24.3218 17.7848 24.3686C19.4953 24.4155 20.6669 25.6574 20.7137 27.3444C20.7372 28.2817 20.7137 29.2424 20.7137 30.2265ZM18.0894 30.1796C18.0894 29.3361 18.066 28.4926 18.0894 27.649C18.1129 27.157 17.902 26.9695 17.4099 26.9695C15.7229 26.9695 14.0124 26.9695 12.3253 26.9695C11.8332 26.9695 11.6458 27.1804 11.6458 27.649C11.6458 29.3361 11.6458 31.0466 11.6458 32.7337C11.6458 33.2023 11.8332 33.4132 12.3253 33.4132C14.0124 33.3897 15.7229 33.3897 17.4099 33.4132C17.902 33.4132 18.0894 33.2257 18.0894 32.7337C18.066 31.8667 18.0894 31.0232 18.0894 30.1796Z" fill="black"/>
<path d="M20.7372 67.5996C20.7372 68.5134 20.7372 69.4038 20.7372 70.3176C20.7138 72.1687 19.5187 73.4105 17.6677 73.434C15.8166 73.4574 13.9889 73.4574 12.1379 73.434C10.3102 73.4105 9.09178 72.239 9.04491 70.4348C8.99805 68.5368 8.99805 66.6389 9.04491 64.7409C9.09178 62.9367 10.3336 61.7651 12.1613 61.7417C13.9655 61.7183 15.7932 61.7183 17.5974 61.7417C19.4953 61.7651 20.7138 62.9836 20.7372 64.8815C20.7372 65.7719 20.7372 66.6857 20.7372 67.5996ZM18.0894 67.5996C18.0894 66.7795 18.066 65.9594 18.0894 65.1393C18.1129 64.5769 17.9254 64.3426 17.3396 64.3426C15.676 64.366 14.0124 64.366 12.3487 64.3426C11.8801 64.3426 11.6458 64.5066 11.6458 64.9987C11.6458 66.6857 11.6458 68.3962 11.6458 70.0833C11.6458 70.5519 11.8098 70.7862 12.3019 70.7862C13.9889 70.7628 15.6994 70.7628 17.3865 70.7862C17.9254 70.7862 18.0894 70.5285 18.0894 70.0364C18.066 69.2398 18.0894 68.4197 18.0894 67.5996Z" fill="black"/>
<path d="M14.8559 54.5248C13.9186 54.5248 12.9814 54.5482 12.0441 54.5248C10.3336 54.5014 9.1152 53.4001 9.04491 51.713C8.97461 49.6979 8.97461 47.6594 9.04491 45.6443C9.1152 43.9807 10.3102 42.9028 11.9738 42.8794C13.8952 42.856 15.84 42.856 17.7614 42.8794C19.4719 42.9028 20.6669 44.1213 20.6903 45.8552C20.7137 47.7531 20.7137 49.6745 20.6903 51.5724C20.6669 53.2829 19.425 54.4779 17.738 54.5248C16.8007 54.5482 15.84 54.5248 14.8559 54.5248ZM11.7864 51.877C13.7546 51.877 15.676 51.9005 17.5974 51.8536C17.7614 51.8536 18.0426 51.4319 18.066 51.221C18.1129 49.5573 18.066 47.8937 18.0894 46.2301C18.0894 45.6912 17.8785 45.5271 17.3631 45.5271C15.6994 45.5506 14.0358 45.5506 12.3722 45.5271C11.8332 45.5271 11.6458 45.738 11.6692 46.2535C11.6927 47.9171 11.6692 49.5808 11.6927 51.2444C11.6692 51.4319 11.7395 51.6193 11.7864 51.877Z" fill="black"/>
<path d="M72.4494 48.8779C72.4025 56.1417 67.7631 62.7025 60.9211 65.069C53.9386 67.5059 46.3 65.3033 41.7308 59.5392C41.0513 58.6957 41.0513 57.899 41.7074 57.3835C42.3635 56.868 43.1133 57.0789 43.8162 57.899C47.7761 62.5619 52.7904 64.413 58.742 62.9368C64.6467 61.4606 68.2552 57.5007 69.497 51.5491C71.4418 42.1297 63.358 33.3664 53.7277 34.4208C46.2062 35.2409 40.5358 41.5205 40.6764 48.9951C40.6999 50.3307 41.0982 51.6428 41.2622 52.9784C41.3325 53.4471 41.3794 54.0328 41.145 54.3843C40.9342 54.7124 40.2781 55.0404 39.9266 54.9467C39.4814 54.8295 38.9659 54.3375 38.8253 53.8923C37.7944 50.7525 37.7475 47.5658 38.6145 44.3791C40.7701 36.553 48.0573 31.2341 56.0006 31.6793C64.2484 32.1479 70.8795 38.0526 72.2151 46.1599C72.3322 47.0737 72.3557 47.9875 72.4494 48.8779Z" fill="black"/>
<path d="M53.5646 46.6754C54.9939 45.3164 56.3998 43.9808 57.8057 42.6687C59.0475 41.4971 60.5003 41.1456 62.0936 41.7314C63.6635 42.2937 64.5539 43.4653 64.7414 45.1289C64.8819 46.3708 64.5305 47.4721 63.6635 48.3625C61.3438 50.7759 59.0475 53.1659 56.681 55.5325C55.0173 57.1961 52.6273 57.1727 50.9168 55.5794C49.675 54.4312 48.4565 53.2362 47.2615 52.0178C45.6213 50.3542 45.6213 47.8704 47.1912 46.2537C48.7377 44.6603 51.1746 44.59 52.8851 46.0896C53.1663 46.3005 53.424 46.5583 53.5646 46.6754ZM53.7989 54.2203C54.2441 53.9157 54.7362 53.7048 55.0876 53.3534C56.3061 52.1584 57.4542 50.9399 58.6492 49.7215C59.6802 48.6671 60.6877 47.6361 61.6953 46.5817C62.1639 46.0896 62.3514 45.4101 61.9296 44.9181C61.625 44.5197 61.0158 44.2386 60.5003 44.1917C60.1722 44.1448 59.7036 44.5197 59.4224 44.8009C57.8994 46.3239 56.3998 47.8939 54.8767 49.4403C54.0801 50.237 53.424 50.237 52.6039 49.4638C52.1587 49.042 51.7369 48.5968 51.2683 48.1985C50.5419 47.519 49.675 47.4955 49.0892 48.1047C48.48 48.7374 48.5268 49.5575 49.2532 50.2839C50.3779 51.4086 51.5026 52.5098 52.6508 53.5877C52.9319 53.822 53.3303 53.9626 53.7989 54.2203Z" fill="black"/>
</svg>
