<svg width="138" height="138" viewBox="0 0 138 138" fill="none" xmlns="http://www.w3.org/2000/svg">
<path d="M108.835 127.979L27.3179 128.102V97.8722C27.3179 89.1113 32.4842 81.413 39.9753 79.0112L74.8818 67.8197L109.788 79.0112C117.279 81.413 122.446 89.1113 122.446 97.8722V114.348C122.445 121.868 116.355 127.968 108.835 127.979Z" fill="#AB54FF"/>
<path d="M96.5455 29.1207V46.0351C96.5455 58.0667 86.792 67.82 74.7607 67.82C62.7291 67.82 52.9758 58.0665 52.9758 46.0351V29.1207L64.5258 21.8762L96.5455 29.1207Z" fill="#FFC0A6"/>
<path d="M65.3209 45.4033C66.5092 45.4033 67.4725 44.44 67.4725 43.2516C67.4725 42.0633 66.5092 41.1 65.3209 41.1C64.1325 41.1 63.1692 42.0633 63.1692 43.2516C63.1692 44.44 64.1325 45.4033 65.3209 45.4033Z" fill="#4A4C5F"/>
<path d="M82.7488 45.4033C83.9372 45.4033 84.9005 44.44 84.9005 43.2516C84.9005 42.0633 83.9372 41.1 82.7488 41.1C81.5605 41.1 80.5972 42.0633 80.5972 43.2516C80.5972 44.44 81.5605 45.4033 82.7488 45.4033Z" fill="#4A4C5F"/>
<path d="M91.2247 60.167C89.9614 58.8387 88.1787 58.0096 86.2012 58.0096H56.4557C60.352 63.9186 67.0448 67.8203 74.652 67.8203C81.2892 67.82 87.2289 64.8482 91.2247 60.167Z" fill="#FFA992"/>
<path d="M74.8852 60.1613C71.8368 60.1613 68.987 58.8015 67.0666 56.4302C66.3187 55.5068 66.461 54.1518 67.3844 53.4039C68.3078 52.6559 69.6628 52.7982 70.4107 53.7217C71.5101 55.079 73.1411 55.8577 74.8849 55.8577C76.639 55.8577 78.2759 55.0717 79.3756 53.7014C80.1195 52.7748 81.4736 52.6263 82.4005 53.3702C83.3274 54.1138 83.4757 55.4682 82.7318 56.3951C80.8114 58.7886 77.9511 60.1613 74.8852 60.1613Z" fill="#4A4C5F"/>
<path d="M122.445 114.348V97.8722C122.445 90.6382 118.921 84.1317 113.476 80.7302C109.248 84.5298 106.833 89.9469 106.833 95.6313V100.425V113.117H93.2437V127.815H110.932C117.455 126.798 122.445 121.155 122.445 114.348Z" fill="#7231E5"/>
<path d="M74.7433 67.8199L40.7206 78.7281C64.2515 83.2943 82.216 103.451 83.4246 128.017L98.2159 127.995C98.2499 127.697 98.2693 127.394 98.2693 127.087V75.3628L74.7433 67.8199Z" fill="#7231E5"/>
<path d="M98.2692 127.087V113.117H93.2433V127.815H98.2315C98.2539 127.575 98.2692 127.333 98.2692 127.087Z" fill="#7231E5"/>
<path d="M131.703 134.987H85.343L93.2432 127.815H138V128.691C138 132.168 135.181 134.987 131.703 134.987Z" fill="#4A4C5F"/>
<path d="M85.3431 134.987H7.35524C3.29313 134.987 0 131.695 0 127.632V69.9089C0 66.0794 3.10446 62.975 6.93396 62.975H86.3093C90.1388 62.975 93.2433 66.0794 93.2433 69.9089V127.087C93.2433 131.45 89.7063 134.987 85.3431 134.987Z" fill="#ECEAEC"/>
<path opacity="0.3" d="M86.3093 62.9751H6.93396C3.10446 62.9751 0 66.0793 0 69.9088V77.754H25.5589C54.7777 77.754 78.4644 101.441 78.4644 130.66V134.987H85.3431C89.7063 134.987 93.2433 131.45 93.2433 127.087V69.9088C93.2433 66.0793 90.1388 62.9751 86.3093 62.9751Z" fill="#B6B1B7"/>
<path d="M46.6208 105.868C50.4237 105.868 53.5065 102.786 53.5065 98.9826C53.5065 95.1798 50.4237 92.0969 46.6208 92.0969C42.8179 92.0969 39.7351 95.1798 39.7351 98.9826C39.7351 102.786 42.8179 105.868 46.6208 105.868Z" fill="white"/>
<path d="M56.4938 15.8495C55.4755 17.4804 54.1087 20.1081 53.3853 23.595C52.7578 26.6189 52.8379 29.2118 53.0336 30.9982C55.4841 30.3934 57.3967 29.5274 58.7217 28.8156C59.2446 28.5344 61.8294 27.1202 64.5256 24.5082L56.4938 15.8495Z" fill="#4A4C5F"/>
<path d="M102.01 27.6898C102.642 27.4359 102.974 26.7426 102.782 26.089C101.039 20.1615 98.2623 14.5701 93.912 10.3621C92.4102 8.90963 86.767 3.45081 78.4148 3.01929C78.4148 3.01929 69.6995 2.56917 62.1739 8.97297C59.9033 10.905 58.0341 13.2475 56.4938 15.8495C63.4984 25.8715 74.0069 32.2446 85.7568 32.2446C88.6502 32.2446 94.6961 31.3621 97.5849 29.4663L102.01 27.6898Z" fill="#585A6A"/>
<path d="M99.6029 44.6849H96.4373V32.1331H99.6029C101.285 32.1331 102.648 33.4963 102.648 35.178V41.6402C102.648 43.3218 101.285 44.6849 99.6029 44.6849Z" fill="#FFA992"/>
<path d="M49.6666 32.1331H52.9953V44.6849H49.6666C47.985 44.6849 46.6217 43.3216 46.6217 41.64V35.1777C46.6217 33.4963 47.985 32.1331 49.6666 32.1331Z" fill="#FFA992"/>
</svg>
