<svg width="22" height="22" viewBox="0 0 22 22" fill="none" xmlns="http://www.w3.org/2000/svg">
<path fill-rule="evenodd" clip-rule="evenodd" d="M11 21C16.5228 21 21 16.5228 21 11C21 5.47715 16.5228 1 11 1C5.47715 1 1 5.47715 1 11C1 16.5228 5.47715 21 11 21Z" stroke="#FDE126" stroke-width="2"/>
<path d="M10 6.99489V10.9744C10 11.5239 10.4498 11.9693 11.0046 11.9693C11.5594 11.9693 12.0092 11.5239 12.0092 10.9744V6.99489C12.0092 6.44543 11.5594 6 11.0046 6C10.4498 6 10 6.44543 10 6.99489Z" fill="#FDE126"/>
<path d="M10.2942 14.6984C10.6866 15.0869 11.3226 15.0869 11.7149 14.6984C12.1072 14.3099 12.1072 13.6799 11.7149 13.2914C11.3226 12.9029 10.6866 12.9029 10.2942 13.2914C9.90192 13.6799 9.90192 14.3099 10.2942 14.6984Z" fill="#FDE126"/>
</svg>
