<svg width="19" height="19" viewBox="0 0 19 19" fill="none" xmlns="http://www.w3.org/2000/svg">
<path d="M6.5445 11.6217C6.39883 11.6217 6.30067 11.636 6.25 11.6502V12.5828C6.31017 12.597 6.38537 12.601 6.48908 12.601C6.86829 12.601 7.10183 12.4094 7.10183 12.0856C7.10183 11.7959 6.90075 11.6217 6.5445 11.6217ZM9.30504 11.6312C9.14671 11.6312 9.04379 11.6455 8.98283 11.6597V13.726C9.04379 13.7402 9.14196 13.7402 9.23062 13.7402C9.87742 13.745 10.2986 13.3887 10.2986 12.635C10.3033 11.978 9.91937 11.6312 9.30504 11.6312Z" fill="#7245FF"/>
<path d="M11.0837 1.58337H4.75033C3.87633 1.58337 3.16699 2.29271 3.16699 3.16671V15.8334C3.16699 16.7074 3.87633 17.4167 4.75033 17.4167H14.2503C15.1243 17.4167 15.8337 16.7074 15.8337 15.8334V6.33337L11.0837 1.58337ZM7.51957 12.8171C7.27495 13.0467 6.91395 13.1496 6.49357 13.1496C6.39937 13.1496 6.31466 13.1449 6.24974 13.1354V14.2643H5.54199V11.1483C5.76207 11.1119 6.07162 11.0834 6.50703 11.0834C6.94799 11.0834 7.26149 11.1673 7.47287 11.3359C7.67395 11.4958 7.81012 11.7579 7.81012 12.0666C7.80932 12.377 7.70641 12.639 7.51957 12.8171ZM10.5334 13.8898C10.2009 14.1661 9.69507 14.2975 9.07678 14.2975C8.70628 14.2975 8.44424 14.2738 8.26612 14.25V11.1491C8.52816 11.1063 8.87016 11.0834 9.23116 11.0834C9.83045 11.0834 10.2199 11.191 10.5239 11.4206C10.8525 11.6645 11.0583 12.0532 11.0583 12.6113C11.0583 13.2153 10.8374 13.6325 10.5334 13.8898ZM13.4587 11.693H12.2458V12.4142H13.3795V12.9952H12.2458V14.2651H11.5286V11.1071H13.4587V11.693ZM11.0837 7.12504C10.6459 7.12504 10.292 7.12504 10.292 7.12504V3.16671L14.2503 7.12504H11.0837Z" fill="#7245FF"/>
</svg>
