<svg width="86" height="97" viewBox="0 0 86 97" fill="none" xmlns="http://www.w3.org/2000/svg">
<g opacity="0.0991676">
<path fill-rule="evenodd" clip-rule="evenodd" d="M84.928 38.7897C84.717 44.8181 77.9573 48.2612 72.957 44.8873L57.0509 34.1545C52.2005 30.8816 52.6454 23.6037 57.8583 20.9461L74.436 12.4945C79.6511 9.83571 85.8043 13.7551 85.5995 19.6053L84.928 38.7897Z" fill="#F2F5FF"/>
<path fill-rule="evenodd" clip-rule="evenodd" d="M34.629 72.9521C39.0936 76.3722 38.4889 83.2732 33.4976 85.8648L14.241 95.863C8.86491 98.6543 2.52441 94.4137 3.05114 88.3791L5.07603 65.1804C5.60297 59.1435 12.5868 56.0663 17.3974 59.7515L34.629 72.9521Z" fill="#F2F5FF"/>
<path fill-rule="evenodd" clip-rule="evenodd" d="M4.40738 4.94112C6.66753 -0.65158 14.1972 -1.57513 17.7419 3.30556L23.4433 11.1557C26.8818 15.89 23.9745 22.5769 18.167 23.2913L8.82899 24.4401C3.01907 25.1548 -1.42257 19.3673 0.77073 13.94L4.40738 4.94112Z" fill="#F2F5FF"/>
</g>
</svg>
