<svg width="91" height="336" viewBox="0 0 91 336" fill="none" xmlns="http://www.w3.org/2000/svg">
<g opacity="0.0991676">
<path fill-rule="evenodd" clip-rule="evenodd" d="M86.9278 275.79C86.7168 281.818 79.9571 285.261 74.9568 281.887L59.0507 271.154C54.2003 267.882 54.6452 260.604 59.8581 257.946L76.4358 249.494C81.6509 246.836 87.8041 250.755 87.5994 256.605L86.9278 275.79Z" stroke="#F2F5FF" stroke-width="3.5"/>
<path fill-rule="evenodd" clip-rule="evenodd" d="M36.6289 309.952C41.0935 313.372 40.4888 320.273 35.4974 322.865L16.2409 332.863C10.8648 335.654 4.52426 331.414 5.05099 325.379L7.07588 302.18C7.60281 296.143 14.5866 293.066 19.3972 296.752L36.6289 309.952Z" stroke="#F2F5FF" stroke-width="3.5"/>
<path fill-rule="evenodd" clip-rule="evenodd" d="M6.40735 241.941C8.6675 236.348 16.1971 235.425 19.7419 240.306L25.4433 248.156C28.8818 252.89 25.9745 259.577 20.167 260.291L10.829 261.44C5.01904 262.155 0.577403 256.367 2.7707 250.94L6.40735 241.941Z" stroke="#F2F5FF" stroke-width="3.5"/>
<path fill-rule="evenodd" clip-rule="evenodd" d="M36.4074 6.94112C38.6675 1.34842 46.1971 0.424866 49.7419 5.30556L55.4433 13.1557C58.8818 17.89 55.9745 24.5769 50.167 25.2913L40.829 26.4401C35.019 27.1548 30.5774 21.3673 32.7707 15.94L36.4074 6.94112Z" stroke="#F2F5FF" stroke-width="3.5"/>
<path fill-rule="evenodd" clip-rule="evenodd" d="M87.921 99.4666C87.7053 105.489 80.9538 108.928 75.9554 105.562L61.2065 95.6268C56.3512 92.3564 56.7935 85.0739 62.0088 82.415L77.3943 74.5712C82.6119 71.9112 88.7672 75.8355 88.5577 81.6882L87.921 99.4666Z" stroke="#F2F5FF" stroke-width="3.5"/>
</g>
</svg>
