<svg width="108" height="109" viewBox="0 0 108 109" fill="none" xmlns="http://www.w3.org/2000/svg">
<path opacity="0.0991676" fill-rule="evenodd" clip-rule="evenodd" d="M87.6847 41.2192C87.4737 47.2477 80.714 50.6908 75.7137 47.3168L59.8076 36.584C54.9572 33.3112 55.4021 26.0333 60.615 23.3756L77.1927 14.924C82.4078 12.2653 88.561 16.1847 88.3563 22.0348L87.6847 41.2192Z" stroke="#F2F5FF" stroke-width="3.5"/>
<path opacity="0.0991676" fill-rule="evenodd" clip-rule="evenodd" d="M37.6291 75.9521C42.0937 79.3722 41.489 86.2732 36.4976 88.8648L17.241 98.8629C11.8649 101.654 5.52443 97.4137 6.05116 91.3791L8.07605 68.1804C8.60298 62.1435 15.5868 59.0663 20.3974 62.7515L37.6291 75.9521Z" stroke="#F2F5FF" stroke-width="3.5"/>
<path opacity="0.0991676" fill-rule="evenodd" clip-rule="evenodd" d="M7.40739 7.94113C9.66753 2.34843 17.1972 1.42488 20.7419 6.30557L26.4433 14.1557C29.8818 18.89 26.9745 25.5769 21.167 26.2913L11.829 27.4401C6.01907 28.1548 1.57744 22.3673 3.77073 16.94L7.40739 7.94113Z" fill="#F2F5FF"/>
</svg>
