<svg width="17" height="21" viewBox="0 0 17 21" fill="none" xmlns="http://www.w3.org/2000/svg">
<path d="M12.2613 7.6123H3.80468C3.57128 7.6123 3.38184 7.80175 3.38184 8.03515V14.8005C3.38184 15.822 4.10912 16.6753 5.07318 16.8724V19.0288C5.07318 19.7282 5.64229 20.2973 6.34167 20.2973C7.04105 20.2973 7.61016 19.7282 7.61016 19.0288V16.9146H8.45581V19.0288C8.45581 19.7282 9.02493 20.2973 9.72431 20.2973C10.4237 20.2973 10.9928 19.7282 10.9928 19.0288V16.8724C11.9569 16.6762 12.6841 15.822 12.6841 14.8005V8.03515C12.6841 7.80091 12.4947 7.6123 12.2613 7.6123Z" fill="#C0C2CC"/>
<path d="M10.2461 2.25338L10.9589 0.589951C11.0511 0.375139 10.9513 0.127387 10.7365 0.035183C10.5243 -0.0578531 10.2731 0.0419615 10.1818 0.257605L9.46886 1.92187C9.01645 1.77472 8.53442 1.69271 8.03376 1.69271C7.53314 1.69271 7.05111 1.77472 6.59866 1.92187L5.88414 0.257605C5.79281 0.0419615 5.54165 -0.0586856 5.32937 0.035183C5.11456 0.127347 5.01562 0.375972 5.10782 0.589951L5.82071 2.25338C4.36872 3.04155 3.38184 4.5798 3.38184 6.34384C3.38184 6.57724 3.57128 6.76668 3.80468 6.76668H12.2613C12.4947 6.76668 12.6841 6.57724 12.6841 6.34384C12.6841 4.5798 11.6972 3.04155 10.2461 2.25338ZM6.34163 5.07535C6.10823 5.07535 5.91878 4.8859 5.91878 4.6525C5.91878 4.4191 6.10823 4.22966 6.34163 4.22966C6.57503 4.22966 6.76447 4.4191 6.76447 4.6525C6.76447 4.8859 6.57503 5.07535 6.34163 5.07535ZM9.72431 5.07535C9.4909 5.07535 9.30146 4.8859 9.30146 4.6525C9.30146 4.4191 9.4909 4.22966 9.72431 4.22966C9.95771 4.22966 10.1472 4.4191 10.1472 4.6525C10.1472 4.8859 9.95771 5.07535 9.72431 5.07535Z" fill="#C0C2CC"/>
<path d="M14.7997 7.6123C14.1004 7.6123 13.5312 8.18142 13.5312 8.8808V13.1091C13.5312 13.8085 14.1004 14.3776 14.7997 14.3776C15.4991 14.3776 16.0682 13.8085 16.0682 13.1091V8.8808C16.0682 8.18146 15.4991 7.6123 14.7997 7.6123Z" fill="#C0C2CC"/>
<path d="M1.26849 7.6123C0.569118 7.6123 0 8.18142 0 8.8808V13.1091C0 13.8085 0.569118 14.3776 1.26849 14.3776C1.96787 14.3776 2.53699 13.8085 2.53699 13.1091V8.8808C2.53699 8.18146 1.96787 7.6123 1.26849 7.6123Z" fill="#C0C2CC"/>
</svg>
