<svg width="16" height="20" viewBox="0 0 16 20" fill="none" xmlns="http://www.w3.org/2000/svg">
<path d="M13.0735 10.7472C12.5461 8.09292 15.0654 6.53622 15.0654 6.53622C15.0654 6.53622 14.0839 5.11611 12.4342 4.75077C10.7854 4.38464 9.96013 4.84209 9.1365 5.18519C8.31207 5.52912 7.9007 5.52912 7.9007 5.52912C6.71098 5.52912 5.84127 4.26944 3.57454 4.84293C2.01292 5.23702 0.368987 7.03974 0.0719659 9.19133C-0.225055 11.3437 0.415903 14.0901 1.6517 16.2187C2.8875 18.3489 4.14638 19.1494 5.03989 19.1724C5.93343 19.1946 6.82533 18.5323 7.9007 18.3711C8.97691 18.2114 9.63923 18.7611 10.6948 19.0581C11.7463 19.3543 12.1149 19.0795 13.3261 18.0494C14.5405 17.0192 15.6397 14.0646 15.6397 14.0646C15.6397 14.0646 13.6009 13.4031 13.0735 10.7472Z" fill="#C0C2CC"/>
<path d="M10.7379 3.03356C11.9062 1.84304 11.5105 0 11.5105 0C11.5105 0 9.86985 0.287981 8.7706 1.43163C7.67219 2.57611 7.85402 4.38376 7.85402 4.38376C7.85402 4.38376 9.56951 4.22333 10.7379 3.03356Z" fill="#C0C2CC"/>
</svg>
