<svg width="31" height="57" fill="none" xmlns="http://www.w3.org/2000/svg"><mask id="a" fill="#fff"><path d="M27.22 0H3.78A3.79 3.79 0 000 3.78V52.7c0 2.09 1.7 3.78 3.78 3.78h23.44c2.08 0 3.78-1.7 3.78-3.78V3.79C31 1.68 29.3 0 27.22 0zm2.37 52.69c0 1.3-1.07 2.37-2.37 2.37H3.78a2.37 2.37 0 01-2.37-2.37v-6.38H29.6v6.38zm0-7.8H1.4V7.83H29.6V44.9zm0-38.48H1.4V3.78c0-1.3 1.06-2.37 2.37-2.37h23.44c1.3 0 2.37 1.06 2.37 2.37v2.63z"/></mask><path d="M27.22 0H3.78A3.79 3.79 0 000 3.78V52.7c0 2.09 1.7 3.78 3.78 3.78h23.44c2.08 0 3.78-1.7 3.78-3.78V3.79C31 1.68 29.3 0 27.22 0zm2.37 52.69c0 1.3-1.07 2.37-2.37 2.37H3.78a2.37 2.37 0 01-2.37-2.37v-6.38H29.6v6.38zm0-7.8H1.4V7.83H29.6V44.9zm0-38.48H1.4V3.78c0-1.3 1.06-2.37 2.37-2.37h23.44c1.3 0 2.37 1.06 2.37 2.37v2.63z" fill="#C0C2CC"/><path d="M1.41 46.31v-2h-2v2h2zm28.18 0h2v-2h-2v2zm0-1.41v2h2v-2h-2zm-28.18 0h-2v2h2v-2zm0-37.08v-2h-2v2h2zm28.18 0h2v-2h-2v2zm0-1.4v2h2v-2h-2zm-28.18 0h-2v2h2v-2zM27.21-2H3.79v4h23.44v-4zM3.79-2A5.79 5.79 0 00-2 3.78h4C2 2.8 2.8 2 3.78 2v-4zM-2 3.78V52.7h4V3.79h-4zm0 48.91c0 3.19 2.6 5.78 5.78 5.78v-4c-.98 0-1.78-.8-1.78-1.78h-4zm5.78 5.78h23.44v-4H3.78v4zm23.44 0c3.19 0 5.78-2.59 5.78-5.78h-4c0 .98-.8 1.78-1.78 1.78v4zM33 52.7V3.79h-4v48.9h4zm0-48.9C33 .58 30.4-2 27.22-2v4C28.2 2 29 2.8 29 3.78h4zm-5.41 48.9c0 .2-.17.37-.37.37v4a4.37 4.37 0 004.37-4.37h-4zm-.37.37H3.78v4h23.44v-4zm-23.44 0a.37.37 0 01-.37-.37h-4a4.37 4.37 0 004.37 4.37v-4zm-.37-.37v-6.38h-4v6.38h4zm-2-4.38H29.6v-4H1.4v4zm26.18-2v6.38h4v-6.38h-4zm2-3.41H1.4v4H29.6v-4zm-26.18 2V7.82h-4V44.9h4zm-2-35.08H29.6v-4H1.4v4zm26.18-2V44.9h4V7.82h-4zm2-3.4H1.4v4H29.6v-4zm-26.18 2V3.77h-4v2.63h4zm0-2.64c0-.2.17-.37.37-.37v-4A4.37 4.37 0 00-.59 3.78h4zm.37-.37h23.44v-4H3.78v4zm23.44 0c.2 0 .37.17.37.37h4a4.37 4.37 0 00-4.37-4.37v4zm.37.37v2.63h4V3.78h-4z" fill="#C0C2CC" mask="url(#a)"/><mask id="b" fill="#fff"><path d="M15.5 47.9a2.91 2.91 0 100 5.82 2.91 2.91 0 000-5.82zm0 4.4a1.5 1.5 0 110-3 1.5 1.5 0 010 3z"/></mask><path d="M15.5 47.9a2.91 2.91 0 100 5.82 2.91 2.91 0 000-5.82zm0 4.4a1.5 1.5 0 110-3 1.5 1.5 0 010 3z" fill="#C0C2CC"/><path d="M15.5 45.9c-2.7 0-4.9 2.2-4.9 4.9h4c0-.49.4-.9.9-.9v-4zm-4.9 4.9c0 2.71 2.2 4.91 4.9 4.91v-4a.9.9 0 01-.9-.9h-4zm4.9 4.91c2.7 0 4.9-2.2 4.9-4.9h-4c0 .5-.4.9-.9.9v4zm4.9-4.9c0-2.71-2.2-4.9-4.9-4.9v4c.5 0 .9.4.9.9h4zm-4.9-.5c.28 0 .5.22.5.5h-4a3.5 3.5 0 003.5 3.5v-4zm.5.5a.5.5 0 01-.5.5v-4a3.5 3.5 0 00-3.5 3.5h4zm-.5.5a.5.5 0 01-.5-.5h4a3.5 3.5 0 00-3.5-3.5v4zm-.5-.5c0-.28.22-.5.5-.5v4a3.5 3.5 0 003.5-3.5h-4z" fill="#C0C2CC" mask="url(#b)"/><path d="M19.52 28.02c-.4-2 1.5-3.17 1.5-3.17s-.74-1.07-1.98-1.35c-1.25-.28-1.87.07-2.49.33-.62.26-.93.26-.93.26-.9 0-1.55-.95-3.26-.52-1.18.3-2.42 1.66-2.64 3.28a8.89 8.89 0 001.19 5.3c.93 1.6 1.88 2.2 2.55 2.22.68.02 1.35-.48 2.16-.6s1.31.29 2.1.51c.8.23 1.08.02 1.99-.76.91-.77 1.74-3 1.74-3s-1.53-.5-1.93-2.5zM17.76 22.2c.88-.9.58-2.28.58-2.28s-1.24.22-2.06 1.08c-.83.86-.7 2.22-.7 2.22s1.3-.12 2.18-1.01z" fill="#C0C2CC"/><circle cx="15.18" cy="3.88" r=".56" stroke="#C0C2CC"/></svg>