<svg width="17" height="17" viewBox="0 0 17 17" fill="none" xmlns="http://www.w3.org/2000/svg">
<path d="M2.27326 14.2884C2.29259 14.3062 2.31365 14.322 2.33617 14.3356C3.93594 16.0365 6.16749 17.0007 8.50249 17C10.8375 16.9993 13.0684 16.0336 14.6671 14.3317C14.6882 14.3194 14.7082 14.3052 14.7266 14.2892C14.7406 14.2697 14.7528 14.2489 14.7632 14.2272C17.7456 10.9919 17.7456 6.00904 14.7632 2.77371L14.7615 2.77287C14.7511 2.75115 14.7389 2.73038 14.7249 2.71081C14.7056 2.69278 14.6844 2.67684 14.6616 2.66319C13.0626 0.96367 10.8327 0 8.49915 0C6.16565 0 3.93574 0.96367 2.33666 2.66319C2.31395 2.67679 2.29274 2.69278 2.27336 2.71081C2.25942 2.73038 2.24716 2.75115 2.23681 2.77287C-0.745602 6.00819 -0.745602 10.991 2.23681 14.2263C2.24711 14.2481 2.25932 14.2688 2.27326 14.2884ZM10.8166 15.7874C11.4699 14.9984 11.9616 14.0886 12.2637 13.1098V13.1085C12.7977 13.3586 13.3014 13.6686 13.7653 14.0325C12.9279 14.8332 11.9197 15.4333 10.8166 15.7874ZM14.3518 13.415C13.7862 12.9612 13.1656 12.5807 12.5047 12.2823C12.7781 11.1832 12.9273 10.057 12.9497 8.92466H16.1266C16.0382 10.5744 15.4152 12.1506 14.3518 13.415ZM16.1266 8.0746H12.9497C12.9273 6.94228 12.778 5.81599 12.5047 4.71694C13.1656 4.41885 13.7862 4.03857 14.3518 3.58512C15.4151 4.84923 16.038 6.42508 16.1266 8.0746ZM13.7653 2.96542C13.3014 3.32931 12.7977 3.63931 12.2638 3.8894C11.9618 2.91014 11.4701 1.99986 10.8167 1.21046C11.9197 1.56464 12.9279 2.16472 13.7653 2.96542ZM8.92324 0.908732C9.96491 1.18158 10.8863 2.43413 11.4669 4.20732C10.6467 4.49012 9.78999 4.65314 8.92324 4.69139V0.908732ZM8.92324 5.5419C9.86888 5.50649 10.8045 5.33475 11.7011 5.03187C11.9422 6.02896 12.0759 7.04902 12.1001 8.0746H8.92324V5.5419ZM8.92324 8.92466H12.1001C12.0759 9.94994 11.9421 10.9697 11.7011 11.9665C10.8045 11.664 9.86888 11.4925 8.92324 11.4574V8.92466ZM8.92324 12.3078C9.78999 12.3462 10.6467 12.5094 11.4669 12.7923C10.8863 14.5655 9.96491 15.8181 8.92324 16.0909V12.3078ZM3.23121 14.0313C3.69524 13.6683 4.19896 13.3591 4.73272 13.1099V13.1086C5.03484 14.0874 5.52656 14.9972 6.17985 15.7862C5.07682 15.4321 4.06857 14.832 3.23121 14.0313ZM8.07327 16.0905C7.03161 15.8177 6.11022 14.5651 5.52965 12.7919C6.34983 12.5091 7.20652 12.3461 8.07327 12.3079V16.0905ZM8.07327 11.4574C7.12763 11.4928 6.19205 11.6645 5.29546 11.9674C5.05436 10.9702 4.92058 9.95024 4.89638 8.92466H8.07327V11.4574ZM8.07327 8.0746H4.89638C4.92063 7.04932 5.05441 6.02956 5.29546 5.03272C6.19205 5.3353 7.12763 5.50679 8.07327 5.5419V8.0746ZM8.07327 0.908284V4.69139C7.20652 4.65299 6.34983 4.48982 5.52965 4.20687C6.11017 2.43373 7.03156 1.18118 8.07327 0.908284ZM6.1799 1.20922C5.52631 1.99896 5.03459 2.90969 4.73277 3.8894V3.8881C4.19886 3.63797 3.69514 3.32802 3.23126 2.96408C4.06857 2.16343 5.07682 1.56335 6.1799 1.20922ZM2.64471 3.58423C3.21029 4.03797 3.83091 4.41855 4.49176 4.71689C4.21844 5.81599 4.06917 6.94223 4.04681 8.07455H0.869914C0.958268 6.42478 1.58128 4.84858 2.64471 3.58423ZM4.04681 8.92466C4.06922 10.057 4.21849 11.1833 4.49176 12.2823C3.83096 12.5804 3.21034 12.9607 2.64471 13.4141C1.58142 12.15 0.958467 10.5741 0.869914 8.92461H4.04681V8.92466Z" fill="#C0C2CC"/>
</svg>
