<svg width="54" height="54" fill="none" xmlns="http://www.w3.org/2000/svg"><g clip-path="url(#clip0)" fill="#C0C2CC"><path d="M49.5 0h-45A4.5 4.5 0 000 4.5v45A4.5 4.5 0 004.5 54h45a4.5 4.5 0 004.5-4.5v-45A4.5 4.5 0 0049.5 0zm2.7 49.5c0 1.5-1.2 2.7-2.7 2.7h-45a2.7 2.7 0 01-2.7-2.7V9h50.4v40.5zm0-42.3H1.8V4.5C1.8 3 3 1.8 4.5 1.8h45c1.5 0 2.7 1.2 2.7 2.7v2.7z"/><path d="M6.3 3.6h-.9a.9.9 0 100 1.8h.9a.9.9 0 100-1.8zM10.24 3.67a.82.82 0 00-.68 0 .91.91 0 00-.3 1.47c.09.08.19.14.3.19.22.1.46.1.68 0a.91.91 0 00.3-1.47 1.04 1.04 0 00-.3-.19zM13.85 3.66a.9.9 0 00-.99.2c-.08.09-.14.19-.19.3-.1.22-.1.46 0 .68a.91.91 0 001.47.3c.08-.09.14-.19.19-.3a.9.9 0 00-.48-1.18zM48.6 3.6H18a.9.9 0 100 1.8h30.6a.9.9 0 000-1.8zM13.82 42.86l.13.1a17.92 17.92 0 0026.11-.01.83.83 0 00.13-.09.87.87 0 00.08-.13 17.9 17.9 0 000-24.25.87.87 0 00-.08-.14.8.8 0 00-.14-.1 17.92 17.92 0 00-26.1 0 .8.8 0 00-.13.1.87.87 0 00-.08.13 17.9 17.9 0 000 24.26l.08.13zm18.09 3.17a16.54 16.54 0 003.06-5.67c1.13.53 2.2 1.19 3.18 1.96a16.2 16.2 0 01-6.24 3.71zm7.49-5.02a18.25 18.25 0 00-3.92-2.4c.58-2.33.9-4.71.95-7.11h6.72c-.18 3.5-1.5 6.83-3.75 9.5zm3.75-11.31h-6.72a32.1 32.1 0 00-.95-7.11c1.4-.63 2.72-1.44 3.92-2.4a16.1 16.1 0 013.75 9.51zm-5-10.82c-.98.77-2.05 1.43-3.18 1.96-.64-2.08-1.68-4-3.06-5.68a16.2 16.2 0 016.24 3.72zM27.9 14.53c2.2.57 4.16 3.23 5.39 6.98-1.74.6-3.55.94-5.39 1.03v-8.01zm0 9.8c2-.07 3.98-.43 5.88-1.07.51 2.1.8 4.27.85 6.44H27.9v-5.36zm0 7.17h6.73a30.48 30.48 0 01-.85 6.44c-1.9-.64-3.88-1-5.88-1.08V31.5zm0 7.16c1.84.09 3.65.43 5.39 1.03-1.23 3.75-3.18 6.4-5.39 6.98v-8zm-12.05 3.65c.98-.77 2.05-1.42 3.18-1.95.64 2.07 1.68 4 3.06 5.67a16.2 16.2 0 01-6.24-3.72zm10.25 4.36c-2.2-.57-4.16-3.23-5.39-6.98 1.74-.6 3.55-.94 5.39-1.03v8.01zm0-9.8c-2 .07-3.98.43-5.88 1.07-.51-2.1-.8-4.27-.85-6.44h6.73v5.36zm0-7.17h-6.73c.05-2.17.34-4.33.85-6.44 1.9.64 3.88 1 5.88 1.08v5.36zm0-15.17v8a19.11 19.11 0 01-5.39-1.02c1.23-3.75 3.18-6.4 5.39-6.99zm-4 .63a16.54 16.54 0 00-3.07 5.68 16.47 16.47 0 01-3.18-1.96 16.2 16.2 0 016.24-3.72zm-7.5 5.03c1.2.96 2.52 1.77 3.92 2.4-.58 2.33-.9 4.71-.95 7.11h-6.72c.18-3.5 1.5-6.83 3.75-9.5zm2.97 11.31c.05 2.4.37 4.78.95 7.11-1.4.63-2.72 1.44-3.92 2.4a16.11 16.11 0 01-3.75-9.51h6.72z"/></g><defs><clipPath id="clip0"><path fill="#fff" d="M0 0h54v54H0z"/></clipPath></defs></svg>