<svg width="93" height="93" viewBox="0 0 93 93" fill="none" xmlns="http://www.w3.org/2000/svg">
<g clip-path="url(#clip0_24_15057)">
<path fill-rule="evenodd" clip-rule="evenodd" d="M18.2131 63.2881V79.7845H22.3792C22.9937 79.7845 23.501 80.1611 23.501 80.6226V85.9056H38.3002V80.6226C38.3002 80.1611 38.8075 79.7845 39.4293 79.7845H43.5954V63.2881H39.4293C38.8075 63.2881 38.3002 62.9116 38.3002 62.4553V57.1668H23.501V62.4553C23.501 62.9114 22.9937 63.2881 22.3792 63.2881H18.2131Z" fill="#B6B1B7"/>
<path fill-rule="evenodd" clip-rule="evenodd" d="M48.8114 63.2881V79.7845H53.1707C53.8214 79.7845 54.3521 80.1611 54.3521 80.6226V85.9056H69.8383V80.6226C69.8383 80.1611 70.3692 79.7845 71.0197 79.7845H75.379V63.2881H71.0197C70.369 63.2881 69.8383 62.9116 69.8383 62.4553V57.1668H54.3521V62.4553C54.3521 62.9114 53.8212 63.2881 53.1707 63.2881H48.8114Z" fill="#B6B1B7"/>
<path fill-rule="evenodd" clip-rule="evenodd" d="M6.30874 27.5424V51.4365H86.6935V27.5424L46.4984 4.33614L6.30874 27.5424Z" fill="#ECEAEC"/>
<path fill-rule="evenodd" clip-rule="evenodd" d="M0.490065 30.3908C1.50307 32.1466 3.76268 32.7512 5.51842 31.738L6.30874 31.2819L46.4984 8.07556L86.6932 31.2819L87.4836 31.738C89.2339 32.7512 91.4987 32.1466 92.5067 30.3908C93.5197 28.6403 92.9152 26.3755 91.1594 25.3623L48.5193 0.745097C47.9359 0.405611 47.2198 0.241226 46.4984 0.241226C45.7823 0.241226 45.0609 0.405611 44.4774 0.745097L1.83729 25.3623C0.087004 26.3755 -0.522945 28.6403 0.490065 30.3908Z" fill="#AB54FF"/>
<path fill-rule="evenodd" clip-rule="evenodd" d="M71.5181 60.4504H83.8662V82.6224H71.5181V60.4504Z" fill="#5381FE"/>
<path fill-rule="evenodd" clip-rule="evenodd" d="M40.3244 60.4504H52.6725V82.6224H40.3244V60.4504Z" fill="#5381FE"/>
<path fill-rule="evenodd" clip-rule="evenodd" d="M9.13053 60.4504H21.4839V82.6224H9.13053V60.4504Z" fill="#5381FE"/>
<path fill-rule="evenodd" clip-rule="evenodd" d="M5.20546 85.9057L14.2524 89.3323L25.409 85.9057V80.6227C25.409 80.1611 25.0324 79.7846 24.5762 79.7846H21.4839H9.13053H6.03828C5.58218 79.7846 5.20546 80.1611 5.20546 80.6227V85.9057Z" fill="#ECEAEC"/>
<path fill-rule="evenodd" clip-rule="evenodd" d="M67.5877 85.9057L78.498 89.3323L87.7965 85.9057V80.6227C87.7965 80.1611 87.42 79.7846 86.9584 79.7846H83.8662H71.5181H68.4258C67.9645 79.7846 67.5877 80.1611 67.5877 80.6227V85.9057Z" fill="#ECEAEC"/>
<path fill-rule="evenodd" clip-rule="evenodd" d="M36.3939 85.9057L46.5009 88.3531L56.6027 85.9057V80.6227C56.6027 80.1611 56.2261 79.7846 55.7646 79.7846H52.6723H40.3242H37.232C36.7704 79.7846 36.3939 80.1611 36.3939 80.6227V85.9057Z" fill="#ECEAEC"/>
<path fill-rule="evenodd" clip-rule="evenodd" d="M0.861341 92.7588H92.1407C92.6128 92.7588 93 92.3716 93 91.8995V86.7649C93 86.2928 92.6128 85.9055 92.1407 85.9055H87.7966H67.5878H56.6029H36.3939H25.409H5.20546H0.861341C0.389257 85.9055 0.0019989 86.2928 0.0019989 86.7649V91.8995C0.0019989 92.3717 0.389257 92.7588 0.861341 92.7588Z" fill="#AB54FF"/>
<path fill-rule="evenodd" clip-rule="evenodd" d="M42.2125 20.8644C42.2125 23.3468 44.2227 25.3571 46.7052 25.3571C49.1823 25.3571 51.1979 23.3467 51.1979 20.8644C51.1979 18.3821 49.1823 16.3717 46.7052 16.3717C44.2229 16.3715 42.2125 18.3819 42.2125 20.8644Z" fill="#5381FE"/>
<path fill-rule="evenodd" clip-rule="evenodd" d="M46.4984 8.07558L6.30874 31.282V36.5014L46.4984 13.295L86.6935 36.5014V31.282L46.4984 8.07558Z" fill="#DAD8DB"/>
<path fill-rule="evenodd" clip-rule="evenodd" d="M46.7052 16.3715C44.2229 16.3715 42.2125 18.3819 42.2125 20.8642C42.2125 21.3788 42.2974 21.8667 42.4565 22.3282C43.1195 20.6785 44.7373 19.5169 46.6202 19.5169C48.5881 19.5169 50.2641 20.7846 50.8688 22.5456C51.081 22.0258 51.1977 21.4583 51.1977 20.8642C51.1979 18.3819 49.1823 16.3715 46.7052 16.3715Z" fill="#4578FF"/>
<path fill-rule="evenodd" clip-rule="evenodd" d="M9.13053 63.2881H21.4839V67.7755H9.13053V63.2881Z" fill="#4578FF"/>
<path fill-rule="evenodd" clip-rule="evenodd" d="M40.3244 63.2881H52.6725V67.7755H40.3244V63.2881Z" fill="#4578FF"/>
<path fill-rule="evenodd" clip-rule="evenodd" d="M71.5181 63.2881H83.8662V67.7755H71.5181V63.2881Z" fill="#4578FF"/>
<path fill-rule="evenodd" clip-rule="evenodd" d="M9.13053 63.2881H21.4839H24.5762C25.0323 63.2881 25.409 62.9116 25.409 62.4553V56.0441H5.20546V62.4553C5.20546 62.9114 5.582 63.2881 6.03828 63.2881H9.13053Z" fill="#ECEAEC"/>
<path fill-rule="evenodd" clip-rule="evenodd" d="M40.3244 63.2881H52.6725H55.7648C56.2263 63.2881 56.6029 62.9116 56.6029 62.4553V56.0441H36.3939V62.4553C36.3939 62.9114 36.7704 63.2881 37.232 63.2881H40.3244Z" fill="#ECEAEC"/>
<path fill-rule="evenodd" clip-rule="evenodd" d="M68.4258 63.2881H71.5181H83.8662H86.9584C87.4198 63.2881 87.7965 62.9116 87.7965 62.4553V56.0441H67.5877V62.4553C67.5877 62.9116 67.9643 63.2881 68.4258 63.2881Z" fill="#ECEAEC"/>
<path fill-rule="evenodd" clip-rule="evenodd" d="M5.20546 57.167H25.409V60.4504H5.20546V57.167Z" fill="#DAD8DB"/>
<path fill-rule="evenodd" clip-rule="evenodd" d="M36.3939 57.167H56.6027V60.4504H36.3939V57.167Z" fill="#DAD8DB"/>
<path fill-rule="evenodd" clip-rule="evenodd" d="M67.5877 57.167H87.7965V60.4504H67.5877V57.167Z" fill="#DAD8DB"/>
<path fill-rule="evenodd" clip-rule="evenodd" d="M5.20546 57.167H25.409H36.3939H56.6029H67.5878H87.7966H92.1407C92.6128 57.167 93 56.7798 93 56.3077V51.1731C93 50.701 92.6128 50.3137 92.1407 50.3137H86.6933H6.30874H0.861341C0.389257 50.3137 0.0019989 50.701 0.0019989 51.1731V56.3077C0.0019989 56.7798 0.389257 57.167 0.861341 57.167H5.20546Z" fill="#AB54FF"/>
</g>
<defs>
<clipPath id="clip0_24_15057">
<rect width="93" height="93" fill="white"/>
</clipPath>
</defs>
</svg>
