<svg width="93" height="93" viewBox="0 0 93 93" fill="none" xmlns="http://www.w3.org/2000/svg">
<path d="M73.3454 86.2466L18.4099 86.3295V65.9574C18.4099 60.0533 21.8915 54.8653 26.9399 53.2467L50.4638 45.7046L73.9877 53.2467C79.0361 54.8653 82.5178 60.0533 82.5178 65.9574V77.0607C82.5176 82.1286 78.4132 86.239 73.3454 86.2466Z" fill="#AB54FF"/>
<path d="M65.0632 19.6248V31.0237C65.0632 39.1319 58.4902 45.7048 50.3821 45.7048C42.2739 45.7048 35.701 39.1318 35.701 31.0237V19.6248L43.4847 14.7427L65.0632 19.6248Z" fill="#FFC0A6"/>
<path d="M44.0206 30.5979C44.8214 30.5979 45.4706 29.9487 45.4706 29.1479C45.4706 28.347 44.8214 27.6978 44.0206 27.6978C43.2198 27.6978 42.5706 28.347 42.5706 29.1479C42.5706 29.9487 43.2198 30.5979 44.0206 30.5979Z" fill="#4A4C5F"/>
<path d="M55.7655 30.5979C56.5663 30.5979 57.2155 29.9487 57.2155 29.1479C57.2155 28.347 56.5663 27.6978 55.7655 27.6978C54.9646 27.6978 54.3154 28.347 54.3154 29.1479C54.3154 29.9487 54.9646 30.5979 55.7655 30.5979Z" fill="#4A4C5F"/>
<path d="M61.4775 40.5473C60.6262 39.6522 59.4248 39.0935 58.0921 39.0935H38.0463C40.6721 43.0756 45.1824 45.705 50.309 45.705C54.7819 45.7048 58.7847 43.702 61.4775 40.5473Z" fill="#FFA992"/>
<path d="M50.4662 40.5435C48.4118 40.5435 46.4913 39.6271 45.1971 38.029C44.6931 37.4067 44.789 36.4936 45.4113 35.9896C46.0336 35.4855 46.9467 35.5814 47.4507 36.2037C48.1917 37.1185 49.2908 37.6432 50.466 37.6432C51.6481 37.6432 52.7512 37.1136 53.4923 36.1901C53.9936 35.5656 54.9062 35.4656 55.5308 35.9669C56.1555 36.468 56.2554 37.3808 55.7541 38.0054C54.4599 39.6184 52.5323 40.5435 50.4662 40.5435Z" fill="#4A4C5F"/>
<path d="M82.5175 77.0607V65.9574C82.5175 61.0823 80.1422 56.6975 76.4727 54.4052C73.6235 56.9658 71.9962 60.6164 71.9962 64.4472V67.678V76.2308H62.838V86.136H74.7582C79.1544 85.4507 82.5175 81.648 82.5175 77.0607Z" fill="#7231E5"/>
<path d="M50.3704 45.7048L27.4421 53.056C43.2999 56.1331 55.4064 69.7171 56.2209 86.2724L66.1889 86.2573C66.2118 86.0566 66.2249 85.8526 66.2249 85.6457V50.788L50.3704 45.7048Z" fill="#7231E5"/>
<path d="M66.2249 85.6457V76.2309H62.8379V86.1361H66.1995C66.2146 85.9745 66.2249 85.8114 66.2249 85.6457Z" fill="#7231E5"/>
<path d="M88.7566 90.9698H57.5137L62.8378 86.1362H92.9999V86.7267C92.9999 89.07 91.1002 90.9698 88.7566 90.9698Z" fill="#4A4C5F"/>
<path d="M57.5138 90.9698H4.95679C2.21929 90.9698 0 88.7507 0 86.013V47.1125C0 44.5318 2.09214 42.4396 4.67289 42.4396H58.165C60.7457 42.4396 62.8379 44.5318 62.8379 47.1125V85.6457C62.8379 88.5861 60.4542 90.9698 57.5138 90.9698Z" fill="#ECEAEC"/>
<path opacity="0.3" d="M58.165 42.4398H4.67289C2.09214 42.4398 0 44.5317 0 47.1125V52.3995H17.2244C36.9154 52.3995 52.8782 68.3623 52.8782 88.0532V90.9698H57.5138C60.4542 90.9698 62.8379 88.5861 62.8379 85.6457V47.1125C62.8379 44.5317 60.7457 42.4398 58.165 42.4398Z" fill="#B6B1B7"/>
<path d="M31.4184 71.3461C33.9812 71.3461 36.0588 69.2685 36.0588 66.7057C36.0588 64.1429 33.9812 62.0654 31.4184 62.0654C28.8556 62.0654 26.778 64.1429 26.778 66.7057C26.778 69.2685 28.8556 71.3461 31.4184 71.3461Z" fill="white"/>
<path d="M38.0719 10.6812C37.3857 11.7803 36.4646 13.5511 35.9771 15.901C35.5542 17.9388 35.6081 19.6862 35.74 20.8901C37.3915 20.4825 38.6804 19.8989 39.5734 19.4192C39.9257 19.2297 41.6677 18.2767 43.4846 16.5164L38.0719 10.6812Z" fill="#4A4C5F"/>
<path d="M68.7456 18.6605C69.1715 18.4894 69.3955 18.0222 69.266 17.5817C68.0915 13.5871 66.2202 9.81896 63.2885 6.98318C62.2764 6.00432 58.4734 2.32555 52.8447 2.03474C52.8447 2.03474 46.9714 1.7314 41.8998 6.04701C40.3697 7.34901 39.11 8.92765 38.0719 10.6812C42.7924 17.4352 49.8742 21.7301 57.7926 21.7301C59.7426 21.7301 63.8169 21.1354 65.7638 19.8577L68.7456 18.6605Z" fill="#585A6A"/>
<path d="M67.1237 30.1137H64.9903V21.6548H67.1237C68.2569 21.6548 69.1757 22.5736 69.1757 23.7068V28.0619C69.1757 29.1951 68.2569 30.1137 67.1237 30.1137Z" fill="#FFA992"/>
<path d="M33.4709 21.6549H35.7142V30.1137H33.4709C32.3377 30.1137 31.4189 29.195 31.4189 28.0617V23.7067C31.4189 22.5736 32.3377 21.6549 33.4709 21.6549Z" fill="#FFA992"/>
</svg>
