<svg width="93" height="93" viewBox="0 0 93 93" fill="none" xmlns="http://www.w3.org/2000/svg">
<path d="M59.6074 88.4023H33.4531L43.9777 42.8322H48.4635L59.6074 88.4023Z" fill="#84A5FF"/>
<path d="M59.6074 88.4023H46.5983V42.8322H48.4635L59.6074 88.4023Z" fill="#5381FE"/>
<path d="M14.2101 51.7207C12.7056 51.7207 11.4859 50.501 11.4859 48.9965V39.6761C11.4859 38.1716 12.7056 36.9519 14.2101 36.9519C15.7146 36.9519 16.9344 38.1716 16.9344 39.6761V48.9965C16.9344 50.501 15.7146 51.7207 14.2101 51.7207Z" fill="#84A5FF"/>
<path d="M78.7897 43.065C77.2851 43.065 76.0654 41.8453 76.0654 40.3408V30.294C76.0654 28.7895 77.2851 27.5698 78.7897 27.5698C80.2942 27.5698 81.5139 28.7895 81.5139 30.294V40.3408C81.5137 41.8453 80.294 43.065 78.7897 43.065Z" fill="#5381FE"/>
<path d="M63.51 85.6782C63.51 87.1838 62.2914 88.4025 60.7858 88.4025H32.2272C30.7216 88.4025 29.5029 87.1838 29.5029 85.6782C29.5029 84.1744 30.7216 82.954 32.2272 82.954H60.786C62.2914 82.954 63.51 84.1746 63.51 85.6782Z" fill="#5A6384"/>
<path d="M14.2101 13.9798C6.37467 13.9798 0 20.3547 0 28.1899C0 36.0251 6.37467 42.4 14.2101 42.4C22.0455 42.4 28.4202 36.0251 28.4202 28.1899C28.4202 20.3547 22.0457 13.9798 14.2101 13.9798Z" fill="#AB54FF"/>
<path d="M9.45312 32.7391C9.45312 32.7064 9.46384 32.647 9.48564 32.5604L12.5083 22.6468C12.595 22.3761 12.7928 22.1672 13.1016 22.0212C13.4103 21.875 13.7649 21.8018 14.166 21.8018C14.5667 21.8018 14.9216 21.875 15.2304 22.0212C15.5392 22.1676 15.7368 22.3763 15.8238 22.6468L18.8627 32.5604C18.8843 32.6472 18.8952 32.7066 18.8952 32.7391C18.8952 33.021 18.719 33.2648 18.367 33.4702C18.0148 33.6762 17.6491 33.779 17.27 33.779C16.8039 33.779 16.5278 33.6221 16.4414 33.3076L15.8888 31.2762H12.4595L11.9069 33.3078C11.8201 33.6221 11.5436 33.7792 11.0781 33.7792C10.6986 33.7792 10.3332 33.6764 9.98115 33.4704C9.62914 33.2648 9.45312 33.021 9.45312 32.7391ZM12.9797 29.3263H15.3525L14.1662 24.9709L12.9797 29.3263Z" fill="white"/>
<path d="M78.7897 4.59769C70.9541 4.59769 64.5796 10.9725 64.5796 18.8078C64.5796 26.6436 70.9544 33.0181 78.7897 33.0181C86.6255 33.0181 93 26.6432 93 18.8078C93 10.9724 86.6251 4.59769 78.7897 4.59769Z" fill="#7231E5"/>
<path d="M74.9958 23.9677V13.6316C74.9958 13.3826 75.1041 13.1902 75.321 13.0545C75.5375 12.9192 75.7976 12.8514 76.1009 12.8514H79.4324C81.5994 12.8514 82.6827 13.816 82.6827 15.7444C82.6827 17.0444 82.222 17.8951 81.3013 18.2959C81.854 18.5019 82.2709 18.7973 82.5528 19.1816C82.8345 19.5663 82.9753 20.138 82.9753 20.8961V21.2374C82.9753 22.451 82.68 23.3367 82.0896 23.8947C81.4989 24.4528 80.7055 24.7315 79.7089 24.7315H76.1011C75.7651 24.7315 75.4972 24.6557 75.2966 24.5039C75.0959 24.3524 74.9958 24.1737 74.9958 23.9677ZM77.5148 17.3209H79.2214C79.514 17.3209 79.7414 17.2099 79.904 16.9876C80.0665 16.7656 80.1477 16.5028 80.1477 16.1994C80.1477 15.8963 80.0665 15.6305 79.904 15.4031C79.7412 15.1755 79.514 15.0618 79.2214 15.0618H77.5148V17.3209ZM77.5148 22.5214H79.14C80.0066 22.5214 80.4402 22.0232 80.4402 21.0264V20.7663C80.4402 19.7696 80.0066 19.2712 79.14 19.2712H77.5148V22.5214Z" fill="white"/>
<path d="M88.048 42.4452L46.5983 47.8483L5.85156 53.1604C5.73168 53.1767 5.61361 53.184 5.49554 53.184C4.14795 53.184 2.97655 52.1833 2.79673 50.8121C2.60237 49.3192 3.65389 47.9516 5.14679 47.7575L46.5983 42.3544L87.345 37.0421C88.8361 36.8478 90.2037 37.8993 90.3979 39.3922C90.5924 40.8835 89.5409 42.251 88.048 42.4452Z" fill="#5A6384"/>
<path d="M63.5101 85.6782C63.5101 87.1838 62.2915 88.4025 60.7858 88.4025H46.5983V82.9542H60.7858C62.2915 82.954 63.5101 84.1746 63.5101 85.6782Z" fill="#445175"/>
<path d="M88.048 42.4453L46.5983 47.8484V42.3546L87.345 37.0424C88.8361 36.848 90.2037 37.8995 90.3978 39.3924C90.5924 40.8835 89.5409 42.2511 88.048 42.4453Z" fill="#445175"/>
</svg>
