<svg width="220" height="42" viewBox="0 0 220 42" fill="none" xmlns="http://www.w3.org/2000/svg">
<g clip-path="url(#clip0_237_70)">
<mask id="mask0_237_70" style="mask-type:luminance" maskUnits="userSpaceOnUse" x="0" y="0" width="219" height="42">
<path d="M218.854 0H0V41.9048H218.854V0Z" fill="white"/>
</mask>
<g mask="url(#mask0_237_70)">
<path d="M20.9532 41.9032C14.9274 41.9032 9.91959 39.9077 5.9298 35.9169C1.97775 31.927 0.0011437 26.9386 4.95608e-07 20.9517C-0.00114271 14.9647 1.97546 9.99523 5.9298 6.04315C9.88072 2.01336 14.8885 -0.000962438 20.9532 0.000180768C24.4498 -0.0279848 27.8958 0.833559 30.9676 2.50379C33.9498 4.09041 36.454 6.44483 38.2213 9.32358L30.2766 13.9296C29.4052 12.367 28.0932 11.0956 26.5041 10.2736C24.8715 9.41047 23.0202 8.97892 20.9498 8.97892C17.3418 8.97892 14.4838 10.0724 12.3758 12.2593C10.2654 14.4097 9.21023 17.3072 9.21023 20.9517C9.21023 24.5962 10.2631 27.4937 12.3689 29.644C14.4792 31.831 17.3373 32.9245 20.9429 32.9245C22.8754 32.9488 24.7835 32.4939 26.4972 31.6007C28.0879 30.7945 29.4016 29.5317 30.2697 27.9739L38.2144 32.5798C36.4785 35.4656 33.9883 37.8234 31.0122 39.3996C27.9251 41.0718 24.464 41.9332 20.9532 41.9032Z" fill="#6B4CB0"/>
<path d="M73.171 41.0973H63.2714L55.6731 27.8589H51.2953V41.0973H42.0884V0.799316H58.2077C62.0443 0.799316 65.3057 2.14201 67.9922 4.8274C70.6787 7.5128 72.022 10.7749 72.022 14.6138C72.0226 17.0296 71.3117 19.392 69.9781 21.4062C68.6497 23.4851 66.7927 25.1737 64.5969 26.2984L73.171 41.0973ZM58.2058 9.44023H51.2953V19.8011H58.2058C59.4715 19.8011 60.5575 19.3021 61.4641 18.3041C62.3705 17.3061 62.821 16.0783 62.8153 14.6207C62.8153 13.1619 62.3648 11.9336 61.4641 10.9355C60.5631 9.93753 59.4772 9.4391 58.2058 9.44023Z" fill="#6B4CB0"/>
<path d="M86.2945 25.0964V32.2334H102.414V41.0973H77.0859V0.799316H102.122V9.66316H86.2945V16.3406H100.682V25.0861L86.2945 25.0964Z" fill="#6B4CB0"/>
<path d="M145.831 41.0973V0.799316H155.041V41.0973H145.831Z" fill="#6B4CB0"/>
<path d="M158.642 0.806152H188.572V9.66999H178.212V41.0973H169.003V9.66999H158.642V0.806152Z" fill="#6B4CB0"/>
<path d="M192.375 9.66999V0.806152H218.854V8.52278L205.729 41.1042H195.944L208.608 9.67686L192.375 9.66999Z" fill="#52CDB0"/>
<path d="M106.066 0.835449H122.185C127.712 0.835449 132.357 2.77432 136.118 6.65208C139.879 10.5298 141.76 15.3084 141.76 20.9879C141.76 26.7039 139.879 31.502 136.118 35.382C132.393 39.2198 127.749 41.1386 122.185 41.1386H106.066V0.835449ZM115.278 32.2697H122.189C125.374 32.2697 127.946 31.2522 129.905 29.2171C131.899 27.1835 132.897 24.4398 132.899 20.9862C132.902 17.5325 131.904 14.8071 129.905 12.8099C127.947 10.7373 125.375 9.70101 122.189 9.70101H115.278V32.2697Z" fill="#6B4CB0"/>
</g>
</g>
<defs>
<clipPath id="clip0_237_70">
<rect width="220" height="41.9048" fill="white"/>
</clipPath>
</defs>
</svg>
