<svg width="19" height="19" viewBox="0 0 19 19" fill="none" xmlns="http://www.w3.org/2000/svg">
<path d="M12.8272 8.93588C12.8259 8.93588 12.8246 8.93588 12.8233 8.93588H11.2322V7.34081C11.2343 7.01911 10.9753 6.75654 10.6536 6.75439C10.6523 6.75439 10.6509 6.75439 10.6497 6.75439H8.3509C8.0292 6.75439 7.76839 7.0152 7.76839 7.3369V8.93197H6.17724C5.85554 8.92982 5.59297 9.18882 5.59082 9.51052C5.59082 9.51316 5.59082 9.51575 5.59082 9.51839V11.8132C5.59082 12.1349 5.85163 12.3958 6.17333 12.3958H7.76839V13.9869C7.76624 14.3086 8.02529 14.5712 8.34699 14.5733C8.34831 14.5733 8.34963 14.5733 8.3509 14.5733H10.6458C10.9675 14.5733 11.2283 14.3125 11.2283 13.9908V12.3958H12.8233C13.145 12.3979 13.4076 12.1389 13.4097 11.8172C13.4097 11.8158 13.4097 11.8145 13.4097 11.8132V9.51839C13.4097 9.19669 13.149 8.93588 12.8272 8.93588ZM12.6279 11.6139H10.8412C10.6253 11.6139 10.4503 11.7889 10.4503 12.0048V13.7914H8.55028V12.0048C8.55028 11.7889 8.37524 11.6139 8.15934 11.6139H6.37271V9.71777H8.15934C8.37524 9.71777 8.55028 9.54272 8.55028 9.32682V7.53629H10.4464V9.32291C10.4464 9.53881 10.6214 9.71386 10.8373 9.71386H12.6279V11.6139Z" fill="#6138DA"/>
<path d="M16.3025 3.83008H13.0811V2.45395C13.1013 1.82599 12.6087 1.30046 11.9808 1.28018C11.9487 1.27916 11.9167 1.27945 11.8848 1.28111H7.11523C6.48776 1.24842 5.9526 1.73055 5.91986 2.35797C5.9182 2.38993 5.91786 2.42194 5.91893 2.45395V3.82226H2.69753C1.45432 3.82226 0 4.52988 0 6.51979V15.0229C0 17.0128 1.45432 17.7204 2.69753 17.7204H16.3025C17.5457 17.7204 19 17.0128 19 15.0229V6.52761C19 4.5377 17.5496 3.83008 16.3025 3.83008ZM6.70082 2.45395C6.70082 2.34058 6.70082 2.03564 7.11914 2.03564H11.8848C12.3031 2.03564 12.3031 2.33667 12.3031 2.45395V3.82226H6.70082V2.45395ZM18.2181 15.0229C18.2181 16.7509 16.8811 16.9385 16.3025 16.9385H2.69753C2.12284 16.9385 0.781893 16.7509 0.781893 15.0229V6.52761C0.781893 4.79963 2.11893 4.61198 2.69753 4.61198H16.3025C16.8772 4.61198 18.2181 4.79963 18.2181 6.52761V15.0229Z" fill="#6138DA"/>
</svg>
