<svg width="19" height="19" viewBox="0 0 19 19" fill="none" xmlns="http://www.w3.org/2000/svg">
<path d="M15.7529 3.03687C15.5481 3.03687 15.3818 3.20312 15.3818 3.40796C15.3818 3.6128 15.5481 3.77905 15.7529 3.77905C15.9578 3.77905 16.124 3.6128 16.124 3.40796C16.124 3.20308 15.9578 3.03687 15.7529 3.03687Z" fill="#6138DA"/>
<path d="M17.6811 2.66299C16.7954 1.6676 15.567 1.11942 14.2222 1.11942C12.7516 1.11942 11.4096 1.68946 10.3415 2.76793C9.97006 3.14292 9.69245 3.51758 9.5 3.8149C9.30755 3.51762 9.02994 3.143 8.65851 2.76793C7.59039 1.68942 6.24848 1.11938 4.77783 1.11938C1.96286 1.11938 0 3.47438 0 6.27429C0 10.0564 4.00796 13.2409 9.25697 17.7899C9.3267 17.8504 9.41335 17.8806 9.5 17.8806C9.58665 17.8806 9.6733 17.8504 9.74303 17.7899C15.0045 13.2301 19 10.0511 19 6.27429C19 4.90142 18.5316 3.61892 17.6811 2.66299ZM9.5 17.0186C4.54334 12.7293 0.742188 9.64868 0.742188 6.27429C0.742188 3.75864 2.47712 1.86161 4.77783 1.86161C6.05528 1.86161 7.17736 2.33609 8.11289 3.2718C8.82561 3.98467 9.15815 4.7122 9.16141 4.71948C9.22112 4.85259 9.35349 4.93809 9.49944 4.93838C9.49967 4.93838 9.49993 4.93838 9.50015 4.93838C9.64606 4.93838 9.77862 4.85255 9.83862 4.71948C9.84189 4.7122 10.1744 3.98471 10.8871 3.2718C11.8226 2.33605 12.9447 1.86161 14.2222 1.86161C16.5229 1.86161 18.2579 3.75864 18.2579 6.27429C18.2578 9.72486 14.2058 12.9464 9.5 17.0186Z" fill="#6138DA"/>
<path d="M17.0507 4.35897C16.9556 4.17744 16.7312 4.10752 16.5498 4.20267C16.3683 4.29786 16.2983 4.52214 16.3935 4.70365C16.6384 5.17074 16.7733 5.72857 16.7733 6.27438C16.7733 7.34669 16.263 8.4848 15.1671 9.85606C15.0392 10.0162 15.0653 10.2497 15.2254 10.3776C15.3865 10.5064 15.6198 10.4785 15.7469 10.3194C16.9535 8.8095 17.5155 7.52415 17.5155 6.27438C17.5155 5.60106 17.3548 4.93873 17.0507 4.35897Z" fill="#6138DA"/>
<path d="M13.0625 8.23218H10.9844V6.15405C10.9844 5.9491 10.8182 5.78296 10.6133 5.78296H8.38672C8.18176 5.78296 8.01562 5.9491 8.01562 6.15405V8.23218H5.9375C5.73254 8.23218 5.56641 8.39831 5.56641 8.60327V10.8298C5.56641 11.0348 5.73254 11.2009 5.9375 11.2009H8.01562V13.279C8.01562 13.484 8.18176 13.6501 8.38672 13.6501H10.6133C10.8182 13.6501 10.9844 13.484 10.9844 13.279V11.2009H13.0625C13.2675 11.2009 13.4336 11.0348 13.4336 10.8298V8.60327C13.4336 8.39831 13.2675 8.23218 13.0625 8.23218ZM12.6914 10.4587H10.6133C10.4083 10.4587 10.2422 10.6248 10.2422 10.8298V12.9079H8.75781V10.8298C8.75781 10.6248 8.59167 10.4587 8.38672 10.4587H6.30859V8.97433H8.38672C8.59167 8.97433 8.75781 8.80819 8.75781 8.60323V6.52511H10.2422V8.60323C10.2422 8.80819 10.4083 8.97433 10.6133 8.97433H12.6914V10.4587Z" fill="#6138DA"/>
</svg>
