<svg width="19" height="19" viewBox="0 0 19 19" fill="none" xmlns="http://www.w3.org/2000/svg">
<g clip-path="url(#clip0_284_3968)">
<path d="M18.798 7.72107L9.79167 1.12685C9.618 0.99971 9.38205 0.99971 9.20846 1.12685L0.202082 7.72107C-0.0179024 7.88216 -0.0656993 8.19106 0.0953926 8.41105C0.256484 8.63103 0.56542 8.67875 0.785367 8.51774L9.50002 2.137L18.2147 8.5177C18.3026 8.58208 18.4047 8.61307 18.5059 8.61307C18.6579 8.61307 18.8079 8.54312 18.9046 8.41101C19.0657 8.19106 19.018 7.88216 18.798 7.72107Z" fill="#6138DA"/>
<path d="M16.4113 8.62964C16.1387 8.62964 15.9176 8.85066 15.9176 9.1233V16.9812H11.9684V12.6919C11.9684 11.3307 10.861 10.2233 9.49987 10.2233C8.13877 10.2233 7.03135 11.3308 7.03135 12.6919V16.9812H3.08206V9.12334C3.08206 8.8507 2.861 8.62968 2.58839 8.62968C2.31579 8.62968 2.09473 8.8507 2.09473 9.12334V17.4749C2.09473 17.7476 2.31579 17.9686 2.58839 17.9686H7.52501C7.78463 17.9686 7.99708 17.768 8.01675 17.5134C8.01794 17.5018 8.01868 17.4892 8.01868 17.4749V12.6919C8.01868 11.8752 8.68312 11.2107 9.49987 11.2107C10.3166 11.2107 10.981 11.8752 10.981 12.6919V17.4749C10.981 17.4891 10.9818 17.5015 10.983 17.5129C11.0024 17.7678 11.2149 17.9686 11.4747 17.9686H16.4113C16.684 17.9686 16.905 17.7476 16.905 17.4749V9.12334C16.905 8.85066 16.6839 8.62964 16.4113 8.62964Z" fill="#6138DA"/>
</g>
<defs>
<clipPath id="clip0_284_3968">
<rect width="19" height="19" fill="white"/>
</clipPath>
</defs>
</svg>
