<svg width="19" height="18" viewBox="0 0 19 18" fill="none" xmlns="http://www.w3.org/2000/svg">
<path d="M16.2607 0H3.3838C1.92996 0 0.822266 1.10769 0.822266 2.56154V15.4385C0.822266 16.8923 1.92996 18 3.3838 18H16.2607C17.7146 18 18.8223 16.8923 18.8223 15.4385V2.56154C18.8223 1.10769 17.7146 0 16.2607 0ZM9.82227 14.4C12.7992 14.4 15.2223 12.0462 15.2223 9.20769C15.2223 8.72308 15.153 8.16923 15.0146 7.75385H16.5376V15.0923C16.5376 15.4385 16.2607 15.7846 15.8453 15.7846H3.79919C3.45304 15.7846 3.10688 15.5077 3.10688 15.0923V7.68461H4.69919C4.56073 8.16923 4.4915 8.65385 4.4915 9.13846C4.42227 12.0462 6.84534 14.4 9.82227 14.4ZM9.82227 12.3231C7.8838 12.3231 6.36073 10.8 6.36073 8.93077C6.36073 7.06154 7.8838 5.53846 9.82227 5.53846C11.7607 5.53846 13.2838 7.06154 13.2838 8.93077C13.2838 10.8692 11.7607 12.3231 9.82227 12.3231ZM16.4684 4.91538C16.4684 5.33077 16.1223 5.67692 15.7069 5.67692H13.7684C13.353 5.67692 13.0069 5.33077 13.0069 4.91538V3.04615C13.0069 2.63077 13.353 2.28461 13.7684 2.28461H15.7069C16.1223 2.28461 16.4684 2.63077 16.4684 3.04615V4.91538Z" fill="#7245FF"/>
</svg>
