<svg width="199" height="252" viewBox="0 0 199 252" fill="none" xmlns="http://www.w3.org/2000/svg">
<g clip-path="url(#clip0_494_27438)">
<path d="M231.386 64.8646C231.085 58.235 231.085 51.9067 231.085 45.5785C231.085 40.4556 227.175 36.5381 222.06 36.5381C184.456 36.5381 155.876 25.6897 132.11 2.4861C128.5 -0.8287 123.085 -0.8287 119.475 2.4861C95.7086 25.6897 67.1291 36.5381 29.5244 36.5381C24.4101 36.5381 20.4992 40.4556 20.4992 45.5785C20.4992 51.9067 20.4992 58.235 20.1984 64.8646C18.9951 128.147 17.19 214.935 122.784 251.397L125.792 252L128.801 251.397C234.094 214.935 232.59 128.448 231.386 64.8646ZM118.572 152.556C116.767 154.063 114.661 154.967 112.255 154.967H111.954C109.547 154.967 107.14 153.761 105.636 151.953L77.6584 120.915L91.196 108.861L113.157 133.27L161.893 86.8628L174.227 100.122L118.572 152.556Z" fill="#E1E8FF"/>
</g>
<defs>
<clipPath id="clip0_494_27438">
<rect width="199" height="252" fill="white"/>
</clipPath>
</defs>
</svg>
