<svg width="312" height="66" viewBox="0 0 312 66" fill="none" xmlns="http://www.w3.org/2000/svg">
<path fill-rule="evenodd" clip-rule="evenodd" d="M106.621 19.4388C106.652 20.7544 106.381 21.761 105.826 22.4316C105.235 23.1412 104.583 23.664 103.884 23.9849C103.049 24.3736 102.059 24.6011 100.95 24.6622L97.2424 24.7878V14.1084L101.558 14.1932C102.982 14.3749 104.045 14.7433 104.717 15.2865C105.408 15.8484 105.904 16.4374 106.183 17.0265C106.503 17.7565 106.652 18.5577 106.621 19.4099V19.4235V19.4388ZM113.864 19.1386C113.864 18.2118 113.781 17.2866 113.612 16.3716C113.446 15.6094 113.195 14.7877 112.867 13.9288C112.523 13.0341 112.004 12.2312 111.318 11.542C110.713 10.8358 109.95 10.189 109.041 9.61522C108.271 9.14499 107.262 8.70532 106.041 8.30979C104.808 7.90746 103.312 7.70375 101.595 7.70375H90V42.1171H97.2899V31.7313H101.175C102.36 31.699 103.532 31.5479 104.654 31.2814C105.602 31.0522 106.616 30.7195 107.666 30.2917C108.75 29.8521 109.694 29.2138 110.48 28.3972C111.123 27.8167 111.704 27.0799 112.208 26.204C112.643 25.4316 113.038 24.4707 113.383 23.3486C113.735 22.2079 113.898 20.7887 113.864 19.1386V19.1386Z" fill="#0060A9"/>
<path fill-rule="evenodd" clip-rule="evenodd" d="M131.656 29.2263H122.209L126.87 16.7491L131.656 29.2263ZM183.069 9.06024C183.024 8.5968 182.804 8.20636 182.433 7.92626C182.269 7.80403 182.12 7.71745 181.977 7.66653C181.669 7.53242 181.293 7.4034 180.86 7.28627C180.415 7.16574 179.917 7.07916 179.377 7.02993C178.83 6.97731 178.232 6.99429 177.599 7.07916C176.954 7.16744 176.294 7.36945 175.632 7.6852C175.476 7.76329 175.324 7.85835 175.178 7.967C175.065 8.04509 174.936 8.14524 174.799 8.26577C174.623 8.42195 174.486 8.61038 174.391 8.82767L163.624 26.2686L152.826 8.77844C152.679 8.55945 152.528 8.37102 152.374 8.21484C152.222 8.06206 152.063 7.94153 151.902 7.85326C151.761 7.75141 151.617 7.66313 151.473 7.59014L151.426 7.56807C150.261 7.1233 149.103 6.95694 147.983 7.07747C146.892 7.1963 146.047 7.35417 145.401 7.55788L145.365 7.57146C145.165 7.65125 144.984 7.7531 144.823 7.87193C144.673 7.97549 144.537 8.12148 144.405 8.32009C144.253 8.54927 144.177 8.80051 144.177 9.06363V41.0511L131.242 8.87181L131.226 8.83276C131.049 8.48136 130.735 8.1792 130.291 7.93644C129.971 7.7582 129.546 7.58674 128.993 7.41359C128.429 7.23704 127.696 7.14707 126.815 7.14707C125.921 7.14707 125.222 7.22516 124.672 7.38473C124.125 7.5443 123.712 7.71406 123.419 7.8974C122.998 8.15034 122.713 8.46609 122.581 8.82258L109.285 41.7064H117.529L119.795 35.9091H134.173L136.436 41.7064H144.177V41.7539H151.514V20.2778L163.243 39.0497H164.003L175.779 20.271V41.7539H183.073V9.11286L183.069 9.06024Z" fill="#0060A9"/>
<path fill-rule="evenodd" clip-rule="evenodd" d="M206.38 19.439C206.408 20.7546 206.139 21.7612 205.582 22.4318C204.993 23.1414 204.34 23.6642 203.642 23.9851C202.806 24.3738 201.815 24.6013 200.708 24.6624L197 24.788V14.1086L201.316 14.1934C202.74 14.3751 203.803 14.7434 204.473 15.2867C205.166 15.8486 205.66 16.4376 205.939 17.0267C206.261 17.7567 206.408 18.5579 206.38 19.4101V19.4237V19.439ZM213.622 19.1366C213.622 18.2097 213.539 17.2846 213.37 16.3696C213.204 15.6073 212.953 14.7857 212.623 13.9267C212.279 13.0321 211.76 12.2292 211.076 11.5399C210.47 10.8338 209.706 10.187 208.799 9.61319C208.028 9.14297 207.019 8.70329 205.799 8.30776C204.565 7.90543 203.068 7.70172 201.351 7.70172H189.758V42.115H197.048V31.7292H200.933C202.118 31.697 203.288 31.5459 204.412 31.2794C205.36 31.0502 206.374 30.7175 207.422 30.2897C208.506 29.85 209.452 29.2117 210.238 28.3952C210.881 27.8146 211.462 27.0779 211.966 26.2019C212.401 25.4295 212.796 24.4687 213.141 23.3466C213.493 22.2058 213.654 20.7867 213.622 19.1366V19.1366Z" fill="#AB54FF"/>
<path fill-rule="evenodd" clip-rule="evenodd" d="M234.907 29.6375H225.46L230.121 17.1603L234.907 29.6375ZM234.494 9.28309L234.477 9.24404C234.301 8.89264 233.986 8.59047 233.544 8.34942C233.223 8.16947 232.798 7.99802 232.244 7.82487C231.68 7.64832 230.949 7.56004 230.067 7.56004C229.175 7.56004 228.474 7.63643 227.924 7.7977C227.377 7.95558 226.964 8.12534 226.671 8.30868C226.249 8.56161 225.966 8.87736 225.833 9.23386L212.538 42.1176H220.781L223.046 36.3204H237.424L239.69 42.1176H247.691L234.494 9.28309Z" fill="#AB54FF"/>
<path fill-rule="evenodd" clip-rule="evenodd" d="M272.021 24.7907C272.021 28.0347 271.268 30.6066 269.778 32.4366C268.293 34.2581 266.14 35.1442 263.194 35.1442L257.536 35.0118V14.8225H263.189C264.652 14.8225 265.945 15.0602 267.034 15.5287C268.111 15.9955 269.028 16.6644 269.761 17.5182C270.498 18.3772 271.065 19.428 271.442 20.6435C271.828 21.8776 272.021 23.273 272.021 24.7907M274.762 12.5257C273.352 11.0454 271.637 9.89101 269.668 9.09485C267.703 8.30038 265.52 7.91334 263.198 7.94559L257.023 7.85052H250.341V42.0211H257.023H263.196C265.532 41.9888 267.711 41.5526 269.675 40.7258C271.642 39.8957 273.356 38.7176 274.764 37.222C276.169 35.7299 277.283 33.9253 278.074 31.8594C278.864 29.7968 279.264 27.4847 279.264 24.9842C279.264 22.4208 278.864 20.0527 278.076 17.9426C277.283 15.8257 276.169 14.0042 274.762 12.5257" fill="#4578FF"/>
<path fill-rule="evenodd" clip-rule="evenodd" d="M310.057 7.96514C309.678 7.74785 309.249 7.58319 308.802 7.47963C308.278 7.34043 307.683 7.26913 307.032 7.26913C306.381 7.26913 305.787 7.34043 305.279 7.47624C304.809 7.58488 304.385 7.75125 304.021 7.97023C303.417 8.33352 303.29 8.8326 303.29 9.1857V24.4367L303.194 26.114V26.1428C303.194 27.8726 303.084 29.3869 302.864 30.6431C302.654 31.8484 302.263 32.8584 301.699 33.6444C301.149 34.4151 300.399 34.9974 299.467 35.3759C298.506 35.7681 297.258 35.9667 295.758 35.9667C294.224 35.9667 292.96 35.7681 292 35.3759C291.07 34.9974 290.33 34.4168 289.795 33.6495C289.247 32.8618 288.854 31.8484 288.627 30.6363C288.392 29.3869 288.275 27.8743 288.275 26.1428V9.42676C288.275 9.19758 288.235 8.99048 288.16 8.81393C288.094 8.66115 288.013 8.53044 287.92 8.42519C287.815 8.27919 287.701 8.17225 287.573 8.10434C287.317 7.96175 286.987 7.81575 286.56 7.66128C286.12 7.5034 285.616 7.39645 285.062 7.34383C284.513 7.2929 283.916 7.30988 283.283 7.39476C282.624 7.48473 281.952 7.72578 281.288 8.11113L281.229 8.14509L280.945 8.43198L280.911 8.4863C280.767 8.72735 280.694 9.01255 280.694 9.32999V26.4806C280.694 31.7703 281.969 35.9158 284.483 38.8017C287.014 41.7062 290.791 43.1797 295.716 43.1797C300.664 43.1135 304.463 41.5993 307.01 38.6811C309.539 35.7783 310.822 31.609 310.822 26.2871V9.23323C310.822 8.69001 310.558 8.25203 310.057 7.96514" fill="#4578FF"/>
<mask id="mask0_606_1333" style="mask-type:alpha" maskUnits="userSpaceOnUse" x="0" y="0" width="38" height="41">
<path fill-rule="evenodd" clip-rule="evenodd" d="M0 0H37.6335V40.2088H0V0Z" fill="white"/>
</mask>
<g mask="url(#mask0_606_1333)">
<path fill-rule="evenodd" clip-rule="evenodd" d="M13.1549 0C3.06141 0 -3.26691 10.9511 1.76459 19.7344L8.14031 30.8586L13.4969 40.2088C8.70915 31.5801 13.7881 21.1315 22.837 19.0536C18.5385 10.4062 24.7907 0.0492298 34.6065 0.0492298H34.637L37.6335 0.0543225L25.9808 0.0288588L13.1837 0H13.1549" fill="#0060A9"/>
</g>
<path fill-rule="evenodd" clip-rule="evenodd" d="M60.0802 39.7388L58.7224 42.0849C56.1897 46.4578 51.7745 48.6443 47.3609 48.6443C43.2842 48.6443 39.2076 46.7787 36.6173 43.0525C34.0203 46.7481 29.9623 48.5951 25.9042 48.5951C21.4703 48.5951 17.0381 46.3916 14.5139 41.9847L13.4965 40.2074C13.5303 40.2685 13.5642 40.3313 13.5997 40.3907L18.8429 49.5373L24.0809 58.6872C26.8591 63.5338 31.7348 65.9579 36.6139 65.9579C41.4677 65.9579 46.3248 63.5542 49.1097 58.7415L54.3884 49.6153L59.6705 40.4943C59.8161 40.2447 59.9515 39.9918 60.0802 39.7388" fill="#AB54FF"/>
<path fill-rule="evenodd" clip-rule="evenodd" d="M22.8364 19.053C13.7875 21.1308 8.70861 31.5777 13.4963 40.2082L14.5138 41.9839C17.038 46.3908 21.4702 48.596 25.9041 48.596C29.9621 48.596 34.0202 46.7473 36.6172 43.0517C36.3903 42.7274 36.177 42.3896 35.9739 42.0365L29.5981 30.9072L23.2224 19.7762C23.0836 19.5368 22.9549 19.2957 22.8364 19.053" fill="#0020A9"/>
<path fill-rule="evenodd" clip-rule="evenodd" d="M37.6333 0.0536194L38.7761 0.055317C48.6105 0.0790831 54.8355 10.47 50.5066 19.1072C59.3592 21.1647 64.3805 31.233 60.0804 39.7379L65.1474 30.9835L71.5722 19.8813C76.6461 11.1133 70.3482 0.124918 60.2395 0.101152L47.4373 0.0739903L37.6333 0.0536194" fill="#4578FF"/>
<path fill-rule="evenodd" clip-rule="evenodd" d="M34.6062 0.0480652C24.7904 0.0480652 18.5383 10.4067 22.8367 19.0525C23.8847 18.8131 24.9851 18.6841 26.1329 18.6841H26.1651L36.6835 18.7078L47.2036 18.7299C48.3514 18.7333 49.4552 18.864 50.5066 19.1085C54.8355 10.4695 48.6105 0.0786216 38.776 0.0565531L37.6332 0.0531579L34.6384 0.0480652H34.6062" fill="#1D4BC6"/>
<path fill-rule="evenodd" clip-rule="evenodd" d="M50.5058 19.1073C50.3839 19.3535 50.2519 19.5962 50.113 19.839L43.6899 30.9361L37.2651 42.0348C37.0619 42.3879 36.8452 42.7274 36.6167 43.0517C39.2069 46.7796 43.2836 48.6435 47.362 48.6435C51.7738 48.6435 56.1891 46.4587 58.7235 42.0841L60.0795 39.738C64.3797 31.2331 59.3583 21.1648 50.5058 19.1073" fill="#5381FE"/>
<path fill-rule="evenodd" clip-rule="evenodd" d="M26.133 18.6834C24.9852 18.6834 23.8847 18.8124 22.8368 19.0517C22.9553 19.2945 23.084 19.5355 23.2211 19.7749L29.5985 30.9059L35.9725 42.0353C36.1774 42.3884 36.3907 42.7262 36.6159 43.0504C36.8444 42.7262 37.0611 42.3884 37.2643 42.0353L43.6891 30.9348L50.1122 19.8377C50.251 19.5967 50.3831 19.3522 50.505 19.1078C49.4553 18.8633 48.3515 18.7326 47.2037 18.7292L36.6819 18.7071L26.1652 18.6834H26.133" fill="#002587"/>
<path d="M96.8313 58.5163L98.0339 58.8302C97.7818 59.8509 97.3272 60.6304 96.6701 61.1685C96.0172 61.7023 95.2175 61.9692 94.2711 61.9692C93.2917 61.9692 92.4941 61.7643 91.8783 61.3543C91.2667 60.94 90.7997 60.3421 90.4773 59.5605C90.1591 58.779 90 57.9398 90 57.0429C90 56.0649 90.1798 55.2129 90.5393 54.4869C90.903 53.7566 91.4175 53.2035 92.0829 52.8277C92.7524 52.4476 93.488 52.2575 94.2897 52.2575C95.1989 52.2575 95.9635 52.4967 96.5834 52.975C97.2033 53.4533 97.6351 54.126 97.879 54.993L96.6949 55.2812C96.4842 54.5979 96.1784 54.1004 95.7775 53.7886C95.3766 53.4768 94.8724 53.3209 94.2649 53.3209C93.5665 53.3209 92.9817 53.4939 92.5106 53.8398C92.0436 54.1858 91.7151 54.6513 91.525 55.2364C91.3349 55.8172 91.2398 56.4173 91.2398 57.0365C91.2398 57.8351 91.3514 58.5334 91.5746 59.1313C91.8018 59.725 92.1531 60.1691 92.6284 60.4638C93.1036 60.7585 93.6182 60.9058 94.1719 60.9058C94.8456 60.9058 95.4159 60.7051 95.8829 60.3037C96.3499 59.9022 96.666 59.3064 96.8313 58.5163Z" fill="#231F20"/>
<path d="M100.073 61.8091V52.4177H106.644V53.5259H101.276V56.4023H106.303V57.5042H101.276V60.7008H106.855V61.8091H100.073Z" fill="#231F20"/>
<path d="M109.043 61.8091V52.4177H112.471C113.075 52.4177 113.536 52.4476 113.854 52.5074C114.3 52.5842 114.674 52.7316 114.976 52.9494C115.277 53.1629 115.519 53.464 115.701 53.8527C115.887 54.2413 115.98 54.6684 115.98 55.1339C115.98 55.9325 115.734 56.6094 115.242 57.1646C114.751 57.7156 113.862 57.991 112.577 57.991H110.246V61.8091H109.043ZM110.246 56.8828H112.595C113.372 56.8828 113.924 56.7333 114.25 56.4343C114.577 56.1354 114.74 55.7147 114.74 55.1723C114.74 54.7794 114.643 54.4442 114.449 54.1666C114.259 53.8847 114.007 53.6989 113.693 53.6092C113.49 53.5537 113.116 53.5259 112.571 53.5259H110.246V56.8828Z" fill="#231F20"/>
<path d="M117.988 61.8091V52.4177H121.398C122.092 52.4177 122.648 52.5138 123.065 52.706C123.487 52.8939 123.815 53.1864 124.051 53.5836C124.291 53.9765 124.411 54.3886 124.411 54.82C124.411 55.2214 124.305 55.5994 124.094 55.9539C123.884 56.3083 123.565 56.5945 123.14 56.8123C123.689 56.9789 124.111 57.2629 124.404 57.6643C124.702 58.0658 124.851 58.5398 124.851 59.0865C124.851 59.5264 124.76 59.9364 124.578 60.3165C124.4 60.6923 124.179 60.9827 123.915 61.1877C123.65 61.3927 123.318 61.5486 122.917 61.6553C122.52 61.7578 122.032 61.8091 121.454 61.8091H117.988ZM119.191 56.3639H121.156C121.689 56.3639 122.072 56.3276 122.303 56.255C122.609 56.161 122.838 56.0051 122.991 55.7873C123.148 55.5695 123.227 55.2962 123.227 54.9673C123.227 54.6556 123.154 54.3822 123.01 54.1473C122.865 53.9082 122.658 53.7459 122.39 53.6605C122.121 53.5708 121.66 53.5259 121.007 53.5259H119.191V56.3639ZM119.191 60.7008H121.454C121.842 60.7008 122.115 60.6859 122.272 60.656C122.549 60.6047 122.78 60.5193 122.966 60.3997C123.152 60.2802 123.305 60.1072 123.425 59.8808C123.545 59.6502 123.605 59.3854 123.605 59.0865C123.605 58.7363 123.518 58.4331 123.344 58.1768C123.171 57.9163 122.929 57.7348 122.619 57.6323C122.313 57.5255 121.871 57.4721 121.292 57.4721H119.191V60.7008Z" fill="#231F20"/>
<path d="M127.051 52.4177H128.142V59.8552L132.978 52.4177H134.186V61.8091H133.095V54.3908L128.254 61.8091H127.051V52.4177Z" fill="#231F20"/>
<path d="M143.169 58.5163L144.371 58.8302C144.119 59.8509 143.665 60.6304 143.008 61.1685C142.355 61.7023 141.555 61.9692 140.609 61.9692C139.629 61.9692 138.831 61.7643 138.216 61.3543C137.604 60.94 137.137 60.3421 136.815 59.5605C136.497 58.779 136.337 57.9398 136.337 57.0429C136.337 56.0649 136.517 55.2129 136.877 54.4869C137.24 53.7566 137.755 53.2035 138.42 52.8277C139.09 52.4476 139.825 52.2575 140.627 52.2575C141.536 52.2575 142.301 52.4967 142.921 52.975C143.541 53.4533 143.973 54.126 144.216 54.993L143.032 55.2812C142.822 54.5979 142.516 54.1004 142.115 53.7886C141.714 53.4768 141.21 53.3209 140.602 53.3209C139.904 53.3209 139.319 53.4939 138.848 53.8398C138.381 54.1858 138.052 54.6513 137.862 55.2364C137.672 55.8172 137.577 56.4173 137.577 57.0365C137.577 57.8351 137.689 58.5334 137.912 59.1313C138.139 59.725 138.491 60.1691 138.966 60.4638C139.441 60.7585 139.956 60.9058 140.509 60.9058C141.183 60.9058 141.753 60.7051 142.22 60.3037C142.687 59.9022 143.003 59.3064 143.169 58.5163Z" fill="#231F20"/>
<path d="M150.459 52.4177H157.606V61.8091H156.397V53.5259H151.661V61.8091H150.459V52.4177Z" fill="#231F20"/>
<path d="M159.1 61.8091L162.59 52.4177H163.886L167.605 61.8091H166.235L165.175 58.9648H161.375L160.377 61.8091H159.1ZM161.722 57.9526H164.803L163.855 55.3517C163.565 54.5616 163.351 53.9124 163.21 53.4042C163.094 54.0064 162.931 54.6043 162.72 55.1979L161.722 57.9526Z" fill="#231F20"/>
<path d="M169.093 61.8091V52.4177H172.521C173.124 52.4177 173.585 52.4476 173.903 52.5074C174.35 52.5842 174.724 52.7316 175.025 52.9494C175.327 53.1629 175.569 53.464 175.751 53.8527C175.937 54.2413 176.03 54.6684 176.03 55.1339C176.03 55.9325 175.784 56.6094 175.292 57.1646C174.8 57.7156 173.912 57.991 172.626 57.991H170.295V61.8091H169.093ZM170.295 56.8828H172.645C173.422 56.8828 173.974 56.7333 174.3 56.4343C174.626 56.1354 174.79 55.7147 174.79 55.1723C174.79 54.7794 174.693 54.4442 174.498 54.1666C174.308 53.8847 174.056 53.6989 173.742 53.6092C173.54 53.5537 173.166 53.5259 172.62 53.5259H170.295V56.8828Z" fill="#231F20"/>
<path d="M179.829 61.8091V53.5259H176.835V52.4177H184.039V53.5259H181.032V61.8091H179.829Z" fill="#231F20"/>
<path d="M185.842 61.8091V52.4177H187.045V56.2742H191.769V52.4177H192.971V61.8091H191.769V57.3824H187.045V61.8091H185.842Z" fill="#231F20"/>
<path d="M195.531 61.8091V52.4177H202.102V53.5259H196.734V56.4023H201.762V57.5042H196.734V60.7008H202.313V61.8091H195.531ZM197.075 51.3133V50H198.24V51.3133H197.075ZM199.387 51.3133V50H200.553V51.3133H199.387Z" fill="#231F20"/>
<path d="M204.514 61.8091V52.4177H207.942C208.545 52.4177 209.006 52.4476 209.324 52.5074C209.771 52.5842 210.145 52.7316 210.446 52.9494C210.748 53.1629 210.99 53.464 211.172 53.8527C211.358 54.2413 211.451 54.6684 211.451 55.1339C211.451 55.9325 211.205 56.6094 210.713 57.1646C210.221 57.7156 209.333 57.991 208.047 57.991H205.716V61.8091H204.514ZM205.716 56.8828H208.066C208.843 56.8828 209.395 56.7333 209.721 56.4343C210.047 56.1354 210.211 55.7147 210.211 55.1723C210.211 54.7794 210.114 54.4442 209.919 54.1666C209.729 53.8847 209.477 53.6989 209.163 53.6092C208.961 53.5537 208.587 53.5259 208.041 53.5259H205.716V56.8828Z" fill="#231F20"/>
<path d="M219.844 58.5163L221.047 58.8302C220.794 59.8509 220.34 60.6304 219.683 61.1685C219.03 61.7023 218.23 61.9692 217.284 61.9692C216.304 61.9692 215.507 61.7643 214.891 61.3543C214.279 60.94 213.812 60.3421 213.49 59.5605C213.172 58.779 213.013 57.9398 213.013 57.0429C213.013 56.0649 213.192 55.2129 213.552 54.4869C213.916 53.7566 214.43 53.2035 215.095 52.8277C215.765 52.4476 216.501 52.2575 217.302 52.2575C218.212 52.2575 218.976 52.4967 219.596 52.975C220.216 53.4533 220.648 54.126 220.892 54.993L219.708 55.2812C219.497 54.5979 219.191 54.1004 218.79 53.7886C218.389 53.4768 217.885 53.3209 217.278 53.3209C216.579 53.3209 215.994 53.4939 215.523 53.8398C215.056 54.1858 214.728 54.6513 214.538 55.2364C214.347 55.8172 214.252 56.4173 214.252 57.0365C214.252 57.8351 214.364 58.5334 214.587 59.1313C214.814 59.725 215.166 60.1691 215.641 60.4638C216.116 60.7585 216.631 60.9058 217.185 60.9058C217.858 60.9058 218.428 60.7051 218.895 60.3037C219.362 59.9022 219.679 59.3064 219.844 58.5163Z" fill="#231F20"/>
<path d="M223.08 52.4177H224.282V56.5304C224.832 56.5304 225.218 56.4215 225.442 56.2037C225.665 55.9816 225.95 55.4521 226.297 54.615C226.549 54 226.756 53.5665 226.917 53.3145C227.082 53.0583 227.316 52.8448 227.617 52.6739C227.919 52.4988 228.252 52.4113 228.616 52.4113C229.078 52.4113 229.322 52.4155 229.347 52.4241V53.5003C229.306 53.5003 229.225 53.4982 229.105 53.4939C228.973 53.4896 228.892 53.4875 228.863 53.4875C228.479 53.4875 228.194 53.5836 228.008 53.7758C227.818 53.968 227.601 54.378 227.357 55.0058C227.051 55.8001 226.793 56.3019 226.582 56.5112C226.371 56.7162 226.119 56.8806 225.826 57.0045C226.413 57.171 226.991 57.7305 227.562 58.6829L229.434 61.8091H227.94L226.421 59.2594C226.004 58.5548 225.654 58.0722 225.373 57.8117C225.092 57.5469 224.729 57.4145 224.282 57.4145V61.8091H223.08V52.4177Z" fill="#231F20"/>
<path d="M231.008 52.4177H232.099V59.8552L236.935 52.4177H238.143V61.8091H237.052V54.3908L232.211 61.8091H231.008V52.4177Z" fill="#231F20"/>
<path d="M239.718 61.8091L243.233 56.9148L240.133 52.4177H241.565L243.214 54.8264C243.557 55.3261 243.801 55.7104 243.946 55.9795C244.148 55.6378 244.388 55.2812 244.665 54.9097L246.493 52.4177H247.801L244.609 56.8443L248.049 61.8091H246.562L244.274 58.4587C244.146 58.2665 244.014 58.0572 243.877 57.8309C243.675 58.1725 243.53 58.4074 243.443 58.5356L241.162 61.8091H239.718Z" fill="#231F20"/>
<path d="M253.709 52.4177H260.856V61.8091H259.648V53.5259H254.912V61.8091H253.709V52.4177Z" fill="#231F20"/>
<path d="M263.348 61.8091V52.4177H266.776C267.38 52.4177 267.841 52.4476 268.159 52.5074C268.605 52.5842 268.979 52.7316 269.281 52.9494C269.583 53.1629 269.824 53.464 270.006 53.8527C270.192 54.2413 270.285 54.6684 270.285 55.1339C270.285 55.9325 270.039 56.6094 269.547 57.1646C269.056 57.7156 268.167 57.991 266.882 57.991H264.551V61.8091H263.348ZM264.551 56.8828H266.9C267.677 56.8828 268.229 56.7333 268.556 56.4343C268.882 56.1354 269.045 55.7147 269.045 55.1723C269.045 54.7794 268.948 54.4442 268.754 54.1666C268.564 53.8847 268.312 53.6989 267.998 53.6092C267.795 53.5537 267.421 53.5259 266.876 53.5259H264.551V56.8828Z" fill="#231F20"/>
<path d="M271.692 57.2351C271.692 55.6763 272.097 54.457 272.907 53.5772C273.717 52.6931 274.763 52.2511 276.044 52.2511C276.883 52.2511 277.639 52.4583 278.313 52.8725C278.986 53.2868 279.499 53.8655 279.85 54.6086C280.206 55.3474 280.383 56.1866 280.383 57.1262C280.383 58.0786 280.197 58.9306 279.825 59.6823C279.453 60.4339 278.926 61.0041 278.245 61.3927C277.563 61.7771 276.827 61.9692 276.038 61.9692C275.182 61.9692 274.418 61.7557 273.744 61.3286C273.07 60.9016 272.56 60.3186 272.213 59.5798C271.866 58.8409 271.692 58.0594 271.692 57.2351ZM272.932 57.2543C272.932 58.3861 273.225 59.2787 273.812 59.9321C274.403 60.5813 275.143 60.9058 276.032 60.9058C276.937 60.9058 277.68 60.577 278.263 59.9193C278.85 59.2616 279.143 58.3284 279.143 57.1198C279.143 56.3553 279.017 55.6891 278.765 55.1211C278.517 54.5488 278.152 54.1068 277.668 53.795C277.189 53.479 276.649 53.3209 276.05 53.3209C275.199 53.3209 274.465 53.6242 273.849 54.2306C273.238 54.8328 272.932 55.8407 272.932 57.2543Z" fill="#231F20"/>
<path d="M283.005 52.4177H288.535V60.7008H289.353V64H288.281V61.8091H282.274V64H281.201V60.7008H281.908C282.64 59.5605 283.005 57.2565 283.005 53.7886V52.4177ZM287.332 53.5259H284.165V54.0064C284.165 54.805 284.094 55.8984 283.954 57.2864C283.817 58.6701 283.547 59.8082 283.142 60.7008H287.332V53.5259Z" fill="#231F20"/>
<path d="M290.314 61.8091L293.804 52.4177H295.1L298.819 61.8091H297.449L296.389 58.9648H292.589L291.591 61.8091H290.314ZM292.936 57.9526H296.017L295.069 55.3517C294.779 54.5616 294.564 53.9124 294.424 53.4042C294.308 54.0064 294.145 54.6043 293.934 55.1979L292.936 57.9526Z" fill="#231F20"/>
<path d="M305.805 52.4177V56.5304C306.396 56.5304 306.801 56.4194 307.02 56.1973C307.243 55.971 307.526 55.4435 307.87 54.615C308.122 54 308.328 53.5665 308.489 53.3145C308.655 53.0583 308.888 52.8448 309.19 52.6739C309.492 52.4988 309.822 52.4113 310.182 52.4113C310.574 52.4113 310.818 52.4155 310.913 52.4241V53.5003C310.876 53.5003 310.798 53.4982 310.678 53.4939C310.545 53.4896 310.465 53.4875 310.436 53.4875C310.052 53.4875 309.766 53.5836 309.58 53.7758C309.39 53.968 309.173 54.378 308.93 55.0058C308.665 55.6848 308.436 56.1482 308.241 56.3959C308.047 56.6393 307.766 56.8422 307.398 57.0045C307.993 57.1753 308.57 57.7348 309.128 58.6829L311 61.8091H309.512L307.993 59.2594C307.588 58.5847 307.248 58.1085 306.971 57.8309C306.694 57.5533 306.305 57.4145 305.805 57.4145V61.8091H304.572V57.4145C304.175 57.4145 303.824 57.5234 303.518 57.7412C303.216 57.9547 302.863 58.4181 302.458 59.1313L302.383 59.2594L300.865 61.8091H299.371L301.243 58.6829C301.813 57.7305 302.392 57.171 302.978 57.0045C302.652 56.8678 302.385 56.6863 302.179 56.46C301.972 56.2293 301.726 55.7446 301.441 55.0058C301.181 54.3353 300.958 53.9146 300.772 53.7438C300.586 53.5729 300.309 53.4875 299.941 53.4875L299.457 53.5003V52.4241C299.503 52.4155 299.734 52.4113 300.152 52.4113C300.548 52.4113 300.891 52.4967 301.181 52.6675C301.474 52.8341 301.704 53.0455 301.869 53.3017C302.034 53.5537 302.247 53.9915 302.507 54.615C302.855 55.4563 303.136 55.9838 303.35 56.1973C303.569 56.4108 303.977 56.5219 304.572 56.5304V52.4177H305.805Z" fill="#231F20"/>
<path d="M96.8313 58.5163L98.0339 58.8302C97.7818 59.8509 97.3272 60.6304 96.6701 61.1685C96.0172 61.7023 95.2175 61.9692 94.2711 61.9692C93.2917 61.9692 92.4941 61.7643 91.8783 61.3543C91.2667 60.94 90.7997 60.3421 90.4773 59.5605C90.1591 58.779 90 57.9398 90 57.0429C90 56.0649 90.1798 55.2129 90.5393 54.4869C90.903 53.7566 91.4175 53.2035 92.0829 52.8277C92.7524 52.4476 93.488 52.2575 94.2897 52.2575C95.1989 52.2575 95.9635 52.4967 96.5834 52.975C97.2033 53.4533 97.6351 54.126 97.879 54.993L96.6949 55.2812C96.4842 54.5979 96.1784 54.1004 95.7775 53.7886C95.3766 53.4768 94.8724 53.3209 94.2649 53.3209C93.5665 53.3209 92.9817 53.4939 92.5106 53.8398C92.0436 54.1858 91.7151 54.6513 91.525 55.2364C91.3349 55.8172 91.2398 56.4173 91.2398 57.0365C91.2398 57.8351 91.3514 58.5334 91.5746 59.1313C91.8018 59.725 92.1531 60.1691 92.6284 60.4638C93.1036 60.7585 93.6182 60.9058 94.1719 60.9058C94.8456 60.9058 95.4159 60.7051 95.8829 60.3037C96.3499 59.9022 96.666 59.3064 96.8313 58.5163Z" stroke="#231F20" stroke-width="0.5"/>
<path d="M100.073 61.8091V52.4177H106.644V53.5259H101.276V56.4023H106.303V57.5042H101.276V60.7008H106.855V61.8091H100.073Z" stroke="#231F20" stroke-width="0.5"/>
<path d="M109.043 61.8091V52.4177H112.471C113.075 52.4177 113.536 52.4476 113.854 52.5074C114.3 52.5842 114.674 52.7316 114.976 52.9494C115.277 53.1629 115.519 53.464 115.701 53.8527C115.887 54.2413 115.98 54.6684 115.98 55.1339C115.98 55.9325 115.734 56.6094 115.242 57.1646C114.751 57.7156 113.862 57.991 112.577 57.991H110.246V61.8091H109.043ZM110.246 56.8828H112.595C113.372 56.8828 113.924 56.7333 114.25 56.4343C114.577 56.1354 114.74 55.7147 114.74 55.1723C114.74 54.7794 114.643 54.4442 114.449 54.1666C114.259 53.8847 114.007 53.6989 113.693 53.6092C113.49 53.5537 113.116 53.5259 112.571 53.5259H110.246V56.8828Z" stroke="#231F20" stroke-width="0.5"/>
<path d="M117.988 61.8091V52.4177H121.398C122.092 52.4177 122.648 52.5138 123.065 52.706C123.487 52.8939 123.815 53.1864 124.051 53.5836C124.291 53.9765 124.411 54.3886 124.411 54.82C124.411 55.2214 124.305 55.5994 124.094 55.9539C123.884 56.3083 123.565 56.5945 123.14 56.8123C123.689 56.9789 124.111 57.2629 124.404 57.6643C124.702 58.0658 124.851 58.5398 124.851 59.0865C124.851 59.5264 124.76 59.9364 124.578 60.3165C124.4 60.6923 124.179 60.9827 123.915 61.1877C123.65 61.3927 123.318 61.5486 122.917 61.6553C122.52 61.7578 122.032 61.8091 121.454 61.8091H117.988ZM119.191 56.3639H121.156C121.689 56.3639 122.072 56.3276 122.303 56.255C122.609 56.161 122.838 56.0051 122.991 55.7873C123.148 55.5695 123.227 55.2962 123.227 54.9673C123.227 54.6556 123.154 54.3822 123.01 54.1473C122.865 53.9082 122.658 53.7459 122.39 53.6605C122.121 53.5708 121.66 53.5259 121.007 53.5259H119.191V56.3639ZM119.191 60.7008H121.454C121.842 60.7008 122.115 60.6859 122.272 60.656C122.549 60.6047 122.78 60.5193 122.966 60.3997C123.152 60.2802 123.305 60.1072 123.425 59.8808C123.545 59.6502 123.605 59.3854 123.605 59.0865C123.605 58.7363 123.518 58.4331 123.344 58.1768C123.171 57.9163 122.929 57.7348 122.619 57.6323C122.313 57.5255 121.871 57.4721 121.292 57.4721H119.191V60.7008Z" stroke="#231F20" stroke-width="0.5"/>
<path d="M127.051 52.4177H128.142V59.8552L132.978 52.4177H134.186V61.8091H133.095V54.3908L128.254 61.8091H127.051V52.4177Z" stroke="#231F20" stroke-width="0.5"/>
<path d="M143.169 58.5163L144.371 58.8302C144.119 59.8509 143.665 60.6304 143.008 61.1685C142.355 61.7023 141.555 61.9692 140.609 61.9692C139.629 61.9692 138.831 61.7643 138.216 61.3543C137.604 60.94 137.137 60.3421 136.815 59.5605C136.497 58.779 136.337 57.9398 136.337 57.0429C136.337 56.0649 136.517 55.2129 136.877 54.4869C137.24 53.7566 137.755 53.2035 138.42 52.8277C139.09 52.4476 139.825 52.2575 140.627 52.2575C141.536 52.2575 142.301 52.4967 142.921 52.975C143.541 53.4533 143.973 54.126 144.216 54.993L143.032 55.2812C142.822 54.5979 142.516 54.1004 142.115 53.7886C141.714 53.4768 141.21 53.3209 140.602 53.3209C139.904 53.3209 139.319 53.4939 138.848 53.8398C138.381 54.1858 138.052 54.6513 137.862 55.2364C137.672 55.8172 137.577 56.4173 137.577 57.0365C137.577 57.8351 137.689 58.5334 137.912 59.1313C138.139 59.725 138.491 60.1691 138.966 60.4638C139.441 60.7585 139.956 60.9058 140.509 60.9058C141.183 60.9058 141.753 60.7051 142.22 60.3037C142.687 59.9022 143.003 59.3064 143.169 58.5163Z" stroke="#231F20" stroke-width="0.5"/>
<path d="M150.459 52.4177H157.606V61.8091H156.397V53.5259H151.661V61.8091H150.459V52.4177Z" stroke="#231F20" stroke-width="0.5"/>
<path d="M159.1 61.8091L162.59 52.4177H163.886L167.605 61.8091H166.235L165.175 58.9648H161.375L160.377 61.8091H159.1ZM161.722 57.9526H164.803L163.855 55.3517C163.565 54.5616 163.351 53.9124 163.21 53.4042C163.094 54.0064 162.931 54.6043 162.72 55.1979L161.722 57.9526Z" stroke="#231F20" stroke-width="0.5"/>
<path d="M169.093 61.8091V52.4177H172.521C173.124 52.4177 173.585 52.4476 173.903 52.5074C174.35 52.5842 174.724 52.7316 175.025 52.9494C175.327 53.1629 175.569 53.464 175.751 53.8527C175.937 54.2413 176.03 54.6684 176.03 55.1339C176.03 55.9325 175.784 56.6094 175.292 57.1646C174.8 57.7156 173.912 57.991 172.626 57.991H170.295V61.8091H169.093ZM170.295 56.8828H172.645C173.422 56.8828 173.974 56.7333 174.3 56.4343C174.626 56.1354 174.79 55.7147 174.79 55.1723C174.79 54.7794 174.693 54.4442 174.498 54.1666C174.308 53.8847 174.056 53.6989 173.742 53.6092C173.54 53.5537 173.166 53.5259 172.62 53.5259H170.295V56.8828Z" stroke="#231F20" stroke-width="0.5"/>
<path d="M179.829 61.8091V53.5259H176.835V52.4177H184.039V53.5259H181.032V61.8091H179.829Z" stroke="#231F20" stroke-width="0.5"/>
<path d="M185.842 61.8091V52.4177H187.045V56.2742H191.769V52.4177H192.971V61.8091H191.769V57.3824H187.045V61.8091H185.842Z" stroke="#231F20" stroke-width="0.5"/>
<path d="M195.531 61.8091V52.4177H202.102V53.5259H196.734V56.4023H201.762V57.5042H196.734V60.7008H202.313V61.8091H195.531ZM197.075 51.3133V50H198.24V51.3133H197.075ZM199.387 51.3133V50H200.553V51.3133H199.387Z" stroke="#231F20" stroke-width="0.5"/>
<path d="M204.514 61.8091V52.4177H207.942C208.545 52.4177 209.006 52.4476 209.324 52.5074C209.771 52.5842 210.145 52.7316 210.446 52.9494C210.748 53.1629 210.99 53.464 211.172 53.8527C211.358 54.2413 211.451 54.6684 211.451 55.1339C211.451 55.9325 211.205 56.6094 210.713 57.1646C210.221 57.7156 209.333 57.991 208.047 57.991H205.716V61.8091H204.514ZM205.716 56.8828H208.066C208.843 56.8828 209.395 56.7333 209.721 56.4343C210.047 56.1354 210.211 55.7147 210.211 55.1723C210.211 54.7794 210.114 54.4442 209.919 54.1666C209.729 53.8847 209.477 53.6989 209.163 53.6092C208.961 53.5537 208.587 53.5259 208.041 53.5259H205.716V56.8828Z" stroke="#231F20" stroke-width="0.5"/>
<path d="M219.844 58.5163L221.047 58.8302C220.794 59.8509 220.34 60.6304 219.683 61.1685C219.03 61.7023 218.23 61.9692 217.284 61.9692C216.304 61.9692 215.507 61.7643 214.891 61.3543C214.279 60.94 213.812 60.3421 213.49 59.5605C213.172 58.779 213.013 57.9398 213.013 57.0429C213.013 56.0649 213.192 55.2129 213.552 54.4869C213.916 53.7566 214.43 53.2035 215.095 52.8277C215.765 52.4476 216.501 52.2575 217.302 52.2575C218.212 52.2575 218.976 52.4967 219.596 52.975C220.216 53.4533 220.648 54.126 220.892 54.993L219.708 55.2812C219.497 54.5979 219.191 54.1004 218.79 53.7886C218.389 53.4768 217.885 53.3209 217.278 53.3209C216.579 53.3209 215.994 53.4939 215.523 53.8398C215.056 54.1858 214.728 54.6513 214.538 55.2364C214.347 55.8172 214.252 56.4173 214.252 57.0365C214.252 57.8351 214.364 58.5334 214.587 59.1313C214.814 59.725 215.166 60.1691 215.641 60.4638C216.116 60.7585 216.631 60.9058 217.185 60.9058C217.858 60.9058 218.428 60.7051 218.895 60.3037C219.362 59.9022 219.679 59.3064 219.844 58.5163Z" stroke="#231F20" stroke-width="0.5"/>
<path d="M223.08 52.4177H224.282V56.5304C224.832 56.5304 225.218 56.4215 225.442 56.2037C225.665 55.9816 225.95 55.4521 226.297 54.615C226.549 54 226.756 53.5665 226.917 53.3145C227.082 53.0583 227.316 52.8448 227.617 52.6739C227.919 52.4988 228.252 52.4113 228.616 52.4113C229.078 52.4113 229.322 52.4155 229.347 52.4241V53.5003C229.306 53.5003 229.225 53.4982 229.105 53.4939C228.973 53.4896 228.892 53.4875 228.863 53.4875C228.479 53.4875 228.194 53.5836 228.008 53.7758C227.818 53.968 227.601 54.378 227.357 55.0058C227.051 55.8001 226.793 56.3019 226.582 56.5112C226.371 56.7162 226.119 56.8806 225.826 57.0045C226.413 57.171 226.991 57.7305 227.562 58.6829L229.434 61.8091H227.94L226.421 59.2594C226.004 58.5548 225.654 58.0722 225.373 57.8117C225.092 57.5469 224.729 57.4145 224.282 57.4145V61.8091H223.08V52.4177Z" stroke="#231F20" stroke-width="0.5"/>
<path d="M231.008 52.4177H232.099V59.8552L236.935 52.4177H238.143V61.8091H237.052V54.3908L232.211 61.8091H231.008V52.4177Z" stroke="#231F20" stroke-width="0.5"/>
<path d="M239.718 61.8091L243.233 56.9148L240.133 52.4177H241.565L243.214 54.8264C243.557 55.3261 243.801 55.7104 243.946 55.9795C244.148 55.6378 244.388 55.2812 244.665 54.9097L246.493 52.4177H247.801L244.609 56.8443L248.049 61.8091H246.562L244.274 58.4587C244.146 58.2665 244.014 58.0572 243.877 57.8309C243.675 58.1725 243.53 58.4074 243.443 58.5356L241.162 61.8091H239.718Z" stroke="#231F20" stroke-width="0.5"/>
<path d="M253.709 52.4177H260.856V61.8091H259.648V53.5259H254.912V61.8091H253.709V52.4177Z" stroke="#231F20" stroke-width="0.5"/>
<path d="M263.348 61.8091V52.4177H266.776C267.38 52.4177 267.841 52.4476 268.159 52.5074C268.605 52.5842 268.979 52.7316 269.281 52.9494C269.583 53.1629 269.824 53.464 270.006 53.8527C270.192 54.2413 270.285 54.6684 270.285 55.1339C270.285 55.9325 270.039 56.6094 269.547 57.1646C269.056 57.7156 268.167 57.991 266.882 57.991H264.551V61.8091H263.348ZM264.551 56.8828H266.9C267.677 56.8828 268.229 56.7333 268.556 56.4343C268.882 56.1354 269.045 55.7147 269.045 55.1723C269.045 54.7794 268.948 54.4442 268.754 54.1666C268.564 53.8847 268.312 53.6989 267.998 53.6092C267.795 53.5537 267.421 53.5259 266.876 53.5259H264.551V56.8828Z" stroke="#231F20" stroke-width="0.5"/>
<path d="M271.692 57.2351C271.692 55.6763 272.097 54.457 272.907 53.5772C273.717 52.6931 274.763 52.2511 276.044 52.2511C276.883 52.2511 277.639 52.4583 278.313 52.8725C278.986 53.2868 279.499 53.8655 279.85 54.6086C280.206 55.3474 280.383 56.1866 280.383 57.1262C280.383 58.0786 280.197 58.9306 279.825 59.6823C279.453 60.4339 278.926 61.0041 278.245 61.3927C277.563 61.7771 276.827 61.9692 276.038 61.9692C275.182 61.9692 274.418 61.7557 273.744 61.3286C273.07 60.9016 272.56 60.3186 272.213 59.5798C271.866 58.8409 271.692 58.0594 271.692 57.2351ZM272.932 57.2543C272.932 58.3861 273.225 59.2787 273.812 59.9321C274.403 60.5813 275.143 60.9058 276.032 60.9058C276.937 60.9058 277.68 60.577 278.263 59.9193C278.85 59.2616 279.143 58.3284 279.143 57.1198C279.143 56.3553 279.017 55.6891 278.765 55.1211C278.517 54.5488 278.152 54.1068 277.668 53.795C277.189 53.479 276.649 53.3209 276.05 53.3209C275.199 53.3209 274.465 53.6242 273.849 54.2306C273.238 54.8328 272.932 55.8407 272.932 57.2543Z" stroke="#231F20" stroke-width="0.5"/>
<path d="M283.005 52.4177H288.535V60.7008H289.353V64H288.281V61.8091H282.274V64H281.201V60.7008H281.908C282.64 59.5605 283.005 57.2565 283.005 53.7886V52.4177ZM287.332 53.5259H284.165V54.0064C284.165 54.805 284.094 55.8984 283.954 57.2864C283.817 58.6701 283.547 59.8082 283.142 60.7008H287.332V53.5259Z" stroke="#231F20" stroke-width="0.5"/>
<path d="M290.314 61.8091L293.804 52.4177H295.1L298.819 61.8091H297.449L296.389 58.9648H292.589L291.591 61.8091H290.314ZM292.936 57.9526H296.017L295.069 55.3517C294.779 54.5616 294.564 53.9124 294.424 53.4042C294.308 54.0064 294.145 54.6043 293.934 55.1979L292.936 57.9526Z" stroke="#231F20" stroke-width="0.5"/>
<path d="M305.805 52.4177V56.5304C306.396 56.5304 306.801 56.4194 307.02 56.1973C307.243 55.971 307.526 55.4435 307.87 54.615C308.122 54 308.328 53.5665 308.489 53.3145C308.655 53.0583 308.888 52.8448 309.19 52.6739C309.492 52.4988 309.822 52.4113 310.182 52.4113C310.574 52.4113 310.818 52.4155 310.913 52.4241V53.5003C310.876 53.5003 310.798 53.4982 310.678 53.4939C310.545 53.4896 310.465 53.4875 310.436 53.4875C310.052 53.4875 309.766 53.5836 309.58 53.7758C309.39 53.968 309.173 54.378 308.93 55.0058C308.665 55.6848 308.436 56.1482 308.241 56.3959C308.047 56.6393 307.766 56.8422 307.398 57.0045C307.993 57.1753 308.57 57.7348 309.128 58.6829L311 61.8091H309.512L307.993 59.2594C307.588 58.5847 307.248 58.1085 306.971 57.8309C306.694 57.5533 306.305 57.4145 305.805 57.4145V61.8091H304.572V57.4145C304.175 57.4145 303.824 57.5234 303.518 57.7412C303.216 57.9547 302.863 58.4181 302.458 59.1313L302.383 59.2594L300.865 61.8091H299.371L301.243 58.6829C301.813 57.7305 302.392 57.171 302.978 57.0045C302.652 56.8678 302.385 56.6863 302.179 56.46C301.972 56.2293 301.726 55.7446 301.441 55.0058C301.181 54.3353 300.958 53.9146 300.772 53.7438C300.586 53.5729 300.309 53.4875 299.941 53.4875L299.457 53.5003V52.4241C299.503 52.4155 299.734 52.4113 300.152 52.4113C300.548 52.4113 300.891 52.4967 301.181 52.6675C301.474 52.8341 301.704 53.0455 301.869 53.3017C302.034 53.5537 302.247 53.9915 302.507 54.615C302.855 55.4563 303.136 55.9838 303.35 56.1973C303.569 56.4108 303.977 56.5219 304.572 56.5304V52.4177H305.805Z" stroke="#231F20" stroke-width="0.5"/>
</svg>
