<svg width="164" height="35" viewBox="0 0 164 35" fill="none" xmlns="http://www.w3.org/2000/svg">
<g clip-path="url(#clip0_396_4125)">
<path fill-rule="evenodd" clip-rule="evenodd" d="M57.0588 10.8093C57.0736 11.4845 56.9349 12.0018 56.6479 12.3472C56.3443 12.7119 56.0076 12.9806 55.6482 13.1454C55.2173 13.3452 54.7078 13.4621 54.1364 13.4926L52.226 13.558V8.06928L54.4496 8.11377C55.1832 8.20711 55.7311 8.39554 56.0774 8.67556C56.4333 8.9643 56.6889 9.267 56.8328 9.56971C56.9977 9.94481 57.0745 10.3566 57.0588 10.7945V10.8015V10.8093ZM60.7906 10.654C60.7906 10.1777 60.7479 9.7023 60.6607 9.23211C60.5752 8.8413 60.4461 8.41909 60.276 7.97768C60.0989 7.51796 59.8319 7.10534 59.4786 6.75117C59.1672 6.38828 58.7729 6.05591 58.3054 5.76106C57.9084 5.5203 57.3885 5.29436 56.7596 5.08936C56.1236 4.88349 55.3525 4.77881 54.4679 4.77881H48.4941V22.4629H52.2504V17.1259L54.2525 17.125C54.8631 17.1093 55.4659 17.0317 56.0451 16.8956C56.5336 16.777 57.0562 16.6069 57.597 16.387C58.1553 16.1602 58.6421 15.8331 59.0468 15.4126C59.3783 15.1152 59.6775 14.7357 59.9375 14.2847C60.1617 13.8887 60.3649 13.3949 60.5429 12.8183C60.7244 12.2321 60.8072 11.5028 60.7906 10.654Z" fill="#0060A9"/>
<path fill-rule="evenodd" clip-rule="evenodd" d="M69.9587 15.8378H65.0911L67.4926 9.42614L69.9587 15.8378ZM96.4509 5.47531C96.4273 5.23804 96.313 5.03565 96.122 4.89259C96.0382 4.82978 95.9615 4.78529 95.8882 4.75912C95.7294 4.69021 95.5358 4.62478 95.3125 4.56372C95.083 4.50265 94.8257 4.45729 94.5483 4.43199C94.2656 4.40582 93.9577 4.41367 93.6323 4.45729C93.2991 4.50265 92.9598 4.60646 92.6178 4.76959C92.5384 4.80884 92.4599 4.85769 92.384 4.9144C92.3256 4.95365 92.2601 5.00512 92.1895 5.06706C92.0979 5.14731 92.0272 5.24414 91.9784 5.3558L86.4312 14.3182L80.8665 5.3305C80.7915 5.21797 80.7138 5.12114 80.6345 5.04089C80.5551 4.96238 80.4739 4.90044 80.3902 4.85508C80.3187 4.80274 80.2445 4.75738 80.1704 4.71986L80.1451 4.70852C79.5449 4.4791 78.9491 4.39448 78.3716 4.45642C77.8098 4.51748 77.3745 4.59774 77.0413 4.70329L77.023 4.71027C76.9192 4.75127 76.8258 4.80361 76.7438 4.86467C76.6662 4.91789 76.5955 4.99291 76.5283 5.09497C76.449 5.21274 76.4097 5.34184 76.4097 5.47706V21.9146L69.7459 5.37848L69.7363 5.35842C69.6465 5.17784 69.4833 5.02257 69.2556 4.89869C69.0908 4.80623 68.8718 4.71812 68.5857 4.62827C68.2961 4.53842 67.9183 4.49218 67.4647 4.49218C67.0041 4.49218 66.643 4.53231 66.3603 4.61518C66.0777 4.69718 65.8657 4.78355 65.7148 4.87863C65.4976 5.00861 65.351 5.16999 65.283 5.35231L58.4316 22.2513H62.6799L63.8463 19.2722H71.255L72.4222 22.2513H76.4097V22.2766H80.1913V11.2397L86.2349 20.8861H86.6266L92.6946 11.2371V22.2766H96.4517V5.50148L96.4509 5.47531Z" fill="#0060A9"/>
<path fill-rule="evenodd" clip-rule="evenodd" d="M108.461 10.8088C108.476 11.484 108.337 12.0013 108.05 12.3467C107.747 12.7114 107.41 12.9801 107.051 13.1449C106.62 13.3447 106.109 13.4616 105.539 13.4921L103.628 13.5576V8.06879L105.851 8.11328C106.586 8.20662 107.133 8.39505 107.479 8.67507C107.835 8.96381 108.09 9.26652 108.234 9.56922C108.4 9.94432 108.476 10.3561 108.461 10.794L108.46 10.801L108.461 10.8088ZM112.193 10.6535C112.193 10.1772 112.15 9.70181 112.063 9.23162C111.977 8.84081 111.848 8.4186 111.678 7.97719C111.501 7.51747 111.233 7.10485 110.881 6.75068C110.569 6.38779 110.175 6.05543 109.708 5.76058C109.311 5.51981 108.79 5.29387 108.162 5.08887C107.526 4.883 106.755 4.77832 105.87 4.77832H99.8965V22.4624H103.653V17.1254L105.654 17.1246C106.265 17.1089 106.868 17.0312 107.447 16.8951C107.935 16.7765 108.458 16.6064 108.998 16.3866C109.557 16.1597 110.044 15.8326 110.448 15.4121C110.78 15.1147 111.08 14.7352 111.34 14.2842C111.563 13.8882 111.767 13.3944 111.945 12.8178C112.126 12.2316 112.21 11.5023 112.193 10.6535Z" fill="#AB54FF"/>
<path fill-rule="evenodd" clip-rule="evenodd" d="M123.16 16.0498H118.292L120.694 9.63718L123.16 16.0498ZM122.947 5.5904L122.938 5.57034C122.848 5.38889 122.685 5.23448 122.457 5.10974C122.292 5.01814 122.073 4.93004 121.788 4.84019C121.497 4.75034 121.12 4.7041 120.666 4.7041C120.205 4.7041 119.845 4.74423 119.562 4.82623C119.28 4.9091 119.067 4.99546 118.916 5.08968C118.699 5.21965 118.552 5.38191 118.484 5.56423L111.633 22.4632H115.881L117.048 19.4842H124.457L125.623 22.4632H129.747L122.947 5.5904Z" fill="#AB54FF"/>
<path fill-rule="evenodd" clip-rule="evenodd" d="M142.285 13.5591C142.285 15.2253 141.896 16.5477 141.129 17.4881C140.364 18.4233 139.254 18.8795 137.737 18.8804L134.821 18.8114V8.4367H137.734C138.488 8.4367 139.155 8.55883 139.715 8.79959C140.27 9.03949 140.743 9.38319 141.121 9.82197C141.5 10.2634 141.792 10.8034 141.987 11.4288C142.185 12.0621 142.285 12.7783 142.285 13.5591ZM143.698 7.25643C142.971 6.49575 142.087 5.90343 141.073 5.49343C140.06 5.08517 138.936 4.88628 137.738 4.90285L134.556 4.854H131.113V22.4133H134.556H137.738C138.941 22.3968 140.064 22.1726 141.076 21.7477C142.09 21.3212 142.973 20.7158 143.699 19.9472C144.423 19.1796 144.997 18.2532 145.404 17.1915C145.811 16.1316 146.017 14.9435 146.017 13.6577C146.017 12.3413 145.811 11.1244 145.405 10.0401C144.997 8.95226 144.423 8.01624 143.698 7.25643Z" fill="#4578FF"/>
<path fill-rule="evenodd" clip-rule="evenodd" d="M161.885 4.91332C161.689 4.80166 161.469 4.71705 161.238 4.66383C160.968 4.5923 160.661 4.55566 160.326 4.55566C159.991 4.55566 159.684 4.5923 159.422 4.66209C159.18 4.71705 158.962 4.80341 158.775 4.91594C158.462 5.10262 158.398 5.35909 158.398 5.54054V13.3776L158.348 14.2386L158.347 14.2543C158.347 15.1441 158.291 15.9214 158.178 16.5669C158.07 17.1863 157.868 17.7053 157.578 18.1092C157.294 18.5044 156.908 18.8045 156.427 18.9981C155.933 19.2005 155.289 19.3017 154.517 19.3017C153.727 19.3017 153.075 19.2005 152.58 18.9981C152.101 18.8045 151.719 18.5061 151.444 18.1118C151.161 17.7071 150.959 17.1863 150.842 16.5634C150.721 15.9214 150.66 15.145 150.66 14.2543V5.66441C150.66 5.54664 150.64 5.44022 150.601 5.34862C150.568 5.27098 150.526 5.20381 150.478 5.14973C150.423 5.07471 150.365 5.01975 150.299 4.98486C150.167 4.91071 149.997 4.83656 149.777 4.75717C149.55 4.67605 149.29 4.62109 149.005 4.59405C148.723 4.56788 148.415 4.57573 148.089 4.62022C147.749 4.66645 147.403 4.78945 147.061 4.98834L147.03 5.00579L146.884 5.15234L146.866 5.18113C146.792 5.305 146.754 5.45069 146.754 5.61556V14.4279C146.754 17.1462 147.411 19.2764 148.707 20.7585C150.011 22.252 151.957 23.0092 154.495 23.0092C157.045 22.9751 159.002 22.197 160.314 20.6975C161.618 19.2066 162.279 17.0633 162.279 14.3285V5.56496C162.279 5.28669 162.143 5.06075 161.885 4.91332Z" fill="#4578FF"/>
<path d="M51.6 27.5825C51.6 27.974 51.5426 28.3161 51.4277 28.6088C51.3128 28.8997 51.15 29.1219 50.9393 29.2756C50.7287 29.4293 50.4829 29.5061 50.202 29.5061C49.9276 29.5061 49.6842 29.4293 49.4719 29.2756C49.2597 29.1201 49.0945 28.8997 48.9764 28.6143C48.8599 28.327 48.8001 27.995 48.7969 27.6181V27.33C48.7969 26.9458 48.8551 26.6065 48.9716 26.3119C49.0881 26.0174 49.2525 25.7924 49.4648 25.6369C49.6786 25.4795 49.9228 25.4009 50.1973 25.4009C50.4765 25.4009 50.7223 25.4786 50.9346 25.6341C51.1484 25.7878 51.3128 26.0119 51.4277 26.3064C51.5426 26.5992 51.6 26.9403 51.6 27.33V27.5825ZM51.1428 27.3245C51.1428 26.8507 51.0598 26.4876 50.8939 26.2351C50.7279 25.9808 50.4957 25.8537 50.1973 25.8537C49.9068 25.8537 49.6778 25.9808 49.5102 26.2351C49.3443 26.4876 49.2589 26.8388 49.2541 27.2888V27.5825C49.2541 28.0417 49.3379 28.403 49.5054 28.6664C49.6746 28.928 49.9068 29.0588 50.202 29.0588C50.4989 29.0588 50.7287 28.9353 50.8915 28.6884C51.0543 28.4396 51.138 28.0837 51.1428 27.6209V27.3245Z" fill="#231F20"/>
<path d="M55.1426 29.4512H54.6806L52.9259 26.3723V29.4512H52.4639V25.4558H52.9259L54.6854 28.5484V25.4558H55.1426V29.4512Z" fill="#231F20"/>
<path d="M56.5954 29.0204H58.2471V29.4512H56.1334V25.4558H56.5954V29.0204Z" fill="#231F20"/>
<path d="M59.4365 29.4512H58.9769V25.4558H59.4365V29.4512Z" fill="#231F20"/>
<path d="M63.1323 29.4512H62.6703L60.9156 26.3723V29.4512H60.4536V25.4558H60.9156L62.6751 28.5484V25.4558H63.1323V29.4512Z" fill="#231F20"/>
<path d="M66.0932 27.6044H64.5827V29.0204H66.3374V29.4512H64.1231V25.4558H66.3134V25.8893H64.5827V27.1736H66.0932V27.6044Z" fill="#231F20"/>
<path d="M68.9676 29.4512H68.508V25.4558H68.9676V29.4512Z" fill="#231F20"/>
<path d="M72.6634 29.4512H72.2014L70.4467 26.3723V29.4512H69.9847V25.4558H70.4467L72.2062 28.5484V25.4558H72.6634V29.4512Z" fill="#231F20"/>
<path d="M74.6811 27.6703C74.2869 27.5404 73.9997 27.3812 73.8193 27.1928C73.6406 27.0025 73.5512 26.7684 73.5512 26.4903C73.5512 26.1756 73.6605 25.9159 73.8792 25.711C74.0994 25.5042 74.3851 25.4009 74.7362 25.4009C74.9755 25.4009 75.1886 25.4539 75.3753 25.56C75.5636 25.6661 75.7089 25.8125 75.811 25.9991C75.9147 26.1857 75.9666 26.3897 75.9666 26.611H75.5046C75.5046 26.3696 75.4376 26.1802 75.3035 26.043C75.1694 25.904 74.9803 25.8345 74.7362 25.8345C74.5095 25.8345 74.3324 25.8921 74.2047 26.0073C74.0787 26.1208 74.0156 26.279 74.0156 26.4821C74.0156 26.6449 74.0755 26.783 74.1952 26.8964C74.3164 27.008 74.5215 27.1105 74.8104 27.2038C75.1008 27.2971 75.3274 27.4004 75.4902 27.5139C75.6546 27.6255 75.7759 27.7563 75.8541 27.9063C75.9339 28.0563 75.9738 28.2328 75.9738 28.4359C75.9738 28.7597 75.8637 29.0195 75.6434 29.2152C75.4232 29.4092 75.1287 29.5061 74.7601 29.5061C74.5207 29.5061 74.2973 29.454 74.0898 29.3497C73.8824 29.2436 73.722 29.0991 73.6087 28.9161C73.497 28.7332 73.4411 28.5255 73.4411 28.2932H73.9031C73.9031 28.5347 73.9805 28.7259 74.1353 28.8667C74.2917 29.0058 74.5 29.0753 74.7601 29.0753C75.0027 29.0753 75.1886 29.0186 75.3179 28.9051C75.4471 28.7917 75.5118 28.6371 75.5118 28.4414C75.5118 28.2456 75.4519 28.0947 75.3322 27.9886C75.2125 27.8807 74.9955 27.7746 74.6811 27.6703Z" fill="#231F20"/>
<path d="M79.1932 25.4558V28.1725C79.1916 28.5493 79.0879 28.8576 78.882 29.0972C78.6777 29.3369 78.4 29.4714 78.0489 29.5006L77.9268 29.5061C77.5454 29.5061 77.2414 29.3881 77.0148 29.1521C76.7882 28.9161 76.6733 28.5914 76.6701 28.1779V25.4558H77.1249V28.1615C77.1249 28.4505 77.1943 28.6756 77.3332 28.8365C77.472 28.9957 77.6699 29.0753 77.9268 29.0753C78.187 29.0753 78.3857 28.9957 78.5229 28.8365C78.6618 28.6774 78.7312 28.4533 78.7312 28.1642V25.4558H79.1932Z" fill="#231F20"/>
<path d="M81.3713 27.8349H80.5526V29.4512H80.0906V25.4558H81.2444C81.637 25.4558 81.9386 25.5582 82.1493 25.7631C82.3615 25.968 82.4677 26.2662 82.4677 26.6577C82.4677 26.9065 82.4086 27.1233 82.2905 27.3081C82.174 27.4928 82.0112 27.631 81.8022 27.7224L82.6209 29.4183V29.4512H82.1277L81.3713 27.8349ZM80.5526 27.4041H81.2588C81.487 27.4041 81.6681 27.3364 81.8022 27.201C81.9378 27.0657 82.0056 26.8845 82.0056 26.6577C82.0056 26.4107 81.941 26.2214 81.8117 26.0897C81.6841 25.9579 81.499 25.8912 81.2564 25.8893H80.5526V27.4041Z" fill="#231F20"/>
<path d="M85.2131 28.4085H83.7529L83.4249 29.4512H82.9509L84.2819 25.4558H84.6841L86.0174 29.4512H85.5458L85.2131 28.4085ZM83.8917 27.9749H85.0766L84.483 26.1061L83.8917 27.9749Z" fill="#231F20"/>
<path d="M89.3373 29.4512H88.8753L87.1206 26.3723V29.4512H86.6586V25.4558H87.1206L88.8801 28.5484V25.4558H89.3373V29.4512Z" fill="#231F20"/>
<path d="M92.8919 28.1834C92.8488 28.606 92.7123 28.9326 92.4825 29.1631C92.2543 29.3918 91.9503 29.5061 91.5705 29.5061C91.1587 29.5061 90.8284 29.3369 90.5794 28.9984C90.3321 28.66 90.2084 28.2072 90.2084 27.6401V27.2559C90.2084 26.8845 90.2658 26.558 90.3807 26.2763C90.4972 25.9945 90.6616 25.7787 90.8739 25.6286C91.0861 25.4768 91.3319 25.4009 91.6112 25.4009C91.9814 25.4009 92.2782 25.5198 92.5017 25.7576C92.7251 25.9936 92.8552 26.3211 92.8919 26.74H92.4298C92.3899 26.4217 92.303 26.1912 92.1689 26.0485C92.0365 25.9058 91.8505 25.8345 91.6112 25.8345C91.3175 25.8345 91.0869 25.9589 90.9193 26.2077C90.7534 26.4565 90.6704 26.8105 90.6704 27.2696V27.6566C90.6704 28.0901 90.7494 28.435 90.9074 28.6911C91.0654 28.9472 91.2864 29.0753 91.5705 29.0753C91.8258 29.0753 92.0213 29.0094 92.157 28.8777C92.2942 28.7442 92.3852 28.5127 92.4298 28.1834H92.8919Z" fill="#231F20"/>
<path d="M95.666 27.6044H94.1555V29.0204H95.9102V29.4512H93.6959V25.4558H95.8862V25.8893H94.1555V27.1736H95.666V27.6044Z" fill="#231F20"/>
<path d="M99.0743 27.6703C98.6801 27.5404 98.3928 27.3812 98.2125 27.1928C98.0337 27.0025 97.9444 26.7684 97.9444 26.4903C97.9444 26.1756 98.0537 25.9159 98.2723 25.711C98.4926 25.5042 98.7782 25.4009 99.1293 25.4009C99.3687 25.4009 99.5817 25.4539 99.7685 25.56C99.9568 25.6661 100.102 25.8125 100.204 25.9991C100.308 26.1857 100.36 26.3897 100.36 26.611H99.8977C99.8977 26.3696 99.8307 26.1802 99.6967 26.043C99.5626 25.904 99.3735 25.8345 99.1293 25.8345C98.9027 25.8345 98.7256 25.8921 98.5979 26.0073C98.4718 26.1208 98.4088 26.279 98.4088 26.4821C98.4088 26.6449 98.4686 26.783 98.5883 26.8964C98.7096 27.008 98.9147 27.1105 99.2035 27.2038C99.494 27.2971 99.7206 27.4004 99.8834 27.5139C100.048 27.6255 100.169 27.7563 100.247 27.9063C100.327 28.0563 100.367 28.2328 100.367 28.4359C100.367 28.7597 100.257 29.0195 100.037 29.2152C99.8163 29.4092 99.5219 29.5061 99.1533 29.5061C98.9139 29.5061 98.6905 29.454 98.483 29.3497C98.2755 29.2436 98.1151 29.0991 98.0018 28.9161C97.8901 28.7332 97.8343 28.5255 97.8343 28.2932H98.2963C98.2963 28.5347 98.3737 28.7259 98.5285 28.8667C98.6849 29.0058 98.8931 29.0753 99.1533 29.0753C99.3958 29.0753 99.5818 29.0186 99.711 28.9051C99.8403 28.7917 99.9049 28.6371 99.9049 28.4414C99.9049 28.2456 99.8451 28.0947 99.7254 27.9886C99.6057 27.8807 99.3886 27.7746 99.0743 27.6703Z" fill="#231F20"/>
<path d="M103.103 27.6044H101.592V29.0204H103.347V29.4512H101.133V25.4558H103.323V25.8893H101.592V27.1736H103.103V27.6044Z" fill="#231F20"/>
<path d="M105.372 27.8349H104.553V29.4512H104.091V25.4558H105.245C105.638 25.4558 105.939 25.5582 106.15 25.7631C106.362 25.968 106.468 26.2662 106.468 26.6577C106.468 26.9065 106.409 27.1233 106.291 27.3081C106.175 27.4928 106.012 27.631 105.803 27.7224L106.621 29.4183V29.4512H106.128L105.372 27.8349ZM104.553 27.4041H105.259C105.488 27.4041 105.669 27.3364 105.803 27.201C105.938 27.0657 106.006 26.8845 106.006 26.6577C106.006 26.4107 105.942 26.2214 105.812 26.0897C105.685 25.9579 105.5 25.8912 105.257 25.8893H104.553V27.4041Z" fill="#231F20"/>
<path d="M108.395 28.7515L109.391 25.4558H109.894L108.601 29.4512H108.194L106.904 25.4558H107.404L108.395 28.7515Z" fill="#231F20"/>
<path d="M111.031 29.4512H110.571V25.4558H111.031V29.4512Z" fill="#231F20"/>
<path d="M114.611 28.1834C114.568 28.606 114.432 28.9326 114.202 29.1631C113.974 29.3918 113.67 29.5061 113.29 29.5061C112.878 29.5061 112.548 29.3369 112.299 28.9984C112.052 28.66 111.928 28.2072 111.928 27.6401V27.2559C111.928 26.8845 111.985 26.558 112.1 26.2763C112.217 25.9945 112.381 25.7787 112.593 25.6286C112.806 25.4768 113.052 25.4009 113.331 25.4009C113.701 25.4009 113.998 25.5198 114.221 25.7576C114.445 25.9936 114.575 26.3211 114.611 26.74H114.149C114.11 26.4217 114.023 26.1912 113.889 26.0485C113.756 25.9058 113.57 25.8345 113.331 25.8345C113.037 25.8345 112.807 25.9589 112.639 26.2077C112.473 26.4565 112.39 26.8105 112.39 27.2696V27.6566C112.39 28.0901 112.469 28.435 112.627 28.6911C112.785 28.9472 113.006 29.0753 113.29 29.0753C113.545 29.0753 113.741 29.0094 113.877 28.8777C114.014 28.7442 114.105 28.5127 114.149 28.1834H114.611Z" fill="#231F20"/>
<path d="M117.386 27.6044H115.875V29.0204H117.63V29.4512H115.416V25.4558H117.606V25.8893H115.875V27.1736H117.386V27.6044Z" fill="#231F20"/>
<mask id="mask0_396_4125" style="mask-type:alpha" maskUnits="userSpaceOnUse" x="0" y="0" width="18" height="22">
<path fill-rule="evenodd" clip-rule="evenodd" d="M0 0.872559H17.8115V21.6175H0V0.872559Z" fill="white"/>
</mask>
<g mask="url(#mask0_396_4125)">
<path fill-rule="evenodd" clip-rule="evenodd" d="M6.77842 0.872559C1.57752 0.872559 -1.68329 6.49915 0.909309 11.0126L4.19454 16.7308L7.00261 21.6177C4.45363 17.1687 7.07414 11.7376 11.7656 10.6637C9.55508 6.22698 12.7662 0.910942 17.8118 0.896112L13.3873 0.887388L6.79412 0.872559H6.77842Z" fill="#0060A9"/>
</g>
<path fill-rule="evenodd" clip-rule="evenodd" d="M30.9547 21.2959L30.2568 22.4989C28.9527 24.7469 26.6785 25.8696 24.4043 25.8696C22.3028 25.8696 20.2022 24.9117 18.8675 22.9952C17.5294 24.8952 15.4384 25.8452 13.3465 25.8452C11.0627 25.8452 8.77891 24.712 7.47825 22.4474L7.00195 21.6178C7.0037 21.6213 7.00631 21.6256 7.00806 21.6291L9.70795 26.3302L12.4078 31.0295C13.8385 33.5209 16.3517 34.7666 18.8649 34.7666C21.3677 34.7666 23.8704 33.5305 25.3045 31.0574L28.0254 26.3686L30.7453 21.6806C30.8203 21.5541 30.8893 21.425 30.9547 21.2959Z" fill="#AB54FF"/>
<path fill-rule="evenodd" clip-rule="evenodd" d="M11.7659 10.6631C7.07449 11.7369 4.45398 17.1681 7.00295 21.6179L7.47925 22.4475C8.77991 24.7113 11.0637 25.8444 13.3475 25.8444C15.4394 25.8444 17.5304 24.8944 18.8685 22.9954C18.7516 22.8279 18.6417 22.6534 18.537 22.4728L15.2509 16.7529L11.9657 11.0347C11.8942 10.9108 11.8279 10.7878 11.7659 10.6631Z" fill="#0020A9"/>
<path fill-rule="evenodd" clip-rule="evenodd" d="M17.8308 0.895996H17.8125L19.9811 0.90123C25.0468 0.911698 28.2553 6.25304 26.0238 10.6915C30.5871 11.747 33.1753 16.9252 30.9552 21.2957L33.5678 16.7944L36.8784 11.0893C39.4928 6.58278 36.2485 0.936124 31.0398 0.924783L24.4432 0.910826L17.8483 0.895996H17.8308Z" fill="#4578FF"/>
<path fill-rule="evenodd" clip-rule="evenodd" d="M17.8116 0.895996C12.7659 0.910826 9.55399 6.226 11.7645 10.6627C12.3053 10.5397 12.8724 10.4734 13.4638 10.4734H13.4804L18.9011 10.4856L24.3218 10.4978C24.9142 10.4987 25.482 10.5668 26.0229 10.6915C28.2552 6.25304 25.0468 0.911698 19.9802 0.90123L17.8116 0.895996Z" fill="#1D4BC6"/>
<path fill-rule="evenodd" clip-rule="evenodd" d="M26.023 10.6914C25.9602 10.8179 25.8921 10.9426 25.8206 11.0674L22.511 16.7699L19.2022 22.4732C19.0966 22.6547 18.985 22.8283 18.8672 22.9949C20.2019 24.9114 22.3025 25.8693 24.4048 25.8693C26.6781 25.8693 28.9523 24.7466 30.2573 22.4985L30.9543 21.2956C33.1744 16.9252 30.5862 11.7478 26.023 10.6914Z" fill="#5381FE"/>
<path fill-rule="evenodd" clip-rule="evenodd" d="M13.4641 10.4731C12.8726 10.4731 12.3056 10.5394 11.7656 10.6633C11.8276 10.7872 11.8939 10.9111 11.9645 11.0349L15.2506 16.7531L18.5359 22.4731C18.6414 22.6536 18.7513 22.8281 18.8673 22.9947C18.9851 22.8281 19.0968 22.6545 19.2023 22.4731L22.5111 16.7697L25.8208 11.0672C25.8923 10.9425 25.9603 10.8177 26.0232 10.6912C25.4823 10.5665 24.9144 10.4984 24.3221 10.4976L18.9014 10.4862L13.4815 10.4731H13.4641Z" fill="#002587"/>
</g>
<defs>
<clipPath id="clip0_396_4125">
<rect width="164" height="34.8936" fill="white"/>
</clipPath>
</defs>
</svg>
