<svg width="238" height="53" viewBox="0 0 238 53" fill="none" xmlns="http://www.w3.org/2000/svg">
<path fill-rule="evenodd" clip-rule="evenodd" d="M82.4475 15.5928C82.4707 16.6239 82.2644 17.4129 81.8414 17.9384C81.3913 18.4945 80.8948 18.9043 80.3621 19.1558C79.7264 19.4604 78.9719 19.6387 78.1272 19.6866L75.3029 19.7851V11.4152L78.5902 11.4817C79.6748 11.6241 80.4847 11.9128 80.9967 12.3385C81.5228 12.7789 81.9007 13.2406 82.1135 13.7022C82.3572 14.2743 82.4707 14.9023 82.4475 15.5702V15.5808V15.5928ZM87.9633 15.3568C87.9633 14.6304 87.9001 13.9053 87.7711 13.1881C87.6447 12.5908 87.4539 11.9468 87.2037 11.2736C86.9419 10.5725 86.546 9.94316 86.0237 9.403C85.5632 8.84953 84.9816 8.34262 84.2891 7.89293C83.7023 7.52439 82.9337 7.17981 82.0038 6.86981C81.065 6.55449 79.9249 6.39484 78.6172 6.39484H69.7844V33.3658H75.3376V25.2261H78.2974C79.2001 25.2008 80.0926 25.0824 80.9476 24.8735C81.6698 24.6939 82.4423 24.4332 83.2419 24.0979C84.0673 23.7533 84.7869 23.253 85.3853 22.6131C85.8753 22.1581 86.3177 21.5807 86.702 20.8941C87.0334 20.2888 87.3339 19.5358 87.597 18.6563C87.8653 17.7623 87.9891 16.65 87.9633 15.3568Z" fill="#0E5EA6"/>
<path fill-rule="evenodd" clip-rule="evenodd" d="M101.517 23.2625H94.3204L97.8708 13.4836L101.517 23.2625ZM140.682 7.45746C140.647 7.09425 140.479 6.78824 140.197 6.56872C140.072 6.47292 139.958 6.40507 139.85 6.36516C139.615 6.26005 139.329 6.15893 138.999 6.06713C138.659 5.97267 138.28 5.90482 137.869 5.86623C137.452 5.82499 136.997 5.83829 136.515 5.90482C136.023 5.974 135.52 6.13233 135.016 6.37979C134.897 6.44099 134.781 6.5155 134.67 6.60065C134.584 6.66185 134.486 6.74034 134.382 6.83481C134.247 6.95721 134.143 7.10489 134.071 7.27519L125.869 20.9443L117.643 7.2366C117.531 7.06498 117.416 6.91729 117.299 6.79489C117.183 6.67515 117.062 6.58069 116.939 6.51151C116.832 6.43168 116.722 6.36249 116.613 6.30528L116.577 6.28799C115.689 5.93941 114.807 5.80902 113.954 5.90349C113.123 5.99662 112.48 6.12035 111.987 6.28001L111.96 6.29065C111.808 6.35318 111.67 6.43301 111.547 6.52614C111.432 6.6073 111.329 6.72172 111.229 6.87738C111.113 7.05699 111.054 7.2539 111.054 7.46012V32.5299L101.202 7.30978L101.189 7.27918C101.055 7.00377 100.815 6.76695 100.477 6.5767C100.233 6.437 99.9093 6.30262 99.4876 6.16692C99.0582 6.02855 98.4998 5.95804 97.8291 5.95804C97.1482 5.95804 96.6156 6.01924 96.1965 6.1443C95.7799 6.26936 95.4652 6.40241 95.2421 6.5461C94.921 6.74434 94.7043 6.9918 94.6037 7.2712L84.4749 33.0435H90.7554L92.481 28.5H103.434L105.158 33.0435H111.054V33.0807H116.644V16.2491L125.578 30.9613H126.158L135.128 16.2438V33.0807H140.684V7.4987L140.682 7.45746Z" fill="#0E5EA6"/>
<path fill-rule="evenodd" clip-rule="evenodd" d="M158.442 15.5906C158.464 16.6217 158.258 17.4107 157.834 17.9362C157.385 18.4924 156.888 18.9021 156.356 19.1536C155.719 19.4583 154.965 19.6366 154.121 19.6845L151.297 19.7829V11.413L154.584 11.4795C155.669 11.6219 156.479 11.9106 156.989 12.3363C157.517 12.7767 157.893 13.2384 158.106 13.7001C158.351 14.2722 158.464 14.9001 158.442 15.568V15.5787V15.5906ZM163.957 15.3531C163.957 14.6267 163.894 13.9016 163.765 13.1845C163.639 12.5871 163.448 11.9432 163.197 11.27C162.935 10.5688 162.539 9.9395 162.018 9.39934C161.556 8.84587 160.974 8.33896 160.283 7.88927C159.696 7.52073 158.928 7.17614 157.998 6.86615C157.058 6.55083 155.918 6.39117 154.61 6.39117H145.779V33.3622H151.332V25.2224H154.292C155.194 25.1972 156.085 25.0788 156.942 24.8699C157.664 24.6903 158.436 24.4295 159.235 24.0942C160.06 23.7496 160.781 23.2494 161.379 22.6094C161.869 22.1544 162.312 21.577 162.696 20.8905C163.028 20.2851 163.328 19.5321 163.591 18.6527C163.859 17.7586 163.982 16.6463 163.957 15.3531Z" fill="#A657EE"/>
<path fill-rule="evenodd" clip-rule="evenodd" d="M180.168 23.5842H172.972L176.523 13.8053L180.168 23.5842ZM179.855 7.63172L179.842 7.60112C179.708 7.32572 179.468 7.0889 179.131 6.89997C178.886 6.75894 178.563 6.62457 178.141 6.48886C177.711 6.35049 177.154 6.28131 176.482 6.28131C175.803 6.28131 175.269 6.34118 174.85 6.46757C174.433 6.59131 174.118 6.72435 173.895 6.86804C173.574 7.06628 173.359 7.31375 173.257 7.59314L163.129 33.3654H169.409L171.134 28.8219H182.087L183.813 33.3654H189.908L179.855 7.63172Z" fill="#A657EE"/>
<path fill-rule="evenodd" clip-rule="evenodd" d="M208.443 19.7812C208.443 22.3237 207.869 24.3393 206.734 25.7736C205.603 27.2011 203.962 27.8956 201.718 27.8956L197.408 27.7919V11.9688H201.715C202.829 11.9688 203.814 12.155 204.643 12.5222C205.464 12.8881 206.163 13.4123 206.721 14.0815C207.282 14.7547 207.714 15.5783 208.002 16.5309C208.296 17.4981 208.443 18.5918 208.443 19.7812ZM210.53 10.1696C209.456 9.00947 208.149 8.10476 206.65 7.48078C205.152 6.85813 203.49 6.55478 201.721 6.58006L197.017 6.50555H191.927V33.2863H197.017H201.719C203.499 33.261 205.159 32.9191 206.655 32.2712C208.153 31.6206 209.458 30.6972 210.531 29.5251C211.602 28.3556 212.45 26.9414 213.053 25.3222C213.655 23.7057 213.959 21.8936 213.959 19.9338C213.959 17.9249 213.655 16.0689 213.054 14.4151C212.45 12.756 211.602 11.3285 210.53 10.1696Z" fill="#517AF7"/>
<path fill-rule="evenodd" clip-rule="evenodd" d="M237.417 6.59706C237.128 6.42676 236.802 6.29771 236.461 6.21655C236.062 6.10745 235.609 6.05157 235.112 6.05157C234.617 6.05157 234.164 6.10745 233.778 6.21389C233.419 6.29904 233.097 6.42942 232.819 6.60105C232.359 6.88577 232.262 7.27692 232.262 7.55366V19.5065L232.189 20.821V20.8436C232.189 22.1993 232.105 23.3861 231.937 24.3706C231.777 25.3152 231.479 26.1069 231.05 26.7229C230.631 27.3269 230.06 27.7832 229.35 28.0799C228.618 28.3873 227.667 28.5429 226.525 28.5429C225.356 28.5429 224.393 28.3873 223.662 28.0799C222.954 27.7832 222.39 27.3282 221.982 26.7269C221.565 26.1095 221.265 25.3152 221.093 24.3653C220.913 23.3861 220.824 22.2006 220.824 20.8436V7.74258C220.824 7.56297 220.793 7.40066 220.737 7.26229C220.686 7.14255 220.624 7.0401 220.554 6.95762C220.474 6.8432 220.387 6.75938 220.289 6.70616C220.094 6.5944 219.843 6.47998 219.518 6.35891C219.183 6.23518 218.798 6.15136 218.377 6.11011C217.959 6.0702 217.504 6.08351 217.021 6.15003C216.52 6.22054 216.008 6.40947 215.502 6.71148L215.457 6.73809L215.24 6.96294L215.214 7.00551C215.105 7.19444 215.049 7.41795 215.049 7.66675V21.1083C215.049 25.254 216.02 28.503 217.936 30.7648C219.864 33.0412 222.741 34.196 226.492 34.196C230.262 34.1441 233.156 32.9574 235.096 30.6703C237.022 28.3952 238 25.1276 238 20.9567V7.59091C238 7.16517 237.799 6.82191 237.417 6.59706Z" fill="#517AF7"/>
<mask id="mask0_9_309" style="mask-type:alpha" maskUnits="userSpaceOnUse" x="0" y="0" width="29" height="33">
<path fill-rule="evenodd" clip-rule="evenodd" d="M0 0.606445H28.6679V32.1196H0V0.606445Z" fill="white"/>
</mask>
<g mask="url(#mask0_9_309)">
<path fill-rule="evenodd" clip-rule="evenodd" d="M10.021 0.606445C2.33217 0.606445 -2.48853 9.18922 1.3443 16.073L6.20111 24.7915L10.2816 32.1196C6.63443 25.3569 10.5034 17.168 17.3965 15.5395C14.1221 8.76214 18.8848 0.645029 26.3622 0.645029H26.3854L28.6681 0.64902L19.7914 0.629063L10.043 0.606445H10.021Z" fill="#0060A9"/>
</g>
<path fill-rule="evenodd" clip-rule="evenodd" d="M45.7664 31.7515L44.7321 33.5902C42.8028 37.0175 39.4394 38.7311 36.0773 38.7311C32.9719 38.7311 29.8664 37.2689 27.8932 34.3486C25.9149 37.245 22.8236 38.6925 19.7323 38.6925C16.3548 38.6925 12.9785 36.9656 11.0556 33.5117L10.2805 32.1187C10.3063 32.1666 10.3321 32.2159 10.3592 32.2624L14.3532 39.4309L18.3434 46.6021C20.4597 50.4005 24.1739 52.3004 27.8906 52.3004C31.5881 52.3004 35.2881 50.4165 37.4095 46.6447L41.4306 39.4921L45.4543 32.3436C45.5653 32.148 45.6684 31.9498 45.7664 31.7515Z" fill="#AB54FF"/>
<path fill-rule="evenodd" clip-rule="evenodd" d="M17.3964 15.5388C10.5032 17.1672 6.63425 25.3549 10.2814 32.1189L11.0564 33.5106C12.9793 36.9644 16.3556 38.6927 19.7332 38.6927C22.8245 38.6927 25.9158 37.2438 27.8941 34.3474C27.7213 34.0933 27.5588 33.8285 27.404 33.5518L22.5472 24.8293L17.6904 16.1055C17.5846 15.9179 17.4866 15.729 17.3964 15.5388Z" fill="#0020A9"/>
<path fill-rule="evenodd" clip-rule="evenodd" d="M28.6667 0.648743L29.5373 0.650073C37.0288 0.6687 41.7708 8.81242 38.4732 15.5818C45.2168 17.1943 49.0419 25.0852 45.7662 31.7508L49.6261 24.8897L54.5203 16.1885C58.3854 9.31666 53.5879 0.704622 45.8874 0.685995L36.1351 0.664708L28.6667 0.648743Z" fill="#4578FF"/>
<path fill-rule="evenodd" clip-rule="evenodd" d="M26.3613 0.644348C18.8839 0.644348 14.1212 8.76279 17.3957 15.5388C18.1939 15.3512 19.0322 15.2501 19.9066 15.2501H19.9311L27.9437 15.2687L35.9575 15.286C36.8319 15.2887 37.6728 15.3911 38.4736 15.5827C41.7713 8.81201 37.0292 0.668296 29.5377 0.651L28.6672 0.64834L26.3858 0.644348H26.3613Z" fill="#1D4BC6"/>
<path fill-rule="evenodd" clip-rule="evenodd" d="M38.4737 15.5812C38.3808 15.7741 38.2802 15.9643 38.1745 16.1546L33.2816 24.8518L28.3874 33.5503C28.2326 33.8271 28.0675 34.0931 27.8934 34.3473C29.8666 37.2689 32.9721 38.7298 36.0788 38.7298C39.4396 38.7298 42.803 37.0175 44.7336 33.5889L45.7666 31.7502C49.0423 25.0846 45.2173 17.1937 38.4737 15.5812Z" fill="#5381FE"/>
<path fill-rule="evenodd" clip-rule="evenodd" d="M19.9077 15.2494C19.0333 15.2494 18.195 15.3505 17.3967 15.5381C17.487 15.7284 17.585 15.9173 17.6895 16.1049L22.5476 24.8287L27.4031 33.5511C27.5591 33.8279 27.7216 34.0926 27.8932 34.3468C28.0673 34.0926 28.2323 33.8279 28.3871 33.5511L33.2813 24.8513L38.1742 16.1541C38.28 15.9652 38.3806 15.7736 38.4734 15.582C37.6738 15.3904 36.833 15.288 35.9586 15.2853L27.9435 15.268L19.9322 15.2494H19.9077Z" fill="#002587"/>
<path d="M72.9832 46.6456C72.3329 46.6456 71.7439 46.5078 71.2163 46.232C70.6949 45.9503 70.2838 45.5636 69.9832 45.0721C69.6887 44.5806 69.5415 44.0261 69.5415 43.4087C69.5415 42.7912 69.6918 42.2368 69.9924 41.7452C70.293 41.2537 70.7041 40.87 71.2255 40.5943C71.7531 40.3126 72.3421 40.1717 72.9924 40.1717C73.52 40.1717 74.0015 40.2616 74.4371 40.4414C74.8727 40.6213 75.2408 40.882 75.5414 41.2237L74.7684 41.934C74.3022 41.4425 73.7285 41.1967 73.0476 41.1967C72.6059 41.1967 72.2102 41.2926 71.8605 41.4845C71.5108 41.6703 71.2378 41.931 71.0415 42.2667C70.8452 42.6024 70.747 42.9831 70.747 43.4087C70.747 43.8343 70.8452 44.2149 71.0415 44.5506C71.2378 44.8863 71.5108 45.15 71.8605 45.3419C72.2102 45.5277 72.6059 45.6206 73.0476 45.6206C73.7285 45.6206 74.3022 45.3718 74.7684 44.8743L75.5414 45.5936C75.2408 45.9353 74.8696 46.1961 74.4279 46.3759C73.9923 46.5557 73.5108 46.6456 72.9832 46.6456Z" fill="white"/>
<path d="M81.6367 45.5756V46.5557H76.8055V40.2616H81.5079V41.2417H78.0018V42.8782H81.1122V43.8403H78.0018V45.5756H81.6367Z" fill="white"/>
<path d="M85.774 40.2616C86.3322 40.2616 86.8169 40.3515 87.2279 40.5314C87.6451 40.7112 87.9641 40.9689 88.185 41.3046C88.4058 41.6403 88.5163 42.0389 88.5163 42.5005C88.5163 42.9561 88.4058 43.3547 88.185 43.6964C87.9641 44.0321 87.6451 44.2898 87.2279 44.4697C86.8169 44.6495 86.3322 44.7394 85.774 44.7394H84.32V46.5557H83.1237V40.2616H85.774ZM85.7188 43.7503C86.2402 43.7503 86.6359 43.6424 86.9058 43.4266C87.1758 43.2108 87.3107 42.9021 87.3107 42.5005C87.3107 42.0989 87.1758 41.7902 86.9058 41.5744C86.6359 41.3586 86.2402 41.2507 85.7188 41.2507H84.32V43.7503H85.7188Z" fill="white"/>
<path d="M94.0436 43.2828C94.4547 43.3907 94.7675 43.5765 94.9823 43.8403C95.197 44.098 95.3043 44.4217 95.3043 44.8113C95.3043 45.3628 95.0957 45.7914 94.6786 46.0971C94.2614 46.4029 93.6571 46.5557 92.8657 46.5557H89.8106V40.2616H92.6909C93.4148 40.2616 93.9792 40.4025 94.3841 40.6842C94.789 40.9659 94.9915 41.3646 94.9915 41.8801C94.9915 42.2098 94.9086 42.4945 94.743 42.7343C94.5835 42.9741 94.3504 43.1569 94.0436 43.2828ZM90.9885 42.9501H92.5897C92.9762 42.9501 93.2706 42.8752 93.4731 42.7253C93.6755 42.5754 93.7768 42.3536 93.7768 42.0599C93.7768 41.7662 93.6755 41.5444 93.4731 41.3945C93.2706 41.2387 92.9762 41.1608 92.5897 41.1608H90.9885V42.9501ZM92.8289 45.6566C93.6755 45.6566 94.0988 45.3448 94.0988 44.7214C94.0988 44.11 93.6755 43.8043 92.8289 43.8043H90.9885V45.6566H92.8289Z" fill="white"/>
<path d="M96.8297 40.2616H98.0076V44.7304L101.468 40.2616H102.581V46.5557H101.403V42.0959L97.9432 46.5557H96.8297V40.2616Z" fill="white"/>
<path d="M107.504 46.6456C106.853 46.6456 106.265 46.5078 105.737 46.232C105.215 45.9503 104.804 45.5636 104.504 45.0721C104.209 44.5806 104.062 44.0261 104.062 43.4087C104.062 42.7912 104.212 42.2368 104.513 41.7452C104.814 41.2537 105.225 40.87 105.746 40.5943C106.274 40.3126 106.863 40.1717 107.513 40.1717C108.041 40.1717 108.522 40.2616 108.958 40.4414C109.393 40.6213 109.761 40.882 110.062 41.2237L109.289 41.934C108.823 41.4425 108.249 41.1967 107.568 41.1967C107.126 41.1967 106.731 41.2926 106.381 41.4845C106.031 41.6703 105.758 41.931 105.562 42.2667C105.366 42.6024 105.268 42.9831 105.268 43.4087C105.268 43.8343 105.366 44.2149 105.562 44.5506C105.758 44.8863 106.031 45.15 106.381 45.3419C106.731 45.5277 107.126 45.6206 107.568 45.6206C108.249 45.6206 108.823 45.3718 109.289 44.8743L110.062 45.5936C109.761 45.9353 109.39 46.1961 108.949 46.3759C108.513 46.5557 108.031 46.6456 107.504 46.6456Z" fill="white"/>
<path d="M119.728 40.2616V46.5557H118.55V41.2507H115.21V46.5557H114.032V40.2616H119.728Z" fill="white"/>
<path d="M125.968 45.0991H122.747L122.112 46.5557H120.879L123.778 40.2616H124.955L127.863 46.5557H126.612L125.968 45.0991ZM125.572 44.1819L124.357 41.4305L123.152 44.1819H125.572Z" fill="white"/>
<path d="M131.655 40.2616C132.213 40.2616 132.698 40.3515 133.109 40.5314C133.526 40.7112 133.845 40.9689 134.066 41.3046C134.287 41.6403 134.397 42.0389 134.397 42.5005C134.397 42.9561 134.287 43.3547 134.066 43.6964C133.845 44.0321 133.526 44.2898 133.109 44.4697C132.698 44.6495 132.213 44.7394 131.655 44.7394H130.201V46.5557H129.005V40.2616H131.655ZM131.6 43.7503C132.121 43.7503 132.517 43.6424 132.787 43.4266C133.057 43.2108 133.192 42.9021 133.192 42.5005C133.192 42.0989 133.057 41.7902 132.787 41.5744C132.517 41.3586 132.121 41.2507 131.6 41.2507H130.201V43.7503H131.6Z" fill="white"/>
<path d="M140.168 41.2507H138.033V46.5557H136.846V41.2507H134.721V40.2616H140.168V41.2507Z" fill="white"/>
<path d="M147.077 40.2616V46.5557H145.881V43.8582H142.55V46.5557H141.353V40.2616H142.55V42.8602H145.881V40.2616H147.077Z" fill="white"/>
<path d="M153.869 45.5756V46.5557H149.038V40.2616H153.74V41.2417H150.234V42.8782H153.344V43.8403H150.234V45.5756H153.869Z" fill="white"/>
<path d="M158.006 40.2616C158.564 40.2616 159.049 40.3515 159.46 40.5314C159.877 40.7112 160.196 40.9689 160.417 41.3046C160.638 41.6403 160.748 42.0389 160.748 42.5005C160.748 42.9561 160.638 43.3547 160.417 43.6964C160.196 44.0321 159.877 44.2898 159.46 44.4697C159.049 44.6495 158.564 44.7394 158.006 44.7394H156.552V46.5557H155.356V40.2616H158.006ZM157.951 43.7503C158.472 43.7503 158.868 43.6424 159.138 43.4266C159.408 43.2108 159.543 42.9021 159.543 42.5005C159.543 42.0989 159.408 41.7902 159.138 41.5744C158.868 41.3586 158.472 41.2507 157.951 41.2507H156.552V43.7503H157.951Z" fill="white"/>
<path d="M165.086 46.6456C164.436 46.6456 163.847 46.5078 163.32 46.232C162.798 45.9503 162.387 45.5636 162.086 45.0721C161.792 44.5806 161.645 44.0261 161.645 43.4087C161.645 42.7912 161.795 42.2368 162.096 41.7452C162.396 41.2537 162.807 40.87 163.329 40.5943C163.856 40.3126 164.445 40.1717 165.096 40.1717C165.623 40.1717 166.105 40.2616 166.54 40.4414C166.976 40.6213 167.344 40.882 167.645 41.2237L166.872 41.934C166.405 41.4425 165.832 41.1967 165.151 41.1967C164.709 41.1967 164.313 41.2926 163.964 41.4845C163.614 41.6703 163.341 41.931 163.145 42.2667C162.948 42.6024 162.85 42.9831 162.85 43.4087C162.85 43.8343 162.948 44.2149 163.145 44.5506C163.341 44.8863 163.614 45.15 163.964 45.3419C164.313 45.5277 164.709 45.6206 165.151 45.6206C165.832 45.6206 166.405 45.3718 166.872 44.8743L167.645 45.5936C167.344 45.9353 166.973 46.1961 166.531 46.3759C166.096 46.5557 165.614 46.6456 165.086 46.6456Z" fill="white"/>
<path d="M171.283 43.9032H170.087V46.5557H168.909V40.2616H170.087V42.8961H171.32L173.169 40.2616H174.439L172.24 43.3098L174.522 46.5557H173.169L171.283 43.9032Z" fill="white"/>
<path d="M175.497 40.2616H176.675V44.7304L180.135 40.2616H181.248V46.5557H180.07V42.0959L176.61 46.5557H175.497V40.2616Z" fill="white"/>
<path d="M183.953 40.2616L185.471 42.3656L186.99 40.2616H188.389L186.226 43.2828L188.563 46.5557H187.146L185.471 44.2629L183.806 46.5557H182.425L184.754 43.3277L182.573 40.2616H183.953Z" fill="white"/>
<path d="M198.135 40.2616V46.5557H196.957V41.2507H193.616V46.5557H192.438V40.2616H198.135Z" fill="white"/>
<path d="M202.755 40.2616C203.313 40.2616 203.797 40.3515 204.208 40.5314C204.626 40.7112 204.945 40.9689 205.166 41.3046C205.386 41.6403 205.497 42.0389 205.497 42.5005C205.497 42.9561 205.386 43.3547 205.166 43.6964C204.945 44.0321 204.626 44.2898 204.208 44.4697C203.797 44.6495 203.313 44.7394 202.755 44.7394H201.301V46.5557H200.104V40.2616H202.755ZM202.699 43.7503C203.221 43.7503 203.616 43.6424 203.886 43.4266C204.156 43.2108 204.291 42.9021 204.291 42.5005C204.291 42.0989 204.156 41.7902 203.886 41.5744C203.616 41.3586 203.221 41.2507 202.699 41.2507H201.301V43.7503H202.699Z" fill="white"/>
<path d="M209.853 46.6456C209.197 46.6456 208.605 46.5078 208.077 46.232C207.55 45.9503 207.136 45.5636 206.835 45.0721C206.534 44.5746 206.384 44.0201 206.384 43.4087C206.384 42.7972 206.534 42.2458 206.835 41.7542C207.136 41.2567 207.55 40.87 208.077 40.5943C208.605 40.3126 209.197 40.1717 209.853 40.1717C210.51 40.1717 211.102 40.3126 211.629 40.5943C212.157 40.87 212.571 41.2537 212.872 41.7452C213.172 42.2368 213.323 42.7912 213.323 43.4087C213.323 44.0261 213.172 44.5806 212.872 45.0721C212.571 45.5636 212.157 45.9503 211.629 46.232C211.102 46.5078 210.51 46.6456 209.853 46.6456ZM209.853 45.6206C210.283 45.6206 210.669 45.5277 211.013 45.3419C211.356 45.15 211.626 44.8863 211.823 44.5506C212.019 44.2089 212.117 43.8283 212.117 43.4087C212.117 42.9891 212.019 42.6114 211.823 42.2757C211.626 41.934 211.356 41.6703 211.013 41.4845C210.669 41.2926 210.283 41.1967 209.853 41.1967C209.424 41.1967 209.037 41.2926 208.694 41.4845C208.35 41.6703 208.08 41.934 207.884 42.2757C207.688 42.6114 207.59 42.9891 207.59 43.4087C207.59 43.8283 207.688 44.2089 207.884 44.5506C208.08 44.8863 208.35 45.15 208.694 45.3419C209.037 45.5277 209.424 45.6206 209.853 45.6206Z" fill="white"/>
<path d="M221.005 45.5666V47.8955H219.901V46.5557H214.959V47.8955H213.846L213.855 45.5666H214.131C214.536 45.5487 214.818 45.2579 214.978 44.6945C215.143 44.125 215.245 43.3128 215.281 42.2577L215.355 40.2616H220.076V45.5666H221.005ZM216.33 42.3656C216.3 43.1809 216.232 43.8612 216.128 44.4067C216.024 44.9462 215.858 45.3329 215.631 45.5666H218.898V41.2507H216.376L216.33 42.3656Z" fill="white"/>
<path d="M226.6 45.0991H223.379L222.744 46.5557H221.511L224.41 40.2616H225.588L228.496 46.5557H227.244L226.6 45.0991ZM226.204 44.1819L224.989 41.4305L223.784 44.1819H226.204Z" fill="white"/>
<path d="M234.945 43.9032H233.841V46.5557H232.672V43.9032H231.568L229.939 46.5557H228.559L230.583 43.2738L228.697 40.2616H229.967L231.54 42.8961H232.672V40.2616H233.841V42.8961H234.954L236.537 40.2616H237.807L235.93 43.2828L237.945 46.5557H236.565L234.945 43.9032Z" fill="white"/>
</svg>
