<svg width="165" height="35" viewBox="0 0 165 35" fill="none" xmlns="http://www.w3.org/2000/svg">
<path fill-rule="evenodd" clip-rule="evenodd" d="M58.0168 10.5001C58.0328 11.1899 57.8909 11.7177 57.6 12.0692C57.2904 12.4412 56.9489 12.7154 56.5826 12.8836C56.1453 13.0874 55.6264 13.2066 55.0455 13.2387L53.103 13.3045V7.70556L55.3639 7.75006C56.1098 7.84529 56.6669 8.03842 57.019 8.32322C57.3809 8.61781 57.6408 8.92664 57.7871 9.23546C57.9547 9.61816 58.0328 10.0382 58.0168 10.485V10.4921V10.5001ZM61.8113 10.3427C61.8113 9.85674 61.7678 9.37169 61.6791 8.89198C61.5922 8.49237 61.4609 8.06161 61.2889 7.61127C61.1088 7.14225 60.8365 6.72128 60.4773 6.35994C60.1606 5.9897 59.7606 5.65061 59.2843 5.34979C58.8808 5.10326 58.3521 4.87275 57.7126 4.66539C57.0669 4.45446 56.2828 4.34766 55.3834 4.34766H49.3086V22.3897H53.1279V16.9447H55.1635C55.7843 16.9278 56.3981 16.8486 56.9862 16.7088C57.4829 16.5887 58.0142 16.4142 58.5641 16.19C59.1318 15.9594 59.6267 15.6248 60.0382 15.1967C60.3753 14.8923 60.6795 14.5061 60.9438 14.0468C61.1718 13.6419 61.3785 13.1382 61.5594 12.5499C61.7439 11.9518 61.829 11.2078 61.8113 10.3427V10.3427Z" fill="#0060A9"/>
<path fill-rule="evenodd" clip-rule="evenodd" d="M71.1325 15.6311H66.1832L68.625 9.08967L71.1325 15.6311ZM98.0688 5.05865C98.0449 4.81568 97.9296 4.61098 97.7353 4.46413C97.6493 4.40005 97.5712 4.35466 97.4967 4.32796C97.3353 4.25765 97.1384 4.19001 96.9113 4.1286C96.6781 4.06541 96.4173 4.02002 96.1344 3.99421C95.8479 3.96662 95.5348 3.97552 95.203 4.02002C94.8651 4.0663 94.5192 4.17221 94.1724 4.33775C94.0908 4.37869 94.011 4.42853 93.9347 4.48549C93.8753 4.52643 93.8078 4.57894 93.736 4.64213C93.6438 4.72401 93.5719 4.8228 93.5222 4.93672L87.8811 14.0805L82.224 4.91091C82.1469 4.7961 82.0679 4.69731 81.9872 4.61543C81.9074 4.53533 81.824 4.47214 81.7398 4.42586C81.6661 4.37246 81.5907 4.32618 81.5154 4.28791L81.4905 4.27634C80.8803 4.04316 80.2736 3.95594 79.6864 4.01913C79.1152 4.08143 78.6726 4.1642 78.3338 4.271L78.3152 4.27812C78.2105 4.31995 78.1156 4.37335 78.0313 4.43565C77.9524 4.48994 77.8814 4.56648 77.8123 4.67061C77.7324 4.79076 77.6925 4.92248 77.6925 5.06043V21.8306L70.9161 4.95986L70.9072 4.93939C70.815 4.75516 70.65 4.59674 70.4176 4.46947C70.25 4.37602 70.0273 4.28613 69.7373 4.19535C69.4419 4.10279 69.0579 4.05562 68.5967 4.05562C68.1283 4.05562 67.762 4.09656 67.4738 4.18022C67.1873 4.26388 66.9709 4.35288 66.8174 4.449C66.5966 4.58161 66.4475 4.74715 66.3784 4.93405L59.4121 22.1742H63.7316L64.9184 19.1348H72.4514L73.6373 22.1742H77.6925V22.1991H81.5366V10.9397L87.6816 20.7813H88.0798L94.2496 10.9362V22.1991H98.0706V5.08624L98.0688 5.05865Z" fill="#0060A9"/>
<path fill-rule="evenodd" clip-rule="evenodd" d="M110.281 10.5001C110.296 11.1899 110.155 11.7177 109.863 12.0692C109.554 12.4412 109.212 12.7154 108.846 12.8836C108.408 13.0874 107.889 13.2066 107.309 13.2387L105.367 13.3045V7.70556L107.628 7.75006C108.374 7.84529 108.931 8.03842 109.282 8.32322C109.645 8.61781 109.904 8.92664 110.05 9.23546C110.218 9.61816 110.296 10.0382 110.281 10.485V10.4921V10.5001ZM114.075 10.3417C114.075 9.85576 114.032 9.37071 113.943 8.891C113.856 8.49139 113.725 8.06064 113.552 7.6103C113.372 7.14127 113.099 6.7203 112.741 6.35896C112.423 5.98872 112.023 5.64964 111.548 5.34882C111.144 5.10229 110.616 4.87178 109.976 4.66441C109.33 4.45348 108.546 4.34668 107.646 4.34668H101.572V22.3887H105.392V16.9437H107.427C108.048 16.9268 108.661 16.8476 109.25 16.7078C109.747 16.5877 110.278 16.4133 110.827 16.189C111.395 15.9585 111.89 15.6238 112.302 15.1957C112.639 14.8914 112.943 14.5051 113.208 14.0459C113.435 13.6409 113.642 13.1372 113.823 12.5489C114.008 11.9508 114.092 11.2068 114.075 10.3417V10.3417Z" fill="#AB54FF"/>
<path fill-rule="evenodd" clip-rule="evenodd" d="M125.226 15.847H120.277L122.719 9.30557L125.226 15.847ZM125.01 5.17581L125.001 5.15534C124.909 4.97111 124.744 4.81269 124.512 4.68631C124.344 4.59197 124.121 4.50208 123.831 4.4113C123.536 4.31874 123.153 4.27246 122.691 4.27246C122.223 4.27246 121.856 4.31251 121.568 4.39706C121.281 4.47983 121.065 4.56883 120.911 4.66495C120.69 4.79756 120.542 4.9631 120.472 5.15L113.507 22.3901H117.825L119.012 19.3508H126.545L127.732 22.3901H131.924L125.01 5.17581Z" fill="#AB54FF"/>
<path fill-rule="evenodd" clip-rule="evenodd" d="M144.672 13.3055C144.672 15.0063 144.277 16.3546 143.497 17.314C142.719 18.269 141.591 18.7336 140.047 18.7336L137.083 18.6642V8.07942H140.045C140.811 8.07942 141.489 8.20402 142.059 8.44966C142.623 8.69441 143.104 9.04507 143.488 9.49274C143.874 9.94308 144.171 10.494 144.369 11.1312C144.571 11.7783 144.672 12.5098 144.672 13.3055M146.108 6.87537C145.369 6.09929 144.471 5.49409 143.439 5.07668C142.409 4.66017 141.266 4.45725 140.049 4.47416L136.814 4.42432H133.313V22.3391H136.814H140.048C141.272 22.3221 142.414 22.0934 143.443 21.66C144.473 21.2248 145.371 20.6071 146.109 19.823C146.845 19.0407 147.429 18.0947 147.843 17.0115C148.257 15.9302 148.466 14.718 148.466 13.4071C148.466 12.0632 148.257 10.8216 147.844 9.71535C147.429 8.60552 146.845 7.65055 146.108 6.87537" fill="#4578FF"/>
<path fill-rule="evenodd" clip-rule="evenodd" d="M164.599 4.48453C164.401 4.37061 164.176 4.28428 163.942 4.22999C163.667 4.15701 163.356 4.11963 163.014 4.11963C162.674 4.11963 162.362 4.15701 162.096 4.22821C161.85 4.28517 161.628 4.37239 161.437 4.4872C161.121 4.67766 161.054 4.93932 161.054 5.12444V13.1202L161.004 13.9995V14.0146C161.004 14.9215 160.946 15.7154 160.831 16.374C160.721 17.0059 160.516 17.5354 160.22 17.9475C159.932 18.3516 159.539 18.6568 159.051 18.8553C158.548 19.0609 157.894 19.165 157.108 19.165C156.304 19.165 155.642 19.0609 155.139 18.8553C154.652 18.6568 154.264 18.3525 153.984 17.9502C153.697 17.5372 153.491 17.0059 153.372 16.3704C153.249 15.7154 153.188 14.9224 153.188 14.0146V5.25081C153.188 5.13067 153.166 5.02209 153.127 4.92953C153.093 4.84943 153.05 4.7809 153.001 4.72572C152.946 4.64918 152.887 4.59311 152.82 4.55751C152.686 4.48275 152.513 4.40621 152.289 4.32522C152.059 4.24245 151.794 4.18638 151.504 4.15879C151.217 4.13209 150.904 4.14099 150.572 4.18549C150.227 4.23266 149.875 4.35904 149.527 4.56107L149.496 4.57887L149.347 4.72928L149.329 4.75776C149.254 4.88414 149.216 5.03366 149.216 5.20008V14.1917C149.216 16.965 149.884 19.1383 151.201 20.6513C152.527 22.1741 154.506 22.9466 157.086 22.9466C159.678 22.9119 161.669 22.118 163.003 20.5881C164.328 19.0662 165 16.8804 165 14.0903V5.14936C165 4.86456 164.862 4.63494 164.599 4.48453" fill="#4578FF"/>
<mask id="mask0_284_4088" style="mask-type:alpha" maskUnits="userSpaceOnUse" x="0" y="0" width="20" height="22">
<path fill-rule="evenodd" clip-rule="evenodd" d="M0 0.362305H19.7167V21.4428H0V0.362305Z" fill="white"/>
</mask>
<g mask="url(#mask0_284_4088)">
<path fill-rule="evenodd" clip-rule="evenodd" d="M6.89208 0.362305C1.60397 0.362305 -1.71151 6.10367 0.924557 10.7085L4.26488 16.5407L7.07125 21.4428C4.5629 16.9189 7.2238 11.441 11.9646 10.3516C9.71264 5.81799 12.9882 0.388115 18.1309 0.388115H18.1468L19.7167 0.390785L13.6117 0.377435L6.90716 0.362305H6.89208" fill="#0060A9"/>
</g>
<path fill-rule="evenodd" clip-rule="evenodd" d="M31.4771 21.1963L30.7658 22.4263C29.4388 24.7189 27.1256 25.8652 24.8133 25.8652C22.6775 25.8652 20.5417 24.8871 19.1846 22.9336C17.824 24.8711 15.6979 25.8394 13.5719 25.8394C11.2489 25.8394 8.92683 24.6842 7.60436 22.3738L7.07129 21.4419C7.08903 21.474 7.10677 21.5069 7.12539 21.538L9.87233 26.3333L12.6166 31.1304C14.0721 33.6714 16.6266 34.9423 19.1828 34.9423C21.7258 34.9423 24.2705 33.6821 25.7295 31.1589L28.4951 26.3743L31.2625 21.5923C31.3387 21.4615 31.4097 21.3289 31.4771 21.1963" fill="#AB54FF"/>
<path fill-rule="evenodd" clip-rule="evenodd" d="M11.9644 10.3516C7.22359 11.4409 4.56268 16.918 7.07103 21.4427L7.6041 22.3736C8.92657 24.6841 11.2486 25.8402 13.5716 25.8402C15.6977 25.8402 17.8237 24.871 19.1844 22.9334C19.0655 22.7635 18.9537 22.5863 18.8473 22.4012L15.507 16.5664L12.1667 10.7307C12.0939 10.6052 12.0265 10.4788 11.9644 10.3516" fill="#0020A9"/>
<path fill-rule="evenodd" clip-rule="evenodd" d="M19.7168 0.390625L20.3155 0.391515C25.4679 0.403975 28.7293 5.85165 26.4613 10.3799C31.0993 11.4586 33.73 16.7372 31.4771 21.1961L34.1318 16.6064L37.4978 10.7858C40.1561 6.18895 36.8566 0.428005 31.5605 0.415545L24.8532 0.401305L19.7168 0.390625" fill="#4578FF"/>
<path fill-rule="evenodd" clip-rule="evenodd" d="M18.1311 0.387695C12.9885 0.387695 9.71288 5.81846 11.9649 10.3512C12.5139 10.2257 13.0905 10.1581 13.6918 10.1581H13.7087L19.2194 10.1705L24.731 10.1821C25.3324 10.1839 25.9107 10.2524 26.4615 10.3806C28.7295 5.85138 25.4681 0.403715 20.3157 0.392145L19.717 0.390365L18.1479 0.387695H18.1311" fill="#1D4BC6"/>
<path fill-rule="evenodd" clip-rule="evenodd" d="M26.4603 10.3799C26.3964 10.5089 26.3272 10.6362 26.2545 10.7635L22.8893 16.5814L19.5233 22.4002C19.4169 22.5853 19.3033 22.7633 19.1836 22.9333C20.5407 24.8877 22.6765 25.8649 24.8132 25.8649C27.1246 25.8649 29.4378 24.7195 30.7656 22.426L31.4761 21.196C33.729 16.7371 31.0982 11.4586 26.4603 10.3799" fill="#5381FE"/>
<path fill-rule="evenodd" clip-rule="evenodd" d="M13.6918 10.1577C13.0904 10.1577 12.5139 10.2254 11.9648 10.3508C12.0269 10.4781 12.0943 10.6045 12.1662 10.73L15.5074 16.5657L18.8468 22.4005C18.9542 22.5856 19.0659 22.7627 19.1839 22.9327C19.3036 22.7627 19.4171 22.5856 19.5236 22.4005L22.8896 16.5808L26.2548 10.7629C26.3275 10.6365 26.3967 10.5084 26.4606 10.3802C25.9106 10.2521 25.3323 10.1835 24.731 10.1817L19.2185 10.1702L13.7086 10.1577H13.6918" fill="#002587"/>
<path fill-rule="evenodd" clip-rule="evenodd" d="M52.6923 29.4015C52.6595 29.2724 52.6143 29.1549 52.5557 29.0472C52.4981 28.9378 52.4236 28.8452 52.3322 28.766C52.2418 28.6868 52.1344 28.6263 52.0129 28.5827C51.8905 28.5382 51.7486 28.5168 51.5872 28.5168C51.3512 28.5168 51.1472 28.5649 50.9752 28.6601C50.804 28.7553 50.6638 28.8835 50.5565 29.0437C50.4492 29.203 50.3694 29.3846 50.317 29.5884C50.2656 29.7913 50.239 29.9995 50.239 30.2114C50.239 30.4232 50.2656 30.6314 50.317 30.8344C50.3694 31.0382 50.4492 31.2197 50.5565 31.3799C50.6638 31.5392 50.804 31.6674 50.9752 31.7626C51.1472 31.8587 51.3512 31.9059 51.5872 31.9059C51.7619 31.9059 51.9145 31.8757 52.0457 31.816C52.1797 31.7564 52.2941 31.6727 52.389 31.5668C52.483 31.46 52.5575 31.3372 52.6125 31.1966C52.6666 31.0542 52.7012 30.9029 52.7163 30.7409H53.4755C53.4578 31.007 53.401 31.25 53.3035 31.4698C53.2068 31.6896 53.0755 31.8801 52.9105 32.0403C52.7447 32.2005 52.5504 32.3233 52.3269 32.4105C52.1034 32.4978 51.8559 32.5414 51.5872 32.5414C51.2563 32.5414 50.9601 32.48 50.6967 32.3571C50.4332 32.2361 50.2115 32.0679 50.0297 31.8561C49.8461 31.6451 49.7077 31.3968 49.6101 31.1147C49.5117 30.8317 49.4629 30.5318 49.4629 30.2114C49.4629 29.8963 49.5117 29.5973 49.6101 29.3142C49.7077 29.0321 49.8461 28.7856 50.0297 28.5729C50.2115 28.3611 50.4332 28.1937 50.6967 28.0682C50.9601 27.9436 51.2563 27.8813 51.5872 27.8813C51.8364 27.8813 52.0688 27.9161 52.2888 27.9837C52.5087 28.0522 52.7012 28.1528 52.8688 28.2836C53.0374 28.4145 53.1722 28.5729 53.276 28.7598C53.3797 28.9467 53.4445 29.1603 53.4684 29.4015H52.6923Z" fill="#231F20"/>
<path fill-rule="evenodd" clip-rule="evenodd" d="M54.71 27.9873H57.9013V28.6601H55.4861V29.8251H57.7212V30.4606H55.4861V31.7627H57.9438V32.4355H54.71V27.9873Z" fill="#231F20"/>
<path fill-rule="evenodd" clip-rule="evenodd" d="M59.9265 30.0932H61.0627C61.1497 30.0932 61.2384 30.0799 61.3297 30.0558C61.4202 30.0309 61.5045 29.9909 61.5807 29.9339C61.657 29.8787 61.7191 29.804 61.7661 29.7096C61.8149 29.6162 61.8388 29.4996 61.8388 29.3581C61.8388 29.213 61.8184 29.092 61.7768 28.9968C61.7351 28.9006 61.6783 28.825 61.6082 28.7698C61.5373 28.7128 61.4583 28.6746 61.3661 28.6541C61.2756 28.6327 61.1772 28.623 61.0752 28.623H59.9265V30.0932ZM59.1504 27.9873H61.1062C61.4201 27.9873 61.6765 28.0336 61.8752 28.1244C62.0747 28.216 62.2273 28.33 62.3346 28.467C62.4419 28.6041 62.5164 28.7536 62.5546 28.9156C62.5945 29.0767 62.6149 29.2262 62.6149 29.3641C62.6149 29.5012 62.5945 29.6498 62.5546 29.81C62.5164 29.9693 62.4419 30.118 62.3346 30.255C62.2273 30.3921 62.0747 30.5051 61.8752 30.5941C61.6765 30.684 61.4201 30.7285 61.1062 30.7285H59.9265V32.4355H59.1504V27.9873Z" fill="#231F20"/>
<path fill-rule="evenodd" clip-rule="evenodd" d="M64.5954 31.8005H65.9676C66.2026 31.8005 66.3871 31.7391 66.5166 31.6163C66.647 31.4944 66.7126 31.3208 66.7126 31.0965C66.7126 30.8767 66.647 30.7067 66.5166 30.5892C66.3871 30.47 66.2026 30.4104 65.9676 30.4104H64.5954V31.8005ZM64.5954 29.8503H65.862C66.0474 29.8503 66.2026 29.7969 66.3277 29.691C66.451 29.5859 66.5131 29.4329 66.5131 29.2335C66.5131 29.0092 66.4581 28.8517 66.3454 28.76C66.2346 28.6683 66.0731 28.623 65.862 28.623H64.5954V29.8503ZM63.8193 27.9873H65.9729C66.3711 27.9873 66.6896 28.0781 66.929 28.2605C67.1694 28.4439 67.2892 28.7207 67.2892 29.09C67.2892 29.3143 67.2342 29.5065 67.1251 29.6667C67.016 29.826 66.8599 29.9497 66.6567 30.037V30.0494C66.929 30.1082 67.1366 30.2372 67.2767 30.4392C67.4178 30.6395 67.4887 30.8923 67.4887 31.1957C67.4887 31.3702 67.4577 31.5331 67.3947 31.6844C67.3326 31.8365 67.2359 31.9665 67.1038 32.0777C66.9707 32.1881 66.8004 32.2744 66.5947 32.3385C66.3871 32.4035 66.1405 32.4355 65.8549 32.4355H63.8193V27.9873Z" fill="#231F20"/>
<path fill-rule="evenodd" clip-rule="evenodd" d="M68.6973 27.9873H69.4734V31.3017L71.3546 27.9873H72.2673V32.4355H71.4912V29.0962L69.586 32.4355H68.6973V27.9873Z" fill="#231F20"/>
<path fill-rule="evenodd" clip-rule="evenodd" d="M76.7197 29.4015C76.6869 29.2724 76.6416 29.1549 76.5831 29.0472C76.5254 28.9378 76.4509 28.8452 76.3596 28.766C76.2691 28.6868 76.1618 28.6263 76.0403 28.5827C75.9179 28.5382 75.776 28.5168 75.6145 28.5168C75.3786 28.5168 75.1746 28.5649 75.0025 28.6601C74.8313 28.7553 74.6912 28.8835 74.5839 29.0437C74.4765 29.203 74.3967 29.3846 74.3444 29.5884C74.2929 29.7913 74.2663 29.9995 74.2663 30.2114C74.2663 30.4232 74.2929 30.6314 74.3444 30.8344C74.3967 31.0382 74.4765 31.2197 74.5839 31.3799C74.6912 31.5392 74.8313 31.6674 75.0025 31.7626C75.1746 31.8587 75.3786 31.9059 75.6145 31.9059C75.7893 31.9059 75.9418 31.8757 76.0731 31.816C76.207 31.7564 76.3214 31.6727 76.4163 31.5668C76.5104 31.46 76.5849 31.3372 76.6399 31.1966C76.694 31.0542 76.7286 30.9029 76.7436 30.7409H77.5029C77.4851 31.007 77.4284 31.25 77.3308 31.4698C77.2341 31.6896 77.1029 31.8801 76.9379 32.0403C76.772 32.2005 76.5778 32.3233 76.3543 32.4105C76.1307 32.4978 75.8833 32.5414 75.6145 32.5414C75.2837 32.5414 74.9874 32.48 74.724 32.3571C74.4606 32.2361 74.2388 32.0679 74.057 31.8561C73.8734 31.6451 73.735 31.3968 73.6375 31.1147C73.539 30.8317 73.4902 30.5318 73.4902 30.2114C73.4902 29.8963 73.539 29.5973 73.6375 29.3142C73.735 29.0321 73.8734 28.7856 74.057 28.5729C74.2388 28.3611 74.4606 28.1937 74.724 28.0682C74.9874 27.9436 75.2837 27.8813 75.6145 27.8813C75.8638 27.8813 76.0961 27.9161 76.3161 27.9837C76.5361 28.0522 76.7286 28.1528 76.8962 28.2836C77.0647 28.4145 77.1995 28.5729 77.3033 28.7598C77.4071 28.9467 77.4718 29.1603 77.4958 29.4015H76.7197Z" fill="#231F20"/>
<path fill-rule="evenodd" clip-rule="evenodd" d="M82.8782 28.5161C82.6422 28.5161 82.4382 28.5642 82.267 28.6594C82.095 28.7555 81.9548 28.8828 81.8475 29.043C81.7402 29.2023 81.6603 29.3848 81.608 29.5877C81.5566 29.7915 81.53 29.9989 81.53 30.2107C81.53 30.4234 81.5566 30.6308 81.608 30.8337C81.6603 31.0375 81.7402 31.2191 81.8475 31.3793C81.9548 31.5386 82.095 31.6667 82.267 31.762C82.4382 31.8581 82.6422 31.9061 82.8782 31.9061C83.1141 31.9061 83.3181 31.8581 83.4893 31.762C83.6613 31.6667 83.8015 31.5386 83.9088 31.3793C84.0161 31.2191 84.096 31.0375 84.1483 30.8337C84.1997 30.6308 84.2263 30.4234 84.2263 30.2107C84.2263 29.9989 84.1997 29.7915 84.1483 29.5877C84.096 29.3848 84.0161 29.2023 83.9088 29.043C83.8015 28.8828 83.6613 28.7555 83.4893 28.6594C83.3181 28.5642 83.1141 28.5161 82.8782 28.5161M82.8782 27.8813C83.209 27.8813 83.5071 27.9436 83.7687 28.0682C84.0321 28.1937 84.2557 28.3611 84.4375 28.5729C84.6193 28.7856 84.7595 29.0321 84.8561 29.3142C84.9537 29.5973 85.0025 29.8963 85.0025 30.2114C85.0025 30.5318 84.9537 30.8326 84.8561 31.1147C84.7595 31.3968 84.6193 31.6451 84.4375 31.8561C84.2557 32.0679 84.0321 32.2361 83.7687 32.3571C83.5071 32.48 83.209 32.5414 82.8782 32.5414C82.5474 32.5414 82.2511 32.48 81.9877 32.3571C81.7242 32.2361 81.5025 32.0679 81.3207 31.8561C81.1371 31.6451 80.9987 31.3968 80.9011 31.1147C80.8027 30.8326 80.7539 30.5318 80.7539 30.2114C80.7539 29.8963 80.8027 29.5973 80.9011 29.3142C80.9987 29.0321 81.1371 28.7856 81.3207 28.5729C81.5025 28.3611 81.7242 28.1937 81.9877 28.0682C82.2511 27.9436 82.5474 27.8813 82.8782 27.8813" fill="#231F20"/>
<path fill-rule="evenodd" clip-rule="evenodd" d="M86.2188 27.9873H86.9948V29.7566H89.0127V27.9873H89.7888V32.4355H89.0127V30.4295H86.9948V32.4355H86.2188V27.9873Z" fill="#231F20"/>
<path fill-rule="evenodd" clip-rule="evenodd" d="M91.0309 31.7885C91.1383 31.7885 91.2305 31.7653 91.3077 31.72C91.3839 31.6737 91.4487 31.6087 91.5037 31.5233C91.5578 31.4378 91.5995 31.3381 91.6305 31.2242C91.6616 31.1094 91.6873 30.9848 91.7086 30.8469C91.7236 30.7098 91.7396 30.5843 91.7547 30.4704C91.7689 30.3565 91.7813 30.2426 91.7884 30.1277C91.7964 30.0138 91.8035 29.8928 91.8106 29.7673C91.8177 29.64 91.8212 29.4932 91.823 29.3267C91.8248 29.1612 91.8274 28.9699 91.8292 28.7545C91.831 28.5382 91.8327 28.2828 91.8327 27.9873H94.8875V32.4364H94.1114V28.6601H92.5592C92.5503 28.9352 92.545 29.1772 92.5432 29.3899C92.5414 29.6018 92.5361 29.7976 92.5308 29.9782C92.5246 30.1589 92.5139 30.3333 92.4962 30.5015C92.4793 30.6698 92.4545 30.8513 92.4217 31.0471C92.4013 31.1762 92.3685 31.3221 92.3232 31.4859C92.2762 31.6505 92.2053 31.8036 92.1086 31.9469C92.011 32.0902 91.8833 32.2121 91.7272 32.3118C91.5693 32.4106 91.3689 32.4613 91.1241 32.4613C91.0469 32.4613 90.9804 32.4586 90.9289 32.4551C90.8766 32.4506 90.8269 32.4444 90.7764 32.4364V31.7636C90.8269 31.7707 90.8695 31.7778 90.9076 31.7814C90.944 31.7858 90.9857 31.7885 91.0309 31.7885" fill="#231F20"/>
<path fill-rule="evenodd" clip-rule="evenodd" d="M97.2572 30.6664H98.6116L97.9464 28.7547H97.9295L97.2572 30.6664ZM97.5313 27.9873H98.3571L100.064 32.4355H99.2325L98.8165 31.258H97.0479L96.6301 32.4355H95.8301L97.5313 27.9873Z" fill="#231F20"/>
<path fill-rule="evenodd" clip-rule="evenodd" d="M102.138 26.6538C102.171 26.8282 102.249 26.9511 102.371 27.0214C102.493 27.0917 102.637 27.1273 102.802 27.1273C102.96 27.1273 103.095 27.0881 103.209 27.0089C103.323 26.9306 103.396 26.8122 103.429 26.6538H103.784C103.749 26.9484 103.642 27.1691 103.456 27.3142C103.273 27.4593 103.04 27.5322 102.753 27.5322C102.467 27.5322 102.239 27.4575 102.069 27.308C101.899 27.1584 101.802 26.9404 101.778 26.6538H102.138ZM100.995 27.9873H101.771V31.3017L103.652 27.9873H104.565V32.4355H103.789V29.0963L101.884 32.4355H100.995V27.9873Z" fill="#231F20"/>
<path fill-rule="evenodd" clip-rule="evenodd" d="M106.006 27.9873H106.782V29.7566H108.8V27.9873H109.576V32.4355H108.8V30.4295H106.782V32.4355H106.006V27.9873Z" fill="#231F20"/>
<path fill-rule="evenodd" clip-rule="evenodd" d="M116.282 29.4015C116.249 29.2724 116.204 29.1549 116.146 29.0472C116.088 28.9378 116.013 28.8452 115.922 28.766C115.832 28.6868 115.724 28.6263 115.603 28.5827C115.48 28.5382 115.338 28.5168 115.177 28.5168C114.941 28.5168 114.737 28.5649 114.565 28.6601C114.394 28.7553 114.254 28.8835 114.146 29.0437C114.039 29.203 113.959 29.3846 113.907 29.5884C113.855 29.7913 113.829 29.9995 113.829 30.2114C113.829 30.4232 113.855 30.6314 113.907 30.8344C113.959 31.0382 114.039 31.2197 114.146 31.3799C114.254 31.5392 114.394 31.6674 114.565 31.7626C114.737 31.8587 114.941 31.9059 115.177 31.9059C115.352 31.9059 115.504 31.8757 115.636 31.816C115.77 31.7564 115.884 31.6727 115.979 31.5668C116.073 31.46 116.147 31.3372 116.202 31.1966C116.256 31.0542 116.291 30.9029 116.306 30.7409H117.065C117.048 31.007 116.991 31.25 116.893 31.4698C116.797 31.6896 116.665 31.8801 116.5 32.0403C116.335 32.2005 116.14 32.3233 115.917 32.4105C115.693 32.4978 115.446 32.5414 115.177 32.5414C114.846 32.5414 114.55 32.48 114.287 32.3571C114.023 32.2361 113.801 32.0679 113.62 31.8561C113.436 31.6451 113.298 31.3968 113.2 31.1147C113.102 30.8317 113.053 30.5318 113.053 30.2114C113.053 29.8963 113.102 29.5973 113.2 29.3142C113.298 29.0321 113.436 28.7856 113.62 28.5729C113.801 28.3611 114.023 28.1937 114.287 28.0682C114.55 27.9436 114.846 27.8813 115.177 27.8813C115.426 27.8813 115.659 27.9161 115.879 27.9837C116.099 28.0522 116.291 28.1528 116.459 28.2836C116.627 28.4145 116.762 28.5729 116.866 28.7598C116.97 28.9467 117.034 29.1603 117.058 29.4015H116.282Z" fill="#231F20"/>
<path fill-rule="evenodd" clip-rule="evenodd" d="M117.877 27.9873H121.465V28.6601H120.056V32.4355H119.28V28.6601H117.877V27.9873Z" fill="#231F20"/>
<path fill-rule="evenodd" clip-rule="evenodd" d="M123.286 30.0932H124.422C124.509 30.0932 124.598 30.0799 124.689 30.0558C124.78 30.0309 124.864 29.9909 124.94 29.9339C125.016 29.8787 125.078 29.804 125.125 29.7096C125.174 29.6162 125.198 29.4996 125.198 29.3581C125.198 29.213 125.178 29.092 125.136 28.9968C125.094 28.9006 125.038 28.825 124.968 28.7698C124.897 28.7128 124.818 28.6746 124.725 28.6541C124.635 28.6327 124.536 28.623 124.434 28.623H123.286V30.0932ZM122.51 27.9873H124.466C124.78 27.9873 125.036 28.0336 125.235 28.1244C125.434 28.216 125.587 28.33 125.694 28.467C125.801 28.6041 125.876 28.7536 125.914 28.9156C125.954 29.0767 125.974 29.2262 125.974 29.3641C125.974 29.5012 125.954 29.6498 125.914 29.81C125.876 29.9693 125.801 30.118 125.694 30.255C125.587 30.3921 125.434 30.5051 125.235 30.5941C125.036 30.684 124.78 30.7285 124.466 30.7285H123.286V32.4355H122.51V27.9873Z" fill="#231F20"/>
<path fill-rule="evenodd" clip-rule="evenodd" d="M128.089 30.6664H129.444L128.778 28.7547H128.762L128.089 30.6664ZM128.363 27.9873H129.189L130.896 32.4355H130.065L129.649 31.258H127.88L127.462 32.4355H126.662L128.363 27.9873Z" fill="#231F20"/>
<path fill-rule="evenodd" clip-rule="evenodd" d="M131.463 27.9873H132.388L133.395 29.5573L134.442 27.9873H135.312L133.847 30.1304L135.418 32.4355H134.474L133.368 30.7347L132.246 32.4355H131.357L132.928 30.1304L131.463 27.9873Z" fill="#231F20"/>
<path fill-rule="evenodd" clip-rule="evenodd" d="M138.286 28.5161C138.049 28.5161 137.846 28.5642 137.675 28.6594C137.501 28.7555 137.363 28.8828 137.256 29.043C137.148 29.2023 137.069 29.3848 137.016 29.5877C136.965 29.7915 136.938 29.9989 136.938 30.2107C136.938 30.4234 136.965 30.6308 137.016 30.8337C137.069 31.0375 137.148 31.2191 137.256 31.3793C137.363 31.5386 137.501 31.6667 137.675 31.762C137.846 31.8581 138.049 31.9061 138.286 31.9061C138.522 31.9061 138.726 31.8581 138.898 31.762C139.07 31.6667 139.208 31.5386 139.317 31.3793C139.424 31.2191 139.504 31.0375 139.557 30.8337C139.606 30.6308 139.633 30.4234 139.633 30.2107C139.633 29.9989 139.606 29.7915 139.557 29.5877C139.504 29.3848 139.424 29.2023 139.317 29.043C139.208 28.8828 139.07 28.7555 138.898 28.6594C138.726 28.5642 138.522 28.5161 138.286 28.5161M138.286 27.8813C138.617 27.8813 138.913 27.9436 139.177 28.0682C139.44 28.1937 139.662 28.3611 139.844 28.5729C140.026 28.7856 140.166 29.0321 140.263 29.3142C140.36 29.5973 140.409 29.8963 140.409 30.2114C140.409 30.5318 140.36 30.8326 140.263 31.1147C140.166 31.3968 140.026 31.6451 139.844 31.8561C139.662 32.0679 139.44 32.2361 139.177 32.3571C138.913 32.48 138.617 32.5414 138.286 32.5414C137.954 32.5414 137.658 32.48 137.394 32.3571C137.132 32.2361 136.909 32.0679 136.727 31.8561C136.545 31.6451 136.405 31.3968 136.308 31.1147C136.211 30.8326 136.162 30.5318 136.162 30.2114C136.162 29.8963 136.211 29.5973 136.308 29.3142C136.405 29.0321 136.545 28.7856 136.727 28.5729C136.909 28.3611 137.132 28.1937 137.394 28.0682C137.658 27.9436 137.954 27.8813 138.286 27.8813" fill="#231F20"/>
<path fill-rule="evenodd" clip-rule="evenodd" d="M142.422 31.8005H143.794C144.029 31.8005 144.213 31.7391 144.343 31.6163C144.473 31.4944 144.539 31.3208 144.539 31.0965C144.539 30.8767 144.473 30.7067 144.343 30.5892C144.213 30.47 144.029 30.4104 143.794 30.4104H142.422V31.8005ZM142.422 29.8503H143.688C143.874 29.8503 144.029 29.7969 144.154 29.691C144.277 29.5859 144.339 29.4329 144.339 29.2335C144.339 29.0092 144.284 28.8517 144.172 28.76C144.061 28.6683 143.899 28.623 143.688 28.623H142.422V29.8503ZM141.646 27.9873H143.799C144.197 27.9873 144.516 28.0781 144.755 28.2605C144.996 28.4439 145.115 28.7207 145.115 29.09C145.115 29.3143 145.06 29.5065 144.951 29.6667C144.842 29.826 144.686 29.9497 144.483 30.037V30.0494C144.755 30.1082 144.963 30.2372 145.103 30.4392C145.244 30.6395 145.315 30.8923 145.315 31.1957C145.315 31.3702 145.284 31.5331 145.221 31.6844C145.159 31.8365 145.062 31.9665 144.93 32.0777C144.797 32.1881 144.627 32.2744 144.421 32.3385C144.213 32.4035 143.967 32.4355 143.681 32.4355H141.646V27.9873Z" fill="#231F20"/>
<path fill-rule="evenodd" clip-rule="evenodd" d="M147.455 30.6664H148.808L148.145 28.7547H148.126L147.455 30.6664ZM147.73 27.9873H148.554L150.262 32.4355H149.431L149.015 31.258H147.244L146.828 32.4355H146.028L147.73 27.9873Z" fill="#231F20"/>
<path fill-rule="evenodd" clip-rule="evenodd" d="M151.192 27.9873H151.968V29.7566H153.986V27.9873H154.762V32.4355H153.986V30.4295H151.968V32.4355H151.192V27.9873Z" fill="#231F20"/>
<path fill-rule="evenodd" clip-rule="evenodd" d="M156.204 27.9873H156.98V31.3017L158.861 27.9873H159.774V32.4355H158.998V29.0962L157.091 32.4355H156.204V27.9873Z" fill="#231F20"/>
<path fill-rule="evenodd" clip-rule="evenodd" d="M163.653 28.623H162.504C162.402 28.623 162.304 28.6336 162.214 28.6541C162.121 28.6755 162.042 28.7137 161.971 28.7698C161.9 28.8259 161.845 28.9006 161.803 28.9968C161.761 29.092 161.743 29.213 161.743 29.3581C161.743 29.4996 161.765 29.6162 161.814 29.7105C161.861 29.804 161.923 29.8787 161.999 29.9348C162.075 29.9909 162.159 30.0309 162.25 30.0558C162.341 30.0808 162.43 30.0932 162.519 30.0932H163.653V28.623ZM164.429 32.4355H163.653V30.7285H162.81L161.641 32.4355H160.712L161.959 30.6795C161.751 30.6288 161.585 30.5549 161.456 30.4579C161.328 30.36 161.228 30.2497 161.155 30.1269C161.083 30.0049 161.032 29.8768 161.006 29.7442C160.978 29.6115 160.966 29.4852 160.966 29.3641C160.966 29.2271 160.985 29.0776 161.025 28.9156C161.063 28.7536 161.138 28.6041 161.245 28.467C161.352 28.33 161.505 28.216 161.701 28.1244C161.898 28.0336 162.155 27.9873 162.473 27.9873H164.429V32.4355Z" fill="#231F20"/>
</svg>
