<svg width="330" height="95" viewBox="0 0 330 95" fill="none" xmlns="http://www.w3.org/2000/svg">
<g clip-path="url(#clip0_628_1383)">
<path fill-rule="evenodd" clip-rule="evenodd" d="M124.621 48.4387C124.652 49.7543 124.381 50.7609 123.826 51.4315C123.235 52.1411 122.583 52.6639 121.884 52.9848C121.049 53.3735 120.059 53.601 118.95 53.6621L115.242 53.7877V43.1083L119.558 43.1931C120.982 43.3748 122.045 43.7432 122.717 44.2864C123.408 44.8483 123.904 45.4373 124.183 46.0264C124.503 46.7564 124.652 47.5576 124.621 48.4098V48.4234V48.4387ZM131.864 48.1385C131.864 47.2117 131.781 46.2865 131.612 45.3715C131.446 44.6093 131.195 43.7876 130.867 42.9287C130.523 42.034 130.004 41.2311 129.318 40.5419C128.713 39.8357 127.95 39.1889 127.041 38.6151C126.271 38.1449 125.262 37.7052 124.041 37.3097C122.808 36.9073 121.312 36.7036 119.595 36.7036H108V71.117H115.29V60.7312H119.175C120.36 60.6989 121.532 60.5478 122.654 60.2813C123.602 60.0521 124.616 59.7194 125.666 59.2916C126.75 58.852 127.694 58.2137 128.48 57.3971C129.123 56.8166 129.704 56.0798 130.208 55.2039C130.643 54.4315 131.038 53.4706 131.383 52.3485C131.735 51.2078 131.898 49.7886 131.864 48.1385Z" fill="#0060A9"/>
<path fill-rule="evenodd" clip-rule="evenodd" d="M149.656 58.2263H140.209L144.87 45.7491L149.656 58.2263ZM201.069 38.0602C201.024 37.5968 200.804 37.2064 200.433 36.9263C200.269 36.804 200.12 36.7174 199.977 36.6665C199.669 36.5324 199.293 36.4034 198.86 36.2863C198.415 36.1657 197.917 36.0792 197.377 36.0299C196.83 35.9773 196.232 35.9943 195.599 36.0792C194.954 36.1674 194.294 36.3694 193.632 36.6852C193.476 36.7633 193.324 36.8583 193.178 36.967C193.065 37.0451 192.936 37.1452 192.799 37.2658C192.623 37.4219 192.486 37.6104 192.391 37.8277L181.624 55.2686L170.826 37.7784C170.679 37.5595 170.528 37.371 170.374 37.2148C170.222 37.0621 170.063 36.9415 169.902 36.8533C169.761 36.7514 169.617 36.6631 169.473 36.5901L169.426 36.5681C168.261 36.1233 167.103 35.9569 165.983 36.0775C164.892 36.1963 164.047 36.3542 163.401 36.5579L163.365 36.5715C163.165 36.6512 162.984 36.7531 162.823 36.8719C162.673 36.9755 162.537 37.1215 162.405 37.3201C162.253 37.5493 162.177 37.8005 162.177 38.0636V70.0511L149.242 37.8718L149.226 37.8328C149.049 37.4814 148.735 37.1792 148.291 36.9364C147.971 36.7582 147.546 36.5867 146.993 36.4136C146.429 36.237 145.696 36.1471 144.815 36.1471C143.921 36.1471 143.222 36.2252 142.672 36.3847C142.125 36.5443 141.712 36.7141 141.419 36.8974C140.998 37.1503 140.713 37.4661 140.581 37.8226L127.285 70.7064H135.529L137.795 64.9091H152.173L154.436 70.7064H162.177V70.7539H169.514V49.2778L181.243 68.0497H182.003L193.779 49.271V70.7539H201.073V38.1129L201.069 38.0602Z" fill="#0060A9"/>
<path fill-rule="evenodd" clip-rule="evenodd" d="M224.38 48.4389C224.408 49.7545 224.139 50.7611 223.582 51.4317C222.993 52.1413 222.34 52.6641 221.642 52.985C220.806 53.3737 219.815 53.6012 218.708 53.6623L215 53.7879V43.1085L219.316 43.1933C220.74 43.375 221.803 43.7433 222.473 44.2866C223.166 44.8485 223.66 45.4375 223.939 46.0266C224.261 46.7566 224.408 47.5578 224.38 48.41V48.4236V48.4389ZM231.622 48.1365C231.622 47.2096 231.539 46.2845 231.37 45.3695C231.204 44.6072 230.953 43.7856 230.623 42.9266C230.279 42.032 229.76 41.2291 229.076 40.5398C228.47 39.8337 227.706 39.1869 226.799 38.6131C226.028 38.1429 225.019 37.7032 223.799 37.3077C222.565 36.9054 221.068 36.7017 219.351 36.7017H207.758V71.1149H215.048V60.7291H218.933C220.118 60.6969 221.288 60.5458 222.412 60.2793C223.36 60.0501 224.374 59.7174 225.422 59.2896C226.506 58.8499 227.452 58.2116 228.238 57.3951C228.881 56.8145 229.462 56.0778 229.966 55.2018C230.401 54.4294 230.796 53.4686 231.141 52.3465C231.493 51.2057 231.654 49.7866 231.622 48.1365Z" fill="#AB54FF"/>
<path fill-rule="evenodd" clip-rule="evenodd" d="M252.907 58.6375H243.46L248.121 46.1603L252.907 58.6375ZM252.494 38.2831L252.477 38.2441C252.301 37.8927 251.986 37.5905 251.544 37.3494C251.223 37.1695 250.798 36.998 250.244 36.8249C249.68 36.6483 248.949 36.5601 248.067 36.5601C247.175 36.5601 246.474 36.6364 245.924 36.7977C245.377 36.9556 244.964 37.1254 244.671 37.3087C244.249 37.5616 243.966 37.8774 243.833 38.2339L230.538 71.1176H238.781L241.046 65.3204H255.424L257.69 71.1176H265.691L252.494 38.2831Z" fill="#AB54FF"/>
<path fill-rule="evenodd" clip-rule="evenodd" d="M290.021 53.7908C290.021 57.0348 289.268 59.6067 287.778 61.4367C286.293 63.2582 284.14 64.1443 281.194 64.1443L275.536 64.0119V43.8226H281.189C282.652 43.8226 283.945 44.0603 285.034 44.5288C286.111 44.9956 287.028 45.6645 287.761 46.5183C288.498 47.3773 289.065 48.4281 289.442 49.6436C289.828 50.8777 290.021 52.2731 290.021 53.7908ZM292.762 41.5258C291.352 40.0455 289.637 38.8911 287.668 38.0949C285.703 37.3004 283.52 36.9134 281.198 36.9457L275.023 36.8506H268.341V71.0212H275.023H281.196C283.532 70.9889 285.711 70.5527 287.675 69.7259C289.642 68.8958 291.356 67.7177 292.764 66.2221C294.169 64.73 295.283 62.9254 296.074 60.8595C296.864 58.7969 297.264 56.4848 297.264 53.9843C297.264 51.4209 296.864 49.0528 296.076 46.9427C295.283 44.8258 294.169 43.0043 292.762 41.5258Z" fill="#4578FF"/>
<path fill-rule="evenodd" clip-rule="evenodd" d="M328.057 36.9651C327.678 36.7478 327.249 36.5831 326.802 36.4795C326.278 36.3403 325.683 36.269 325.032 36.269C324.381 36.269 323.787 36.3403 323.279 36.4762C322.809 36.5848 322.385 36.7512 322.021 36.9701C321.417 37.3334 321.29 37.8325 321.29 38.1856V53.4366L321.194 55.1139V55.1427C321.194 56.8725 321.084 58.3868 320.864 59.643C320.654 60.8483 320.263 61.8583 319.699 62.6443C319.149 63.415 318.399 63.9973 317.467 64.3758C316.506 64.768 315.258 64.9666 313.758 64.9666C312.224 64.9666 310.96 64.768 310 64.3758C309.07 63.9973 308.33 63.4167 307.795 62.6494C307.247 61.8617 306.854 60.8483 306.627 59.6362C306.392 58.3868 306.275 56.8742 306.275 55.1427V38.4267C306.275 38.1975 306.235 37.9904 306.16 37.8138C306.094 37.6611 306.013 37.5304 305.92 37.4251C305.815 37.2791 305.701 37.1722 305.573 37.1043C305.317 36.9617 304.987 36.8157 304.56 36.6612C304.12 36.5033 303.616 36.3964 303.062 36.3437C302.513 36.2928 301.916 36.3098 301.283 36.3947C300.624 36.4846 299.952 36.7257 299.288 37.111L299.229 37.145L298.945 37.4319L298.911 37.4862C298.767 37.7273 298.694 38.0125 298.694 38.3299V55.4805C298.694 60.7702 299.969 64.9157 302.483 67.8016C305.014 70.7061 308.791 72.1796 313.716 72.1796C318.664 72.1134 322.463 70.5992 325.01 67.681C327.539 64.7782 328.822 60.6089 328.822 55.287V38.2331C328.822 37.6899 328.558 37.2519 328.057 36.9651Z" fill="#4578FF"/>
<mask id="mask0_628_1383" style="mask-type:alpha" maskUnits="userSpaceOnUse" x="18" y="29" width="38" height="41">
<path fill-rule="evenodd" clip-rule="evenodd" d="M18 29H55.6335V69.2088H18V29Z" fill="white"/>
</mask>
<g mask="url(#mask0_628_1383)">
<path fill-rule="evenodd" clip-rule="evenodd" d="M31.155 29C21.0615 29 14.7332 39.9511 19.7647 48.7344L26.1404 59.8586L31.497 69.2088C26.7093 60.5801 31.7882 50.1315 40.8371 48.0536C36.5386 39.4062 42.7908 29.0492 52.6066 29.0492H52.6371L55.6336 29.0543L43.9809 29.0289L31.1838 29H31.155Z" fill="#0060A9"/>
</g>
<path fill-rule="evenodd" clip-rule="evenodd" d="M78.0803 68.7388L76.7225 71.0849C74.1898 75.4578 69.7746 77.6443 65.361 77.6443C61.2843 77.6443 57.2077 75.7787 54.6174 72.0525C52.0204 75.7481 47.9624 77.5951 43.9043 77.5951C39.4704 77.5951 35.0382 75.3916 32.514 70.9847L31.4966 69.2074C31.5304 69.2685 31.5643 69.3313 31.5998 69.3907L36.843 78.5373L42.081 87.6872C44.8592 92.5338 49.7349 94.9579 54.614 94.9579C59.4678 94.9579 64.3249 92.5542 67.1098 87.7415L72.3885 78.6153L77.6706 69.4943C77.8162 69.2447 77.9516 68.9918 78.0803 68.7388Z" fill="#AB54FF"/>
<path fill-rule="evenodd" clip-rule="evenodd" d="M40.8362 48.0532C31.7873 50.131 26.7084 60.5779 31.4961 69.2084L32.5136 70.9841C35.0378 75.391 39.47 77.5962 43.9039 77.5962C47.9619 77.5962 52.02 75.7475 54.617 72.0519C54.3901 71.7276 54.1768 71.3898 53.9737 71.0367L47.5979 59.9074L41.2222 48.7764C41.0834 48.537 40.9547 48.2959 40.8362 48.0532Z" fill="#0020A9"/>
<path fill-rule="evenodd" clip-rule="evenodd" d="M55.6333 29.0537L56.7761 29.0554C66.6105 29.0792 72.8355 39.4701 68.5066 48.1073C77.3592 50.1648 82.3805 60.2331 78.0804 68.738L83.1474 59.9836L89.5722 48.8814C94.6461 40.1134 88.3482 29.125 78.2395 29.1012L65.4373 29.0741L55.6333 29.0537Z" fill="#4578FF"/>
<path fill-rule="evenodd" clip-rule="evenodd" d="M52.6064 29.0479C42.7906 29.0479 36.5385 39.4065 40.8369 48.0523C41.8849 47.8129 42.9853 47.6839 44.1331 47.6839H44.1653L54.6837 47.7076L65.2038 47.7297C66.3516 47.7331 67.4554 47.8638 68.5068 48.1083C72.8357 39.4693 66.6107 29.0784 56.7762 29.0563L55.6334 29.0529L52.6386 29.0479H52.6064Z" fill="#1D4BC6"/>
<path fill-rule="evenodd" clip-rule="evenodd" d="M68.5058 48.1074C68.3839 48.3536 68.2519 48.5963 68.113 48.8391L61.6899 59.9362L55.2651 71.0349C55.0619 71.388 54.8452 71.7275 54.6167 72.0518C57.2069 75.7797 61.2836 77.6436 65.362 77.6436C69.7738 77.6436 74.1891 75.4588 76.7235 71.0842L78.0795 68.7381C82.3797 60.2332 77.3583 50.1649 68.5058 48.1074Z" fill="#5381FE"/>
<path fill-rule="evenodd" clip-rule="evenodd" d="M44.1331 47.6836C42.9853 47.6836 41.8848 47.8126 40.8369 48.0519C40.9554 48.2947 41.0841 48.5357 41.2212 48.7751L47.5986 59.9061L53.9726 71.0355C54.1775 71.3886 54.3908 71.7264 54.616 72.0506C54.8445 71.7264 55.0612 71.3886 55.2644 71.0355L61.6892 59.935L68.1123 48.8379C68.2511 48.5969 68.3832 48.3524 68.5051 48.108C67.4554 47.8635 66.3516 47.7328 65.2038 47.7294L54.682 47.7073L44.1653 47.6836H44.1331Z" fill="#002587"/>
<path d="M114.831 87.5161L116.034 87.83C115.782 88.8507 115.327 89.6302 114.67 90.1683C114.017 90.7021 113.218 90.969 112.271 90.969C111.292 90.969 110.494 90.7641 109.878 90.3541C109.267 89.9398 108.8 89.3419 108.477 88.5603C108.159 87.7788 108 86.9396 108 86.0427C108 85.0647 108.18 84.2127 108.539 83.4867C108.903 82.7564 109.418 82.2033 110.083 81.8275C110.752 81.4474 111.488 81.2573 112.29 81.2573C113.199 81.2573 113.963 81.4965 114.583 81.9748C115.203 82.4531 115.635 83.1258 115.879 83.9928L114.695 84.281C114.484 83.5977 114.178 83.1002 113.777 82.7884C113.377 82.4766 112.872 82.3207 112.265 82.3207C111.567 82.3207 110.982 82.4937 110.511 82.8396C110.044 83.1856 109.715 83.6511 109.525 84.2362C109.335 84.817 109.24 85.4171 109.24 86.0363C109.24 86.8349 109.351 87.5332 109.575 88.1311C109.802 88.7248 110.153 89.1689 110.628 89.4636C111.104 89.7583 111.618 89.9056 112.172 89.9056C112.846 89.9056 113.416 89.7049 113.883 89.3035C114.35 88.902 114.666 88.3062 114.831 87.5161Z" fill="#231F20"/>
<path d="M118.073 90.8089V81.4175H124.644V82.5257H119.276V85.4021H124.303V86.504H119.276V89.7006H124.855V90.8089H118.073Z" fill="#231F20"/>
<path d="M127.043 90.8089V81.4175H130.471C131.075 81.4175 131.536 81.4474 131.854 81.5072C132.3 81.584 132.674 81.7314 132.976 81.9492C133.277 82.1627 133.519 82.4638 133.701 82.8525C133.887 83.2411 133.98 83.6682 133.98 84.1337C133.98 84.9323 133.734 85.6092 133.242 86.1644C132.751 86.7154 131.862 86.9908 130.577 86.9908H128.246V90.8089H127.043ZM128.246 85.8826H130.595C131.372 85.8826 131.924 85.7331 132.25 85.4341C132.577 85.1352 132.74 84.7145 132.74 84.1721C132.74 83.7792 132.643 83.444 132.449 83.1664C132.259 82.8845 132.007 82.6987 131.693 82.609C131.49 82.5535 131.116 82.5257 130.571 82.5257H128.246V85.8826Z" fill="#231F20"/>
<path d="M135.988 90.8089V81.4175H139.398C140.092 81.4175 140.648 81.5136 141.065 81.7058C141.487 81.8937 141.815 82.1862 142.051 82.5834C142.291 82.9763 142.411 83.3884 142.411 83.8198C142.411 84.2212 142.305 84.5992 142.094 84.9537C141.884 85.3081 141.565 85.5943 141.14 85.8121C141.689 85.9787 142.111 86.2627 142.404 86.6641C142.702 87.0656 142.851 87.5396 142.851 88.0863C142.851 88.5262 142.76 88.9362 142.578 89.3163C142.4 89.6921 142.179 89.9825 141.915 90.1875C141.65 90.3925 141.318 90.5484 140.917 90.6551C140.52 90.7576 140.032 90.8089 139.454 90.8089H135.988ZM137.191 85.3637H139.156C139.689 85.3637 140.072 85.3274 140.303 85.2548C140.609 85.1608 140.838 85.0049 140.991 84.7871C141.148 84.5693 141.227 84.296 141.227 83.9671C141.227 83.6554 141.154 83.382 141.01 83.1471C140.865 82.908 140.658 82.7457 140.39 82.6603C140.121 82.5706 139.66 82.5257 139.007 82.5257H137.191V85.3637ZM137.191 89.7006H139.454C139.842 89.7006 140.115 89.6857 140.272 89.6558C140.549 89.6045 140.78 89.5191 140.966 89.3995C141.152 89.28 141.305 89.107 141.425 88.8806C141.545 88.65 141.605 88.3852 141.605 88.0863C141.605 87.7361 141.518 87.4329 141.344 87.1766C141.171 86.9161 140.929 86.7346 140.619 86.6321C140.313 86.5253 139.871 86.4719 139.292 86.4719H137.191V89.7006Z" fill="#231F20"/>
<path d="M145.051 81.4175H146.142V88.855L150.978 81.4175H152.186V90.8089H151.095V83.3906L146.254 90.8089H145.051V81.4175Z" fill="#231F20"/>
<path d="M161.169 87.5161L162.371 87.83C162.119 88.8507 161.665 89.6302 161.008 90.1683C160.355 90.7021 159.555 90.969 158.609 90.969C157.629 90.969 156.831 90.7641 156.216 90.3541C155.604 89.9398 155.137 89.3419 154.815 88.5603C154.497 87.7788 154.337 86.9396 154.337 86.0427C154.337 85.0647 154.517 84.2127 154.877 83.4867C155.24 82.7564 155.755 82.2033 156.42 81.8275C157.09 81.4474 157.825 81.2573 158.627 81.2573C159.536 81.2573 160.301 81.4965 160.921 81.9748C161.541 82.4531 161.973 83.1258 162.216 83.9928L161.032 84.281C160.822 83.5977 160.516 83.1002 160.115 82.7884C159.714 82.4766 159.21 82.3207 158.602 82.3207C157.904 82.3207 157.319 82.4937 156.848 82.8396C156.381 83.1856 156.052 83.6511 155.862 84.2362C155.672 84.817 155.577 85.4171 155.577 86.0363C155.577 86.8349 155.689 87.5332 155.912 88.1311C156.139 88.7248 156.491 89.1689 156.966 89.4636C157.441 89.7583 157.956 89.9056 158.509 89.9056C159.183 89.9056 159.753 89.7049 160.22 89.3035C160.687 88.902 161.003 88.3062 161.169 87.5161Z" fill="#231F20"/>
<path d="M168.459 81.4175H175.606V90.8089H174.397V82.5257H169.661V90.8089H168.459V81.4175Z" fill="#231F20"/>
<path d="M177.1 90.8089L180.59 81.4175H181.886L185.605 90.8089H184.235L183.175 87.9646H179.375L178.377 90.8089H177.1ZM179.722 86.9524H182.803L181.855 84.3515C181.565 83.5614 181.351 82.9122 181.21 82.404C181.094 83.0062 180.931 83.6041 180.72 84.1977L179.722 86.9524Z" fill="#231F20"/>
<path d="M187.093 90.8089V81.4175H190.521C191.124 81.4175 191.585 81.4474 191.903 81.5072C192.35 81.584 192.724 81.7314 193.025 81.9492C193.327 82.1627 193.569 82.4638 193.751 82.8525C193.937 83.2411 194.03 83.6682 194.03 84.1337C194.03 84.9323 193.784 85.6092 193.292 86.1644C192.8 86.7154 191.912 86.9908 190.626 86.9908H188.295V90.8089H187.093ZM188.295 85.8826H190.645C191.422 85.8826 191.974 85.7331 192.3 85.4341C192.626 85.1352 192.79 84.7145 192.79 84.1721C192.79 83.7792 192.693 83.444 192.498 83.1664C192.308 82.8845 192.056 82.6987 191.742 82.609C191.54 82.5535 191.166 82.5257 190.62 82.5257H188.295V85.8826Z" fill="#231F20"/>
<path d="M197.829 90.8089V82.5257H194.835V81.4175H202.039V82.5257H199.032V90.8089H197.829Z" fill="#231F20"/>
<path d="M203.842 90.8089V81.4175H205.045V85.274H209.769V81.4175H210.971V90.8089H209.769V86.3822H205.045V90.8089H203.842Z" fill="#231F20"/>
<path d="M213.531 90.8091V81.4177H220.102V82.5259H214.734V85.4023H219.762V86.5042H214.734V89.7008H220.313V90.8091H213.531ZM215.075 80.3133V79H216.24V80.3133H215.075ZM217.387 80.3133V79H218.553V80.3133H217.387Z" fill="#231F20"/>
<path d="M222.514 90.8089V81.4175H225.942C226.545 81.4175 227.006 81.4474 227.324 81.5072C227.771 81.584 228.145 81.7314 228.446 81.9492C228.748 82.1627 228.99 82.4638 229.172 82.8525C229.358 83.2411 229.451 83.6682 229.451 84.1337C229.451 84.9323 229.205 85.6092 228.713 86.1644C228.221 86.7154 227.333 86.9908 226.047 86.9908H223.716V90.8089H222.514ZM223.716 85.8826H226.066C226.843 85.8826 227.395 85.7331 227.721 85.4341C228.047 85.1352 228.211 84.7145 228.211 84.1721C228.211 83.7792 228.114 83.444 227.919 83.1664C227.729 82.8845 227.477 82.6987 227.163 82.609C226.961 82.5535 226.587 82.5257 226.041 82.5257H223.716V85.8826Z" fill="#231F20"/>
<path d="M237.844 87.5161L239.047 87.83C238.794 88.8507 238.34 89.6302 237.683 90.1683C237.03 90.7021 236.23 90.969 235.284 90.969C234.304 90.969 233.507 90.7641 232.891 90.3541C232.279 89.9398 231.812 89.3419 231.49 88.5603C231.172 87.7788 231.013 86.9396 231.013 86.0427C231.013 85.0647 231.192 84.2127 231.552 83.4867C231.916 82.7564 232.43 82.2033 233.095 81.8275C233.765 81.4474 234.501 81.2573 235.302 81.2573C236.212 81.2573 236.976 81.4965 237.596 81.9748C238.216 82.4531 238.648 83.1258 238.892 83.9928L237.708 84.281C237.497 83.5977 237.191 83.1002 236.79 82.7884C236.389 82.4766 235.885 82.3207 235.278 82.3207C234.579 82.3207 233.994 82.4937 233.523 82.8396C233.056 83.1856 232.728 83.6511 232.538 84.2362C232.347 84.817 232.252 85.4171 232.252 86.0363C232.252 86.8349 232.364 87.5332 232.587 88.1311C232.814 88.7248 233.166 89.1689 233.641 89.4636C234.116 89.7583 234.631 89.9056 235.185 89.9056C235.858 89.9056 236.428 89.7049 236.895 89.3035C237.362 88.902 237.679 88.3062 237.844 87.5161Z" fill="#231F20"/>
<path d="M241.08 81.4175H242.282V85.5302C242.832 85.5302 243.218 85.4213 243.442 85.2035C243.665 84.9814 243.95 84.4519 244.297 83.6148C244.549 82.9998 244.756 82.5663 244.917 82.3143C245.082 82.0581 245.316 81.8446 245.617 81.6737C245.919 81.4986 246.252 81.4111 246.616 81.4111C247.078 81.4111 247.322 81.4153 247.347 81.4239V82.5001C247.306 82.5001 247.225 82.498 247.105 82.4937C246.973 82.4894 246.892 82.4873 246.863 82.4873C246.479 82.4873 246.194 82.5834 246.008 82.7756C245.818 82.9678 245.601 83.3778 245.357 84.0056C245.051 84.7999 244.793 85.3017 244.582 85.511C244.371 85.716 244.119 85.8804 243.826 86.0043C244.413 86.1708 244.991 86.7303 245.562 87.6827L247.434 90.8089H245.94L244.421 88.2592C244.004 87.5546 243.654 87.072 243.373 86.8115C243.092 86.5467 242.729 86.4143 242.282 86.4143V90.8089H241.08V81.4175Z" fill="#231F20"/>
<path d="M249.008 81.4175H250.099V88.855L254.935 81.4175H256.143V90.8089H255.052V83.3906L250.211 90.8089H249.008V81.4175Z" fill="#231F20"/>
<path d="M257.718 90.8089L261.233 85.9146L258.133 81.4175H259.565L261.214 83.8262C261.557 84.3259 261.801 84.7102 261.946 84.9793C262.148 84.6376 262.388 84.281 262.665 83.9095L264.493 81.4175H265.801L262.609 85.8441L266.049 90.8089H264.562L262.274 87.4585C262.146 87.2663 262.014 87.057 261.877 86.8307C261.675 87.1723 261.53 87.4072 261.443 87.5354L259.162 90.8089H257.718Z" fill="#231F20"/>
<path d="M271.709 81.4175H278.856V90.8089H277.648V82.5257H272.912V90.8089H271.709V81.4175Z" fill="#231F20"/>
<path d="M281.348 90.8089V81.4175H284.776C285.38 81.4175 285.841 81.4474 286.159 81.5072C286.605 81.584 286.979 81.7314 287.281 81.9492C287.583 82.1627 287.824 82.4638 288.006 82.8525C288.192 83.2411 288.285 83.6682 288.285 84.1337C288.285 84.9323 288.039 85.6092 287.547 86.1644C287.056 86.7154 286.167 86.9908 284.882 86.9908H282.551V90.8089H281.348ZM282.551 85.8826H284.9C285.677 85.8826 286.229 85.7331 286.556 85.4341C286.882 85.1352 287.045 84.7145 287.045 84.1721C287.045 83.7792 286.948 83.444 286.754 83.1664C286.564 82.8845 286.312 82.6987 285.998 82.609C285.795 82.5535 285.421 82.5257 284.876 82.5257H282.551V85.8826Z" fill="#231F20"/>
<path d="M289.692 86.235C289.692 84.6762 290.097 83.4569 290.907 82.5771C291.717 81.693 292.763 81.251 294.044 81.251C294.883 81.251 295.639 81.4582 296.313 81.8724C296.986 82.2867 297.499 82.8654 297.85 83.6085C298.206 84.3473 298.383 85.1865 298.383 86.1261C298.383 87.0785 298.197 87.9305 297.825 88.6822C297.453 89.4338 296.926 90.004 296.245 90.3926C295.563 90.777 294.827 90.9691 294.038 90.9691C293.182 90.9691 292.418 90.7556 291.744 90.3285C291.07 89.9015 290.56 89.3185 290.213 88.5797C289.866 87.8408 289.692 87.0593 289.692 86.235ZM290.932 86.2542C290.932 87.386 291.225 88.2786 291.812 88.932C292.403 89.5812 293.143 89.9057 294.032 89.9057C294.937 89.9057 295.68 89.5769 296.263 88.9192C296.85 88.2615 297.143 87.3283 297.143 86.1197C297.143 85.3552 297.017 84.689 296.765 84.121C296.517 83.5487 296.152 83.1067 295.668 82.7949C295.189 82.4789 294.649 82.3208 294.05 82.3208C293.199 82.3208 292.465 82.6241 291.849 83.2305C291.238 83.8327 290.932 84.8406 290.932 86.2542Z" fill="#231F20"/>
<path d="M301.005 81.4175H306.535V89.7006H307.353V92.9998H306.281V90.8089H300.274V92.9998H299.201V89.7006H299.908C300.64 88.5603 301.005 86.2563 301.005 82.7884V81.4175ZM305.332 82.5257H302.165V83.0062C302.165 83.8048 302.094 84.8982 301.954 86.2862C301.817 87.6699 301.547 88.808 301.142 89.7006H305.332V82.5257Z" fill="#231F20"/>
<path d="M308.314 90.8089L311.804 81.4175H313.1L316.819 90.8089H315.449L314.389 87.9646H310.589L309.591 90.8089H308.314ZM310.936 86.9524H314.017L313.069 84.3515C312.779 83.5614 312.564 82.9122 312.424 82.404C312.308 83.0062 312.145 83.6041 311.934 84.1977L310.936 86.9524Z" fill="#231F20"/>
<path d="M323.805 81.4175V85.5302C324.396 85.5302 324.801 85.4192 325.02 85.1971C325.243 84.9708 325.526 84.4433 325.87 83.6148C326.122 82.9998 326.328 82.5663 326.489 82.3143C326.655 82.0581 326.888 81.8446 327.19 81.6737C327.492 81.4986 327.822 81.4111 328.182 81.4111C328.574 81.4111 328.818 81.4153 328.913 81.4239V82.5001C328.876 82.5001 328.798 82.498 328.678 82.4937C328.545 82.4894 328.465 82.4873 328.436 82.4873C328.052 82.4873 327.766 82.5834 327.58 82.7756C327.39 82.9678 327.173 83.3778 326.93 84.0056C326.665 84.6846 326.436 85.148 326.241 85.3957C326.047 85.6391 325.766 85.842 325.398 86.0043C325.993 86.1751 326.57 86.7346 327.128 87.6827L329 90.8089H327.512L325.993 88.2592C325.588 87.5845 325.248 87.1083 324.971 86.8307C324.694 86.5531 324.305 86.4143 323.805 86.4143V90.8089H322.572V86.4143C322.175 86.4143 321.824 86.5232 321.518 86.741C321.216 86.9545 320.863 87.4179 320.458 88.1311L320.383 88.2592L318.865 90.8089H317.371L319.243 87.6827C319.813 86.7303 320.392 86.1708 320.978 86.0043C320.652 85.8676 320.385 85.6861 320.179 85.4598C319.972 85.2291 319.726 84.7444 319.441 84.0056C319.181 83.3351 318.958 82.9144 318.772 82.7436C318.586 82.5727 318.309 82.4873 317.941 82.4873L317.457 82.5001V81.4239C317.503 81.4153 317.734 81.4111 318.152 81.4111C318.548 81.4111 318.891 81.4965 319.181 81.6673C319.474 81.8339 319.704 82.0453 319.869 82.3015C320.034 82.5535 320.247 82.9913 320.507 83.6148C320.855 84.4561 321.136 84.9836 321.35 85.1971C321.569 85.4106 321.977 85.5217 322.572 85.5302V81.4175H323.805Z" fill="#231F20"/>
<path d="M114.831 87.5161L116.034 87.83C115.782 88.8507 115.327 89.6302 114.67 90.1683C114.017 90.7021 113.218 90.969 112.271 90.969C111.292 90.969 110.494 90.7641 109.878 90.3541C109.267 89.9398 108.8 89.3419 108.477 88.5603C108.159 87.7788 108 86.9396 108 86.0427C108 85.0647 108.18 84.2127 108.539 83.4867C108.903 82.7564 109.418 82.2033 110.083 81.8275C110.752 81.4474 111.488 81.2573 112.29 81.2573C113.199 81.2573 113.963 81.4965 114.583 81.9748C115.203 82.4531 115.635 83.1258 115.879 83.9928L114.695 84.281C114.484 83.5977 114.178 83.1002 113.777 82.7884C113.377 82.4766 112.872 82.3207 112.265 82.3207C111.567 82.3207 110.982 82.4937 110.511 82.8396C110.044 83.1856 109.715 83.6511 109.525 84.2362C109.335 84.817 109.24 85.4171 109.24 86.0363C109.24 86.8349 109.351 87.5332 109.575 88.1311C109.802 88.7248 110.153 89.1689 110.628 89.4636C111.104 89.7583 111.618 89.9056 112.172 89.9056C112.846 89.9056 113.416 89.7049 113.883 89.3035C114.35 88.902 114.666 88.3062 114.831 87.5161Z" stroke="#231F20" stroke-width="0.5"/>
<path d="M118.073 90.8089V81.4175H124.644V82.5257H119.276V85.4021H124.303V86.504H119.276V89.7006H124.855V90.8089H118.073Z" stroke="#231F20" stroke-width="0.5"/>
<path d="M127.043 90.8089V81.4175H130.471C131.075 81.4175 131.536 81.4474 131.854 81.5072C132.3 81.584 132.674 81.7314 132.976 81.9492C133.277 82.1627 133.519 82.4638 133.701 82.8525C133.887 83.2411 133.98 83.6682 133.98 84.1337C133.98 84.9323 133.734 85.6092 133.242 86.1644C132.751 86.7154 131.862 86.9908 130.577 86.9908H128.246V90.8089H127.043ZM128.246 85.8826H130.595C131.372 85.8826 131.924 85.7331 132.25 85.4341C132.577 85.1352 132.74 84.7145 132.74 84.1721C132.74 83.7792 132.643 83.444 132.449 83.1664C132.259 82.8845 132.007 82.6987 131.693 82.609C131.49 82.5535 131.116 82.5257 130.571 82.5257H128.246V85.8826Z" stroke="#231F20" stroke-width="0.5"/>
<path d="M135.988 90.8089V81.4175H139.398C140.092 81.4175 140.648 81.5136 141.065 81.7058C141.487 81.8937 141.815 82.1862 142.051 82.5834C142.291 82.9763 142.411 83.3884 142.411 83.8198C142.411 84.2212 142.305 84.5992 142.094 84.9537C141.884 85.3081 141.565 85.5943 141.14 85.8121C141.689 85.9787 142.111 86.2627 142.404 86.6641C142.702 87.0656 142.851 87.5396 142.851 88.0863C142.851 88.5262 142.76 88.9362 142.578 89.3163C142.4 89.6921 142.179 89.9825 141.915 90.1875C141.65 90.3925 141.318 90.5484 140.917 90.6551C140.52 90.7576 140.032 90.8089 139.454 90.8089H135.988ZM137.191 85.3637H139.156C139.689 85.3637 140.072 85.3274 140.303 85.2548C140.609 85.1608 140.838 85.0049 140.991 84.7871C141.148 84.5693 141.227 84.296 141.227 83.9671C141.227 83.6554 141.154 83.382 141.01 83.1471C140.865 82.908 140.658 82.7457 140.39 82.6603C140.121 82.5706 139.66 82.5257 139.007 82.5257H137.191V85.3637ZM137.191 89.7006H139.454C139.842 89.7006 140.115 89.6857 140.272 89.6558C140.549 89.6045 140.78 89.5191 140.966 89.3995C141.152 89.28 141.305 89.107 141.425 88.8806C141.545 88.65 141.605 88.3852 141.605 88.0863C141.605 87.7361 141.518 87.4329 141.344 87.1766C141.171 86.9161 140.929 86.7346 140.619 86.6321C140.313 86.5253 139.871 86.4719 139.292 86.4719H137.191V89.7006Z" stroke="#231F20" stroke-width="0.5"/>
<path d="M145.051 81.4175H146.142V88.855L150.978 81.4175H152.186V90.8089H151.095V83.3906L146.254 90.8089H145.051V81.4175Z" stroke="#231F20" stroke-width="0.5"/>
<path d="M161.169 87.5161L162.371 87.83C162.119 88.8507 161.665 89.6302 161.008 90.1683C160.355 90.7021 159.555 90.969 158.609 90.969C157.629 90.969 156.831 90.7641 156.216 90.3541C155.604 89.9398 155.137 89.3419 154.815 88.5603C154.497 87.7788 154.337 86.9396 154.337 86.0427C154.337 85.0647 154.517 84.2127 154.877 83.4867C155.24 82.7564 155.755 82.2033 156.42 81.8275C157.09 81.4474 157.825 81.2573 158.627 81.2573C159.536 81.2573 160.301 81.4965 160.921 81.9748C161.541 82.4531 161.973 83.1258 162.216 83.9928L161.032 84.281C160.822 83.5977 160.516 83.1002 160.115 82.7884C159.714 82.4766 159.21 82.3207 158.602 82.3207C157.904 82.3207 157.319 82.4937 156.848 82.8396C156.381 83.1856 156.052 83.6511 155.862 84.2362C155.672 84.817 155.577 85.4171 155.577 86.0363C155.577 86.8349 155.689 87.5332 155.912 88.1311C156.139 88.7248 156.491 89.1689 156.966 89.4636C157.441 89.7583 157.956 89.9056 158.509 89.9056C159.183 89.9056 159.753 89.7049 160.22 89.3035C160.687 88.902 161.003 88.3062 161.169 87.5161Z" stroke="#231F20" stroke-width="0.5"/>
<path d="M168.459 81.4175H175.606V90.8089H174.397V82.5257H169.661V90.8089H168.459V81.4175Z" stroke="#231F20" stroke-width="0.5"/>
<path d="M177.1 90.8089L180.59 81.4175H181.886L185.605 90.8089H184.235L183.175 87.9646H179.375L178.377 90.8089H177.1ZM179.722 86.9524H182.803L181.855 84.3515C181.565 83.5614 181.351 82.9122 181.21 82.404C181.094 83.0062 180.931 83.6041 180.72 84.1977L179.722 86.9524Z" stroke="#231F20" stroke-width="0.5"/>
<path d="M187.093 90.8089V81.4175H190.521C191.124 81.4175 191.585 81.4474 191.903 81.5072C192.35 81.584 192.724 81.7314 193.025 81.9492C193.327 82.1627 193.569 82.4638 193.751 82.8525C193.937 83.2411 194.03 83.6682 194.03 84.1337C194.03 84.9323 193.784 85.6092 193.292 86.1644C192.8 86.7154 191.912 86.9908 190.626 86.9908H188.295V90.8089H187.093ZM188.295 85.8826H190.645C191.422 85.8826 191.974 85.7331 192.3 85.4341C192.626 85.1352 192.79 84.7145 192.79 84.1721C192.79 83.7792 192.693 83.444 192.498 83.1664C192.308 82.8845 192.056 82.6987 191.742 82.609C191.54 82.5535 191.166 82.5257 190.62 82.5257H188.295V85.8826Z" stroke="#231F20" stroke-width="0.5"/>
<path d="M197.829 90.8089V82.5257H194.835V81.4175H202.039V82.5257H199.032V90.8089H197.829Z" stroke="#231F20" stroke-width="0.5"/>
<path d="M203.842 90.8089V81.4175H205.045V85.274H209.769V81.4175H210.971V90.8089H209.769V86.3822H205.045V90.8089H203.842Z" stroke="#231F20" stroke-width="0.5"/>
<path d="M213.531 90.8091V81.4177H220.102V82.5259H214.734V85.4023H219.762V86.5042H214.734V89.7008H220.313V90.8091H213.531ZM215.075 80.3133V79H216.24V80.3133H215.075ZM217.387 80.3133V79H218.553V80.3133H217.387Z" stroke="#231F20" stroke-width="0.5"/>
<path d="M222.514 90.8089V81.4175H225.942C226.545 81.4175 227.006 81.4474 227.324 81.5072C227.771 81.584 228.145 81.7314 228.446 81.9492C228.748 82.1627 228.99 82.4638 229.172 82.8525C229.358 83.2411 229.451 83.6682 229.451 84.1337C229.451 84.9323 229.205 85.6092 228.713 86.1644C228.221 86.7154 227.333 86.9908 226.047 86.9908H223.716V90.8089H222.514ZM223.716 85.8826H226.066C226.843 85.8826 227.395 85.7331 227.721 85.4341C228.047 85.1352 228.211 84.7145 228.211 84.1721C228.211 83.7792 228.114 83.444 227.919 83.1664C227.729 82.8845 227.477 82.6987 227.163 82.609C226.961 82.5535 226.587 82.5257 226.041 82.5257H223.716V85.8826Z" stroke="#231F20" stroke-width="0.5"/>
<path d="M237.844 87.5161L239.047 87.83C238.794 88.8507 238.34 89.6302 237.683 90.1683C237.03 90.7021 236.23 90.969 235.284 90.969C234.304 90.969 233.507 90.7641 232.891 90.3541C232.279 89.9398 231.812 89.3419 231.49 88.5603C231.172 87.7788 231.013 86.9396 231.013 86.0427C231.013 85.0647 231.192 84.2127 231.552 83.4867C231.916 82.7564 232.43 82.2033 233.095 81.8275C233.765 81.4474 234.501 81.2573 235.302 81.2573C236.212 81.2573 236.976 81.4965 237.596 81.9748C238.216 82.4531 238.648 83.1258 238.892 83.9928L237.708 84.281C237.497 83.5977 237.191 83.1002 236.79 82.7884C236.389 82.4766 235.885 82.3207 235.278 82.3207C234.579 82.3207 233.994 82.4937 233.523 82.8396C233.056 83.1856 232.728 83.6511 232.538 84.2362C232.347 84.817 232.252 85.4171 232.252 86.0363C232.252 86.8349 232.364 87.5332 232.587 88.1311C232.814 88.7248 233.166 89.1689 233.641 89.4636C234.116 89.7583 234.631 89.9056 235.185 89.9056C235.858 89.9056 236.428 89.7049 236.895 89.3035C237.362 88.902 237.679 88.3062 237.844 87.5161Z" stroke="#231F20" stroke-width="0.5"/>
<path d="M241.08 81.4175H242.282V85.5302C242.832 85.5302 243.218 85.4213 243.442 85.2035C243.665 84.9814 243.95 84.4519 244.297 83.6148C244.549 82.9998 244.756 82.5663 244.917 82.3143C245.082 82.0581 245.316 81.8446 245.617 81.6737C245.919 81.4986 246.252 81.4111 246.616 81.4111C247.078 81.4111 247.322 81.4153 247.347 81.4239V82.5001C247.306 82.5001 247.225 82.498 247.105 82.4937C246.973 82.4894 246.892 82.4873 246.863 82.4873C246.479 82.4873 246.194 82.5834 246.008 82.7756C245.818 82.9678 245.601 83.3778 245.357 84.0056C245.051 84.7999 244.793 85.3017 244.582 85.511C244.371 85.716 244.119 85.8804 243.826 86.0043C244.413 86.1708 244.991 86.7303 245.562 87.6827L247.434 90.8089H245.94L244.421 88.2592C244.004 87.5546 243.654 87.072 243.373 86.8115C243.092 86.5467 242.729 86.4143 242.282 86.4143V90.8089H241.08V81.4175Z" stroke="#231F20" stroke-width="0.5"/>
<path d="M249.008 81.4175H250.099V88.855L254.935 81.4175H256.143V90.8089H255.052V83.3906L250.211 90.8089H249.008V81.4175Z" stroke="#231F20" stroke-width="0.5"/>
<path d="M257.718 90.8089L261.233 85.9146L258.133 81.4175H259.565L261.214 83.8262C261.557 84.3259 261.801 84.7102 261.946 84.9793C262.148 84.6376 262.388 84.281 262.665 83.9095L264.493 81.4175H265.801L262.609 85.8441L266.049 90.8089H264.562L262.274 87.4585C262.146 87.2663 262.014 87.057 261.877 86.8307C261.675 87.1723 261.53 87.4072 261.443 87.5354L259.162 90.8089H257.718Z" stroke="#231F20" stroke-width="0.5"/>
<path d="M271.709 81.4175H278.856V90.8089H277.648V82.5257H272.912V90.8089H271.709V81.4175Z" stroke="#231F20" stroke-width="0.5"/>
<path d="M281.348 90.8089V81.4175H284.776C285.38 81.4175 285.841 81.4474 286.159 81.5072C286.605 81.584 286.979 81.7314 287.281 81.9492C287.583 82.1627 287.824 82.4638 288.006 82.8525C288.192 83.2411 288.285 83.6682 288.285 84.1337C288.285 84.9323 288.039 85.6092 287.547 86.1644C287.056 86.7154 286.167 86.9908 284.882 86.9908H282.551V90.8089H281.348ZM282.551 85.8826H284.9C285.677 85.8826 286.229 85.7331 286.556 85.4341C286.882 85.1352 287.045 84.7145 287.045 84.1721C287.045 83.7792 286.948 83.444 286.754 83.1664C286.564 82.8845 286.312 82.6987 285.998 82.609C285.795 82.5535 285.421 82.5257 284.876 82.5257H282.551V85.8826Z" stroke="#231F20" stroke-width="0.5"/>
<path d="M289.692 86.235C289.692 84.6762 290.097 83.4569 290.907 82.5771C291.717 81.693 292.763 81.251 294.044 81.251C294.883 81.251 295.639 81.4582 296.313 81.8724C296.986 82.2867 297.499 82.8654 297.85 83.6085C298.206 84.3473 298.383 85.1865 298.383 86.1261C298.383 87.0785 298.197 87.9305 297.825 88.6822C297.453 89.4338 296.926 90.004 296.245 90.3926C295.563 90.777 294.827 90.9691 294.038 90.9691C293.182 90.9691 292.418 90.7556 291.744 90.3285C291.07 89.9015 290.56 89.3185 290.213 88.5797C289.866 87.8408 289.692 87.0593 289.692 86.235ZM290.932 86.2542C290.932 87.386 291.225 88.2786 291.812 88.932C292.403 89.5812 293.143 89.9057 294.032 89.9057C294.937 89.9057 295.68 89.5769 296.263 88.9192C296.85 88.2615 297.143 87.3283 297.143 86.1197C297.143 85.3552 297.017 84.689 296.765 84.121C296.517 83.5487 296.152 83.1067 295.668 82.7949C295.189 82.4789 294.649 82.3208 294.05 82.3208C293.199 82.3208 292.465 82.6241 291.849 83.2305C291.238 83.8327 290.932 84.8406 290.932 86.2542Z" stroke="#231F20" stroke-width="0.5"/>
<path d="M301.005 81.4175H306.535V89.7006H307.353V92.9998H306.281V90.8089H300.274V92.9998H299.201V89.7006H299.908C300.64 88.5603 301.005 86.2563 301.005 82.7884V81.4175ZM305.332 82.5257H302.165V83.0062C302.165 83.8048 302.094 84.8982 301.954 86.2862C301.817 87.6699 301.547 88.808 301.142 89.7006H305.332V82.5257Z" stroke="#231F20" stroke-width="0.5"/>
<path d="M308.314 90.8089L311.804 81.4175H313.1L316.819 90.8089H315.449L314.389 87.9646H310.589L309.591 90.8089H308.314ZM310.936 86.9524H314.017L313.069 84.3515C312.779 83.5614 312.564 82.9122 312.424 82.404C312.308 83.0062 312.145 83.6041 311.934 84.1977L310.936 86.9524Z" stroke="#231F20" stroke-width="0.5"/>
<path d="M323.805 81.4175V85.5302C324.396 85.5302 324.801 85.4192 325.02 85.1971C325.243 84.9708 325.526 84.4433 325.87 83.6148C326.122 82.9998 326.328 82.5663 326.489 82.3143C326.655 82.0581 326.888 81.8446 327.19 81.6737C327.492 81.4986 327.822 81.4111 328.182 81.4111C328.574 81.4111 328.818 81.4153 328.913 81.4239V82.5001C328.876 82.5001 328.798 82.498 328.678 82.4937C328.545 82.4894 328.465 82.4873 328.436 82.4873C328.052 82.4873 327.766 82.5834 327.58 82.7756C327.39 82.9678 327.173 83.3778 326.93 84.0056C326.665 84.6846 326.436 85.148 326.241 85.3957C326.047 85.6391 325.766 85.842 325.398 86.0043C325.993 86.1751 326.57 86.7346 327.128 87.6827L329 90.8089H327.512L325.993 88.2592C325.588 87.5845 325.248 87.1083 324.971 86.8307C324.694 86.5531 324.305 86.4143 323.805 86.4143V90.8089H322.572V86.4143C322.175 86.4143 321.824 86.5232 321.518 86.741C321.216 86.9545 320.863 87.4179 320.458 88.1311L320.383 88.2592L318.865 90.8089H317.371L319.243 87.6827C319.813 86.7303 320.392 86.1708 320.978 86.0043C320.652 85.8676 320.385 85.6861 320.179 85.4598C319.972 85.2291 319.726 84.7444 319.441 84.0056C319.181 83.3351 318.958 82.9144 318.772 82.7436C318.586 82.5727 318.309 82.4873 317.941 82.4873L317.457 82.5001V81.4239C317.503 81.4153 317.734 81.4111 318.152 81.4111C318.548 81.4111 318.891 81.4965 319.181 81.6673C319.474 81.8339 319.704 82.0453 319.869 82.3015C320.034 82.5535 320.247 82.9913 320.507 83.6148C320.855 84.4561 321.136 84.9836 321.35 85.1971C321.569 85.4106 321.977 85.5217 322.572 85.5302V81.4175H323.805Z" stroke="#231F20" stroke-width="0.5"/>
<g filter="url(#filter0_d_628_1383)">
<path d="M6.56408 57.811L5.64883 53.4232C5.64883 53.4232 0.472725 36.0001 5.33341 22.1854C10.194 8.3654 33.9907 1.60753 43.7379 5.29607C53.4851 8.9846 58.4957 15.1019 58.4957 15.1019C58.4957 15.1019 32.4652 26.8081 24.9364 42.2242L17.542 53.1029C17.542 53.1029 10.6388 43.4251 13.2449 33.8115C13.2449 33.8115 9.87866 45.7366 10.1527 57.8698C10.3699 67.2806 6.56408 57.811 6.56408 57.811Z" fill="#DC3832"/>
<path opacity="0.27" d="M14.8846 49.8739C14.8277 49.6765 14.383 43.81 23.6338 34.7408C23.6338 34.7408 22.8168 37.0201 23.0857 37.7941C23.0857 37.7941 32.1451 23.9581 38.6087 21.2837C38.6087 21.2837 37.8228 22.7464 38.4019 23.7019C38.4019 23.7019 39.7205 19.8799 42.1664 18.7803C42.1664 18.7803 40.7393 20.9208 41.215 22.0631C41.215 22.0631 52.6323 11.1149 60.8128 13.8213L54.4473 24.2837L32.7449 37.2763L18.1578 49.7031L14.8846 49.8739Z" fill="#5D5D5D"/>
<path d="M11.7763 44.6906C11.7763 44.6906 11.1455 29.6109 21.234 20.0239C21.234 20.0239 16.9214 39.1445 22.5267 46.9539C28.132 54.7634 13.3121 52.4307 13.3121 52.4307L11.7763 44.6906Z" fill="url(#paint0_linear_628_1383)"/>
<path d="M51.4482 7.82115C51.4482 7.82115 44.1416 1.15937 31.5815 7.46351C19.0214 13.7677 17.8216 9.47059 24.6111 4.23938C31.4006 -0.997173 45.631 -2.9829 51.4482 7.82115Z" fill="url(#paint1_linear_628_1383)"/>
<path d="M0.323171 62.3966C0.323171 62.3966 -0.033617 65.0227 0.0025789 65.3324C0.0387747 65.642 0.209412 68.1082 2.33466 70.5316C2.33466 70.5316 2.02958 69.8163 2.88278 70.2594C3.73082 70.7024 3.61705 71.9675 3.61705 71.9675C3.61705 71.9675 5.24073 72.7682 6.26974 72.3572C6.26974 72.3572 8.11578 73.2006 9.18097 72.939C9.18097 72.939 8.73628 72.2664 10.541 72.0529C12.3508 71.834 13.8813 71.3803 14.6725 70.4996C14.6725 70.4996 13.6745 70.2594 15.2361 68.9943C16.8029 67.7238 17.5114 64.5156 17.5992 63.5228C17.5992 63.5228 17.2528 64.3235 16.8288 64.6652C16.8288 64.6652 17.3976 60.7471 15.2672 58.329C15.2672 58.329 16.0222 59.925 15.6809 60.5602C15.6809 60.5602 15.1069 57.571 13.8659 56.6529C12.6249 55.7347 12.9402 56.8717 11.4872 56.1297C10.0342 55.3825 8.25022 54.2027 5.2459 55.1475C5.2459 55.1475 6.29042 55.9109 4.9615 56.3592C3.63257 56.8077 1.08331 58.6386 0.359379 59.7649C0.36455 59.7595 1.11433 61.1474 0.323171 62.3966Z" fill="white"/>
<path d="M30.2833 51.5284C28.6803 51.1067 26.2035 52.3984 26.2035 52.3984C28.8302 48.1655 37.0676 43.1104 37.0676 43.1104C36.6332 44.098 37.3622 44.7064 37.3622 44.7064C38.5464 41.3115 45.3049 35.6533 45.3049 35.6533C44.3275 38.2208 45.2273 38.9628 45.2273 38.9628C46.2511 34.8205 49.2347 32.1409 49.2347 32.1409C47.2595 34.2013 47.942 36.1283 47.942 36.1283C47.942 36.1283 52.2287 31.2548 57.3479 28.8047C62.4672 26.3492 65.3888 26.5413 65.3888 26.5413C65.2026 23.2745 60.9314 21.3368 60.9314 21.3368C60.9624 19.8582 62.6481 21.4276 62.6481 21.4276C60.74 19.0415 55.5278 15.748 53.8472 14.7124C47.1664 17.0505 41.7265 22.5913 41.7265 22.5913C41.5301 21.2728 43.3502 19.4899 43.3502 19.4899C39.9995 21.2247 39.0067 24.4008 39.0067 24.4008C39.2083 22.8048 40.139 21.8119 40.139 21.8119C29.7506 27.2513 23.2508 38.8934 23.2508 38.8934C23.2249 37.4575 24.1299 35.5411 24.1299 35.5411C24.1299 35.5411 14.0828 43.9164 15.2617 49.7775C16.4407 55.6387 20.8721 60.005 20.8721 60.005C19.869 58.2169 20.3033 56.9731 20.3033 56.9731C20.9394 58.1101 21.6996 59.0176 22.4803 59.7436C24.4712 55.249 30.2833 51.5284 30.2833 51.5284Z" fill="white"/>
<path d="M66.1127 22.0465C66.1437 20.5678 67.8294 22.1371 67.8294 22.1371C65.5439 19.276 58.4959 15.1017 58.4959 15.1017C59.5249 14.8989 60.5437 15.817 60.5437 15.817C59.3647 13.6392 57.803 13.7832 57.803 13.7832C56.8205 13.8953 55.8484 14.1036 54.897 14.3811C54.7366 14.4291 54.5764 14.4772 54.416 14.5305C54.2248 14.5893 54.0386 14.6534 53.8525 14.7174C55.5331 15.7476 60.7453 19.0412 62.6534 21.4325C62.6534 21.4325 60.9677 19.8685 60.9366 21.3418C60.9366 21.3418 65.2079 23.2794 65.394 26.5463C65.394 26.5463 62.4724 26.3542 57.3532 28.8097C52.2339 31.265 47.9473 36.1333 47.9473 36.1333C47.9473 36.1333 47.2698 34.2063 49.24 32.1459C49.24 32.1459 46.2616 34.8255 45.2325 38.9677C45.2325 38.9677 44.3328 38.2258 45.31 35.6583C45.31 35.6583 38.5464 41.3112 37.3675 44.7114C37.3675 44.7114 36.6385 44.1029 37.0728 43.1154C37.0728 43.1154 28.8406 48.1704 26.2087 52.4034C26.2087 52.4034 28.6804 51.1063 30.2886 51.5334C30.2886 51.5334 24.4764 55.2539 22.4805 59.7538C24.7039 61.8197 27.0722 62.3801 27.0722 62.3801C27.9202 57.0742 35.4697 52.2433 35.4697 52.2433C33.8668 51.8216 31.3899 53.1134 31.3899 53.1134C34.0168 48.8804 42.2541 43.8253 42.2541 43.8253C41.8196 44.8129 42.5488 45.4214 42.5488 45.4214C43.733 42.0264 50.4913 36.3682 50.4913 36.3682C49.5141 38.9357 50.4138 39.6777 50.4138 39.6777C51.4376 35.5354 54.4213 32.8558 54.4213 32.8558C52.446 34.9162 53.1286 36.8432 53.1286 36.8432C53.1286 36.8432 57.4152 31.9697 62.5345 29.5196C67.6536 27.0641 69.9392 29.6743 69.9392 29.6743C70.6786 25.7243 66.1127 22.0465 66.1127 22.0465Z" fill="#F2F2F2"/>
<path d="M16.8336 64.6651C16.8336 64.6651 17.4024 60.747 15.272 58.3289C15.272 58.3289 16.027 59.9249 15.6857 60.5602C15.6857 60.5602 15.1117 57.5709 13.8707 56.6528C12.6297 55.7347 12.945 56.8717 11.492 56.1297C10.1269 55.4304 8.4722 54.3415 5.78849 54.998C7.3553 55.0088 8.45675 55.6973 9.40295 56.1831C10.7009 56.8503 10.4164 55.8361 11.523 56.6528C12.6297 57.4696 13.1415 60.1385 13.1415 60.1385C13.4467 59.5727 12.7692 58.1475 12.7692 58.1475C14.667 60.3041 14.1602 63.8004 14.1602 63.8004C14.5377 63.4961 14.8479 62.7862 14.8479 62.7862C14.7704 63.6669 14.1343 66.5334 12.7382 67.665C11.3421 68.7968 12.2367 69.0103 12.2367 69.0103C11.5282 69.7949 10.1631 70.2005 8.54983 70.3928C6.93644 70.5849 7.33462 71.1828 7.33462 71.1828C6.38315 71.4177 4.73879 70.6649 4.73879 70.6649C4.30961 70.8358 3.76149 70.7718 3.30127 70.6544C3.67875 71.2042 3.61153 71.9781 3.61153 71.9781C3.61153 71.9781 5.2352 72.7788 6.26422 72.3678C6.26422 72.3678 8.11024 73.2112 9.17544 72.9496C9.17544 72.9496 8.73074 72.277 10.5354 72.0635C12.3452 71.8448 13.8758 71.3909 14.667 70.5102C14.667 70.5102 13.669 70.27 15.2307 69.0049C16.7974 67.7345 17.5058 64.5264 17.5937 63.5335C17.604 63.5227 17.2576 64.3234 16.8336 64.6651Z" fill="#F2F2F2"/>
</g>
</g>
<defs>
<filter id="filter0_d_628_1383" x="-4" y="0" width="78.02" height="81" filterUnits="userSpaceOnUse" color-interpolation-filters="sRGB">
<feFlood flood-opacity="0" result="BackgroundImageFix"/>
<feColorMatrix in="SourceAlpha" type="matrix" values="0 0 0 0 0 0 0 0 0 0 0 0 0 0 0 0 0 0 127 0" result="hardAlpha"/>
<feOffset dy="4"/>
<feGaussianBlur stdDeviation="2"/>
<feColorMatrix type="matrix" values="0 0 0 0 0 0 0 0 0 0 0 0 0 0 0 0 0 0 0.08 0"/>
<feBlend mode="normal" in2="BackgroundImageFix" result="effect1_dropShadow_628_1383"/>
<feBlend mode="normal" in="SourceGraphic" in2="effect1_dropShadow_628_1383" result="shape"/>
</filter>
<linearGradient id="paint0_linear_628_1383" x1="9.53683" y1="37.4041" x2="20.4189" y2="36.4127" gradientUnits="userSpaceOnUse">
<stop offset="0.00731265" stop-color="#9B1F18"/>
<stop offset="0.1549" stop-color="#AA251E"/>
<stop offset="0.4873" stop-color="#C52F29"/>
<stop offset="0.7801" stop-color="#D63630"/>
<stop offset="1" stop-color="#DC3832"/>
</linearGradient>
<linearGradient id="paint1_linear_628_1383" x1="45.3368" y1="14.5311" x2="25.3269" y2="1.26889" gradientUnits="userSpaceOnUse">
<stop offset="0.00203643" stop-color="#B93832"/>
<stop offset="1" stop-color="#DC3832"/>
</linearGradient>
<clipPath id="clip0_628_1383">
<rect width="330" height="95" fill="white"/>
</clipPath>
</defs>
</svg>
