<svg width="12" height="18" viewBox="0 0 12 18" fill="none" xmlns="http://www.w3.org/2000/svg">
<path d="M11.4533 11.0769C11.8747 10.6555 11.9349 10.0535 11.5737 9.45151C11.2727 8.9699 10.7309 8.7291 10.1289 8.8495C9.88811 8.9097 9.6473 9.03011 9.4065 9.21071C7.54028 10.4749 5.01185 10.4147 3.14563 9.15051C3.02523 9.0903 2.90483 9.0301 2.78443 8.9699C2.12222 8.6689 1.46002 8.78931 1.09882 9.39131C0.677411 9.99332 0.737604 10.6555 1.27941 11.1973C1.39981 11.3177 1.52021 11.3779 1.58041 11.4983L1.64062 11.5585C2.48343 12.2207 3.50684 12.6421 4.83125 12.8227L4.04864 13.6054C3.38644 14.2676 2.66403 14.99 2.00183 15.6522C1.82122 15.8328 1.58041 16.1338 1.58041 16.5552C1.58041 17.097 1.88142 17.6388 2.42323 17.8796C2.60383 18 2.78443 18 2.96503 18C3.26603 18 3.62724 17.8796 3.86804 17.5786C4.77105 16.6756 5.49346 15.9532 6.21587 15.2308C6.27607 15.1706 6.27607 15.1706 6.27607 15.1706C6.27607 15.1706 6.33627 15.1706 6.33627 15.2308C6.81788 15.7726 7.35968 16.2542 7.84129 16.796C8.08209 17.0368 8.32289 17.2776 8.56369 17.5184C8.8647 17.8194 9.1055 17.9398 9.4667 17.9398C10.0085 18 10.6105 17.6388 10.8513 17.097C11.0921 16.6154 10.9717 16.0134 10.5503 15.6522C9.94831 15.0502 9.3463 14.388 8.68409 13.786L7.66068 12.7625C8.20249 12.7023 8.8045 12.5819 9.3463 12.3411C10.2493 12.0401 10.9115 11.6187 11.4533 11.0769Z" fill="#7245FF"/>
<path d="M6.27607 9.39131C8.86469 9.39131 10.9717 7.34448 10.9717 4.75585C10.9717 3.49163 10.4901 2.28763 9.5871 1.38462C8.68409 0.481607 7.54028 0 6.33627 0C3.74764 0 1.70082 2.10702 1.64062 4.63545C1.64062 5.89966 2.12222 7.04347 3.02523 7.94648C3.86804 8.90969 5.01185 9.39131 6.27607 9.39131ZM4.95165 3.37124C5.31286 3.01004 5.79446 2.82943 6.27607 2.82943C7.35968 2.82943 8.14229 3.67224 8.14229 4.69565C8.14229 5.77926 7.29948 6.56187 6.27607 6.56187C5.19245 6.56187 4.40985 5.71906 4.40985 4.69565C4.40985 4.21405 4.59045 3.73244 4.95165 3.37124Z" fill="#7245FF"/>
<path d="M11.4533 11.0769C11.8747 10.6555 11.9349 10.0535 11.5737 9.45151C11.2727 8.9699 10.7309 8.7291 10.1289 8.8495C9.88811 8.9097 9.6473 9.03011 9.4065 9.21071C7.54028 10.4749 5.01185 10.4147 3.14563 9.15051C3.02523 9.0903 2.90483 9.0301 2.78443 8.9699C2.12222 8.6689 1.46002 8.78931 1.09882 9.39131C0.677411 9.99332 0.737604 10.6555 1.27941 11.1973C1.39981 11.3177 1.52021 11.3779 1.58041 11.4983L1.64062 11.5585C2.48343 12.2207 3.50684 12.6421 4.83125 12.8227L4.04864 13.6054C3.38644 14.2676 2.66403 14.99 2.00183 15.6522C1.82122 15.8328 1.58041 16.1338 1.58041 16.5552C1.58041 17.097 1.88142 17.6388 2.42323 17.8796C2.60383 18 2.78443 18 2.96503 18C3.26603 18 3.62724 17.8796 3.86804 17.5786C4.77105 16.6756 5.49346 15.9532 6.21587 15.2308C6.27607 15.1706 6.27607 15.1706 6.27607 15.1706C6.27607 15.1706 6.33627 15.1706 6.33627 15.2308C6.81788 15.7726 7.35968 16.2542 7.84129 16.796C8.08209 17.0368 8.32289 17.2776 8.56369 17.5184C8.8647 17.8194 9.1055 17.9398 9.4667 17.9398C10.0085 18 10.6105 17.6388 10.8513 17.097C11.0921 16.6154 10.9717 16.0134 10.5503 15.6522C9.94831 15.0502 9.3463 14.388 8.68409 13.786L7.66068 12.7625C8.20249 12.7023 8.8045 12.5819 9.3463 12.3411C10.2493 12.0401 10.9115 11.6187 11.4533 11.0769Z" fill="#7245FF"/>
</svg>
