<svg width="26" height="15" viewBox="0 0 26 15" fill="none" xmlns="http://www.w3.org/2000/svg">
<path d="M25.5822 13.4589C25.5822 13.3562 25.4795 13.3562 25.4795 13.2534C25.0685 12.4315 24.1439 11.4041 22.911 10.274C22.2945 9.76028 21.9863 9.34931 21.7808 9.14384C21.4726 8.73288 21.4726 8.42467 21.5754 8.01371C21.6781 7.70549 22.0891 7.19178 22.8082 6.26712C23.2192 5.75342 23.4247 5.44521 23.7329 5.13699C25.274 3.08219 25.9932 1.74657 25.7877 1.13013L25.685 1.0274C25.5822 0.924658 25.4795 0.821921 25.274 0.821921C25.0685 0.719182 24.7603 0.719182 24.4521 0.821921H20.548C20.4452 0.821921 20.4452 0.821921 20.2397 0.821921C20.137 0.821921 20.0343 0.821921 20.0343 0.821921H19.9315H19.8288L19.726 0.924652C19.6233 1.02739 19.6233 1.02739 19.6233 1.13013C19.2123 2.26027 18.6986 3.18492 18.1849 4.21232C17.8767 4.72602 17.5685 5.23973 17.2603 5.65069C16.9521 6.06165 16.7466 6.36986 16.5411 6.57534C16.3356 6.78082 16.1301 6.88356 16.0274 7.08904C15.9247 7.19178 15.7192 7.29452 15.7192 7.19178C15.6165 7.19178 15.5137 7.19178 15.5137 7.08904C15.411 6.9863 15.3082 6.88356 15.2055 6.78082C15.1028 6.67808 15.1027 6.4726 15 6.26712C15 6.06164 15 5.85616 15 5.75342C15 5.65068 15 5.34247 15 5.13699C15 4.82877 15 4.62328 15 4.52054C15 4.21233 15 3.80138 15 3.39042C15 2.97946 15 2.67123 15 2.46575C15 2.26027 15 1.95205 15 1.74657C15 1.43835 15 1.23287 15 1.13013C15 1.02739 14.8973 0.821915 14.8973 0.719175C14.7945 0.616436 14.6918 0.513693 14.589 0.410953C14.4863 0.308213 14.2808 0.308216 14.1781 0.205476C13.6644 0.102737 13.048 0 12.3288 0C10.685 0 9.55481 0.102743 9.14385 0.308223C8.93837 0.410962 8.73289 0.513696 8.63015 0.719175C8.42467 0.924655 8.42467 1.0274 8.52741 1.0274C9.0411 1.13014 9.45207 1.33561 9.65755 1.64383L9.7603 1.84932C9.86304 1.95206 9.86302 2.15753 9.96576 2.46575C10.0685 2.77397 10.0685 3.08219 10.0685 3.49315C10.0685 4.10959 10.0685 4.72603 10.0685 5.13699C10.0685 5.65069 9.96576 5.9589 9.96576 6.26712C9.96576 6.57534 9.86304 6.78082 9.7603 6.88356C9.65756 7.08904 9.65754 7.19178 9.5548 7.19178C9.5548 7.19178 9.5548 7.29452 9.45206 7.29452C9.34932 7.29452 9.24658 7.39726 9.0411 7.39726C8.93836 7.39726 8.73289 7.29452 8.63015 7.19178C8.42467 7.08905 8.21919 6.88357 8.11645 6.67809C7.91097 6.47261 7.70549 6.16438 7.50001 5.75342C7.29453 5.34246 6.9863 4.93151 6.78082 4.31507L6.57536 3.90411C6.47262 3.69864 6.26714 3.28767 6.06166 2.77397C5.85618 2.26027 5.65069 1.84932 5.44521 1.33562C5.34247 1.13014 5.23974 1.02739 5.137 0.924652H5.03426C5.03426 0.924652 4.93151 0.821921 4.82877 0.821921C4.72603 0.821921 4.6233 0.719175 4.52056 0.719175H0.821921C0.410962 0.719175 0.205486 0.821912 0.102746 0.924652L0 1.0274C0 1.0274 0 1.13013 0 1.23287C0 1.33561 6.26921e-06 1.43835 0.102746 1.64383C0.616445 2.8767 1.23288 4.10959 1.84932 5.34247C2.46576 6.4726 3.0822 7.5 3.49316 8.21918C4.00686 8.93836 4.41781 9.65754 4.93151 10.274C5.44521 10.8904 5.75343 11.3014 5.85616 11.5069C6.06164 11.7123 6.16438 11.8151 6.26712 11.9178L6.57536 12.226C6.78084 12.4315 7.08905 12.7397 7.50001 13.0479C7.91097 13.3562 8.42466 13.6644 8.93836 13.9726C9.45206 14.2808 10.0685 14.4863 10.6849 14.6918C11.4041 14.8973 12.0206 15 12.637 14.8973H14.1781C14.4863 14.8973 14.6918 14.7945 14.8973 14.589L15 14.4863C15 14.3836 15.1027 14.3836 15.1027 14.2808C15.1027 14.1781 15.1027 14.0754 15.1027 13.8699C15.1027 13.4589 15.1028 13.1507 15.2055 12.8425C15.3082 12.5343 15.3082 12.3288 15.411 12.1233C15.5137 11.9178 15.6165 11.8151 15.7192 11.7123C15.8219 11.6096 15.9247 11.5069 15.9247 11.5069H16.0274C16.2329 11.4041 16.5411 11.5069 16.7466 11.7123C17.0548 11.9178 17.363 12.226 17.5685 12.5343C17.774 12.8425 18.0822 13.1507 18.4932 13.5616C18.9041 13.9726 19.2123 14.2808 19.4178 14.3836L19.726 14.589C19.9315 14.6918 20.137 14.7945 20.4452 14.8973C20.7534 15 20.9589 15 21.1644 15L24.6576 14.8973C24.9658 14.8973 25.274 14.7945 25.4795 14.6918C25.6849 14.5891 25.7877 14.4863 25.7877 14.2808C25.7877 14.1781 25.7877 13.9726 25.7877 13.8699C25.5822 13.6644 25.5822 13.5616 25.5822 13.4589Z" fill="#7245FF"/>
</svg>
