<svg width="43" height="43" viewBox="0 0 43 43" fill="none" xmlns="http://www.w3.org/2000/svg">
<path fill-rule="evenodd" clip-rule="evenodd" d="M34.2728 23.7042C33.4227 21.8351 32.2487 20.0241 30.7643 18.3291C28.9696 16.2667 27.1817 14.8875 26.2708 14.2495L29.7118 8.1526C29.8805 7.84969 29.8265 7.47588 29.5634 7.23742C28.6728 6.40603 27.7282 6 26.6757 6C25.7108 6 24.827 6.34802 24.0578 6.65738L23.9947 6.68218C23.4109 6.91167 22.861 7.12786 22.4116 7.12786C22.2699 7.12786 22.1484 7.10852 22.027 7.06341C20.4212 6.5027 19.1865 6.15468 17.9923 6.15468C16.481 6.15468 15.1923 6.73472 13.9306 7.97214C13.6675 8.22994 13.627 8.63597 13.8361 8.93888L17.547 14.2946C16.6294 14.9455 14.8752 16.3119 13.1142 18.3291C11.6366 20.0241 10.4559 21.8351 9.60578 23.7042C8.53976 26.0565 8 28.5121 8 30.9998C8 34.306 10.8202 37 14.2814 37H29.5971C33.0583 37 35.8786 34.306 35.8786 30.9998C35.8786 28.5121 35.3388 26.0565 34.2728 23.7042ZM15.5634 8.61644C16.346 7.97195 17.0949 7.68837 17.9923 7.68837C18.9503 7.68837 20.0299 7.99772 21.467 8.50687C21.7638 8.60999 22.0809 8.66155 22.4048 8.66155C23.1942 8.66155 23.9499 8.36508 24.6718 8.07506L24.6764 8.07324L24.6764 8.07323C25.3696 7.79677 26.0293 7.53369 26.6689 7.53369C26.9793 7.53369 27.4178 7.58525 27.9711 7.95906L24.7325 13.7079H19.092L15.5634 8.61644ZM14.2814 35.4532H29.5971C32.1677 35.4532 34.2593 33.4553 34.2458 30.9998C34.2458 26.8622 32.667 22.9501 29.5431 19.3538C27.573 17.0788 25.5759 15.6609 24.9619 15.2549H18.9031C18.2959 15.6674 16.292 17.0788 14.3219 19.3538C11.2048 22.9501 9.61928 26.8686 9.61928 30.9998C9.61928 33.4553 11.7108 35.4532 14.2814 35.4532Z" fill="#994EF0"/>
<path d="M30.7643 18.3291L30.7606 18.3324L30.7606 18.3324L30.7643 18.3291ZM34.2728 23.7042L34.2773 23.7021L34.2773 23.7021L34.2728 23.7042ZM26.2708 14.2495L26.226 14.2242L26.268 14.2536L26.2708 14.2495ZM29.7118 8.1526L29.7162 8.15506L29.7162 8.15503L29.7118 8.1526ZM29.5634 7.23742L29.56 7.24108L29.56 7.24113L29.5634 7.23742ZM24.0578 6.65738L24.0597 6.66203L24.0597 6.66202L24.0578 6.65738ZM23.9947 6.68218L23.9929 6.67752V6.67752L23.9947 6.68218ZM22.027 7.06341L22.0287 7.05872L22.0286 7.05869L22.027 7.06341ZM13.9306 7.97214L13.9341 7.97571L13.9341 7.97571L13.9306 7.97214ZM13.8361 8.93888L13.832 8.94172L13.832 8.94173L13.8361 8.93888ZM17.547 14.2946L17.8082 14.6628L17.5511 14.2917L17.547 14.2946ZM13.1142 18.3291L13.1105 18.3258L13.1104 18.3258L13.1142 18.3291ZM9.60578 23.7042L9.60123 23.7021L9.60123 23.7021L9.60578 23.7042ZM15.5634 8.61644L15.5249 8.56979L15.5592 8.61928L15.5634 8.61644ZM21.467 8.50687L21.4653 8.51159L21.4653 8.5116L21.467 8.50687ZM24.6718 8.07506L24.6699 8.07042L24.6699 8.07042L24.6718 8.07506ZM24.6764 8.07324L24.6782 8.07788L24.6783 8.07785L24.6764 8.07324ZM24.6764 8.07323L24.6745 8.06859L24.6745 8.06862L24.6764 8.07323ZM27.9711 7.95906L28.0248 7.98932L27.9739 7.95491L27.9711 7.95906ZM24.7325 13.7079V13.7181L24.7369 13.7104L24.7325 13.7079ZM19.092 13.7079L19.0848 13.7129H19.092V13.7079ZM34.2458 30.9998H34.2408V30.9998L34.2458 30.9998ZM29.5431 19.3538L29.5394 19.3571L29.5394 19.3571L29.5431 19.3538ZM24.9619 15.2549L24.9652 15.2499H24.9619V15.2549ZM18.9031 15.2549V15.2488L18.9003 15.2507L18.9031 15.2549ZM14.3219 19.3538L14.3257 19.3571L14.3257 19.3571L14.3219 19.3538ZM30.7606 18.3324C32.2446 20.0271 33.4183 21.8377 34.2682 23.7062L34.2773 23.7021C33.427 21.8326 32.2527 20.0212 30.7681 18.3258L30.7606 18.3324ZM26.268 14.2536C27.1786 14.8915 28.9662 16.2704 30.7606 18.3324L30.7681 18.3258C28.9731 16.2631 27.1848 14.8836 26.2737 14.2454L26.268 14.2536ZM29.7075 8.15014L26.2665 14.247L26.2752 14.2519L29.7162 8.15506L29.7075 8.15014ZM29.56 7.24113C29.8214 7.47798 29.875 7.84923 29.7074 8.15017L29.7162 8.15503C29.886 7.85014 29.8316 7.47378 29.5667 7.23372L29.56 7.24113ZM26.6757 6.005C27.7267 6.005 28.6701 6.4104 29.56 7.24108L29.5668 7.23377C28.6754 6.40166 27.7297 5.995 26.6757 5.995V6.005ZM24.0597 6.66202C24.8289 6.35263 25.7119 6.005 26.6757 6.005V5.995C25.7097 5.995 24.825 6.34342 24.056 6.65274L24.0597 6.66202ZM23.9966 6.68683L24.0597 6.66203L24.056 6.65273L23.9929 6.67752L23.9966 6.68683ZM22.4116 7.13286C22.637 7.13286 22.8874 7.07865 23.1542 6.99585C23.4211 6.91305 23.7047 6.80156 23.9966 6.68683L23.9929 6.67752C23.701 6.79229 23.4177 6.90363 23.1513 6.9863C22.8848 7.06898 22.6355 7.12286 22.4116 7.12286V7.13286ZM22.0252 7.0681C22.1473 7.11345 22.2694 7.13286 22.4116 7.13286V7.12286C22.2704 7.12286 22.1495 7.1036 22.0287 7.05872L22.0252 7.0681ZM17.9923 6.15968C19.1856 6.15968 20.4196 6.50743 22.0253 7.06813L22.0286 7.05869C20.4228 6.49797 19.1874 6.14968 17.9923 6.14968V6.15968ZM13.9341 7.97571C15.195 6.73903 16.4825 6.15968 17.9923 6.15968V6.14968C16.4794 6.14968 15.1895 6.73041 13.9271 7.96857L13.9341 7.97571ZM13.8403 8.93604C13.6325 8.63514 13.6727 8.23182 13.9341 7.97571L13.9271 7.96857C13.6622 8.22805 13.6215 8.63679 13.832 8.94172L13.8403 8.93604ZM17.5511 14.2917L13.8403 8.93603L13.832 8.94173L17.5429 14.2974L17.5511 14.2917ZM13.118 18.3324C14.8786 16.3155 16.6325 14.9495 17.5499 14.2987L17.5441 14.2905C16.6263 14.9416 14.8717 16.3082 13.1105 18.3258L13.118 18.3324ZM9.61033 23.7062C10.4602 21.8377 11.6407 20.0271 13.118 18.3324L13.1104 18.3258C11.6326 20.0212 10.4516 21.8326 9.60123 23.7021L9.61033 23.7062ZM8.005 30.9998C8.005 28.5128 8.5446 26.058 9.61034 23.7062L9.60123 23.7021C8.53492 26.0551 7.995 28.5113 7.995 30.9998H8.005ZM14.2814 36.995C10.8228 36.995 8.005 34.3031 8.005 30.9998H7.995C7.995 34.309 10.8177 37.005 14.2814 37.005V36.995ZM29.5971 36.995H14.2814V37.005H29.5971V36.995ZM35.8736 30.9998C35.8736 34.3031 33.0558 36.995 29.5971 36.995V37.005C33.0609 37.005 35.8836 34.309 35.8836 30.9998H35.8736ZM34.2682 23.7062C35.334 26.058 35.8736 28.5128 35.8736 30.9998H35.8836C35.8836 28.5113 35.3436 26.0551 34.2773 23.7021L34.2682 23.7062ZM17.9923 7.68337C17.0936 7.68337 16.3436 7.96744 15.5602 8.61258L15.5665 8.6203C16.3484 7.97645 17.0962 7.69337 17.9923 7.69337V7.68337ZM21.4686 8.50216C20.0316 7.99302 18.9513 7.68337 17.9923 7.68337V7.69337C18.9494 7.69337 20.0282 8.00243 21.4653 8.51159L21.4686 8.50216ZM22.4048 8.65655C22.0815 8.65655 21.7649 8.60508 21.4686 8.50215L21.4653 8.5116C21.7628 8.61491 22.0804 8.66655 22.4048 8.66655V8.65655ZM24.6699 8.07042C23.9479 8.3605 23.1931 8.65655 22.4048 8.65655V8.66655C23.1953 8.66655 23.9519 8.36967 24.6737 8.0797L24.6699 8.07042ZM24.6745 8.0686L24.6699 8.07042L24.6736 8.07971L24.6782 8.07788L24.6745 8.0686ZM24.6745 8.06862L24.6744 8.06862L24.6783 8.07785L24.6783 8.07785L24.6745 8.06862ZM26.6689 7.52869C26.0282 7.52869 25.3675 7.79222 24.6745 8.06859L24.6782 8.07788C25.3717 7.80132 26.0305 7.53869 26.6689 7.53869V7.52869ZM27.9739 7.95491C27.4196 7.58044 26.98 7.52869 26.6689 7.52869V7.53869C26.9785 7.53869 27.416 7.59006 27.9683 7.9632L27.9739 7.95491ZM24.7369 13.7104L27.9754 7.96151L27.9667 7.9566L24.7282 13.7055L24.7369 13.7104ZM19.092 13.7129H24.7325V13.7029H19.092V13.7129ZM15.5592 8.61928L19.0879 13.7108L19.0961 13.7051L15.5675 8.61359L15.5592 8.61928ZM29.5971 35.4482H14.2814V35.4582H29.5971V35.4482ZM34.2408 30.9998C34.2543 33.4523 32.1652 35.4482 29.5971 35.4482V35.4582C32.1702 35.4582 34.2643 33.4583 34.2508 30.9998L34.2408 30.9998ZM29.5394 19.3571C32.6625 22.9526 34.2408 26.8635 34.2408 30.9998H34.2508C34.2508 26.8608 32.6714 22.9476 29.5469 19.3506L29.5394 19.3571ZM24.9592 15.2591C25.5729 15.6649 27.5696 17.0825 29.5394 19.3571L29.5469 19.3506C27.5764 17.0751 25.5789 15.6569 24.9647 15.2507L24.9592 15.2591ZM18.9031 15.2599H24.9619V15.2499H18.9031V15.2599ZM14.3257 19.3571C16.2954 17.0825 18.2989 15.6714 18.9059 15.259L18.9003 15.2507C18.2929 15.6633 16.2887 17.0751 14.3181 19.3506L14.3257 19.3571ZM9.62428 30.9998C9.62428 26.87 11.2093 22.9526 14.3257 19.3571L14.3181 19.3506C11.2004 22.9476 9.61428 26.8672 9.61428 30.9998H9.62428ZM14.2814 35.4482C11.7134 35.4482 9.62428 33.4523 9.62428 30.9998H9.61428C9.61428 33.4583 11.7083 35.4582 14.2814 35.4582V35.4482Z" fill="#994EF0"/>
<path fill-rule="evenodd" clip-rule="evenodd" d="M19.9393 21H23.9393C25.0421 21 25.9393 21.8972 25.9393 23C25.9393 24.1045 25.0441 25 23.9393 25H19.9393V21ZM23.9393 26C25.5966 26 26.9393 24.6575 26.9393 23C26.9393 21.3458 25.5935 20 23.9393 20H19.4393C19.1632 20 18.9393 20.2239 18.9393 20.5V25H18.4393C18.1632 25 17.9393 25.2239 17.9393 25.5C17.9393 25.7761 18.1632 26 18.4393 26H18.9393V28H18.4393C18.1632 28 17.9393 28.2239 17.9393 28.5C17.9393 28.7761 18.1632 29 18.4393 29H18.9393V31.5C18.9393 31.7761 19.1632 32 19.4393 32C19.7154 32 19.9393 31.7761 19.9393 31.5V29H23.4393C23.7154 29 23.9393 28.7761 23.9393 28.5C23.9393 28.2239 23.7154 28 23.4393 28H19.9393V26H23.9393Z" fill="#994EF0"/>
<path d="M19.9393 21V20.8H19.7393V21H19.9393ZM19.9393 25H19.7393V25.2H19.9393V25ZM18.9393 25V25.2H19.1393V25H18.9393ZM18.9393 26H19.1393V25.8H18.9393V26ZM18.9393 28V28.2H19.1393V28H18.9393ZM18.9393 29H19.1393V28.8H18.9393V29ZM19.9393 29V28.8H19.7393V29H19.9393ZM19.9393 28H19.7393V28.2H19.9393V28ZM19.9393 26V25.8H19.7393V26H19.9393ZM19.9393 21.2H23.9393V20.8H19.9393V21.2ZM23.9393 21.2C24.9316 21.2 25.7393 22.0077 25.7393 23H26.1393C26.1393 21.7867 25.1525 20.8 23.9393 20.8V21.2ZM25.7393 23C25.7393 23.9941 24.9336 24.8 23.9393 24.8V25.2C25.1545 25.2 26.1393 24.215 26.1393 23H25.7393ZM23.9393 24.8H19.9393V25.2H23.9393V24.8ZM20.1393 25V21H19.7393V25H20.1393ZM23.9393 26.2C25.707 26.2 27.1393 24.768 27.1393 23H26.7393C26.7393 24.5471 25.4861 25.8 23.9393 25.8V26.2ZM27.1393 23C27.1393 21.2353 25.7039 19.8 23.9393 19.8V20.2C25.483 20.2 26.7393 21.4563 26.7393 23H27.1393ZM23.9393 19.8H19.4393V20.2H23.9393V19.8ZM19.4393 19.8C19.0527 19.8 18.7393 20.1134 18.7393 20.5H19.1393C19.1393 20.3343 19.2736 20.2 19.4393 20.2V19.8ZM18.7393 20.5V25H19.1393V20.5H18.7393ZM18.9393 24.8H18.4393V25.2H18.9393V24.8ZM18.4393 24.8C18.0527 24.8 17.7393 25.1134 17.7393 25.5H18.1393C18.1393 25.3343 18.2736 25.2 18.4393 25.2V24.8ZM17.7393 25.5C17.7393 25.8866 18.0527 26.2 18.4393 26.2V25.8C18.2736 25.8 18.1393 25.6657 18.1393 25.5H17.7393ZM18.4393 26.2H18.9393V25.8H18.4393V26.2ZM18.7393 26V28H19.1393V26H18.7393ZM18.9393 27.8H18.4393V28.2H18.9393V27.8ZM18.4393 27.8C18.0527 27.8 17.7393 28.1134 17.7393 28.5H18.1393C18.1393 28.3343 18.2736 28.2 18.4393 28.2V27.8ZM17.7393 28.5C17.7393 28.8866 18.0527 29.2 18.4393 29.2V28.8C18.2736 28.8 18.1393 28.6657 18.1393 28.5H17.7393ZM18.4393 29.2H18.9393V28.8H18.4393V29.2ZM18.7393 29V31.5H19.1393V29H18.7393ZM18.7393 31.5C18.7393 31.8866 19.0527 32.2 19.4393 32.2V31.8C19.2736 31.8 19.1393 31.6657 19.1393 31.5H18.7393ZM19.4393 32.2C19.8258 32.2 20.1393 31.8866 20.1393 31.5H19.7393C19.7393 31.6657 19.6049 31.8 19.4393 31.8V32.2ZM20.1393 31.5V29H19.7393V31.5H20.1393ZM19.9393 29.2H23.4393V28.8H19.9393V29.2ZM23.4393 29.2C23.8258 29.2 24.1393 28.8866 24.1393 28.5H23.7393C23.7393 28.6657 23.6049 28.8 23.4393 28.8V29.2ZM24.1393 28.5C24.1393 28.1134 23.8258 27.8 23.4393 27.8V28.2C23.6049 28.2 23.7393 28.3343 23.7393 28.5H24.1393ZM23.4393 27.8H19.9393V28.2H23.4393V27.8ZM20.1393 28V26H19.7393V28H20.1393ZM19.9393 26.2H23.9393V25.8H19.9393V26.2Z" fill="#994EF0"/>
</svg>
