<svg width="43" height="43" viewBox="0 0 43 43" fill="none" xmlns="http://www.w3.org/2000/svg">
<path d="M40.9593 13.8659C40.7273 13.4643 40.2137 13.3267 39.812 13.5587C39.4103 13.7908 39.2728 14.3044 39.5048 14.7061C40.6925 16.762 41.3203 19.1114 41.3203 21.5001C41.3203 29.0005 35.2184 35.1023 27.7181 35.1023C20.2178 35.1023 14.1159 29.0005 14.1159 21.5001C14.1159 13.9998 20.2178 7.89795 27.7181 7.89795C30.1074 7.89795 32.4571 8.52598 34.513 9.71394C34.9146 9.94633 35.4283 9.80851 35.6604 9.40698C35.8925 9.00545 35.755 8.49172 35.3534 8.25967C33.0422 6.92423 30.4021 6.21826 27.7181 6.21826C23.8071 6.21826 20.2352 7.69571 17.5294 10.1209H8.0625C7.59874 10.1209 7.22266 10.497 7.22266 10.9608C7.22266 11.4245 7.59874 11.8006 8.0625 11.8006H15.9177C15.0282 12.8809 14.2846 14.0853 13.7155 15.3831H9.20931C8.74555 15.3831 8.36946 15.7591 8.36946 16.2229C8.36946 16.6867 8.74555 17.0627 9.20931 17.0627H13.094C12.7449 18.2111 12.5274 19.416 12.4596 20.6603H5.20485C4.74109 20.6603 4.36501 21.0364 4.36501 21.5001C4.36501 21.9639 4.74109 22.34 5.20485 22.34H12.4597C12.5274 23.5843 12.745 24.7892 13.0941 25.9375H9.49024C9.02647 25.9375 8.65039 26.3136 8.65039 26.7774C8.65039 27.2411 9.02647 27.6172 9.49024 27.6172H13.7155C14.2846 28.915 15.0282 30.1194 15.9177 31.1997H7.5418C7.07804 31.1997 6.70196 31.5757 6.70196 32.0395C6.70196 32.5033 7.07804 32.8794 7.5418 32.8794H17.5295C20.2353 35.3046 23.8072 36.782 27.7182 36.782C36.1446 36.782 43 29.9266 43 21.5001C43 18.8168 42.2944 16.1768 40.9593 13.8659Z" fill="#994EF0"/>
<path d="M37.9318 12.1265C38.1468 12.1265 38.3616 12.0445 38.5257 11.8805L38.535 11.8712C38.8629 11.5432 38.8629 11.0114 38.535 10.6834C38.2069 10.3555 37.6753 10.3555 37.3472 10.6834L37.3379 10.6927C37.0099 11.0207 37.0099 11.5525 37.3379 11.8805C37.502 12.0445 37.7169 12.1265 37.9318 12.1265Z" fill="#994EF0"/>
<path d="M16.1282 21.5C16.1282 27.8907 21.3274 33.0898 27.7181 33.0898C34.1088 33.0898 39.3079 27.8907 39.3079 21.5C39.3079 15.1093 34.1088 9.91016 27.7181 9.91016C21.3274 9.91016 16.1282 15.1093 16.1282 21.5ZM37.6282 21.5C37.6282 26.9644 33.1825 31.4102 27.7181 31.4102C22.2536 31.4102 17.8079 26.9644 17.8079 21.5C17.8079 16.0356 22.2536 11.5898 27.7181 11.5898C33.1825 11.5898 37.6282 16.0356 37.6282 21.5Z" fill="#994EF0"/>
<path d="M26.8783 14.724V15.4149C26.7668 15.4381 26.6543 15.4657 26.5403 15.5C25.4391 15.8308 24.6162 16.7717 24.3926 17.9553C24.188 19.0386 24.5369 20.0848 25.3029 20.6858C25.7022 20.9989 26.1983 21.2851 26.8784 21.587V25.8769C26.3115 25.8312 25.9446 25.6885 25.3252 25.2833C24.9372 25.0295 24.4166 25.1382 24.1626 25.5264C23.9088 25.9145 24.0174 26.435 24.4057 26.689C25.3708 27.3203 26.031 27.5113 26.8784 27.561V28.2762C26.8784 28.7399 27.2544 29.116 27.7182 29.116C28.182 29.116 28.5581 28.7399 28.5581 28.2762V27.4656C30.1302 27.0802 31.1384 25.7434 31.36 24.4252C31.6467 22.7194 30.7552 21.2368 29.0887 20.6476C28.9141 20.5859 28.7361 20.5217 28.5581 20.4555V17.157C29.0045 17.3048 29.298 17.5132 29.3123 17.5236C29.6819 17.8 30.2056 17.7264 30.4847 17.3581C30.7647 16.9884 30.6922 16.4616 30.3224 16.1815C30.2777 16.1477 29.5832 15.6325 28.558 15.4206V14.7241C28.558 14.2604 28.1819 13.8843 27.7181 13.8843C27.2544 13.8843 26.8783 14.2603 26.8783 14.724ZM29.7035 24.1465C29.603 24.7448 29.2144 25.3775 28.558 25.6927V22.2424C29.8376 22.712 29.7589 23.8169 29.7035 24.1465ZM26.3394 19.364C26.073 19.1551 25.9567 18.7245 26.0431 18.2669C26.1196 17.8619 26.3791 17.3792 26.8783 17.1628V19.7149C26.6766 19.6022 26.494 19.4852 26.3394 19.364Z" fill="#994EF0"/>
<path d="M5.151 25.9375H1.94078C1.47702 25.9375 1.10094 26.3136 1.10094 26.7773C1.10094 27.2411 1.47702 27.6172 1.94078 27.6172H5.151C5.61476 27.6172 5.99084 27.2411 5.99084 26.7773C5.99084 26.3136 5.61476 25.9375 5.151 25.9375Z" fill="#994EF0"/>
<path d="M1.67969 21.5C1.67969 21.2791 1.58982 21.0624 1.43353 20.9062C1.2774 20.7499 1.06072 20.6602 0.839844 20.6602C0.618965 20.6602 0.402285 20.7499 0.246074 20.9062C0.0898633 21.0625 0 21.2791 0 21.5C0 21.7209 0.0897793 21.9376 0.246074 22.0937C0.402285 22.25 0.618965 22.3398 0.839844 22.3398C1.06072 22.3398 1.2774 22.25 1.43353 22.0937C1.58982 21.9376 1.67969 21.7209 1.67969 21.5Z" fill="#994EF0"/>
<path d="M1.94078 17.0625H5.151C5.61476 17.0625 5.99084 16.6864 5.99084 16.2227C5.99084 15.7589 5.61476 15.3828 5.151 15.3828H1.94078C1.47702 15.3828 1.10094 15.7589 1.10094 16.2227C1.10094 16.6864 1.47702 17.0625 1.94078 17.0625Z" fill="#994EF0"/>
</svg>
