<svg width="43" height="43" viewBox="0 0 43 43" fill="none" xmlns="http://www.w3.org/2000/svg">
<path d="M34.5574 24.4984C34.5574 31.4029 28.9762 37 22.0915 37C15.2068 37 9.62561 31.4029 9.62561 24.4984M34.5574 24.4984C34.9075 18.0464 33.5922 12.1062 27.8384 10.8214C21.5411 4.86546 17.359 5.89093 9 13.7625C9.7531 15.1238 9.62573 19.4979 9.62561 24.4984M34.5574 24.4984C34.5574 19.9097 32.0921 15.8983 28.4173 13.7238C27.1433 15.9916 23.1752 16.6975 17.3203 15.808C12.4763 15.0721 9.62561 24.4984 9.62561 24.4984" stroke="#7A49D2" stroke-width="2" stroke-miterlimit="10"/>
<path d="M18.3704 25.1251C19.0603 25.1251 19.6196 24.5654 19.6196 23.8751C19.6196 23.1847 19.0603 22.6251 18.3704 22.6251C17.6804 22.6251 17.1211 23.1847 17.1211 23.8751C17.1211 24.5654 17.6804 25.1251 18.3704 25.1251Z" fill="#7A49D2"/>
<path d="M25.2395 25.1251C25.9295 25.1251 26.4887 24.5654 26.4887 23.8751C26.4887 23.1847 25.9295 22.6251 25.2395 22.6251C24.5495 22.6251 23.9902 23.1847 23.9902 23.8751C23.9902 24.5654 24.5495 25.1251 25.2395 25.1251Z" fill="#7A49D2"/>
<path d="M17.1211 28.2501C17.4334 28.5626 19.3073 30.2501 22.1181 30.1251C24.5542 30.0001 26.1157 28.6251 26.4905 28.2501" stroke="#7A49D2" stroke-width="2" stroke-miterlimit="10"/>
</svg>
