<svg xmlns="http://www.w3.org/2000/svg" width="80" height="80" fill="none"><path fill="#0039A6" d="M0 0h80v80H0z"></path><path fill="#fff" fill-opacity=".9" d="M0 0h80v80H0z"></path><path d="M36.6 20.8a5.8 5.8 0 01-2.1 2l-16.7 29a5.8 5.8 0 0010 5.8l11.7-20.3-5-8.6a5.8 5.8 0 012.1-8z" fill="#00A1DE"></path><path d="M61.2 51.8l-16.7-29a5.8 5.8 0 000 5.9l-5 8.6 11.7 20.3a5.8 5.8 0 1010-5.8z" fill="#0039A6"></path><path d="M42.4 20.8c-.9-.5-1.8-.8-2.7-.8h-.2-.1c-1 0-2 .3-2.8.8a5.8 5.8 0 00-2.1 7.9l5 8.6 5-8.6c1.6-2.8.6-6.3-2.1-8z" fill="#002C77"></path><path d="M45.4 54.8a6 6 0 11-11.8 0 6 6 0 0111.8 0z" fill="#EEAF30"></path></svg>
