<svg width="39" height="39" viewBox="0 0 39 39" fill="none" xmlns="http://www.w3.org/2000/svg">
<g clip-path="url(#clip0_2265_9030)">
<path d="M28.8517 15.9476C28.7691 15.7767 28.7337 15.5864 28.7494 15.3974L29.2986 8.75932C29.3604 8.01223 29.0837 7.28804 28.5396 6.77241C27.9956 6.25679 27.2569 6.01955 26.5149 6.12117C25.9436 6.19951 25.3908 6.38594 24.8898 6.66692C24.8502 6.61268 24.8095 6.55914 24.766 6.50718C23.7322 5.27383 21.888 5.11129 20.6548 6.14459L16.1876 9.88329V9.04691C16.1876 8.98454 16.2061 8.92445 16.2413 8.87295L17.1679 7.51714C17.3456 7.25701 17.2788 6.90202 17.0187 6.72427C16.7584 6.54636 16.4035 6.61329 16.2258 6.87342L15.2993 8.22924C15.134 8.47112 15.0466 8.75384 15.0466 9.04691V10.8382L11.4915 13.8136V8.44046C11.4915 7.8255 11.6749 7.23206 12.0219 6.72434L15.2848 1.94915C15.5527 1.55712 15.9572 1.29288 16.4238 1.2051C16.8905 1.11733 17.3633 1.21644 17.7554 1.4844C18.1474 1.75222 18.4116 2.1568 18.4994 2.62344C18.5872 3.09001 18.4881 3.56296 18.2202 3.95491L17.6215 4.83115C17.4437 5.09136 17.5106 5.44627 17.7707 5.62402C18.0306 5.80178 18.3858 5.73492 18.5635 5.47487L19.1621 4.59863C19.6019 3.95499 19.7648 3.17862 19.6206 2.41252C19.4765 1.64642 19.0426 0.982165 18.399 0.542372C17.7554 0.102579 16.9791 -0.0602705 16.2128 0.0838677C15.4467 0.228006 14.7825 0.661866 14.3428 1.30551L11.0798 6.0807C10.6028 6.77896 10.3505 7.59495 10.3505 8.44054V14.7685L8.6396 16.2004C7.4099 17.2296 6.75082 18.7985 6.87655 20.3971L7.23975 25.0145C7.26325 25.3135 7.51304 25.5404 7.80785 25.5403C7.82284 25.5403 7.83798 25.5397 7.85319 25.5385C8.16725 25.5139 8.4019 25.2391 8.37718 24.9252L8.01398 20.3077C7.91716 19.0764 8.4248 17.8681 9.37193 17.0754L21.3873 7.01939C22.1385 6.38982 23.262 6.48885 23.8916 7.24005C24.521 7.99131 24.4221 9.11468 23.6708 9.74425L17.4163 14.9858C17.0278 15.0797 16.6558 15.2666 16.3335 15.547L13.2764 18.208C13.0387 18.4149 13.0138 18.7752 13.2206 19.0128C13.4275 19.2504 13.7877 19.2753 14.0255 19.0686L17.0826 16.4076C17.6143 15.9446 18.39 15.9402 18.9271 16.397L23.5508 20.3298C23.9125 20.6375 24.1327 21.0676 24.1709 21.5408C24.2091 22.0142 24.0607 22.474 23.753 22.8356C23.5281 23.1 23.2309 23.2901 22.9013 23.3873L19.6664 20.6358C18.6961 19.8104 17.2944 19.8185 16.3335 20.6548L13.2764 23.3158C13.0388 23.5226 13.0139 23.883 13.2207 24.1206C13.4276 24.3583 13.7878 24.3831 14.0256 24.1763L17.0827 21.5154C17.6143 21.0524 18.3901 21.0479 18.9272 21.5048L23.5509 25.4376C23.9125 25.7453 24.1327 26.1753 24.1709 26.6486C24.2092 27.1219 24.0608 27.5817 23.7531 27.9433C23.4455 28.305 23.0155 28.5252 22.5422 28.5634C22.0683 28.6015 21.609 28.4532 21.2475 28.1456L18.3854 25.7111C18.1589 25.5184 17.8226 25.5321 17.6124 25.7422L16.763 26.5916C16.5402 26.8145 16.5402 27.1756 16.763 27.3984C16.9858 27.6211 17.347 27.6211 17.5697 27.3984L18.047 26.9211L20.5081 29.0146C21.0407 29.4676 21.7028 29.7102 22.3943 29.7102C22.4738 29.7102 22.5538 29.707 22.6339 29.7005C23.4109 29.6378 24.117 29.2762 24.6221 28.6824C25.1273 28.0886 25.3709 27.3337 25.3081 26.5566C25.2455 25.7796 24.8839 25.0735 24.29 24.5684L23.8648 24.2067C24.149 24.0415 24.406 23.8287 24.6221 23.5746C25.6648 22.3488 25.5159 20.5033 24.29 19.4605L22.2401 17.7169L23.4791 11.3933L24.4038 10.6184C25.0012 10.1177 25.368 9.41429 25.4365 8.63769C25.4643 8.32158 25.4405 8.00904 25.3697 7.70889C25.7669 7.47196 26.21 7.31428 26.67 7.2513C27.0678 7.19654 27.4634 7.32394 27.755 7.60028C28.0465 7.87661 28.1948 8.26461 28.1617 8.665L27.6124 15.303C27.58 15.6951 27.6534 16.0897 27.8247 16.444L28.8405 18.5449C30.1205 21.1921 30.1637 24.2487 28.9593 26.9312L28.3061 28.3858C28.1771 28.6732 28.3055 29.0109 28.5929 29.1399C28.6688 29.1739 28.7481 29.1901 28.8263 29.1901C29.0439 29.1901 29.252 29.0647 29.347 28.8531L30.0001 27.3985C31.3431 24.4078 31.2948 20.9997 29.8678 18.0482L28.8517 15.9476ZM21.2434 16.8695L19.6662 15.528C19.4678 15.3592 19.2511 15.2259 19.0241 15.1268L22.0878 12.5594L21.2434 16.8695Z" fill="#6A2BE3" stroke="#6A2BE3" stroke-width="0.5"/>
<path d="M28.0591 30.3288C27.7716 30.1998 27.4341 30.3279 27.305 30.6155L25.844 33.8691C25.811 33.9426 25.7939 34.0222 25.7939 34.1027V38.4296C25.7939 38.7448 26.0493 39.0001 26.3644 39.0001C26.6795 39.0001 26.9349 38.7448 26.9349 38.4296V34.225L28.3458 31.0828C28.4749 30.7955 28.3464 30.4578 28.0591 30.3288Z" fill="#6A2BE3" stroke="#6A2BE3" stroke-width="0.5"/>
<path d="M24.7472 3.55014C25.0624 3.55014 25.3177 3.29479 25.3177 2.97967V0.570468C25.3177 0.255341 25.0624 0 24.7472 0C24.4321 0 24.1768 0.255341 24.1768 0.570468V2.97967C24.1768 3.29472 24.4322 3.55014 24.7472 3.55014Z" fill="#6A2BE3" stroke="#6A2BE3" stroke-width="0.5"/>
<path d="M27.1826 4.11744C27.2705 4.16642 27.3657 4.18954 27.4597 4.18954C27.66 4.18954 27.8543 4.08389 27.9587 3.89655L29.1309 1.79175C29.2841 1.51648 29.1852 1.16903 28.91 1.01576C28.6348 0.862499 28.2873 0.96138 28.1341 1.23657L26.9619 3.34137C26.8085 3.61672 26.9074 3.96409 27.1826 4.11744V4.11744Z" fill="#6A2BE3" stroke="#6A2BE3" stroke-width="0.5"/>
<path d="M32.0529 3.92906C31.887 3.66125 31.5356 3.57864 31.2676 3.74446L29.2194 5.01295C28.9516 5.17884 28.8689 5.53048 29.0348 5.79829C29.1427 5.97255 29.3293 6.06847 29.5203 6.06847C29.6228 6.06847 29.7266 6.04086 29.8201 5.9829L31.8683 4.71441C32.1362 4.54859 32.2189 4.19695 32.0529 3.92906V3.92906Z" fill="#6A2BE3" stroke="#6A2BE3" stroke-width="0.5"/>
<path d="M10.2298 31.2306C9.33512 30.1062 8.76382 28.7571 8.57762 27.3292C8.53685 27.0169 8.25093 26.7972 7.93816 26.8372C7.62577 26.878 7.4055 27.1643 7.44627 27.4767C7.65924 29.1104 8.31307 30.6542 9.33702 31.9409L11.6907 34.8989V38.3924C11.6907 38.7075 11.9461 38.9629 12.2612 38.9629C12.5762 38.9629 12.8316 38.7075 12.8316 38.3924V34.6996C12.8316 34.5706 12.7879 34.4454 12.7076 34.3444L10.2298 31.2306Z" fill="#6A2BE3" stroke="#6A2BE3" stroke-width="0.5"/>
</g>
<defs>
<clipPath id="clip0_2265_9030">
<rect width="39" height="39" fill="white"/>
</clipPath>
</defs>
</svg>
