<svg width="39" height="39" viewBox="0 0 39 39" fill="none" xmlns="http://www.w3.org/2000/svg">
<path d="M30.505 15.9571C31.3866 15.0937 31.9 13.9142 31.9 12.65C31.9 10.0861 29.8142 8 27.25 8C26.4028 8 25.5693 8.23286 24.8387 8.67358C24.5945 8.8212 24.5158 9.13852 24.6631 9.38301C24.8104 9.6275 25.1283 9.70542 25.3726 9.5586C25.9422 9.21499 26.5911 9.03335 27.25 9.03335C29.244 9.03335 30.8666 10.6558 30.8666 12.65C30.8666 13.8781 30.2516 15.0101 29.2193 15.6796C28.3524 16.2482 27.2535 16.4122 26.2499 16.1264C25.9785 16.0481 25.6899 16.2066 25.6112 16.481C25.5329 16.7555 25.6919 17.0413 25.9664 17.1198C26.3842 17.2394 26.8161 17.2999 27.25 17.2999C28.0624 17.2999 28.8477 17.0783 29.5449 16.6781C32.1972 17.6392 33.9666 20.1433 33.9666 22.9833V25.5666H29.2554C28.8894 22.1157 26.7183 19.0959 23.5516 17.6619C24.5593 16.6359 25.1833 15.2317 25.1833 13.6834C25.1834 10.5495 22.6338 8 19.5 8C16.3662 8 13.8166 10.5495 13.8166 13.6834C13.8166 15.2322 14.441 16.6368 15.4493 17.663C14.3835 18.1472 13.3951 18.8246 12.5568 19.6581C10.9497 21.2698 9.97174 23.3384 9.7396 25.5668H5.03335V22.9834C5.03335 21.1943 5.73219 19.5073 6.99913 18.235C7.69657 17.542 8.54568 17.0133 9.45994 16.681C10.1573 17.0796 10.9402 17.3 11.75 17.3C12.1839 17.3 12.6158 17.2395 13.0336 17.1199C13.3081 17.0414 13.467 16.7556 13.3888 16.4811C13.3101 16.2066 13.0215 16.0484 12.7501 16.1264C11.747 16.4127 10.6486 16.249 9.77823 15.6784C8.74845 15.0101 8.13335 13.8781 8.13335 12.65C8.13335 10.6558 9.75601 9.03335 11.75 9.03335C12.4089 9.03335 13.0578 9.21499 13.6274 9.5586C13.8727 9.70542 14.189 9.62671 14.3369 9.38301C14.4842 9.13858 14.4055 8.8212 14.1613 8.67358C13.4307 8.23286 12.5972 8 11.75 8C9.18584 8 7.1 10.0861 7.1 12.65C7.1 13.9132 7.61253 15.0918 8.49161 15.9545C7.67223 16.3354 6.91545 16.8612 6.26851 17.5039C4.80576 18.9731 4 20.9189 4 22.9834V26.0834C4 26.3687 4.23111 26.6 4.51665 26.6H9.68329V30.7334C9.68329 31.0187 9.9144 31.25 10.1999 31.25H28.7999C29.0855 31.25 29.3166 31.0187 29.3166 30.7334V26.6H34.4832C34.7688 26.6 34.9999 26.3687 34.9999 26.0834V22.9834C35 19.9285 33.2246 17.2109 30.505 15.9571ZM14.85 13.6834C14.85 11.1194 16.9358 9.03335 19.5 9.03335C22.0642 9.03335 24.15 11.1194 24.15 13.6834C24.15 16.2473 22.0642 18.3334 19.5 18.3334C16.9358 18.3334 14.85 16.2472 14.85 13.6834ZM28.2833 30.2166H10.7166V26.6C10.7166 24.2573 11.6299 22.0512 13.2869 20.3892C14.1598 19.5209 15.218 18.8475 16.3526 18.4118C17.2544 19.014 18.3365 19.3666 19.5 19.3666C20.6654 19.3666 21.7494 19.013 22.6521 18.4089C26.0293 19.7065 28.2833 22.9623 28.2833 26.6V30.2166Z" fill="#6A2BE3" stroke="#6A2BE3" stroke-width="0.6"/>
</svg>
