<svg width="64" height="64" viewBox="0 0 64 64" fill="none" xmlns="http://www.w3.org/2000/svg">
<path opacity="0.06" fill-rule="evenodd" clip-rule="evenodd" d="M52.7971 42.4564C54.5598 47.7038 49.8223 52.8244 44.4539 51.4741L9.85994 42.7726C4.70574 41.4761 2.81962 35.1345 6.42757 31.232L29.6577 6.10559C33.2671 2.20147 39.74 3.58827 41.4332 8.62847L52.7971 42.4564Z" fill="#934AEF"/>
<g clip-path="url(#clip0_7_1666)">
<path d="M14.0071 39.5833C12.2144 39.5833 10.4635 39.5833 8.72643 39.5833C8.72643 38.2714 8.60136 36.9457 8.76812 35.6752C8.93488 34.3495 10.2967 33.5348 11.6864 33.7005C12.951 33.8386 13.9654 34.9295 14.0071 36.2276C14.0349 37.2081 14.0071 38.1885 14.021 39.169C14.0071 39.2795 14.0071 39.4037 14.0071 39.5833Z" fill="#7231E5"/>
<path d="M1.43129 53.0002C0.361266 52.5998 -0.0139379 51.8127 -4.14837e-05 50.6941C0.0416479 47.3937 0.013855 44.1071 0.013855 40.8067C0.013855 38.7491 0.416852 38.321 2.50132 38.1691C2.51522 37.9758 2.51522 37.7824 2.52911 37.5891C2.5708 36.2634 2.52911 34.9239 2.66808 33.612C2.82094 32.1621 3.57135 30.9468 4.5302 29.8697C4.71086 29.6626 4.84982 29.3312 4.84982 29.0688C4.86372 22.7027 4.86372 16.3366 4.86372 9.95674C4.86372 8.7139 5.3084 8.2582 6.54519 8.2582C8.43511 8.2582 10.325 8.2582 12.2288 8.2582C12.882 8.2582 13.2433 8.53438 13.2294 9.04533C13.2294 9.54246 12.8681 9.81865 12.2149 9.81865C10.4918 9.81865 8.78252 9.81865 7.05936 9.81865C6.86481 9.81865 6.68415 9.81865 6.46181 9.81865C6.46181 16.019 6.46181 22.1641 6.46181 28.3783C6.58688 28.3369 6.71195 28.3093 6.82312 28.254C9.86644 26.9145 13.2433 27.6326 15.4528 30.1321C15.6891 30.3945 15.9253 30.4773 16.2588 30.4773C18.9547 30.4635 21.6367 30.4773 24.3327 30.4773C24.555 30.4773 24.7912 30.4773 24.9997 30.5464C25.3888 30.6568 25.5555 30.9468 25.5277 31.3335C25.5 31.7063 25.2915 31.9411 24.9163 32.0102C24.7356 32.0378 24.5411 32.0378 24.3465 32.0378C22.0258 32.0378 19.6912 32.0378 17.3705 32.0378C17.176 32.0378 16.9953 32.0378 16.7591 32.0378C16.9258 32.7559 17.0648 33.4325 17.2594 34.1092C17.2871 34.2058 17.579 34.2611 17.7457 34.2611C19.5662 34.2749 21.3866 34.2611 23.2209 34.2611C26.1531 34.2611 29.0852 34.2611 32.0313 34.2611C32.2258 34.2611 32.4621 34.2058 32.5871 34.2887C32.8373 34.4682 33.1569 34.7168 33.1847 34.9515C33.2125 35.2001 32.9485 35.5177 32.7261 35.711C32.5871 35.8353 32.2953 35.7939 32.073 35.7939C27.3621 35.7939 22.6651 35.7939 17.9542 35.7939C17.7457 35.7939 17.5512 35.7939 17.3149 35.7939C17.3149 36.5396 17.3149 37.2439 17.3149 37.9896C17.5373 37.9896 17.7457 37.9896 17.9403 37.9896C22.6234 37.9896 27.3204 37.9896 32.0035 37.9896C32.1564 37.9896 32.3231 37.9758 32.476 37.9896C32.9207 38.0448 33.2264 38.3624 33.2125 38.7767C33.1986 39.191 32.8929 39.4948 32.4343 39.5362C32.2814 39.55 32.1286 39.5362 31.9618 39.5362C28.1264 39.5362 24.291 39.5362 20.4416 39.5362C20.2332 39.5362 20.0247 39.5362 19.7607 39.5362C19.7607 40.2819 19.7607 41 19.7607 41.7181C19.7607 41.9114 19.7607 42.1047 19.7607 42.2843C19.7329 42.7814 19.4411 43.0852 18.9825 43.0852C18.5378 43.0852 18.2182 42.7676 18.2043 42.2843C18.1765 41.5938 18.1904 40.9033 18.2043 40.2129C18.2182 39.8538 18.0931 39.7295 17.7179 39.7295C12.4929 39.7433 7.2678 39.7433 2.02884 39.7295C1.65364 39.7295 1.54247 39.8814 1.54247 40.2267C1.54247 43.8033 1.54247 47.3661 1.54247 50.9427C1.54247 51.3293 1.69533 51.4398 2.07053 51.4398C7.2678 51.426 12.4512 51.426 17.6485 51.4398C18.0653 51.4398 18.1904 51.3017 18.1904 50.9012C18.1765 49.3822 18.1765 47.8632 18.1904 46.3442C18.1904 46.1923 18.1765 46.0266 18.2043 45.8747C18.2599 45.4328 18.6073 45.1428 19.0242 45.1842C19.4689 45.2256 19.719 45.4742 19.7468 45.9161C19.7607 46.3856 19.7468 46.8413 19.7468 47.3523C26.5561 47.3523 33.3376 47.3523 40.1607 47.3523C40.1607 41.1243 40.1607 34.8825 40.1607 28.544C39.0907 29.3035 38.1874 28.834 37.3258 28.2126C35.7416 27.0664 34.1852 25.8788 32.601 24.7327C32.3926 24.5808 32.1008 24.4979 31.8506 24.4841C28.6406 24.4703 25.4305 24.4703 22.2065 24.4703C21.9842 24.4703 21.7479 24.4565 21.5395 24.3874C21.1643 24.2631 21.0114 23.9593 21.0531 23.5727C21.0948 23.1998 21.331 22.9789 21.6923 22.9375C21.8591 22.9098 22.0397 22.9236 22.2065 22.9236C24.8468 22.9236 27.4871 22.9236 30.1275 22.9236C30.3081 22.9236 30.5027 22.9236 30.7389 22.9236C30.2247 22.1779 29.7801 21.4875 29.2798 20.8384C29.1825 20.7142 28.9046 20.7004 28.71 20.7004C24.0408 20.6865 19.3716 20.7004 14.6885 20.7004C14.494 20.7004 14.2994 20.7004 14.1188 20.6865C13.7019 20.6451 13.4517 20.3966 13.4239 19.9823C13.3961 19.5404 13.6324 19.2642 14.0771 19.1813C14.2577 19.1399 14.4523 19.1537 14.6468 19.1537C19.0103 19.1537 23.3599 19.1537 27.7234 19.1537C27.9179 19.1537 28.1264 19.1537 28.3626 19.1537C28.1264 18.4494 27.9457 17.8004 27.6817 17.1928C27.6261 17.0685 27.3343 16.958 27.1536 16.958C22.9708 16.9442 18.788 16.9442 14.5912 16.9442C14.4384 16.9442 14.2716 16.958 14.1188 16.9304C13.688 16.8752 13.4239 16.6266 13.41 16.1709C13.3961 15.729 13.6602 15.4666 14.091 15.3976C14.2577 15.37 14.4384 15.3838 14.6051 15.3838C18.6212 15.3838 22.6234 15.3838 26.6395 15.3838C26.834 15.3838 27.0147 15.3838 27.1814 15.3838C27.1119 13.5195 27.0425 11.6829 26.9591 9.79103C26.7923 9.79103 26.6117 9.79103 26.431 9.79103C23.1098 9.79103 19.8024 9.79103 16.4812 9.79103C16.3283 9.79103 16.1615 9.80484 16.0087 9.79103C15.564 9.7496 15.2583 9.41818 15.2722 9.0039C15.3 8.562 15.5501 8.31344 15.9809 8.2582C16.1337 8.24439 16.2866 8.24439 16.4534 8.24439C19.7468 8.24439 23.0542 8.24439 26.3476 8.24439C26.5422 8.24439 26.7228 8.24439 27.0147 8.24439C27.0147 7.84392 27.0286 7.48488 27.0147 7.11203C26.973 6.14538 27.3899 5.48253 28.2792 5.05445C31.5032 3.48019 34.7133 1.87831 37.9095 0.276437C38.646 -0.0964135 39.313 -0.0826043 40.0356 0.276437C43.2318 1.87831 46.4141 3.46638 49.6242 5.04064C50.4997 5.46872 50.9305 6.11776 50.9166 7.08441C50.8888 9.10056 50.9305 11.1305 50.861 13.1467C50.722 18.049 48.6514 22.0122 44.8994 25.1469C44.0378 25.865 43.1346 26.5417 42.2035 27.1907C41.8144 27.4669 41.6893 27.7431 41.6893 28.1988C41.7032 34.5511 41.7032 40.9033 41.6893 47.2556C41.6893 47.5594 41.6754 47.8908 41.5782 48.167C41.3419 48.7746 40.8277 48.9679 40.2024 48.9679C36.7005 48.9679 33.1847 48.9679 29.6828 48.9679C26.5561 48.9679 23.4294 48.9679 20.3027 48.9679C20.122 48.9679 19.9275 48.9679 19.6912 48.9679C19.6912 49.5756 19.6495 50.1279 19.7051 50.6665C19.8024 51.785 19.3855 52.5722 18.3294 53.0002C12.7569 53.0002 7.08715 53.0002 1.43129 53.0002ZM28.6683 10.4263C28.6822 11.1443 28.6683 11.8762 28.6822 12.5943C28.7378 15.8257 29.5994 18.7809 31.6144 21.3632C33.5738 23.8765 36.1585 25.6441 38.8405 27.2874C38.9517 27.3564 39.188 27.3426 39.313 27.2598C41.6754 25.8236 43.9405 24.2631 45.7888 22.1918C47.7621 19.9961 49.0266 17.4276 49.249 14.4862C49.4435 12.0005 49.388 9.48722 49.4158 6.98774C49.4158 6.80822 49.2351 6.54585 49.0544 6.44918C45.8444 4.8335 42.6204 3.23162 39.3825 1.64356C39.2019 1.5607 38.8961 1.5607 38.7155 1.64356C35.4915 3.21781 32.2953 4.81969 29.0713 6.40776C28.7656 6.55966 28.6406 6.75299 28.6544 7.08441C28.6822 8.21677 28.6683 9.32151 28.6683 10.4263ZM5.68361 38.1553C5.68361 36.9401 5.62802 35.7663 5.6975 34.5925C5.85037 31.8582 8.62966 30.0354 11.2422 30.8916C12.9654 31.4578 14.1327 33.032 14.1604 34.8411C14.1743 35.9458 14.1604 37.0367 14.1604 38.1415C14.7163 38.1415 15.2027 38.1415 15.7168 38.1415C15.7168 36.9815 15.7307 35.8629 15.7168 34.7444C15.6613 31.8997 13.3822 29.4278 10.603 29.1654C7.55963 28.8754 4.80813 30.7535 4.28007 33.6535C4.01603 35.1172 4.11331 36.6363 4.04383 38.1553C4.62748 38.1553 5.11385 38.1553 5.68361 38.1553ZM12.5901 38.1691C12.5901 37.9896 12.5901 37.8653 12.5901 37.7548C12.5901 36.7743 12.604 35.7939 12.5763 34.8134C12.5485 33.5154 11.5201 32.4244 10.2555 32.2863C8.8659 32.1344 7.50404 32.9354 7.33729 34.2611C7.17053 35.5453 7.2956 36.8572 7.2956 38.1691C9.04655 38.1691 10.7836 38.1691 12.5901 38.1691Z" fill="black"/>
<path d="M23.3738 28.2541C20.4556 28.2541 17.5373 28.2541 14.633 28.2541C14.4801 28.2541 14.3134 28.2679 14.1605 28.2403C13.7575 28.1712 13.5074 27.9226 13.4935 27.5084C13.4796 27.0803 13.7158 26.8317 14.1049 26.7212C14.2717 26.6798 14.4523 26.6936 14.6191 26.6936C20.4278 26.6936 26.2504 26.6936 32.0591 26.6936C32.2259 26.6936 32.4065 26.6798 32.5733 26.7212C32.9763 26.8179 33.2125 27.0803 33.1986 27.4946C33.1847 27.9088 32.9346 28.1574 32.5316 28.2265C32.3787 28.2541 32.2259 28.2403 32.0591 28.2403C29.1687 28.2541 26.2782 28.2541 23.3738 28.2541Z" fill="black"/>
<path d="M29.9886 32.0101C29.2381 32.0101 28.5016 32.0101 27.7512 32.0101C27.1537 32.0101 26.8341 31.7339 26.8202 31.2644C26.8063 30.7949 27.1398 30.4773 27.7095 30.4635C29.252 30.4497 30.7945 30.4497 32.337 30.4635C32.8929 30.4635 33.2403 30.8087 33.2125 31.2782C33.1986 31.7201 32.8651 32.0101 32.3232 32.0101C31.545 32.0101 30.7668 32.0101 29.9886 32.0101Z" fill="black"/>
<path d="M16.4673 24.4978C15.7864 24.4978 15.1193 24.4978 14.4384 24.4978C13.827 24.484 13.4796 24.2078 13.4796 23.7245C13.4796 23.2274 13.8131 22.9512 14.4245 22.9512C15.8142 22.9512 17.1899 22.9512 18.5796 22.9512C19.1632 22.9512 19.4828 23.2274 19.4967 23.7107C19.4967 24.1802 19.1632 24.484 18.6074 24.4978C17.8986 24.5116 17.1899 24.4978 16.4673 24.4978Z" fill="black"/>
<path d="M31.1003 13.3949C31.1003 9.15547 34.1158 5.82743 38.3403 5.41315C42.148 5.0403 45.8027 7.53978 46.7199 11.5169C46.7477 11.6549 46.7755 11.793 46.7755 11.9311C46.7894 12.3454 46.6087 12.6354 46.1918 12.7321C45.761 12.8287 45.4414 12.663 45.2886 12.2349C45.1774 11.9311 45.1218 11.5997 45.0245 11.2959C44.0518 8.28548 41.0501 6.50409 37.8679 7.04265C34.8801 7.53978 32.6289 10.2602 32.6706 13.3259C32.7123 16.4191 35.0052 19.0291 38.0902 19.471C40.9668 19.8853 43.7322 18.3386 44.8717 15.6734C44.9273 15.5492 44.9689 15.4111 45.0245 15.2868C45.2469 14.9001 45.5804 14.762 45.9973 14.9001C46.4281 15.052 46.567 15.3973 46.4698 15.8115C46.4142 16.0325 46.3308 16.2396 46.2335 16.4468C44.7744 19.6781 41.3698 21.5148 37.7428 20.99C34.3798 20.5067 31.6006 17.6482 31.1559 14.2235C31.1142 13.892 31.1142 13.5606 31.1003 13.3949Z" fill="black"/>
<path d="M38.6321 14.1824C39.591 13.2296 40.4943 12.332 41.3975 11.4344C41.5226 11.3101 41.6338 11.1858 41.7727 11.0753C42.1202 10.8129 42.4954 10.7991 42.815 11.1168C43.1346 11.4206 43.1346 11.8072 42.8706 12.1524C42.676 12.401 42.4398 12.6082 42.2174 12.8291C41.2725 13.7681 40.3275 14.7072 39.3826 15.6462C38.8128 16.2124 38.4654 16.2124 37.8817 15.6324C37.2008 14.9695 36.5199 14.2929 35.8529 13.6162C35.4221 13.1881 35.4082 12.7324 35.7556 12.401C36.0891 12.0834 36.5477 12.1248 36.9507 12.5253C37.5065 13.0362 38.0346 13.5748 38.6321 14.1824Z" fill="black"/>
</g>
<defs>
<clipPath id="clip0_7_1666">
<rect width="51" height="53" fill="white"/>
</clipPath>
</defs>
</svg>
