<svg width="61" height="68" viewBox="0 0 61 68" fill="none" xmlns="http://www.w3.org/2000/svg">
<path opacity="0.06" fill-rule="evenodd" clip-rule="evenodd" d="M26.0298 61.3507C21.6878 64.7843 15.2667 62.0577 14.7218 56.549L11.2106 21.0507C10.6874 15.7618 16.0174 11.842 20.9102 13.9175L52.4126 27.2807C57.3074 29.3571 58.1915 35.9175 54.0209 39.2155L26.0298 61.3507Z" fill="#934AEF"/>
<path fill-rule="evenodd" clip-rule="evenodd" d="M52 2L52.4925 12H61L52 2Z" fill="#7231E5"/>
<mask id="mask0_5_1621" style="mask-type:alpha" maskUnits="userSpaceOnUse" x="23" y="0" width="38" height="51">
<path fill-rule="evenodd" clip-rule="evenodd" d="M23 0H61V51H23V0Z" fill="white"/>
</mask>
<g mask="url(#mask0_5_1621)">
<path fill-rule="evenodd" clip-rule="evenodd" d="M59.3478 41.129C59.3478 41.9516 58.687 42.7742 57.6957 42.7742H32.913C32.087 42.7742 31.2609 42.1161 31.2609 41.129V3.29032C31.2609 2.46778 31.9217 1.64516 32.913 1.64516H49.4348V9.87097C49.4348 11.6807 50.9218 13.1613 52.7391 13.1613H59.3478V41.129ZM56.0435 44.4194C56.0435 45.2419 55.3826 46.0645 54.3913 46.0645H29.6087C28.7827 46.0645 27.9565 45.4065 27.9565 44.4194V6.58065C27.9565 5.75811 28.6174 4.93548 29.6087 4.93548V41.129C29.6087 42.9386 31.0956 44.4194 32.913 44.4194H56.0435ZM51.087 49.3548H26.3043C25.4783 49.3548 24.6522 48.6968 24.6522 47.7097V9.87097C24.6522 9.04843 25.313 8.22581 26.3043 8.22581V44.4194C26.3043 46.2289 27.7913 47.7097 29.6087 47.7097H52.7391C52.7391 48.5323 52.0783 49.3548 51.087 49.3548ZM51.087 2.46778L58.8522 11.5161H52.7391C51.913 11.5161 51.087 10.6936 51.087 9.87097V2.46778ZM51.087 0H32.913C31.0956 0 29.6087 1.48052 29.6087 3.29032C27.7913 3.29032 26.3043 4.77084 26.3043 6.58065C24.4869 6.58065 23 8.06116 23 9.87097V47.7097C23 49.5192 24.4869 51 26.3043 51H51.087C52.9043 51 54.3913 49.5192 54.3913 47.7097C56.2087 47.7097 57.6957 46.2289 57.6957 44.4194C59.513 44.4194 61 42.9386 61 41.129V12.3388V11.5161L51.087 0Z" fill="black"/>
</g>
<path fill-rule="evenodd" clip-rule="evenodd" d="M42.4444 19.25H47.3333C48.6812 19.25 49.7778 20.3715 49.7778 21.75C49.7778 23.1307 48.6836 24.25 47.3333 24.25H42.4444V19.25ZM47.3333 25.5C49.3589 25.5 51 23.8219 51 21.75C51 19.6823 49.3551 18 47.3333 18H41.8333C41.4959 18 41.2222 18.2798 41.2222 18.625V24.25H40.6111C40.2737 24.25 40 24.5298 40 24.875C40 25.2202 40.2737 25.5 40.6111 25.5H41.2222V28H40.6111C40.2737 28 40 28.2798 40 28.625C40 28.9702 40.2737 29.25 40.6111 29.25H41.2222V32.375C41.2222 32.7202 41.4959 33 41.8333 33C42.1708 33 42.4444 32.7202 42.4444 32.375V29.25H46.7222C47.0597 29.25 47.3333 28.9702 47.3333 28.625C47.3333 28.2798 47.0597 28 46.7222 28H42.4444V25.5H47.3333Z" fill="black"/>
</svg>
