<svg width="43" height="43" viewBox="0 0 43 43" fill="none" xmlns="http://www.w3.org/2000/svg">
<path d="M21.5015 20.1536C16.3251 20.1536 12.1138 23.9961 12.1138 28.719C12.1138 28.8859 12.1864 29.046 12.3158 29.1641C12.4452 29.2821 12.6206 29.3484 12.8036 29.3484C12.9865 29.3484 13.162 29.2821 13.2914 29.1641C13.4207 29.046 13.4934 28.8859 13.4934 28.719C13.4934 24.6762 17.0706 21.4124 21.5015 21.4124C25.9324 21.4124 29.5096 24.6762 29.5096 28.719C29.5096 32.7619 25.9324 36.0257 21.5015 36.0257C18.8583 36.0257 16.526 34.8586 15.0665 33.0621C14.8071 32.7428 14.5744 32.4055 14.3742 32.0495C14.3327 31.976 14.2758 31.9106 14.2067 31.8572C14.1376 31.8037 14.0576 31.7632 13.9713 31.738C13.885 31.7128 13.7941 31.7033 13.7038 31.7101C13.6135 31.7169 13.5256 31.7399 13.445 31.7777C13.3644 31.8155 13.2928 31.8675 13.2342 31.9306C13.1757 31.9936 13.1313 32.0666 13.1036 32.1453C13.076 32.224 13.0656 32.307 13.0731 32.3894C13.0806 32.4718 13.1058 32.552 13.1472 32.6255C13.3822 33.043 13.6528 33.4406 13.9567 33.8146C15.6666 35.9193 18.4137 37.2845 21.5015 37.2845C26.6779 37.2845 30.8892 33.442 30.8892 28.719C30.8892 23.9961 26.6779 20.1536 21.5015 20.1536Z" fill="#7D8D93"/>
<path d="M18.2942 4.13723C17.4848 3.4829 16.6386 2.96038 15.7753 2.70177C12.8404 2.02489 10.8076 3.69526 10.8076 6.31256C10.8076 8.70007 11.7031 10.3451 13.0746 12.0716C13.0488 12.2257 13.0315 12.383 13.0315 12.5436C13.0315 13.7537 13.8017 14.7965 14.9092 15.3186C10.2208 19.0515 4.11957 25.976 4 32.4055C4 41.8062 13.7589 40.9874 21.5027 40.9802C29.923 40.9802 39 41.8223 39 32.4055C39 26.3423 33.3368 19.5499 28.1083 15.3138C29.21 14.7899 29.9739 13.7498 29.9739 12.5436C29.9739 10.8193 28.4275 9.41211 26.5377 9.41211H16.4677C15.3379 9.41211 14.3391 9.9212 13.7117 10.6939C12.8105 9.37304 12.1799 7.76348 12.187 6.3347C12.187 4.46624 13.563 3.38401 15.3456 3.89758C16.15 4.13856 17.0568 4.67175 17.9049 5.47805C18.2422 5.79714 18.8257 5.70638 19.0283 5.3035C20.4011 2.53841 22.7655 2.59359 24.1926 5.13272C24.4011 5.51567 24.9584 5.60164 25.2931 5.30234C26.1197 4.56284 26.9881 4.08243 27.754 3.87174C29.5978 3.40793 30.6671 4.69424 30.8023 6.02617C30.8918 7.04135 30.628 8.32393 29.9739 9.60502C29.5476 10.3778 30.8502 10.931 31.2239 10.1359C31.9647 8.68489 32.2913 7.21499 32.1775 5.92543C31.9642 3.44117 30.0805 1.95072 27.3553 2.66729C26.5239 2.89608 25.7051 3.37208 24.9159 3.97371C23.1653 1.07192 19.5122 1.581 18.2942 4.13716V4.13723ZM16.4677 10.6706H26.5377C27.6872 10.6706 28.5946 11.4948 28.5946 12.5436C28.5946 13.5925 27.6872 14.419 26.5377 14.419H16.4677C15.3181 14.419 14.4108 13.5925 14.4108 12.5436C14.4108 11.4948 15.3181 10.6706 16.4677 10.6706ZM16.5647 15.6788H26.3976C31.128 19.0728 37.4954 25.8998 37.6207 32.4055C37.6207 40.0504 30.1973 39.7205 21.5027 39.7205C14.7914 39.7205 5.57747 40.6018 5.37931 32.4055C5.37931 26.883 11.169 19.5607 16.5647 15.6788Z" fill="#7D8D93"/>
<path d="M20.811 24.7948V25.0492C18.1136 25.7921 18.7865 29.4392 21.4737 29.4392C22.9712 29.4392 22.7758 31.4351 21.5545 31.4351C20.974 31.4351 20.5715 31.1854 20.4244 30.6842C20.1963 29.8573 18.8356 30.1897 19.0908 31.0098C19.3215 31.7956 19.9975 32.372 20.8109 32.5817V32.6911C20.7901 33.549 22.2111 33.549 22.1903 32.6911V32.567C24.9057 31.5934 23.9698 28.1807 21.5289 28.1807C20.0035 28.1807 20.203 26.1664 21.44 26.1664C22.1177 26.1664 22.4429 26.4752 22.5782 26.9358C22.8021 27.773 24.1811 27.4323 23.9117 26.6063C23.681 25.8205 23.0039 25.244 22.1903 25.0344V24.7948C22.1903 23.7845 20.811 23.9566 20.811 24.7948Z" fill="#7D8D93"/>
</svg>
