<svg width="43" height="43" viewBox="0 0 43 43" fill="none" xmlns="http://www.w3.org/2000/svg">
<path d="M21.431 36.0228C21.7327 36.2369 22.0805 36.3026 22.4366 36.2123C22.5259 36.1898 22.6353 36.1506 22.7609 36.0838C22.8397 36.261 22.967 36.4311 23.158 36.5883C23.9357 37.2281 25.1512 37.0119 25.8456 36.3492C25.9529 36.2468 26.0466 36.1363 26.1259 36.0196C26.786 36.3639 27.9557 36.5617 29.9921 35.9698C30.2972 35.8811 30.4728 35.5618 30.384 35.2566C30.2953 34.9514 29.976 34.7758 29.6708 34.8647C27.082 35.6171 26.4669 34.8866 26.3941 34.7811C26.3155 34.5082 26.0565 34.3626 25.7721 34.4019C25.4821 34.4421 25.2786 34.7252 25.286 35.0179C25.2918 35.2511 25.1411 35.4306 25.0508 35.5169C24.8366 35.7214 24.5304 35.8362 24.2536 35.8165C24.0966 35.8053 23.9671 35.7637 23.8891 35.6996C23.7364 35.5738 23.7942 35.3437 24.1581 34.6289C24.2732 34.4028 24.3922 34.1691 24.4811 33.9321C24.5888 33.6449 24.4523 33.3237 24.1708 33.2019C23.8893 33.0801 23.5617 33.2005 23.4261 33.4756C23.2035 33.9273 22.9389 34.3823 22.5974 34.7557C22.4011 34.9704 21.9532 35.3086 22.0129 34.7472C22.0687 34.2235 22.4133 33.8003 22.6964 33.3783C22.8932 33.0849 23.1163 32.7523 23.3376 32.5756C23.586 32.3774 23.6265 32.0153 23.4284 31.7669C23.2301 31.5186 22.8681 31.4779 22.6191 31.6766C22.2838 31.9441 21.9521 32.2119 21.6214 32.4788C20.3619 33.4955 19.1722 34.4559 17.8505 35.3563C17.5879 35.5352 17.52 35.8932 17.6989 36.1559C17.8779 36.4186 18.2358 36.4864 18.4985 36.3075C19.3231 35.7457 20.1123 35.1496 20.8781 34.5475C20.8745 34.5734 20.8714 34.5994 20.8685 34.6255C20.8047 35.2238 21.0044 35.72 21.431 36.0228Z" fill="#7D8D93"/>
<path d="M7.71208 7.44882H24.7966C25.1144 7.44882 25.3721 7.19122 25.3721 6.87334C25.3721 6.55553 25.1145 6.29785 24.7966 6.29785H7.71208C7.39428 6.29785 7.1366 6.55545 7.1366 6.87334C7.13667 7.19114 7.39428 7.44882 7.71208 7.44882Z" fill="#7D8D93"/>
<path d="M7.71208 10.5052H23.386C23.7038 10.5052 23.9615 10.2476 23.9615 9.92973C23.9615 9.61193 23.7038 9.35425 23.386 9.35425H7.71208C7.39428 9.35425 7.1366 9.61185 7.1366 9.92973C7.13667 10.2475 7.39428 10.5052 7.71208 10.5052Z" fill="#7D8D93"/>
<path d="M7.71208 13.5616H23.386C23.7038 13.5616 23.9615 13.304 23.9615 12.9861C23.9615 12.6682 23.7038 12.4106 23.386 12.4106H7.71208C7.39428 12.4106 7.1366 12.6683 7.1366 12.9861C7.1366 13.3039 7.39428 13.5616 7.71208 13.5616Z" fill="#7D8D93"/>
<path d="M7.71208 16.618H24.7966C25.1144 16.618 25.3721 16.3603 25.3721 16.0425C25.3721 15.7247 25.1145 15.467 24.7966 15.467H7.71208C7.39428 15.467 7.1366 15.7247 7.1366 16.0425C7.1366 16.3603 7.39428 16.618 7.71208 16.618Z" fill="#7D8D93"/>
<path d="M7.71208 19.6744H26.1241C26.4419 19.6744 26.6996 19.4167 26.6996 19.0989C26.6996 18.7811 26.4419 18.5234 26.1241 18.5234H7.71208C7.39428 18.5234 7.1366 18.781 7.1366 19.0989C7.1366 19.4168 7.39428 19.6744 7.71208 19.6744Z" fill="#7D8D93"/>
<path d="M7.71208 22.731H28.6366C28.9545 22.731 29.2121 22.4734 29.2121 22.1555C29.2121 21.8377 28.9545 21.5801 28.6366 21.5801H7.71208C7.39428 21.5801 7.1366 21.8377 7.1366 22.1555C7.13667 22.4734 7.39428 22.731 7.71208 22.731Z" fill="#7D8D93"/>
<path d="M7.71208 25.7872H28.6366C28.9545 25.7872 29.2121 25.5296 29.2121 25.2117C29.2121 24.8939 28.9545 24.6362 28.6366 24.6362H7.71208C7.39428 24.6362 7.1366 24.8938 7.1366 25.2117C7.13667 25.5295 7.39428 25.7872 7.71208 25.7872Z" fill="#7D8D93"/>
<path d="M7.71208 28.8438H28.6366C28.9545 28.8438 29.2121 28.5862 29.2121 28.2684C29.2121 27.9506 28.9545 27.6929 28.6366 27.6929H7.71208C7.39428 27.6929 7.1366 27.9505 7.1366 28.2684C7.13667 28.5861 7.39428 28.8438 7.71208 28.8438Z" fill="#7D8D93"/>
<path d="M33.5436 6.63537V3.29497C33.5436 2.58145 32.9631 2.00098 32.2496 2.00098H5.294C4.58047 2.00098 4 2.58145 4 3.29497V39.9724C4 40.6859 4.58047 41.2664 5.294 41.2664H13.1256C13.4434 41.2664 13.7011 41.0088 13.7011 40.6909C13.7011 40.3731 13.4435 40.1154 13.1256 40.1154H5.294C5.21508 40.1154 5.15089 40.0513 5.15089 39.9723V3.29497C5.15089 3.21606 5.21508 3.15187 5.294 3.15187H32.2496C32.3286 3.15187 32.3927 3.21606 32.3927 3.29497V6.63514C31.2775 6.73967 30.2264 7.14728 29.3248 7.83159C29.0716 8.0237 29.0221 8.38468 29.2142 8.63783C29.4063 8.89091 29.7673 8.94053 30.0205 8.74834C30.874 8.10054 31.8933 7.75819 32.9682 7.75819C35.6595 7.75819 37.8492 9.94778 37.8492 12.6392C37.8492 15.3307 35.6596 17.5203 32.9682 17.5203C30.2767 17.5203 28.0871 15.3307 28.0871 12.6392C28.0871 11.9258 28.2374 11.2384 28.5338 10.5963C28.667 10.3078 28.541 9.96588 28.2525 9.83267C27.9638 9.69946 27.622 9.82546 27.4889 10.114C27.1222 10.9084 26.9363 11.758 26.9363 12.6391C26.9363 15.771 29.3358 18.3522 32.3927 18.6429V39.9724C32.3927 40.0513 32.3286 40.1155 32.2496 40.1155H15.7982C15.4804 40.1155 15.2227 40.3731 15.2227 40.691C15.2227 41.0088 15.4803 41.2665 15.7982 41.2665H32.2496C32.9631 41.2665 33.5436 40.686 33.5436 39.9725V18.6429C36.6006 18.3521 39 15.771 39 12.6391C39 9.50727 36.6006 6.92611 33.5436 6.63537Z" fill="#7D8D93"/>
<path d="M30.0561 13.8925C30.8417 14.8364 31.3264 15.3803 31.6378 15.5509C31.855 15.6699 32.1055 15.7277 32.36 15.7277C32.7523 15.7277 33.1543 15.5904 33.4597 15.3287C33.5036 15.2911 33.5948 15.213 36.0766 12.2695C36.3628 11.9356 36.5018 11.5101 36.4679 11.0716C36.4341 10.633 36.2315 10.2339 35.8975 9.94766C35.2082 9.357 34.1665 9.43729 33.5757 10.1268L32.3734 11.53C32.0816 11.1933 31.6586 10.9831 31.2113 10.9528C30.7665 10.9226 30.3423 11.0663 30.0156 11.357C29.3501 11.9493 29.2803 12.9817 29.8601 13.6583C29.9063 13.7125 29.974 13.7938 30.0561 13.8925ZM30.7806 12.2169C30.8746 12.1332 30.9999 12.092 31.1334 12.1011C31.2775 12.1109 31.413 12.1781 31.5052 12.2857L31.7898 12.618C31.936 12.7887 32.1487 12.8865 32.3733 12.8865C32.5979 12.8865 32.8106 12.7887 32.9567 12.6181L34.4496 10.8757C34.6275 10.6682 34.941 10.6439 35.1486 10.8218C35.3562 10.9996 35.3803 11.3132 35.1996 11.5243C34.3243 12.5623 32.8981 14.2464 32.6952 14.4673C32.5599 14.5709 32.3213 14.6084 32.1957 14.5442C31.9689 14.3918 31.1956 13.4626 30.9406 13.1562C30.8541 13.0523 30.7827 12.9665 30.7339 12.9095C30.5594 12.7058 30.5803 12.3951 30.7806 12.2169Z" fill="#7D8D93"/>
</svg>
