<svg width="60" height="60" xmlns="http://www.w3.org/2000/svg" xmlns:xlink="http://www.w3.org/1999/xlink"><defs><path id="a" d="M0 .05h33.97v37.74H0z"/><path id="c" d="M0 0h33.97v35.25H0z"/></defs><g transform="translate(4 4)" fill="none" fill-rule="evenodd"><circle fill="#7432E5" cx="26.5" cy="17.5" r="9.5"/><path d="M16.18 48.7l-2.83-28.6-.1-1.04a7 7 0 0 1 9.68-7.14l26.4 11.16a7 7 0 0 1 1.6 11.94L27.48 53.5a7 7 0 0 1-11.3-4.8z" fill="#934AEF" opacity=".06"/><g transform="translate(8 9.96)"><mask id="b" fill="#fff"><use xlink:href="#a"/></mask><path d="M33.27 26.55a.7.7 0 0 0-.7.7v7.04a2.1 2.1 0 0 1-2.1 2.1H1.4V.75a.7.7 0 0 0-1.4 0v36.34c0 .38.31.7.7.7h29.77a3.5 3.5 0 0 0 3.5-3.5v-7.04a.7.7 0 0 0-.7-.7" fill="#000" mask="url(#b)"/></g><g transform="translate(8)"><mask id="d" fill="#fff"><use xlink:href="#c"/></mask><path d="M30.47 0H.7a.7.7 0 0 0-.7.7v7.17a.7.7 0 0 0 1.4 0V1.4h29.07c1.16 0 2.1.94 2.1 2.1v31.04a.7.7 0 0 0 1.4 0V3.52A3.51 3.51 0 0 0 30.47 0" fill="#000" mask="url(#d)"/></g><path d="M29.96 13.95a15.1 15.1 0 0 0-1.02-3.32 9.1 9.1 0 0 0-.83-1.47 9.45 9.45 0 0 1 4.92 3.98c-.94.34-1.98.6-3.07.8m-1 4.17c0 .89-.05 1.75-.15 2.58a29.17 29.17 0 0 0-7.54 0 21.3 21.3 0 0 1 0-5.15 29.18 29.18 0 0 0 7.54 0c.1.83.16 1.7.16 2.57m4.06 4.97a9.5 9.5 0 0 1-4.92 3.98c.3-.42.57-.91.83-1.46.44-.98.78-2.1 1.02-3.32 1.1.2 2.13.47 3.07.8M22.4 11.21c.74-1.63 1.7-2.57 2.64-2.57.93 0 1.9.94 2.64 2.57.39.86.7 1.86.91 2.95a27.85 27.85 0 0 1-7.1 0c.21-1.09.52-2.09.91-2.95m-5.35 1.93a9.46 9.46 0 0 1 4.92-3.98c-.3.42-.57.92-.83 1.47-.44.97-.78 2.1-1.02 3.32a20.6 20.6 0 0 1-3.07-.8m-.65 8.68a9.49 9.49 0 0 1 0-7.44c1.07.4 2.25.7 3.5.93a22.6 22.6 0 0 0 0 5.58c-1.25.23-2.43.54-3.5.93m4.74 3.77c.26.55.53 1.04.83 1.47a9.45 9.45 0 0 1-4.92-3.99c.94-.33 1.98-.6 3.07-.8a15.1 15.1 0 0 0 1.02 3.32m3.9 1.99c-.93 0-1.9-.94-2.64-2.58-.39-.86-.7-1.86-.91-2.95a27.85 27.85 0 0 1 7.1 0 13.62 13.62 0 0 1-.91 2.95c-.75 1.64-1.7 2.58-2.64 2.58m9.32-10.67a.7.7 0 1 0 1.37-.17 10.84 10.84 0 0 0-12.37-9.37 10.74 10.74 0 0 0-7.96 5.88 10.88 10.88 0 0 0 .03 9.77 10.74 10.74 0 0 0 19.22 0l.02-.03c.5-1.01.85-2.1 1.02-3.23a.7.7 0 0 0-1.37-.21 9.46 9.46 0 0 1-.64 2.28 21.8 21.8 0 0 0-3.5-.94 22.59 22.59 0 0 0 0-5.57 21.8 21.8 0 0 0 3.5-.94c.33.8.57 1.64.68 2.53M14.95 34.42h20.1c.38 0 .69-.41.69-.91s-.31-.9-.7-.9H14.96c-.38 0-.69.4-.69.9s.31.9.7.9M17.64 37.13c-.38 0-.7.4-.7.9s.32.91.7.91h14.72c.38 0 .7-.4.7-.9s-.32-.9-.7-.9H17.64z" fill="#000"/></g></svg>