<svg width="43" height="43" viewBox="0 0 43 43" fill="none" xmlns="http://www.w3.org/2000/svg">
<g clip-path="url(#clip0_384_7619)">
<path d="M40.9595 13.8659C40.7275 13.4643 40.2139 13.3267 39.8122 13.5587C39.4106 13.7908 39.273 14.3044 39.5051 14.7061C40.6928 16.762 41.3205 19.1114 41.3205 21.5001C41.3205 29.0005 35.2187 35.1023 27.7183 35.1023C20.218 35.1023 14.1162 29.0005 14.1162 21.5001C14.1162 13.9998 20.218 7.89795 27.7183 7.89795C30.1076 7.89795 32.4573 8.52598 34.5133 9.71394C34.9148 9.94633 35.4285 9.80851 35.6606 9.40698C35.8927 9.00545 35.7552 8.49172 35.3536 8.25967C33.0425 6.92423 30.4023 6.21826 27.7183 6.21826C23.8074 6.21826 20.2354 7.69571 17.5296 10.1209H8.06273C7.59897 10.1209 7.22289 10.497 7.22289 10.9608C7.22289 11.4245 7.59897 11.8006 8.06273 11.8006H15.918C15.0284 12.8809 14.2848 14.0853 13.7157 15.3831H9.20954C8.74578 15.3831 8.36969 15.7591 8.36969 16.2229C8.36969 16.6867 8.74578 17.0627 9.20954 17.0627H13.0942C12.7451 18.2111 12.5276 19.416 12.4598 20.6603H5.20508C4.74132 20.6603 4.36523 21.0364 4.36523 21.5001C4.36523 21.9639 4.74132 22.34 5.20508 22.34H12.4599C12.5276 23.5843 12.7452 24.7892 13.0943 25.9375H9.49047C9.0267 25.9375 8.65062 26.3136 8.65062 26.7774C8.65062 27.2411 9.0267 27.6172 9.49047 27.6172H13.7157C14.2848 28.915 15.0284 30.1194 15.918 31.1997H7.54203C7.07827 31.1997 6.70218 31.5757 6.70218 32.0395C6.70218 32.5033 7.07827 32.8794 7.54203 32.8794H17.5297C20.2355 35.3046 23.8074 36.782 27.7184 36.782C36.1448 36.782 43.0002 29.9266 43.0002 21.5001C43.0002 18.8168 42.2946 16.1768 40.9595 13.8659Z" fill="#994EF0"/>
<path d="M37.9317 12.1265C38.1467 12.1265 38.3615 12.0445 38.5255 11.8805L38.5349 11.8712C38.8628 11.5432 38.8628 11.0114 38.5349 10.6834C38.2068 10.3555 37.6752 10.3555 37.3471 10.6834L37.3378 10.6927C37.0098 11.0207 37.0098 11.5525 37.3378 11.8805C37.5019 12.0445 37.7168 12.1265 37.9317 12.1265Z" fill="#994EF0"/>
<path d="M16.1279 21.5C16.1279 27.8907 21.3271 33.0898 27.7178 33.0898C34.1085 33.0898 39.3076 27.8907 39.3076 21.5C39.3076 15.1093 34.1085 9.91016 27.7178 9.91016C21.3271 9.91016 16.1279 15.1093 16.1279 21.5ZM37.6279 21.5C37.6279 26.9644 33.1822 31.4102 27.7178 31.4102C22.2533 31.4102 17.8076 26.9644 17.8076 21.5C17.8076 16.0356 22.2533 11.5898 27.7178 11.5898C33.1822 11.5898 37.6279 16.0356 37.6279 21.5Z" fill="#994EF0"/>
<path d="M26.8782 14.724V15.4149C26.7667 15.4381 26.6542 15.4657 26.5402 15.5C25.439 15.8308 24.616 16.7717 24.3925 17.9553C24.1879 19.0386 24.5368 20.0848 25.3028 20.6858C25.7021 20.9989 26.1982 21.2851 26.8782 21.587V25.8769C26.3113 25.8312 25.9445 25.6885 25.3251 25.2833C24.9371 25.0295 24.4165 25.1382 24.1625 25.5264C23.9086 25.9145 24.0173 26.435 24.4056 26.689C25.3706 27.3203 26.0308 27.5113 26.8782 27.561V28.2762C26.8782 28.7399 27.2543 29.116 27.7181 29.116C28.1818 29.116 28.5579 28.7399 28.5579 28.2762V27.4656C30.1301 27.0802 31.1383 25.7434 31.3599 24.4252C31.6466 22.7194 30.755 21.2368 29.0885 20.6476C28.9139 20.5859 28.736 20.5217 28.5579 20.4555V17.157C29.0044 17.3048 29.2979 17.5132 29.3122 17.5236C29.6818 17.8 30.2055 17.7264 30.4845 17.3581C30.7646 16.9884 30.6921 16.4616 30.3223 16.1815C30.2776 16.1477 29.583 15.6325 28.5578 15.4206V14.7241C28.5578 14.2604 28.1818 13.8843 27.718 13.8843C27.2542 13.8843 26.8782 14.2603 26.8782 14.724ZM29.7034 24.1465C29.6029 24.7448 29.2143 25.3775 28.5578 25.6927V22.2424C29.8375 22.712 29.7588 23.8169 29.7034 24.1465ZM26.3393 19.364C26.0729 19.1551 25.9566 18.7245 26.043 18.2669C26.1194 17.8619 26.379 17.3792 26.8782 17.1628V19.7149C26.6765 19.6022 26.4938 19.4852 26.3393 19.364Z" fill="#994EF0"/>
<path d="M5.15065 25.9375H1.94043C1.47667 25.9375 1.10059 26.3136 1.10059 26.7773C1.10059 27.2411 1.47667 27.6172 1.94043 27.6172H5.15065C5.61441 27.6172 5.99049 27.2411 5.99049 26.7773C5.99049 26.3136 5.61441 25.9375 5.15065 25.9375Z" fill="#994EF0"/>
<path d="M1.67969 21.5C1.67969 21.2791 1.58982 21.0624 1.43353 20.9062C1.2774 20.7499 1.06072 20.6602 0.839844 20.6602C0.618965 20.6602 0.402285 20.7499 0.246074 20.9062C0.0898633 21.0625 0 21.2791 0 21.5C0 21.7209 0.0897793 21.9376 0.246074 22.0937C0.402285 22.25 0.618965 22.3398 0.839844 22.3398C1.06072 22.3398 1.2774 22.25 1.43353 22.0937C1.58982 21.9376 1.67969 21.7209 1.67969 21.5Z" fill="#994EF0"/>
<path d="M1.94043 17.0625H5.15065C5.61441 17.0625 5.99049 16.6864 5.99049 16.2227C5.99049 15.7589 5.61441 15.3828 5.15065 15.3828H1.94043C1.47667 15.3828 1.10059 15.7589 1.10059 16.2227C1.10059 16.6864 1.47667 17.0625 1.94043 17.0625Z" fill="#994EF0"/>
</g>
<defs>
<clipPath id="clip0_384_7619">
<rect width="43" height="43" fill="white"/>
</clipPath>
</defs>
</svg>
