<svg width="6" height="25" viewBox="0 0 6 25" fill="none" xmlns="http://www.w3.org/2000/svg">
<path d="M1.23047 8.61328C1.23047 8.16406 1.38021 7.79948 1.67969 7.51953C1.98568 7.23958 2.36654 7.09961 2.82227 7.09961C3.28451 7.09961 3.66536 7.23958 3.96484 7.51953C4.27083 7.79948 4.42383 8.16406 4.42383 8.61328C4.42383 9.05599 4.27409 9.41732 3.97461 9.69727C3.67513 9.9707 3.29102 10.1074 2.82227 10.1074C2.36003 10.1074 1.97917 9.9707 1.67969 9.69727C1.38021 9.41732 1.23047 9.05599 1.23047 8.61328ZM1.23047 15.6133C1.23047 15.1641 1.38021 14.7995 1.67969 14.5195C1.98568 14.2396 2.36654 14.0996 2.82227 14.0996C3.28451 14.0996 3.66536 14.2396 3.96484 14.5195C4.27083 14.7995 4.42383 15.1641 4.42383 15.6133C4.42383 16.056 4.27409 16.4173 3.97461 16.6973C3.67513 16.9707 3.29102 17.1074 2.82227 17.1074C2.36003 17.1074 1.97917 16.9707 1.67969 16.6973C1.38021 16.4173 1.23047 16.056 1.23047 15.6133ZM1.23047 22.6133C1.23047 22.1641 1.38021 21.7995 1.67969 21.5195C1.98568 21.2396 2.36654 21.0996 2.82227 21.0996C3.28451 21.0996 3.66536 21.2396 3.96484 21.5195C4.27083 21.7995 4.42383 22.1641 4.42383 22.6133C4.42383 23.056 4.27409 23.4173 3.97461 23.6973C3.67513 23.9707 3.29102 24.1074 2.82227 24.1074C2.36003 24.1074 1.97917 23.9707 1.67969 23.6973C1.38021 23.4173 1.23047 23.056 1.23047 22.6133Z" fill="#7936E7"/>
</svg>
