<svg width="95" height="96" viewBox="0 0 95 96" fill="none" xmlns="http://www.w3.org/2000/svg">
<path opacity="0.06" fill-rule="evenodd" clip-rule="evenodd" d="M91.5816 53.5558C95.805 57.1026 94.4991 63.9026 89.271 65.5874L12.8879 90.202C7.8249 91.8336 2.84769 87.4157 3.85107 82.1808L18.5052 5.72572C19.509 0.488579 25.7608 -1.72093 29.8526 1.71536L91.5816 53.5558Z" fill="#934AEF"/>
<g clip-path="url(#clip0_2415_6970)">
<path d="M21.2503 49.1212L14.4342 47.6322C12.5631 47.2261 10.8256 48.7151 10.8256 50.6103V53.4531C10.8256 55.7543 12.5631 56.2958 14.7015 56.2958H22.1859C23.656 56.2958 25.1261 56.0251 25.1261 54.4006V53.9945C25.1261 51.5579 23.5223 49.5273 21.2503 49.1212ZM13.365 53.4531C13.365 53.3177 13.365 53.3177 13.365 50.4749C13.365 50.2042 13.6323 49.9335 13.8996 50.0688L20.7157 51.5579C21.6513 51.8286 22.3195 52.6408 22.4531 53.5884C17.7754 53.5884 13.7659 53.5884 13.365 53.4531Z" fill="black"/>
<path d="M81.9273 34.6368L72.3045 30.0342C69.0969 28.5452 65.622 28.0037 62.2808 28.6805L60.8106 25.7024C59.7414 22.995 57.2021 21.0999 54.2618 21.0999H22.9878C20.0475 21.0999 17.5081 22.8597 16.4389 25.567L11.2266 36.532C10.0237 34.7722 8.01898 33.6892 5.88059 33.6892H3.60854C1.6038 33.6892 0 35.3137 0 37.3442V38.8333C0 40.8638 1.6038 42.4882 3.60854 42.4882H7.08344C5.61329 44.3834 4.94504 46.8201 4.94504 49.2567V57.3789C4.94504 60.4924 6.01424 63.4705 8.15263 66.0425V72.1342C8.15263 74.8416 10.291 77.0075 12.964 77.0075H17.9091C20.5821 77.0075 22.7205 74.8416 22.7205 72.1342V69.6975H49.4504C55.331 77.8197 64.5528 81.3393 64.6865 81.3393C64.9538 81.4747 65.2211 81.4747 65.622 81.3393C65.7557 81.2039 85.5358 73.894 85.5358 55.6191V40.4577C85.5358 38.021 84.0657 35.7198 81.9273 34.6368V34.6368ZM18.8446 26.65C19.5129 24.8902 21.1167 23.8072 22.9878 23.8072H54.2618C56.1329 23.8072 57.7367 24.8902 58.5386 26.7854L59.7414 29.3574C59.2068 29.4928 58.6722 29.7635 58.1376 30.0342L48.5149 34.6368C46.3765 35.7198 44.9063 37.8857 44.9063 40.3223H12.1621C12.6967 39.5101 12.1621 40.8638 18.8446 26.65V26.65ZM2.67299 38.8333V37.3442C2.67299 36.8027 3.07394 36.3966 3.60854 36.3966H5.88059C8.55358 36.3966 9.48913 38.8333 9.75643 39.2394C9.62278 39.5101 9.48913 39.6455 9.22183 39.9162H3.60854C3.07394 39.7808 2.67299 39.3747 2.67299 38.8333V38.8333ZM20.0475 71.9988C20.0475 73.2171 19.1119 74.1647 17.9091 74.1647H12.8304C11.6275 74.3001 10.692 73.2171 10.692 71.9988V68.0731C12.2958 69.0207 14.1669 69.5621 16.038 69.5621H20.0475V71.9988ZM15.9043 66.9901C11.0929 66.9901 7.35074 62.2522 7.35074 57.2435V49.1213C7.35074 46.8201 8.28628 44.6541 9.89008 42.8943H44.9063V54.8069H30.2048C29.5366 54.8069 28.8683 55.3483 28.8683 56.1606C28.8683 56.9728 29.4029 57.5143 30.2048 57.5143H45.04C45.1736 58.4618 45.1736 59.2741 45.4409 60.0863H30.2048C29.5366 60.0863 28.8683 60.6278 28.8683 61.44C28.8683 62.2522 29.4029 62.7937 30.2048 62.7937H45.9755C46.5101 64.2827 47.0447 65.7718 47.8466 66.9901H15.9043ZM82.8628 55.6191C82.8628 70.6451 67.8941 77.5489 65.2211 78.6319C55.5983 74.7062 47.5793 66.3133 47.5793 55.6191C47.5793 50.6104 47.5793 47.903 47.5793 40.4577C47.5793 38.9686 48.3812 37.7503 49.7177 37.0735L59.3405 32.4709C63.2163 30.5757 67.4931 30.5757 71.369 32.4709L80.9917 37.0735C82.1946 37.7503 83.1301 38.9686 83.1301 40.4577V55.6191H82.8628Z" fill="black"/>
<path d="M70.5027 39.7988L70.5027 39.799L70.5139 39.8044L77.9146 43.3616C78.119 43.5107 78.2319 43.7058 78.2319 43.9667V48.8001L78.0158 48.0033L77.0732 44.5278L76.0906 44.6587V56.0759C76.0906 62.9607 70.7611 66.177 67.5532 67.946C67.2211 67.7688 66.9756 67.6579 66.8176 67.6159L66.8161 67.6155C66.7795 67.6058 66.663 67.5749 66.5321 67.5992C66.4584 67.6128 66.2934 67.6609 66.1858 67.8334C66.0754 68.0104 66.1078 68.1847 66.1327 68.2633C66.1744 68.395 66.2611 68.4834 66.2852 68.508L66.2868 68.5097C66.3272 68.5509 66.3726 68.5894 66.4157 68.6232C66.7409 68.8779 67.5076 69.3049 68.3856 69.5583C68.9232 69.7135 69.5548 69.8186 70.1752 69.7458C69.124 70.4666 68.1482 71.019 67.3819 71.4126C67.1703 71.4784 66.9654 71.4784 66.7538 71.4126C63.3711 69.6749 55.9039 64.8439 55.9039 56.0759V43.9667C55.9039 43.7717 56.0474 43.5634 56.3336 43.3614L63.6246 39.8031L63.6246 39.8031L63.633 39.7988C65.7439 38.7188 68.3918 38.7188 70.5027 39.7988ZM77.5738 48.7076L78.2319 49.0219V56.0759C78.2319 57.5899 78.0092 58.9865 77.6234 60.2701V52.6016C78.0696 52.2433 78.1768 51.6894 78.1626 51.2039C78.146 50.6333 77.9647 49.9977 77.8065 49.4795C77.7811 49.3964 77.7564 49.3166 77.7326 49.2399C77.6786 49.0655 77.6293 48.9065 77.5878 48.7584C77.5829 48.741 77.5782 48.7241 77.5738 48.7076ZM72.7814 65.964L77.009 61.9343C75.9018 64.4497 74.1776 66.4627 72.4084 68.015C72.6332 67.4692 72.7624 66.7895 72.7814 65.964ZM66.5612 68.5825C66.5625 68.5829 66.564 68.5833 66.5657 68.5838C66.5542 68.5815 66.5517 68.58 66.5612 68.5825ZM68.5182 68.5536C69.4828 68.0109 70.6238 67.3246 71.7535 66.4435C71.6376 67.6853 71.2078 68.2601 70.7657 68.5239C70.2123 68.8541 69.4437 68.8229 68.6629 68.5976C68.6142 68.5835 68.5659 68.5688 68.5182 68.5536ZM76.6234 60.9203L75.7846 61.7198C76.1213 61.0572 76.4063 60.3429 76.6234 59.5724V60.9203ZM77.1631 51.233C77.1695 51.4522 77.1418 51.5988 77.0906 51.6994V50.6731C77.1315 50.8723 77.158 51.0609 77.1631 51.233ZM77.4936 48.269C77.494 48.2695 77.4939 48.275 77.4925 48.2842C77.4926 48.2732 77.4933 48.2686 77.4936 48.269ZM77.1758 48.5307C77.1745 48.5305 77.1738 48.5304 77.1739 48.5304L77.1758 48.5307Z" fill="#AB54FF" stroke="#AB54FF"/>
<path d="M78.3187 40.1871L69.4979 35.9906C66.8249 34.6369 63.4836 34.6369 60.8106 35.9906L52.1234 40.1871C51.7224 40.4578 51.3215 40.8639 51.3215 41.4054V55.6192C51.3215 66.3134 60.5433 72.1343 64.5528 74.1648C64.9538 74.3002 65.3547 74.3002 65.7557 74.1648C69.7652 72.1343 78.987 66.3134 78.987 55.6192V41.4054C78.987 40.8639 78.7197 40.4578 78.3187 40.1871V40.1871ZM76.4477 55.6192C76.4477 64.2828 68.9633 69.4269 65.2211 71.4574C60.8106 69.0208 53.9945 64.1475 53.9945 55.6192V42.2176L62.0135 38.2919C64.0182 37.3443 66.4239 37.3443 68.4287 38.2919L76.4477 42.2176V55.6192Z" fill="black"/>
<path d="M60.0088 55.2129C59.4742 54.8068 58.6723 54.9422 58.1377 55.4836C57.6031 56.0251 57.8704 56.8373 58.405 57.3788L63.4836 61.3045C64.0182 61.7106 64.8201 61.5753 65.3547 61.0338L72.8391 51.1518C73.2401 50.6103 73.1064 49.7981 72.5718 49.2566C72.0372 48.8505 71.2353 48.9859 70.7007 49.5274L64.0182 58.3264L60.0088 55.2129Z" fill="black"/>
</g>
<defs>
<clipPath id="clip0_2415_6970">
<rect width="85.5358" height="86.6365" fill="white" transform="translate(0 7.96899)"/>
</clipPath>
</defs>
</svg>
