<svg width="90" height="90" viewBox="0 0 90 90" fill="none" xmlns="http://www.w3.org/2000/svg">
<path opacity="0.06" fill-rule="evenodd" clip-rule="evenodd" d="M6.34448 49.2131C1.58293 46.39 1.82726 39.4182 6.77478 36.9354L75.8592 2.26672C80.6094 -0.117062 86.1789 3.45421 85.9947 8.76577L83.4244 82.8702C83.2401 88.184 77.4322 91.3605 72.8586 88.6488L6.34448 49.2131Z" fill="#934AEF"/>
<path d="M17.4841 16.4153V20.1041C17.4841 22.6302 15.4575 24.6781 12.9575 24.6781H9.5625L17.4841 16.4153Z" fill="white"/>
<path d="M78.4375 30.4795V80.7956C78.4375 83.278 76.4592 85.2903 74.0189 85.2903L35.3561 85.2207C32.9158 85.2207 30.9375 83.2083 30.9375 80.726V34.0346L38.6701 25.9153L74.0189 25.9849C76.4592 25.9849 78.4375 27.9972 78.4375 30.4795Z" fill="white"/>
<path d="M17.4841 16.4153V20.1041C17.4841 22.6302 15.4575 24.6781 12.9575 24.6781H9.5625M17.4841 16.4153H50.1609C52.6609 16.4153 54.6875 18.4632 54.6875 20.9894V25.5634M17.4841 16.4153L9.5625 24.6781M9.5625 24.6781L9.5625 73.5912C9.5625 76.1174 11.5891 78.1653 14.0891 78.1653H29.7909M38.6701 25.9153V29.54C38.6701 32.0223 36.6918 34.0346 34.2515 34.0346H30.9375M38.6701 25.9153L74.0189 25.9849C76.4592 25.9849 78.4375 27.9972 78.4375 30.4795V80.7956C78.4375 83.278 76.4592 85.2903 74.0189 85.2903L35.3561 85.2207C32.9158 85.2207 30.9375 83.2083 30.9375 80.726V34.0346M38.6701 25.9153L30.9375 34.0346" stroke="#333333" stroke-width="2.1" stroke-linecap="round" stroke-linejoin="round"/>
<path d="M40 43.2275C40 41.9159 41.0633 40.8525 42.375 40.8525H68.5C69.8117 40.8525 70.875 41.9159 70.875 43.2275C70.875 44.5392 69.8117 45.6025 68.5 45.6025H42.375C41.0633 45.6025 40 44.5392 40 43.2275Z" fill="#A356F3"/>
<path d="M40 52.7275C40 51.4159 41.0633 50.3525 42.375 50.3525H68.5C69.8117 50.3525 70.875 51.4159 70.875 52.7275C70.875 54.0392 69.8117 55.1025 68.5 55.1025H42.375C41.0633 55.1025 40 54.0392 40 52.7275Z" fill="#A356F3"/>
<path d="M40 62.2275C40 60.9159 41.0633 59.8525 42.375 59.8525H68.5C69.8117 59.8525 70.875 60.9159 70.875 62.2275C70.875 63.5392 69.8117 64.6025 68.5 64.6025H42.375C41.0633 64.6025 40 63.5392 40 62.2275Z" fill="#A356F3"/>
<path d="M40 71.7275C40 70.4159 41.0633 69.3525 42.375 69.3525H68.5C69.8117 69.3525 70.875 70.4159 70.875 71.7275C70.875 73.0392 69.8117 74.1025 68.5 74.1025H42.375C41.0633 74.1025 40 73.0392 40 71.7275Z" fill="#A356F3"/>
</svg>
