<svg width="93" height="96" viewBox="0 0 93 96" fill="none" xmlns="http://www.w3.org/2000/svg">
<path opacity="0.06" fill-rule="evenodd" clip-rule="evenodd" d="M5.13859 64.698C-0.0801426 62.8362 -1.1734 55.9395 3.21451 52.5599L68.715 2.11164C72.9231 -1.12944 79.069 1.31561 79.9026 6.56252L92.3356 84.8131C93.1696 90.0623 88.0791 94.2865 83.0721 92.5003L5.13859 64.698Z" fill="#934AEF"/>
<mask id="mask0_2415_6968" style="mask-type:alpha" maskUnits="userSpaceOnUse" x="2" y="49" width="77" height="35">
<path fill-rule="evenodd" clip-rule="evenodd" d="M2.25262 49.8074H78.5037V83.6842H2.25262V49.8074Z" fill="white"/>
</mask>
<g mask="url(#mask0_2415_6968)">
<path fill-rule="evenodd" clip-rule="evenodd" d="M74.6616 57.1624L47.2319 73.0487H32.1707L27.8409 61.1143L36.3804 56.3484H55.2586C55.9378 56.3471 56.5887 56.618 57.0671 57.1011C57.3449 57.379 57.5524 57.7196 57.6719 58.0941C57.7751 58.3563 57.8258 58.636 57.8202 58.9176C57.8202 60.3365 56.6738 61.4868 55.2586 61.4868H41.171V64.0561H55.2586C57.845 64.0479 60.0175 62.1041 60.3202 59.5279L72.0947 52.7114C72.8868 52.2528 73.8632 52.2523 74.656 52.7114C75.4483 53.1699 75.9367 54.0174 75.9367 54.9351C75.9435 55.8539 75.4558 56.7052 74.6616 57.1624V57.1624ZM20.9366 79.6565L13.9297 60.3305L23.5567 56.814L30.5649 76.1312L20.9366 79.6565ZM10.4348 80.7562L5.18452 66.2645L12.4046 63.6281L17.6618 78.1136L10.4348 80.7562ZM77.8182 52.3656C76.392 49.923 73.272 49.085 70.8196 50.485L59.8887 56.8105C59.651 56.2426 59.3091 55.7259 58.8794 55.2854C57.9213 54.3189 56.6182 53.7764 55.2586 53.7788H36.0484C35.8309 53.7788 35.6169 53.8347 35.4262 53.9406L26.9562 58.6684L25.5278 54.7348C25.2871 54.0673 24.5523 53.7217 23.8876 53.9638L11.8486 58.3572C11.529 58.4732 11.2683 58.7122 11.1245 59.0208C10.98 59.3301 10.9645 59.6839 11.0807 60.0044L11.5185 61.2106L3.09777 64.2886C2.77825 64.4046 2.51735 64.643 2.37352 64.9523C2.22905 65.2609 2.21352 65.6147 2.3298 65.9352L8.46561 82.8363C8.70633 83.5037 9.44052 83.8486 10.1058 83.6071L18.5315 80.5317L18.9694 81.7381C19.2101 82.4054 19.9449 82.7502 20.6102 82.5082L32.6485 78.1136C33.3138 77.872 33.6578 77.1357 33.417 76.4684L33.103 75.6177H47.5747C47.7997 75.6177 48.0205 75.5581 48.215 75.4459L75.9423 59.3879C77.5349 58.4764 78.5143 56.7747 78.5036 54.9349C78.5018 54.0334 78.2661 53.1479 77.8182 52.3656V52.3656Z" fill="black"/>
</g>
<path fill-rule="evenodd" clip-rule="evenodd" d="M31.9627 35.2872L47.1498 20.1245L48.9399 21.9118L33.7523 37.0738L31.9627 35.2872Z" fill="black"/>
<path fill-rule="evenodd" clip-rule="evenodd" d="M47.9967 36.3677C47.9967 37.0178 47.4695 37.5447 46.8178 37.5447C46.1666 37.5447 45.6388 37.0178 45.6388 36.3677C45.6388 35.7177 46.1666 35.1907 46.8178 35.1907C47.4695 35.1907 47.9967 35.7177 47.9967 36.3677M43.2808 36.3675C43.2808 38.3176 44.8644 39.8986 46.8178 39.8986C48.7716 39.8986 50.3547 38.3176 50.3547 36.3675C50.3547 34.4174 48.7716 32.8364 46.8178 32.8364C44.8644 32.8364 43.2808 34.4174 43.2808 36.3675" fill="black"/>
<path fill-rule="evenodd" clip-rule="evenodd" d="M35.4996 21.0662C36.1512 21.0662 36.6785 21.5933 36.6785 22.2432C36.6785 22.8933 36.1512 23.4204 35.4996 23.4204C34.8484 23.4204 34.3206 22.8933 34.3206 22.2432C34.3206 21.5933 34.8484 21.0662 35.4996 21.0662M35.4996 25.7741C37.4533 25.7741 39.0365 24.1931 39.0365 22.2429C39.0365 20.293 37.4533 18.7119 35.4996 18.7119C33.5462 18.7119 31.9627 20.293 31.9627 22.2429C31.9627 24.1931 33.5462 25.7741 35.4996 25.7741" fill="black"/>
<path fill-rule="evenodd" clip-rule="evenodd" d="M41.866 12.8605C50.5725 12.8605 57.6305 19.907 57.6305 28.5992C57.6305 37.2915 50.5725 44.3379 41.866 44.3379C33.1595 44.3379 26.1015 37.2915 26.1015 28.5992C26.1112 19.9108 33.1641 12.8702 41.866 12.8605M41.866 46.9608C52.0242 46.9608 60.258 38.74 60.258 28.5991C60.258 18.4582 52.0242 10.2373 41.866 10.2373C31.7084 10.2373 23.4741 18.4582 23.4741 28.5991C23.485 38.7355 31.713 46.95 41.866 46.9608" fill="black"/>
<mask id="mask1_2415_6968" style="mask-type:alpha" maskUnits="userSpaceOnUse" x="2" y="6" width="77" height="78">
<path fill-rule="evenodd" clip-rule="evenodd" d="M2.25262 83.6843H78.65V6H2.25262V83.6843Z" fill="white"/>
</mask>
<g mask="url(#mask1_2415_6968)">
<path fill-rule="evenodd" clip-rule="evenodd" d="M39.0365 8.82488H41.8661V6H39.0365V8.82488Z" fill="black"/>
<path fill-rule="evenodd" clip-rule="evenodd" d="M33.3775 6.89514L36.7243 6L37.6218 9.3411L34.2752 10.2373L33.3775 6.89514Z" fill="black"/>
<path fill-rule="evenodd" clip-rule="evenodd" d="M27.7184 10.376L30.4094 8.82495L31.9627 11.5113L29.2725 13.0623L27.7184 10.376Z" fill="black"/>
<path fill-rule="evenodd" clip-rule="evenodd" d="M23.4741 13.7679L25.5963 11.6497L27.7184 13.7679L25.5963 15.887L23.4741 13.7679Z" fill="black"/>
<path fill-rule="evenodd" clip-rule="evenodd" d="M20.6446 18.5733L22.1979 15.887L24.8889 17.438L23.3348 20.1243L20.6446 18.5733Z" fill="black"/>
<path fill-rule="evenodd" clip-rule="evenodd" d="M17.815 23.4658L18.7127 20.1245L22.0593 21.0205L21.1627 24.3618L17.815 23.4658Z" fill="black"/>
<path fill-rule="evenodd" clip-rule="evenodd" d="M17.815 30.0114H20.6446V27.1865H17.815V30.0114Z" fill="black"/>
<path fill-rule="evenodd" clip-rule="evenodd" d="M17.815 32.3196L21.1625 31.4241L22.0593 34.7659L18.7121 35.6614L17.815 32.3196Z" fill="black"/>
<path fill-rule="evenodd" clip-rule="evenodd" d="M20.6446 40.0372L23.3353 38.4861L24.8889 41.1725L22.1974 42.7234L20.6446 40.0372Z" fill="black"/>
<path fill-rule="evenodd" clip-rule="evenodd" d="M23.4741 44.8422L25.5966 42.7236L27.7184 44.8422L25.5966 46.961L23.4741 44.8422Z" fill="black"/>
<path fill-rule="evenodd" clip-rule="evenodd" d="M27.7184 48.2347L29.2717 45.5483L31.9627 47.0993L30.4087 49.7857L27.7184 48.2347Z" fill="black"/>
<path fill-rule="evenodd" clip-rule="evenodd" d="M33.3775 51.7144L34.275 48.3733L37.6218 49.2693L36.7245 52.6106L33.3775 51.7144Z" fill="black"/>
<path fill-rule="evenodd" clip-rule="evenodd" d="M39.0365 52.6105H41.8661V49.7856H39.0365V52.6105Z" fill="black"/>
<path fill-rule="evenodd" clip-rule="evenodd" d="M44.6956 49.2697L48.0415 48.3733L48.9399 51.7142L45.5938 52.6106L44.6956 49.2697Z" fill="black"/>
<path fill-rule="evenodd" clip-rule="evenodd" d="M48.9399 47.0986L51.6314 45.5483L53.1842 48.2345L50.4935 49.7857L48.9399 47.0986Z" fill="black"/>
<path fill-rule="evenodd" clip-rule="evenodd" d="M54.599 44.8418L56.7219 42.7236L58.8433 44.8426L56.7211 46.961L54.599 44.8418Z" fill="black"/>
<path fill-rule="evenodd" clip-rule="evenodd" d="M58.8433 41.1732L60.3965 38.4861L63.0876 40.0373L61.5343 42.7234L58.8433 41.1732Z" fill="black"/>
<path fill-rule="evenodd" clip-rule="evenodd" d="M60.258 34.7661L61.1549 31.4241L64.5023 32.3194L63.6055 35.6614L60.258 34.7661Z" fill="black"/>
<path fill-rule="evenodd" clip-rule="evenodd" d="M60.258 30.0114H63.0876V27.1865H60.258V30.0114Z" fill="black"/>
<path fill-rule="evenodd" clip-rule="evenodd" d="M60.258 21.02L63.6053 20.1245L64.5023 23.4663L61.155 24.3618L60.258 21.02Z" fill="black"/>
<path fill-rule="evenodd" clip-rule="evenodd" d="M58.8433 17.438L61.534 15.887L63.0876 18.5739L60.396 20.1243L58.8433 17.438Z" fill="black"/>
<path fill-rule="evenodd" clip-rule="evenodd" d="M54.599 13.7679L56.7211 11.6497L58.8433 13.7679L56.7211 15.887L54.599 13.7679Z" fill="black"/>
<path fill-rule="evenodd" clip-rule="evenodd" d="M48.9399 11.5121L50.4935 8.82495L53.1842 10.376L51.6314 13.0623L48.9399 11.5121Z" fill="black"/>
<path fill-rule="evenodd" clip-rule="evenodd" d="M44.6956 9.341L45.5946 6L48.9399 6.89654L48.0415 10.2373L44.6956 9.341Z" fill="black"/>
</g>
</svg>
