<?xml version="1.0" encoding="UTF-8"?>
<svg width="36px" height="31px" viewBox="0 0 36 31" version="1.1" xmlns="http://www.w3.org/2000/svg" xmlns:xlink="http://www.w3.org/1999/xlink">
    <!-- Generator: Sketch 54.1 (76490) - https://sketchapp.com -->
    <title>heart</title>
    <desc>Created with Sketch.</desc>
    <defs>
        <linearGradient x1="126.888221%" y1="39.9218879%" x2="-10.4756525%" y2="78.4798861%" id="linearGradient-1">
            <stop stop-color="#A356F3" offset="0%"></stop>
            <stop stop-color="#6A2BE3" offset="100%"></stop>
        </linearGradient>
        <polygon id="path-2" points="0 -1.8189894e-12 53 -1.8189894e-12 53 40 0 40"></polygon>
    </defs>
    <g id="Symbols" stroke="none" stroke-width="1" fill="none" fill-rule="evenodd">
        <g id="hero-image" transform="translate(-104.000000, -368.000000)">
            <g id="heart" transform="translate(97.000000, 366.000000)">
                <mask id="mask-3" fill="white">
                    <use xlink:href="#path-2"></use>
                </mask>
                <g id="Clip-2"></g>
                <path d="M38.7321515,6.17978082 C37.2201065,4.72638838 35.1310765,4 32.4641231,4 C31.72602,4 30.9727808,4.12596971 30.2051561,4.37778599 C29.4371561,4.62978697 28.7226953,4.96976973 28.0625869,5.39748799 C27.4016027,5.82508312 26.8335617,6.22663465 26.3570252,6.60152691 C25.8810516,6.9765423 25.4285326,7.37507696 25.0000313,7.79682305 C24.5713423,7.37507696 24.1189484,6.9765423 23.6429123,6.60152691 C23.1665634,6.22663465 22.5982722,5.82532939 21.9374131,5.39748799 C21.2766792,4.96958503 20.5623435,4.62984854 19.7945312,4.37778599 C19.0267813,4.12603128 18.2736672,4 17.5356267,4 C14.868861,4 12.7797058,4.72657308 11.2678485,6.17978082 C9.7559912,7.63286541 9,9.64838074 9,12.2265115 C9,13.0116981 9.14010261,13.8204655 9.41974493,14.652198 C9.69938725,15.4842384 10.0180581,16.1933259 10.3751322,16.7791528 C10.7321437,17.3649181 11.1370027,17.9363995 11.5893965,18.4930427 C12.0417904,19.0497476 12.3724075,19.4331979 12.5804974,19.6443172 C12.788775,19.8550055 12.9525199,20.0075114 13.0715446,20.1010959 L24.2142683,30.6832902 C24.4286128,30.8944096 24.6904921,31 24.9999687,31 C25.3094454,31 25.5715123,30.8944096 25.7857317,30.6837212 L36.9107549,20.1365595 C39.6370017,17.4532077 41,14.8164019 41,12.2265115 C41.0000625,9.64838074 40.2439462,7.63286541 38.7321515,6.17978082" id="Fill-1" stroke="#994EF0" stroke-width="3" mask="url(#mask-3)"></path>
            </g>
        </g>
    </g>
</svg>