<svg xmlns="http://www.w3.org/2000/svg" width="55.158" height="24.85" viewBox="0 0 55.158 24.85"><g transform="translate(-0.776 -0.834)" opacity="0.912"><path d="M0,3.306A4.225,4.225,0,0,1,.867.712,1.635,1.635,0,0,1,3.1.258,5.735,5.735,0,0,1,4.212,1.1,17.435,17.435,0,0,0,8.805,4.256C12.35,6.147,15.9,8.026,19.427,9.941q1.846,1,3.621,2.13a1.67,1.67,0,0,1,.528,2.623,2.831,2.831,0,0,1-.551.628,1.177,1.177,0,0,1-1.295.256c-.51-.227-.984-.535-1.471-.809L6.005,6.965a5.613,5.613,0,0,0-.773-.32.366.366,0,0,0-.269,0,.748.748,0,0,0-.217.454c.416,1.518.832,3.042,1.313,4.543C7.132,15,8.2,18.372,9.336,21.717a2.588,2.588,0,0,1-.814,3,.982.982,0,0,1-1.634-.227A15.5,15.5,0,0,1,6.3,22.938C5.035,19.052,3.793,15.155,2.509,11.3,1.958,9.629,1.337,7.982.751,6.313A8.521,8.521,0,0,1,0,3.306Z" transform="matrix(-0.035, 0.999, -0.999, -0.035, 55.935, 1.709)" fill="#d0d0d0"/><path d="M9.394,37.25c-1.048,3.206-3.6,3.513-2.012-1.817A34.439,34.439,0,0,0,6.47,13.54C5.918,12.034,5.2,10.6,4.556,9.117A18.618,18.618,0,0,0,1.489,4.33C1.109,3.9.716,3.477.373,3.019A1.872,1.872,0,0,1,.673.461,1.241,1.241,0,0,1,1.565,0a1.257,1.257,0,0,1,.948.341,17.729,17.729,0,0,1,3.238,4A42.328,42.328,0,0,1,11.076,19.18a34.2,34.2,0,0,1,.449,5.6A41.386,41.386,0,0,1,9.394,37.25Z" transform="matrix(-0.035, 0.999, -0.999, -0.035, 40.722, 11.808)" fill="#d0d0d0"/></g></svg>