<svg xmlns="http://www.w3.org/2000/svg" viewBox="0 0 700 146.21"><defs><style>.cls-1{isolation:isolate;}.cls-2{fill:#0060a9;}.cls-3{mix-blend-mode:multiply;}.cls-4{fill:#ab54ff;}.cls-5{mix-blend-mode:hue;}.cls-6{fill:#4578ff;}.cls-7{fill:#231f20;}.cls-8{fill:#0020a9;}.cls-9{fill:#1d4bc6;}.cls-10{fill:#5381fe;}.cls-11{fill:#002587;}</style></defs><title>logo</title><g class="cls-1"><g id="Layer_1" data-name="Layer 1"><path class="cls-2" d="M262.23,42.2a34.21,34.21,0,0,0-.56-6.14A37.77,37.77,0,0,0,260,30.65a15.11,15.11,0,0,0-3.44-5.29,22.19,22.19,0,0,0-5.06-4.27A31.42,31.42,0,0,0,235,16.85H209.19V93.13h16.2v-23H234a38.14,38.14,0,0,0,7.73-1,46,46,0,0,0,6.69-2.19,18.12,18.12,0,0,0,6.26-4.2,19.88,19.88,0,0,0,3.84-4.86,33,33,0,0,0,2.61-6.33A30.23,30.23,0,0,0,262.23,42.2Zm-16.1.66c.06,2.92-.53,5.15-1.77,6.64a12.46,12.46,0,0,1-4.31,3.44,17.76,17.76,0,0,1-6.52,1.5l-8.25.28V31.05l9.59.19c3.17.4,5.53,1.21,7,2.42a11.68,11.68,0,0,1,3.26,3.86,11.9,11.9,0,0,1,1,5.28v.06Z"/><path class="cls-2" d="M416.05,19.86a3.49,3.49,0,0,0-1.42-2.52,3.9,3.9,0,0,0-1-.57,17.74,17.74,0,0,0-2.48-.85,21.52,21.52,0,0,0-3.3-.57,17.73,17.73,0,0,0-3.95.12,14.77,14.77,0,0,0-4.38,1.34,6.6,6.6,0,0,0-1,.62,8.45,8.45,0,0,0-.84.67,3.39,3.39,0,0,0-.91,1.24L372.83,58l-24-38.77a8.85,8.85,0,0,0-1-1.25,5,5,0,0,0-1.05-.8,6.37,6.37,0,0,0-.95-.58l-.11-.05a16.34,16.34,0,0,0-7.65-1.09,29.58,29.58,0,0,0-5.73,1.07l-.09,0a5.35,5.35,0,0,0-1.2.66,3.72,3.72,0,0,0-.93,1,2.94,2.94,0,0,0-.51,1.65V90.77L300.85,19.44l0-.09a4.82,4.82,0,0,0-2.08-2,15.68,15.68,0,0,0-2.89-1.17,16.71,16.71,0,0,0-4.84-.58,17.61,17.61,0,0,0-4.76.52,11.33,11.33,0,0,0-2.78,1.14,4.19,4.19,0,0,0-1.87,2L252.05,92.22h18.33l5-12.85h32l5,12.85h17.2v.11h16.31V44.72L372,86.33h1.69l26.18-41.62V92.33h16.2V19.86ZM301.77,64.56h-21L291.13,36.9Z"/><g class="cls-3"><path class="cls-4" d="M484,42.2a33.33,33.33,0,0,0-.57-6.14,36.43,36.43,0,0,0-1.65-5.41,15.26,15.26,0,0,0-3.44-5.29,22.25,22.25,0,0,0-5.07-4.27,32.07,32.07,0,0,0-6.66-2.9,32.41,32.41,0,0,0-9.89-1.34H430.91V93.13h16.21v-23h8.63a38,38,0,0,0,7.73-1,46.09,46.09,0,0,0,6.7-2.19,18,18,0,0,0,6.25-4.2,19.88,19.88,0,0,0,3.84-4.86,32.31,32.31,0,0,0,2.62-6.33A30.23,30.23,0,0,0,484,42.2Zm-16.1.66c.06,2.92-.53,5.15-1.77,6.64a12.58,12.58,0,0,1-4.32,3.44,17.76,17.76,0,0,1-6.52,1.5l-8.24.28V31.05l9.59.19c3.17.4,5.53,1.21,7,2.42a11.44,11.44,0,0,1,3.26,3.86,12,12,0,0,1,1,5.28v.06Z"/><path class="cls-4" d="M530.35,20.35l0-.08a4.81,4.81,0,0,0-2.07-2,15.2,15.2,0,0,0-2.9-1.16,16.6,16.6,0,0,0-4.83-.59,17.12,17.12,0,0,0-4.76.53A11.47,11.47,0,0,0,513,18.19a4.12,4.12,0,0,0-1.86,2L481.55,93.13h18.32l5-12.85h32l5,12.85h17.79Zm.92,45.12h-21l10.36-27.66Z"/></g><g class="cls-5"><path class="cls-6" d="M619.85,27.54a32.16,32.16,0,0,0-11.32-7.61,36.81,36.81,0,0,0-14.38-2.54l-13.73-.22H565.57V92.92h28.57a38.39,38.39,0,0,0,14.4-2.87,33.05,33.05,0,0,0,11.32-7.77,36,36,0,0,0,7.35-11.89,42.25,42.25,0,0,0,2.65-15.24,44.36,44.36,0,0,0-2.64-15.6A34.89,34.89,0,0,0,619.85,27.54Zm-6.09,27.18c0,7.19-1.68,12.9-5,17s-8.08,6-14.63,6l-12.58-.3V32.63h12.57a21.55,21.55,0,0,1,8.54,1.57,16.53,16.53,0,0,1,6.07,4.4,19.56,19.56,0,0,1,3.73,6.93A30.74,30.74,0,0,1,613.76,54.72Z"/><path class="cls-6" d="M698.3,17.43a10.31,10.31,0,0,0-2.79-1.08,15.82,15.82,0,0,0-3.93-.46,15.34,15.34,0,0,0-3.9.46,10,10,0,0,0-2.8,1.09,3,3,0,0,0-1.62,2.7v33.8l-.21,3.72v.06a58.73,58.73,0,0,1-.73,10,16.09,16.09,0,0,1-2.59,6.65,11.08,11.08,0,0,1-5,3.84,22.15,22.15,0,0,1-8.24,1.31,22.49,22.49,0,0,1-8.35-1.31,10.83,10.83,0,0,1-4.91-3.83,17,17,0,0,1-2.59-6.67,55.17,55.17,0,0,1-.79-10v-37a3.4,3.4,0,0,0-.25-1.36,2.92,2.92,0,0,0-.53-.86,2.25,2.25,0,0,0-.78-.71,14.72,14.72,0,0,0-2.24-1,14,14,0,0,0-3.34-.71,17.73,17.73,0,0,0-4,.12,12.07,12.07,0,0,0-4.44,1.58l-.12.08-.64.63-.07.13a3.57,3.57,0,0,0-.49,1.87v38c0,11.73,2.84,20.92,8.43,27.31s14,9.71,25,9.71,19.44-3.5,25.1-10S700,69.84,700,58V20.24A3.13,3.13,0,0,0,698.3,17.43Z"/></g><path class="cls-7" d="M226.13,126.72a11.51,11.51,0,0,1-1,4.88,7.16,7.16,0,0,1-2.72,3.16,7.51,7.51,0,0,1-10.88-3.17,11.17,11.17,0,0,1-1-4.87v-.94a11.32,11.32,0,0,1,1-4.87,7.22,7.22,0,0,1,6.79-4.29,7.53,7.53,0,0,1,4.09,1.11,7.28,7.28,0,0,1,2.72,3.18,11.32,11.32,0,0,1,1,4.87Zm-3.26-1a10.11,10.11,0,0,0-.53-3.52,4.56,4.56,0,0,0-1.55-2.18,4.06,4.06,0,0,0-2.44-.74,4,4,0,0,0-2.41.74,4.56,4.56,0,0,0-1.56,2.19,9.8,9.8,0,0,0-.55,3.51v1a9.88,9.88,0,0,0,.56,3.52,4.6,4.6,0,0,0,1.57,2.2,4,4,0,0,0,2.41.75,3.84,3.84,0,0,0,3.34-1.67,8.38,8.38,0,0,0,1.16-4.8Z"/><path class="cls-7" d="M249.49,116.88v18.73h-3.25l-8.36-13.29v13.29h-3.24V116.88h3.24l8.39,13.32V116.88Z"/><path class="cls-7" d="M270.37,133v2.6H258.62V116.88h3.24V133Z"/><path class="cls-7" d="M281.58,116.88v18.73h-3.24V116.88Z"/><path class="cls-7" d="M305.71,116.88v18.73h-3.26l-8.36-13.29v13.29h-3.24V116.88h3.24l8.39,13.32V116.88Z"/><path class="cls-7" d="M314.84,135.61V116.88H327v2.61h-8.91v5.18h7.69v2.56h-7.69V133h9v2.6Z"/><path class="cls-7" d="M350.26,116.88v18.73H347V116.88Z"/><path class="cls-7" d="M374.38,116.88v18.73h-3.26l-8.35-13.29v13.29h-3.24V116.88h3.24l8.38,13.32V116.88Z"/><path class="cls-7" d="M392.55,129a10.48,10.48,0,0,0-3.41-1.52,12.57,12.57,0,0,1-4.47-2.22,4.34,4.34,0,0,1-1.54-3.44,4.51,4.51,0,0,1,.84-2.68,5.51,5.51,0,0,1,2.34-1.84,8.51,8.51,0,0,1,3.46-.66,7.87,7.87,0,0,1,3.58.77,5.61,5.61,0,0,1,2.35,2.07,5.29,5.29,0,0,1,.82,2.89h-3.24a3,3,0,0,0-.9-2.3,3.73,3.73,0,0,0-2.65-.84,3.78,3.78,0,0,0-2.5.71,2.34,2.34,0,0,0-.84,1.87,2,2,0,0,0,.94,1.71,10,10,0,0,0,3,1.3,15.5,15.5,0,0,1,3.51,1.44,5.58,5.58,0,0,1,2,1.92,4.86,4.86,0,0,1,.67,2.58,4.62,4.62,0,0,1-.81,2.72,5.24,5.24,0,0,1-2.33,1.78,9.93,9.93,0,0,1-7-.05,6.79,6.79,0,0,1-2.72-1.95,4.93,4.93,0,0,1-1.09-3.29h3.25a2.94,2.94,0,0,0,1.12,2.52,4.87,4.87,0,0,0,3,.82,4.11,4.11,0,0,0,2.54-.68,2.21,2.21,0,0,0,.87-1.84A2.34,2.34,0,0,0,392.55,129Z"/><path class="cls-7" d="M415.13,116.88h3.25V129.4a6.5,6.5,0,0,1-.92,3.52,5.71,5.71,0,0,1-2.51,2.2,8.28,8.28,0,0,1-3.58.74,8.47,8.47,0,0,1-3.61-.73,5.56,5.56,0,0,1-2.48-2.19,6.65,6.65,0,0,1-.89-3.54V116.88h3.23V129.4a3.87,3.87,0,0,0,1,2.9,4.44,4.44,0,0,0,5.53,0,3.88,3.88,0,0,0,1-2.91Z"/><path class="cls-7" d="M437.77,135.61,434,128.39h-3.64v7.22h-3.24V116.88h6.58a7.6,7.6,0,0,1,5,1.45,5.11,5.11,0,0,1,1.75,4.19,5.39,5.39,0,0,1-.89,3.13,5.63,5.63,0,0,1-2.54,2l4.2,7.82v.17Zm-7.39-16.12v6.29h3.34a4.19,4.19,0,0,0,1.92-.4,2.75,2.75,0,0,0,1.19-1.09,3.54,3.54,0,0,0-.46-4,3.61,3.61,0,0,0-2.6-.85Z"/><path class="cls-7" d="M447.17,135.61l7.07-18.73h2.92l7.1,18.73h-3.4l-1.53-4.38h-7.25l-1.52,4.38Zm5.82-7h5.44l-2.72-7.79Z"/><path class="cls-7" d="M486.5,116.88v18.73h-3.25l-8.36-13.29v13.29h-3.24V116.88h3.24l8.39,13.32V116.88Z"/><path class="cls-7" d="M509.91,129.51a7.64,7.64,0,0,1-1,3.29,6.19,6.19,0,0,1-2.47,2.25,8.38,8.38,0,0,1-3.82.81,7.32,7.32,0,0,1-4-1.08,7.17,7.17,0,0,1-2.63-3.1A11,11,0,0,1,495,127v-1.51a11.06,11.06,0,0,1,.93-4.69,7.07,7.07,0,0,1,2.69-3.09,7.58,7.58,0,0,1,4.08-1.09,7.8,7.8,0,0,1,3.72.82,6,6,0,0,1,2.42,2.26,8.19,8.19,0,0,1,1.05,3.37h-3.24a4.89,4.89,0,0,0-1.13-2.86,3.7,3.7,0,0,0-2.82-1,3.76,3.76,0,0,0-3.3,1.59,8,8,0,0,0-1.12,4.55V127a8.5,8.5,0,0,0,1,4.59,3.54,3.54,0,0,0,3.23,1.65,4.86,4.86,0,0,0,2.21-.43,2.82,2.82,0,0,0,1.28-1.23,6.05,6.05,0,0,0,.59-2.07Z"/><path class="cls-7" d="M518.1,135.61V116.88h12.15v2.61h-8.91v5.18H529v2.56h-7.69V133h9v2.6Z"/><path class="cls-7" d="M559.13,129a10.48,10.48,0,0,0-3.41-1.52,12.51,12.51,0,0,1-4.46-2.22,4.32,4.32,0,0,1-1.55-3.44,4.51,4.51,0,0,1,.84-2.68,5.57,5.57,0,0,1,2.34-1.84,8.58,8.58,0,0,1,3.46-.66,7.94,7.94,0,0,1,3.59.77,5.64,5.64,0,0,1,2.34,2.07,5.29,5.29,0,0,1,.82,2.89h-3.24a3,3,0,0,0-.89-2.3,4.69,4.69,0,0,0-5.16-.13,2.34,2.34,0,0,0-.84,1.87,2,2,0,0,0,.94,1.71,10,10,0,0,0,3,1.3,15.6,15.6,0,0,1,3.52,1.44,5.75,5.75,0,0,1,2,1.92,5,5,0,0,1,.66,2.58,4.62,4.62,0,0,1-.81,2.72,5.21,5.21,0,0,1-2.32,1.78,10,10,0,0,1-7.05-.05,6.79,6.79,0,0,1-2.72-1.95,5,5,0,0,1-1.09-3.29h3.25a2.94,2.94,0,0,0,1.12,2.52,4.89,4.89,0,0,0,3,.82,4.11,4.11,0,0,0,2.54-.68,2.21,2.21,0,0,0,.87-1.84A2.3,2.3,0,0,0,559.13,129Z"/><path class="cls-7" d="M571.27,135.61V116.88h12.15v2.61h-8.91v5.18h7.68v2.56h-7.68V133h9v2.6Z"/><path class="cls-7" d="M602.06,135.61l-3.76-7.22h-3.63v7.22h-3.25V116.88H598a7.6,7.6,0,0,1,5,1.45,5.11,5.11,0,0,1,1.75,4.19,5.39,5.39,0,0,1-.89,3.13,5.6,5.6,0,0,1-2.55,2l4.21,7.82v.17Zm-7.39-16.12v6.29H598a4.19,4.19,0,0,0,1.92-.4,2.81,2.81,0,0,0,1.19-1.09,3.54,3.54,0,0,0-.46-4,3.61,3.61,0,0,0-2.6-.85Z"/><path class="cls-7" d="M627.82,116.88l-6.74,18.73h-3.15l-6.72-18.73h3.56l4.73,14.64,4.74-14.64Z"/><path class="cls-7" d="M638.66,116.88v18.73h-3.25V116.88Z"/><path class="cls-7" d="M662.2,129.51a7.5,7.5,0,0,1-1,3.29,6.19,6.19,0,0,1-2.47,2.25,8.38,8.38,0,0,1-3.82.81,7.32,7.32,0,0,1-4-1.08,7.17,7.17,0,0,1-2.63-3.1,11.16,11.16,0,0,1-.92-4.68v-1.51a11.06,11.06,0,0,1,.93-4.69,7.14,7.14,0,0,1,2.69-3.09,7.58,7.58,0,0,1,4.08-1.09,7.87,7.87,0,0,1,3.73.82,6,6,0,0,1,2.41,2.26,8.19,8.19,0,0,1,1.05,3.37H659a5,5,0,0,0-1.12-2.86,4.4,4.4,0,0,0-6.13.63,8,8,0,0,0-1.12,4.55V127a8.5,8.5,0,0,0,1,4.59,3.54,3.54,0,0,0,3.23,1.65,4.83,4.83,0,0,0,2.21-.43,2.82,2.82,0,0,0,1.28-1.23,6.28,6.28,0,0,0,.6-2.07Z"/><path class="cls-7" d="M670.39,135.61V116.88h12.15v2.61h-8.91v5.18h7.69v2.56h-7.69V133h9v2.6Z"/><path class="cls-2" d="M29.24,0A29.2,29.2,0,0,0,3.92,43.74L18.09,68.41,32.26,93.07l.17.28-2.2-3.81a32.15,32.15,0,0,1,20.52-47.3A29.21,29.21,0,0,1,76.46.1L57.74.06,29.31,0h-.07"/><path class="cls-4" d="M133.51,88.13l-3,5.16a29.19,29.19,0,0,1-49.12,2.14,29.2,29.2,0,0,1-49-2.08l9.45,16.46,11.65,20.27a32.11,32.11,0,0,0,55.63.13L120.89,110l11.73-20.22c.32-.54.61-1.09.89-1.63"/><path class="cls-8" d="M50.75,42.24a32.15,32.15,0,0,0-20.52,47.3l2.2,3.81a29.2,29.2,0,0,0,49,2.08c-.51-.72-1-1.47-1.43-2.26L65.78,68.51,51.61,43.84c-.31-.53-.59-1.07-.86-1.6"/><path class="cls-6" d="M76.92.1h-.46l9.73,0a29.2,29.2,0,0,1,26.07,42.23,32.16,32.16,0,0,1,21.25,45.77L144.8,68.68l14.27-24.61A29.19,29.19,0,0,0,133.89.23L105.44.17,77,.1h-.07"/><path class="cls-9" d="M76.46.1A29.21,29.21,0,0,0,50.75,42.24a32.41,32.41,0,0,1,7.33-.82h.07l23.38,0,23.39.05a32.56,32.56,0,0,1,7.34.84A29.2,29.2,0,0,0,86.19.13L76.46.1"/><path class="cls-10" d="M112.26,42.36c-.28.54-.57,1.08-.88,1.62L97.1,68.57,82.83,93.17c-.46.79-.94,1.54-1.44,2.26a29.19,29.19,0,0,0,49.12-2.14l3-5.16a32.16,32.16,0,0,0-21.25-45.77"/><path class="cls-11" d="M58.08,41.42a32.41,32.41,0,0,0-7.33.82c.27.53.55,1.07.86,1.6L65.78,68.51,80,93.17c.45.79.92,1.54,1.43,2.26.5-.72,1-1.47,1.44-2.26L97.1,68.57,111.38,44c.31-.54.6-1.08.88-1.62a32.56,32.56,0,0,0-7.34-.84l-23.39-.05-23.38,0h-.07"/></g></g></svg>