<?xml version="1.0" encoding="UTF-8"?>
<svg width="204px" height="43px" viewBox="0 0 204 43" version="1.1" xmlns="http://www.w3.org/2000/svg" xmlns:xlink="http://www.w3.org/1999/xlink">
    <!-- Generator: Sketch 54.1 (76490) - https://sketchapp.com -->
    <title>Group 76 Copy 3</title>
    <desc>Created with Sketch.</desc>
    <defs>
        <polygon id="path-1" points="0 0.1595 24.3690187 0.1595 24.3690187 26.2141 0 26.2141"></polygon>
    </defs>
    <g id="Symbols" stroke="none" stroke-width="1" fill="none" fill-rule="evenodd">
        <g id="header" transform="translate(-115.000000, -28.000000)">
            <g id="Group-5">
                <g id="Group-76-Copy-3" transform="translate(115.000000, 27.000000)">
                    <path d="M71.7060401,13.6301 C71.7257727,14.4826 71.5503717,15.1349 71.1907995,15.5694 C70.8082059,16.0292 70.3861471,16.368 69.933393,16.5759 C69.3929385,16.8278 68.7516283,16.9752 68.0335802,17.0148 L65.6327781,17.0962 L65.6327781,10.1761 L68.4271364,10.2311 C69.3490882,10.3488 70.0375374,10.5875 70.4727513,10.9395 C70.9200241,11.3036 71.2412273,11.6853 71.4221096,12.067 C71.6293021,12.54 71.7257727,13.0592 71.7060401,13.6114 L71.7060401,13.6202 L71.7060401,13.6301 Z M76.3958262,13.4354 C76.3958262,12.8348 76.3421096,12.2353 76.232484,11.6424 C76.1250508,11.1485 75.9628048,10.6161 75.750131,10.0595 C75.5275909,9.4798 75.1910401,8.9595 74.7470561,8.5129 C74.3556925,8.0553 73.8612807,7.6362 73.2725909,7.2644 C72.7737941,6.9597 72.1204251,6.6748 71.3300241,6.4185 C70.5319492,6.1578 69.5628583,6.0258 68.451254,6.0258 L60.942992,6.0258 L60.942992,28.325 L65.6634733,28.325 L65.6634733,21.5952 L68.1793824,21.5952 C68.946762,21.5743 69.7053717,21.4764 70.4321898,21.3037 C71.0460936,21.1552 71.7027513,20.9396 72.3824305,20.6624 C73.0840348,20.3775 73.695746,19.9639 74.2044091,19.4348 C74.6209866,19.0586 74.9970027,18.5812 75.3236872,18.0136 C75.6054251,17.5131 75.8608529,16.8905 76.0844893,16.1634 C76.3125107,15.4242 76.4177513,14.5046 76.3958262,13.4354 L76.3958262,13.4354 Z" id="Fill-1" fill="#0060A9"></path>
                    <path d="M87.9164973,19.97138 L81.799385,19.97138 L84.8173797,11.88638 L87.9164973,19.97138 Z M121.208717,6.90448 C121.179118,6.60418 121.036604,6.35118 120.796524,6.16968 C120.690187,6.09048 120.593717,6.03438 120.501631,6.00138 C120.302112,5.91448 120.058743,5.83088 119.778102,5.75498 C119.489786,5.67688 119.167487,5.62078 118.817781,5.58888 C118.46369,5.55478 118.076711,5.56578 117.666711,5.62078 C117.249037,5.67798 116.821497,5.80888 116.392861,6.01348 C116.292005,6.06408 116.193342,6.12568 116.099064,6.19608 C116.025615,6.24668 115.942299,6.31158 115.853503,6.38968 C115.739492,6.49088 115.650695,6.61298 115.589305,6.75378 L108.617112,18.05518 L101.625187,6.72188 C101.529813,6.57998 101.432246,6.45788 101.332487,6.35668 C101.233824,6.25768 101.130775,6.17958 101.026631,6.12238 C100.935642,6.05638 100.84246,5.99918 100.749278,5.95188 L100.718583,5.93758 C99.9643583,5.64938 99.2145187,5.54158 98.4887968,5.61968 C97.7828075,5.69668 97.2357754,5.79898 96.8170053,5.93098 L96.793984,5.93978 C96.6646257,5.99148 96.5473262,6.05748 96.4431818,6.13448 C96.345615,6.20158 96.2579144,6.29618 96.1724064,6.42488 C96.0737433,6.57338 96.0244118,6.73618 96.0244118,6.90668 L96.0244118,27.63398 L87.6490107,6.78238 L87.6380481,6.75708 C87.5240374,6.52938 87.3201337,6.33358 87.0329144,6.17628 C86.8257219,6.06078 86.5505615,5.94968 86.1920856,5.83748 C85.8270321,5.72308 85.3523529,5.66478 84.7822995,5.66478 C84.2034759,5.66478 83.7507219,5.71538 83.3944385,5.81878 C83.0403476,5.92218 82.772861,6.03218 82.5832086,6.15098 C82.3102406,6.31488 82.1260695,6.51948 82.0405615,6.75048 L73.4305615,28.05858 L78.7693316,28.05858 L80.236123,24.30208 L89.546631,24.30208 L91.0123262,28.05858 L96.0244118,28.05858 L96.0244118,28.08938 L100.775588,28.08938 L100.775588,14.17328 L108.370455,26.33708 L108.862674,26.33708 L116.488235,14.16888 L116.488235,28.08938 L121.210909,28.08938 L121.210909,6.93858 L121.208717,6.90448 Z" id="Fill-3" fill="#0060A9"></path>
                    <g id="Group-9" transform="translate(124.973262, 5.340500)" fill="#AB54FF">
                        <path d="M11.329484,8.2896 C11.3481203,9.1421 11.1738155,9.7944 10.8131471,10.2289 C10.4316497,10.6887 10.0084947,11.0275 9.5568369,11.2354 C9.0152861,11.4873 8.37397594,11.6347 7.65702406,11.6743 L5.25622193,11.7557 L5.25622193,4.8356 L8.05058021,4.8906 C8.97253209,5.0083 9.66098128,5.247 10.0950989,5.599 C10.5434679,5.9631 10.8635749,6.3448 11.0444572,6.7265 C11.252746,7.1995 11.3481203,7.7187 11.329484,8.2709 L11.329484,8.2797 L11.329484,8.2896 Z M16.0192701,8.0949 C16.0192701,7.4943 15.9655535,6.8948 15.8559278,6.3019 C15.7484947,5.808 15.5862487,5.2756 15.3724786,4.719 C15.1499385,4.1393 14.8133877,3.619 14.3705,3.1724 C13.9780401,2.7148 13.4836283,2.2957 12.8960348,1.9239 C12.397238,1.6192 11.743869,1.3343 10.9534679,1.078 C10.1542968,0.8173 9.18520588,0.6853 8.0736016,0.6853 L0.566435829,0.6853 L0.566435829,22.9845 L5.28691711,22.9845 L5.28691711,16.2547 L7.8028262,16.2547 C8.57020588,16.2338 9.32771925,16.1359 10.0556337,15.9632 C10.6695374,15.8147 11.3261952,15.5991 12.0047781,15.3219 C12.7063824,15.037 13.3191898,14.6234 13.8278529,14.0943 C14.2444305,13.7181 14.6204465,13.2407 14.947131,12.6731 C15.228869,12.1726 15.4842968,11.55 15.7079332,10.8229 C15.9359545,10.0837 16.0400989,9.1641 16.0192701,8.0949 L16.0192701,8.0949 Z" id="Fill-5"></path>
                        <path d="M29.8020668,14.89796 L23.6849545,14.89796 L26.7029492,6.81296 L29.8020668,14.89796 Z M29.5345802,1.70896 L29.5236176,1.68366 C29.409607,1.45596 29.2057032,1.26016 28.9195802,1.10396 C28.7112914,0.98736 28.436131,0.87626 28.0776551,0.76406 C27.7126016,0.64966 27.2390187,0.59246 26.667869,0.59246 C26.0901417,0.59246 25.6362914,0.64196 25.280008,0.74646 C24.9259171,0.84876 24.6584305,0.95876 24.4687781,1.07756 C24.1958102,1.24146 24.0127353,1.44606 23.926131,1.67706 L15.3172273,22.98516 L20.6549011,22.98516 L22.1216925,19.22866 L31.4322005,19.22866 L32.898992,22.98516 L38.0799011,22.98516 L29.5345802,1.70896 Z" id="Fill-7"></path>
                    </g>
                    <g id="Group-14" transform="translate(164.438503, 5.340500)" fill="#4578FF">
                        <path d="M14.3699519,11.75724 C14.3699519,13.85934 13.8821176,15.52584 12.9174118,16.71164 C11.9559947,17.89194 10.5615561,18.46614 8.65406952,18.46614 L4.99037968,18.38034 L4.99037968,5.29804 L8.65078075,5.29804 C9.59794652,5.29804 10.4354866,5.45204 11.1403797,5.75564 C11.8375989,6.05814 12.4317701,6.49154 12.9064492,7.04484 C13.3833209,7.60144 13.7505668,8.28234 13.9950321,9.06994 C14.2449786,9.86964 14.3699519,10.77384 14.3699519,11.75724 M16.1447914,3.80974 C15.2316096,2.85054 14.1211016,2.10254 12.8461551,1.58664 C11.5734011,1.07184 10.1603262,0.82104 8.65626203,0.84194 L4.6582139,0.78034 L0.33128877,0.78034 L0.33128877,22.92224 L4.6582139,22.92224 L8.65516578,22.92224 C10.168,22.90134 11.5788824,22.61864 12.8505401,22.08294 C14.1243904,21.54504 15.2338021,20.78164 16.1458877,19.81254 C17.0557807,18.84564 17.7771176,17.67634 18.2890695,16.33764 C18.8010214,15.00114 19.059738,13.50294 19.059738,11.88264 C19.059738,10.22164 18.8010214,8.68714 18.2901658,7.31984 C17.7771176,5.94814 17.0557807,4.76784 16.1447914,3.80974" id="Fill-10"></path>
                        <path d="M38.9993316,0.85492 C38.7537701,0.71412 38.4764171,0.60742 38.1870053,0.54032 C37.8471658,0.45012 37.4623797,0.40392 37.0403209,0.40392 C36.6193583,0.40392 36.2345722,0.45012 35.9056952,0.53812 C35.6009358,0.60852 35.3268717,0.71632 35.0911765,0.85822 C34.6998128,1.09362 34.6175936,1.41702 34.6175936,1.64582 L34.6175936,11.52822 L34.555107,12.61502 L34.555107,12.63372 C34.555107,13.75462 34.4838503,14.73582 34.3413369,15.54982 C34.2054011,16.33082 33.9521658,16.98532 33.5871123,17.49462 C33.2308289,17.99402 32.7451872,18.37132 32.142246,18.61662 C31.5195722,18.87072 30.711631,18.99942 29.7403476,18.99942 C28.747139,18.99942 27.9282353,18.87072 27.3066578,18.61662 C26.7048128,18.37132 26.2257487,17.99512 25.8793316,17.49792 C25.5241444,16.98752 25.2698128,16.33082 25.1229144,15.54542 C24.9705348,14.73582 24.894893,13.75572 24.894893,12.63372 L24.894893,1.80202 C24.894893,1.65352 24.8685829,1.51932 24.8203476,1.40492 C24.7775936,1.30592 24.7249733,1.22122 24.6646791,1.15302 C24.5967112,1.05842 24.523262,0.98912 24.4399465,0.94512 C24.2744118,0.85272 24.0606417,0.75812 23.784385,0.65802 C23.4993583,0.55572 23.1726738,0.48642 22.8141979,0.45232 C22.4590107,0.41932 22.0720321,0.43032 21.6620321,0.48532 C21.2355882,0.54362 20.8003743,0.69982 20.3706417,0.94952 L20.3322727,0.97152 L20.1481016,1.15742 L20.1261765,1.19262 C20.0329947,1.34882 19.9858556,1.53362 19.9858556,1.73932 L19.9858556,12.85262 C19.9858556,16.28022 20.8113369,18.96642 22.4392781,20.83642 C24.0781818,22.71852 26.5239305,23.67332 29.7129412,23.67332 C32.9172995,23.63042 35.3772995,22.64922 37.0260695,20.75832 C38.663877,18.87732 39.4948396,16.17572 39.4948396,12.72722 L39.4948396,1.67662 C39.4948396,1.32462 39.3238235,1.04082 38.9993316,0.85492" id="Fill-12"></path>
                    </g>
                    <g id="Group-17" transform="translate(0.000000, 0.940500)">
                        <mask id="mask-2" fill="white">
                            <use xlink:href="#path-1"></use>
                        </mask>
                        <g id="Clip-16"></g>
                        <path d="M8.51824332,0.1595 C1.98236096,0.1595 -2.11544652,7.2556 1.14262834,12.947 L5.27113102,20.1553 L8.73968717,26.2141 C5.63947326,20.6228 8.92824332,13.8523 14.7877353,12.5059 C12.0043396,6.9025 16.0528155,0.1914 22.4089118,0.1914 L22.4286444,0.1914 L24.3690187,0.1947 L16.823484,0.1782 L8.53687968,0.1595 L8.51824332,0.1595" id="Fill-15" fill="#0060A9" mask="url(#mask-2)"></path>
                    </g>
                    <path d="M38.9039572,26.85067 L38.0247594,28.37087 C36.3847594,31.20447 33.5257219,32.62127 30.6677807,32.62127 C28.0279947,32.62127 25.3882086,31.41237 23.7109358,28.99787 C22.0292781,31.39257 19.4015508,32.58937 16.7738235,32.58937 C13.9027273,32.58937 11.0327273,31.16157 9.39820856,28.30597 L8.73935829,27.15427 C8.76128342,27.19387 8.78320856,27.23457 8.80622995,27.27307 L12.2013369,33.19987 L15.5931551,39.12887 C17.3921123,42.26937 20.5493316,43.84017 23.7087433,43.84017 C26.8517112,43.84017 29.9968717,42.28257 31.8002139,39.16407 L35.2183422,33.25047 L38.6386631,27.34017 C38.7329412,27.17847 38.8206417,27.01457 38.9039572,26.85067" id="Fill-18" fill="#AB54FF"></path>
                    <path d="M14.7874064,13.44651 C8.92791444,14.79291 5.63914439,21.56231 8.73935829,27.15471 L9.39820856,28.30531 C11.0327273,31.16091 13.9027273,32.58981 16.7738235,32.58981 C19.4015508,32.58981 22.0292781,31.39191 23.7109358,28.99721 C23.5640374,28.78711 23.4259091,28.56821 23.2943583,28.33941 L19.1658556,21.12781 L15.0373529,13.91511 C14.9474599,13.76001 14.8641444,13.60381 14.7874064,13.44651" id="Fill-20" fill="#0020A9"></path>
                    <path d="M24.3689091,1.13542 L25.1088824,1.13652 C31.4770374,1.15192 35.5079733,7.88502 32.7048449,13.48182 C38.4371711,14.81502 41.6886684,21.33912 38.9041765,26.85012 L42.1852727,21.17742 L46.3455668,13.98342 C49.6310481,8.30192 45.5529733,1.18162 39.0072246,1.16622 L30.7173316,1.14862 L24.3689091,1.13542" id="Fill-22" fill="#4578FF"></path>
                    <path d="M22.4088021,1.13168 C16.0527059,1.13168 12.0042299,7.84388 14.7876257,13.44618 C15.4662086,13.29108 16.1787754,13.20748 16.9220374,13.20748 L16.9428663,13.20748 L23.7539091,13.22288 L30.5660481,13.23718 C31.3093102,13.23938 32.0240695,13.32408 32.7048449,13.48248 C35.5079733,7.88458 31.4770374,1.15148 25.1088824,1.13718 L24.3689091,1.13498 L22.429631,1.13168 L22.4088021,1.13168" id="Fill-24" fill="#1D4BC6"></path>
                    <path d="M32.7044064,13.48204 C32.6254759,13.64154 32.5399679,13.79884 32.4500749,13.95614 L28.290877,21.14684 L24.1305829,28.33864 C23.9990321,28.56744 23.8587112,28.78744 23.7107166,28.99754 C25.3879893,31.41314 28.0277754,32.62094 30.6686578,32.62094 C33.5255027,32.62094 36.3845401,31.20524 38.0256364,28.37054 L38.903738,26.85034 C41.6882299,21.33934 38.4367326,14.81524 32.7044064,13.48204" id="Fill-26" fill="#5381FE"></path>
                    <path d="M16.9221471,13.20759 C16.178885,13.20759 15.4663182,13.29119 14.7877353,13.44629 C14.8644733,13.60359 14.9477888,13.75979 15.0365856,13.91489 L19.1661845,21.12759 L23.2935909,28.33919 C23.426238,28.56799 23.5643663,28.78689 23.7101684,28.99699 C23.8581631,28.78689 23.998484,28.56799 24.1300348,28.33919 L28.2903289,21.14629 L32.4495267,13.95559 C32.5394198,13.79939 32.6249278,13.64099 32.7038583,13.48259 C32.0241791,13.32419 31.3094198,13.23949 30.5661578,13.23729 L23.7529225,13.22299 L16.9429759,13.20759 L16.9221471,13.20759" id="Fill-28" fill="#002587"></path>
                    <path d="M65.1253209,36.99124 C65.0847594,36.83174 65.0288503,36.68654 64.9564973,36.55344 C64.8852406,36.41814 64.7931551,36.30374 64.6802406,36.20584 C64.5684225,36.10794 64.4357754,36.03314 64.2855882,35.97924 C64.1343048,35.92424 63.9589037,35.89784 63.759385,35.89784 C63.4677807,35.89784 63.2156417,35.95724 63.0029679,36.07494 C62.7913904,36.19264 62.6181818,36.35104 62.4855348,36.54904 C62.3528877,36.74594 62.2542246,36.97034 62.1895455,37.22224 C62.1259626,37.47304 62.0930749,37.73044 62.0930749,37.99224 C62.0930749,38.25404 62.1259626,38.51144 62.1895455,38.76224 C62.2542246,39.01414 62.3528877,39.23854 62.4855348,39.43654 C62.6181818,39.63344 62.7913904,39.79184 63.0029679,39.90954 C63.2156417,40.02834 63.4677807,40.08664 63.759385,40.08664 C63.9753476,40.08664 64.1639037,40.04924 64.3261497,39.97554 C64.4916845,39.90184 64.6331016,39.79844 64.7504011,39.66754 C64.8666043,39.53554 64.9586898,39.38374 65.0266578,39.20994 C65.0935294,39.03394 65.1362834,38.84694 65.1549198,38.64674 L66.0933155,38.64674 C66.0713904,38.97564 66.0012299,39.27594 65.8806417,39.54764 C65.7611497,39.81934 65.5989037,40.05474 65.395,40.25274 C65.19,40.45074 64.9499198,40.60254 64.6736631,40.71034 C64.3974064,40.81814 64.0915508,40.87204 63.759385,40.87204 C63.3504813,40.87204 62.9843316,40.79614 62.6587433,40.64434 C62.3331551,40.49474 62.0590909,40.28684 61.8343583,40.02504 C61.6074332,39.76434 61.4364171,39.45744 61.3158289,39.10874 C61.1941444,38.75894 61.1338503,38.38824 61.1338503,37.99224 C61.1338503,37.60284 61.1941444,37.23324 61.3158289,36.88344 C61.4364171,36.53474 61.6074332,36.23004 61.8343583,35.96714 C62.0590909,35.70534 62.3331551,35.49854 62.6587433,35.34344 C62.9843316,35.18944 63.3504813,35.11244 63.759385,35.11244 C64.0674332,35.11244 64.3546524,35.15534 64.6265241,35.23894 C64.8983957,35.32364 65.1362834,35.44794 65.3434759,35.60964 C65.5517647,35.77134 65.7183957,35.96714 65.8466578,36.19814 C65.9749198,36.42914 66.0549465,36.69314 66.0845455,36.99124 L65.1253209,36.99124 Z" id="Fill-30" fill="#231F20"></path>
                    <polygon id="Fill-32" fill="#231F20" points="67.6197433 35.24356 71.5640749 35.24356 71.5640749 36.07516 68.5789679 36.07516 68.5789679 37.51506 71.3415348 37.51506 71.3415348 38.30046 68.5789679 38.30046 68.5789679 39.90976 71.6166952 39.90976 71.6166952 40.74136 67.6197433 40.74136"></polygon>
                    <path d="M74.0666096,37.84638 L75.4709144,37.84638 C75.5783476,37.84638 75.6879733,37.82988 75.8008877,37.80018 C75.9127059,37.76938 76.0168503,37.71988 76.1111283,37.64948 C76.2054064,37.58128 76.2821444,37.48888 76.340246,37.37228 C76.4005401,37.25678 76.430139,37.11268 76.430139,36.93778 C76.430139,36.75848 76.4049251,36.60888 76.3534011,36.49118 C76.301877,36.37238 76.2317166,36.27888 76.1451123,36.21068 C76.0574118,36.14028 75.9598449,36.09298 75.8458342,36.06768 C75.734016,36.04128 75.6123316,36.02918 75.486262,36.02918 L74.0666096,36.02918 L74.0666096,37.84638 Z M73.107385,35.24378 L75.524631,35.24378 C75.9127059,35.24378 76.2295241,35.30098 76.4750856,35.41318 C76.7217433,35.52648 76.9102995,35.66728 77.0429465,35.83668 C77.1755936,36.00608 77.2676791,36.19088 77.3148182,36.39108 C77.3641497,36.59018 77.3893636,36.77498 77.3893636,36.94548 C77.3893636,37.11488 77.3641497,37.29858 77.3148182,37.49658 C77.2676791,37.69348 77.1755936,37.87718 77.0429465,38.04658 C76.9102995,38.21598 76.7217433,38.35568 76.4750856,38.46568 C76.2295241,38.57678 75.9127059,38.63178 75.524631,38.63178 L74.0666096,38.63178 L74.0666096,40.74158 L73.107385,40.74158 L73.107385,35.24378 Z" id="Fill-34" fill="#231F20"></path>
                    <path d="M79.8369759,39.95618 L81.532885,39.95618 C81.823393,39.95618 82.0514144,39.88028 82.2114679,39.72848 C82.3726176,39.57778 82.4537406,39.36328 82.4537406,39.08608 C82.4537406,38.81438 82.3726176,38.60428 82.2114679,38.45908 C82.0514144,38.31168 81.823393,38.23798 81.532885,38.23798 L79.8369759,38.23798 L79.8369759,39.95618 Z M79.8369759,37.54608 L81.4024305,37.54608 C81.6315481,37.54608 81.823393,37.48008 81.9779652,37.34918 C82.1303449,37.21938 82.2070829,37.03018 82.2070829,36.78378 C82.2070829,36.50658 82.139115,36.31188 81.9998904,36.19858 C81.8628583,36.08528 81.6633396,36.02918 81.4024305,36.02918 L79.8369759,36.02918 L79.8369759,37.54608 Z M78.8777513,35.24378 L81.5394626,35.24378 C82.0316818,35.24378 82.425238,35.35598 82.7212273,35.58148 C83.0183128,35.80808 83.1663075,36.15018 83.1663075,36.60668 C83.1663075,36.88388 83.0983396,37.12148 82.9635,37.31948 C82.8286604,37.51638 82.6357193,37.66928 82.3846765,37.77708 L82.3846765,37.79248 C82.7212273,37.86508 82.9777513,38.02458 83.1509599,38.27428 C83.3252647,38.52178 83.4129652,38.83418 83.4129652,39.20928 C83.4129652,39.42488 83.3745963,39.62618 83.296762,39.81318 C83.2200241,40.00128 83.1005321,40.16188 82.9371898,40.29938 C82.7727513,40.43578 82.5622701,40.54248 82.3079385,40.62168 C82.0514144,40.70198 81.7466551,40.74158 81.3936604,40.74158 L78.8777513,40.74158 L78.8777513,35.24378 Z" id="Fill-36" fill="#231F20"></path>
                    <polygon id="Fill-38" fill="#231F20" points="84.9071631 35.24356 85.8663877 35.24356 85.8663877 39.33996 88.1915481 35.24356 89.3195963 35.24356 89.3195963 40.74136 88.3603717 40.74136 88.3603717 36.61416 86.0056123 40.74136 84.9071631 40.74136"></polygon>
                    <path d="M94.8226952,36.99124 C94.7821337,36.83174 94.7262246,36.68654 94.6538717,36.55344 C94.582615,36.41814 94.4905294,36.30374 94.377615,36.20584 C94.2657968,36.10794 94.1331497,36.03314 93.9829626,35.97924 C93.8316791,35.92424 93.6562781,35.89784 93.4567594,35.89784 C93.1651551,35.89784 92.913016,35.95724 92.7003422,36.07494 C92.4887647,36.19264 92.3155561,36.35104 92.1829091,36.54904 C92.050262,36.74594 91.9515989,36.97034 91.8869198,37.22224 C91.8233369,37.47304 91.7904492,37.73044 91.7904492,37.99224 C91.7904492,38.25404 91.8233369,38.51144 91.8869198,38.76224 C91.9515989,39.01414 92.050262,39.23854 92.1829091,39.43654 C92.3155561,39.63344 92.4887647,39.79184 92.7003422,39.90954 C92.913016,40.02834 93.1651551,40.08664 93.4567594,40.08664 C93.6727219,40.08664 93.8612781,40.04924 94.0235241,39.97554 C94.1890588,39.90184 94.3304759,39.79844 94.4477754,39.66754 C94.5639786,39.53554 94.6560642,39.38374 94.7240321,39.20994 C94.7909037,39.03394 94.8336578,38.84694 94.8522941,38.64674 L95.7906898,38.64674 C95.7687647,38.97564 95.6986043,39.27594 95.578016,39.54764 C95.4585241,39.81934 95.2962781,40.05474 95.0923743,40.25274 C94.8873743,40.45074 94.6472941,40.60254 94.3710374,40.71034 C94.0947807,40.81814 93.7889251,40.87204 93.4567594,40.87204 C93.0478556,40.87204 92.6817059,40.79614 92.3561176,40.64434 C92.0305294,40.49474 91.7564652,40.28684 91.5317326,40.02504 C91.3048075,39.76434 91.1337914,39.45744 91.0132032,39.10874 C90.8915187,38.75894 90.8312246,38.38824 90.8312246,37.99224 C90.8312246,37.60284 90.8915187,37.23324 91.0132032,36.88344 C91.1337914,36.53474 91.3048075,36.23004 91.5317326,35.96714 C91.7564652,35.70534 92.0305294,35.49854 92.3561176,35.34344 C92.6817059,35.18944 93.0478556,35.11244 93.4567594,35.11244 C93.7648075,35.11244 94.0520267,35.15534 94.3238984,35.23894 C94.5957701,35.32364 94.8336578,35.44794 95.0408503,35.60964 C95.249139,35.77134 95.4157701,35.96714 95.5440321,36.19814 C95.6722941,36.42914 95.7523209,36.69314 95.7819198,36.99124 L94.8226952,36.99124 Z" id="Fill-40" fill="#231F20"></path>
                    <path d="M102.434444,35.89773 C102.14284,35.89773 101.890701,35.95713 101.679123,36.07483 C101.466449,36.19363 101.293241,36.35093 101.160594,36.54893 C101.027947,36.74583 100.929283,36.97133 100.864604,37.22213 C100.801021,37.47403 100.768134,37.73033 100.768134,37.99213 C100.768134,38.25503 100.801021,38.51133 100.864604,38.76213 C100.929283,39.01403 101.027947,39.23843 101.160594,39.43643 C101.293241,39.63333 101.466449,39.79173 101.679123,39.90943 C101.890701,40.02823 102.14284,40.08763 102.434444,40.08763 C102.726048,40.08763 102.978187,40.02823 103.189765,39.90943 C103.402439,39.79173 103.575647,39.63333 103.708294,39.43643 C103.840941,39.23843 103.939604,39.01403 104.004283,38.76213 C104.067866,38.51133 104.100754,38.25503 104.100754,37.99213 C104.100754,37.73033 104.067866,37.47403 104.004283,37.22213 C103.939604,36.97133 103.840941,36.74583 103.708294,36.54893 C103.575647,36.35093 103.402439,36.19363 103.189765,36.07483 C102.978187,35.95713 102.726048,35.89773 102.434444,35.89773 M102.434444,35.11233 C102.843348,35.11233 103.21169,35.18933 103.535086,35.34333 C103.860674,35.49843 104.13693,35.70523 104.361663,35.96703 C104.586396,36.22993 104.759604,36.53463 104.879096,36.88333 C104.999684,37.23313 105.059979,37.60273 105.059979,37.99213 C105.059979,38.38813 104.999684,38.75993 104.879096,39.10863 C104.759604,39.45733 104.586396,39.76423 104.361663,40.02493 C104.13693,40.28673 103.860674,40.49463 103.535086,40.64423 C103.21169,40.79603 102.843348,40.87193 102.434444,40.87193 C102.02554,40.87193 101.65939,40.79603 101.333802,40.64423 C101.008214,40.49463 100.73415,40.28673 100.509417,40.02493 C100.282492,39.76423 100.111476,39.45733 99.9908877,39.10863 C99.8692032,38.75993 99.8089091,38.38813 99.8089091,37.99213 C99.8089091,37.60273 99.8692032,37.23313 99.9908877,36.88333 C100.111476,36.53463 100.282492,36.22993 100.509417,35.96703 C100.73415,35.70523 101.008214,35.49843 101.333802,35.34333 C101.65939,35.18933 102.02554,35.11233 102.434444,35.11233" id="Fill-42" fill="#231F20"></path>
                    <polygon id="Fill-44" fill="#231F20" points="106.562508 35.24356 107.521733 35.24356 107.521733 37.43036 110.015717 37.43036 110.015717 35.24356 110.974941 35.24356 110.974941 40.74136 110.015717 40.74136 110.015717 38.26196 107.521733 38.26196 107.521733 40.74136 106.562508 40.74136"></polygon>
                    <path d="M112.510578,39.94111 C112.643225,39.94111 112.757235,39.91251 112.85261,39.85641 C112.946888,39.79921 113.026914,39.71891 113.094882,39.61331 C113.161754,39.50771 113.213278,39.38451 113.251647,39.24371 C113.290016,39.10181 113.321807,38.94781 113.348118,38.77731 C113.366754,38.60791 113.386487,38.45281 113.405123,38.31201 C113.422663,38.17121 113.438011,38.03041 113.446781,37.88851 C113.456647,37.74771 113.465417,37.59811 113.474187,37.44301 C113.482957,37.28571 113.487342,37.10421 113.489535,36.89851 C113.491727,36.69391 113.495016,36.45741 113.497209,36.19121 C113.499401,35.92391 113.501594,35.60821 113.501594,35.24301 L117.277102,35.24301 L117.277102,40.74191 L116.317877,40.74191 L116.317877,36.07461 L114.399428,36.07461 C114.388465,36.41451 114.381888,36.71371 114.379695,36.97661 C114.377503,37.23841 114.370925,37.48041 114.364348,37.70371 C114.356674,37.92701 114.343519,38.14261 114.321594,38.35051 C114.300765,38.55841 114.27007,38.78281 114.229508,39.02481 C114.204294,39.18431 114.163733,39.36471 114.107824,39.56711 C114.049722,39.77061 113.962021,39.95981 113.842529,40.13691 C113.721941,40.31401 113.56408,40.46471 113.371139,40.58791 C113.176005,40.71001 112.928251,40.77271 112.625684,40.77271 C112.53031,40.77271 112.448091,40.76941 112.384508,40.76501 C112.319829,40.75951 112.258439,40.75181 112.195952,40.74191 L112.195952,39.91031 C112.258439,39.91911 112.311059,39.92791 112.358198,39.93231 C112.403144,39.93781 112.454668,39.94111 112.510578,39.94111" id="Fill-46" fill="#231F20"></path>
                    <path d="M120.205751,38.55423 L121.879735,38.55423 L121.057543,36.19143 L121.036714,36.19143 L120.205751,38.55423 Z M120.544495,35.24323 L121.56511,35.24323 L123.674307,40.74103 L122.647115,40.74103 L122.132971,39.28573 L119.947035,39.28573 L119.430698,40.74103 L118.441874,40.74103 L120.544495,35.24323 Z" id="Fill-48" fill="#231F20"></path>
                    <path d="M126.239439,33.59565 C126.28,33.81125 126.376471,33.96305 126.526658,34.04995 C126.677941,34.13685 126.855535,34.18085 127.059439,34.18085 C127.254572,34.18085 127.421203,34.13245 127.56262,34.03455 C127.704037,33.93775 127.79393,33.79145 127.834492,33.59565 L128.272995,33.59565 C128.230241,33.95975 128.097594,34.23255 127.868476,34.41185 C127.641551,34.59115 127.353235,34.68135 126.999144,34.68135 C126.64615,34.68135 126.363316,34.58895 126.15393,34.40415 C125.943449,34.21935 125.823957,33.94985 125.794358,33.59565 L126.239439,33.59565 Z M124.826364,35.24345 L125.785588,35.24345 L125.785588,39.33985 L128.110749,35.24345 L129.238797,35.24345 L129.238797,40.74125 L128.279572,40.74125 L128.279572,36.61405 L125.924813,40.74125 L124.826364,40.74125 L124.826364,35.24345 Z" id="Fill-50" fill="#231F20"></path>
                    <polygon id="Fill-52" fill="#231F20" points="131.01846 35.24356 131.977684 35.24356 131.977684 37.43036 134.471668 37.43036 134.471668 35.24356 135.430893 35.24356 135.430893 40.74136 134.471668 40.74136 134.471668 38.26196 131.977684 38.26196 131.977684 40.74136 131.01846 40.74136"></polygon>
                    <path d="M143.71958,36.99124 C143.679019,36.83174 143.62311,36.68654 143.550757,36.55344 C143.4795,36.41814 143.387414,36.30374 143.2745,36.20584 C143.162682,36.10794 143.030035,36.03314 142.879848,35.97924 C142.728564,35.92424 142.553163,35.89784 142.353644,35.89784 C142.06204,35.89784 141.809901,35.95724 141.597227,36.07494 C141.38565,36.19264 141.212441,36.35104 141.079794,36.54904 C140.947147,36.74594 140.848484,36.97034 140.783805,37.22224 C140.720222,37.47304 140.687334,37.73044 140.687334,37.99224 C140.687334,38.25404 140.720222,38.51144 140.783805,38.76224 C140.848484,39.01414 140.947147,39.23854 141.079794,39.43654 C141.212441,39.63344 141.38565,39.79184 141.597227,39.90954 C141.809901,40.02834 142.06204,40.08664 142.353644,40.08664 C142.569607,40.08664 142.758163,40.04924 142.920409,39.97554 C143.085944,39.90184 143.227361,39.79844 143.34466,39.66754 C143.460864,39.53554 143.552949,39.38374 143.620917,39.20994 C143.687789,39.03394 143.730543,38.84694 143.749179,38.64674 L144.687575,38.64674 C144.66565,38.97564 144.595489,39.27594 144.474901,39.54764 C144.355409,39.81934 144.193163,40.05474 143.989259,40.25274 C143.784259,40.45074 143.544179,40.60254 143.267922,40.71034 C142.991666,40.81814 142.68581,40.87204 142.353644,40.87204 C141.944741,40.87204 141.578591,40.79614 141.253003,40.64434 C140.927414,40.49474 140.65335,40.28684 140.428618,40.02504 C140.201693,39.76434 140.030676,39.45744 139.910088,39.10874 C139.788404,38.75894 139.72811,38.38824 139.72811,37.99224 C139.72811,37.60284 139.788404,37.23324 139.910088,36.88344 C140.030676,36.53474 140.201693,36.23004 140.428618,35.96714 C140.65335,35.70534 140.927414,35.49854 141.253003,35.34344 C141.578591,35.18944 141.944741,35.11244 142.353644,35.11244 C142.661693,35.11244 142.948912,35.15534 143.220783,35.23894 C143.492655,35.32364 143.730543,35.44794 143.937735,35.60964 C144.146024,35.77134 144.312655,35.96714 144.440917,36.19814 C144.569179,36.42914 144.649206,36.69314 144.678805,36.99124 L143.71958,36.99124 Z" id="Fill-54" fill="#231F20"></path>
                    <polygon id="Fill-56" fill="#231F20" points="145.691636 35.24356 150.125995 35.24356 150.125995 36.07516 148.385139 36.07516 148.385139 40.74136 147.425914 40.74136 147.425914 36.07516 145.691636 36.07516"></polygon>
                    <path d="M152.376171,37.84638 L153.780476,37.84638 C153.887909,37.84638 153.997535,37.82988 154.110449,37.80018 C154.222267,37.76938 154.326412,37.71988 154.42069,37.64948 C154.514968,37.58128 154.591706,37.48888 154.649807,37.37228 C154.710102,37.25678 154.739701,37.11268 154.739701,36.93778 C154.739701,36.75848 154.714487,36.60888 154.662963,36.49118 C154.611439,36.37238 154.541278,36.27888 154.454674,36.21068 C154.366973,36.14028 154.269406,36.09298 154.155396,36.06768 C154.043578,36.04128 153.921893,36.02918 153.795824,36.02918 L152.376171,36.02918 L152.376171,37.84638 Z M151.416947,35.24378 L153.834193,35.24378 C154.222267,35.24378 154.539086,35.30098 154.784647,35.41318 C155.031305,35.52648 155.219861,35.66728 155.352508,35.83668 C155.485155,36.00608 155.577241,36.19088 155.62438,36.39108 C155.673711,36.59018 155.698925,36.77498 155.698925,36.94548 C155.698925,37.11488 155.673711,37.29858 155.62438,37.49658 C155.577241,37.69348 155.485155,37.87718 155.352508,38.04658 C155.219861,38.21598 155.031305,38.35568 154.784647,38.46568 C154.539086,38.57678 154.222267,38.63178 153.834193,38.63178 L152.376171,38.63178 L152.376171,40.74158 L151.416947,40.74158 L151.416947,35.24378 Z" id="Fill-58" fill="#231F20"></path>
                    <path d="M158.313497,38.55423 L159.987481,38.55423 L159.165289,36.19143 L159.14446,36.19143 L158.313497,38.55423 Z M158.652241,35.24323 L159.672856,35.24323 L161.782053,40.74103 L160.754861,40.74103 L160.240717,39.28573 L158.054781,39.28573 L157.538444,40.74103 L156.54962,40.74103 L158.652241,35.24323 Z" id="Fill-60" fill="#231F20"></path>
                    <polygon id="Fill-62" fill="#231F20" points="162.482342 35.24356 163.625738 35.24356 164.869989 37.18396 166.164668 35.24356 167.240096 35.24356 165.42908 37.89236 167.370551 40.74136 166.204134 40.74136 164.837102 38.63926 163.450337 40.74136 162.351888 40.74136 164.293358 37.89236"></polygon>
                    <path d="M170.916174,35.89773 C170.622377,35.89773 170.37243,35.95713 170.160853,36.07483 C169.945987,36.19363 169.774971,36.35093 169.642324,36.54893 C169.509676,36.74583 169.411013,36.97133 169.346334,37.22213 C169.282751,37.47403 169.249864,37.73033 169.249864,37.99213 C169.249864,38.25503 169.282751,38.51133 169.346334,38.76213 C169.411013,39.01403 169.509676,39.23843 169.642324,39.43643 C169.774971,39.63333 169.945987,39.79173 170.160853,39.90943 C170.37243,40.02823 170.622377,40.08763 170.916174,40.08763 C171.207778,40.08763 171.459917,40.02823 171.671495,39.90943 C171.884168,39.79173 172.055184,39.63333 172.190024,39.43643 C172.322671,39.23843 172.421334,39.01403 172.486013,38.76213 C172.547404,38.51133 172.580291,38.25503 172.580291,37.99213 C172.580291,37.73033 172.547404,37.47403 172.486013,37.22213 C172.421334,36.97133 172.322671,36.74583 172.190024,36.54893 C172.055184,36.35093 171.884168,36.19363 171.671495,36.07483 C171.459917,35.95713 171.207778,35.89773 170.916174,35.89773 M170.916174,35.11233 C171.325078,35.11233 171.691227,35.18933 172.016816,35.34333 C172.342404,35.49843 172.616468,35.70523 172.841201,35.96703 C173.065933,36.22993 173.239142,36.53463 173.35973,36.88333 C173.479222,37.23313 173.539516,37.60273 173.539516,37.99213 C173.539516,38.38813 173.479222,38.75993 173.35973,39.10863 C173.239142,39.45733 173.065933,39.76423 172.841201,40.02493 C172.616468,40.28673 172.342404,40.49463 172.016816,40.64423 C171.691227,40.79603 171.325078,40.87193 170.916174,40.87193 C170.505078,40.87193 170.138928,40.79603 169.81334,40.64423 C169.489944,40.49463 169.213687,40.28673 168.988955,40.02493 C168.764222,39.76423 168.591013,39.45733 168.471521,39.10863 C168.350933,38.75993 168.290639,38.38813 168.290639,37.99213 C168.290639,37.60273 168.350933,37.23313 168.471521,36.88333 C168.591013,36.53463 168.764222,36.22993 168.988955,35.96703 C169.213687,35.70523 169.489944,35.49843 169.81334,35.34333 C170.138928,35.18933 170.505078,35.11233 170.916174,35.11233" id="Fill-64" fill="#231F20"></path>
                    <path d="M176.027032,39.95618 L177.722941,39.95618 C178.013449,39.95618 178.241471,39.88028 178.401524,39.72848 C178.562674,39.57778 178.643797,39.36328 178.643797,39.08608 C178.643797,38.81438 178.562674,38.60428 178.401524,38.45908 C178.241471,38.31168 178.013449,38.23798 177.722941,38.23798 L176.027032,38.23798 L176.027032,39.95618 Z M176.027032,37.54608 L177.592487,37.54608 C177.821604,37.54608 178.013449,37.48008 178.168021,37.34918 C178.320401,37.21938 178.397139,37.03018 178.397139,36.78378 C178.397139,36.50658 178.329171,36.31188 178.189947,36.19858 C178.052914,36.08528 177.853396,36.02918 177.592487,36.02918 L176.027032,36.02918 L176.027032,37.54608 Z M175.067807,35.24378 L177.729519,35.24378 C178.221738,35.24378 178.615294,35.35598 178.911283,35.58148 C179.208369,35.80808 179.356364,36.15018 179.356364,36.60668 C179.356364,36.88388 179.288396,37.12148 179.153556,37.31948 C179.018717,37.51638 178.825775,37.66928 178.574733,37.77708 L178.574733,37.79248 C178.911283,37.86508 179.167807,38.02458 179.341016,38.27428 C179.515321,38.52178 179.603021,38.83418 179.603021,39.20928 C179.603021,39.42488 179.564652,39.62618 179.486818,39.81318 C179.41008,40.00128 179.290588,40.16188 179.127246,40.29938 C178.962807,40.43578 178.752326,40.54248 178.497995,40.62168 C178.241471,40.70198 177.936711,40.74158 177.583717,40.74158 L175.067807,40.74158 L175.067807,35.24378 Z" id="Fill-66" fill="#231F20"></path>
                    <path d="M182.249166,38.55423 L183.920957,38.55423 L183.100957,36.19143 L183.077936,36.19143 L182.249166,38.55423 Z M182.587909,35.24323 L183.606332,35.24323 L185.717722,40.74103 L184.690529,40.74103 L184.176385,39.28573 L181.988257,39.28573 L181.474112,40.74103 L180.485289,40.74103 L182.587909,35.24323 Z" id="Fill-68" fill="#231F20"></path>
                    <polygon id="Fill-70" fill="#231F20" points="186.867586 35.24356 187.82681 35.24356 187.82681 37.43036 190.320794 37.43036 190.320794 35.24356 191.280019 35.24356 191.280019 40.74136 190.320794 40.74136 190.320794 38.26196 187.82681 38.26196 187.82681 40.74136 186.867586 40.74136"></polygon>
                    <polygon id="Fill-72" fill="#231F20" points="193.061874 35.24356 194.021099 35.24356 194.021099 39.33996 196.346259 35.24356 197.474307 35.24356 197.474307 40.74136 196.515083 40.74136 196.515083 36.61416 194.158131 40.74136 193.061874 40.74136"></polygon>
                    <path d="M202.268676,36.02874 L200.849024,36.02874 C200.722955,36.02874 200.60127,36.04194 200.489452,36.06724 C200.375441,36.09364 200.277874,36.14094 200.190174,36.21024 C200.101377,36.27954 200.033409,36.37194 199.981885,36.49074 C199.930361,36.60844 199.90734,36.75804 199.90734,36.93734 C199.90734,37.11224 199.934746,37.25634 199.99504,37.37294 C200.053142,37.48844 200.12988,37.58084 200.224158,37.65014 C200.318436,37.71944 200.42258,37.76894 200.534398,37.79974 C200.647313,37.83054 200.756939,37.84594 200.866564,37.84594 L202.268676,37.84594 L202.268676,36.02874 Z M203.227901,40.74114 L202.268676,40.74114 L202.268676,38.63134 L201.226136,38.63134 L199.782366,40.74114 L198.633489,40.74114 L200.174826,38.57084 C199.917206,38.50814 199.712206,38.41684 199.553249,38.29694 C199.395388,38.17594 199.271511,38.03954 199.181618,37.88774 C199.091725,37.73704 199.029238,37.57864 198.997447,37.41474 C198.962366,37.25084 198.948115,37.09464 198.948115,36.94504 C198.948115,36.77564 198.971136,36.59084 199.020468,36.39064 C199.067607,36.19044 199.159693,36.00564 199.29234,35.83624 C199.424987,35.66684 199.613543,35.52604 199.855816,35.41274 C200.099184,35.30054 200.417099,35.24334 200.810655,35.24334 L203.227901,35.24334 L203.227901,40.74114 Z" id="Fill-74" fill="#231F20"></path>
                </g>
            </g>
        </g>
    </g>
</svg>