<svg width="182" height="72" viewBox="0 0 182 72" fill="none" xmlns="http://www.w3.org/2000/svg">
<path d="M0.976 53.888V43.424L32.656 0.799995H48.976L17.968 43.424L10.384 41.216H63.28V53.888H0.976ZM37.168 68V53.888L37.648 41.216V28.64H52.336V68H37.168ZM78.6385 68.768C76.0785 68.768 73.8705 67.904 72.0145 66.176C70.2225 64.384 69.3265 62.112 69.3265 59.36C69.3265 56.608 70.2225 54.4 72.0145 52.736C73.8705 51.008 76.0785 50.144 78.6385 50.144C81.2625 50.144 83.4705 51.008 85.2625 52.736C87.0545 54.4 87.9505 56.608 87.9505 59.36C87.9505 62.112 87.0545 64.384 85.2625 66.176C83.4705 67.904 81.2625 68.768 78.6385 68.768ZM117.78 69.152C113.108 69.152 108.468 68.544 103.859 67.328C99.3155 66.048 95.4115 64.256 92.1475 61.952L98.2915 50.048C100.852 51.904 103.796 53.376 107.124 54.464C110.516 55.552 113.94 56.096 117.396 56.096C121.3 56.096 124.372 55.328 126.612 53.792C128.852 52.256 129.972 50.112 129.972 47.36C129.972 45.632 129.524 44.096 128.628 42.752C127.732 41.408 126.132 40.384 123.828 39.68C121.588 38.976 118.42 38.624 114.324 38.624H97.1395L100.596 0.799995H141.588V13.28H106.164L114.228 6.17599L111.828 33.152L103.764 26.048H117.972C124.628 26.048 129.972 26.976 134.004 28.832C138.1 30.624 141.076 33.088 142.932 36.224C144.788 39.36 145.716 42.912 145.716 46.88C145.716 50.848 144.724 54.528 142.74 57.92C140.756 61.248 137.684 63.968 133.524 66.08C129.428 68.128 124.18 69.152 117.78 69.152ZM147.126 71.5L158.676 38.53H163.541L151.991 71.5H147.126ZM171.682 68.42C169.979 68.42 168.287 68.1983 166.607 67.755C164.951 67.2883 163.527 66.635 162.337 65.795L164.577 61.455C165.511 62.1317 166.584 62.6683 167.797 63.065C169.034 63.4617 170.282 63.66 171.542 63.66C172.966 63.66 174.086 63.38 174.902 62.82C175.719 62.26 176.127 61.4783 176.127 60.475C176.127 59.845 175.964 59.285 175.637 58.795C175.311 58.305 174.727 57.9317 173.887 57.675C173.071 57.4183 171.916 57.29 170.422 57.29H164.157L165.417 43.5H180.362V48.05H167.447L170.387 45.46L169.512 55.295L166.572 52.705H171.752C174.179 52.705 176.127 53.0433 177.597 53.72C179.091 54.3733 180.176 55.2717 180.852 56.415C181.529 57.5583 181.867 58.8533 181.867 60.3C181.867 61.7467 181.506 63.0883 180.782 64.325C180.059 65.5383 178.939 66.53 177.422 67.3C175.929 68.0467 174.016 68.42 171.682 68.42Z" fill="#7A49D2"/>
</svg>
