<svg width="187" height="63" viewBox="0 0 187 63" fill="none" xmlns="http://www.w3.org/2000/svg">
<path d="M15 33L18.3677 43.3647H29.2658L20.4491 49.7705L23.8168 60.1353L15 53.7295L6.18322 60.1353L9.55093 49.7705L0.734152 43.3647H11.6323L15 33Z" fill="#FFBE15"/>
<path d="M52 33L55.3677 43.3647H66.2658L57.4491 49.7705L60.8168 60.1353L52 53.7295L43.1832 60.1353L46.5509 49.7705L37.7342 43.3647H48.6323L52 33Z" fill="#FFBE15"/>
<path d="M92 33L95.3677 43.3647H106.266L97.4491 49.7705L100.817 60.1353L92 53.7295L83.1832 60.1353L86.5509 49.7705L77.7342 43.3647H88.6323L92 33Z" fill="#FFBE15"/>
<path d="M132 33L135.368 43.3647H146.266L137.449 49.7705L140.817 60.1353L132 53.7295L123.183 60.1353L126.551 49.7705L117.734 43.3647H128.632L132 33Z" fill="#FFBE15"/>
<path d="M172 34.618L174.892 43.5193L175.004 43.8647H175.368H184.727L177.155 49.366L176.861 49.5795L176.974 49.925L179.866 58.8262L172.294 53.325L172 53.1115L171.706 53.325L164.134 58.8262L167.026 49.925L167.139 49.5795L166.845 49.366L159.273 43.8647H168.632H168.996L169.108 43.5193L172 34.618Z" fill="#FFBE15" stroke="#FFBE15"/>
<path d="M8.42 19.24C6.96667 19.24 5.65333 18.9267 4.48 18.3C3.32 17.6733 2.40667 16.8133 1.74 15.72C1.08667 14.6133 0.76 13.3733 0.76 12C0.76 10.6267 1.08667 9.39333 1.74 8.3C2.40667 7.19333 3.32 6.32667 4.48 5.7C5.65333 5.07333 6.96667 4.76 8.42 4.76C9.87333 4.76 11.18 5.07333 12.34 5.7C13.5 6.32667 14.4133 7.19333 15.08 8.3C15.7467 9.39333 16.08 10.6267 16.08 12C16.08 13.3733 15.7467 14.6133 15.08 15.72C14.4133 16.8133 13.5 17.6733 12.34 18.3C11.18 18.9267 9.87333 19.24 8.42 19.24ZM8.42 16.48C9.24667 16.48 9.99333 16.2933 10.66 15.92C11.3267 15.5333 11.8467 15 12.22 14.32C12.6067 13.64 12.8 12.8667 12.8 12C12.8 11.1333 12.6067 10.36 12.22 9.68C11.8467 9 11.3267 8.47333 10.66 8.1C9.99333 7.71333 9.24667 7.52 8.42 7.52C7.59333 7.52 6.84667 7.71333 6.18 8.1C5.51333 8.47333 4.98667 9 4.6 9.68C4.22667 10.36 4.04 11.1333 4.04 12C4.04 12.8667 4.22667 13.64 4.6 14.32C4.98667 15 5.51333 15.5333 6.18 15.92C6.84667 16.2933 7.59333 16.48 8.42 16.48ZM24.5559 8.98C25.5826 8.98 26.4826 9.19333 27.2559 9.62C28.0293 10.0333 28.6226 10.62 29.0359 11.38C29.4626 12.14 29.6759 13.02 29.6759 14.02C29.6759 15.0467 29.4226 15.96 28.9159 16.76C28.4226 17.5467 27.7293 18.16 26.8359 18.6C25.9426 19.0267 24.9293 19.24 23.7959 19.24C21.9159 19.24 20.4359 18.64 19.3559 17.44C18.2893 16.2267 17.7559 14.4533 17.7559 12.12C17.7559 9.96 18.2226 8.24 19.1559 6.96C20.1026 5.66667 21.5493 4.82 23.4959 4.42L28.6159 3.4L29.0359 6.08L24.5159 6.98C23.2893 7.22 22.3759 7.62 21.7759 8.18C21.1893 8.74 20.8426 9.53333 20.7359 10.56C21.2026 10.0533 21.7626 9.66667 22.4159 9.4C23.0693 9.12 23.7826 8.98 24.5559 8.98ZM23.8159 16.82C24.6159 16.82 25.2559 16.56 25.7359 16.04C26.2293 15.52 26.4759 14.86 26.4759 14.06C26.4759 13.2467 26.2293 12.6 25.7359 12.12C25.2559 11.64 24.6159 11.4 23.8159 11.4C23.0026 11.4 22.3493 11.64 21.8559 12.12C21.3626 12.6 21.1159 13.2467 21.1159 14.06C21.1159 14.8733 21.3693 15.54 21.8759 16.06C22.3826 16.5667 23.0293 16.82 23.8159 16.82ZM48.213 8.24V19H31.793V8.24H34.893V16.44H38.473V8.24H41.573V16.44H45.113V8.24H48.213ZM49.713 16.44V21.14H46.813V19H45.033V16.44H49.713ZM51.207 8.24H54.307V14.64L59.547 8.24H62.407V19H59.307V12.6L54.087 19H51.207V8.24ZM65.4063 8.24H68.5063V14.64L73.7463 8.24H76.6063V19H73.5063V12.6L68.2863 19H65.4063V8.24ZM70.8063 7.08C68.4596 7.08 67.2796 6.04667 67.2663 3.98H69.3063C69.3196 4.44667 69.4463 4.81333 69.6863 5.08C69.9396 5.33333 70.3063 5.46 70.7863 5.46C71.2663 5.46 71.6329 5.33333 71.8863 5.08C72.1529 4.81333 72.2863 4.44667 72.2863 3.98H74.3663C74.3529 6.04667 73.1663 7.08 70.8063 7.08ZM91.6095 8.08C92.6095 8.08 93.5162 8.31333 94.3295 8.78C95.1562 9.23333 95.8029 9.88 96.2695 10.72C96.7362 11.5467 96.9695 12.5133 96.9695 13.62C96.9695 14.7267 96.7362 15.7 96.2695 16.54C95.8029 17.3667 95.1562 18.0133 94.3295 18.48C93.5162 18.9333 92.6095 19.16 91.6095 19.16C90.2362 19.16 89.1562 18.7267 88.3695 17.86V22.88H85.2495V8.24H88.2295V9.48C89.0029 8.54667 90.1295 8.08 91.6095 8.08ZM91.0695 16.6C91.8695 16.6 92.5229 16.3333 93.0295 15.8C93.5495 15.2533 93.8095 14.5267 93.8095 13.62C93.8095 12.7133 93.5495 11.9933 93.0295 11.46C92.5229 10.9133 91.8695 10.64 91.0695 10.64C90.2695 10.64 89.6095 10.9133 89.0895 11.46C88.5829 11.9933 88.3295 12.7133 88.3295 13.62C88.3295 14.5267 88.5829 15.2533 89.0895 15.8C89.6095 16.3333 90.2695 16.6 91.0695 16.6ZM109.616 13.66C109.616 13.7 109.596 13.98 109.556 14.5H101.416C101.563 15.1667 101.91 15.6933 102.456 16.08C103.003 16.4667 103.683 16.66 104.496 16.66C105.056 16.66 105.55 16.58 105.976 16.42C106.416 16.2467 106.823 15.98 107.196 15.62L108.856 17.42C107.843 18.58 106.363 19.16 104.416 19.16C103.203 19.16 102.13 18.9267 101.196 18.46C100.263 17.98 99.5429 17.32 99.0363 16.48C98.5296 15.64 98.2763 14.6867 98.2763 13.62C98.2763 12.5667 98.5229 11.62 99.0163 10.78C99.5229 9.92667 100.21 9.26667 101.076 8.8C101.956 8.32 102.936 8.08 104.016 8.08C105.07 8.08 106.023 8.30667 106.876 8.76C107.73 9.21333 108.396 9.86667 108.876 10.72C109.37 11.56 109.616 12.54 109.616 13.66ZM104.036 10.44C103.33 10.44 102.736 10.64 102.256 11.04C101.776 11.44 101.483 11.9867 101.376 12.68H106.676C106.57 12 106.276 11.46 105.796 11.06C105.316 10.6467 104.73 10.44 104.036 10.44ZM112.008 8.24H115.108V14.64L120.348 8.24H123.208V19H120.108V12.6L114.888 19H112.008V8.24ZM117.408 7.08C115.061 7.08 113.881 6.04667 113.868 3.98H115.908C115.921 4.44667 116.048 4.81333 116.288 5.08C116.541 5.33333 116.908 5.46 117.388 5.46C117.868 5.46 118.234 5.33333 118.488 5.08C118.754 4.81333 118.888 4.44667 118.888 3.98H120.968C120.954 6.04667 119.768 7.08 117.408 7.08ZM135.247 10.8H131.607V19H128.507V10.8H124.867V8.24H135.247V10.8ZM136.91 8.24H140.01V14.64L145.25 8.24H148.11V19H145.01V12.6L139.79 19H136.91V8.24ZM151.109 8.24H154.209V12.44H158.889V8.24H162.009V19H158.889V14.98H154.209V19H151.109V8.24ZM173.616 10.8H168.096V19H164.996V8.24H173.616V10.8Z" fill="black"/>
</svg>
