<svg width="86" height="97" viewBox="0 0 86 97" fill="none" xmlns="http://www.w3.org/2000/svg">
<g opacity="0.0991676">
<path fill-rule="evenodd" clip-rule="evenodd" d="M84.928 38.7896C84.7169 44.818 77.9572 48.2612 72.957 44.8872L57.0508 34.1544C52.2005 30.8816 52.6454 23.6036 57.8583 20.946L74.436 12.4944C79.6511 9.83566 85.8043 13.7551 85.5995 19.6052L84.928 38.7896Z" fill="#F2F5FF"/>
<path fill-rule="evenodd" clip-rule="evenodd" d="M34.6291 72.952C39.0937 76.3722 38.489 83.2732 33.4976 85.8648L14.241 95.8629C8.86492 98.6543 2.52443 94.4137 3.05115 88.3791L5.07604 65.1804C5.60298 59.1435 12.5868 56.0663 17.3974 59.7515L34.6291 72.952Z" fill="#F2F5FF"/>
<path fill-rule="evenodd" clip-rule="evenodd" d="M4.40738 4.94112C6.66753 -0.65158 14.1972 -1.57513 17.7419 3.30556L23.4433 11.1557C26.8818 15.89 23.9745 22.5769 18.167 23.2913L8.82899 24.4401C3.01907 25.1548 -1.42257 19.3673 0.77073 13.94L4.40738 4.94112Z" fill="#F2F5FF"/>
</g>
</svg>
