<svg width="165" height="48" viewBox="0 0 165 48" fill="none" xmlns="http://www.w3.org/2000/svg">
<path d="M158.792 48H6.1074C2.74986 48 0 45.3152 0 42.0371V6.25961C0 2.9815 2.74986 0.296694 6.1074 0.296694H158.792C162.15 0.296694 164.9 2.9815 164.9 6.25961V42.0371C164.9 45.3152 162.15 48 158.792 48Z" fill="black"/>
<path d="M59.9607 30.112L57.6771 24.1159L55.4041 30.112H59.9607ZM52 34.5608L56.7339 22.5066H58.631L63.3648 34.5608H61.6167L60.4855 31.4663H54.9006L53.7694 34.5608H52ZM66.581 33.2065V38H65.0527V25.5184H66.581V26.883C66.9037 26.3455 67.3079 25.9492 67.7973 25.6907C68.2937 25.4254 68.8788 25.2944 69.5561 25.2944C70.6872 25.2944 71.6056 25.7321 72.3113 26.6074C73.024 27.4758 73.3786 28.6233 73.3786 30.05C73.3786 31.4697 73.024 32.6138 72.3113 33.4926C71.6056 34.361 70.6872 34.7952 69.5561 34.7952C68.8788 34.7952 68.2937 34.6677 67.7973 34.4092C67.3079 34.1439 66.9037 33.7407 66.581 33.2065ZM71.7865 30.05C71.7865 28.9576 71.5525 28.0995 71.0844 27.4758C70.6305 26.852 69.9993 26.5384 69.1873 26.5384C68.3788 26.5384 67.737 26.852 67.2689 27.4758C66.8079 28.0995 66.5775 28.9576 66.5775 30.05C66.5775 31.1424 66.8079 32.0004 67.2689 32.6242C67.737 33.241 68.3753 33.5512 69.1873 33.5512C69.9958 33.5512 70.6305 33.241 71.0844 32.6242C71.5525 32.0004 71.7865 31.1424 71.7865 30.05ZM77.3927 33.2065V38H75.8537V25.5184H77.3927V26.883C77.7153 26.3455 78.116 25.9492 78.5983 25.6907C79.0947 25.4254 79.6833 25.2944 80.3677 25.2944C81.4918 25.2944 82.4066 25.7321 83.1123 26.6074C83.825 27.4758 84.1796 28.6233 84.1796 30.05C84.1796 31.4697 83.825 32.6138 83.1123 33.4926C82.4066 34.361 81.4918 34.7952 80.3677 34.7952C79.6833 34.7952 79.0947 34.6677 78.5983 34.4092C78.116 34.1439 77.7118 33.7407 77.3927 33.2065ZM82.5875 30.05C82.5875 28.9576 82.3535 28.0995 81.8854 27.4758C81.4315 26.852 80.8003 26.5384 79.9883 26.5384C79.1798 26.5384 78.538 26.852 78.0699 27.4758C77.616 28.0995 77.3891 28.9576 77.3891 30.05C77.3891 31.1424 77.616 32.0004 78.0699 32.6242C78.538 33.241 79.1763 33.5512 79.9883 33.5512C80.7968 33.5512 81.4315 33.241 81.8854 32.6242C82.3535 32.0004 82.5875 31.1424 82.5875 30.05ZM95.1792 32.8413V29.6054H92.4453V28.2615H96.8458V33.4443C96.1969 33.8923 95.4806 34.23 94.697 34.4609C93.9204 34.6849 93.0906 34.7952 92.2041 34.7952C90.261 34.7952 88.7433 34.2438 87.6476 33.1445C86.559 32.0452 86.0129 30.5117 86.0129 28.544C86.0129 26.5764 86.559 25.0429 87.6476 23.9436C88.7433 22.8374 90.2645 22.2826 92.2041 22.2826C93.0126 22.2826 93.7786 22.3825 94.4984 22.5789C95.2324 22.7685 95.9061 23.0545 96.5196 23.4336V25.1738C95.899 24.6569 95.2395 24.2709 94.5409 24.0125C93.8424 23.754 93.1084 23.6265 92.3424 23.6265C90.8283 23.6265 89.6865 24.0366 88.917 24.8568C88.1618 25.6838 87.7859 26.9141 87.7859 28.5406C87.7859 30.1671 88.1618 31.3939 88.917 32.2141C89.6865 33.0342 90.8283 33.4443 92.3424 33.4443C92.9346 33.4443 93.4665 33.3961 93.9346 33.303C94.3956 33.2065 94.8104 33.0515 95.1792 32.8413ZM105.541 30.0086H104.023C102.785 30.0086 101.931 30.1465 101.456 30.4256C100.98 30.6978 100.743 31.1665 100.743 31.8316C100.743 32.3623 100.92 32.7827 101.278 33.0928C101.633 33.3995 102.119 33.5512 102.736 33.5512C103.587 33.5512 104.268 33.2582 104.778 32.6759C105.289 32.0935 105.544 31.3147 105.544 30.3429V30.0086H105.541ZM107.069 29.3987V34.5608H105.541V33.1859C105.193 33.7372 104.757 34.1439 104.243 34.4092C103.718 34.6677 103.08 34.7952 102.324 34.7952C101.374 34.7952 100.615 34.5367 100.051 34.0198C99.4911 33.496 99.2145 32.7965 99.2145 31.9212C99.2145 30.9115 99.562 30.143 100.261 29.6192C100.966 29.1023 102.012 28.8439 103.402 28.8439H105.541V28.7026C105.541 28.0168 105.31 27.4861 104.849 27.1139C104.388 26.7418 103.739 26.5557 102.902 26.5557C102.37 26.5557 101.856 26.6177 101.353 26.7383C100.849 26.8589 100.363 27.0485 99.8953 27.2966V25.9216C100.456 25.7114 100.998 25.5563 101.53 25.4529C102.055 25.3427 102.562 25.291 103.058 25.291C104.406 25.291 105.413 25.6287 106.076 26.3076C106.739 26.9933 107.069 28.0202 107.069 29.3987ZM110.221 34.5608V22H111.75V34.5608H110.221ZM114.948 34.5608V22H116.476V34.5608H114.948ZM127.589 29.664V30.398H120.561C120.625 31.4146 120.937 32.1969 121.504 32.7379C122.075 33.2686 122.87 33.5305 123.884 33.5305C124.469 33.5305 125.036 33.4616 125.582 33.3272C126.143 33.1859 126.689 32.9757 127.228 32.6965V34.1025C126.682 34.3265 126.121 34.4988 125.54 34.6229C124.969 34.7366 124.384 34.7952 123.792 34.7952C122.309 34.7952 121.136 34.3748 120.26 33.5339C119.395 32.7 118.962 31.5662 118.962 30.1327C118.962 28.6474 119.373 27.4723 120.2 26.6108C121.022 25.7355 122.136 25.2979 123.529 25.2979C124.781 25.2979 125.767 25.6907 126.494 26.4799C127.224 27.2587 127.589 28.3201 127.589 29.664ZM120.604 29.2367H126.061C126.047 28.4234 125.809 27.7721 125.348 27.2828C124.894 26.8003 124.292 26.5591 123.536 26.5591C122.685 26.5591 122.001 26.7935 121.483 27.2621C120.973 27.7308 120.682 28.389 120.604 29.2367ZM135.426 25.3771L135.437 26.9037C135.263 26.8072 135.075 26.7383 134.869 26.6901C134.664 26.6418 134.447 26.6177 134.21 26.6177C133.344 26.6177 132.678 26.8934 132.21 27.4413C131.749 27.9858 131.518 28.768 131.518 29.7915V34.5574H129.99V25.5184H131.518V26.9244C131.841 26.373 132.259 25.9664 132.777 25.7011C133.295 25.4288 133.919 25.2944 134.653 25.2944C134.759 25.2944 134.876 25.3048 135.007 25.3254C135.132 25.3323 135.273 25.3496 135.426 25.3771ZM145 25.5184L140.915 35.3948C140.482 36.4734 140.06 37.1798 139.649 37.5107C139.238 37.838 138.688 38 138.004 38H136.777V36.7594H137.678C138.096 36.7594 138.426 36.6595 138.663 36.4631C138.894 36.2735 139.149 35.8152 139.429 35.0881L139.713 34.4161L135.94 25.5184H137.564L140.475 32.5828L143.376 25.5184H145Z" fill="white" stroke="white"/>
<path d="M52 17.8878V12.1026H56.0235V12.7564H52.8541V14.4712H55.8893V15.1346H52.8541V17.2276H56.1082V17.891H52V17.8878ZM59.1963 14.8013L57.2164 12.1026H58.1446L59.7293 14.2532L61.3139 12.1026H62.2422L60.1987 14.8782L62.3763 17.8878H61.4481L59.6657 15.4263L57.8517 17.8878H56.9234L59.1963 14.8013ZM65.4503 12.7468H64.3668V14.9167H65.4503C65.8527 14.9167 66.1668 14.8237 66.3891 14.641C66.6044 14.4519 66.7139 14.1795 66.7139 13.8269C66.7139 13.4872 66.6044 13.2212 66.3891 13.0321C66.1668 12.8429 65.8527 12.7468 65.4503 12.7468ZM63.5127 17.8878V12.1026H65.4503C66.1668 12.1026 66.7068 12.2468 67.0774 12.5385C67.4374 12.8365 67.6209 13.2628 67.6209 13.8269C67.6209 14.4006 67.4409 14.8333 67.0774 15.125C66.7103 15.4167 66.1668 15.5609 65.4503 15.5609H64.3668V17.891H63.5127V17.8878ZM68.7785 17.8878V12.1026H69.6432V17.2244H72.749V17.8878H68.7785ZM75.929 12.6346C75.3043 12.6346 74.8031 12.8462 74.429 13.2692C74.069 13.6923 73.8855 14.2692 73.8855 15.0032C73.8855 15.7276 74.0655 16.3077 74.429 16.7372C74.8031 17.1603 75.3043 17.3718 75.929 17.3718C76.5537 17.3718 77.0478 17.1603 77.4078 16.7372C77.7748 16.3077 77.9619 15.7308 77.9619 15.0032C77.9619 14.2724 77.7784 13.6923 77.4078 13.2692C77.0478 12.843 76.5537 12.6346 75.929 12.6346ZM75.929 12C76.8184 12 77.5313 12.2724 78.0678 12.8141C78.6042 13.3558 78.8689 14.0865 78.8689 15C78.8689 15.9167 78.6007 16.6442 78.0678 17.1859C77.5313 17.7276 76.8184 18 75.929 18C75.0325 18 74.3125 17.7276 73.769 17.1859C73.2326 16.6442 72.9679 15.9135 72.9679 15C72.9679 14.0833 73.2361 13.3558 73.769 12.8141C74.3125 12.2692 75.0325 12 75.929 12ZM83.2383 15.1699C83.4253 15.2276 83.6053 15.3494 83.7818 15.5385C83.9547 15.7212 84.1312 15.9776 84.3147 16.3045L85.19 17.8846H84.2618L83.45 16.3974C83.2347 16.0128 83.03 15.7564 82.8359 15.6314C82.6347 15.5064 82.363 15.4423 82.0242 15.4423H81.0854V17.8846H80.2207V12.1026H82.1689C82.8994 12.1026 83.443 12.2404 83.8065 12.5192C84.1594 12.7917 84.3394 13.2083 84.3394 13.7692C84.3394 14.1346 84.2441 14.4391 84.0571 14.6795C83.8629 14.9167 83.5947 15.0833 83.2383 15.1699ZM82.1653 12.7468H81.0818V14.8013H82.1653C82.5818 14.8013 82.8959 14.7115 83.1041 14.5353C83.3194 14.359 83.4288 14.1026 83.4288 13.7692C83.4288 13.4295 83.3194 13.1731 83.1041 13.0032C82.8959 12.8333 82.5818 12.7468 82.1653 12.7468ZM86.2947 17.8878V12.1026H90.3181V12.7564H87.1594V14.4712H90.1946V15.1346H87.1594V17.2276H90.4028V17.891H86.2947V17.8878ZM94.5922 17.8878V12.1026H95.4569V17.8878H94.5922ZM96.2933 12.7564V12.1026H101.683V12.7564H99.4203V17.8878H98.5556V12.7564H96.2933ZM107.877 12.6346C107.252 12.6346 106.754 12.8462 106.387 13.2692C106.02 13.6923 105.833 14.2692 105.833 15.0032C105.833 15.7276 106.017 16.3077 106.387 16.7372C106.754 17.1603 107.252 17.3718 107.877 17.3718C108.501 17.3718 108.999 17.1603 109.366 16.7372C109.726 16.3077 109.91 15.7308 109.91 15.0032C109.91 14.2724 109.73 13.6923 109.366 13.2692C108.999 12.843 108.501 12.6346 107.877 12.6346ZM107.877 12C108.773 12 109.49 12.2724 110.026 12.8141C110.562 13.3558 110.827 14.0865 110.827 15C110.827 15.9167 110.559 16.6442 110.026 17.1859C109.493 17.7276 108.773 18 107.877 18C106.98 18 106.264 17.7276 105.727 17.1859C105.191 16.6442 104.926 15.9135 104.926 15C104.926 14.0833 105.194 13.3558 105.727 12.8141C106.264 12.2692 106.98 12 107.877 12ZM112.172 17.8878V12.1026H113.329L116.156 16.9423V12.1026H117V17.8878H115.832L113.005 13.0481V17.8878H112.172Z" fill="white"/>
<path d="M158.792 1.25225C161.62 1.25225 163.921 3.49878 163.921 6.25961V42.0371C163.921 44.7979 161.62 47.0444 158.792 47.0444H6.1074C3.27968 47.0444 0.978711 44.7979 0.978711 42.0371V6.25961C0.978711 3.49878 3.27968 1.25225 6.1074 1.25225H158.792ZM158.792 0.296694H6.1074C2.74986 0.296694 0 2.9815 0 6.25961V42.0371C0 45.3152 2.74986 48 6.1074 48H158.792C162.15 48 164.9 45.3152 164.9 42.0371V6.25961C164.9 2.9815 162.15 0.296694 158.792 0.296694Z" fill="#A6A6A6"/>
<path d="M31.5626 9H18.4496C12.2644 9 10 11.2521 10 17.4374V30.5504C10 36.7356 12.2644 39 18.4496 39H31.5626C37.7356 39 40 36.7356 40 30.5504V17.4374C40 11.2521 37.7479 9 31.5626 9Z" fill="#C80F2E"/>
<path fill-rule="evenodd" clip-rule="evenodd" d="M22.7294 27.1168L22.3555 27.9264H21.5237L23.2965 24.0012H24.0149L25.7877 27.9264H24.9307L24.5694 27.1168H22.7294ZM23.0235 26.4054H24.2627L23.641 25.0029L23.0235 26.4054ZM36.1808 24.0012H37V27.9264H36.1808V24.0012ZM32.9671 27.215H35.2146V27.9264H32.1605V24.0012H35.1264V24.7249H32.9671V25.5222H34.4584V26.2459H32.9671V27.215ZM30.644 24.0012H31.501L30.0979 27.9387H29.4047L28.4847 25.3546L27.5647 27.9387H26.8925L25.4768 24.0012H26.359L27.2538 26.7079L28.1612 24.0012H28.8334L29.7534 26.7079L30.644 24.0012ZM20.2844 24.0012H21.1036V26.2255C21.1036 27.3499 20.4693 28 19.3518 28C18.2596 28 17.6252 27.3581 17.6252 26.25V24.0053H18.4444V26.2296C18.4444 26.8919 18.7679 27.2436 19.3644 27.2436C19.961 27.2436 20.2844 26.8919 20.2844 26.2541V24.0012ZM15.6676 24.0012H16.4868V27.9387H15.6676V26.3318H13.8192V27.9387H13V24.0012H13.8192V25.5835H15.6676V24.0012ZM24.9979 19.0006C22.1539 19.0006 19.8601 16.7558 19.8601 14H20.5785C20.5785 16.3674 22.5656 18.2891 24.9979 18.2891C27.4303 18.2891 29.4173 16.3674 29.4173 14H30.1357C30.1357 16.7518 27.8293 19.0006 24.9979 19.0006Z" fill="white"/>
</svg>
