<svg width="167" height="48" viewBox="0 0 167 48" fill="none" xmlns="http://www.w3.org/2000/svg">
<path d="M165.109 42.2022C165.109 44.7444 163.007 46.8036 160.407 46.8036H6.52561C3.92676 46.8036 1.81726 44.7444 1.81726 42.2022V5.50777C1.81726 2.9668 3.92676 0.900391 6.52561 0.900391H160.406C163.007 0.900391 165.108 2.9668 165.108 5.50777L165.109 42.2022Z" fill="black"/>
<path d="M159.911 0.95586C162.743 0.95586 165.047 3.20239 165.047 5.96322V41.7407C165.047 44.5015 162.743 46.7481 159.911 46.7481H7.0158C4.18418 46.7481 1.88005 44.5015 1.88005 41.7407V5.96322C1.88005 3.20239 4.18418 0.95586 7.0158 0.95586H159.911ZM159.911 0.00030298H7.0158C3.65364 0.00030298 0.899994 2.6851 0.899994 5.96322V41.7407C0.899994 45.0188 3.65364 47.7036 7.0158 47.7036H159.911C163.273 47.7036 166.027 45.0188 166.027 41.7407V5.96322C166.027 2.6851 163.273 0.00030298 159.911 0.00030298Z" fill="#A6A6A6"/>
<path d="M37.752 23.5938C37.7165 19.7501 40.9799 17.8802 41.1292 17.7931C39.281 15.1658 36.4163 14.8069 35.4096 14.7783C33.0037 14.5314 30.6699 16.1819 29.4443 16.1819C28.1942 16.1819 26.3069 14.8021 24.2728 14.8427C21.6552 14.882 19.2064 16.3596 17.8634 18.6542C15.0917 23.3327 17.1588 30.2079 19.8143 33.9896C21.1427 35.8417 22.6949 37.9096 24.7266 37.8368C26.7142 37.7569 27.4566 36.6013 29.8553 36.6013C32.2319 36.6013 32.9291 37.8368 35.0011 37.7903C37.1343 37.7569 38.4773 35.9299 39.7592 34.0611C41.2943 31.9383 41.9108 29.8477 41.9352 29.7404C41.8851 29.7237 37.7924 28.2008 37.752 23.5938Z" fill="white"/>
<path d="M33.8379 12.2905C34.9069 10.987 35.6384 9.21367 35.4353 7.41406C33.888 7.48085 31.953 8.45757 30.8387 9.73244C29.8528 10.8559 28.9721 12.6972 29.1997 14.4288C30.9378 14.5552 32.7224 13.5738 33.8379 12.2905Z" fill="white"/>
<path d="M66.5165 37.5711H63.7387L62.2171 32.9093H56.9282L55.4787 37.5711H52.7743L58.0143 21.7002H61.2508L66.5165 37.5711ZM61.7584 30.9534L60.3824 26.8092C60.2368 26.3859 59.9641 25.3889 59.5616 23.8194H59.5127C59.3525 24.4944 59.0944 25.4914 58.7397 26.8092L57.3881 30.9534H61.7584Z" fill="white"/>
<path d="M79.9918 31.7083C79.9918 33.6546 79.4524 35.193 78.3736 36.3224C77.4073 37.3278 76.2074 37.8298 74.775 37.8298C73.229 37.8298 72.1183 37.2884 71.4419 36.2055H71.393V42.2341H68.7852V29.8944C68.7852 28.6708 68.7522 27.415 68.6886 26.127H70.982L71.1276 27.9409H71.1765C72.0462 26.5742 73.366 25.8921 75.1371 25.8921C76.5217 25.8921 77.6776 26.4252 78.6023 27.4925C79.5295 28.5611 79.9918 29.966 79.9918 31.7083ZM77.3351 31.8013C77.3351 30.6875 77.0783 29.7692 76.5621 29.0465C75.9982 28.2928 75.2411 27.9159 74.2919 27.9159C73.6485 27.9159 73.0638 28.1258 72.5416 28.5396C72.018 28.957 71.6756 29.502 71.5153 30.177C71.4346 30.4919 71.3942 30.7495 71.3942 30.9522V32.8604C71.3942 33.6928 71.656 34.3952 72.1795 34.9688C72.703 35.5425 73.3831 35.8287 74.2197 35.8287C75.2019 35.8287 75.9664 35.459 76.5132 34.722C77.0611 33.9838 77.3351 33.0106 77.3351 31.8013Z" fill="white"/>
<path d="M93.492 31.7083C93.492 33.6546 92.9526 35.193 91.8726 36.3224C90.9075 37.3278 89.7076 37.8298 88.2752 37.8298C86.7292 37.8298 85.6185 37.2884 84.9433 36.2055H84.8944V42.2341H82.2866V29.8944C82.2866 28.6708 82.2536 27.415 82.19 26.127H84.4834L84.629 27.9409H84.6779C85.5464 26.5742 86.8662 25.8921 88.6385 25.8921C90.0219 25.8921 91.1778 26.4252 92.105 27.4925C93.0284 28.5611 93.492 29.966 93.492 31.7083ZM90.8353 31.8013C90.8353 30.6875 90.5772 29.7692 90.061 29.0465C89.4972 28.2928 88.7425 27.9159 87.7921 27.9159C87.1475 27.9159 86.564 28.1258 86.0405 28.5396C85.517 28.957 85.1757 29.502 85.0155 30.177C84.936 30.4919 84.8944 30.7495 84.8944 30.9522V32.8604C84.8944 33.6928 85.1562 34.3952 85.6772 34.9688C86.2007 35.5413 86.8808 35.8287 87.7199 35.8287C88.7021 35.8287 89.4666 35.459 90.0134 34.722C90.5613 33.9838 90.8353 33.0106 90.8353 31.8013Z" fill="white"/>
<path d="M108.586 33.1205C108.586 34.4705 108.105 35.5689 107.14 36.4168C106.08 37.3434 104.603 37.8062 102.706 37.8062C100.955 37.8062 99.5504 37.477 98.4874 36.8175L99.0917 34.6983C100.237 35.3733 101.493 35.712 102.861 35.712C103.844 35.712 104.608 35.4949 105.157 35.0632C105.704 34.6315 105.977 34.0519 105.977 33.3292C105.977 32.6852 105.752 32.1426 105.3 31.7025C104.852 31.2625 104.102 30.8534 103.055 30.4754C100.205 29.439 98.781 27.9208 98.781 25.9245C98.781 24.6198 99.28 23.55 100.279 22.7176C101.275 21.884 102.603 21.4678 104.264 21.4678C105.746 21.4678 106.976 21.7194 107.958 22.2215L107.306 24.2942C106.389 23.8076 105.352 23.5643 104.191 23.5643C103.274 23.5643 102.557 23.785 102.043 24.2238C101.609 24.6162 101.391 25.0944 101.391 25.6609C101.391 26.2882 101.64 26.807 102.139 27.2148C102.573 27.5917 103.362 27.9996 104.507 28.4396C105.907 28.9894 106.936 29.6322 107.598 30.3692C108.257 31.1038 108.586 32.0233 108.586 33.1205Z" fill="white"/>
<path d="M117.208 28.035H114.334V33.5912C114.334 35.0044 114.84 35.7105 115.855 35.7105C116.321 35.7105 116.708 35.6711 117.014 35.5924L117.086 37.5232C116.572 37.7104 115.896 37.8046 115.058 37.8046C114.028 37.8046 113.223 37.4981 112.642 36.8863C112.063 36.2734 111.772 35.2453 111.772 33.8011V28.0326H110.06V26.1245H111.772V24.0291L114.334 23.2754V26.1245H117.208V28.035Z" fill="white"/>
<path d="M130.177 31.7551C130.177 33.5142 129.661 34.9584 128.631 36.0878C127.551 37.2505 126.117 37.8301 124.33 37.8301C122.608 37.8301 121.237 37.2732 120.214 36.1593C119.192 35.0454 118.68 33.6394 118.68 31.9447C118.68 30.1713 119.206 28.7188 120.262 27.5894C121.315 26.4588 122.736 25.8936 124.523 25.8936C126.246 25.8936 127.631 26.4505 128.677 27.5656C129.678 28.6472 130.177 30.0437 130.177 31.7551ZM127.471 31.8374C127.471 30.782 127.24 29.8768 126.772 29.1219C126.225 28.2084 125.443 27.7528 124.43 27.7528C123.382 27.7528 122.586 28.2096 122.039 29.1219C121.571 29.878 121.339 30.7975 121.339 31.8851C121.339 32.9405 121.571 33.8457 122.039 34.5994C122.603 35.5129 123.391 35.9685 124.407 35.9685C125.403 35.9685 126.184 35.5034 126.748 34.5756C127.229 33.8063 127.471 32.8916 127.471 31.8374Z" fill="white"/>
<path d="M138.654 28.3631C138.396 28.3166 138.12 28.2928 137.832 28.2928C136.914 28.2928 136.205 28.6303 135.706 29.3065C135.272 29.9027 135.054 30.6565 135.054 31.5664V37.5711H132.447L132.472 29.731C132.472 28.412 132.439 27.2111 132.374 26.1282H134.645L134.741 28.3178H134.813C135.088 27.5653 135.522 26.9595 136.117 26.5051C136.698 26.096 137.325 25.8921 138.002 25.8921C138.243 25.8921 138.461 25.9088 138.654 25.9386V28.3631Z" fill="white"/>
<path d="M150.316 31.3076C150.316 31.7632 150.285 32.1472 150.22 32.4608H142.397C142.428 33.5914 142.806 34.456 143.532 35.0523C144.192 35.5854 145.044 35.8525 146.091 35.8525C147.249 35.8525 148.306 35.6724 149.257 35.3111L149.665 37.0761C148.555 37.5484 147.243 37.7833 145.73 37.7833C143.91 37.7833 142.482 37.261 141.442 36.2175C140.405 35.1739 139.885 33.7727 139.885 32.0148C139.885 30.2891 140.368 28.8521 141.335 27.706C142.348 26.4824 143.717 25.8706 145.439 25.8706C147.131 25.8706 148.411 26.4824 149.281 27.706C149.97 28.6779 150.316 29.8801 150.316 31.3076ZM147.829 30.6481C147.846 29.8944 147.676 29.2432 147.323 28.6934C146.871 27.9862 146.178 27.6332 145.245 27.6332C144.392 27.6332 143.699 27.9779 143.169 28.6696C142.735 29.2194 142.477 29.8789 142.397 30.6469H147.829V30.6481Z" fill="white"/>
<path d="M60.8958 11.9367C60.8958 13.3404 60.464 14.397 59.6017 15.1066C58.803 15.7613 57.6679 16.0893 56.1977 16.0893C55.4686 16.0893 54.8448 16.0583 54.3225 15.9962V8.32674C55.0038 8.21941 55.7377 8.16455 56.5303 8.16455C57.9309 8.16455 58.9865 8.4615 59.6983 9.05541C60.4958 9.72683 60.8958 10.6869 60.8958 11.9367ZM59.5442 11.9713C59.5442 11.0613 59.2971 10.3637 58.803 9.8771C58.3088 9.39172 57.5872 9.14843 56.6368 9.14843C56.2331 9.14843 55.8894 9.17467 55.6044 9.22953V15.0601C55.7622 15.0839 56.0509 15.0947 56.4704 15.0947C57.4514 15.0947 58.2085 14.8287 58.7418 14.2968C59.2751 13.7649 59.5442 12.9897 59.5442 11.9713Z" fill="white"/>
<path d="M68.0627 13.1621C68.0627 14.0267 67.8096 14.7351 67.3032 15.2909C66.7723 15.8621 66.069 16.1471 65.1908 16.1471C64.3443 16.1471 63.6704 15.874 63.1677 15.3254C62.6662 14.778 62.4154 14.0875 62.4154 13.2551C62.4154 12.3845 62.6735 11.6702 63.1921 11.1156C63.7107 10.5611 64.4079 10.2832 65.2862 10.2832C66.1326 10.2832 66.8127 10.5563 67.3276 11.1037C67.8169 11.6356 68.0627 12.3225 68.0627 13.1621ZM66.7332 13.2026C66.7332 12.6839 66.6182 12.239 66.3895 11.8681C66.1204 11.4197 65.7375 11.1955 65.2397 11.1955C64.7247 11.1955 64.3333 11.4197 64.0642 11.8681C63.8343 12.239 63.7205 12.691 63.7205 13.2253C63.7205 13.7441 63.8355 14.1889 64.0642 14.5598C64.3419 15.0082 64.7284 15.2324 65.2275 15.2324C65.7167 15.2324 66.1008 15.0046 66.3772 14.5479C66.6145 14.1698 66.7332 13.7214 66.7332 13.2026Z" fill="white"/>
<path d="M77.6721 10.3979L75.868 16.0198H74.6937L73.9464 13.5786C73.7568 12.9692 73.6027 12.3633 73.4828 11.7623H73.4596C73.3482 12.38 73.1941 12.9847 72.996 13.5786L72.2021 16.0198H71.0145L69.3179 10.3979H70.6353L71.2872 13.0705C71.445 13.7026 71.5747 14.3049 71.6786 14.8749H71.7019C71.7973 14.405 71.9551 13.8064 72.1777 13.0825L72.996 10.3991H74.0406L74.8246 13.0252C75.0142 13.6656 75.1683 14.2822 75.287 14.8761H75.3224C75.4093 14.2977 75.5402 13.6811 75.7138 13.0252L76.4135 10.3991H77.6721V10.3979Z" fill="white"/>
<path d="M84.3172 16.0202H83.0354V12.8002C83.0354 11.808 82.6489 11.3119 81.8734 11.3119C81.493 11.3119 81.186 11.4478 80.9474 11.7209C80.7114 11.994 80.5915 12.316 80.5915 12.6845V16.019H79.3096V12.0047C79.3096 11.511 79.2937 10.9755 79.2632 10.396H80.3897L80.4496 11.2749H80.4851C80.6343 11.0018 80.8569 10.7764 81.1493 10.5963C81.4966 10.3864 81.8856 10.2803 82.3113 10.2803C82.8495 10.2803 83.2971 10.4496 83.6531 10.7895C84.0959 11.2057 84.3172 11.8271 84.3172 12.6523V16.0202Z" fill="white"/>
<path d="M87.8518 16.0197H86.5711V7.81836H87.8518V16.0197Z" fill="white"/>
<path d="M95.3994 13.1621C95.3994 14.0267 95.1462 14.7351 94.6398 15.2909C94.1089 15.8621 93.4044 16.1471 92.5274 16.1471C91.6797 16.1471 91.0058 15.874 90.5043 15.3254C90.0028 14.778 89.752 14.0875 89.752 13.2551C89.752 12.3845 90.0101 11.6702 90.5287 11.1156C91.0473 10.5611 91.7445 10.2832 92.6216 10.2832C93.4692 10.2832 94.1481 10.5563 94.6642 11.1037C95.1535 11.6356 95.3994 12.3225 95.3994 13.1621ZM94.0686 13.2026C94.0686 12.6839 93.9536 12.239 93.7248 11.8681C93.457 11.4197 93.0729 11.1955 92.5763 11.1955C92.0601 11.1955 91.6687 11.4197 91.4008 11.8681C91.1709 12.239 91.0571 12.691 91.0571 13.2253C91.0571 13.7441 91.1721 14.1889 91.4008 14.5598C91.6785 15.0082 92.065 15.2324 92.5641 15.2324C93.0533 15.2324 93.4362 15.0046 93.7126 14.5479C93.9511 14.1698 94.0686 13.7214 94.0686 13.2026Z" fill="white"/>
<path d="M101.602 16.0195H100.451L100.356 15.372H100.321C99.9267 15.8883 99.3653 16.1471 98.6363 16.1471C98.092 16.1471 97.6517 15.9766 97.3202 15.6379C97.0193 15.3302 96.8688 14.9474 96.8688 14.493C96.8688 13.8061 97.1624 13.2825 97.7532 12.92C98.3427 12.5575 99.1721 12.3798 100.24 12.3881V12.2832C100.24 11.5426 99.8411 11.1729 99.0424 11.1729C98.4736 11.1729 97.9721 11.3124 97.5391 11.5891L97.2786 10.7686C97.8143 10.4454 98.4761 10.2832 99.2564 10.2832C100.763 10.2832 101.519 11.0584 101.519 12.6087V14.6791C101.519 15.2408 101.547 15.688 101.602 16.0195ZM100.272 14.0875V13.2205C98.8577 13.1967 98.1507 13.5747 98.1507 14.3535C98.1507 14.6469 98.2314 14.8663 98.3966 15.013C98.5617 15.1597 98.7721 15.2324 99.0228 15.2324C99.3041 15.2324 99.5671 15.1454 99.8069 14.9724C100.048 14.7983 100.196 14.5777 100.251 14.307C100.264 14.2462 100.272 14.1722 100.272 14.0875Z" fill="white"/>
<path d="M108.887 16.0197H107.749L107.689 15.117H107.654C107.29 15.8039 106.672 16.1474 105.802 16.1474C105.107 16.1474 104.529 15.8814 104.07 15.3495C103.611 14.8176 103.382 14.1271 103.382 13.2792C103.382 12.3693 103.631 11.6322 104.13 11.0693C104.613 10.5446 105.205 10.2822 105.909 10.2822C106.684 10.2822 107.226 10.5363 107.534 11.0455H107.558V7.81836H108.841V14.5052C108.841 15.0526 108.856 15.557 108.887 16.0197ZM107.558 13.6489V12.7115C107.558 12.5493 107.546 12.4182 107.523 12.318C107.451 12.0174 107.295 11.7646 107.059 11.5607C106.821 11.3568 106.533 11.2542 106.202 11.2542C105.724 11.2542 105.349 11.439 105.074 11.8099C104.801 12.1808 104.663 12.6543 104.663 13.2327C104.663 13.7884 104.794 14.2392 105.057 14.5863C105.335 14.956 105.709 15.1408 106.177 15.1408C106.598 15.1408 106.935 14.987 107.19 14.6781C107.437 14.3931 107.558 14.0496 107.558 13.6489Z" fill="white"/>
<path d="M119.85 13.1621C119.85 14.0267 119.597 14.7351 119.091 15.2909C118.56 15.8621 117.858 16.1471 116.978 16.1471C116.133 16.1471 115.459 15.874 114.955 15.3254C114.454 14.778 114.203 14.0875 114.203 13.2551C114.203 12.3845 114.461 11.6702 114.979 11.1156C115.498 10.5611 116.195 10.2832 117.075 10.2832C117.92 10.2832 118.601 10.5563 119.115 11.1037C119.604 11.6356 119.85 12.3225 119.85 13.1621ZM118.522 13.2026C118.522 12.6839 118.407 12.239 118.178 11.8681C117.908 11.4197 117.526 11.1955 117.027 11.1955C116.513 11.1955 116.122 11.4197 115.852 11.8681C115.622 12.239 115.508 12.691 115.508 13.2253C115.508 13.7441 115.623 14.1889 115.852 14.5598C116.129 15.0082 116.516 15.2324 117.015 15.2324C117.504 15.2324 117.889 15.0046 118.166 14.5479C118.402 14.1698 118.522 13.7214 118.522 13.2026Z" fill="white"/>
<path d="M126.742 16.0202H125.461V12.8002C125.461 11.808 125.075 11.3119 124.298 11.3119C123.918 11.3119 123.611 11.4478 123.373 11.7209C123.136 11.994 123.017 12.316 123.017 12.6845V16.019H121.734V12.0047C121.734 11.511 121.72 10.9755 121.689 10.396H122.814L122.874 11.2749H122.91C123.06 11.0018 123.283 10.7764 123.574 10.5963C123.923 10.3864 124.31 10.2803 124.737 10.2803C125.274 10.2803 125.722 10.4496 126.078 10.7895C126.522 11.2057 126.742 11.8271 126.742 12.6523V16.0202Z" fill="white"/>
<path d="M135.369 11.3343H133.958V14.0653C133.958 14.7594 134.209 15.1065 134.705 15.1065C134.935 15.1065 135.126 15.0874 135.276 15.048L135.309 15.9961C135.056 16.0891 134.724 16.1357 134.314 16.1357C133.807 16.1357 133.414 15.9854 133.129 15.6849C132.842 15.3843 132.7 14.8787 132.7 14.1691V11.3343H131.858V10.3981H132.7V9.36775L133.957 8.99805V10.3969H135.368V11.3343H135.369Z" fill="white"/>
<path d="M142.155 16.0197H140.872V12.8236C140.872 11.8159 140.485 11.3114 139.711 11.3114C139.117 11.3114 138.711 11.6036 138.488 12.188C138.45 12.3108 138.428 12.4611 138.428 12.6376V16.0186H137.147V7.81836H138.428V11.2065H138.453C138.856 10.5899 139.435 10.2822 140.185 10.2822C140.715 10.2822 141.155 10.4516 141.503 10.7915C141.937 11.2148 142.155 11.8445 142.155 12.6769V16.0197Z" fill="white"/>
<path d="M149.156 12.9431C149.156 13.1673 149.138 13.3558 149.108 13.5096H145.263C145.281 14.0654 145.464 14.4887 145.82 14.7821C146.145 15.0445 146.565 15.1757 147.079 15.1757C147.647 15.1757 148.166 15.0874 148.633 14.9097L148.834 15.7779C148.287 16.0093 147.644 16.125 146.899 16.125C146.006 16.125 145.303 15.8685 144.794 15.3557C144.282 14.8429 144.029 14.1548 144.029 13.2914C144.029 12.4434 144.265 11.7374 144.741 11.1745C145.238 10.5735 145.909 10.2729 146.757 10.2729C147.586 10.2729 148.216 10.5735 148.642 11.1745C148.985 11.6516 149.156 12.2419 149.156 12.9431ZM147.932 12.62C147.942 12.2491 147.858 11.9294 147.684 11.6599C147.461 11.3129 147.123 11.1388 146.664 11.1388C146.246 11.1388 145.904 11.3081 145.644 11.648C145.431 11.9187 145.305 12.2419 145.263 12.62H147.932Z" fill="white"/>
</svg>
