<svg width="165" height="48" viewBox="0 0 165 48" fill="none" xmlns="http://www.w3.org/2000/svg">
<path d="M158.792 48H6.1074C2.74986 48 0 45.3152 0 42.0371V6.25961C0 2.9815 2.74986 0.296694 6.1074 0.296694H158.792C162.15 0.296694 164.9 2.9815 164.9 6.25961V42.0371C164.9 45.3152 162.15 48 158.792 48Z" fill="black"/>
<path d="M158.792 1.25225C161.62 1.25225 163.921 3.49878 163.921 6.25961V42.0371C163.921 44.7979 161.62 47.0444 158.792 47.0444H6.1074C3.27968 47.0444 0.978711 44.7979 0.978711 42.0371V6.25961C0.978711 3.49878 3.27968 1.25225 6.1074 1.25225H158.792ZM158.792 0.296694H6.1074C2.74986 0.296694 0 2.9815 0 6.25961V42.0371C0 45.3152 2.74986 48 6.1074 48H158.792C162.15 48 164.9 45.3152 164.9 42.0371V6.25961C164.9 2.9815 162.15 0.296694 158.792 0.296694Z" fill="#A6A6A6"/>
<path d="M57.9196 12.5133C57.9196 13.5091 57.6142 14.3067 57.0127 14.9015C56.321 15.6066 55.4201 15.9614 54.3162 15.9614C53.2612 15.9614 52.3603 15.6006 51.6213 14.8895C50.8808 14.168 50.5113 13.2825 50.5113 12.2226C50.5113 11.1627 50.8808 10.2772 51.6213 9.56168C52.3603 8.84464 53.2612 8.48389 54.3162 8.48389C54.8415 8.48389 55.3423 8.58973 55.8202 8.7865C56.2966 8.98477 56.6844 9.2531 56.9653 9.58404L56.3271 10.2131C55.837 9.64815 55.1697 9.36938 54.3162 9.36938C53.5467 9.36938 52.8795 9.63175 52.313 10.161C51.7527 10.6917 51.4717 11.3789 51.4717 12.2226C51.4717 13.0664 51.7527 13.7596 52.313 14.2903C52.8795 14.8135 53.5467 15.0818 54.3162 15.0818C55.1331 15.0818 55.8202 14.8135 56.3622 14.2843C56.7195 13.934 56.9226 13.451 56.976 12.8338H54.3162V11.9722H57.8646C57.9074 12.1585 57.9196 12.3389 57.9196 12.5133Z" fill="white" stroke="white" stroke-width="0.16" stroke-miterlimit="10"/>
<path d="M63.5491 9.5255H60.216V11.7914H63.2208V12.653H60.216V14.919H63.5491V15.797H59.2724V8.64746H63.5491V9.5255Z" fill="white" stroke="white" stroke-width="0.16" stroke-miterlimit="10"/>
<path d="M67.5216 15.797H66.5781V9.5255H64.5336V8.64746H69.5676V9.5255H67.5216V15.797Z" fill="white" stroke="white" stroke-width="0.16" stroke-miterlimit="10"/>
<path d="M73.2111 15.797V8.64746H74.1532V15.797H73.2111Z" fill="white" stroke="white" stroke-width="0.16" stroke-miterlimit="10"/>
<path d="M78.3291 15.797H77.3931V9.5255H75.3411V8.64746H80.3812V9.5255H78.3291V15.797Z" fill="white" stroke="white" stroke-width="0.16" stroke-miterlimit="10"/>
<path d="M89.9115 14.8776C89.1893 15.6006 88.2946 15.9614 87.2273 15.9614C86.1539 15.9614 85.2592 15.6006 84.537 14.8776C83.8163 14.1561 83.4575 13.2706 83.4575 12.2226C83.4575 11.1747 83.8163 10.2892 84.537 9.56765C85.2592 8.84464 86.1539 8.48389 87.2273 8.48389C88.2885 8.48389 89.1832 8.84464 89.9054 9.57361C90.6322 10.3011 90.991 11.1806 90.991 12.2226C90.991 13.2706 90.6322 14.1561 89.9115 14.8776ZM85.2348 14.2783C85.7783 14.8135 86.4395 15.0818 87.2273 15.0818C88.0091 15.0818 88.6763 14.8135 89.2137 14.2783C89.7558 13.7432 90.0306 13.056 90.0306 12.2226C90.0306 11.3893 89.7558 10.7021 89.2137 10.1669C88.6763 9.63175 88.0091 9.36342 87.2273 9.36342C86.4395 9.36342 85.7783 9.63175 85.2348 10.1669C84.6927 10.7021 84.4179 11.3893 84.4179 12.2226C84.4179 13.056 84.6927 13.7432 85.2348 14.2783Z" fill="white" stroke="white" stroke-width="0.16" stroke-miterlimit="10"/>
<path d="M92.315 15.797V8.64746H93.4601L97.0207 14.2079H97.062L97.0207 12.8334V8.64746H97.9628V15.797H96.9795L93.2509 9.96228H93.2097L93.2509 11.3427V15.797H92.315Z" fill="white" stroke="white" stroke-width="0.16" stroke-miterlimit="10"/>
<path d="M83.2257 26.2384C80.3567 26.2384 78.013 28.3702 78.013 31.3114C78.013 34.2287 80.3567 36.3828 83.2257 36.3828C86.1007 36.3828 88.4445 34.2287 88.4445 31.3114C88.4445 28.3702 86.1007 26.2384 83.2257 26.2384ZM83.2257 34.3853C81.6515 34.3853 80.2972 33.1167 80.2972 31.3114C80.2972 29.4823 81.6515 28.236 83.2257 28.236C84.7999 28.236 86.1603 29.4823 86.1603 31.3114C86.1603 33.1167 84.7999 34.3853 83.2257 34.3853ZM71.8522 26.2384C68.9771 26.2384 66.6395 28.3702 66.6395 31.3114C66.6395 34.2287 68.9771 36.3828 71.8522 36.3828C74.7257 36.3828 77.0648 34.2287 77.0648 31.3114C77.0648 28.3702 74.7257 26.2384 71.8522 26.2384ZM71.8522 34.3853C70.2765 34.3853 68.9176 33.1167 68.9176 31.3114C68.9176 29.4823 70.2765 28.236 71.8522 28.236C73.4263 28.236 74.7807 29.4823 74.7807 31.3114C74.7807 33.1167 73.4263 34.3853 71.8522 34.3853ZM58.3182 27.7933V29.9489H63.5904C63.4362 31.1534 63.0239 32.0389 62.3918 32.656C61.6223 33.4014 60.4237 34.2287 58.3182 34.2287C55.0736 34.2287 52.5329 31.6721 52.5329 28.5043C52.5329 25.3365 55.0736 22.7799 58.3182 22.7799C60.0725 22.7799 61.349 23.4493 62.291 24.3169L63.8469 22.7978C62.5292 21.5695 60.7764 20.6258 58.3182 20.6258C53.8689 20.6258 50.1297 24.1604 50.1297 28.5043C50.1297 32.8483 53.8689 36.3828 58.3182 36.3828C60.723 36.3828 62.5292 35.6136 63.9492 34.1706C65.4043 32.7499 65.8578 30.7524 65.8578 29.1394C65.8578 28.6385 65.815 28.1779 65.7387 27.7933H58.3182ZM113.66 29.4644C113.231 28.3299 111.908 26.2384 109.211 26.2384C106.539 26.2384 104.315 28.2941 104.315 31.3114C104.315 34.1527 106.516 36.3828 109.468 36.3828C111.854 36.3828 113.231 34.9622 113.798 34.1348L112.027 32.9825C111.436 33.8262 110.631 34.3853 109.468 34.3853C108.312 34.3853 107.483 33.868 106.951 32.8483L113.9 30.0413L113.66 29.4644ZM106.576 31.1534C106.516 29.1975 108.132 28.1958 109.289 28.1958C110.196 28.1958 110.965 28.6385 111.222 29.2721L106.576 31.1534ZM100.928 36.0743H103.212V21.167H100.928V36.0743ZM97.1872 27.3684H97.1108C96.5978 26.7751 95.6191 26.2384 94.3793 26.2384C91.7776 26.2384 89.3987 28.4686 89.3987 31.3278C89.3987 34.1706 91.7776 36.3828 94.3793 36.3828C95.6191 36.3828 96.5978 35.8417 97.1108 35.2305H97.1872V35.958C97.1872 37.8974 96.126 38.9394 94.4144 38.9394C93.0189 38.9394 92.1532 37.9556 91.7959 37.1282L89.8095 37.9377C90.382 39.2823 91.8982 40.937 94.4144 40.937C97.0925 40.937 99.3523 39.3986 99.3523 35.6554V26.547H97.1872V27.3684ZM94.5748 34.3853C93.0006 34.3853 91.6829 33.0988 91.6829 31.3278C91.6829 29.5404 93.0006 28.236 94.5748 28.236C96.126 28.236 97.349 29.5404 97.349 31.3278C97.349 33.0988 96.126 34.3853 94.5748 34.3853ZM124.354 21.167H118.891V36.0743H121.169V30.4259H124.354C126.884 30.4259 129.366 28.6385 129.366 25.7957C129.366 22.9544 126.878 21.167 124.354 21.167ZM124.414 28.3523H121.169V23.2406H124.414C126.115 23.2406 127.086 24.6195 127.086 25.7957C127.086 26.9495 126.115 28.3523 124.414 28.3523ZM138.496 26.2101C136.85 26.2101 135.139 26.9197 134.435 28.4924L136.456 29.3198C136.891 28.4924 137.691 28.2241 138.537 28.2241C139.719 28.2241 140.918 28.9173 140.936 30.1412V30.2977C140.524 30.0651 139.641 29.7208 138.556 29.7208C136.378 29.7208 134.16 30.891 134.16 33.0749C134.16 35.0725 135.943 36.359 137.948 36.359C139.481 36.359 140.327 35.6837 140.858 34.8981H140.936V36.0504H143.136V30.332C143.136 27.6889 141.115 26.2101 138.496 26.2101ZM138.221 34.3793C137.476 34.3793 136.438 34.0185 136.438 33.1167C136.438 31.9628 137.733 31.5201 138.853 31.5201C139.857 31.5201 140.327 31.7362 140.936 32.021C140.757 33.4014 139.541 34.3793 138.221 34.3793ZM151.152 26.5366L148.534 32.9989H148.456L145.749 26.5366H143.292L147.36 35.5674L145.039 40.5927H147.419L153.687 26.5366H151.152ZM130.618 36.0743H132.902V21.167H130.618V36.0743Z" fill="white"/>
<path d="M12.7463 9.28709C12.3875 9.65381 12.1799 10.2248 12.1799 10.9642V37.3381C12.1799 38.0775 12.3875 38.6485 12.7463 39.0152L12.8349 39.0957L27.9721 24.3226V23.9737L12.8349 9.20063L12.7463 9.28709Z" fill="url(#paint0_linear_1701_5152)"/>
<path d="M33.012 29.2495L27.9719 24.3227V23.9738L33.0182 19.047L33.1311 19.1111L39.1072 22.4309C40.8127 23.3731 40.8127 24.9234 39.1072 25.8715L33.1311 29.1854L33.012 29.2495Z" fill="url(#paint1_linear_1701_5152)"/>
<path d="M33.131 29.1858L27.9718 24.1486L12.7461 39.0156C13.3125 39.597 14.2363 39.6671 15.2867 39.0857L33.131 29.1858Z" fill="url(#paint2_linear_1701_5152)"/>
<path d="M33.131 19.1108L15.2867 9.21085C14.2363 8.63543 13.3125 8.70549 12.7461 9.28688L27.9718 24.1479L33.131 19.1108Z" fill="url(#paint3_linear_1701_5152)"/>
<defs>
<linearGradient id="paint0_linear_1701_5152" x1="26.6281" y1="37.6128" x2="6.6194" y2="17.1193" gradientUnits="userSpaceOnUse">
<stop stop-color="#00A0FF"/>
<stop offset="0.0066" stop-color="#00A1FF"/>
<stop offset="0.2601" stop-color="#00BEFF"/>
<stop offset="0.5122" stop-color="#00D2FF"/>
<stop offset="0.7604" stop-color="#00DFFF"/>
<stop offset="1" stop-color="#00E3FF"/>
</linearGradient>
<linearGradient id="paint1_linear_1701_5152" x1="41.3281" y1="24.1466" x2="11.772" y2="24.1466" gradientUnits="userSpaceOnUse">
<stop stop-color="#FFE000"/>
<stop offset="0.4087" stop-color="#FFBD00"/>
<stop offset="0.7754" stop-color="#FFA500"/>
<stop offset="1" stop-color="#FF9C00"/>
</linearGradient>
<linearGradient id="paint2_linear_1701_5152" x1="30.3256" y1="21.4103" x2="3.19223" y2="-6.38055" gradientUnits="userSpaceOnUse">
<stop stop-color="#FF3A44"/>
<stop offset="1" stop-color="#C31162"/>
</linearGradient>
<linearGradient id="paint3_linear_1701_5152" x1="8.91342" y1="47.7895" x2="21.0297" y2="35.3797" gradientUnits="userSpaceOnUse">
<stop stop-color="#32A071"/>
<stop offset="0.0685" stop-color="#2DA771"/>
<stop offset="0.4762" stop-color="#15CF74"/>
<stop offset="0.8009" stop-color="#06E775"/>
<stop offset="1" stop-color="#00F076"/>
</linearGradient>
</defs>
</svg>
