<svg width="68" height="70" viewBox="0 0 68 70" fill="none" xmlns="http://www.w3.org/2000/svg">
<path d="M41 37C42.1046 37 43 37.8954 43 39V44.7548C43 45.4425 42.0226 46 40.8169 46H26.6101C25.5056 46 24.6101 45.1046 24.6101 44V39C24.6101 37.8954 25.5056 37 26.6101 37H41Z" fill="#7231E5"/>
<path d="M15 44.7548V39C15 37.8954 15.8954 37 17 37H21.1389C22.2435 37 23.139 37.8954 23.139 39V44C23.139 45.1046 22.2435 46 21.139 46H17.1831C15.9774 46 15 45.4425 15 44.7548Z" fill="#7231E5"/>
<path d="M31.8281 32.7891C31.8281 33.2248 32.1814 33.5781 32.6172 33.5781H38.9297C39.3655 33.5781 39.7188 33.2248 39.7188 32.7891C39.7188 32.3533 39.3655 32 38.9297 32H32.6172C32.1814 32 31.8281 32.3533 31.8281 32.7891Z" fill="#000577"/>
<path d="M14.8577 12.1233C15.0724 11.9085 15.0724 11.5603 14.8577 11.3455C14.6429 11.1307 14.2946 11.1307 14.0798 11.3455L14.8577 12.1233ZM10.1345 15.2908C9.91974 15.5056 9.91974 15.8538 10.1345 16.0686C10.3493 16.2834 10.6976 16.2834 10.9123 16.0686L10.1345 15.2908ZM10.9123 11.3455C10.6976 11.1307 10.3493 11.1307 10.1345 11.3455C9.91974 11.5603 9.91974 11.9085 10.1345 12.1233L10.9123 11.3455ZM14.0798 16.0686C14.2946 16.2834 14.6429 16.2834 14.8577 16.0686C15.0724 15.8538 15.0724 15.5056 14.8577 15.2908L14.0798 16.0686ZM10.5234 55.6828H49.9766V54.5828H10.5234V55.6828ZM49.9766 8.81719H10.5234V9.91719H49.9766V8.81719ZM6.81719 12.5234V18.0469H7.91719V12.5234H6.81719ZM6.81719 18.0469V51.9766H7.91719V18.0469H6.81719ZM53.6828 51.9766V18.0469H52.5828V51.9766H53.6828ZM53.6828 18.0469V12.5234H52.5828V18.0469H53.6828ZM7.36719 18.5969H53.1328V17.4969H7.36719V18.5969ZM14.0798 11.3455L12.1072 13.3181L12.885 14.0959L14.8577 12.1233L14.0798 11.3455ZM12.1072 13.3181L10.1345 15.2908L10.9123 16.0686L12.885 14.0959L12.1072 13.3181ZM10.1345 12.1233L12.1072 14.0959L12.885 13.3181L10.9123 11.3455L10.1345 12.1233ZM12.1072 14.0959L14.0798 16.0686L14.8577 15.2908L12.885 13.3181L12.1072 14.0959ZM49.9766 9.91719C51.416 9.91719 52.5828 11.084 52.5828 12.5234H53.6828C53.6828 10.4765 52.0235 8.81719 49.9766 8.81719V9.91719ZM49.9766 55.6828C52.0235 55.6828 53.6828 54.0235 53.6828 51.9766H52.5828C52.5828 53.416 51.416 54.5828 49.9766 54.5828V55.6828ZM10.5234 54.5828C9.08405 54.5828 7.91719 53.416 7.91719 51.9766H6.81719C6.81719 54.0235 8.47653 55.6828 10.5234 55.6828V54.5828ZM10.5234 8.81719C8.47653 8.81719 6.81719 10.4765 6.81719 12.5234H7.91719C7.91719 11.084 9.08404 9.91719 10.5234 9.91719V8.81719Z" fill="black"/>
<path d="M42.504 28.8069C43.6086 28.8069 44.504 29.7023 44.504 30.8069V43.3911C44.504 44.6844 43.4555 45.7328 42.1622 45.7328H26.7774C25.6729 45.7328 24.7774 44.8374 24.7774 43.7328V30.8069C24.7774 29.7023 25.6729 28.8069 26.7774 28.8069H42.504Z" stroke="black" stroke-linecap="round"/>
<path d="M14.4688 43.3911V30.8069C14.4688 29.7023 15.3642 28.8069 16.4687 28.8069H21.1993C22.3039 28.8069 23.1993 29.7023 23.1993 30.8069V43.7328C23.1993 44.8374 22.3039 45.7328 21.1993 45.7328H16.8105C15.5172 45.7328 14.4688 44.6844 14.4688 43.3911Z" stroke="black" stroke-linecap="round"/>
</svg>
