<svg width="68" height="70" viewBox="0 0 68 70" fill="none" xmlns="http://www.w3.org/2000/svg">
<path opacity="0.06" fill-rule="evenodd" clip-rule="evenodd" d="M61.5282 33.4901C65.7895 37.0234 64.4575 43.871 59.1825 45.5493L19.8117 58.0755C14.7471 59.6868 9.80481 55.2883 10.8177 50.0709L18.371 11.1637C19.3843 5.94411 25.6176 3.71533 29.7106 7.10904L61.5282 33.4901Z" fill="#934AEF"/>
<rect x="14.4092" y="19.655" width="10.287" height="7.34783" rx="1.11607" fill="#7231E5"/>
<path d="M47.8971 27.1488C47.8056 26.8591 47.4966 26.6985 47.2069 26.7901C46.9173 26.8816 46.7567 27.1906 46.8482 27.4803L47.8971 27.1488ZM46.8468 33.099C46.7578 33.3894 46.9212 33.697 47.2116 33.7859C47.5021 33.8749 47.8096 33.7115 47.8986 33.4211L46.8468 33.099ZM50.8654 24.1626C50.7665 23.8754 50.4535 23.7228 50.1663 23.8217C49.8791 23.9206 49.7265 24.2337 49.8254 24.5209L50.8654 24.1626ZM49.8267 36.05C49.7257 36.3365 49.8762 36.6506 50.1627 36.7515C50.4492 36.8524 50.7633 36.702 50.8642 36.4155L49.8267 36.05ZM15.1431 36.0049C14.8393 36.0049 14.5931 36.2511 14.5931 36.5549C14.5931 36.8586 14.8393 37.1049 15.1431 37.1049V36.0049ZM34.2474 37.1049C34.5512 37.1049 34.7974 36.8586 34.7974 36.5549C34.7974 36.2511 34.5512 36.0049 34.2474 36.0049V37.1049ZM15.1431 40.4136C14.8393 40.4136 14.5931 40.6598 14.5931 40.9636C14.5931 41.2673 14.8393 41.5136 15.1431 41.5136V40.4136ZM25.43 41.5136C25.7338 41.5136 25.98 41.2673 25.98 40.9636C25.98 40.6598 25.7338 40.4136 25.43 40.4136V41.5136ZM29.8387 40.4136C29.535 40.4136 29.2887 40.6598 29.2887 40.9636C29.2887 41.2673 29.535 41.5136 29.8387 41.5136V40.4136ZM40.1257 41.5136C40.4295 41.5136 40.6757 41.2673 40.6757 40.9636C40.6757 40.6598 40.4295 40.4136 40.1257 40.4136V41.5136ZM13.7071 15.4445H53.3182V14.3445H13.7071V15.4445ZM55.7409 17.8673V43.6606H56.8409V17.8673H55.7409ZM53.3182 46.0833H13.7071V47.1833H53.3182V46.0833ZM11.2844 43.6606V17.8673H10.1844V43.6606H11.2844ZM13.7071 46.0833C12.3691 46.0833 11.2844 44.9986 11.2844 43.6606H10.1844C10.1844 45.6061 11.7616 47.1833 13.7071 47.1833V46.0833ZM55.7409 43.6606C55.7409 44.9986 54.6562 46.0833 53.3182 46.0833V47.1833C55.2637 47.1833 56.8409 45.6061 56.8409 43.6606H55.7409ZM53.3182 15.4445C54.6562 15.4445 55.7409 16.5292 55.7409 17.8673H56.8409C56.8409 15.9217 55.2637 14.3445 53.3182 14.3445V15.4445ZM13.7071 14.3445C11.7616 14.3445 10.1844 15.9217 10.1844 17.8673H11.2844C11.2844 16.5292 12.3691 15.4445 13.7071 15.4445V14.3445ZM46.8482 27.4803C47.2152 28.6413 47.3719 29.5019 47.3649 30.3293C47.3578 31.1586 47.1862 31.9907 46.8468 33.099L47.8986 33.4211C48.2513 32.2693 48.4565 31.321 48.4648 30.3387C48.4732 29.3545 48.2838 28.3723 47.8971 27.1488L46.8482 27.4803ZM49.8254 24.5209C50.6703 26.9741 51.0293 28.8052 51.0057 30.5322C50.9821 32.2595 50.5755 33.9242 49.8267 36.05L50.8642 36.4155C51.6299 34.2418 52.0796 32.4473 52.1056 30.5472C52.1315 28.6467 51.7332 26.6821 50.8654 24.1626L49.8254 24.5209ZM15.1431 37.1049H34.2474V36.0049H15.1431V37.1049ZM15.1431 41.5136H25.43V40.4136H15.1431V41.5136ZM29.8387 41.5136H40.1257V40.4136H29.8387V41.5136Z" fill="#050505"/>
</svg>
