<svg width="68" height="70" viewBox="0 0 68 70" fill="none" xmlns="http://www.w3.org/2000/svg">
<path d="M23.9042 18.2969V20.6752C23.9042 22.3039 22.5976 23.6242 20.9857 23.6242H18.7969L23.9042 18.2969Z" fill="white"/>
<path d="M63.2031 27.3646V59.8053C63.2031 61.4057 61.9277 62.7031 60.3543 62.7031L35.427 62.6582C33.8536 62.6582 32.5781 61.3608 32.5781 59.7604V29.6567L37.5636 24.4219L60.3543 24.4668C61.9277 24.4668 63.2031 25.7642 63.2031 27.3646Z" fill="white"/>
<path d="M23.9042 18.2969V20.6752C23.9042 22.3039 22.5976 23.6242 20.9857 23.6242H18.7969M23.9042 18.2969H44.9721C46.584 18.2969 47.8906 19.6172 47.8906 21.2459V24.195M23.9042 18.2969L18.7969 23.6242M18.7969 23.6242L18.7969 55.1603C18.7969 56.789 20.1035 58.1094 21.7154 58.1094H31.8389M37.5636 24.4219V26.7589C37.5636 28.3593 36.2881 29.6567 34.7148 29.6567H32.5781M37.5636 24.4219L60.3543 24.4668C61.9277 24.4668 63.2031 25.7642 63.2031 27.3646V59.8053C63.2031 61.4057 61.9277 62.7031 60.3543 62.7031L35.427 62.6582C33.8536 62.6582 32.5781 61.3608 32.5781 59.7604V29.6567M37.5636 24.4219L32.5781 29.6567" stroke="#333333" stroke-width="1.1" stroke-linecap="round" stroke-linejoin="round"/>
<path d="M37.9375 35.906C37.9375 35.0603 38.6231 34.3748 39.4688 34.3748H56.3125C57.1582 34.3748 57.8438 35.0603 57.8438 35.906C57.8438 36.7517 57.1582 37.4373 56.3125 37.4373H39.4687C38.6231 37.4373 37.9375 36.7517 37.9375 35.906Z" fill="#6A2BE3"/>
<path d="M37.9375 42.031C37.9375 41.1853 38.6231 40.4998 39.4688 40.4998H56.3125C57.1582 40.4998 57.8438 41.1853 57.8438 42.031C57.8438 42.8767 57.1582 43.5623 56.3125 43.5623H39.4687C38.6231 43.5623 37.9375 42.8767 37.9375 42.031Z" fill="#6A2BE3"/>
<path d="M37.9375 48.156C37.9375 47.3103 38.6231 46.6248 39.4688 46.6248H56.3125C57.1582 46.6248 57.8438 47.3103 57.8438 48.156C57.8438 49.0017 57.1582 49.6873 56.3125 49.6873H39.4687C38.6231 49.6873 37.9375 49.0017 37.9375 48.156Z" fill="#6A2BE3"/>
<path d="M37.9375 54.281C37.9375 53.4353 38.6231 52.7498 39.4688 52.7498H56.3125C57.1582 52.7498 57.8438 53.4353 57.8438 54.281C57.8438 55.1267 57.1582 55.8123 56.3125 55.8123H39.4687C38.6231 55.8123 37.9375 55.1267 37.9375 54.281Z" fill="#6A2BE3"/>
<path opacity="0.06" fill-rule="evenodd" clip-rule="evenodd" d="M23.0295 54.3504C18.6875 57.784 12.2664 55.0574 11.7215 49.5488L8.21032 14.0505C7.68718 8.76151 13.0172 4.84176 17.9099 6.91725L49.4123 20.2805C54.3071 22.3568 55.1912 28.9173 51.0207 32.2153L23.0295 54.3504Z" fill="#934AEF"/>
</svg>
