<svg width="68" height="70" viewBox="0 0 68 70" fill="none" xmlns="http://www.w3.org/2000/svg">
<mask id="mask0_653_4062" style="mask-type:alpha" maskUnits="userSpaceOnUse" x="41" y="36" width="24" height="20">
<path fill-rule="evenodd" clip-rule="evenodd" d="M41.2695 36H64.2695V56H41.2695V36Z" fill="white"/>
</mask>
<g mask="url(#mask0_653_4062)">
<path fill-rule="evenodd" clip-rule="evenodd" d="M61.2854 47.6538C60.391 48.6779 59.1845 49.4919 57.6657 50.0951C56.147 50.6981 54.5147 51 52.7692 51C52.2474 51 51.6912 50.9653 51.1008 50.8957L50.3692 50.8178L49.8173 51.3128C48.765 52.2504 47.5884 52.9925 46.2878 53.5394C46.6813 52.8364 46.9808 52.0898 47.1863 51.3L47.5328 50.0498L46.4162 49.399C45.3038 48.7563 44.4419 47.9946 43.8299 47.1134C43.2181 46.2326 42.9123 45.3057 42.9123 44.3335C42.9123 43.1442 43.3594 42.0375 44.2535 41.0132C45.1479 39.9889 46.3542 39.175 47.873 38.5717C49.3919 37.9684 51.0239 37.6665 52.7695 37.6665C54.515 37.6665 56.147 37.9683 57.6657 38.5716C59.1844 39.1749 60.3909 39.9888 61.2853 41.013C62.1795 42.0373 62.6265 43.1441 62.6265 44.3332C62.6265 45.5225 62.1795 46.6294 61.2854 47.6538M62.7293 40.1471C61.7026 38.8668 60.3079 37.8554 58.5453 37.1132C56.7827 36.371 54.8574 36 52.7696 36C50.6818 36 48.7565 36.371 46.9939 37.1132C45.2312 37.8554 43.8365 38.8667 42.8097 40.1471C41.7829 41.4275 41.2695 42.8228 41.2695 44.3333C41.2695 45.6353 41.6566 46.8553 42.431 47.9925C43.2055 49.1296 44.2642 50.0847 45.6077 50.8572C45.5135 51.2043 45.4023 51.5341 45.2739 51.8468C45.1455 52.1593 45.03 52.4154 44.9274 52.6152C44.8246 52.8147 44.6857 53.0362 44.5101 53.279C44.3349 53.5222 44.2022 53.6937 44.1124 53.7936C44.0226 53.8935 43.875 54.0582 43.6695 54.2884C43.4643 54.5183 43.3316 54.6683 43.2718 54.7377C43.2631 54.7422 43.2289 54.7809 43.1691 54.8551C43.1092 54.9288 43.0792 54.9654 43.0792 54.9654L43.0022 55.0827C42.9593 55.1474 42.9401 55.1888 42.9443 55.2059C42.9486 55.2234 42.9401 55.2668 42.9187 55.3361C42.8973 55.4057 42.8995 55.4578 42.9251 55.4924V55.5055C42.9593 55.6531 43.0277 55.7725 43.1304 55.8636C43.2331 55.9545 43.3488 56 43.477 56H43.5412C44.0975 55.9304 44.5852 55.8353 45.0044 55.7137C47.2463 55.1321 49.2144 54.0817 50.9085 52.5625C51.5502 52.6319 52.1706 52.6666 52.7695 52.6666C54.8573 52.6666 56.7826 52.2956 58.5452 51.5531C60.3078 50.8109 61.7025 49.7998 62.7292 48.5195C63.7561 47.2392 64.2695 45.8437 64.2695 44.3332C64.2696 42.8231 63.7562 41.4275 62.7293 40.1471" fill="black"/>
</g>
<g clip-path="url(#clip0_653_4062)">
<path fill-rule="evenodd" clip-rule="evenodd" d="M11.09 29.112L8.44581 31.1228C8.33363 31.2032 8.26953 31.3319 8.26953 31.4606V52.5818C8.26953 52.807 8.44581 53 8.67017 53H42.8689C43.0932 53 43.2695 52.807 43.2695 52.5818V31.4606C43.2695 31.3319 43.2054 31.2032 43.0933 31.1228L40.449 29.112V23.5301C40.449 23.3049 40.2567 23.1118 40.0324 23.1118H32.5965L26.0259 18.0929C25.8817 17.9803 25.6734 17.9642 25.5291 18.0768L18.9426 23.1118H11.5067C11.2824 23.1118 11.09 23.3049 11.09 23.5301V29.112ZM9.34325 31.4606L11.09 30.1254V32.8118L9.34325 31.4606ZM11.9074 33.4231L25.7695 44.0239L39.6317 33.4231V23.9322H11.9074V33.4231ZM42.1958 31.4606L40.449 32.8118V30.1254L42.1958 31.4606ZM31.2663 23.1118L25.7695 18.9133L20.2727 23.1118H31.2663ZM30.8336 41.1766L41.8753 52.1796H9.66376L20.7054 41.1766L25.5291 44.8604C25.6734 44.973 25.8817 44.9569 26.0259 44.8443L30.8336 41.1766ZM31.4907 40.678L42.4522 51.6166V32.297L31.4907 40.678ZM9.08684 51.6166V32.297L20.0484 40.678L9.08684 51.6166Z" fill="black"/>
<path d="M8.44581 31.1228L8.50411 31.2041L8.50634 31.2024L8.44581 31.1228ZM11.09 29.112L11.1506 29.1916L11.19 29.1616V29.112H11.09ZM43.0933 31.1228L43.0327 31.2024L43.035 31.204L43.0933 31.1228ZM40.449 29.112H40.349V29.1616L40.3885 29.1916L40.449 29.112ZM32.5965 23.1118L32.5358 23.1913L32.5626 23.2118H32.5965V23.1118ZM26.0259 18.0929L25.9644 18.1718L25.9652 18.1724L26.0259 18.0929ZM25.5291 18.0768L25.5899 18.1563L25.5907 18.1557L25.5291 18.0768ZM18.9426 23.1118V23.2118H18.9765L19.0033 23.1913L18.9426 23.1118ZM11.09 30.1254H11.19V29.9231L11.0293 30.046L11.09 30.1254ZM9.34325 31.4606L9.28252 31.3811L9.1792 31.4601L9.28206 31.5397L9.34325 31.4606ZM11.09 32.8118L11.0289 32.8909L11.19 33.0156V32.8118H11.09ZM25.7695 44.0239L25.7088 44.1033L25.7695 44.1498L25.8303 44.1033L25.7695 44.0239ZM11.9074 33.4231H11.8074V33.4725L11.8466 33.5025L11.9074 33.4231ZM39.6317 33.4231L39.6925 33.5025L39.7317 33.4725V33.4231H39.6317ZM39.6317 23.9322H39.7317V23.8322H39.6317V23.9322ZM11.9074 23.9322V23.8322H11.8074V23.9322H11.9074ZM40.449 32.8118H40.349V33.0156L40.5102 32.8909L40.449 32.8118ZM42.1958 31.4606L42.257 31.5397L42.3599 31.4601L42.2565 31.3811L42.1958 31.4606ZM40.449 30.1254L40.5097 30.046L40.349 29.9231V30.1254H40.449ZM25.7695 18.9133L25.8302 18.8339L25.7695 18.7875L25.7088 18.8339L25.7695 18.9133ZM31.2663 23.1118V23.2118H31.562L31.327 23.0324L31.2663 23.1118ZM20.2727 23.1118L20.212 23.0324L19.9771 23.2118H20.2727V23.1118ZM41.8753 52.1796V52.2796H42.1173L41.9459 52.1088L41.8753 52.1796ZM30.8336 41.1766L30.9042 41.1058L30.8424 41.0442L30.773 41.0971L30.8336 41.1766ZM9.66376 52.1796L9.59318 52.1088L9.42174 52.2796H9.66376V52.1796ZM20.7054 41.1766L20.7661 41.0972L20.6967 41.0442L20.6348 41.1058L20.7054 41.1766ZM25.5291 44.8604L25.5907 44.7816L25.5898 44.7809L25.5291 44.8604ZM26.0259 44.8443L25.9653 44.7648L25.9644 44.7655L26.0259 44.8443ZM42.4522 51.6166L42.3816 51.6874L42.5522 51.8576V51.6166H42.4522ZM31.4907 40.678L31.4299 40.5985L31.3391 40.668L31.42 40.7487L31.4907 40.678ZM42.4522 32.297H42.5522V32.0947L42.3915 32.2176L42.4522 32.297ZM9.08684 32.297L9.14758 32.2176L8.98684 32.0947V32.297H9.08684ZM9.08684 51.6166H8.98684V51.8576L9.15748 51.6874L9.08684 51.6166ZM20.0484 40.678L20.119 40.7487L20.2 40.668L20.1091 40.5985L20.0484 40.678ZM8.50634 31.2024L11.1506 29.1916L11.0295 29.0324L8.38528 31.0432L8.50634 31.2024ZM8.36953 31.4606C8.36953 31.3643 8.41792 31.2658 8.50408 31.204L8.38754 31.0415C8.24934 31.1406 8.16953 31.2994 8.16953 31.4606H8.36953ZM8.36953 52.5818V31.4606H8.16953V52.5818H8.36953ZM8.67017 52.9C8.50641 52.9 8.36953 52.7573 8.36953 52.5818H8.16953C8.16953 52.8567 8.38521 53.1 8.67017 53.1V52.9ZM42.8689 52.9H8.67017V53.1H42.8689V52.9ZM43.1695 52.5818C43.1695 52.7573 43.0326 52.9 42.8689 52.9V53.1C43.1538 53.1 43.3695 52.8567 43.3695 52.5818H43.1695ZM43.1695 31.4606V52.5818H43.3695V31.4606H43.1695ZM43.035 31.204C43.1211 31.2658 43.1695 31.3643 43.1695 31.4606H43.3695C43.3695 31.2994 43.2897 31.1406 43.1515 31.0415L43.035 31.204ZM40.3885 29.1916L43.0327 31.2024L43.1538 31.0432L40.5095 29.0324L40.3885 29.1916ZM40.349 23.5301V29.112H40.549V23.5301H40.349ZM40.0324 23.2118C40.2011 23.2118 40.349 23.3597 40.349 23.5301H40.549C40.549 23.25 40.3123 23.0118 40.0324 23.0118V23.2118ZM32.5965 23.2118H40.0324V23.0118H32.5965V23.2118ZM25.9652 18.1724L32.5358 23.1913L32.6572 23.0324L26.0866 18.0135L25.9652 18.1724ZM25.5907 18.1557C25.6928 18.0759 25.8501 18.0825 25.9644 18.1717L26.0875 18.0141C25.9133 17.8781 25.6539 17.8526 25.4676 17.998L25.5907 18.1557ZM19.0033 23.1913L25.5899 18.1563L25.4684 17.9974L18.8819 23.0324L19.0033 23.1913ZM11.5067 23.2118H18.9426V23.0118H11.5067V23.2118ZM11.19 23.5301C11.19 23.3597 11.3379 23.2118 11.5067 23.2118V23.0118C11.2268 23.0118 10.99 23.25 10.99 23.5301H11.19ZM11.19 29.112V23.5301H10.99V29.112H11.19ZM11.0293 30.046L9.28252 31.3811L9.40398 31.54L11.1508 30.2049L11.0293 30.046ZM11.19 32.8118V30.1254H10.99V32.8118H11.19ZM9.28206 31.5397L11.0289 32.8909L11.1512 32.7327L9.40443 31.3815L9.28206 31.5397ZM25.8303 43.9445L11.9681 33.3436L11.8466 33.5025L25.7088 44.1033L25.8303 43.9445ZM39.571 33.3436L25.7088 43.9445L25.8303 44.1033L39.6925 33.5025L39.571 33.3436ZM39.5317 23.9322V33.4231H39.7317V23.9322H39.5317ZM11.9074 24.0322H39.6317V23.8322H11.9074V24.0322ZM12.0074 33.4231V23.9322H11.8074V33.4231H12.0074ZM40.5102 32.8909L42.257 31.5397L42.1346 31.3815L40.3878 32.7327L40.5102 32.8909ZM40.349 30.1254V32.8118H40.549V30.1254H40.349ZM42.2565 31.3811L40.5097 30.046L40.3883 30.2049L42.1351 31.54L42.2565 31.3811ZM25.7088 18.9928L31.2056 23.1913L31.327 23.0324L25.8302 18.8339L25.7088 18.9928ZM20.3334 23.1913L25.8302 18.9928L25.7088 18.8339L20.212 23.0324L20.3334 23.1913ZM31.2663 23.0118H20.2727V23.2118H31.2663V23.0118ZM41.9459 52.1088L30.9042 41.1058L30.763 41.2475L41.8047 52.2504L41.9459 52.1088ZM9.66376 52.2796H41.8753V52.0796H9.66376V52.2796ZM20.6348 41.1058L9.59318 52.1088L9.73435 52.2504L20.776 41.2475L20.6348 41.1058ZM25.5898 44.7809L20.7661 41.0972L20.6447 41.2561L25.4685 44.9399L25.5898 44.7809ZM25.9644 44.7655C25.8501 44.8547 25.6928 44.8613 25.5907 44.7816L25.4676 44.9392C25.6539 45.0846 25.9133 45.0591 26.0875 44.9231L25.9644 44.7655ZM30.773 41.0971L25.9653 44.7648L26.0866 44.9238L30.8943 41.2561L30.773 41.0971ZM42.5229 51.5458L31.5613 40.6072L31.42 40.7487L42.3816 51.6874L42.5229 51.5458ZM42.3522 32.297V51.6166H42.5522V32.297H42.3522ZM31.5514 40.7574L42.513 32.3765L42.3915 32.2176L31.4299 40.5985L31.5514 40.7574ZM8.98684 32.297V51.6166H9.18684V32.297H8.98684ZM20.1091 40.5985L9.14758 32.2176L9.0261 32.3765L19.9876 40.7574L20.1091 40.5985ZM9.15748 51.6874L20.119 40.7487L19.9777 40.6072L9.0162 51.5458L9.15748 51.6874Z" fill="black"/>
<path d="M5.27442 55.9614C5.27442 55.9478 5.27809 55.9372 5.28543 55.9298C5.29181 55.9234 5.29993 55.9201 5.30978 55.9201C5.32297 55.9201 5.33261 55.9245 5.33871 55.9331C5.34208 55.938 5.34389 55.9428 5.34413 55.9477H5.32776C5.32669 55.944 5.32533 55.9411 5.32366 55.9392C5.32068 55.9358 5.31627 55.9341 5.31042 55.9341C5.30447 55.9341 5.29977 55.9365 5.29633 55.9413C5.29289 55.9461 5.29117 55.9529 5.29117 55.9617C5.29117 55.9705 5.29298 55.9771 5.2966 55.9815C5.30025 55.9859 5.30487 55.988 5.31048 55.988C5.31622 55.988 5.3206 55.9862 5.32361 55.9824C5.32528 55.9804 5.32666 55.9773 5.32776 55.9733H5.34397C5.34256 55.9818 5.33892 55.9888 5.33307 55.9942C5.32726 55.9995 5.3198 56.0022 5.31069 56.0022C5.29941 56.0022 5.29055 55.9986 5.2841 55.9913C5.27765 55.9841 5.27442 55.9741 5.27442 55.9614ZM5.38678 55.9407C5.38706 55.9407 5.38729 55.9407 5.38747 55.9407C5.38768 55.9407 5.38813 55.9407 5.3888 55.9408V55.9563C5.38784 55.9562 5.38699 55.9561 5.38625 55.9561C5.3855 55.956 5.3849 55.956 5.38444 55.956C5.37834 55.956 5.37425 55.958 5.37216 55.962C5.37099 55.9642 5.3704 55.9677 5.3704 55.9723V56H5.35514V55.942H5.3696V55.9521C5.37194 55.9483 5.37398 55.9456 5.37572 55.9442C5.37856 55.9418 5.38224 55.9407 5.38678 55.9407ZM5.4206 55.953C5.41709 55.953 5.41436 55.9541 5.41241 55.9563C5.4105 55.9585 5.40929 55.9615 5.40879 55.9652H5.43235C5.4321 55.9612 5.43088 55.9582 5.42868 55.9561C5.42652 55.954 5.42382 55.953 5.4206 55.953ZM5.4206 55.9405C5.42542 55.9405 5.42976 55.9414 5.43363 55.9432C5.43749 55.945 5.44068 55.9479 5.4432 55.9518C5.44547 55.9552 5.44694 55.9592 5.44761 55.9637C5.448 55.9664 5.44816 55.9702 5.44809 55.9752H5.40842C5.40863 55.981 5.41046 55.9851 5.4139 55.9875C5.41599 55.9889 5.41851 55.9896 5.42145 55.9896C5.42457 55.9896 5.4271 55.9887 5.42905 55.987C5.43012 55.986 5.43106 55.9847 5.43187 55.983H5.44734C5.44695 55.9864 5.44516 55.9899 5.44197 55.9935C5.43701 55.9991 5.43006 56.0019 5.42113 56.0019C5.41376 56.0019 5.40725 55.9995 5.40162 55.9948C5.39598 55.99 5.39316 55.9823 5.39316 55.9716C5.39316 55.9616 5.3957 55.9539 5.40076 55.9485C5.40587 55.9432 5.41248 55.9405 5.4206 55.9405ZM5.49031 55.9718C5.48935 55.9724 5.48838 55.9729 5.48738 55.9733C5.48643 55.9737 5.4851 55.974 5.4834 55.9743L5.47999 55.975C5.4768 55.9755 5.47452 55.9762 5.47313 55.977C5.47079 55.9784 5.46962 55.9806 5.46962 55.9835C5.46962 55.9861 5.47033 55.9879 5.47175 55.9891C5.4732 55.9902 5.47496 55.9908 5.47702 55.9908C5.48028 55.9908 5.48327 55.9898 5.486 55.9879C5.48877 55.986 5.4902 55.9825 5.49031 55.9775V55.9718ZM5.48111 55.9647C5.48391 55.9644 5.48591 55.9639 5.48712 55.9634C5.48928 55.9625 5.49036 55.9611 5.49036 55.9591C5.49036 55.9567 5.48953 55.9551 5.48786 55.9542C5.48623 55.9533 5.48382 55.9528 5.48063 55.9528C5.47705 55.9528 5.47452 55.9537 5.47303 55.9555C5.47196 55.9568 5.47126 55.9586 5.4709 55.9608H5.45628C5.4566 55.9557 5.45801 55.9516 5.46053 55.9483C5.46454 55.9432 5.47141 55.9407 5.48116 55.9407C5.48751 55.9407 5.49314 55.9419 5.49807 55.9444C5.503 55.947 5.50546 55.9517 5.50546 55.9587V55.9853C5.50546 55.9871 5.5055 55.9893 5.50557 55.992C5.50568 55.994 5.50598 55.9953 5.50647 55.996C5.50697 55.9967 5.50771 55.9973 5.50871 55.9978V56H5.49222C5.49176 55.9988 5.49144 55.9977 5.49127 55.9967C5.49109 55.9957 5.49095 55.9945 5.49084 55.9932C5.48875 55.9955 5.48634 55.9974 5.48361 55.999C5.48035 56.0009 5.47666 56.0018 5.47255 56.0018C5.4673 56.0018 5.46296 56.0003 5.45952 55.9973C5.45612 55.9943 5.45442 55.9901 5.45442 55.9846C5.45442 55.9775 5.45716 55.9723 5.46266 55.9691C5.46567 55.9674 5.4701 55.9661 5.47595 55.9654L5.48111 55.9647ZM5.51301 55.9534V55.9426H5.5211V55.9264H5.53609V55.9426H5.5455V55.9534H5.53609V55.984C5.53609 55.9864 5.53639 55.9879 5.537 55.9885C5.5376 55.989 5.53944 55.9893 5.54253 55.9893C5.54299 55.9893 5.54347 55.9893 5.54396 55.9893C5.54449 55.9893 5.54501 55.9892 5.5455 55.9892V56.0005L5.53832 56.0008C5.53116 56.001 5.52627 55.9998 5.52365 55.9971C5.52195 55.9953 5.5211 55.9927 5.5211 55.989V55.9534H5.51301ZM5.5781 55.953C5.57459 55.953 5.57186 55.9541 5.56991 55.9563C5.568 55.9585 5.56679 55.9615 5.56629 55.9652H5.58985C5.5896 55.9612 5.58838 55.9582 5.58618 55.9561C5.58402 55.954 5.58132 55.953 5.5781 55.953ZM5.5781 55.9405C5.58292 55.9405 5.58726 55.9414 5.59113 55.9432C5.59499 55.945 5.59818 55.9479 5.6007 55.9518C5.60297 55.9552 5.60444 55.9592 5.60511 55.9637C5.6055 55.9664 5.60566 55.9702 5.60559 55.9752H5.56592C5.56613 55.981 5.56796 55.9851 5.5714 55.9875C5.57349 55.9889 5.57601 55.9896 5.57895 55.9896C5.58207 55.9896 5.5846 55.9887 5.58655 55.987C5.58762 55.986 5.58856 55.9847 5.58937 55.983H5.60485C5.60446 55.9864 5.60267 55.9899 5.59947 55.9935C5.59451 55.9991 5.58756 56.0019 5.57863 56.0019C5.57126 56.0019 5.56475 55.9995 5.55912 55.9948C5.55348 55.99 5.55066 55.9823 5.55066 55.9716C5.55066 55.9616 5.5532 55.9539 5.55827 55.9485C5.56337 55.9432 5.56998 55.9405 5.5781 55.9405ZM5.63723 55.9407C5.64074 55.9407 5.64386 55.9414 5.64659 55.943C5.64932 55.9445 5.65153 55.9466 5.65323 55.9494V55.9217H5.6686V56H5.65387V55.992C5.65171 55.9954 5.64925 55.9979 5.64648 55.9995C5.64372 56.001 5.64028 56.0018 5.63616 56.0018C5.62939 56.0018 5.62369 55.9991 5.61904 55.9936C5.61443 55.9881 5.61213 55.9811 5.61213 55.9725C5.61213 55.9626 5.6144 55.9548 5.61894 55.9492C5.62351 55.9435 5.62961 55.9407 5.63723 55.9407ZM5.64053 55.989C5.64481 55.989 5.64808 55.9875 5.65031 55.9843C5.65254 55.9811 5.65366 55.9769 5.65366 55.9719C5.65366 55.9648 5.65187 55.9597 5.64829 55.9567C5.64609 55.9548 5.64354 55.9539 5.64063 55.9539C5.6362 55.9539 5.63294 55.9556 5.63085 55.9589C5.62879 55.9623 5.62776 55.9664 5.62776 55.9714C5.62776 55.9767 5.62881 55.981 5.6309 55.9843C5.63303 55.9875 5.63624 55.989 5.64053 55.989ZM5.74405 55.9408C5.75168 55.9408 5.75763 55.9435 5.76192 55.949C5.76625 55.9545 5.76841 55.9616 5.76841 55.9703C5.76841 55.9793 5.76628 55.9867 5.76203 55.9927C5.75777 55.9986 5.75184 56.0015 5.74421 56.0015C5.73943 56.0015 5.73558 56.0006 5.73268 55.9987C5.73094 55.9975 5.72906 55.9956 5.72704 55.9927V56H5.7122V55.9217H5.7273V55.9496C5.72922 55.9469 5.73133 55.9448 5.73363 55.9434C5.73636 55.9417 5.73984 55.9408 5.74405 55.9408ZM5.74017 55.989C5.74407 55.989 5.7471 55.9875 5.74927 55.9843C5.75143 55.9812 5.75251 55.977 5.75251 55.9719C5.75251 55.9678 5.75198 55.9644 5.75091 55.9617C5.74889 55.9566 5.74517 55.954 5.73975 55.954C5.73425 55.954 5.73048 55.9565 5.72842 55.9615C5.72736 55.9642 5.72683 55.9676 5.72683 55.9718C5.72683 55.9768 5.72793 55.9809 5.73012 55.9842C5.73232 55.9874 5.73567 55.989 5.74017 55.989ZM5.78165 56.0111L5.78356 56.0112C5.78505 56.0113 5.78647 56.0112 5.78782 56.0111C5.78916 56.0109 5.7903 56.0105 5.79122 56.0098C5.79211 56.0092 5.79292 56.008 5.79367 56.0061C5.79445 56.0041 5.79476 56.003 5.79462 56.0026L5.77335 55.942H5.79021L5.80286 55.9848L5.81483 55.942H5.83094L5.81105 55.999C5.80723 56.01 5.80419 56.0168 5.80196 56.0195C5.79973 56.0221 5.79526 56.0234 5.78856 56.0234C5.78721 56.0234 5.78613 56.0234 5.78532 56.0234C5.7845 56.0234 5.78328 56.0233 5.78165 56.0232V56.0111ZM5.29373 55.9352V55.9864H5.30883C5.31655 55.9864 5.32194 55.9826 5.32499 55.975C5.32666 55.9708 5.32749 55.9658 5.32749 55.96C5.32749 55.952 5.32623 55.9459 5.32372 55.9417C5.32123 55.9374 5.31627 55.9352 5.30883 55.9352H5.29373ZM5.31159 55.9216C5.31645 55.9217 5.32049 55.9223 5.32372 55.9233C5.32921 55.9251 5.33366 55.9284 5.33706 55.9333C5.33979 55.9372 5.34165 55.9414 5.34265 55.9459C5.34364 55.9505 5.34413 55.9548 5.34413 55.9589C5.34413 55.9693 5.34204 55.9781 5.33786 55.9854C5.33219 55.9951 5.32343 56 5.31159 56H5.27783V55.9216H5.31159ZM5.38726 55.9718C5.3863 55.9724 5.38533 55.9729 5.38433 55.9733C5.38338 55.9737 5.38205 55.974 5.38035 55.9743L5.37694 55.975C5.37375 55.9755 5.37147 55.9762 5.37008 55.977C5.36774 55.9784 5.36657 55.9806 5.36657 55.9835C5.36657 55.9861 5.36728 55.9879 5.3687 55.9891C5.37015 55.9902 5.37191 55.9908 5.37396 55.9908C5.37723 55.9908 5.38022 55.9898 5.38295 55.9879C5.38572 55.986 5.38715 55.9825 5.38726 55.9775V55.9718ZM5.37806 55.9647C5.38086 55.9644 5.38286 55.9639 5.38407 55.9634C5.38623 55.9625 5.38731 55.9611 5.38731 55.9591C5.38731 55.9567 5.38648 55.9551 5.38481 55.9542C5.38318 55.9533 5.38077 55.9528 5.37758 55.9528C5.374 55.9528 5.37147 55.9537 5.36998 55.9555C5.36891 55.9568 5.3682 55.9586 5.36785 55.9608H5.35323C5.35355 55.9557 5.35496 55.9516 5.35748 55.9483C5.36149 55.9432 5.36836 55.9407 5.37811 55.9407C5.38446 55.9407 5.39009 55.9419 5.39502 55.9444C5.39995 55.947 5.40241 55.9517 5.40241 55.9587V55.9853C5.40241 55.9871 5.40245 55.9893 5.40252 55.992C5.40263 55.994 5.40293 55.9953 5.40342 55.996C5.40392 55.9967 5.40466 55.9973 5.40566 55.9978V56H5.38917C5.38871 55.9988 5.38839 55.9977 5.38822 55.9967C5.38804 55.9957 5.3879 55.9945 5.38779 55.9932C5.3857 55.9955 5.38329 55.9974 5.38056 55.999C5.3773 56.0009 5.37361 56.0018 5.3695 56.0018C5.36425 56.0018 5.35991 56.0003 5.35647 55.9973C5.35307 55.9943 5.35137 55.9901 5.35137 55.9846C5.35137 55.9775 5.35411 55.9723 5.35961 55.9691C5.36262 55.9674 5.36705 55.9661 5.3729 55.9654L5.37806 55.9647ZM5.44804 55.9407C5.45403 55.9407 5.45892 55.9422 5.46271 55.9454C5.46654 55.9485 5.46845 55.9537 5.46845 55.961V56H5.45293V55.9647C5.45293 55.9617 5.45252 55.9594 5.4517 55.9577C5.45022 55.9547 5.44738 55.9533 5.4432 55.9533C5.43806 55.9533 5.43453 55.9554 5.43262 55.9598C5.43162 55.9621 5.43113 55.965 5.43113 55.9686V56H5.41603V55.9421H5.43065V55.9506C5.4326 55.9476 5.43444 55.9455 5.43618 55.9442C5.4393 55.9418 5.44325 55.9407 5.44804 55.9407ZM5.49807 55.9351H5.48271V55.9211H5.49807V55.9351ZM5.48271 55.942H5.49807V56H5.48271V55.942ZM5.52461 55.9815C5.52493 55.9842 5.52562 55.9861 5.52668 55.9872C5.52856 55.9893 5.53203 55.9903 5.5371 55.9903C5.54008 55.9903 5.54244 55.9898 5.54417 55.9889C5.54595 55.9881 5.54683 55.9867 5.54683 55.985C5.54683 55.9833 5.54612 55.982 5.54471 55.9811C5.54329 55.9802 5.53802 55.9787 5.52891 55.9765C5.52236 55.9749 5.51773 55.9728 5.51503 55.9704C5.51234 55.968 5.51099 55.9645 5.51099 55.96C5.51099 55.9546 5.51309 55.95 5.51727 55.9462C5.52149 55.9423 5.52741 55.9404 5.53503 55.9404C5.54226 55.9404 5.54814 55.9418 5.55268 55.9448C5.55725 55.9476 5.55988 55.9526 5.56055 55.9597H5.5454C5.54518 55.9577 5.54463 55.9562 5.54375 55.9551C5.54208 55.953 5.53925 55.952 5.53524 55.952C5.53194 55.952 5.52959 55.9525 5.52817 55.9535C5.52679 55.9546 5.52609 55.9558 5.52609 55.9571C5.52609 55.9589 5.52684 55.9601 5.52833 55.9609C5.52982 55.9617 5.53508 55.9631 5.54412 55.9651C5.55015 55.9665 5.55467 55.9687 5.55768 55.9716C5.56066 55.9745 5.56215 55.9781 5.56215 55.9825C5.56215 55.9882 5.56 55.9929 5.55571 55.9965C5.55146 56.0002 5.54487 56.002 5.53593 56.002C5.52682 56.002 5.52009 56.0001 5.51573 55.9962C5.5114 55.9924 5.50924 55.9875 5.50924 55.9815H5.52461ZM5.60538 55.9406C5.60896 55.9406 5.6122 55.9412 5.61511 55.9424C5.61805 55.9437 5.62046 55.9455 5.62234 55.9481C5.62393 55.9503 5.62491 55.9525 5.62526 55.9548C5.62562 55.9571 5.6258 55.9608 5.6258 55.966V56H5.61032V55.9647C5.61032 55.9616 5.60979 55.9591 5.60873 55.9572C5.60734 55.9545 5.60472 55.9532 5.60086 55.9532C5.59685 55.9532 5.5938 55.9545 5.59171 55.9572C5.58966 55.9599 5.58863 55.9637 5.58863 55.9686V56H5.57353V55.9219H5.58863V55.9496C5.59083 55.9462 5.59336 55.9439 5.59623 55.9426C5.59914 55.9412 5.60219 55.9406 5.60538 55.9406ZM5.65557 55.9351H5.64021V55.9211H5.65557V55.9351ZM5.64021 55.942H5.65557V56H5.64021V55.942ZM5.70492 55.9628C5.70463 55.9607 5.70391 55.9587 5.70274 55.957C5.70104 55.9546 5.6984 55.9535 5.69482 55.9535C5.68971 55.9535 5.68622 55.956 5.68434 55.9611C5.68335 55.9638 5.68285 55.9674 5.68285 55.9718C5.68285 55.9761 5.68335 55.9795 5.68434 55.9821C5.68615 55.9869 5.68955 55.9893 5.69455 55.9893C5.69809 55.9893 5.70061 55.9884 5.7021 55.9864C5.70359 55.9845 5.70449 55.982 5.70481 55.979H5.72029C5.71993 55.9836 5.71827 55.988 5.71529 55.9921C5.71054 55.9987 5.7035 56.002 5.69418 56.002C5.68485 56.002 5.67799 55.9993 5.6736 55.9937C5.6692 55.9882 5.66701 55.981 5.66701 55.9722C5.66701 55.9622 5.66943 55.9545 5.67429 55.949C5.67915 55.9434 5.68585 55.9407 5.69439 55.9407C5.70166 55.9407 5.70759 55.9423 5.7122 55.9455C5.71685 55.9488 5.71959 55.9546 5.72045 55.9628H5.70492ZM5.75692 55.9893C5.76135 55.9893 5.76476 55.9877 5.76713 55.9846C5.76951 55.9814 5.77069 55.9769 5.77069 55.9711C5.77069 55.9653 5.76951 55.9608 5.76713 55.9577C5.76476 55.9546 5.76135 55.953 5.75692 55.953C5.75249 55.953 5.74907 55.9546 5.74666 55.9577C5.74428 55.9608 5.7431 55.9653 5.7431 55.9711C5.7431 55.9769 5.74428 55.9814 5.74666 55.9846C5.74907 55.9877 5.75249 55.9893 5.75692 55.9893ZM5.78659 55.9711C5.78659 55.9796 5.78415 55.9869 5.77926 55.993C5.77436 55.999 5.76694 56.002 5.75698 56.002C5.74701 56.002 5.73959 55.999 5.7347 55.993C5.7298 55.9869 5.72736 55.9796 5.72736 55.9711C5.72736 55.9628 5.7298 55.9555 5.7347 55.9494C5.73959 55.9432 5.74701 55.9402 5.75698 55.9402C5.76694 55.9402 5.77436 55.9432 5.77926 55.9494C5.78415 55.9555 5.78659 55.9628 5.78659 55.9711ZM5.82961 55.9407C5.8356 55.9407 5.84049 55.9422 5.84429 55.9454C5.84812 55.9485 5.85003 55.9537 5.85003 55.961V56H5.8345V55.9647C5.8345 55.9617 5.8341 55.9594 5.83328 55.9577C5.83179 55.9547 5.82896 55.9533 5.82477 55.9533C5.81963 55.9533 5.81611 55.9554 5.81419 55.9598C5.8132 55.9621 5.8127 55.965 5.8127 55.9686V56H5.7976V55.9421H5.81222V55.9506C5.81417 55.9476 5.81602 55.9455 5.81775 55.9442C5.82087 55.9418 5.82483 55.9407 5.82961 55.9407Z" fill="black"/>
<path d="M5.29798 55.9208C5.29894 55.9208 5.2998 55.9209 5.30058 55.9209C5.30136 55.921 5.30243 55.921 5.30378 55.9211V55.9335C5.30292 55.9334 5.30149 55.9333 5.29947 55.9333C5.29748 55.9332 5.2961 55.9336 5.29532 55.9346C5.29458 55.9355 5.2942 55.9365 5.2942 55.9377C5.2942 55.9388 5.2942 55.9404 5.2942 55.9426H5.30415V55.9533H5.2942V56H5.2791V55.9533H5.27065V55.9426H5.27894V55.9389C5.27894 55.9326 5.27999 55.9284 5.28208 55.926C5.28428 55.9226 5.28958 55.9208 5.29798 55.9208ZM5.34435 55.9407C5.34463 55.9407 5.34486 55.9407 5.34504 55.9407C5.34525 55.9407 5.34569 55.9407 5.34637 55.9408V55.9563C5.34541 55.9562 5.34456 55.9561 5.34382 55.9561C5.34307 55.956 5.34247 55.956 5.34201 55.956C5.33591 55.956 5.33182 55.958 5.32972 55.962C5.32855 55.9642 5.32797 55.9677 5.32797 55.9723V56H5.31271V55.942H5.32717V55.9521C5.32951 55.9483 5.33155 55.9456 5.33329 55.9442C5.33612 55.9418 5.33981 55.9407 5.34435 55.9407ZM5.3813 55.9893C5.38573 55.9893 5.38914 55.9877 5.39151 55.9846C5.39389 55.9814 5.39507 55.9769 5.39507 55.9711C5.39507 55.9653 5.39389 55.9608 5.39151 55.9577C5.38914 55.9546 5.38573 55.953 5.3813 55.953C5.37687 55.953 5.37345 55.9546 5.37104 55.9577C5.36866 55.9608 5.36748 55.9653 5.36748 55.9711C5.36748 55.9769 5.36866 55.9814 5.37104 55.9846C5.37345 55.9877 5.37687 55.9893 5.3813 55.9893ZM5.41097 55.9711C5.41097 55.9796 5.40853 55.9869 5.40364 55.993C5.39874 55.999 5.39132 56.002 5.38136 56.002C5.37139 56.002 5.36397 55.999 5.35908 55.993C5.35418 55.9869 5.35174 55.9796 5.35174 55.9711C5.35174 55.9628 5.35418 55.9555 5.35908 55.9494C5.36397 55.9432 5.37139 55.9402 5.38136 55.9402C5.39132 55.9402 5.39874 55.9432 5.40364 55.9494C5.40853 55.9555 5.41097 55.9628 5.41097 55.9711ZM5.48664 55.9408C5.48919 55.9408 5.49171 55.9413 5.49419 55.9423C5.49667 55.9432 5.49892 55.945 5.50094 55.9475C5.50257 55.9495 5.50367 55.952 5.50424 55.9549C5.5046 55.9569 5.50477 55.9597 5.50477 55.9635L5.50467 56H5.48914V55.9631C5.48914 55.9609 5.48878 55.9591 5.48808 55.9577C5.48673 55.955 5.48425 55.9536 5.48063 55.9536C5.47645 55.9536 5.47356 55.9554 5.47196 55.9588C5.47115 55.9607 5.47074 55.9629 5.47074 55.9655V56H5.45548V55.9655C5.45548 55.9621 5.45513 55.9596 5.45442 55.958C5.45314 55.9552 5.45064 55.9538 5.44692 55.9538C5.44259 55.9538 5.43969 55.9552 5.4382 55.958C5.43738 55.9596 5.43698 55.962 5.43698 55.9651V56H5.42161V55.9421H5.43634V55.9506C5.43822 55.9476 5.43999 55.9454 5.44165 55.9442C5.4446 55.9419 5.44841 55.9408 5.45309 55.9408C5.45752 55.9408 5.4611 55.9417 5.46383 55.9437C5.46603 55.9455 5.46769 55.9478 5.46883 55.9507C5.47081 55.9473 5.47328 55.9448 5.47622 55.9432C5.47934 55.9416 5.48281 55.9408 5.48664 55.9408ZM5.54311 55.9534V55.9426H5.55119V55.9264H5.56619V55.9426H5.5756V55.9534H5.56619V55.984C5.56619 55.9864 5.56649 55.9879 5.56709 55.9885C5.56769 55.989 5.56954 55.9893 5.57262 55.9893C5.57308 55.9893 5.57356 55.9893 5.57406 55.9893C5.57459 55.9893 5.5751 55.9892 5.5756 55.9892V56.0005L5.56842 56.0008C5.56126 56.001 5.55637 55.9998 5.55375 55.9971C5.55204 55.9953 5.55119 55.9927 5.55119 55.989V55.9534H5.54311ZM5.61729 55.9406C5.62087 55.9406 5.62411 55.9412 5.62702 55.9424C5.62996 55.9437 5.63237 55.9455 5.63425 55.9481C5.63585 55.9503 5.63682 55.9525 5.63718 55.9548C5.63753 55.9571 5.63771 55.9608 5.63771 55.966V56H5.62223V55.9647C5.62223 55.9616 5.6217 55.9591 5.62064 55.9572C5.61926 55.9545 5.61663 55.9532 5.61277 55.9532C5.60876 55.9532 5.60571 55.9545 5.60362 55.9572C5.60157 55.9599 5.60054 55.9637 5.60054 55.9686V56H5.58544V55.9219H5.60054V55.9496C5.60274 55.9462 5.60527 55.9439 5.60814 55.9426C5.61105 55.9412 5.6141 55.9406 5.61729 55.9406ZM5.67477 55.953C5.67126 55.953 5.66853 55.9541 5.66658 55.9563C5.66467 55.9585 5.66346 55.9615 5.66296 55.9652H5.68652C5.68627 55.9612 5.68505 55.9582 5.68285 55.9561C5.68069 55.954 5.67799 55.953 5.67477 55.953ZM5.67477 55.9405C5.67959 55.9405 5.68393 55.9414 5.6878 55.9432C5.69166 55.945 5.69485 55.9479 5.69737 55.9518C5.69964 55.9552 5.70111 55.9592 5.70178 55.9637C5.70217 55.9664 5.70233 55.9702 5.70226 55.9752H5.66259C5.6628 55.981 5.66463 55.9851 5.66807 55.9875C5.67016 55.9889 5.67268 55.9896 5.67562 55.9896C5.67874 55.9896 5.68127 55.9887 5.68322 55.987C5.68429 55.986 5.68523 55.9847 5.68604 55.983H5.70152C5.70113 55.9864 5.69934 55.9899 5.69614 55.9935C5.69118 55.9991 5.68423 56.0019 5.6753 56.0019C5.66793 56.0019 5.66142 55.9995 5.65579 55.9948C5.65015 55.99 5.64733 55.9823 5.64733 55.9716C5.64733 55.9616 5.64987 55.9539 5.65494 55.9485C5.66004 55.9432 5.66665 55.9405 5.67477 55.9405ZM5.74379 55.9216H5.76096L5.79218 55.9763V55.9216H5.80744V56H5.79106L5.75905 55.9443V56H5.74379V55.9216ZM5.84753 55.9893C5.85196 55.9893 5.85537 55.9877 5.85774 55.9846C5.86012 55.9814 5.8613 55.9769 5.8613 55.9711C5.8613 55.9653 5.86012 55.9608 5.85774 55.9577C5.85537 55.9546 5.85196 55.953 5.84753 55.953C5.8431 55.953 5.83968 55.9546 5.83727 55.9577C5.83489 55.9608 5.83371 55.9653 5.83371 55.9711C5.83371 55.9769 5.83489 55.9814 5.83727 55.9846C5.83968 55.9877 5.8431 55.9893 5.84753 55.9893ZM5.8772 55.9711C5.8772 55.9796 5.87476 55.9869 5.86986 55.993C5.86497 55.999 5.85755 56.002 5.84758 56.002C5.83762 56.002 5.8302 55.999 5.8253 55.993C5.82041 55.9869 5.81797 55.9796 5.81797 55.9711C5.81797 55.9628 5.82041 55.9555 5.8253 55.9494C5.8302 55.9432 5.83762 55.9402 5.84758 55.9402C5.85755 55.9402 5.86497 55.9432 5.86986 55.9494C5.87476 55.9555 5.8772 55.9628 5.8772 55.9711ZM5.9032 55.942V55.977C5.9032 55.9803 5.90359 55.9828 5.90437 55.9844C5.90576 55.9874 5.90847 55.9888 5.91251 55.9888C5.91768 55.9888 5.92123 55.9867 5.92314 55.9826C5.92414 55.9803 5.92463 55.9773 5.92463 55.9736V55.942H5.94V56H5.92527V55.9918C5.92513 55.992 5.92477 55.9925 5.92421 55.9934C5.92364 55.9943 5.92297 55.9951 5.92219 55.9957C5.91981 55.9979 5.91751 55.9993 5.91527 56.0001C5.91308 56.0009 5.91049 56.0013 5.90751 56.0013C5.89893 56.0013 5.89315 55.9982 5.89018 55.992C5.88851 55.9886 5.88768 55.9836 5.88768 55.977V55.942H5.9032ZM5.98679 55.9407C5.99278 55.9407 5.99768 55.9422 6.00147 55.9454C6.0053 55.9485 6.00721 55.9537 6.00721 55.961V56H5.99169V55.9647C5.99169 55.9617 5.99128 55.9594 5.99046 55.9577C5.98897 55.9547 5.98614 55.9533 5.98195 55.9533C5.97681 55.9533 5.97329 55.9554 5.97137 55.9598C5.97038 55.9621 5.96988 55.965 5.96988 55.9686V56H5.95478V55.9421H5.96941V55.9506C5.97135 55.9476 5.9732 55.9455 5.97494 55.9442C5.97805 55.9418 5.98201 55.9407 5.98679 55.9407ZM5.32196 55.9466C5.32196 55.9425 5.32088 55.9396 5.31872 55.9378C5.31659 55.9361 5.31359 55.9352 5.30973 55.9352H5.29447V55.9583H5.30973C5.31359 55.9583 5.31659 55.9574 5.31872 55.9555C5.32088 55.9536 5.32196 55.9506 5.32196 55.9466ZM5.33818 55.9465C5.33818 55.9557 5.33584 55.9622 5.33116 55.9661C5.32648 55.9699 5.3198 55.9718 5.31111 55.9718H5.29447V56H5.2782V55.9216H5.31234C5.32021 55.9216 5.32648 55.9236 5.33116 55.9277C5.33584 55.9317 5.33818 55.938 5.33818 55.9465ZM5.38072 55.9407C5.381 55.9407 5.38123 55.9407 5.38141 55.9407C5.38162 55.9407 5.38206 55.9407 5.38274 55.9408V55.9563C5.38178 55.9562 5.38093 55.9561 5.38019 55.9561C5.37944 55.956 5.37884 55.956 5.37838 55.956C5.37228 55.956 5.36819 55.958 5.36609 55.962C5.36493 55.9642 5.36434 55.9677 5.36434 55.9723V56H5.34908V55.942H5.36354V55.9521C5.36588 55.9483 5.36792 55.9456 5.36966 55.9442C5.37249 55.9418 5.37618 55.9407 5.38072 55.9407ZM5.41767 55.9893C5.4221 55.9893 5.42551 55.9877 5.42788 55.9846C5.43026 55.9814 5.43145 55.9769 5.43145 55.9711C5.43145 55.9653 5.43026 55.9608 5.42788 55.9577C5.42551 55.9546 5.4221 55.953 5.41767 55.953C5.41324 55.953 5.40982 55.9546 5.40741 55.9577C5.40504 55.9608 5.40385 55.9653 5.40385 55.9711C5.40385 55.9769 5.40504 55.9814 5.40741 55.9846C5.40982 55.9877 5.41324 55.9893 5.41767 55.9893ZM5.44734 55.9711C5.44734 55.9796 5.4449 55.9869 5.44001 55.993C5.43511 55.999 5.42769 56.002 5.41773 56.002C5.40777 56.002 5.40034 55.999 5.39545 55.993C5.39055 55.9869 5.38811 55.9796 5.38811 55.9711C5.38811 55.9628 5.39055 55.9555 5.39545 55.9494C5.40034 55.9432 5.40777 55.9402 5.41773 55.9402C5.42769 55.9402 5.43511 55.9432 5.44001 55.9494C5.4449 55.9555 5.44734 55.9628 5.44734 55.9711ZM5.47409 55.9351H5.45894V55.9211H5.47409V55.9351ZM5.45165 56.0111C5.4525 56.0112 5.45311 56.0112 5.45346 56.0112C5.45381 56.0113 5.45413 56.0113 5.45442 56.0113C5.45591 56.0113 5.45702 56.0109 5.45777 56.0102C5.45855 56.0094 5.45894 56.008 5.45894 56.006V55.9423H5.47409V56.0062C5.47409 56.0121 5.47294 56.0164 5.47063 56.0192C5.46833 56.022 5.46381 56.0234 5.45708 56.0234C5.45661 56.0234 5.45592 56.0234 5.455 56.0233C5.45412 56.0233 5.453 56.0233 5.45165 56.0232V56.0111ZM5.51142 55.953C5.50791 55.953 5.50518 55.9541 5.50323 55.9563C5.50132 55.9585 5.50011 55.9615 5.49961 55.9652H5.52317C5.52292 55.9612 5.5217 55.9582 5.5195 55.9561C5.51734 55.954 5.51464 55.953 5.51142 55.953ZM5.51142 55.9405C5.51624 55.9405 5.52058 55.9414 5.52445 55.9432C5.52831 55.945 5.5315 55.9479 5.53402 55.9518C5.53629 55.9552 5.53776 55.9592 5.53843 55.9637C5.53882 55.9664 5.53898 55.9702 5.53891 55.9752H5.49924C5.49945 55.981 5.50128 55.9851 5.50472 55.9875C5.50681 55.9889 5.50933 55.9896 5.51227 55.9896C5.51539 55.9896 5.51792 55.9887 5.51987 55.987C5.52094 55.986 5.52188 55.9847 5.52269 55.983H5.53817C5.53778 55.9864 5.53599 55.9899 5.53279 55.9935C5.52783 55.9991 5.52088 56.0019 5.51195 56.0019C5.50458 56.0019 5.49807 55.9995 5.49244 55.9948C5.4868 55.99 5.48398 55.9823 5.48398 55.9716C5.48398 55.9616 5.48652 55.9539 5.49159 55.9485C5.49669 55.9432 5.5033 55.9405 5.51142 55.9405ZM5.58379 55.9628C5.5835 55.9607 5.58278 55.9587 5.58161 55.957C5.57991 55.9546 5.57727 55.9535 5.57369 55.9535C5.56858 55.9535 5.56509 55.956 5.56321 55.9611C5.56222 55.9638 5.56172 55.9674 5.56172 55.9718C5.56172 55.9761 5.56222 55.9795 5.56321 55.9821C5.56502 55.9869 5.56842 55.9893 5.57342 55.9893C5.57696 55.9893 5.57948 55.9884 5.58097 55.9864C5.58246 55.9845 5.58336 55.982 5.58368 55.979H5.59916C5.5988 55.9836 5.59714 55.988 5.59416 55.9921C5.58941 55.9987 5.58237 56.002 5.57305 56.002C5.56372 56.002 5.55686 55.9993 5.55247 55.9937C5.54807 55.9882 5.54588 55.981 5.54588 55.9722C5.54588 55.9622 5.5483 55.9545 5.55316 55.949C5.55802 55.9434 5.56472 55.9407 5.57326 55.9407C5.58053 55.9407 5.58647 55.9423 5.59107 55.9455C5.59572 55.9488 5.59846 55.9546 5.59932 55.9628H5.58379ZM5.60384 55.9534V55.9426H5.61192V55.9264H5.62691V55.9426H5.63632V55.9534H5.62691V55.984C5.62691 55.9864 5.62721 55.9879 5.62782 55.9885C5.62842 55.989 5.63026 55.9893 5.63335 55.9893C5.63381 55.9893 5.63429 55.9893 5.63478 55.9893C5.63531 55.9893 5.63583 55.9892 5.63632 55.9892V56.0005L5.62915 56.0008C5.62199 56.001 5.61709 55.9998 5.61447 55.9971C5.61277 55.9953 5.61192 55.9927 5.61192 55.989V55.9534H5.60384Z" fill="black"/>
</g>
<path opacity="0.06" fill-rule="evenodd" clip-rule="evenodd" d="M22.299 55.3504C17.9571 58.784 11.536 56.0574 10.9911 50.5488L7.47985 15.0505C6.95671 9.76151 12.2867 5.84176 17.1795 7.91725L48.6818 21.2805C53.5766 23.3568 54.4607 29.9173 50.2902 33.2153L22.299 55.3504Z" fill="#934AEF"/>
<path fill-rule="evenodd" clip-rule="evenodd" d="M53.7695 50C59.0162 50 63.2695 47.3137 63.2695 44C63.2695 40.6863 59.0162 38 53.7695 38C48.5228 38 44.2695 40.6863 44.2695 44C44.2695 47.3137 48.5228 50 53.7695 50Z" fill="#7231E5"/>
<defs>
<clipPath id="clip0_653_4062">
<rect width="38" height="38" fill="white" transform="translate(5.26953 18)"/>
</clipPath>
</defs>
</svg>
