<svg width="68" height="70" viewBox="0 0 68 70" fill="none" xmlns="http://www.w3.org/2000/svg">
<rect x="18" y="31" width="26" height="8" rx="1" fill="#6A2BE3"/>
<mask id="path-2-inside-1_653_4059" fill="white">
<rect x="18" y="44" width="26" height="9" rx="1"/>
</mask>
<rect x="18" y="44" width="26" height="9" rx="1" stroke="black" stroke-width="2.2" mask="url(#path-2-inside-1_653_4059)"/>
<mask id="path-3-inside-2_653_4059" fill="white">
<rect x="18" y="18" width="26" height="9" rx="1"/>
</mask>
<rect x="18" y="18" width="26" height="9" rx="1" stroke="black" stroke-width="2.2" mask="url(#path-3-inside-2_653_4059)"/>
<path d="M11.4187 39.438C11.4187 39.7417 11.665 39.988 11.9688 39.988C12.2725 39.988 12.5188 39.7417 12.5188 39.438H11.4187ZM12.5188 33.0942C12.5188 32.7905 12.2725 32.5442 11.9688 32.5442C11.665 32.5442 11.4187 32.7905 11.4187 33.0942H12.5188ZM49.4813 14.9692C49.4813 15.273 49.7275 15.5192 50.0312 15.5192C50.335 15.5192 50.5812 15.273 50.5812 14.9692H49.4813ZM50.5812 9.53174C50.5812 9.22798 50.335 8.98174 50.0312 8.98174C49.7275 8.98174 49.4813 9.22798 49.4813 9.53174H50.5812ZM49.4813 24.0317C49.4813 24.3355 49.7275 24.5817 50.0312 24.5817C50.335 24.5817 50.5812 24.3355 50.5812 24.0317H49.4813ZM50.5812 18.5942C50.5812 18.2905 50.335 18.0442 50.0312 18.0442C49.7275 18.0442 49.4813 18.2905 49.4813 18.5942H50.5812ZM45.8563 9.53174V58.4689H46.9562V9.53174H45.8563ZM42.7812 61.5439H19.2188V62.6439H42.7812V61.5439ZM16.1438 58.4689V9.53174H15.0438V58.4689H16.1438ZM12.5188 39.438V33.0942H11.4187V39.438H12.5188ZM50.5812 14.9692V9.53174H49.4813V14.9692H50.5812ZM50.5812 24.0317V18.5942H49.4813V24.0317H50.5812ZM19.2188 6.45674H21.9375V5.35674H19.2188V6.45674ZM21.9375 6.45674H40.0625V5.35674H21.9375V6.45674ZM40.0625 6.45674H42.7812V5.35674H40.0625V6.45674ZM36.4375 8.98174H25.5625V10.0817H36.4375V8.98174ZM19.2188 61.5439C17.5205 61.5439 16.1438 60.1672 16.1438 58.4689H15.0438C15.0438 60.7747 16.913 62.6439 19.2188 62.6439V61.5439ZM39.5125 5.90674C39.5125 7.60501 38.1358 8.98174 36.4375 8.98174V10.0817C38.7433 10.0817 40.6125 8.21253 40.6125 5.90674H39.5125ZM45.8563 58.4689C45.8563 60.1672 44.4795 61.5439 42.7812 61.5439V62.6439C45.087 62.6439 46.9562 60.7747 46.9562 58.4689H45.8563ZM16.1438 9.53174C16.1438 7.83346 17.5205 6.45674 19.2188 6.45674V5.35674C16.913 5.35674 15.0438 7.22595 15.0438 9.53174H16.1438ZM21.3875 5.90674C21.3875 8.21253 23.2567 10.0817 25.5625 10.0817V8.98174C23.8642 8.98174 22.4875 7.60501 22.4875 5.90674H21.3875ZM46.9562 9.53174C46.9562 7.22595 45.087 5.35674 42.7812 5.35674V6.45674C44.4795 6.45674 45.8563 7.83346 45.8563 9.53174H46.9562Z" fill="black"/>
<path opacity="0.06" fill-rule="evenodd" clip-rule="evenodd" d="M62.1549 58.5721C65.0338 63.3001 61.545 69.3411 56.011 69.2106L20.3493 68.3695C15.0361 68.2442 11.7951 62.4762 14.4514 57.8729L31.5542 28.2338C34.2116 23.6286 40.8309 23.5506 43.596 28.092L62.1549 58.5721Z" fill="#934AEF"/>
</svg>
