<svg width="68" height="70" viewBox="0 0 68 70" fill="none" xmlns="http://www.w3.org/2000/svg">
<path opacity="0.06" fill-rule="evenodd" clip-rule="evenodd" d="M34.0295 60.3507C29.6875 63.7843 23.2664 61.0577 22.7215 55.549L19.2103 20.0507C18.6872 14.7618 24.0172 10.842 28.9099 12.9175L60.4123 26.2807C65.3071 28.3571 66.1912 34.9175 62.0207 38.2155L34.0295 60.3507Z" fill="#934AEF"/>
<path d="M46.875 21.0625C46.875 19.9234 45.9516 19 44.8125 19C43.6734 19 42.75 19.9234 42.75 21.0625V45.8125C42.75 46.9516 43.6734 47.875 44.8125 47.875C45.9516 47.875 46.875 46.9516 46.875 45.8125V21.0625Z" fill="#6A2BE3"/>
<path d="M34.5 27.25C34.5 26.1109 33.5766 25.1875 32.4375 25.1875C31.2984 25.1875 30.375 26.1109 30.375 27.25V45.8125C30.375 46.9516 31.2984 47.875 32.4375 47.875C33.5766 47.875 34.5 46.9516 34.5 45.8125V27.25Z" fill="#6A2BE3"/>
<path d="M28.3125 37.5625C28.3125 36.4234 27.3891 35.5 26.25 35.5C25.1109 35.5 24.1875 36.4234 24.1875 37.5625V45.8125C24.1875 46.9516 25.1109 47.875 26.25 47.875C27.3891 47.875 28.3125 46.9516 28.3125 45.8125V37.5625Z" fill="#6A2BE3"/>
<path d="M22.125 32.4062C22.125 31.2672 21.2016 30.3438 20.0625 30.3438C18.9234 30.3438 18 31.2672 18 32.4062V45.8125C18 46.9516 18.9234 47.875 20.0625 47.875C21.2016 47.875 22.125 46.9516 22.125 45.8125V32.4062Z" fill="#6A2BE3"/>
<rect x="-0.5" y="0.5" width="3.125" height="15.5" rx="1.5" transform="matrix(-1 0 0 1 40.75 31.375)" stroke="#000577"/>
<rect x="7.55" y="9.55" width="46.9" height="42.9" rx="1.45" stroke="black" stroke-width="1.1"/>
<circle cx="18.5" cy="21.5" r="6" stroke="black"/>
<circle cx="18.5" cy="20.5" r="2" stroke="black"/>
<path d="M22.1008 25.9998C22.0881 24.343 20.3661 23.013 18.2547 23.0292C16.1433 23.0454 14.442 24.4017 14.4547 26.0585" stroke="black"/>
</svg>
