<svg width="65" height="65" viewBox="0 0 65 65" fill="none" xmlns="http://www.w3.org/2000/svg">
<circle cx="32.5" cy="32.5" r="32.5" fill="#F2F5FF"/>
<path d="M18.3507 46.8655C17.8592 46.6089 17.325 46.4166 16.8976 46.0852C16.3312 45.647 16.0534 44.9951 16.0107 44.2683C16 44.0652 16 43.8728 16 43.6698C16 39.4908 16 35.3118 16 31.1221C16 29.5296 16 27.9478 16 26.3553C16.0107 24.517 17.1647 23.3627 19.0025 23.3627C20.648 23.3627 22.2829 23.3627 23.9284 23.3627C24.078 23.3627 24.2169 23.3627 24.3985 23.3627C24.4092 23.1917 24.4199 23.0527 24.4199 22.9031C24.4199 22.0267 24.4092 21.1396 24.4199 20.2632C24.4413 18.9592 25.3709 18.0187 26.6745 18.008C30.2113 17.9973 33.748 17.9973 37.2955 18.008C38.6098 18.008 39.5608 18.9806 39.5715 20.2952C39.5821 21.2999 39.5715 22.2939 39.5715 23.3627C39.7317 23.3627 39.8706 23.3627 40.0096 23.3627C41.6658 23.3627 43.322 23.3627 44.9781 23.3627C46.5382 23.3627 47.5105 24.1108 47.9273 25.6071C47.9379 25.6392 47.97 25.6713 47.9914 25.7033C47.9914 31.9878 47.9914 38.2617 47.9914 44.5355C47.7456 45.0058 47.5533 45.4974 47.2541 45.9249C46.8801 46.4593 46.2604 46.6624 45.6727 46.8548C36.5689 46.8655 27.4652 46.8655 18.3507 46.8655ZM35.3508 34.8629C35.3401 34.9805 35.3401 35.066 35.3295 35.1622C35.2867 35.75 35.3295 36.3485 35.2012 36.915C34.8166 38.5395 33.2886 39.5763 31.6217 39.4053C29.9976 39.2343 28.726 37.8555 28.6726 36.1882C28.6619 35.75 28.6726 35.3118 28.6726 34.8736C28.523 34.8308 28.4268 34.7988 28.32 34.7774C24.6443 34.0292 20.9259 33.4948 17.2715 32.5757C17.2715 32.6291 17.2715 32.7467 17.2715 32.8643C17.2715 36.5195 17.2715 40.1855 17.2715 43.8408C17.2715 44.9951 17.8592 45.5829 19.0346 45.5829C27.6789 45.5829 36.3125 45.5829 44.9568 45.5829C46.1321 45.5829 46.7198 44.9951 46.7198 43.8087C46.7198 40.1641 46.7198 36.5195 46.7198 32.8643C46.7198 32.736 46.7198 32.6077 46.7198 32.4795C46.2604 32.6291 45.8436 32.8215 45.4162 32.907C43.6425 33.2704 41.8581 33.6017 40.0737 33.9437C38.5029 34.2644 36.9322 34.5636 35.3508 34.8629ZM35.3401 33.559C38.1076 33.0246 40.8109 32.5222 43.5036 31.9878C44.2516 31.8382 44.9995 31.6993 45.7154 31.4641C46.3993 31.2397 46.7519 30.716 46.7305 29.9571C46.7091 28.7921 46.7198 27.6378 46.7198 26.4729C46.7198 25.1689 46.1749 24.6239 44.8713 24.6239C40.5438 24.6239 36.2163 24.6239 31.8888 24.6239C29.5274 24.6239 27.166 24.6345 24.7939 24.6345C22.8171 24.6345 20.8404 24.6239 18.8636 24.6239C17.9661 24.6239 17.3036 25.1903 17.2822 26.0347C17.2502 27.4241 17.2822 28.8135 17.2822 30.203C17.2822 30.6839 17.5173 31.0366 17.902 31.2611C18.2439 31.4534 18.6285 31.6138 19.0132 31.6886C21.4815 32.1802 23.9604 32.6398 26.4394 33.1101C27.166 33.249 27.8926 33.3773 28.6619 33.5269C28.6619 32.8322 28.6619 32.2123 28.6619 31.5817C28.6619 30.6412 29.1214 30.1709 30.051 30.1709C31.3439 30.1709 32.6368 30.1709 33.9404 30.1709C34.8379 30.1709 35.3188 30.6518 35.3295 31.5496C35.3401 32.223 35.3401 32.8749 35.3401 33.559ZM38.2999 23.3199C38.2999 22.358 38.2999 21.4282 38.2999 20.4876C38.2999 19.6326 37.958 19.2906 37.1139 19.2906C34.8166 19.2906 32.5193 19.2906 30.2326 19.2906C29.068 19.2906 27.914 19.2906 26.7493 19.2906C26.1723 19.2906 25.7449 19.6005 25.7235 20.0922C25.6914 21.161 25.7128 22.2191 25.7128 23.3092C26.183 23.3092 26.621 23.3092 27.1233 23.3092C27.1233 22.4114 27.1233 21.535 27.1233 20.6586C30.3929 20.6586 33.6198 20.6586 36.8681 20.6586C36.8681 21.5564 36.8681 22.4114 36.8681 23.3092C37.3489 23.3199 37.7977 23.3199 38.2999 23.3199ZM34.0472 31.4962C32.6688 31.4962 31.3332 31.4962 29.9548 31.4962C29.9548 33.0566 29.9441 34.585 29.9548 36.1134C29.9655 37.2356 30.8417 38.112 31.9209 38.1334C33.0428 38.1548 33.9938 37.3318 34.0259 36.2096C34.0793 34.6598 34.0472 33.0887 34.0472 31.4962ZM28.4268 23.3306C30.8203 23.3306 33.1924 23.3306 35.5645 23.3306C35.5645 22.8497 35.5645 22.4008 35.5645 21.9412C33.1711 21.9412 30.8096 21.9412 28.4268 21.9412C28.4268 22.4221 28.4268 22.871 28.4268 23.3306Z" fill="black"/>
<path d="M32.626 36.0064C32.626 36.3591 32.3482 36.637 31.9956 36.637C31.643 36.637 31.3545 36.3485 31.3545 36.0064C31.3545 35.6644 31.643 35.3759 31.9956 35.3759C32.3589 35.3759 32.626 35.6537 32.626 36.0064Z" fill="black"/>
</svg>
