<svg width="65" height="65" viewBox="0 0 65 65" fill="none" xmlns="http://www.w3.org/2000/svg">
<circle cx="32.5" cy="32.5" r="32.5" fill="#F2F5FF"/>
<g clip-path="url(#clip0_2301_7711)">
<path d="M33.4727 48H31.5272C29.9536 48 28.6734 46.7198 28.6734 45.1462V44.488C28.0044 44.2743 27.3544 44.0045 26.73 43.6814L26.2636 44.1478C25.1338 45.279 23.3241 45.2458 22.2272 44.1474L20.8521 42.7724C19.7532 41.6747 19.7216 39.8656 20.8525 38.736L21.3186 38.2699C20.9954 37.6455 20.7257 36.9957 20.5119 36.3266H19.8538C18.2803 36.3266 17 35.0464 17 33.4728V31.5272C17 29.9536 18.2803 28.6734 19.8538 28.6734H20.512C20.7258 28.0044 20.9955 27.3545 21.3186 26.7301L20.8522 26.2637C19.722 25.1347 19.7532 23.3255 20.8525 22.2273L22.2277 20.8522C23.3272 19.7512 25.1365 19.7237 26.264 20.8525L26.7301 21.3186C27.3545 20.9955 28.0045 20.7257 28.6734 20.5119V19.8538C28.6734 18.2802 29.9536 17 31.5273 17H33.4728C35.0464 17 36.3266 18.2802 36.3266 19.8538V20.512C36.9955 20.7257 37.6455 20.9955 38.2699 21.3186L38.7364 20.8522C39.8661 19.721 41.6758 19.7542 42.7727 20.8526L44.1478 22.2276C45.2467 23.3253 45.2783 25.1344 44.1475 26.264L43.6814 26.7301C44.0045 27.3545 44.2742 28.0043 44.488 28.6734H45.1462C46.7197 28.6734 48 29.9536 48 31.5272V33.4728C48 35.0464 46.7197 36.3266 45.1462 36.3266H44.488C44.2742 36.9956 44.0045 37.6455 43.6814 38.2699L44.1478 38.7364C45.278 39.8653 45.2468 41.6746 44.1475 42.7727L42.7723 44.1479C41.6728 45.2489 39.8635 45.2764 38.736 44.1475L38.2699 43.6815C37.6455 44.0046 36.9955 44.2744 36.3266 44.4882V45.1464C36.3266 46.7198 35.0464 48 33.4727 48ZM27.0336 41.774C27.9011 42.287 28.8347 42.6745 29.8086 42.9259C30.2096 43.0293 30.4898 43.3911 30.4898 43.8053V45.1462C30.4898 45.7182 30.9553 46.1836 31.5273 46.1836H33.4728C34.0448 46.1836 34.5102 45.7182 34.5102 45.1462V43.8053C34.5102 43.3911 34.7904 43.0293 35.1915 42.9259C36.1653 42.6745 37.099 42.287 37.9664 41.774C38.3233 41.5629 38.7777 41.6203 39.071 41.9135L40.0208 42.8634C40.4304 43.2735 41.088 43.264 41.4875 42.8639L42.8636 41.4879C43.2621 41.0898 43.2754 40.4321 42.8639 40.0211L41.9136 39.0708C41.6205 38.7777 41.5631 38.3232 41.7741 37.9664C42.2871 37.099 42.6746 36.1653 42.9259 35.1914C43.0295 34.7904 43.3912 34.5102 43.8053 34.5102H45.1462C45.7182 34.5102 46.1837 34.0449 46.1837 33.4729V31.5273C46.1837 30.9553 45.7182 30.4899 45.1462 30.4899H43.8053C43.3911 30.4899 43.0295 30.2097 42.9259 29.8087C42.6746 28.8348 42.287 27.9012 41.7741 27.0338C41.5631 26.6769 41.6205 26.2224 41.9136 25.9293L42.8636 24.9794C43.2742 24.5692 43.2635 23.9117 42.8639 23.5126L41.488 22.1367C41.0892 21.7373 40.4314 21.7256 40.0213 22.1363L39.071 23.0866C38.7779 23.3798 38.3233 23.4372 37.9665 23.2262C37.099 22.7131 36.1654 22.3256 35.1916 22.0743C34.7905 21.9708 34.5103 21.6091 34.5103 21.1949V19.8538C34.5103 19.2818 34.0449 18.8164 33.4729 18.8164H31.5273C30.9553 18.8164 30.4899 19.2818 30.4899 19.8538V21.1947C30.4899 21.6089 30.2097 21.9707 29.8086 22.0741C28.8348 22.3255 27.9012 22.713 27.0337 23.226C26.6767 23.437 26.2223 23.3796 25.9292 23.0865L24.9793 22.1366C24.5698 21.7265 23.912 21.736 23.5126 22.1361L22.1366 23.5121C21.738 23.9102 21.7247 24.5679 22.1362 24.9789L23.0865 25.9292C23.3796 26.2223 23.437 26.6768 23.226 27.0336C22.713 27.901 22.3255 28.8347 22.0742 29.8086C21.9707 30.2096 21.6089 30.4898 21.1948 30.4898H19.8538C19.2818 30.4898 18.8164 30.9552 18.8164 31.5272V33.4728C18.8164 34.0448 19.2818 34.5102 19.8538 34.5102H21.1947C21.6089 34.5102 21.9706 34.7904 22.0741 35.1914C22.3255 36.1653 22.713 37.0989 23.226 37.9663C23.437 38.3232 23.3796 38.7776 23.0864 39.0708L22.1365 40.0207C21.7259 40.4309 21.7366 41.0884 22.1361 41.4875L23.5121 42.8634C23.9109 43.2628 24.5687 43.2744 24.9788 42.8637L25.929 41.9135C26.1451 41.6975 26.5945 41.5142 27.0336 41.774Z" fill="black"/>
<path d="M32.4998 39.2449C28.7806 39.2449 25.7549 36.2191 25.7549 32.5C25.7549 28.7808 28.7806 25.7551 32.4998 25.7551C36.219 25.7551 39.2447 28.7808 39.2447 32.5C39.2447 36.2191 36.219 39.2449 32.4998 39.2449ZM32.4998 27.5715C29.7822 27.5715 27.5713 29.7824 27.5713 32.5C27.5713 35.2176 29.7822 37.4285 32.4998 37.4285C35.2174 37.4285 37.4283 35.2176 37.4283 32.5C37.4283 29.7824 35.2175 27.5715 32.4998 27.5715Z" fill="black"/>
</g>
<defs>
<clipPath id="clip0_2301_7711">
<rect width="31" height="31" fill="white" transform="translate(17 17)"/>
</clipPath>
</defs>
</svg>
