<svg width="65" height="65" viewBox="0 0 65 65" fill="none" xmlns="http://www.w3.org/2000/svg">
<circle cx="32.5" cy="32.5" r="32.5" fill="#F2F5FF"/>
<g clip-path="url(#clip0_2212_8515)">
<path d="M25.6 31.8803L23.5696 33.9107L22.9329 33.2737C22.704 33.0451 22.3332 33.0451 22.1041 33.2737C21.8755 33.5026 21.8755 33.8736 22.1041 34.1025L23.1554 35.1535C23.2652 35.2634 23.4142 35.3252 23.5696 35.3252C23.725 35.3252 23.8741 35.2634 23.9839 35.1535L26.4286 32.7088C26.6575 32.4802 26.6575 32.1092 26.4286 31.8803C26.1997 31.6514 25.8289 31.6514 25.6 31.8803Z" fill="black"/>
<path d="M28.9922 35.3169H31.753C32.0766 35.3169 32.3389 35.0546 32.3389 34.731C32.3389 34.4075 32.0766 34.145 31.753 34.145H28.9922C28.6685 34.145 28.4062 34.4075 28.4062 34.731C28.4062 35.0546 28.6685 35.3169 28.9922 35.3169Z" fill="black"/>
<path d="M25.6 38.2707L23.5696 40.3011L22.9329 39.6641C22.704 39.4352 22.3332 39.4352 22.1041 39.6641C21.8755 39.893 21.8755 40.264 22.1041 40.4926L23.1554 41.5439C23.2652 41.6538 23.4142 41.7156 23.5696 41.7156C23.725 41.7156 23.8741 41.6538 23.9839 41.5439L26.4286 39.0992C26.6575 38.8706 26.6575 38.4995 26.4286 38.2707C26.1997 38.0418 25.8289 38.0418 25.6 38.2707Z" fill="black"/>
<path d="M33.5939 41.1213C33.5939 40.7977 33.3313 40.5354 33.0079 40.5354H28.9922C28.6685 40.5354 28.4062 40.7977 28.4062 41.1213C28.4062 41.445 28.6685 41.7073 28.9922 41.7073H33.0079C33.3313 41.7073 33.5939 41.445 33.5939 41.1213Z" fill="black"/>
<path d="M28.9922 39.1375H34.2626C34.5863 39.1375 34.8486 38.8752 34.8486 38.5515C34.8486 38.2279 34.5863 37.9656 34.2626 37.9656H28.9922C28.6685 37.9656 28.4062 38.2279 28.4062 38.5515C28.4062 38.8752 28.6685 39.1375 28.9922 39.1375Z" fill="black"/>
<path d="M25.6 25.4936L23.5696 27.524L22.9329 26.887C22.704 26.6583 22.3332 26.6583 22.1041 26.887C21.8755 27.1159 21.8755 27.4869 22.1041 27.7158L23.1554 28.7668C23.2652 28.8767 23.4142 28.9385 23.5696 28.9385C23.725 28.9385 23.8741 28.8767 23.9839 28.7668L26.4286 26.3221C26.6575 26.0935 26.6575 25.7224 26.4286 25.4936C26.1997 25.2647 25.8289 25.2647 25.6 25.4936Z" fill="black"/>
<path d="M28.9922 28.9302H31.6275C31.9509 28.9302 32.2135 28.6679 32.2135 28.3442C32.2135 28.0208 31.9509 27.7583 31.6275 27.7583H28.9922C28.6685 27.7583 28.4062 28.0208 28.4062 28.3442C28.4062 28.6679 28.6685 28.9302 28.9922 28.9302Z" fill="black"/>
<path d="M27.2702 45.8281C27.1155 45.8281 26.9649 45.8908 26.8553 45.9998C26.7463 46.1087 26.6836 46.26 26.6836 46.4141C26.6836 46.5681 26.7463 46.7194 26.8553 46.8283C26.9649 46.9373 27.1155 47 27.2702 47C27.4243 47 27.5749 46.9373 27.6838 46.8283C27.7934 46.7194 27.8555 46.5681 27.8555 46.4141C27.8555 46.26 27.7934 46.1087 27.6838 45.9998C27.5749 45.8908 27.4243 45.8281 27.2702 45.8281Z" fill="black"/>
<path d="M40.6769 26.1617L36.4582 27.4789C36.2135 27.5553 36.0469 27.7817 36.0469 28.0381V31.7947C36.0469 34.6347 37.959 37.1432 40.6964 37.8948C40.7472 37.9088 40.7994 37.9157 40.8516 37.9157C40.9037 37.9157 40.9559 37.9088 41.0067 37.8948C43.7442 37.1432 45.6562 34.6347 45.6562 31.7949V28.0383C45.6562 27.7819 45.4896 27.5553 45.2449 27.4789L41.0262 26.1617C40.9124 26.1262 40.7907 26.1262 40.6769 26.1617ZM44.4844 28.469V31.7947C44.4844 34.0544 42.9985 36.0567 40.8516 36.7195C38.7047 36.0567 37.2188 34.0544 37.2188 31.7947V28.469L40.8516 27.3349L44.4844 28.469Z" fill="black"/>
<path d="M47.5887 25.7552L41.0402 23.7108C40.9802 23.6904 40.9168 23.6795 40.852 23.6795C40.8518 23.6795 40.8513 23.6795 40.8511 23.6795C40.7866 23.6795 40.7229 23.6904 40.6632 23.7106L40.0312 23.9079V20.1604C40.0312 19.1911 39.2428 18.4026 38.2734 18.4026H34.0059V17.5859C34.0059 17.2623 33.7434 17 33.42 17H24.6113C24.2878 17 24.0253 17.2623 24.0253 17.5859V18.4026H19.7578C18.7885 18.4026 18 19.1911 18 20.1604V45.2422C18 46.2115 18.7885 47 19.7578 47H24.633C24.9566 47 25.2189 46.7377 25.2189 46.4141C25.2189 46.0904 24.9566 45.8281 24.633 45.8281H19.7578C19.4346 45.8281 19.1719 45.5654 19.1719 45.2422V20.1604C19.1719 19.8374 19.4346 19.5745 19.7578 19.5745H24.0253V20.1886C24.0253 20.8857 24.5927 21.4531 25.2901 21.4531H32.7411C33.4385 21.4531 34.0059 20.8857 34.0059 20.1886V19.5745H38.2734C38.5966 19.5745 38.8594 19.8374 38.8594 20.1604V24.2739L35.9297 25.1885H28.9918C28.6682 25.1885 28.4059 25.4508 28.4059 25.7744C28.4059 26.0981 28.6682 26.3604 28.9918 26.3604H33.7031V31.5752H28.9918C28.6682 31.5752 28.4059 31.8375 28.4059 32.1611C28.4059 32.4848 28.6682 32.7471 28.9918 32.7471H33.7555C34.0957 35.8297 36.0675 38.4812 38.8594 39.7204V42.1367H36.9258C35.9565 42.1367 35.168 42.9252 35.168 43.8945V45.8281H29.9069C29.5833 45.8281 29.321 46.0904 29.321 46.4141C29.321 46.7377 29.5833 47 29.9069 47H35.7539C35.9093 47 36.0583 46.9382 36.1682 46.8283L39.8596 43.1369C39.9695 43.0271 40.0312 42.8781 40.0312 42.7227V40.1422C40.2638 40.2075 40.5005 40.2638 40.7412 40.3098C40.7776 40.3169 40.8147 40.3203 40.8516 40.3203C40.8884 40.3203 40.9255 40.3169 40.9619 40.3098C45.0401 39.5284 48 35.9473 48 31.7949V26.3146C48 26.0582 47.8334 25.8316 47.5887 25.7552ZM32.8341 20.1886C32.8341 20.2396 32.7924 20.2812 32.7411 20.2812H25.2901C25.2388 20.2812 25.1972 20.2396 25.1972 20.1886V18.1719H32.8341V20.1886ZM36.9258 43.3086H38.0308L36.3398 44.9996V43.8945C36.3398 43.5714 36.6026 43.3086 36.9258 43.3086ZM46.8281 31.7949C46.8281 35.3485 44.3216 38.4183 40.8516 39.137C37.3815 38.4183 34.875 35.3485 34.875 31.7949V26.7456L39.5485 25.2864C39.5977 25.2777 39.6444 25.2629 39.6886 25.2427L40.8516 24.8795L46.8281 26.7453V31.7949Z" fill="black"/>
<path d="M40.3265 33.786C40.1766 33.786 40.0267 33.7288 39.9122 33.6143L38.5623 32.2644C38.3334 32.0355 38.3334 31.6645 38.5623 31.4356C38.7912 31.2069 39.162 31.2069 39.3908 31.4356L40.3265 32.3713L42.3123 30.3857C42.5412 30.1568 42.912 30.1568 43.1411 30.3857C43.3697 30.6144 43.3697 30.9854 43.1411 31.2143L40.741 33.6143C40.6263 33.7288 40.4767 33.786 40.3265 33.786Z" fill="black"/>
</g>
<defs>
<clipPath id="clip0_2212_8515">
<rect width="30" height="30" fill="white" transform="translate(18 17)"/>
</clipPath>
</defs>
</svg>
