<svg xmlns="http://www.w3.org/2000/svg" width="22" height="22" fill="none"><path fill="#F83737" d="M5.598 4.316l-.618-.618-1.235 1.236.618.618 1.235-1.236zM16.77 17.958l.617.618 1.236-1.235-.618-.618-1.235 1.235zM11 21.874c6.005 0 10.874-4.869 10.874-10.874h-1.748A9.126 9.126 0 0111 20.126v1.748zM21.874 11C21.874 4.995 17.005.126 11 .126v1.748A9.126 9.126 0 0120.126 11h1.748zM11 .126C4.995.126.126 4.995.126 11h1.748A9.126 9.126 0 0111 1.874V.126zM.126 11c0 6.005 4.869 10.874 10.874 10.874v-1.748A9.126 9.126 0 011.874 11H.126zm4.237-5.448L16.77 17.958l1.235-1.235L5.598 4.316 4.363 5.552z"/></svg>