<svg width="86" height="97" viewBox="0 0 86 97" fill="none" xmlns="http://www.w3.org/2000/svg">
<g opacity="0.0991676">
<path fill-rule="evenodd" clip-rule="evenodd" d="M84.9278 38.7896C84.7168 44.818 77.9571 48.2612 72.9568 44.8872L57.0507 34.1544C52.2003 30.8816 52.6452 23.6036 57.8581 20.946L74.4358 12.4944C79.6509 9.83566 85.8041 13.7551 85.5994 19.6052L84.9278 38.7896Z" fill="#F2F5FF"/>
<path fill-rule="evenodd" clip-rule="evenodd" d="M34.629 72.952C39.0936 76.3722 38.4889 83.2732 33.4975 85.8648L14.241 95.8629C8.86489 98.6543 2.5244 94.4137 3.05112 88.3791L5.07601 65.1804C5.60295 59.1435 12.5868 56.0663 17.3974 59.7515L34.629 72.952Z" fill="#F2F5FF"/>
<path fill-rule="evenodd" clip-rule="evenodd" d="M4.40735 4.94112C6.6675 -0.65158 14.1972 -1.57513 17.7419 3.30556L23.4433 11.1557C26.8818 15.89 23.9745 22.5769 18.167 23.2913L8.82896 24.4401C3.01904 25.1548 -1.4226 19.3673 0.770699 13.94L4.40735 4.94112Z" fill="#F2F5FF"/>
</g>
</svg>
