<svg width="43" height="43" viewBox="0 0 43 43" fill="none" xmlns="http://www.w3.org/2000/svg">
<path d="M38.4873 16.3485H33.873V4.51367C33.873 4.23046 33.6436 4.00098 33.3604 4.00098H9.63965C9.3565 4.00098 9.12695 4.23046 9.12695 4.51367L9.12688 16.3485H4.5127C4.22955 16.3485 4 16.5779 4 16.8612V38.4814C4 38.7647 4.22955 38.9941 4.5127 38.9941H38.4873C38.7705 38.9941 39 38.7647 39 38.4814V16.8612C39 16.5779 38.7705 16.3485 38.4873 16.3485ZM37.9746 35.918L27.1504 27.6712L37.9746 19.4242V35.918ZM10.6002 32.3155C10.4286 32.0902 10.107 32.0468 9.88171 32.2184L5.02539 35.9184V19.4246L15.8495 27.6715L11.513 30.9755C11.2877 31.1472 11.2442 31.4689 11.4159 31.694C11.5168 31.8265 11.6695 31.896 11.8241 31.896C11.9324 31.896 12.0416 31.8619 12.1344 31.7912L16.6955 28.3161L18.7034 29.8459C19.5266 30.4731 20.5132 30.7867 21.4998 30.7867C22.4864 30.7867 23.473 30.4731 24.2962 29.8459L26.3045 28.3157L37.3687 36.7455C37.7481 37.0345 37.9745 37.4918 37.9746 37.9688H5.02539C5.02553 37.492 5.252 37.0348 5.63133 36.7459L10.5031 33.034C10.7283 32.8624 10.7718 32.5407 10.6002 32.3155ZM37.3687 18.5967L33.873 21.2601V17.3738H37.9746C37.9744 17.8507 37.7479 18.3078 37.3687 18.5967ZM32.8477 5.02637V22.0414L23.6748 29.0301C22.3941 30.0058 20.6054 30.0058 19.3247 29.0301L10.1523 22.0416L10.1523 5.02637H32.8477ZM9.12688 21.2604L5.63133 18.5971C5.25193 18.308 5.02546 17.8508 5.02539 17.3738H9.12688V21.2604Z" fill="#7D8D93"/>
<path d="M21.5 25.6709C26.6263 25.6709 30.7969 21.5003 30.7969 16.374C30.7969 11.2478 26.6263 7.07715 21.5 7.07715C16.3737 7.07715 12.2031 11.2478 12.2031 16.374C12.2031 21.5003 16.3737 25.6709 21.5 25.6709ZM21.5 8.10254C26.0609 8.10254 29.7715 11.8131 29.7715 16.374C29.7715 20.935 26.0609 24.6455 21.5 24.6455C16.9391 24.6455 13.2285 20.935 13.2285 16.374C13.2285 11.8131 16.9391 8.10254 21.5 8.10254Z" fill="#7D8D93"/>
<path d="M21.5 16.3057C23.4789 16.3057 25.0889 14.6957 25.0889 12.7168C25.0889 10.7379 23.4789 9.12793 21.5 9.12793C19.5211 9.12793 17.9111 10.7379 17.9111 12.7168C17.9111 14.6957 19.5211 16.3057 21.5 16.3057ZM21.5 10.1533C22.9135 10.1533 24.0635 11.3033 24.0635 12.7168C24.0635 14.1303 22.9135 15.2803 21.5 15.2803C20.0865 15.2803 18.9365 14.1303 18.9365 12.7168C18.9365 11.3033 20.0865 10.1533 21.5 10.1533Z" fill="#7D8D93"/>
<path d="M21.5 23.6201C23.9551 23.6201 26.2239 22.3914 27.5691 20.3334C27.6236 20.25 27.6526 20.1525 27.6526 20.0529V19.8945C27.6526 18.481 26.5027 17.3311 25.0891 17.3311H17.9109C16.4973 17.3311 15.3474 18.481 15.3474 19.8945V20.0529C15.3474 20.1525 15.3764 20.25 15.4309 20.3334C16.7761 22.3914 19.0449 23.6201 21.5 23.6201ZM16.3728 19.8945C16.3728 19.0465 17.0627 18.3564 17.9109 18.3564H25.0891C25.9372 18.3564 26.6272 19.0465 26.6272 19.8945C25.4632 21.589 23.5577 22.5947 21.5 22.5947C19.4423 22.5947 17.5369 21.589 16.3728 19.8945Z" fill="#7D8D93"/>
</svg>
