<svg xmlns="http://www.w3.org/2000/svg" xmlns:xlink="http://www.w3.org/1999/xlink" width="10.008" height="91.455" viewBox="0 0 10.008 91.455"><defs><clipPath id="a"><path d="M0,0H91.455V10.008H0Z" transform="translate(0 0.992)" fill="none"/></clipPath></defs><g transform="translate(-103.492 -22.5)"><g transform="translate(114.492 22.5) rotate(90)"><path d="M0,.5H0Z" transform="translate(0 6)" fill="#fefefe"/><path d="M0,0H91.455V10.008H0Z" transform="translate(0 0.992)" fill="none"/><g clip-path="url(#a)"><path d="M87.364,10,.463,5.617A.573.573,0,0,1,0,4.98a.561.561,0,0,1,.462-.588L87.364,0c2.171-.109,4,2.04,4.088,4.8s-1.6,5.089-3.776,5.2c-.1,0-.212,0-.312,0" transform="translate(0 0.992)" fill="#4e7eff"/></g></g><circle cx="1" cy="1" r="1" transform="translate(108.992 108) rotate(90)" fill="#fff"/></g></svg>