<svg xmlns="http://www.w3.org/2000/svg" width="215.955" height="164.201" viewBox="0 0 215.955 164.201"><g transform="translate(-1.82 -0.822)"><path d="M.5,0V10" transform="translate(107.992 1)" fill="none" stroke="#c0c2cc" stroke-miterlimit="10" stroke-width="1"/><path d="M.5.829V6.768" transform="translate(107.992)" fill="none" stroke="#c0c2cc" stroke-miterlimit="10" stroke-width="1"/><path d="M.5,0V9.768" transform="matrix(0.883, 0.469, -0.469, 0.883, 161.577, 14)" fill="none" stroke="#c0c2cc" stroke-miterlimit="10" stroke-width="1"/><path d="M.5,0V9.768" transform="matrix(0.602, 0.799, -0.799, 0.602, 202.105, 52.467)" fill="none" stroke="#c0c2cc" stroke-miterlimit="10" stroke-width="1"/><path d="M.5,0V9.768" transform="matrix(0.017, 1, -1, 0.017, 217.758, 106)" fill="none" stroke="#c0c2cc" stroke-miterlimit="10" stroke-width="1"/><path d="M.5,0V9.768" transform="matrix(-0.53, 0.848, -0.848, -0.53, 201.805, 164.176)" fill="none" stroke="#c0c2cc" stroke-miterlimit="10" stroke-width="1"/><path d="M.5,0V9.768" transform="matrix(-0.53, -0.848, 0.848, -0.53, 16.522, 162.024)" fill="none" stroke="#c0c2cc" stroke-miterlimit="10" stroke-width="1"/><path d="M.5,0V9.768" transform="matrix(0.017, -1, 1, 0.017, 1.992, 109)" fill="none" stroke="#c0c2cc" stroke-miterlimit="10" stroke-width="1"/><path d="M.5,0V9.768" transform="matrix(0.485, -0.875, 0.875, 0.485, 14.992, 54.875)" fill="none" stroke="#c0c2cc" stroke-miterlimit="10" stroke-width="1"/><path d="M.5,0V9.768" transform="matrix(0.848, -0.53, 0.53, 0.848, 54.714, 15.67)" fill="none" stroke="#c0c2cc" stroke-miterlimit="10" stroke-width="1"/><path d="M133.691,107a71.5,71.5,0,1,0-124.727-.615" transform="translate(36.992 38)" fill="none" stroke="#b7b9c5" stroke-miterlimit="10" stroke-width="1" opacity="0.341"/><path d="M0,0A85.279,85.279,0,0,0,11,42" transform="translate(19.992 110)" fill="none" stroke="#d863e0" stroke-miterlimit="10" stroke-width="35" opacity="0.138"/><path d="M.5.829V6.768" transform="matrix(0.998, 0.07, -0.07, 0.998, 114.734, 0.176)" fill="none" stroke="#c0c2cc" stroke-miterlimit="10" stroke-width="1"/><path d="M.5.829V6.768" transform="translate(119.845 0) rotate(7)" fill="none" stroke="#c0c2cc" stroke-miterlimit="10" stroke-width="1"/><path d="M.5.829V6.768" transform="translate(125.327 1) rotate(11)" fill="none" stroke="#c0c2cc" stroke-miterlimit="10" stroke-width="1"/><path d="M.5.829V6.768" transform="translate(130.685 2) rotate(14)" fill="none" stroke="#c0c2cc" stroke-miterlimit="10" stroke-width="1"/><path d="M.5.829V6.768" transform="matrix(0.951, 0.309, -0.309, 0.951, 136.155, 3)" fill="none" stroke="#c0c2cc" stroke-miterlimit="10" stroke-width="1"/><path d="M.5.829V6.768" transform="translate(141.5 5) rotate(21)" fill="none" stroke="#c0c2cc" stroke-miterlimit="10" stroke-width="1"/><path d="M.5.829V6.768" transform="translate(146.95 6) rotate(25)" fill="none" stroke="#c0c2cc" stroke-miterlimit="10" stroke-width="1"/><path d="M.5.829V6.768" transform="matrix(0.875, 0.485, -0.485, 0.875, 152.385, 8)" fill="none" stroke="#c0c2cc" stroke-miterlimit="10" stroke-width="1"/><path d="M.5.829V6.768" transform="matrix(0.875, 0.485, -0.485, 0.875, 157.385, 11)" fill="none" stroke="#c0c2cc" stroke-miterlimit="10" stroke-width="1"/><path d="M.5.829V6.768" transform="matrix(0.848, 0.53, -0.53, 0.848, 167.701, 16)" fill="none" stroke="#c0c2cc" stroke-miterlimit="10" stroke-width="1"/><path d="M.5.829V6.768" transform="matrix(0.809, 0.588, -0.588, 0.809, 172.106, 19)" fill="none" stroke="#c0c2cc" stroke-miterlimit="10" stroke-width="1"/><path d="M.5.829V6.768" transform="translate(176.397 22) rotate(39)" fill="none" stroke="#c0c2cc" stroke-miterlimit="10" stroke-width="1"/><path d="M.5.829V6.768" transform="translate(180.766 26) rotate(43)" fill="none" stroke="#c0c2cc" stroke-miterlimit="10" stroke-width="1"/><path d="M.5.829V6.768" transform="matrix(0.695, 0.719, -0.719, 0.695, 185.027, 30)" fill="none" stroke="#c0c2cc" stroke-miterlimit="10" stroke-width="1"/><path d="M.5.829V6.768" transform="translate(189.354 34) rotate(50)" fill="none" stroke="#c0c2cc" stroke-miterlimit="10" stroke-width="1"/><path d="M.5.829V6.768" transform="matrix(0.602, 0.799, -0.799, 0.602, 192.582, 38)" fill="none" stroke="#c0c2cc" stroke-miterlimit="10" stroke-width="1"/><path d="M.5.829V6.768" transform="matrix(0.545, 0.839, -0.839, 0.545, 196.863, 43)" fill="none" stroke="#c0c2cc" stroke-miterlimit="10" stroke-width="1"/><path d="M.5.829V6.768" transform="matrix(0.545, 0.839, -0.839, 0.545, 199.863, 47)" fill="none" stroke="#c0c2cc" stroke-miterlimit="10" stroke-width="1"/><path d="M.5.829V6.768" transform="matrix(0.438, 0.899, -0.899, 0.438, 206.283, 57)" fill="none" stroke="#c0c2cc" stroke-miterlimit="10" stroke-width="1"/><path d="M.5.829V6.768" transform="translate(208.482 62) rotate(68)" fill="none" stroke="#c0c2cc" stroke-miterlimit="10" stroke-width="1"/><path d="M.5.829V6.768" transform="translate(210.61 67) rotate(71)" fill="none" stroke="#c0c2cc" stroke-miterlimit="10" stroke-width="1"/><path d="M.5.829V6.768" transform="matrix(0.259, 0.966, -0.966, 0.259, 212.753, 72)" fill="none" stroke="#c0c2cc" stroke-miterlimit="10" stroke-width="1"/><path d="M.5.829V6.768" transform="matrix(0.208, 0.978, -0.978, 0.208, 213.839, 78)" fill="none" stroke="#c0c2cc" stroke-miterlimit="10" stroke-width="1"/><path d="M.5.829V6.768" transform="translate(215.924 83) rotate(82)" fill="none" stroke="#c0c2cc" stroke-miterlimit="10" stroke-width="1"/><path d="M.5.829V6.768" transform="matrix(0.07, 0.998, -0.998, 0.07, 216.975, 89)" fill="none" stroke="#c0c2cc" stroke-miterlimit="10" stroke-width="1"/><path d="M.5.829V6.768" transform="matrix(0.017, 1, -1, 0.017, 217.991, 95)" fill="none" stroke="#c0c2cc" stroke-miterlimit="10" stroke-width="1"/><path d="M.5.829V6.768" transform="translate(218.035 100.366) rotate(93)" fill="none" stroke="#c0c2cc" stroke-miterlimit="10" stroke-width="1"/><path d="M.5.829V6.768" transform="matrix(0.017, 1, -1, 0.017, 217.991, 111)" fill="none" stroke="#c0c2cc" stroke-miterlimit="10" stroke-width="1"/><path d="M.5.829V6.768" transform="matrix(-0.035, 0.999, -0.999, -0.035, 218.041, 116.723)" fill="none" stroke="#c0c2cc" stroke-miterlimit="10" stroke-width="1"/><path d="M.5.829V6.768" transform="matrix(-0.017, 1, -1, -0.017, 218.008, 122.122)" fill="none" stroke="#c0c2cc" stroke-miterlimit="10" stroke-width="1"/><path d="M.5.829V6.768" transform="matrix(-0.035, 0.999, -0.999, -0.035, 217, 128.124)" fill="none" stroke="#c0c2cc" stroke-miterlimit="10" stroke-width="1"/><path d="M.5.829V6.768" transform="translate(215.987 133.597) rotate(97)" fill="none" stroke="#c0c2cc" stroke-miterlimit="10" stroke-width="1"/><path d="M.5.829V6.768" transform="translate(213.928 138.934) rotate(99)" fill="none" stroke="#c0c2cc" stroke-miterlimit="10" stroke-width="1"/><path d="M.5.829V6.768" transform="translate(213.062 144.095) rotate(99)" fill="none" stroke="#c0c2cc" stroke-miterlimit="10" stroke-width="1"/><path d="M.5.829V6.768" transform="matrix(-0.469, 0.883, -0.883, -0.469, 205.642, 160.286)" fill="none" stroke="#c0c2cc" stroke-miterlimit="10" stroke-width="1"/><path d="M.5.829V6.768" transform="matrix(-0.469, 0.883, -0.883, -0.469, 208.642, 155.286)" fill="none" stroke="#c0c2cc" stroke-miterlimit="10" stroke-width="1"/><path d="M.5.829V6.768" transform="matrix(-0.469, 0.883, -0.883, -0.469, 210.642, 150.286)" fill="none" stroke="#c0c2cc" stroke-miterlimit="10" stroke-width="1"/><path d="M.5.829V6.768" transform="matrix(-0.469, -0.883, 0.883, -0.469, 10.461, 153.169)" fill="none" stroke="#c0c2cc" stroke-miterlimit="10" stroke-width="1"/><path d="M.5.829V6.768" transform="matrix(-0.469, -0.883, 0.883, -0.469, 40.461, 147.169)" fill="none" stroke="#c0c2cc" stroke-miterlimit="10" stroke-width="1"/><path d="M.5.829V6.768" transform="matrix(0.53, -0.848, 0.848, 0.53, 169.753, 144.28)" fill="none" stroke="#c0c2cc" stroke-miterlimit="10" stroke-width="1"/><path d="M.5.829V6.768" transform="matrix(-0.469, -0.883, 0.883, -0.469, 12.461, 158.169)" fill="none" stroke="#c0c2cc" stroke-miterlimit="10" stroke-width="1"/><path d="M.5.829V6.768" transform="matrix(-0.407, -0.914, 0.914, -0.407, 7.399, 147.761)" fill="none" stroke="#c0c2cc" stroke-miterlimit="10" stroke-width="1"/><path d="M.5.829V6.768" transform="translate(6.334 142.334) rotate(-110)" fill="none" stroke="#c0c2cc" stroke-miterlimit="10" stroke-width="1"/><path d="M.5.829V6.768" transform="translate(4.284 137.003) rotate(-107)" fill="none" stroke="#c0c2cc" stroke-miterlimit="10" stroke-width="1"/><path d="M.5.829V6.768" transform="translate(3.217 131.549) rotate(-103)" fill="none" stroke="#c0c2cc" stroke-miterlimit="10" stroke-width="1"/><path d="M.5.829V6.768" transform="matrix(-0.174, -0.985, 0.985, -0.174, 2.165, 125.2)" fill="none" stroke="#c0c2cc" stroke-miterlimit="10" stroke-width="1"/><path d="M.5.829V6.768" transform="matrix(-0.105, -0.995, 0.995, -0.105, 1.182, 120.217)" fill="none" stroke="#c0c2cc" stroke-miterlimit="10" stroke-width="1"/><path d="M.5.829V6.768" transform="translate(1.044 114.365) rotate(-93)" fill="none" stroke="#c0c2cc" stroke-miterlimit="10" stroke-width="1"/><path d="M.5.829V6.768" transform="matrix(0.017, -1, 1, 0.017, 0.992, 103)" fill="none" stroke="#c0c2cc" stroke-miterlimit="10" stroke-width="1"/><path d="M.5.829V6.768" transform="matrix(0.07, -0.998, 0.998, 0.07, 1.992, 91.998)" fill="none" stroke="#c0c2cc" stroke-miterlimit="10" stroke-width="1"/><path d="M.5.829V6.768" transform="matrix(0.07, -0.998, 0.998, 0.07, 1.992, 97.998)" fill="none" stroke="#c0c2cc" stroke-miterlimit="10" stroke-width="1"/><path d="M.5.829V6.768" transform="translate(2.992 86.99) rotate(-82)" fill="none" stroke="#c0c2cc" stroke-miterlimit="10" stroke-width="1"/><path d="M.5.829V6.768" transform="matrix(0.208, -0.978, 0.978, 0.208, 3.992, 80.978)" fill="none" stroke="#c0c2cc" stroke-miterlimit="10" stroke-width="1"/><path d="M.5.829V6.768" transform="matrix(0.259, -0.966, 0.966, 0.259, 5.992, 75.966)" fill="none" stroke="#c0c2cc" stroke-miterlimit="10" stroke-width="1"/><path d="M.5.829V6.768" transform="translate(6.992 69.946) rotate(-71)" fill="none" stroke="#c0c2cc" stroke-miterlimit="10" stroke-width="1"/><path d="M.5.829V6.768" transform="translate(9.992 64.927) rotate(-68)" fill="none" stroke="#c0c2cc" stroke-miterlimit="10" stroke-width="1"/><path d="M.5.829V6.768" transform="matrix(0.438, -0.899, 0.899, 0.438, 11.992, 59.899)" fill="none" stroke="#c0c2cc" stroke-miterlimit="10" stroke-width="1"/><path d="M.5.829V6.768" transform="matrix(0.485, -0.875, 0.875, 0.485, 17.992, 49.875)" fill="none" stroke="#c0c2cc" stroke-miterlimit="10" stroke-width="1"/><path d="M.5.829V6.768" transform="matrix(0.545, -0.839, 0.839, 0.545, 20.992, 44.839)" fill="none" stroke="#c0c2cc" stroke-miterlimit="10" stroke-width="1"/><path d="M.5.829V6.768" transform="matrix(0.602, -0.799, 0.799, 0.602, 23.992, 40.799)" fill="none" stroke="#c0c2cc" stroke-miterlimit="10" stroke-width="1"/><path d="M.5.829V6.768" transform="translate(27.992 36.766) rotate(-50)" fill="none" stroke="#c0c2cc" stroke-miterlimit="10" stroke-width="1"/><path d="M.5.829V6.768" transform="matrix(0.695, -0.719, 0.719, 0.695, 31.992, 32.719)" fill="none" stroke="#c0c2cc" stroke-miterlimit="10" stroke-width="1"/><path d="M.5.829V6.768" transform="translate(35.992 28.682) rotate(-43)" fill="none" stroke="#c0c2cc" stroke-miterlimit="10" stroke-width="1"/><path d="M.5.829V6.768" transform="translate(39.992 24.629) rotate(-39)" fill="none" stroke="#c0c2cc" stroke-miterlimit="10" stroke-width="1"/><path d="M.5.829V6.768" transform="matrix(0.809, -0.588, 0.588, 0.809, 43.992, 20.588)" fill="none" stroke="#c0c2cc" stroke-miterlimit="10" stroke-width="1"/><path d="M.5.829V6.768" transform="matrix(0.848, -0.53, 0.53, 0.848, 48.992, 17.53)" fill="none" stroke="#c0c2cc" stroke-miterlimit="10" stroke-width="1"/><path d="M.5.829V6.768" transform="matrix(0.875, -0.485, 0.485, 0.875, 63.992, 9.485)" fill="none" stroke="#c0c2cc" stroke-miterlimit="10" stroke-width="1"/><path d="M.5.829V6.768" transform="matrix(0.875, -0.485, 0.485, 0.875, 58.992, 12.485)" fill="none" stroke="#c0c2cc" stroke-miterlimit="10" stroke-width="1"/><path d="M.5.829V6.768" transform="translate(68.992 7.423) rotate(-25)" fill="none" stroke="#c0c2cc" stroke-miterlimit="10" stroke-width="1"/><path d="M.5.829V6.768" transform="translate(73.992 5.358) rotate(-21)" fill="none" stroke="#c0c2cc" stroke-miterlimit="10" stroke-width="1"/><path d="M.5.829V6.768" transform="matrix(0.951, -0.309, 0.309, 0.951, 79.992, 4.309)" fill="none" stroke="#c0c2cc" stroke-miterlimit="10" stroke-width="1"/><path d="M.5.829V6.768" transform="translate(84.992 2.242) rotate(-14)" fill="none" stroke="#c0c2cc" stroke-miterlimit="10" stroke-width="1"/><path d="M.5.829V6.768" transform="translate(90.992 1.191) rotate(-11)" fill="none" stroke="#c0c2cc" stroke-miterlimit="10" stroke-width="1"/><path d="M.5.829V6.768" transform="translate(95.992 0.122) rotate(-7)" fill="none" stroke="#c0c2cc" stroke-miterlimit="10" stroke-width="1"/><path d="M.5.829V6.768" transform="matrix(0.998, -0.07, 0.07, 0.998, 101.992, 0.07)" fill="none" stroke="#c0c2cc" stroke-miterlimit="10" stroke-width="1"/><circle cx="10.5" cy="10.5" r="10.5" transform="translate(97.992 98)" fill="none" stroke="#b7b9c5" stroke-miterlimit="10" stroke-width="1" opacity="0.34"/><rect width="2" height="2" transform="translate(50.992 140)" fill="#d863e0"/><rect width="2" height="2" transform="translate(41.992 107)" fill="#d863e0"/><rect width="2" height="2" transform="translate(50.992 75)" fill="#d863e0"/><rect width="2" height="2" transform="translate(74.992 51)" fill="#d863e0"/><rect width="2" height="2" transform="translate(106.992 42)" fill="#d863e0"/><rect width="2" height="2" transform="translate(138.992 51)" fill="#d863e0"/><rect width="2" height="2" transform="translate(163.992 74)" fill="#d863e0"/><rect width="2" height="2" transform="translate(172.992 107)" fill="#d863e0"/><rect width="2" height="2" transform="translate(163.992 140)" fill="#d863e0"/></g></svg>