<svg xmlns="http://www.w3.org/2000/svg" width="215.956" height="164.201" viewBox="0 0 215.956 164.201"><g transform="translate(-1.819 -1.796)"><path d="M165.478,130A85.52,85.52,0,0,0,177,87.029C177,38.964,137.377,0,88.5,0S0,38.964,0,87.029a85.513,85.513,0,0,0,11.095,42.223" transform="translate(19.992 21.974)" fill="none" stroke="#23273d" stroke-miterlimit="10" stroke-width="34" opacity="0.171"/><path d="M.5,0V10" transform="translate(107.992 1.974)" fill="none" stroke="#c0c2cc" stroke-miterlimit="10" stroke-width="1"/><path d="M.5,0V9.768" transform="matrix(0.883, 0.469, -0.469, 0.883, 161.577, 14.974)" fill="none" stroke="#c0c2cc" stroke-miterlimit="10" stroke-width="1"/><path d="M.5,0V9.768" transform="matrix(0.602, 0.799, -0.799, 0.602, 202.105, 53.44)" fill="none" stroke="#c0c2cc" stroke-miterlimit="10" stroke-width="1"/><path d="M.5,0V9.768" transform="matrix(0.017, 1, -1, 0.017, 217.758, 106.974)" fill="none" stroke="#c0c2cc" stroke-miterlimit="10" stroke-width="1"/><path d="M.5,0V9.768" transform="matrix(-0.53, 0.848, -0.848, -0.53, 201.805, 165.15)" fill="none" stroke="#c0c2cc" stroke-miterlimit="10" stroke-width="1"/><path d="M.5,0V9.768" transform="matrix(-0.53, -0.848, 0.848, -0.53, 16.522, 162.998)" fill="none" stroke="#c0c2cc" stroke-miterlimit="10" stroke-width="1"/><path d="M.5,0V9.768" transform="matrix(0.017, -1, 1, 0.017, 1.992, 109.973)" fill="none" stroke="#c0c2cc" stroke-miterlimit="10" stroke-width="1"/><path d="M.5,0V9.768" transform="matrix(0.485, -0.875, 0.875, 0.485, 14.992, 55.848)" fill="none" stroke="#c0c2cc" stroke-miterlimit="10" stroke-width="1"/><path d="M.5,0V9.768" transform="matrix(0.848, -0.53, 0.53, 0.848, 54.714, 16.644)" fill="none" stroke="#c0c2cc" stroke-miterlimit="10" stroke-width="1"/><path d="M133.691,107a71.5,71.5,0,1,0-124.727-.615" transform="translate(36.992 38.974)" fill="none" stroke="#b7b9c5" stroke-miterlimit="10" stroke-width="1" opacity="0.341"/><path d="M.5.829V6.768" transform="matrix(0.998, 0.07, -0.07, 0.998, 114.734, 1.149)" fill="none" stroke="#c0c2cc" stroke-miterlimit="10" stroke-width="1"/><path d="M.5.829V6.768" transform="translate(119.845 0.974) rotate(7)" fill="none" stroke="#c0c2cc" stroke-miterlimit="10" stroke-width="1"/><path d="M.5.829V6.768" transform="translate(125.327 1.974) rotate(11)" fill="none" stroke="#c0c2cc" stroke-miterlimit="10" stroke-width="1"/><path d="M.5.829V6.768" transform="translate(130.685 2.974) rotate(14)" fill="none" stroke="#c0c2cc" stroke-miterlimit="10" stroke-width="1"/><path d="M.5.829V6.768" transform="matrix(0.951, 0.309, -0.309, 0.951, 136.155, 3.974)" fill="none" stroke="#c0c2cc" stroke-miterlimit="10" stroke-width="1"/><path d="M.5.829V6.768" transform="translate(141.5 5.974) rotate(21)" fill="none" stroke="#c0c2cc" stroke-miterlimit="10" stroke-width="1"/><path d="M.5.829V6.768" transform="translate(146.95 6.974) rotate(25)" fill="none" stroke="#c0c2cc" stroke-miterlimit="10" stroke-width="1"/><path d="M.5.829V6.768" transform="matrix(0.875, 0.485, -0.485, 0.875, 152.385, 8.974)" fill="none" stroke="#c0c2cc" stroke-miterlimit="10" stroke-width="1"/><path d="M.5.829V6.768" transform="matrix(0.875, 0.485, -0.485, 0.875, 157.385, 11.974)" fill="none" stroke="#c0c2cc" stroke-miterlimit="10" stroke-width="1"/><path d="M.5.829V6.768" transform="matrix(0.848, 0.53, -0.53, 0.848, 167.701, 16.974)" fill="none" stroke="#c0c2cc" stroke-miterlimit="10" stroke-width="1"/><path d="M.5.829V6.768" transform="matrix(0.809, 0.588, -0.588, 0.809, 172.106, 19.974)" fill="none" stroke="#c0c2cc" stroke-miterlimit="10" stroke-width="1"/><path d="M.5.829V6.768" transform="translate(176.397 22.974) rotate(39)" fill="none" stroke="#c0c2cc" stroke-miterlimit="10" stroke-width="1"/><path d="M.5.829V6.768" transform="translate(180.766 26.974) rotate(43)" fill="none" stroke="#c0c2cc" stroke-miterlimit="10" stroke-width="1"/><path d="M.5.829V6.768" transform="matrix(0.695, 0.719, -0.719, 0.695, 185.027, 30.974)" fill="none" stroke="#c0c2cc" stroke-miterlimit="10" stroke-width="1"/><path d="M.5.829V6.768" transform="translate(189.354 34.974) rotate(50)" fill="none" stroke="#c0c2cc" stroke-miterlimit="10" stroke-width="1"/><path d="M.5.829V6.768" transform="matrix(0.602, 0.799, -0.799, 0.602, 192.582, 38.974)" fill="none" stroke="#c0c2cc" stroke-miterlimit="10" stroke-width="1"/><path d="M.5.829V6.768" transform="matrix(0.545, 0.839, -0.839, 0.545, 196.863, 43.974)" fill="none" stroke="#c0c2cc" stroke-miterlimit="10" stroke-width="1"/><path d="M.5.829V6.768" transform="matrix(0.545, 0.839, -0.839, 0.545, 199.863, 47.974)" fill="none" stroke="#c0c2cc" stroke-miterlimit="10" stroke-width="1"/><path d="M.5.829V6.768" transform="matrix(0.438, 0.899, -0.899, 0.438, 206.283, 57.974)" fill="none" stroke="#c0c2cc" stroke-miterlimit="10" stroke-width="1"/><path d="M.5.829V6.768" transform="translate(208.482 62.974) rotate(68)" fill="none" stroke="#c0c2cc" stroke-miterlimit="10" stroke-width="1"/><path d="M.5.829V6.768" transform="translate(210.61 67.974) rotate(71)" fill="none" stroke="#c0c2cc" stroke-miterlimit="10" stroke-width="1"/><path d="M.5.829V6.768" transform="matrix(0.259, 0.966, -0.966, 0.259, 212.753, 72.974)" fill="none" stroke="#c0c2cc" stroke-miterlimit="10" stroke-width="1"/><path d="M.5.829V6.768" transform="matrix(0.208, 0.978, -0.978, 0.208, 213.839, 78.974)" fill="none" stroke="#c0c2cc" stroke-miterlimit="10" stroke-width="1"/><path d="M.5.829V6.768" transform="translate(215.924 83.974) rotate(82)" fill="none" stroke="#c0c2cc" stroke-miterlimit="10" stroke-width="1"/><path d="M.5.829V6.768" transform="matrix(0.07, 0.998, -0.998, 0.07, 216.975, 89.974)" fill="none" stroke="#c0c2cc" stroke-miterlimit="10" stroke-width="1"/><path d="M.5.829V6.768" transform="matrix(0.017, 1, -1, 0.017, 217.991, 95.974)" fill="none" stroke="#c0c2cc" stroke-miterlimit="10" stroke-width="1"/><path d="M.5.829V6.768" transform="translate(218.035 101.34) rotate(93)" fill="none" stroke="#c0c2cc" stroke-miterlimit="10" stroke-width="1"/><path d="M.5.829V6.768" transform="matrix(0.017, 1, -1, 0.017, 217.991, 111.974)" fill="none" stroke="#c0c2cc" stroke-miterlimit="10" stroke-width="1"/><path d="M.5.829V6.768" transform="matrix(-0.035, 0.999, -0.999, -0.035, 218.041, 117.696)" fill="none" stroke="#c0c2cc" stroke-miterlimit="10" stroke-width="1"/><path d="M.5.829V6.768" transform="matrix(-0.017, 1, -1, -0.017, 218.008, 123.096)" fill="none" stroke="#c0c2cc" stroke-miterlimit="10" stroke-width="1"/><path d="M.5.829V6.768" transform="matrix(-0.035, 0.999, -0.999, -0.035, 217, 129.098)" fill="none" stroke="#c0c2cc" stroke-miterlimit="10" stroke-width="1"/><path d="M.5.829V6.768" transform="translate(215.987 134.571) rotate(97)" fill="none" stroke="#c0c2cc" stroke-miterlimit="10" stroke-width="1"/><path d="M.5.829V6.768" transform="translate(215.062 140.069) rotate(99)" fill="none" stroke="#c0c2cc" stroke-miterlimit="10" stroke-width="1"/><path d="M.5.829V6.768" transform="translate(213.062 145.069) rotate(99)" fill="none" stroke="#c0c2cc" stroke-miterlimit="10" stroke-width="1"/><path d="M.5.829V6.768" transform="matrix(-0.469, 0.883, -0.883, -0.469, 205.642, 161.26)" fill="none" stroke="#c0c2cc" stroke-miterlimit="10" stroke-width="1"/><path d="M.5.829V6.768" transform="matrix(-0.469, 0.883, -0.883, -0.469, 208.642, 156.26)" fill="none" stroke="#c0c2cc" stroke-miterlimit="10" stroke-width="1"/><path d="M.5.829V6.768" transform="matrix(-0.469, 0.883, -0.883, -0.469, 210.642, 151.26)" fill="none" stroke="#c0c2cc" stroke-miterlimit="10" stroke-width="1"/><path d="M.5.829V6.768" transform="matrix(-0.469, -0.883, 0.883, -0.469, 10.461, 154.143)" fill="none" stroke="#c0c2cc" stroke-miterlimit="10" stroke-width="1"/><path d="M.5.829V6.768" transform="matrix(-0.469, -0.883, 0.883, -0.469, 40.461, 148.143)" fill="none" stroke="#c0c2cc" stroke-miterlimit="10" stroke-width="1"/><path d="M.5.829V6.768" transform="matrix(0.53, -0.848, 0.848, 0.53, 169.753, 145.254)" fill="none" stroke="#c0c2cc" stroke-miterlimit="10" stroke-width="1"/><path d="M.5.829V6.768" transform="matrix(-0.469, -0.883, 0.883, -0.469, 12.461, 159.143)" fill="none" stroke="#c0c2cc" stroke-miterlimit="10" stroke-width="1"/><path d="M.5.829V6.768" transform="matrix(-0.407, -0.914, 0.914, -0.407, 7.399, 148.734)" fill="none" stroke="#c0c2cc" stroke-miterlimit="10" stroke-width="1"/><path d="M.5.829V6.768" transform="translate(6.334 143.307) rotate(-110)" fill="none" stroke="#c0c2cc" stroke-miterlimit="10" stroke-width="1"/><path d="M.5.829V6.768" transform="translate(4.284 137.977) rotate(-107)" fill="none" stroke="#c0c2cc" stroke-miterlimit="10" stroke-width="1"/><path d="M.5.829V6.768" transform="translate(3.217 132.523) rotate(-103)" fill="none" stroke="#c0c2cc" stroke-miterlimit="10" stroke-width="1"/><path d="M.5.829V6.768" transform="matrix(-0.174, -0.985, 0.985, -0.174, 2.165, 126.174)" fill="none" stroke="#c0c2cc" stroke-miterlimit="10" stroke-width="1"/><path d="M.5.829V6.768" transform="matrix(-0.105, -0.995, 0.995, -0.105, 1.182, 121.191)" fill="none" stroke="#c0c2cc" stroke-miterlimit="10" stroke-width="1"/><path d="M.5.829V6.768" transform="translate(1.044 115.339) rotate(-93)" fill="none" stroke="#c0c2cc" stroke-miterlimit="10" stroke-width="1"/><path d="M.5.829V6.768" transform="matrix(0.017, -1, 1, 0.017, 0.992, 103.973)" fill="none" stroke="#c0c2cc" stroke-miterlimit="10" stroke-width="1"/><path d="M.5.829V6.768" transform="matrix(0.07, -0.998, 0.998, 0.07, 1.992, 92.971)" fill="none" stroke="#c0c2cc" stroke-miterlimit="10" stroke-width="1"/><path d="M.5.829V6.768" transform="matrix(0.07, -0.998, 0.998, 0.07, 1.992, 98.971)" fill="none" stroke="#c0c2cc" stroke-miterlimit="10" stroke-width="1"/><path d="M.5.829V6.768" transform="translate(2.992 87.964) rotate(-82)" fill="none" stroke="#c0c2cc" stroke-miterlimit="10" stroke-width="1"/><path d="M.5.829V6.768" transform="matrix(0.208, -0.978, 0.978, 0.208, 3.992, 81.952)" fill="none" stroke="#c0c2cc" stroke-miterlimit="10" stroke-width="1"/><path d="M.5.829V6.768" transform="matrix(0.259, -0.966, 0.966, 0.259, 5.992, 76.94)" fill="none" stroke="#c0c2cc" stroke-miterlimit="10" stroke-width="1"/><path d="M.5.829V6.768" transform="translate(6.992 70.919) rotate(-71)" fill="none" stroke="#c0c2cc" stroke-miterlimit="10" stroke-width="1"/><path d="M.5.829V6.768" transform="translate(9.992 65.901) rotate(-68)" fill="none" stroke="#c0c2cc" stroke-miterlimit="10" stroke-width="1"/><path d="M.5.829V6.768" transform="matrix(0.438, -0.899, 0.899, 0.438, 11.992, 60.872)" fill="none" stroke="#c0c2cc" stroke-miterlimit="10" stroke-width="1"/><path d="M.5.829V6.768" transform="matrix(0.485, -0.875, 0.875, 0.485, 17.992, 50.848)" fill="none" stroke="#c0c2cc" stroke-miterlimit="10" stroke-width="1"/><path d="M.5.829V6.768" transform="matrix(0.545, -0.839, 0.839, 0.545, 20.992, 45.812)" fill="none" stroke="#c0c2cc" stroke-miterlimit="10" stroke-width="1"/><path d="M.5.829V6.768" transform="matrix(0.602, -0.799, 0.799, 0.602, 23.992, 41.772)" fill="none" stroke="#c0c2cc" stroke-miterlimit="10" stroke-width="1"/><path d="M.5.829V6.768" transform="translate(27.992 37.74) rotate(-50)" fill="none" stroke="#c0c2cc" stroke-miterlimit="10" stroke-width="1"/><path d="M.5.829V6.768" transform="matrix(0.695, -0.719, 0.719, 0.695, 31.992, 33.693)" fill="none" stroke="#c0c2cc" stroke-miterlimit="10" stroke-width="1"/><path d="M.5.829V6.768" transform="translate(35.992 29.656) rotate(-43)" fill="none" stroke="#c0c2cc" stroke-miterlimit="10" stroke-width="1"/><path d="M.5.829V6.768" transform="translate(39.992 25.603) rotate(-39)" fill="none" stroke="#c0c2cc" stroke-miterlimit="10" stroke-width="1"/><path d="M.5.829V6.768" transform="matrix(0.809, -0.588, 0.588, 0.809, 43.992, 21.561)" fill="none" stroke="#c0c2cc" stroke-miterlimit="10" stroke-width="1"/><path d="M.5.829V6.768" transform="matrix(0.848, -0.53, 0.53, 0.848, 48.992, 18.504)" fill="none" stroke="#c0c2cc" stroke-miterlimit="10" stroke-width="1"/><path d="M.5.829V6.768" transform="matrix(0.875, -0.485, 0.485, 0.875, 63.992, 10.458)" fill="none" stroke="#c0c2cc" stroke-miterlimit="10" stroke-width="1"/><path d="M.5.829V6.768" transform="matrix(0.875, -0.485, 0.485, 0.875, 58.992, 13.458)" fill="none" stroke="#c0c2cc" stroke-miterlimit="10" stroke-width="1"/><path d="M.5.829V6.768" transform="translate(68.992 8.396) rotate(-25)" fill="none" stroke="#c0c2cc" stroke-miterlimit="10" stroke-width="1"/><path d="M.5.829V6.768" transform="translate(73.992 6.332) rotate(-21)" fill="none" stroke="#c0c2cc" stroke-miterlimit="10" stroke-width="1"/><path d="M.5.829V6.768" transform="matrix(0.951, -0.309, 0.309, 0.951, 79.992, 5.283)" fill="none" stroke="#c0c2cc" stroke-miterlimit="10" stroke-width="1"/><path d="M.5.829V6.768" transform="translate(84.992 3.216) rotate(-14)" fill="none" stroke="#c0c2cc" stroke-miterlimit="10" stroke-width="1"/><path d="M.5.829V6.768" transform="translate(90.992 2.164) rotate(-11)" fill="none" stroke="#c0c2cc" stroke-miterlimit="10" stroke-width="1"/><path d="M.5.829V6.768" transform="translate(95.992 1.096) rotate(-7)" fill="none" stroke="#c0c2cc" stroke-miterlimit="10" stroke-width="1"/><path d="M.5.829V6.768" transform="matrix(0.998, -0.07, 0.07, 0.998, 101.992, 1.043)" fill="none" stroke="#c0c2cc" stroke-miterlimit="10" stroke-width="1"/><circle cx="10.5" cy="10.5" r="10.5" transform="translate(97.992 98.974)" fill="none" stroke="#b7b9c5" stroke-miterlimit="10" stroke-width="1" opacity="0.34"/><rect width="2" height="2" transform="translate(50.992 140.974)" fill="#343e70"/><rect width="2" height="2" transform="translate(41.992 107.974)" fill="#343e70"/><rect width="2" height="2" transform="translate(50.992 75.974)" fill="#343e70"/><rect width="2" height="2" transform="translate(74.992 51.974)" fill="#343e70"/><rect width="2" height="2" transform="translate(106.992 42.974)" fill="#343e70"/><rect width="2" height="2" transform="translate(138.992 51.974)" fill="#343e70"/><rect width="2" height="2" transform="translate(163.992 74.974)" fill="#343e70"/><rect width="2" height="2" transform="translate(172.992 107.974)" fill="#343e70"/><rect width="2" height="2" transform="translate(163.992 140.974)" fill="#343e70"/></g></svg>