<svg xmlns="http://www.w3.org/2000/svg" width="1198.501" height="385.229" viewBox="0 0 1198.501 385.229"><g transform="translate(-113.003 -3460.24)"><path d="M10.286,3.808a7.68,7.68,0,0,1,13.434,0l9.3,16.784A7.68,7.68,0,0,1,26.3,32L7.7,32A7.68,7.68,0,0,1,.979,20.6Z" transform="translate(1311.371 3578.523) rotate(115)" fill="#f2f5ff"/><path d="M10.286,3.808a7.68,7.68,0,0,1,13.434,0l9.3,16.784A7.68,7.68,0,0,1,26.3,32L7.7,32A7.68,7.68,0,0,1,.979,20.6Z" transform="translate(156.371 3802.523) rotate(115)" fill="#f2f5ff"/><path d="M10.286,3.808a7.68,7.68,0,0,1,13.434,0l9.3,16.784A7.68,7.68,0,0,1,26.3,32L7.7,32A7.68,7.68,0,0,1,.979,20.6Z" transform="matrix(-0.891, 0.454, -0.454, -0.891, 1146.822, 3698.512)" fill="none" stroke="#f2f5ff" stroke-miterlimit="10" stroke-width="3.5"/><path d="M10.286,3.808a7.68,7.68,0,0,1,13.434,0l9.3,16.784A7.68,7.68,0,0,1,26.3,32L7.7,32A7.68,7.68,0,0,1,.979,20.6Z" transform="matrix(-0.891, 0.454, -0.454, -0.891, 664.822, 3827.512)" fill="none" stroke="#f2f5ff" stroke-miterlimit="10" stroke-width="3.5"/><path d="M10.286,3.808a7.68,7.68,0,0,1,13.434,0l9.3,16.784A7.68,7.68,0,0,1,26.3,32L7.7,32A7.68,7.68,0,0,1,.979,20.6Z" transform="matrix(-0.891, 0.454, -0.454, -0.891, 312.822, 3628.512)" fill="none" stroke="#f2f5ff" stroke-miterlimit="10" stroke-width="3.5"/><path d="M10.286,3.808a7.68,7.68,0,0,1,13.434,0l9.3,16.784A7.68,7.68,0,0,1,26.3,32L7.7,32A7.68,7.68,0,0,1,.979,20.6Z" transform="matrix(-0.891, 0.454, -0.454, -0.891, 489.822, 3491.143)" fill="none" stroke="#f2f5ff" stroke-miterlimit="10" stroke-width="3.5"/></g></svg>