<?xml version="1.0" encoding="UTF-8"?>
<svg width="40px" height="40px" viewBox="0 0 40 40" version="1.1" xmlns="http://www.w3.org/2000/svg" xmlns:xlink="http://www.w3.org/1999/xlink">
    <!-- Generator: Sketch 54.1 (76490) - https://sketchapp.com -->
    <title>rubl and bag</title>
    <desc>Created with Sketch.</desc>
    <g id="rubl-and-bag" stroke="none" stroke-width="1" fill="none" fill-rule="evenodd">
        <g id="ruble-and-bag" transform="translate(6.000000, 5.000000)" fill="#000000" stroke="#000000">
            <g id="money-bag" fill-rule="nonzero" stroke-width="0.01">
                <path d="M26.333494,17.704158 C25.4833735,15.8351351 24.3093976,14.0241164 22.8250602,12.329106 C21.0303614,10.266736 19.2424096,8.88752599 18.3315663,8.24948025 L21.7725301,2.15259875 C21.9412048,1.84968815 21.8872289,1.47588358 21.6240964,1.23742204 C20.733494,0.406029106 19.7889157,0 18.7363855,0 C17.7715663,0 16.8877108,0.348024948 16.1185542,0.657380457 C15.5113253,0.895841996 14.9378313,1.12785863 14.4722892,1.12785863 C14.3306024,1.12785863 14.2091566,1.10852391 14.0877108,1.06340956 C12.4819277,0.502702703 11.2472289,0.154677755 10.053012,0.154677755 C8.54168675,0.154677755 7.25301205,0.734719335 5.9913253,1.97214137 C5.72819277,2.22993763 5.68771084,2.63596674 5.89686747,2.93887734 L9.60771084,8.29459459 C8.69012048,8.94553015 6.93590361,10.3118503 5.17493976,12.329106 C3.6973494,14.0241164 2.51662651,15.8351351 1.66650602,17.704158 C0.600481928,20.0565489 0.0607228916,22.5120582 0.0607228916,24.9997921 C0.0607228916,28.3060291 2.88096386,31 6.34216867,31 L21.6578313,31 C25.1190361,31 27.9392771,28.3060291 27.9392771,24.9997921 C27.9392771,22.5120582 27.3995181,20.0565489 26.333494,17.704158 Z M7.62409639,2.61663202 C8.40674699,1.97214137 9.15566265,1.68856549 10.053012,1.68856549 C11.0110843,1.68856549 12.0906024,1.997921 13.5277108,2.50706861 C13.8245783,2.61018711 14.1416867,2.66174636 14.4655422,2.66174636 C15.2549398,2.66174636 16.0106024,2.36528067 16.7325301,2.07525988 C17.4274699,1.7981289 18.0886747,1.53388773 18.7296386,1.53388773 C19.04,1.53388773 19.4785542,1.58544699 20.0318072,1.95925156 L16.793253,7.70810811 L11.1527711,7.70810811 L7.62409639,2.61663202 Z M21.6578313,29.4532225 L6.34216867,29.4532225 C3.77156627,29.4532225 1.68,27.4553015 1.68,24.9997921 C1.68,20.8686071 3.26554217,16.950104 6.3826506,13.3538462 C8.35277108,11.0787942 10.3566265,9.66735967 10.9638554,9.25488565 L17.0226506,9.25488565 C17.6366265,9.66091476 19.6337349,11.0787942 21.6038554,13.3538462 C24.7277108,16.950104 26.306506,20.8621622 26.306506,24.9997921 C26.32,27.4553015 24.2284337,29.4532225 21.6578313,29.4532225 Z" id="Shape"></path>
            </g>
            <path d="M12,15 L16,15 C17.1028,15 18,15.8972 18,17 C18,18.10455 17.1048,19 16,19 L12,19 L12,15 Z M16,20 C17.6573,20 19,18.65755 19,17 C19,15.3458 17.6542,14 16,14 L11.5,14 C11.2239,14 11,14.22385 11,14.5 L11,19 L10.5,19 C10.2239,19 10,19.22385 10,19.5 C10,19.77615 10.2239,20 10.5,20 L11,20 L11,22 L10.5,22 C10.2239,22 10,22.22385 10,22.5 C10,22.77615 10.2239,23 10.5,23 L11,23 L11,25.5 C11,25.77615 11.2239,26 11.5,26 C11.7761,26 12,25.77615 12,25.5 L12,23 L15.5,23 C15.7761,23 16,22.77615 16,22.5 C16,22.22385 15.7761,22 15.5,22 L12,22 L12,20 L16,20 Z" id="Fill-3" stroke-width="0.4"></path>
        </g>
    </g>
</svg>