<?xml version="1.0" encoding="UTF-8"?>
<svg width="40px" height="40px" viewBox="0 0 40 40" version="1.1" xmlns="http://www.w3.org/2000/svg" xmlns:xlink="http://www.w3.org/1999/xlink">
    <!-- Generator: Sketch 54.1 (76490) - https://sketchapp.com -->
    <title>92%</title>
    <desc>Created with Sketch.</desc>
    <defs>
        <polygon id="path-1" points="0 0 38 0 38 36.9999928 0 36.9999928"></polygon>
    </defs>
    <g id="92%" stroke="none" stroke-width="1" fill="none" fill-rule="evenodd">
        <g id="92-copy" transform="translate(1.000000, 1.000000)">
            <g id="Group-10-Copy">
                <path d="M19.974359,5.84210526 C20.2364615,5.84210526 20.4503333,5.63471053 20.4610513,5.37522368 C20.4615385,5.36889474 20.4615385,5.36207895 20.4615385,5.35526316 C20.4615385,5.08652632 20.2432821,4.86842105 19.974359,4.86842105 C19.7054359,4.86842105 19.4871795,5.08652632 19.4871795,5.35526316 C19.4871795,5.36207895 19.4871795,5.36889474 19.4876667,5.37522368 C19.4983846,5.63471053 19.7122564,5.84210526 19.974359,5.84210526" id="Fill-1" fill="#000000"></path>
                <g id="Group-7">
                    <mask id="mask-2" fill="white">
                        <use xlink:href="#path-1"></use>
                    </mask>
                    <g id="Clip-6"></g>
                    <path d="M19,1.44530527 C28.3307813,1.44530527 36.515625,9.4147584 36.515625,18.4999928 C36.515625,27.5852271 28.3307813,35.5546803 19,35.5546803 C9.66921875,35.5546803 1.484375,27.5852271 1.484375,18.4999928 C1.484375,9.4147584 9.66921875,1.44530527 19,1.44530527 M38,18.4999928 C38,8.55327988 29.2506484,-7.2265625e-06 19,-7.2265625e-06 C8.76879687,-7.2265625e-06 0,8.53427402 0,18.4999928 C0,28.4610143 8.7649375,36.9999928 19,36.9999928 C29.2312031,36.9999928 38,28.4657115 38,18.4999928 Z" id="Fill-5" fill="#000000" mask="url(#mask-2)"></path>
                </g>
                <path d="M33.1282051,18.3347858 C33.1282051,12.0674517 28.3099826,6.34213456 22.037492,4.88769915 C21.6501197,4.79773843 21.2615941,5.03165039 21.1696166,5.40993593 C21.0777111,5.78822147 21.3170977,6.16756289 21.704398,6.25745322 C27.3951813,7.57694754 31.6865515,12.7691172 31.6865515,18.3347858 C31.6865515,24.93451 25.7582558,30.7237429 19,30.7237429 C12.2417442,30.7237429 6.31344846,24.93451 6.31344846,18.3347858 C6.31344846,12.7691172 10.6048187,7.57694754 16.295602,6.25745322 C16.6829023,6.16756289 16.9222889,5.78822147 16.8303834,5.40993593 C16.7384059,5.03157999 16.3497361,4.79766804 15.962508,4.88769915 C9.69491902,6.34100829 4.87179487,12.0623835 4.87179487,18.3347858 C4.87179487,25.6695412 11.4384549,32.1315789 19,32.1315789 C26.5110152,32.1315789 33.1282051,25.7188858 33.1282051,18.3347858 Z" id="Fill-8" fill="#000000"></path>
            </g>
            <path d="M12.2854235,19.0633575 C11.906394,19.461078 11.4636818,19.6599353 10.9572736,19.6599353 C10.3607682,19.6599353 9.88543504,19.4525996 9.53125996,19.037922 C9.17708488,18.6232444 9,18.0783138 9,17.4031139 C9,16.9591468 9.09009582,16.5568077 9.27029016,16.1960845 C9.4504845,15.8353612 9.70679157,15.5548029 10.0392191,15.3544011 C10.3716465,15.1539993 10.7568838,15.0537999 11.1949425,15.0537999 C11.8784383,15.0537999 12.4205665,15.3066107 12.8213436,15.8122399 C13.2221207,16.317869 13.4225062,16.9946004 13.4225062,17.8424541 L13.4225062,18.1569292 C13.4225062,19.3716725 13.1460052,20.2981315 12.592995,20.9363342 C12.0399848,21.5745369 11.2151421,21.898258 10.118442,21.9075073 L9.98329695,21.9075073 L9.98329695,20.9779559 L10.1464031,20.9779559 C10.8143649,20.9687066 11.326979,20.8091583 11.6842609,20.4993063 C12.0415428,20.1894543 12.2419283,19.7108095 12.2854235,19.0633575 Z M11.1949425,18.7812548 C11.4217388,18.7812548 11.6345513,18.7165106 11.8333865,18.5870202 C12.0322216,18.4575298 12.1860058,18.2787124 12.2947438,18.0505627 L12.2947438,17.6112224 C12.2947438,17.1148426 12.192221,16.7155865 11.9871723,16.4134423 C11.7821235,16.111298 11.5164962,15.9602281 11.1902823,15.9602281 C10.8640684,15.9602281 10.6038779,16.0935704 10.409703,16.360259 C10.215528,16.6269475 10.118442,16.9637717 10.118442,17.3707415 C10.118442,17.7931268 10.2163047,18.1338048 10.4120331,18.3927856 C10.6077614,18.6517664 10.8687286,18.7812548 11.1949425,18.7812548 Z M19.0613181,21.8797595 L14.4990066,21.8797595 L14.4990066,21.1074457 L16.7591916,18.6610143 C17.0854055,18.3002911 17.3176352,17.9989221 17.4558878,17.7568984 C17.5941403,17.5148747 17.6632656,17.2720838 17.6632656,17.0285186 C17.6632656,16.7078757 17.5723931,16.4488988 17.3906453,16.2515801 C17.2088976,16.0542614 16.9642408,15.9556035 16.6566677,15.9556035 C16.2900655,15.9556035 16.0057976,16.0665936 15.8038557,16.2885772 C15.6019137,16.5105607 15.5009443,16.8142419 15.5009443,17.19963 L14.3685217,17.19963 C14.3685217,16.7895771 14.462501,16.4203809 14.6504623,16.0920302 C14.8384237,15.7636796 15.1071578,15.5085565 15.4566726,15.3266533 C15.8061875,15.1447501 16.2092886,15.0537999 16.6659881,15.0537999 C17.3246295,15.0537999 17.8442338,15.2179728 18.2248167,15.5463234 C18.6053995,15.8746741 18.7956881,16.3286544 18.7956881,16.9082781 C18.7956881,17.2443365 18.7001555,17.5965759 18.5090873,17.9650069 C18.3180192,18.3334379 18.0050139,18.7519631 17.5700621,19.220595 L15.9110397,20.9825805 L19.0613181,20.9825805 L19.0613181,21.8797595 Z M20.0152559,14.8096192 C20.0152559,14.2805585 20.186904,13.8466951 20.5302053,13.508016 C20.8735066,13.169337 21.3238303,13 21.8811901,13 C22.4466275,13 22.8999803,13.169337 23.2412622,13.508016 C23.582544,13.8466951 23.7531824,14.2905784 23.7531824,14.8396794 L23.7531824,15.2725451 C23.7531824,15.7975978 23.582544,16.2284552 23.2412622,16.5651303 C22.8999803,16.9018053 22.4506662,17.0701403 21.8933065,17.0701403 C21.3480633,17.0701403 20.8987492,16.9048113 20.5453509,16.5741483 C20.1919525,16.2434853 20.0152559,15.797598 20.0152559,15.2364729 L20.0152559,14.8096192 Z M21.0451546,15.2725451 C21.0451546,15.5490996 21.1229011,15.7725442 21.2783964,15.9428858 C21.4338917,16.1132273 21.6388597,16.1983968 21.8933065,16.1983968 C22.1437145,16.1983968 22.3456534,16.1132273 22.4991293,15.9428858 C22.6526052,15.7725442 22.7293419,15.5410836 22.7293419,15.248497 L22.7293419,14.8096192 C22.7293419,14.5330647 22.6515955,14.3086181 22.4961002,14.1362725 C22.3406049,13.963927 22.1356369,13.8777555 21.8811901,13.8777555 C21.6267432,13.8777555 21.4237946,13.964929 21.2723382,14.1392786 C21.1208817,14.3136281 21.0451546,14.5430847 21.0451546,14.8276553 L21.0451546,15.2725451 Z M24.2560153,19.7334669 C24.2560153,19.1963901 24.4317022,18.7615247 24.7830811,18.4288577 C25.1344601,18.0961907 25.5827644,17.9298597 26.1280077,17.9298597 C26.6772897,17.9298597 27.1266038,18.0961907 27.4759633,18.4288577 C27.8253228,18.7615247 28,19.210418 28,19.7755511 L28,20.2024048 C28,20.7234495 27.831381,21.1533049 27.494138,21.491984 C27.156895,21.830663 26.7055615,22 26.1401241,22 C25.5746867,22 25.1193145,21.832667 24.7739938,21.497996 C24.4286731,21.163325 24.2560153,20.7214456 24.2560153,20.1723447 L24.2560153,19.7334669 Z M25.285914,20.2024048 C25.285914,20.4749513 25.3656799,20.6983959 25.525214,20.8727455 C25.6847481,21.0470951 25.8897161,21.1342685 26.1401241,21.1342685 C26.3986098,21.1342685 26.6015584,21.051103 26.748976,20.8847695 C26.8963936,20.718436 26.9701013,20.4849714 26.9701013,20.1843687 L26.9701013,19.7334669 C26.9701013,19.4529044 26.8913451,19.2284578 26.7338304,19.0601202 C26.5763157,18.8917827 26.3743768,18.8076152 26.1280077,18.8076152 C25.8775997,18.8076152 25.6746511,18.8917827 25.5191558,19.0601202 C25.3636605,19.2284578 25.285914,19.4609204 25.285914,19.757515 L25.285914,20.2024048 Z M22.1962179,21.2244489 L21.4389394,20.7915832 L25.7463393,13.9498998 L26.5036178,14.3827655 L22.1962179,21.2244489 Z" id="92%" fill="#000000" fill-rule="nonzero"></path>
        </g>
    </g>
</svg>