<?xml version="1.0" encoding="UTF-8"?>
<svg width="40px" height="40px" viewBox="0 0 40 40" version="1.1" xmlns="http://www.w3.org/2000/svg" xmlns:xlink="http://www.w3.org/1999/xlink">
    <!-- Generator: Sketch 54.1 (76490) - https://sketchapp.com -->
    <title>document copy</title>
    <desc>Created with Sketch.</desc>
    <defs>
        <circle id="path-1" cx="28.5" cy="28.5" r="9.5"></circle>
        <filter x="-76.3%" y="-65.8%" width="252.6%" height="252.6%" filterUnits="objectBoundingBox" id="filter-2">
            <feOffset dx="0" dy="2" in="SourceAlpha" result="shadowOffsetOuter1"></feOffset>
            <feGaussianBlur stdDeviation="4.5" in="shadowOffsetOuter1" result="shadowBlurOuter1"></feGaussianBlur>
            <feColorMatrix values="0 0 0 0 0.905740489   0 0 0 0 0.905740489   0 0 0 0 0.905740489  0 0 0 0.841919799 0" type="matrix" in="shadowBlurOuter1"></feColorMatrix>
        </filter>
    </defs>
    <g id="document-copy" stroke="none" stroke-width="1" fill="none" fill-rule="evenodd">
        <g id="doc" transform="translate(1.000000, 1.000000)">
            <g id="Group-31-Copy" fill="#FFFFFF">
                <path d="M0,0 L0,32 L25,32 L25,7.7792 L17.2414894,0 L0,0 Z M1.06382979,1.06666667 L16.4893617,1.06666667 L16.4893617,8.53333333 L23.9361702,8.53333333 L23.9361702,30.9338667 L1.06382979,30.9338667 L1.06382979,1.06666667 Z M17.5531915,1.82133333 L23.1840426,7.46666667 L17.5531915,7.46666667 L17.5531915,1.82133333 Z" id="Fill-1"></path>
                <g id="Group-30" transform="translate(4.629630, 7.529412)">
                    <path d="M0.542784163,1.05877059 L5.42784163,1.05877059 C5.72745849,1.05877059 5.9706258,0.822123529 5.9706258,0.529358824 C5.9706258,0.236594118 5.72745849,-5.29411765e-05 5.42784163,-5.29411765e-05 L0.542784163,-5.29411765e-05 C0.243167305,-5.29411765e-05 0,0.236594118 0,0.529358824 C0,0.822123529 0.243167305,1.05877059 0.542784163,1.05877059" id="Fill-2"></path>
                    <path d="M9.77011494,11.6472706 L0.542784163,11.6472706 C0.243167305,11.6472706 0,11.8833882 0,12.1766824 C0,12.4694471 0.243167305,12.7060941 0.542784163,12.7060941 L9.77011494,12.7060941 C10.0697318,12.7060941 10.3128991,12.4694471 10.3128991,12.1766824 C10.3128991,11.8833882 10.0697318,11.6472706 9.77011494,11.6472706" id="Fill-4"></path>
                    <path d="M15.1979566,7.94112353 L11.3984674,7.94112353 C11.0988506,7.94112353 10.8556833,8.17777059 10.8556833,8.47053529 C10.8556833,8.7633 11.0988506,8.99994706 11.3984674,8.99994706 L15.1979566,8.99994706 C15.4975734,8.99994706 15.7407407,8.7633 15.7407407,8.47053529 C15.7407407,8.17777059 15.4975734,7.94112353 15.1979566,7.94112353" id="Fill-6"></path>
                    <path d="M0.542784163,5.29406471 L3.25670498,5.29406471 C3.55632184,5.29406471 3.79948914,5.05741765 3.79948914,4.76465294 C3.79948914,4.47188824 3.55632184,4.23524118 3.25670498,4.23524118 L0.542784163,4.23524118 C0.243167305,4.23524118 0,4.47188824 0,4.76465294 C0,5.05741765 0.243167305,5.29406471 0.542784163,5.29406471" id="Fill-8"></path>
                    <path d="M8.68454662,5.29406471 L12.4840358,5.29406471 C12.7836526,5.29406471 13.0268199,5.05741765 13.0268199,4.76465294 C13.0268199,4.47188824 12.7836526,4.23524118 12.4840358,4.23524118 L8.68454662,4.23524118 C8.38492976,4.23524118 8.14176245,4.47188824 8.14176245,4.76465294 C8.14176245,5.05741765 8.38492976,5.29406471 8.68454662,5.29406471" id="Fill-10"></path>
                    <path d="M5.42784163,4.76465294 C5.42784163,4.9023 5.48754789,5.03994706 5.58524904,5.14053529 C5.68837803,5.23582941 5.82950192,5.29406471 5.9706258,5.29406471 C6.11174968,5.29406471 6.25287356,5.23582941 6.35600255,5.14053529 C6.4537037,5.03994706 6.51340996,4.9023 6.51340996,4.76465294 C6.51340996,4.62647647 6.4537037,4.48882941 6.35600255,4.38877059 C6.15517241,4.19288824 5.79150702,4.19288824 5.58524904,4.38877059 C5.48754789,4.48882941 5.42784163,4.62647647 5.42784163,4.76465294" id="Fill-12"></path>
                    <path d="M3.25670498,7.94112353 C2.95708812,7.94112353 2.71392082,8.17777059 2.71392082,8.47053529 C2.71392082,8.7633 2.95708812,8.99994706 3.25670498,8.99994706 L8.68454662,8.99994706 C8.98416347,8.99994706 9.22733078,8.7633 9.22733078,8.47053529 C9.22733078,8.17777059 8.98416347,7.94112353 8.68454662,7.94112353 L3.25670498,7.94112353 Z" id="Fill-14"></path>
                    <path d="M0.542784163,9.00021176 C0.683908046,9.00021176 0.825031928,8.94197647 0.92816092,8.84668235 C1.02586207,8.74609412 1.08556833,8.60844706 1.08556833,8.4708 C1.08556833,8.33262353 1.02586207,8.19497647 0.92816092,8.09491765 C0.727330779,7.89850588 0.358237548,7.89850588 0.157407407,8.09491765 C0.059706258,8.19497647 0,8.32732941 0,8.4708 C0,8.60844706 0.059706258,8.74609412 0.157407407,8.84668235 C0.260536398,8.94197647 0.401660281,9.00021176 0.542784163,9.00021176" id="Fill-16"></path>
                    <path d="M15.1979566,15.3531529 L11.3984674,15.3531529 C11.0988506,15.3531529 10.8556833,15.5892706 10.8556833,15.8825647 C10.8556833,16.1753294 11.0988506,16.4119765 11.3984674,16.4119765 L15.1979566,16.4119765 C15.4975734,16.4119765 15.7407407,16.1753294 15.7407407,15.8825647 C15.7407407,15.5892706 15.4975734,15.3531529 15.1979566,15.3531529" id="Fill-18"></path>
                    <path d="M8.68454662,15.3531529 L3.25670498,15.3531529 C2.95708812,15.3531529 2.71392082,15.5892706 2.71392082,15.8825647 C2.71392082,16.1753294 2.95708812,16.4119765 3.25670498,16.4119765 L8.68454662,16.4119765 C8.98416347,16.4119765 9.22733078,16.1753294 9.22733078,15.8825647 C9.22733078,15.5892706 8.98416347,15.3531529 8.68454662,15.3531529" id="Fill-20"></path>
                    <path d="M0.157407407,15.5066824 C0.059706258,15.6019765 1.77635684e-15,15.7385647 1.77635684e-15,15.8825647 C1.77635684e-15,16.0249765 0.0542784163,16.1573294 0.157407407,16.2584471 C0.260536398,16.3537412 0.401660281,16.4119765 0.542784163,16.4119765 C0.689335888,16.4119765 0.825031928,16.3537412 0.92816092,16.2584471 C1.02586207,16.1573294 1.08556833,16.0202118 1.08556833,15.8825647 C1.08556833,15.7385647 1.02586207,15.6062118 0.92816092,15.5119765 C0.727330779,15.3108 0.36366539,15.3108 0.157407407,15.5066824" id="Fill-22"></path>
                    <path d="M14.8125798,4.38877059 C14.7148787,4.48882941 14.6551724,4.62647647 14.6551724,4.76465294 C14.6551724,4.9023 14.7148787,5.03994706 14.8125798,5.14053529 C14.9157088,5.23582941 15.0568327,5.29406471 15.1979566,5.29406471 C15.3390805,5.29406471 15.4796616,5.23582941 15.5833333,5.14053529 C15.6864623,5.03994706 15.7407407,4.9023 15.7407407,4.76465294 C15.7407407,4.62647647 15.6864623,4.48882941 15.5833333,4.38877059 C15.3770754,4.19288824 15.0188378,4.19288824 14.8125798,4.38877059" id="Fill-24"></path>
                    <path d="M12.8694125,12.5525118 C12.9671137,12.4519235 13.0268199,12.3142765 13.0268199,12.1766294 C13.0268199,12.0379235 12.9671137,11.9008059 12.8694125,11.8007471 C12.6631545,11.6048647 12.2994891,11.6048647 12.098659,11.8007471 C12.0009579,11.9008059 11.9412516,12.0379235 11.9412516,12.1766294 C11.9412516,12.3142765 12.0009579,12.4519235 12.098659,12.5525118 C12.2023308,12.6520412 12.3380268,12.7060412 12.4840358,12.7060412 C12.6305875,12.7060412 12.7662835,12.6478059 12.8694125,12.5525118" id="Fill-26"></path>
                    <path d="M14.8125798,11.8008 C14.7148787,11.9003294 14.6551724,12.0379765 14.6551724,12.1766824 C14.6551724,12.3143294 14.7148787,12.4514471 14.8125798,12.5525647 C14.9157088,12.6478588 15.0514049,12.7060941 15.1979566,12.7060941 C15.3439655,12.7060941 15.4796616,12.6478588 15.5833333,12.5525647 C15.6810345,12.4514471 15.7407407,12.3143294 15.7407407,12.1766824 C15.7407407,12.0379765 15.6810345,11.9003294 15.5833333,11.8008 C15.3825032,11.6049176 15.01341,11.6049176 14.8125798,11.8008" id="Fill-28"></path>
                </g>
            </g>
            <g id="Oval">
                <use fill="black" fill-opacity="1" filter="url(#filter-2)" xlink:href="#path-1"></use>
                <use fill="#FFFFFF" fill-rule="evenodd" xlink:href="#path-1"></use>
            </g>
            <g id="Group-18" transform="translate(23.000000, 23.000000)" stroke="#DA0B0B" stroke-width="2">
                <path d="M0,0 L11,11" id="Path-2-Copy-4"></path>
                <path d="M1.26121336e-13,1.90487626e-11 L11,11" id="Path-2-Copy-5" transform="translate(5.500000, 5.500000) rotate(-270.000000) translate(-5.500000, -5.500000) "></path>
            </g>
        </g>
    </g>
</svg>