<?xml version="1.0" encoding="UTF-8"?>
<svg width="40px" height="40px" viewBox="0 0 40 40" version="1.1" xmlns="http://www.w3.org/2000/svg" xmlns:xlink="http://www.w3.org/1999/xlink">
    <!-- Generator: Sketch 54.1 (76490) - https://sketchapp.com -->
    <title>map</title>
    <desc>Created with Sketch.</desc>
    <g id="map" stroke="none" stroke-width="1" fill="none" fill-rule="evenodd">
        <g transform="translate(2.000000, 8.000000)" fill="#000000">
            <path d="M36.576795,9.70430962 C36.1977624,9.11385638 35.6447466,8.64902537 35.2409573,8.30967287 C35.1220425,8.20970689 34.9591689,8.07287352 34.9195992,8.02673538 C34.8193376,7.90082568 34.7222307,7.7836118 34.6305415,7.67315335 C34.4088962,7.40595457 34.1576252,7.103182 34.1345143,6.96627676 C34.1284794,6.93063109 34.1834106,6.76677601 34.5055231,6.44251541 C35.5470225,5.39420219 34.7625548,4.04045734 34.2938218,3.23160252 C34.1770328,3.02994578 34.0088101,2.73960607 33.952233,2.58286574 C34.0716279,2.34031709 34.2226374,1.94756795 34.0945331,1.50357816 C33.9330997,0.944386746 33.414373,0.599069339 32.9284954,0.335248277 C32.8644433,0.30053687 32.8079347,0.265034935 32.7532777,0.230826592 C32.5474741,0.101970378 32.1644641,-0.138278549 31.6951138,0.103695168 C31.4281383,0.241247201 31.2155454,0.491413672 30.8402161,1.00015497 C30.7710206,1.09401231 30.6185709,1.23458273 30.4572746,1.38341776 C30.3469321,1.48532413 30.2218452,1.60074135 30.095181,1.72686665 C29.8206618,2.00031779 29.8095521,2.45523125 30.0705613,2.74298378 C30.3314334,3.03073631 30.7656029,3.04237864 31.0401906,2.76885564 C31.1479958,2.66148744 31.2577897,2.56022787 31.363949,2.46220228 C31.5757875,2.2665823 31.7759677,2.08195787 31.9253999,1.87943873 C32.0363597,1.7290945 32.1189966,1.62165444 32.18058,1.54511686 C32.2162407,1.56624554 32.255056,1.58852409 32.2973689,1.61152129 C32.5500801,1.74871399 32.6793503,1.84602092 32.7426481,1.9025078 C32.7306469,1.92837966 32.7141195,1.96186934 32.6914887,2.00484536 C32.3515458,2.64898271 32.742991,3.32445374 33.1214063,3.97771809 C33.3254955,4.32971906 33.5363739,4.69386543 33.6166792,4.99972826 C33.6882064,5.27217327 33.6177078,5.34310528 33.5553701,5.40577266 C32.1258544,6.8447509 32.9407024,7.82709089 33.5954199,8.61632622 C33.6814171,8.71995738 33.7725577,8.8298409 33.8666472,8.94784531 C33.9854935,9.09703968 34.1522075,9.23710703 34.3827679,9.43100221 C35.271749,10.1781958 35.7646902,10.7305599 35.5883067,11.2493625 C35.1773852,11.1947441 34.2455426,10.7538446 33.8723392,10.4170074 C33.4535313,10.038919 32.335567,9.31199168 31.0060386,10.7269666 C29.9630991,11.8370129 29.516174,13.1418168 29.8104437,14.2173674 C29.9779806,14.8298117 30.3874619,15.273011 30.9055713,15.4028014 C31.4587928,15.5412159 32.054533,15.3070756 32.539519,14.759814 C32.6339514,14.6533082 33.0315687,14.5847477 33.3058821,14.7741153 C33.7372399,15.0717854 33.4581946,15.8751784 33.3182948,16.2067694 C32.9664193,17.040418 33.2824969,17.7018751 33.513263,18.1848165 C33.7611737,18.7036909 33.9250074,19.0463493 33.5553015,19.7474047 C33.2445045,20.3366362 32.9708083,20.5012099 32.8566939,20.5337654 C32.9906274,20.1295895 32.9323358,19.8100002 32.8758958,19.5002566 C32.8442126,19.3261965 32.8082776,19.1288517 32.7910644,18.8513042 C32.7686393,18.4879484 32.5782658,18.1885535 32.2688403,18.0300884 C31.6231066,17.6992161 30.6555347,18.1429903 30.3760779,18.3419161 C30.3681228,18.3476654 30.3469321,18.3627573 30.2810969,18.3484559 C30.1700685,18.3243089 30.0644579,18.2448967 30.0167273,18.1914282 C29.9254496,17.6020529 29.4859995,17.1552603 28.8973915,17.0655712 C28.2083163,16.9610058 27.5461238,17.3597199 27.2874462,18.036197 C27.0030518,18.779941 27.0263685,19.368382 27.0613434,19.7543757 C27.0465305,19.7545913 27.0311689,19.7546632 27.0148473,19.7546632 C26.1994507,19.7546632 25.833791,20.1084608 25.6281245,20.4765598 C25.1854513,20.376522 24.7133579,20.4739008 24.2927669,20.5608589 C24.2366013,20.5724294 24.1698059,20.5862277 24.104245,20.5987325 C23.7296701,19.5726978 23.0045912,19.2358606 22.4029534,19.2774712 C21.6145081,19.3324489 20.9588991,19.9975711 20.8777709,20.8245363 C20.8506825,21.1022275 20.787659,21.1991032 20.7709258,21.2204475 C20.7515867,21.2226035 20.7138687,21.2163511 20.6921979,21.2071523 C19.6548818,20.6125308 18.9844599,21.127237 18.6238749,21.4041377 C18.5505647,21.460409 18.4413879,21.5442769 18.3947547,21.5613811 C17.9413832,21.4928207 17.5504866,21.295404 17.1281811,20.9219869 C16.8387119,20.6658556 16.4060511,20.704304 16.1617065,21.0076515 C15.9174304,21.3110709 15.9540512,21.7644033 16.2435204,22.0205347 C16.8679263,22.5728269 17.4926065,22.8794803 18.2093188,22.9856986 C18.2754283,22.9955443 18.3391376,23 18.4006524,23 C18.8664365,23 19.2028819,22.7415689 19.4347453,22.563628 C19.7251746,22.3404114 19.7625498,22.3117368 20.0368632,22.4699144 C20.3558211,22.6538202 20.9064367,22.7706029 21.4088416,22.494852 C21.7387035,22.3136053 22.1510651,21.9022428 22.2422743,20.971359 C22.2556471,20.8340945 22.3884833,20.7191085 22.4938883,20.7117781 C22.6417432,20.698914 22.8062626,20.9703529 22.8965803,21.3654018 C22.9748968,21.7080601 23.2653261,22.0725658 23.8455675,22.0725658 L23.8553056,22.0725658 C24.074002,22.0710566 24.3089514,22.0224751 24.5576851,21.9711625 C24.8144424,21.918269 25.202253,21.8381381 25.3526453,21.8854261 C26.0285535,22.0975753 26.5086019,21.8900974 26.7798979,21.2689573 C26.7875101,21.2514219 26.7969053,21.2300776 26.8047918,21.2129734 C26.8358578,21.2044213 26.9005272,21.1922041 27.0147787,21.1922041 C27.4601951,21.1922041 27.9132922,21.1444849 28.2107165,20.7985925 C28.5092381,20.4514785 28.4675425,20.0311327 28.4370251,19.7242637 C28.406302,19.4155263 28.3716013,19.0656094 28.5606718,18.570882 C28.5747304,18.5341584 28.5941381,18.5126704 28.625547,18.4989439 C28.6414571,18.4919729 28.6570244,18.488667 28.6705344,18.4875172 C28.7511825,19.0184651 29.2123719,19.4228566 29.5955877,19.6121524 C30.1347507,19.8787043 30.7002477,19.8490954 31.1462813,19.5313747 C31.208619,19.4888298 31.339878,19.4355051 31.4671594,19.3972004 C31.4874586,19.5445262 31.5097466,19.6672019 31.528537,19.7698988 C31.5751017,20.0258865 31.5710556,20.0365945 31.5558312,20.0764084 C31.2975651,20.7512327 31.5886117,21.5251605 32.2183666,21.8385693 C32.8767188,22.1659201 33.9360485,21.9968907 34.7557655,20.4427827 C35.4747409,19.0794077 35.032342,18.1537702 34.7396496,17.5411822 C34.534326,17.1114219 34.4911217,16.9814877 34.5725242,16.7883112 C35.4403146,14.7327204 34.3999125,13.8081609 34.0603811,13.5736612 C33.2728959,13.0299929 32.1161163,13.1251439 31.5343662,13.7814985 C31.3617545,13.9761123 31.2432511,14.0068711 31.2267923,14.0056494 C31.2113622,13.9978159 31.142098,13.9257341 31.1107577,13.7375882 C31.0373103,13.2967605 31.2279581,12.5394338 31.9834172,11.7355378 C32.556115,11.1259681 32.7894185,11.3365363 32.9769803,11.5059969 C33.5092169,11.9865666 35.0387884,12.8320014 35.944434,12.6681463 C36.2673695,12.6095753 36.5278986,12.4301971 36.680554,12.162064 C37.1396175,11.3961853 37.1029281,10.5238007 36.576795,9.70430962" id="Fill-1"></path>
            <path d="M7.06370228,12.0619021 C6.76412927,11.9546243 5.8805888,11.2710487 4.94595951,9.99513861 C3.93884333,8.62015214 3.36124346,7.2229046 3.36124346,6.16169653 C3.36124346,4.13623316 5.01800216,2.47785756 7.0545211,2.46511603 C7.05763086,2.4650428 7.06066657,2.4650428 7.06370228,2.46496957 C7.06681204,2.4650428 7.06984775,2.4650428 7.0729575,2.46511603 C9.10932837,2.47785756 10.7660871,4.13615993 10.7660871,6.16169653 C10.7660871,6.90854039 10.4789531,7.82197604 9.95836537,8.77678504 C9.95762495,8.77810313 9.95688453,8.77949445 9.95614412,8.78081254 C9.73749876,9.18143835 9.47872277,9.58909398 9.18144505,9.99506538 C8.24681576,11.2710487 7.36327529,11.9546243 7.06370228,12.0619021 L7.06370228,12.0619021 Z M19.1054119,8.26412166 C19.7793401,7.63275705 20.0613652,7.42647612 20.5783248,7.58852784 C20.890559,7.68650578 20.9232855,7.75790227 20.9611208,7.84050251 C21.1436338,8.23871183 21.5348705,8.64709973 22.3613248,8.33083161 C22.8283803,8.15230378 23.1577181,8.03389545 23.345414,7.97699795 C23.505048,8.07072872 23.7209538,8.14666529 24.0560669,8.1741987 C25.6112403,8.30139429 26.0008481,7.62645951 26.2437791,6.98337855 C26.3401815,6.72854802 26.3679472,6.68607626 26.4724942,6.6349637 C26.4932999,6.62478512 26.5181779,6.61409396 26.5460917,6.60245084 C26.9231124,6.44581793 27.1004424,6.01663352 26.941993,5.6437608 C26.7836177,5.27074162 26.3496589,5.09536256 25.9725641,5.25206869 C25.9111094,5.27762497 25.8593542,5.30076476 25.8148551,5.32258645 C25.1713581,5.63768294 24.9742589,6.15906036 24.8566065,6.47064194 C24.8295072,6.54225811 24.7893026,6.64865718 24.765239,6.68285426 C24.7396946,6.69493675 24.5983488,6.74897839 24.1784579,6.7144884 C24.1382533,6.71119318 24.1098953,6.70716568 24.0912367,6.70394369 C23.6269208,6.31913494 23.1992555,6.44318175 22.090554,6.86416472 C21.8945654,6.61079873 21.5830717,6.36695228 21.0260554,6.19215903 C19.630368,5.75426059 18.7382387,6.5902219 18.0868192,7.20057032 C17.274729,7.96147379 16.688022,8.51111689 15.1090813,7.70210317 C14.7557539,7.52108562 14.3697742,7.543127 14.0500618,7.76273526 C13.8655497,7.88941826 13.7417518,8.0547652 13.6324662,8.20063371 C13.4683896,8.41965616 13.4133025,8.47135454 13.3373357,8.47750562 C13.1839952,8.48995424 13.0579761,8.53367085 12.9592044,8.57958429 C12.9272924,8.54707143 12.8884945,8.50496581 12.8425145,8.45085093 C12.5825539,8.14490784 12.2401847,8.08054116 11.8798234,8.11136979 C12.1012083,7.48725467 12.2469965,6.82454883 12.2469965,6.16155008 C12.2469965,3.34105937 9.94237235,1.03059587 7.10509163,1.00049951 C7.09591045,1.00013337 7.08672927,1.00006014 7.07754809,1.00006014 L7.06481291,1.00013337 C7.04504376,0.999840462 7.0343077,1.00006014 7.02223889,1.00049951 C4.18481009,1.03059587 1.88018589,3.34105937 1.88018589,6.16155008 C1.88018589,7.40604574 2.39403579,8.64922332 2.95697539,9.63837586 C2.23884424,9.98884107 2.247285,10.7398589 2.25217176,11.1541049 C2.25853935,11.6942285 2.24195399,11.8424403 1.80022078,12.011595 C1.58727664,12.0930969 1.42416262,12.2673043 1.35841352,12.4836173 C1.23157997,12.9002799 1.20981169,13.2528687 1.51545612,13.6184919 C1.51752929,13.6209084 1.51982459,13.6235446 1.52204584,13.626254 C1.53404061,13.6603047 1.57535592,13.8066858 1.57535592,14.2059203 C1.57535592,14.6280749 1.65450657,15.0142017 1.71803441,15.3244652 C1.75912759,15.5247415 1.82058227,15.8242406 1.79792548,15.9222186 C1.76601348,15.9493126 1.5854256,16.0763617 0.931858873,16.1572045 C0.636284119,16.1936717 0.381654464,16.3388811 0.215134518,16.566105 C-0.109686737,17.0091294 0.00159804698,17.5760541 0.109180742,18.1242326 C0.158862771,18.3775986 0.215282602,18.6648688 0.205805255,18.8491816 C0.162861027,19.6840445 0.81724221,19.9322113 1.06350514,20.0255027 C1.29577418,20.1135218 1.44918874,20.1717374 1.54033416,20.8025162 C1.63858759,21.4830162 2.33169262,22 3.11572095,22 C3.15718434,22 3.1989439,21.9984622 3.2407775,21.9955331 C3.94602538,21.9459584 4.76825926,21.4156472 4.78632545,20.08716 C5.02585059,20.0428576 5.42093748,19.9509575 5.70540597,19.5738376 C5.97551036,19.2156835 6.06280561,18.7286496 5.98846767,17.9944009 C5.94419069,17.5584795 6.1317385,17.3302305 6.2788595,17.3073836 C6.40139863,17.2884178 6.488916,17.4843737 6.52652923,17.6579953 C6.73836274,18.6358708 7.3879312,19.677454 8.36158051,19.7999631 C8.89208981,19.8668195 9.65627494,19.6844838 10.2918495,18.4411598 C10.2987354,18.437352 10.31036,18.4317135 10.3279819,18.4251963 C10.7113702,18.2845269 10.9068405,17.8629581 10.7644581,17.4837878 C10.6221499,17.1046176 10.1960395,16.9113711 9.81257712,17.0520405 C9.43192837,17.1918311 9.14279525,17.4394854 8.9762753,17.7683486 C8.74874494,18.2177437 8.57978161,18.3238499 8.53942885,18.3436944 C8.41644546,18.2969755 8.10021305,17.9307665 7.97471225,17.351027 C7.71704688,16.1616714 6.7962634,15.7441301 6.04962617,15.8602684 C5.20680868,15.9909056 4.38257567,16.8344826 4.51488832,18.1403426 C4.54228377,18.410917 4.53310259,18.5654263 4.52103378,18.6460494 C4.50518884,18.6489785 4.48919582,18.6518343 4.4749798,18.6543241 C4.1856986,18.7059492 3.30556405,18.8631679 3.30556405,20.0424914 C3.30556405,20.3557572 3.22619127,20.5052871 3.17621307,20.5260104 C3.12445787,20.5473927 3.04108684,20.5282072 2.99214523,20.5037493 C2.77586921,19.2041136 2.08839136,18.8526232 1.68515986,18.692988 C1.67249872,18.402862 1.61496826,18.1098801 1.56299094,17.8449442 C1.54588729,17.7578039 1.52478539,17.6500135 1.50805194,17.5502781 C2.24980242,17.4123914 2.71893109,17.1667142 3.00465829,16.7736308 C3.41151783,16.2137359 3.28298131,15.5866185 3.16954931,15.0331675 C3.11394394,14.7616412 3.05633944,14.480815 3.05633944,14.2056274 C3.05633944,13.6751698 2.99932728,13.3353957 2.89877855,13.0841533 C3.74900022,12.4915991 3.73848629,11.6018891 3.7330072,11.1366037 C3.73219274,11.0657198 3.73108211,10.9713299 3.73433995,10.8995673 C3.74574239,10.8940753 3.75581207,10.8873384 3.76706642,10.8816267 C3.79771971,10.9232197 3.82792875,10.963934 3.85710121,11.0025979 C4.17607317,11.4254116 5.82972211,13.5345004 7.06362824,13.5345004 C8.29753438,13.5345004 9.95125736,11.4254116 10.2701553,11.0025979 C10.5085698,10.6865495 10.7992578,10.2707657 11.0834301,9.78812541 C11.2253682,9.7546606 11.3619012,9.71870606 11.4885126,9.68509479 C11.6131249,9.65184966 11.7681684,9.61054954 11.8840438,9.5864578 C12.150372,9.85959513 12.4945922,10.1114233 12.916038,10.1113501 C13.1107679,10.1113501 13.3220831,10.0576014 13.5498356,9.92725703 C14.1817081,9.84260642 14.543254,9.43634211 14.7563463,9.15968989 C17.0569722,10.183186 18.2822895,9.03535016 19.1053378,8.26412166 L19.1054119,8.26412166 Z" id="Fill-3"></path>
            <path d="M7.00003333,7.33330556 C6.6323973,7.33330556 6.33335555,6.95950337 6.33335555,6.49995834 C6.33335555,6.04049663 6.6323973,5.66661112 7.00003333,5.66661112 C7.3676027,5.66661112 7.66671111,6.04049663 7.66671111,6.49995834 C7.66671111,6.95950337 7.3676027,7.33330556 7.00003333,7.33330556 M7.00003333,4 C5.89725856,4 5,5.12148988 5,6.49995834 C5,7.8784268 5.89725856,9 7.00003333,9 C8.1028081,9 9,7.8784268 9,6.49995834 C9,5.12148988 8.1028081,4 7.00003333,4" id="Fill-5"></path>
            <path d="M28.3597274,6.76833987 C28.5466683,6.92411306 28.7735964,7 28.999125,7 C29.2856343,7 29.5700442,6.8774211 29.7677816,6.64016193 L29.7682815,6.63956203 C30.1218695,6.21533504 30.0642877,5.5851435 29.6400221,5.23150437 C29.2157564,4.87826516 28.5851561,4.93565528 28.231768,5.35998225 C27.8782799,5.78420924 27.9355618,6.41460075 28.3597274,6.76833987" id="Fill-7"></path>
            <path d="M13.5240434,19.1486431 L13.5234436,19.1482432 C13.0533114,18.8591437 12.4378312,19.0057927 12.1484345,19.4758294 C11.8589379,19.946266 12.0058854,20.5621521 12.4762175,20.8515516 C12.6395592,20.9521166 12.8203946,21 12.9992307,21 C13.3348109,21 13.6626939,20.8309587 13.8515264,20.5240653 C14.1409231,20.0539286 13.9943754,19.4380426 13.5240434,19.1486431" id="Fill-9"></path>
        </g>
    </g>
</svg>