<?xml version="1.0" encoding="UTF-8"?>
<svg width="40px" height="40px" viewBox="0 0 40 40" version="1.1" xmlns="http://www.w3.org/2000/svg" xmlns:xlink="http://www.w3.org/1999/xlink">
    <!-- Generator: Sketch 54.1 (76490) - https://sketchapp.com -->
    <title>rubl</title>
    <desc>Created with Sketch.</desc>
    <defs>
        <polygon id="path-1" points="0 0 32 0 32 30.9999939 0 30.9999939"></polygon>
    </defs>
    <g id="rubl" stroke="none" stroke-width="1" fill="none" fill-rule="evenodd">
        <g id="rubl-copy" transform="translate(4.000000, 5.000000)">
            <path d="M16.5,5 C16.769,5 16.9885,4.787 16.9995,4.5205 C17,4.514 17,4.507 17,4.5 C17,4.224 16.776,4 16.5,4 C16.224,4 16,4.224 16,4.5 C16,4.507 16,4.514 16.0005,4.5205 C16.0115,4.787 16.231,5 16.5,5" id="Fill-1" fill="#000000"></path>
            <path d="M13.4444444,9.25 L18.3333333,9.25 C19.6812,9.25 20.7777778,10.3715 20.7777778,11.75 C20.7777778,13.1306875 19.6836444,14.25 18.3333333,14.25 L13.4444444,14.25 L13.4444444,9.25 Z M18.3333333,15.5 C20.3589222,15.5 22,13.8219375 22,11.75 C22,9.68225 20.3551333,8 18.3333333,8 L12.8333333,8 C12.4958778,8 12.2222222,8.2798125 12.2222222,8.625 L12.2222222,14.25 L11.6111111,14.25 C11.2736556,14.25 11,14.5298125 11,14.875 C11,15.2201875 11.2736556,15.5 11.6111111,15.5 L12.2222222,15.5 L12.2222222,18 L11.6111111,18 C11.2736556,18 11,18.2798125 11,18.625 C11,18.9701875 11.2736556,19.25 11.6111111,19.25 L12.2222222,19.25 L12.2222222,22.375 C12.2222222,22.7201875 12.4958778,23 12.8333333,23 C13.1707889,23 13.4444444,22.7201875 13.4444444,22.375 L13.4444444,19.25 L17.7222222,19.25 C18.0596778,19.25 18.3333333,18.9701875 18.3333333,18.625 C18.3333333,18.2798125 18.0596778,18 17.7222222,18 L13.4444444,18 L13.4444444,15.5 L18.3333333,15.5 Z" id="Fill-3" fill="#000000"></path>
            <g id="Group-7">
                <mask id="mask-2" fill="white">
                    <use xlink:href="#path-1"></use>
                </mask>
                <g id="Clip-6"></g>
                <path d="M16,1.21093145 C23.8575,1.21093145 30.75,7.88804082 30.75,15.4999939 C30.75,23.1119471 23.8575,29.7890564 16,29.7890564 C8.1425,29.7890564 1.25,23.1119471 1.25,15.4999939 C1.25,7.88804082 8.1425,1.21093145 16,1.21093145 M32,15.4999939 C32,7.16626152 24.632125,-6.0546875e-06 16,-6.0546875e-06 C7.38425,-6.0546875e-06 0,7.1503377 0,15.4999939 C0,23.8457146 7.381,30.9999939 16,30.9999939 C24.61575,30.9999939 32,23.8496502 32,15.4999939 Z" id="Fill-5" fill="#000000" mask="url(#mask-2)"></path>
            </g>
            <path d="M28,15.3606205 C28,10.0733135 23.9075714,5.24326796 18.5799388,4.01626357 C18.2509184,3.94037006 17.9209184,4.13770506 17.8427959,4.45683784 C17.7647347,4.77597062 17.9680612,5.09599418 18.2970204,5.1718283 C23.1305714,6.28499243 26.7755102,10.6652591 26.7755102,15.3606205 C26.7755102,20.9283414 21.7402245,25.8123082 16,25.8123082 C10.2597755,25.8123082 5.2244898,20.9283414 5.2244898,15.3606205 C5.2244898,10.6652591 8.86942857,6.28499243 13.7029796,5.1718283 C14.0319388,5.09599418 14.2352653,4.77597062 14.1572041,4.45683784 C14.0790816,4.13764567 13.7489592,3.94031068 13.4200612,4.01626357 C8.09659184,5.2423178 4,10.0690379 4,15.3606205 C4,21.5484353 9.5774898,27 16,27 C22.3795918,27 28,21.5900639 28,15.3606205 Z" id="Fill-8" fill="#000000"></path>
        </g>
    </g>
</svg>