<svg width="103" height="86" viewBox="0 0 103 86" fill="none" xmlns="http://www.w3.org/2000/svg">
<g clip-path="url(#clip0_202_14741)">
<path d="M47.1761 76.0804H43.0688" stroke="black" stroke-width="2.5" stroke-miterlimit="10" stroke-linecap="round" stroke-linejoin="round"/>
<rect x="21" y="74" width="49" height="5" fill="#7231E5"/>
<path d="M52.4685 9.12169H23.721C21.6302 9.12169 19.935 10.8168 19.935 12.9077V76.1007C19.935 78.1914 21.6302 79.8866 23.721 79.8866H66.5237C68.6148 79.8866 70.3098 78.1914 70.3098 76.1007V71.3413" stroke="black" stroke-width="2.5" stroke-miterlimit="10" stroke-linecap="round" stroke-linejoin="round"/>
<path d="M79.1654 46.3882C75.2554 42.481 70.1071 41.021 68.0665 40.5988C66.7601 40.3287 65.7266 39.2742 65.5796 37.9483C65.5666 37.8303 65.5599 37.711 65.5599 37.5906V35.0919" stroke="black" stroke-width="2.5" stroke-miterlimit="10" stroke-linecap="round" stroke-linejoin="round"/>
<path d="M56.9344 35.0932V37.5906C56.9344 37.711 56.9277 37.8302 56.9146 37.9482C56.7675 39.2742 55.7341 40.3287 54.4276 40.5989C50.948 41.3186 38.4293 45.057 38.4293 58.8038V68.3347C38.4293 69.9953 39.7753 71.3413 41.4357 71.3413H78.7997C81.7076 71.3413 84.0649 68.984 84.0649 66.0761V58.8038C84.0649 55.6055 83.3873 52.949 82.3035 50.7461" stroke="black" stroke-width="2.5" stroke-miterlimit="10" stroke-linecap="round" stroke-linejoin="round"/>
<path d="M84.065 60.184H77.9047C76.9656 60.184 76.2043 60.9453 76.2043 61.8844V71.3413" stroke="black" stroke-width="2.5" stroke-miterlimit="10" stroke-linecap="round" stroke-linejoin="round"/>
<path d="M48.9077 42.4991C51.004 47.2301 55.7378 50.5315 61.2459 50.5315C66.7544 50.5315 71.4885 47.2298 73.5846 42.4982" stroke="black" stroke-width="2.5" stroke-miterlimit="10" stroke-linecap="round" stroke-linejoin="round"/>
<path d="M46.2876 71.3413V61.8844C46.2876 60.9453 45.5263 60.184 44.5873 60.184H38.4293" stroke="black" stroke-width="2.5" stroke-miterlimit="10" stroke-linecap="round" stroke-linejoin="round"/>
<path d="M70.546 41.271C70.8538 41.2564 71.1584 41.2297 71.4584 41.1885C76.1724 40.5405 78.9085 35.4695 76.9315 31.1415C76.9192 31.1145 76.9067 31.0874 76.8941 31.0604C75.9982 29.1301 75.562 27.0185 75.5611 24.8903L75.5592 20.4253C75.5592 12.5209 69.1514 6.11313 61.2471 6.11313H61.247C53.3427 6.11313 46.9351 12.5209 46.9351 20.4253L46.9331 24.8903C46.9323 27.0185 46.496 29.1301 45.6002 31.0604C45.5876 31.0874 45.5751 31.1145 45.5628 31.1416C43.5857 35.4695 46.3219 40.5405 51.0357 41.1885C51.3358 41.2297 51.6404 41.2564 51.9483 41.271" stroke="black" stroke-width="2.5" stroke-miterlimit="10" stroke-linecap="round" stroke-linejoin="round"/>
<path d="M59.637 16.4405C60.6664 17.4856 62.072 18.074 63.5388 18.074H67.8232C69.5778 18.074 71.0002 19.4965 71.0002 21.2509V26.4897C70.9199 31.8095 66.585 36.0979 61.246 36.0979H61.2459C55.907 36.0979 51.5722 31.8095 51.4918 26.4897V19.7781C51.4918 17.1512 53.6214 15.0217 56.2483 15.0217C57.5222 15.0217 58.7431 15.5328 59.637 16.4405Z" stroke="black" stroke-width="2.5" stroke-miterlimit="10" stroke-linecap="round" stroke-linejoin="round"/>
<path d="M51.4918 20.7281H50.2149C48.4029 20.7281 46.934 22.1969 46.9336 24.0089C46.9331 25.8215 48.4025 27.2911 50.2149 27.2911H51.5393" stroke="black" stroke-width="2.5" stroke-miterlimit="10" stroke-linecap="round" stroke-linejoin="round"/>
<path d="M70.9526 27.291H72.2793C74.0918 27.291 75.5611 25.8213 75.5607 24.0088C75.5603 22.1968 74.0913 20.728 72.2793 20.728H70.9536" stroke="black" stroke-width="2.5" stroke-miterlimit="10" stroke-linecap="round" stroke-linejoin="round"/>
<path d="M19.935 71.3413H41.4359" stroke="black" stroke-width="2.5" stroke-miterlimit="10" stroke-linecap="round" stroke-linejoin="round"/>
<path d="M30.6854 17.6669H47.2016" stroke="black" stroke-width="2.5" stroke-miterlimit="10" stroke-linecap="round" stroke-linejoin="round"/>
<path d="M19.935 17.6669H25.3517" stroke="black" stroke-width="2.5" stroke-miterlimit="10" stroke-linecap="round" stroke-linejoin="round"/>
<path d="M32.3649 23.0596L30.5614 27.3591C30.5086 27.4849 30.39 27.5712 30.2539 27.5826L25.6076 27.969C25.2837 27.996 25.1525 28.3999 25.3986 28.6119L28.9304 31.6557C29.034 31.7449 29.0791 31.8842 29.0478 32.0173L27.9798 36.5556C27.9053 36.872 28.2489 37.1213 28.5266 36.953L32.5128 34.5347C32.6296 34.4637 32.7761 34.4637 32.8929 34.5347L36.8791 36.953C37.1568 37.1213 37.5004 36.872 37.4259 36.5556L36.3578 32.0173C36.3264 31.8842 36.3717 31.7449 36.4752 31.6557L40.0069 28.6119C40.2532 28.3999 40.122 27.996 39.7981 27.969L35.1517 27.5826C35.0156 27.5712 34.8971 27.4849 34.8441 27.3591L33.0408 23.0596C32.915 22.7599 32.4907 22.7599 32.3649 23.0596Z" stroke="black" stroke-width="2.5" stroke-miterlimit="10" stroke-linecap="round" stroke-linejoin="round"/>
</g>
<defs>
<clipPath id="clip0_202_14741">
<rect width="76" height="76" fill="white" transform="translate(14 5)"/>
</clipPath>
</defs>
</svg>
