<svg width="103" height="86" viewBox="0 0 103 86" fill="none" xmlns="http://www.w3.org/2000/svg">
<path d="M66.0342 62.143C64.0537 62.143 62.1113 62.2192 60.1689 62.105C59.5405 62.0669 58.8359 61.5909 58.3408 61.134C56.3223 59.2111 54.3799 57.1931 52.4185 55.2131C52.2471 55.0417 52.0757 54.7942 52.0757 54.5848C52.0566 50.3964 52.0566 46.227 52.0566 41.9814C56.7222 41.9814 61.3496 41.9814 66.0342 41.9814C66.0342 48.702 66.0342 55.4035 66.0342 62.143ZM55.5605 50.4725C54.7607 50.4725 54.0562 51.177 54.0562 51.9766C54.0562 52.7952 54.7417 53.4806 55.5605 53.4806C56.3794 53.4806 57.0649 52.7952 57.084 51.9766C57.0649 51.215 56.3413 50.4916 55.5605 50.4725Z" fill="#7231E5"/>
<path d="M59.0461 27.1316C60.6457 27.1125 61.9597 28.4071 61.9787 29.9873C61.9787 31.5675 60.6457 32.9002 59.0652 32.8811C57.5036 32.8811 56.2087 31.6056 56.1897 30.0444C56.1706 28.4262 57.4275 27.1316 59.0461 27.1316Z" fill="#7231E5"/>
<path d="M56.8462 4C57.1509 4 57.4556 4 57.7602 4C58.1221 4.30461 58.5029 4.59019 58.8457 4.93288C68.71 14.7757 78.5742 24.6185 88.4194 34.4613C88.5718 34.6136 88.7051 34.7469 88.8384 34.8992C89.2764 35.3942 89.4477 35.9463 89.1621 36.5746C88.8955 37.2028 88.3813 37.4884 87.7148 37.4884C86.7436 37.5074 85.7915 37.4884 84.8203 37.4884C83.8872 37.4884 82.9541 37.4884 82.0019 37.4884C82.0019 45.5797 82.0019 53.5948 82.0019 61.648C82.1924 61.61 82.3638 61.5719 82.5351 61.5338C85.2583 60.7723 88.1338 61.9907 89.3906 64.4276C90.6665 66.8836 90.0381 69.4918 87.6958 71.3957C85.1631 73.4518 82.6113 75.5079 80.0596 77.5641C76.4604 80.4769 72.3281 81.9429 67.7007 81.9429C60.4643 81.9429 53.228 81.9429 45.9917 81.9429C43.5161 81.9429 41.0977 81.5431 38.7363 80.7815C36.1846 79.9439 33.9375 78.4969 31.6523 77.1262C31.2524 76.8787 30.8335 76.6502 30.3955 76.4027C30.3574 76.555 30.3193 76.6312 30.3193 76.6883C30.0718 80.1914 28.1865 81.9429 24.6636 81.9429C21.1597 81.9429 17.6558 81.9239 14.1519 81.9619C13.1997 81.981 12.4761 81.7335 12 80.8767C12 69.2062 12 57.5167 12 45.8462C12.3428 45.1609 12.8188 44.7039 13.6377 44.7039C17.6938 44.723 21.769 44.6849 25.8252 44.7801C28.0532 44.8372 29.9385 46.722 30.2432 48.9114C30.3003 49.3874 30.3003 49.8633 30.3384 50.3583C31.1001 50.3583 31.8237 50.3583 32.5283 50.3583C32.5283 46.0366 32.5283 41.7911 32.5283 37.4694C32.2236 37.4694 31.938 37.4694 31.6714 37.4694C30.0527 37.4694 28.415 37.4694 26.7964 37.4694C26.1299 37.4694 25.6157 37.1648 25.3491 36.5365C25.0825 35.9273 25.2158 35.3371 25.6728 34.8421C25.7871 34.7088 25.9204 34.5946 26.0537 34.4613C30.3193 30.1967 34.604 25.9131 38.8887 21.6485C39.8599 20.6966 40.7739 20.5443 41.4595 21.2487C42.145 21.9722 42.0117 22.8289 41.0215 23.8189C37.708 27.1125 34.4136 30.4252 31.1001 33.7188C30.9097 33.9092 30.7383 34.0996 30.4717 34.4042C32.1094 34.4042 33.5757 34.3852 35.042 34.4232C35.5942 34.4423 35.9751 34.29 36.375 33.8902C42.7925 27.4552 49.229 21.0393 55.6655 14.6234C56.9795 13.3097 57.5508 13.3097 58.9028 14.6615C65.3393 21.0774 71.7568 27.5123 78.1933 33.9282C78.3838 34.1186 78.6123 34.4042 78.8408 34.4042C80.5166 34.4423 82.2114 34.4232 83.7348 34.4232C74.918 25.5704 66.063 16.6605 57.1509 7.73151C54.9419 9.93996 52.7139 12.2055 50.4668 14.433C50.2383 14.6615 49.9907 14.909 49.7241 15.0803C49.0957 15.4991 48.3721 15.442 47.8389 14.928C47.3247 14.433 47.2295 13.6905 47.6294 13.0622C47.8008 12.8147 48.0102 12.5863 48.2197 12.3769C50.6001 9.99707 52.9995 7.59824 55.3989 5.21845C55.875 4.79961 56.3701 4.41884 56.8462 4ZM30.3955 53.5187C30.3765 53.7662 30.3574 53.9375 30.3574 54.1089C30.3574 60.144 30.3574 66.1982 30.3765 72.2333C30.3765 72.5189 30.605 72.8997 30.8335 73.052C32.5664 74.1562 34.3374 75.2033 36.0894 76.2504C39.1362 78.04 42.4116 78.9348 45.9536 78.9348C53.2471 78.9348 60.5215 78.9348 67.8149 78.9348C69.9668 78.9348 72.0806 78.6112 74.0229 77.6783C75.4131 77.012 76.7651 76.2504 77.9839 75.3176C80.688 73.2614 83.2969 71.072 85.9248 68.9207C87.5244 67.607 87.2578 65.5509 85.3916 64.6561C84.2681 64.123 83.2397 64.3134 82.2495 65.0559C79.5835 67.074 76.8794 69.073 74.2324 71.091C73.3374 71.7764 72.3852 72.081 71.2617 72.081C65.3774 72.081 59.4741 72.081 53.5898 72.081C51.7427 72.081 50.0288 71.586 48.4863 70.577C47.4961 69.9297 46.4868 69.2824 45.4966 68.6351C44.9443 68.2734 44.373 67.9307 43.8398 67.5499C43.0591 66.9788 42.8877 66.1411 43.3447 65.4176C43.8018 64.7132 44.6777 64.5609 45.4966 65.0178C45.668 65.113 45.8394 65.2272 46.0107 65.3415C47.3247 66.1982 48.6577 67.0359 49.9717 67.9116C51.1333 68.6922 52.3711 69.0539 53.7612 69.0349C59.5312 69.0159 65.2822 69.0349 71.0522 69.0349C72.2139 69.0349 72.709 68.5589 72.7471 67.3976C72.7851 66.084 71.9853 65.2272 70.6714 65.2272C66.9199 65.2272 63.1494 65.1892 59.3979 65.2463C57.2651 65.2653 55.5132 64.5419 54.0278 62.9998C51.6094 60.5057 49.1147 58.0688 46.6772 55.5938C45.4394 54.3373 43.9922 53.5568 42.2402 53.5377C38.3555 53.4996 34.4326 53.5187 30.3955 53.5187ZM47.2485 52.0718C47.2485 51.6148 47.2485 51.3483 47.2485 51.0627C47.2485 47.6929 47.2485 44.3041 47.2485 40.9343C47.2485 39.3732 47.7436 38.8782 49.3052 38.8782C54.6182 38.8782 59.9121 38.8782 65.2251 38.8782C66.8818 38.8782 67.3769 39.3732 67.3769 41.0105C67.3769 47.7691 67.3769 54.5087 67.3769 61.2673C67.3769 61.5528 67.3769 61.8575 67.3769 62.1811C68.6528 62.1811 69.8144 62.1621 70.9761 62.1811C73.0708 62.2001 74.6704 63.3044 75.4512 65.2463C75.5654 65.5319 75.6606 65.7984 75.7939 66.1411C76.689 65.4747 77.5268 64.8084 78.4028 64.1992C78.8598 63.8946 78.9741 63.5328 78.9741 62.9998C78.9551 54.7752 78.9551 46.5506 78.9551 38.3261C78.9551 38.0596 78.9551 37.793 78.9551 37.4503C77.7934 37.6788 77.0889 37.1267 76.4033 36.4223C70.2524 30.2538 64.0825 24.1045 57.9316 17.9551C57.7412 17.7647 57.5317 17.5743 57.208 17.2697C57.0176 17.5362 56.8843 17.7837 56.6748 17.9741C50.6001 24.0474 44.5254 30.1015 38.4697 36.1748C37.708 36.9363 36.9844 37.7169 35.7466 37.4694C35.7466 41.8291 35.7466 46.1128 35.7466 50.4345C37.27 50.4345 38.7363 50.4535 40.2026 50.4345C42.602 50.4154 45.0015 50.5297 47.2485 52.0718ZM15.1421 78.9348C18.4556 78.9348 21.6738 78.9348 24.8921 78.9348C26.5679 78.9348 27.3105 78.2114 27.3105 76.555C27.3105 67.7593 27.3105 58.9446 27.3105 50.1489C27.3105 48.5306 26.5869 47.8072 24.9302 47.8072C21.9023 47.8072 18.8936 47.8072 15.8657 47.8072C15.6182 47.8072 15.3896 47.8453 15.123 47.8643C15.1421 58.2211 15.1421 68.5399 15.1421 78.9348ZM64.2539 62.143C64.2539 55.4035 64.2539 48.6829 64.2539 41.9814C59.5884 41.9814 54.9609 41.9814 50.2764 41.9814C50.2764 46.208 50.2764 50.3964 50.2954 54.5848C50.2954 54.7942 50.4668 55.0417 50.6382 55.2131C52.5996 57.1931 54.542 59.2111 56.5605 61.134C57.0557 61.5909 57.7602 62.0669 58.3887 62.105C60.331 62.2192 62.2734 62.143 64.2539 62.143Z" fill="black"/>
<path d="M46.1825 18.0884C46.2016 18.888 45.516 19.6114 44.6972 19.6305C43.8974 19.6495 43.1737 18.9451 43.1547 18.1455C43.1356 17.3459 43.8212 16.6414 44.64 16.6224C45.4589 16.6224 46.1635 17.2887 46.1825 18.0884Z" fill="black"/>
<path d="M51.3613 29.9873C51.3613 26.7508 54.0273 24.1045 57.2647 24.0855C60.521 24.0664 63.2442 26.7699 63.2251 30.0254C63.2061 33.2429 60.5401 35.9083 57.3027 35.9463C54.0845 35.9654 51.3613 33.2429 51.3613 29.9873ZM57.2647 27.1316C55.665 27.1506 54.3892 28.4452 54.4082 30.0445C54.4273 31.6056 55.7222 32.8812 57.2837 32.8812C58.8643 32.8812 60.1973 31.5485 60.1973 29.9873C60.1782 28.3881 58.8643 27.1126 57.2647 27.1316Z" fill="black"/>
<path d="M75.4321 54.5658C75.4321 56.0888 75.4321 57.6119 75.4321 59.135C75.4321 60.2392 74.8228 60.9436 73.9277 60.9627C73.0137 60.9627 72.4043 60.2582 72.4043 59.154C72.4043 56.146 72.4043 53.1189 72.4043 50.1108C72.4043 48.9685 72.9756 48.3212 73.9087 48.3022C74.8418 48.3022 75.4321 48.9495 75.4321 50.0918C75.4321 51.5768 75.4321 53.0617 75.4321 54.5658Z" fill="black"/>
<path d="M75.413 44.0185C75.394 44.8372 74.6894 45.5035 73.8705 45.4845C73.0517 45.4655 72.3661 44.761 72.3852 43.9614C72.4042 43.1428 73.1088 42.4955 73.9276 42.4955C74.7655 42.5145 75.432 43.2189 75.413 44.0185Z" fill="black"/>
<path d="M21.2168 73.7374C20.417 73.7374 19.6934 73.0139 19.6934 72.2333C19.6934 71.4528 20.417 70.7293 21.1978 70.7103C21.9976 70.7103 22.7021 71.4147 22.7021 72.2143C22.7212 73.0329 22.0166 73.7374 21.2168 73.7374Z" fill="black"/>
<path d="M53.7803 50.4726C54.5801 50.4726 55.2847 51.196 55.2847 51.9956C55.2847 52.8143 54.5801 53.4997 53.7612 53.4997C52.9424 53.4997 52.2568 52.8143 52.2568 51.9956C52.2759 51.177 52.9614 50.4726 53.7803 50.4726Z" fill="black"/>
</svg>
