<svg width="103" height="86" viewBox="0 0 103 86" fill="none" xmlns="http://www.w3.org/2000/svg">
<g clip-path="url(#clip0_206_5812)">
<path d="M75.9467 68.3501C74.7376 68.3277 73.2375 67.9023 71.9836 66.7828C70.2148 65.1931 70.2372 62.8645 72.0284 61.2972C74.357 59.2373 78.5215 59.2597 80.8277 61.3196C82.5517 62.8645 82.5517 65.1931 80.8501 66.7604C79.7754 67.7903 78.1409 68.3501 75.9467 68.3501Z" fill="#7231E5"/>
<path d="M8.06717 68.2009C8.64931 66.4992 9.88076 65.8947 11.6272 65.9171C14.8737 65.9843 18.1203 65.9395 21.3668 65.9395C21.6803 65.9395 21.9714 65.9395 22.352 65.9395C22.5087 61.1928 24.0984 57.0954 27.4569 53.7593C30.793 50.4456 34.868 48.8559 39.5923 48.7216C39.5923 47.9603 39.6371 47.2662 39.5699 46.5721C39.5475 46.3482 39.2341 46.1019 39.0102 45.99C33.9276 43.6166 30.8826 39.676 29.7855 34.1905C29.7631 34.0561 29.7183 33.9218 29.7407 33.765C29.7855 33.0933 29.472 32.7799 28.8227 32.5112C26.5837 31.5708 25.3299 29.7796 25.2851 27.3615C25.2403 22.9955 25.1507 18.6294 25.397 14.2634C25.7553 7.23289 31.8454 0.9413 38.8534 0.20243C41.0253 -0.0214701 43.2195 0.0456999 45.3913 0.0233099C48.302 0.000919897 51.2127 0.0456999 54.1234 0.000919897C55.6683 -0.0214701 56.9669 0.35916 57.7506 1.76973C58.5566 3.20269 58.3103 4.56848 57.2804 5.88949C57.5267 5.95666 57.7506 6.02383 57.9521 6.091C62.2062 7.23289 65.2512 11.0168 65.3408 15.4052C65.4304 19.4131 65.408 23.3985 65.3408 27.4063C65.296 29.8916 63.975 31.6156 61.7136 32.556C61.1987 32.7575 61.0195 33.0038 60.93 33.5635C60.0792 39.161 57.1237 43.2808 52.0188 45.7661C51.2127 46.1467 50.944 46.5721 51.0336 47.3782C51.0784 47.7812 51.0336 48.2066 51.0336 48.5648C52.9591 48.9007 54.8175 49.2141 56.743 49.55C56.7207 49.5724 56.7878 49.4828 56.8102 49.3933C57.258 47.9155 58.0193 47.3334 59.5642 47.3334C62.0495 47.311 64.5348 47.3334 67.0424 47.3334C74.9909 47.3334 82.9393 47.3334 90.8878 47.3334C93.1492 47.3334 94.0224 48.229 94.0224 50.4904C94.0224 61.1032 94 71.6937 94.0448 82.3066C94.0448 84.0754 93.5074 85.3516 91.8282 86.0233C70.289 86.0233 48.7274 86.0233 27.1658 86.0233C26.024 85.486 24.8821 84.9486 23.6282 84.3664C23.1133 84.6127 22.4192 85.0382 21.6579 85.3292C20.8743 85.6203 20.0682 85.7994 19.2622 86.0233C18.4114 86.0233 17.5829 86.0233 16.7545 86.0233C16.5978 85.9785 16.441 85.9114 16.2843 85.8666C12.0974 84.971 9.43296 82.4633 8.29107 78.3211C8.20151 77.9853 8.11195 77.6271 8 77.2912C8.06717 74.2462 8.06717 71.2235 8.06717 68.2009ZM56.7207 75.9478C56.7654 75.7463 56.7878 75.6567 56.7878 75.5896C56.7878 68.1785 56.7878 60.7674 56.7654 53.3563C56.7654 53.11 56.452 52.6846 56.2057 52.6174C54.7503 52.2368 53.2726 51.9457 51.8172 51.6323C51.1903 51.4979 50.8321 51.6994 50.5858 52.3487C49.7574 54.5206 47.6527 55.9088 45.3689 55.9088C43.0628 55.9311 40.9581 54.4982 40.0625 52.3487C39.9729 52.1248 39.8834 51.8786 39.7938 51.6547C30.9274 51.4084 24.9045 59.3568 25.4194 65.9843C26.4718 65.9843 27.5241 65.9395 28.5764 65.9843C30.9945 66.1186 33.1888 67.7307 33.5918 70.104C33.9276 72.0519 33.95 74.1342 33.5918 76.0821C33.144 78.657 30.7706 80.2467 28.0391 80.3139C27.7032 80.3139 27.233 80.4034 27.0315 80.6273C26.6285 81.0751 26.3822 81.6573 26.0463 82.1946C26.718 82.9111 27.5241 83.1574 28.4645 83.1574C33.8381 83.1574 39.2117 83.1574 44.5853 83.1574C44.8316 83.1574 45.0779 83.135 45.3689 83.1126C45.3689 81.6349 45.3465 80.2019 45.3689 78.7913C45.3913 77.5823 46.1526 76.53 47.2497 76.1717C47.6975 76.0374 48.1901 75.9926 48.6603 75.9926C51.3023 75.9478 53.9891 75.9478 56.7207 75.9478ZM59.6985 50.2217C59.6985 58.8418 59.6985 67.35 59.6985 75.8806C70.1994 75.8806 80.6556 75.8806 91.1341 75.8806C91.1341 67.3053 91.1341 58.7971 91.1341 50.2217C80.6556 50.2217 70.1994 50.2217 59.6985 50.2217ZM62.4973 25.2121C62.4973 24.5628 62.4973 23.9358 62.4973 23.2865C62.4973 23.2641 62.4973 23.2417 62.4973 23.197C62.4749 22.167 61.9823 21.5625 61.1315 21.5177C60.3254 21.4729 59.7881 22.0103 59.6314 22.9955C59.4746 23.9134 58.9373 24.406 58.1312 24.3612C57.3924 24.3165 56.8774 23.7791 56.7654 22.9283C56.5415 20.958 55.5116 19.9056 53.5413 19.7041C50.7649 19.4131 48.2125 18.4951 45.9063 16.9054C45.4361 16.5695 45.145 16.5919 44.6748 16.9054C42.4134 18.4951 39.861 19.4131 37.0846 19.7041C35.1591 19.9056 34.1291 20.9356 33.8828 22.8611C33.7485 23.8015 33.2783 24.3389 32.4947 24.3836C31.711 24.4284 31.196 23.9358 30.9945 22.9955C30.793 21.9879 30.2781 21.4953 29.472 21.5401C28.6436 21.5849 28.1286 22.1894 28.1062 23.2417C28.0838 24.4508 28.1062 25.6375 28.1062 26.8465C28.1286 28.884 28.957 29.8468 31.0169 30.1379C31.8901 30.2722 32.3603 30.7424 32.4051 31.638C32.4499 32.2425 32.4723 32.8694 32.5618 33.474C33.435 40.4373 40.4879 45.587 47.4064 44.3107C53.6532 43.1465 57.8402 38.3774 58.2208 31.9738C58.3103 30.6081 58.6014 30.2946 59.9672 30.1379C61.3778 29.9811 62.4301 28.884 62.4973 27.4511C62.5197 26.6674 62.4973 25.9285 62.4973 25.2121ZM62.4973 18.5398C62.4973 17.9129 62.4973 17.0173 62.4973 16.1217C62.4749 11.6437 59.4522 8.59868 54.9518 8.59868C53.183 8.59868 51.4366 8.62107 49.6678 8.59868C48.7946 8.59868 48.2125 8.01654 48.1901 7.2105C48.1677 6.42685 48.7498 5.79993 49.623 5.75515C50.1828 5.71037 50.7425 5.66559 51.3023 5.75515C52.8024 5.97905 53.9667 5.48647 54.8175 4.25502C55.019 3.96395 55.131 3.60571 55.2877 3.26986C54.9518 3.13552 54.616 2.88923 54.2801 2.88923C49.8245 2.86684 45.3913 2.84445 40.9357 2.88923C37.2637 2.93401 34.1291 4.32219 31.5991 6.9866C28.4421 10.3227 27.7928 14.3977 28.2182 18.8533C29.6287 18.4055 30.905 18.6966 32.114 19.4131C33.3007 17.8458 34.8456 17.0173 36.7264 16.8382C39.2565 16.5919 41.5402 15.6739 43.6001 14.2186C44.7868 13.3678 45.8839 13.3678 47.093 14.241C49.1752 15.6963 51.4366 16.6143 53.9891 16.8606C55.7803 17.0397 57.258 17.7786 58.3775 19.1892C58.4447 19.2787 58.5342 19.3235 58.6238 19.3907C58.6238 19.3011 58.6238 19.2115 58.6238 19.122C59.8553 18.9429 61.1091 18.7414 62.4973 18.5398ZM25.1507 68.8726C20.4041 68.8726 15.7022 68.8726 10.9555 68.8726C10.9555 71.4698 10.8435 74.0223 10.9779 76.5523C11.2018 80.1571 14.202 82.9559 17.762 83.1126C21.3444 83.2693 24.7029 80.7617 25.0836 77.2016C25.397 74.4925 25.1507 71.6937 25.1507 68.8726ZM59.6985 78.8585C59.6985 80.2915 59.6985 81.6573 59.6985 83.0902C70.1994 83.0902 80.6556 83.0902 91.1341 83.0902C91.1341 81.6573 91.1341 80.2915 91.1341 78.8585C80.6332 78.8585 70.1994 78.8585 59.6985 78.8585ZM56.743 78.8809C53.8323 78.8809 51.0336 78.8809 48.2572 78.8809C48.2572 80.3363 48.2572 81.702 48.2572 83.0678C51.1232 83.0678 53.9219 83.0678 56.743 83.0678C56.743 81.6573 56.743 80.2915 56.743 78.8809ZM42.4806 47.199C42.4806 48.1842 42.4582 49.2141 42.4806 50.2217C42.5254 51.7442 43.6449 52.9085 45.145 53.0204C46.5556 53.1324 47.9438 52.1025 48.1229 50.6247C48.2572 49.4604 48.1453 48.2514 48.1453 47.1767C46.2645 47.199 44.4285 47.199 42.4806 47.199ZM28.1286 68.895C28.1286 71.7609 28.1286 74.5596 28.1286 77.3584C29.6511 77.2688 30.7706 76.418 30.905 75.0522C31.0169 73.7536 31.0169 72.4326 30.905 71.134C30.7706 69.7906 29.584 68.8502 28.1286 68.895Z" fill="black"/>
<path d="M15.4565 57.3193C15.0759 58.3045 14.6952 59.2225 14.3594 60.1628C14.1579 60.6778 13.9116 61.1704 13.7996 61.7077C13.6205 62.5809 13.0832 63.0959 12.2547 63.0287C11.4935 62.984 10.8442 62.4018 10.9561 61.5734C11.0904 60.633 11.3591 59.6479 11.8069 58.8418C12.4115 57.7671 12.4338 56.8715 11.8069 55.7968C11.3591 55.0355 11.0904 54.1175 10.9561 53.2219C10.7994 52.3263 11.4487 51.6546 12.2547 51.5875C13.0384 51.5203 13.6205 52.1248 13.7996 53.0204C13.8892 53.5354 14.1579 54.0056 14.337 54.4758C14.6952 55.4162 15.0759 56.3341 15.4565 57.3193Z" fill="black"/>
<path d="M22.5092 52.998C22.3077 53.7817 22.151 54.4758 21.9047 55.1475C21.5913 56.0207 21.2106 56.8715 20.8748 57.7447C20.6285 58.4164 19.9792 58.8866 19.3299 58.7523C18.591 58.5955 18.0312 58.1254 18.1432 57.3865C18.2999 56.4237 18.5238 55.4162 18.994 54.5653C19.5985 53.4906 19.5985 52.6174 18.994 51.5203C18.5238 50.6695 18.2999 49.6619 18.1432 48.6992C18.0312 47.9603 18.6358 47.4229 19.3523 47.3558C20.1135 47.2662 20.6733 47.6916 20.9196 48.4305C21.1882 49.2141 21.5241 49.953 21.8152 50.7143C22.0838 51.4531 22.2853 52.2368 22.5092 52.998Z" fill="black"/>
<path d="M76.3571 55.9088C77.7453 55.9088 79.8724 56.6028 81.6636 58.1478C84.731 60.8346 84.7758 65.1111 81.7755 67.865C78.3275 71.022 72.3717 70.9772 68.9684 67.7531C66.1025 65.0439 66.1473 60.9241 69.058 58.2597C70.7149 56.7372 72.9539 55.9088 76.3571 55.9088ZM74.9466 67.3501C77.1184 67.3501 78.7529 66.7679 79.85 65.7604C81.5516 64.1931 81.5516 61.8645 79.8276 60.3196C77.5214 58.2373 73.3345 58.2373 71.0283 60.2972C69.2595 61.8645 69.2371 64.1931 70.9835 65.7828C72.2374 66.9023 73.7599 67.3277 74.9466 67.3501Z" fill="black"/>
<path d="M45.3244 40.1462C42.6376 40.0567 40.3986 39.0267 38.6745 36.9668C37.9805 36.1384 38.0028 35.3324 38.6969 34.7502C39.3686 34.1905 40.1747 34.3472 40.8912 35.1309C43.4212 37.9968 47.2051 37.9968 49.8024 35.1309C50.4741 34.392 51.1234 34.2129 51.7951 34.6159C52.3996 34.9741 52.6683 35.6906 52.422 36.3623C52.3324 36.5862 52.1757 36.8101 52.019 36.9892C50.2502 39.0491 48.0112 40.0567 45.3244 40.1462Z" fill="black"/>
<path d="M13.8 74.6268C13.8 74.1342 13.7776 73.6193 13.8 73.1267C13.8448 72.2535 14.4493 71.6937 15.2553 71.7161C16.0614 71.7161 16.6211 72.2758 16.6435 73.1714C16.6659 73.9999 16.6435 74.8507 16.6659 75.6791C16.6883 76.7762 17.0913 77.2464 18.166 77.4255C19.1064 77.5823 19.599 78.1644 19.5094 79.0152C19.4199 79.8213 18.7258 80.3363 17.8078 80.2691C15.636 80.1347 13.9119 78.3435 13.8 76.1493C13.7776 75.6344 13.8 75.1194 13.8 74.6268Z" fill="black"/>
</g>
<defs>
<clipPath id="clip0_206_5812">
<rect width="103" height="86" fill="white"/>
</clipPath>
</defs>
</svg>
