<svg width="103" height="86" viewBox="0 0 103 86" fill="none" xmlns="http://www.w3.org/2000/svg">
<path d="M24.96 72.9835C25.4428 70.9295 25.9055 68.9354 26.3883 66.9412C26.4084 66.8216 26.6297 66.6421 26.7102 66.6621C26.8711 66.682 27.0924 66.8216 27.1326 66.9412C28.1586 70.411 29.0035 73.9008 27.2533 77.4105C27.1729 77.57 26.9314 77.7096 26.7504 77.7495C26.6096 77.7694 26.348 77.6299 26.3078 77.4903C25.825 75.9947 25.3824 74.4791 24.96 72.9835Z" fill="#7231E5"/>
<path d="M25.5225 61.1183C26.7295 60.3606 26.7295 60.3606 27.9566 61.0984C27.7555 61.7365 27.5744 62.3946 27.3129 63.0128C27.2324 63.1922 26.9508 63.3917 26.7496 63.3917C26.5484 63.3917 26.2668 63.1922 26.1863 63.0128C25.9248 62.4345 25.7437 61.7963 25.5225 61.1183Z" fill="#7231E5"/>
<path d="M67.0049 57.0103C67.0049 53.7997 67.0049 50.7088 67.0049 47.558C67.2061 47.5182 67.3871 47.4783 67.5883 47.4783C75.9771 47.4783 84.3459 47.4583 92.7348 47.4783C95.1488 47.4783 97.1002 49.1733 97.5025 51.5264C97.8646 53.6801 96.5771 55.9135 94.4648 56.6912C93.9016 56.8907 93.298 57.0303 92.7146 57.0303C84.3258 57.0502 75.957 57.0502 67.5682 57.0502C67.4072 57.0502 67.2463 57.0303 67.0049 57.0103Z" fill="#7231E5"/>
<path d="M0 64.2263C0.543164 62.7705 0.885156 61.1952 1.66973 59.899C3.80215 56.3494 7.08125 54.5746 11.2455 54.4749C12.8146 54.435 14.3838 54.4749 16.0938 54.4749C16.0938 53.6772 16.134 52.9194 16.0736 52.1816C16.0535 51.9622 15.7518 51.703 15.5305 51.5634C9.47519 47.5751 6.45762 41.9915 6.45762 34.7727C6.45762 30.226 6.45762 25.6594 6.45762 21.1127C6.4375 12.0992 13.5791 5.01994 22.6318 5C26.7559 5 30.8799 5 35.0039 5C36.4926 5 36.9955 5.49854 37.0156 6.95427C37.0156 8.44988 37.0156 9.94549 37.0156 11.142C38.6652 12.0394 40.2746 12.6775 41.5822 13.6746C43.9359 15.4892 45.0424 18.0218 45.0424 20.9931C45.0625 25.7392 45.1027 30.5052 45.0424 35.2513C44.9619 41.9317 42.1254 47.2361 36.6334 51.0649C35.708 51.703 35.185 52.3212 35.3861 53.4579C35.4465 53.737 35.3861 54.0362 35.3861 54.4549C37.0156 54.4549 38.5848 54.4549 40.1338 54.4549C45.4648 54.4749 50.0113 58.0245 51.1781 63.1893C51.3592 64.0269 51.4396 64.9043 51.4598 65.7618C51.5 68.8926 51.4799 72.0035 51.4598 75.1343C51.4396 77.8862 49.3273 79.9801 46.5512 79.9801C32.6703 79.9801 18.7895 79.9801 4.90859 79.9801C2.75605 79.9801 1.02598 78.7836 0.241406 76.8094C0.201172 76.59 0.100586 76.3906 0 76.1912C0 72.2029 0 68.2146 0 64.2263ZM41.8035 32.9181C42.6082 30.5052 41.2805 28.5709 39.2084 26.9556C39.1078 26.8758 39.0072 26.7761 38.9268 26.6764C38.5244 26.0981 38.0818 26.1579 37.4783 26.3972C34.0383 27.853 30.4373 28.7503 26.6754 28.8899C22.31 29.0495 18.1658 28.1122 14.1625 26.4371C13.398 26.1181 12.9756 26.2178 12.4525 26.7961C11.7283 27.6137 10.8834 28.3515 10.1189 29.1492C9.89766 29.3685 9.67637 29.6876 9.67637 29.9668C9.69648 32.4595 9.55566 34.9721 9.85742 37.4249C10.7426 44.7434 16.476 50.1675 24.1406 51.1845C30.9402 52.062 37.9813 47.8344 40.677 41.2935C41.723 38.7211 41.9645 36.029 41.8035 32.9181ZM9.81719 24.9016C10.3805 24.3433 10.9639 23.8048 11.507 23.2265C12.191 22.4887 12.9555 22.389 13.8607 22.8277C21.7869 26.6964 29.7131 26.6964 37.6393 22.8476C38.5848 22.389 39.3492 22.5086 40.0533 23.2864C40.5764 23.8647 41.1195 24.4031 41.8438 25.1409C41.8438 23.5855 41.8438 22.3691 41.8438 21.1327C41.8035 17.4634 39.2084 14.7713 35.527 14.5919C34.3199 14.532 33.7969 13.9936 33.7969 12.7572C33.7969 11.2616 33.7969 9.78596 33.7969 8.19064C33.475 8.19064 33.2537 8.19064 33.0324 8.19064C29.4516 8.19064 25.8506 8.15076 22.2697 8.21058C16.0736 8.27041 10.6822 12.9168 9.85742 19.0189C9.61602 20.9133 9.81719 22.8476 9.81719 24.9016ZM33.2939 76.7894C37.8404 76.7894 42.2059 76.8094 46.5713 76.7894C47.6777 76.7894 48.2812 76.1513 48.2812 75.0146C48.3014 71.7642 48.3416 68.4938 48.2611 65.2433C48.1807 61.7535 45.5051 58.6028 42.1053 57.9048C41.7633 57.845 41.1799 57.9646 41.0391 58.184C40.3148 59.4802 39.6711 60.8163 39.0273 62.1125C40.335 63.5483 40.3551 63.7676 39.4498 65.4228C38.5043 67.1776 37.5588 68.9325 36.6133 70.6873C35.527 72.6615 34.4607 74.6357 33.2939 76.7894ZM12.4727 62.0925C11.8691 60.8761 11.2053 59.7195 10.7023 58.4831C10.3805 57.7253 9.93789 57.7054 9.29414 57.8649C5.8541 58.7224 3.2791 61.8532 3.23887 65.4228C3.19863 68.5735 3.21875 71.7442 3.23887 74.895C3.23887 76.1912 3.84238 76.7695 5.15 76.7894C9.33438 76.8094 13.5389 76.7894 17.7232 76.7894C17.8439 76.7894 17.9445 76.7695 18.1457 76.7296C17.9244 76.3108 17.7635 75.9918 17.6025 75.6727C15.7518 72.2428 13.901 68.8328 12.0502 65.4028C11.1449 63.7477 11.165 63.5283 12.4727 62.0925ZM36.4926 64.1266C35.024 63.1494 35.3861 61.9928 36.0902 60.7365C36.6535 59.7793 37.0961 58.7424 37.6191 57.6655C36.6736 57.6655 35.8891 57.6655 35.0039 57.6655C33.1934 63.9471 31.3828 70.2486 29.5723 76.5302C29.6326 76.5501 29.6729 76.5701 29.7332 76.59C31.9662 72.4821 34.1992 68.3542 36.4926 64.1266ZM21.7668 76.6099C21.8271 76.59 21.8674 76.5701 21.9277 76.5501C20.1172 70.2685 18.3066 63.967 16.5162 57.7054C15.6109 57.7054 14.8062 57.7054 13.901 57.7054C14.4441 58.8022 14.9068 59.8391 15.4701 60.8163C16.1541 62.0327 16.4559 63.1694 15.0275 64.1066C17.2807 68.3542 19.5338 72.4821 21.7668 76.6099ZM19.4332 53.418C19.051 54.6344 19.3326 55.4919 20.4793 55.9705C20.6402 56.0303 20.7811 56.13 20.9018 56.2497C22.0686 57.4661 23.2957 57.3664 24.5832 56.4291C25.3074 55.9107 26.092 55.8508 26.8162 56.3893C28.1842 57.4262 29.4516 57.3863 30.6787 56.1898C30.7793 56.0901 30.9 56.0303 31.0207 55.9705C32.2076 55.4919 32.4088 54.5945 32.0668 53.418C27.8623 54.8139 23.6377 54.7939 19.4332 53.418ZM23.9596 71.9835C24.382 73.4592 24.8246 74.9947 25.2873 76.5102C25.3275 76.6299 25.5891 76.7894 25.7299 76.7695C25.9109 76.7495 26.1523 76.59 26.2328 76.4305C27.983 72.9208 27.1381 69.431 26.1121 65.9612C26.0719 65.8216 25.8506 65.7019 25.6896 65.682C25.5891 65.6621 25.3879 65.8415 25.3678 65.9612C24.885 67.9354 24.4223 69.9495 23.9596 71.9835ZM24.5229 60.1183C24.7441 60.7963 24.9252 61.4345 25.1666 62.0327C25.2471 62.2122 25.5488 62.4116 25.7299 62.4116C25.9311 62.4116 26.2127 62.2122 26.2932 62.0327C26.5547 61.3946 26.7357 60.7365 26.9369 60.1183C25.75 59.3605 25.75 59.3605 24.5229 60.1183ZM20.4391 59.7993C21.0023 61.7136 21.5053 63.4286 22.0484 65.343C22.5715 63.9272 21.626 60.6966 20.4391 59.7993ZM29.4717 65.2433C29.9947 63.4087 30.4977 61.6937 31.0207 59.8591C29.8338 60.6767 28.8883 64.0069 29.4717 65.2433Z" fill="black"/>
<path d="M103 78.983C102.436 79.7806 101.652 80 100.666 80C88.5756 79.98 76.4651 80 64.3747 79.98C59.4057 79.98 55.3622 76.3307 54.7586 71.4052C54.1954 66.7987 57.3336 62.3318 62.0008 61.1553C62.7653 60.9558 63.5901 60.8561 64.3747 60.8561C76.5455 60.8362 88.6963 60.8561 100.867 60.8163C101.813 60.8163 102.456 61.1353 103 61.8333C103 62.2321 103 62.6309 103 63.0298C102.255 64.2661 100.948 63.967 99.8413 64.0667C99.8413 68.3741 99.8413 72.5419 99.8413 76.7894C101.028 76.7894 102.255 76.6099 103 77.8064C103 78.1853 103 78.5841 103 78.983ZM96.5018 76.7894C96.5018 72.4621 96.5018 68.2744 96.5018 64.0268C96.0793 64.0268 95.7172 64.0268 95.3752 64.0268C91.05 64.0268 86.7248 64.0268 82.3997 64.0268C76.4047 64.0268 70.4098 64.0069 64.4149 64.0268C60.6329 64.0468 57.736 67.0978 57.9573 70.8069C58.1383 74.2169 60.9748 76.7894 64.6362 76.7894C74.9965 76.8093 85.3368 76.7894 95.6971 76.7894C95.9385 76.7894 96.2 76.7894 96.5018 76.7894Z" fill="black"/>
<path d="M89.3408 14.6317C86.8865 14.6317 84.5529 14.6317 82.159 14.6317C82.159 22.5684 82.159 30.4653 82.159 38.4818C82.501 38.5017 82.843 38.5217 83.2051 38.5217C85.9209 38.5217 88.6367 38.5217 91.3525 38.5217C92.64 38.5217 93.3441 39.1 93.3643 40.117C93.3643 41.134 92.6602 41.7123 91.3928 41.7123C84.1506 41.7123 76.9084 41.7123 69.6662 41.7123C68.3787 41.7123 67.6545 41.134 67.6344 40.1369C67.6143 39.1398 68.3988 38.5217 69.7266 38.5217C72.7441 38.5217 75.7416 38.5217 78.8195 38.5217C78.8195 30.5251 78.8195 22.6083 78.8195 14.6317C76.4256 14.6317 74.0518 14.6317 71.5773 14.6317C71.7986 15.23 71.9998 15.7485 72.201 16.2669C73.3074 19.1585 74.4541 22.0101 75.46 24.9415C75.7215 25.6993 75.6209 26.6565 75.4197 27.4541C74.6553 30.5251 71.5773 32.4993 68.3787 32.0805C65.341 31.6817 62.8666 28.9697 62.7861 25.9386C62.7861 25.6195 62.8465 25.2805 62.9672 24.9814C64.5162 20.8535 66.0652 16.7256 67.6143 12.5778C67.9361 11.7402 68.5195 11.3414 69.4449 11.3414C72.2211 11.3613 75.0174 11.3613 77.7936 11.3613C78.1154 11.3613 78.4373 11.3613 78.8799 11.3613C78.8799 10.3443 78.8598 9.427 78.8799 8.50969C78.9 7.35308 79.5236 6.61525 80.4691 6.5953C81.4348 6.57536 82.0785 7.3132 82.0785 8.46981C82.0986 9.38711 82.0785 10.3244 82.0785 11.3613C82.5211 11.3613 82.8832 11.3613 83.2252 11.3613C85.9813 11.3613 88.7172 11.3613 91.4732 11.3414C92.4791 11.3414 93.0223 11.7801 93.3844 12.7173C94.8731 16.7655 96.5025 20.7737 97.9107 24.8418C98.2125 25.6993 98.0717 26.816 97.79 27.7333C96.8848 30.6846 93.9074 32.4794 90.8295 32.0606C87.8521 31.6418 85.4582 29.0893 85.2973 26.0981C85.2771 25.6793 85.3576 25.2406 85.5186 24.8418C86.7457 21.5714 87.993 18.3209 89.2402 15.0704C89.2805 14.9907 89.3006 14.8511 89.3408 14.6317ZM91.7549 17.5631C90.8697 19.9162 90.0852 21.9901 89.2805 24.1039C90.9904 24.1039 92.5395 24.1039 94.2293 24.1039C93.4246 21.9503 92.64 19.8963 91.7549 17.5631ZM66.7492 24.1239C68.4391 24.1239 69.9881 24.1239 71.698 24.1239C70.8934 21.9702 70.1088 19.9162 69.2236 17.5631C68.3385 19.9162 67.5539 21.9901 66.7492 24.1239ZM94.3701 27.4342C92.5797 27.4342 90.8697 27.4342 89.1195 27.4342C90.0852 29.4283 93.4246 29.4283 94.3701 27.4342ZM66.548 27.3943C67.4332 28.6506 68.4391 29.1093 69.7266 28.9098C70.652 28.7703 71.4164 28.3315 71.9395 27.3943C70.0686 27.3943 68.3787 27.3943 66.548 27.3943Z" fill="black"/>
<path d="M62.7259 56.0702C62.7259 52.8198 62.7259 49.7089 62.7259 46.4784C62.1626 46.4784 61.6194 46.5183 61.0964 46.4784C60.1509 46.3986 59.5272 45.7007 59.5473 44.8432C59.5876 44.0056 60.2112 43.3874 61.1165 43.3276C61.2774 43.3077 61.4585 43.3276 61.6194 43.3276C71.678 43.3276 81.7366 43.3077 91.7952 43.3276C95.8589 43.3276 99.1983 46.3188 99.7415 50.3869C100.265 54.1957 97.6694 57.9846 93.827 59.0016C93.1833 59.1612 92.4993 59.2808 91.8555 59.2808C81.7567 59.3007 71.678 59.2808 61.5792 59.3007C60.6538 59.3007 59.9095 59.0415 59.6278 58.0843C59.3462 57.1471 60.0302 56.2098 61.0763 56.1101C61.5792 56.0303 62.1223 56.0702 62.7259 56.0702ZM66.005 56.0104C66.2464 56.0303 66.3872 56.0503 66.5481 56.0503C74.937 56.0503 83.3057 56.0503 91.6946 56.0303C92.278 56.0303 92.9016 55.8908 93.4448 55.6913C95.5772 54.9136 96.8647 52.6802 96.4825 50.5265C96.0802 48.1734 94.1288 46.4983 91.7147 46.4784C83.3259 46.4584 74.9571 46.4784 66.5682 46.4784C66.3872 46.4784 66.186 46.5382 65.9848 46.5581C66.005 49.7089 66.005 52.7998 66.005 56.0104Z" fill="black"/>
</svg>
