<svg width="103" height="86" viewBox="0 0 103 86" fill="none" xmlns="http://www.w3.org/2000/svg">
<path d="M43.5492 75.8471C41.0184 69.0368 38.5101 62.3163 35.9346 55.394C42.8325 57.9703 49.5512 60.4569 56.4716 63.0331C55.4638 64.0188 54.5455 64.8925 53.6497 65.7662C53.1346 66.2814 52.6195 66.7967 52.1044 67.3119C51.3429 68.096 51.3429 68.7008 52.1044 69.4849C53.6497 71.0306 55.195 72.5764 56.6955 74.0549C55.9789 74.727 55.307 75.3766 54.5007 76.1383C53.9408 75.5558 53.2018 74.7494 52.4403 73.9877C51.6341 73.1588 50.8278 72.3523 49.9992 71.5459C49.2153 70.7842 48.6106 70.8066 47.8268 71.5683C46.6174 72.778 45.408 73.9877 44.1986 75.175C44.0195 75.399 43.8179 75.5782 43.5492 75.8471Z" fill="#7231E5"/>
<path d="M8 12.4269C8.08958 12.2029 8.17917 11.9564 8.24635 11.7324C9.03021 8.97698 11.4266 7.07281 14.2932 7.028C16.9135 6.9832 19.5115 7.0056 22.1094 7.0056C40.2276 7.0056 58.3234 7.0056 76.4417 7.0056C76.7552 7.0056 77.0688 7.0056 77.3599 7.028C78.0318 7.07281 78.4573 7.47604 78.5245 8.1257C78.5917 8.84256 78.2333 9.31301 77.5391 9.46982C77.1807 9.55943 76.8224 9.53703 76.4641 9.53703C55.9719 9.53703 35.4797 9.53703 14.9875 9.53703C13.8901 9.53703 12.8599 9.69384 11.9865 10.4107C11.1578 11.0828 10.5755 11.934 10.5531 12.9869C10.4859 15.7424 10.5307 18.5202 10.5307 21.3205C37.4953 21.3205 64.4151 21.3205 91.4245 21.3205C91.4469 21.0965 91.4693 20.85 91.4693 20.6036C91.4693 18.3186 91.4693 16.0112 91.4693 13.7262C91.4693 11.2172 89.8344 9.58183 87.326 9.55943C86.0495 9.55943 84.7505 9.55943 83.474 9.55943C82.4661 9.55943 81.9286 9.11139 81.9062 8.30492C81.8839 7.47604 82.4438 7.028 83.5188 7.028C84.9521 7.028 86.3854 7.0056 87.7964 7.0504C91.1557 7.14001 93.888 9.87306 94 13.2334C94.0224 13.771 94 14.2862 94 14.8239C94 31.827 94 48.8077 94 65.8108C94 69.2159 92.0292 71.7698 88.8714 72.4642C88.401 72.5762 87.9307 72.5986 87.4604 72.5986C83.8995 72.621 80.3609 72.5986 76.8 72.5986C76.6656 72.5986 76.5089 72.5986 76.3745 72.5762C75.6802 72.4866 75.2995 72.061 75.2771 71.4113C75.2323 70.7393 75.613 70.2912 76.2625 70.1344C76.576 70.0672 76.9344 70.0672 77.2703 70.0672C80.5625 70.0672 83.8771 70.0672 87.1693 70.0672C89.9016 70.0672 91.4693 68.4767 91.4693 65.7212C91.4693 52.056 91.4693 38.3908 91.4693 24.7256C91.4693 24.4792 91.4693 24.2327 91.4693 23.8967C64.4823 23.8967 37.5625 23.8967 10.5083 23.8967C10.5083 24.636 10.5083 25.3976 10.5083 26.1369C10.5083 28.3547 10.5083 30.5501 10.5083 32.7679C10.5083 33.4848 10.4411 34.1344 9.67969 34.4256C8.89583 34.7841 8.44792 34.2912 8 33.7536C8 26.6521 8 19.5283 8 12.4269Z" fill="black"/>
<path d="M8 38.458C8.13438 38.3236 8.24635 38.122 8.40312 38.0772C8.82865 37.9652 9.34375 37.7412 9.72448 37.8756C10.0604 37.9876 10.3068 38.4804 10.4859 38.8613C10.5979 39.0853 10.5083 39.4213 10.5083 39.6901C10.5083 48.3597 10.5083 57.0517 10.5083 65.7212C10.5083 68.4767 12.076 70.0672 14.8083 70.0896C21.8406 70.0896 28.8505 70.0896 35.8828 70.0896C36.1068 70.0896 36.3307 70.0896 36.6667 70.0896C36.5099 69.664 36.4203 69.328 36.2859 68.9919C34.6286 64.5563 32.9937 60.1431 31.3365 55.7076C30.8437 54.3634 31.2245 53.1537 32.3891 52.7729C32.8818 52.6161 33.5312 52.5937 34.0016 52.7729C41.325 55.4611 48.626 58.1718 55.9271 60.9048C57.5396 61.5097 57.8531 63.0778 56.6437 64.3099C55.3224 65.654 53.9562 66.9982 52.4557 68.4767C53.0156 68.9695 53.4859 69.44 54.0234 69.8208C54.2922 70 54.6953 70.0672 55.0312 70.0672C59.9583 70.0896 64.8854 70.0672 69.8125 70.0896C70.1484 70.0896 70.4844 70.0896 70.7979 70.1792C71.425 70.3585 71.7161 70.8065 71.6713 71.4338C71.6266 72.061 71.2682 72.4642 70.6411 72.5539C70.35 72.5987 70.0365 72.5763 69.7229 72.5763C65.4901 72.5763 61.2797 72.5763 56.9573 72.5763C57.0917 72.8227 57.1812 73.0243 57.2708 73.2035C57.6964 74.0548 57.6292 74.8613 57.0021 75.5333C56.0839 76.519 55.1432 77.4823 54.1578 78.3784C53.2396 79.2072 52.1198 79.14 51.1568 78.1992C49.925 76.9894 48.6932 75.7573 47.4615 74.5252C47.3047 74.3684 47.1479 74.234 46.9016 74.01C45.6026 75.3093 44.326 76.5862 43.0495 77.8631C41.549 79.3641 40.0708 79.0504 39.3318 77.0791C38.8615 75.8245 38.3464 74.57 37.9432 73.2931C37.7417 72.6659 37.4281 72.509 36.801 72.509C29.8583 72.5314 22.9156 72.4194 15.9729 72.5539C11.9641 72.7331 9.0974 71.2993 8 67.1998C8 57.6117 8 48.0461 8 38.458ZM41.549 75.8469C41.8401 75.5781 42.0417 75.3989 42.2208 75.2197C43.4302 74.01 44.6396 72.8003 45.849 71.613C46.6328 70.8513 47.2375 70.8289 48.0214 71.5906C48.85 72.397 49.6562 73.2035 50.4625 74.0324C51.224 74.7941 51.9406 75.6005 52.5229 76.183C53.3292 75.4213 54.0234 74.7716 54.7177 74.0996C53.2172 72.5987 51.6719 71.0753 50.1266 69.5296C49.3651 68.7455 49.3651 68.1407 50.1266 67.3566C50.6417 66.8413 51.1568 66.3261 51.6719 65.8109C52.5677 64.9148 53.4859 64.0411 54.4938 63.0778C47.5734 60.5016 40.8547 57.9926 33.9568 55.4387C36.5099 62.3161 38.9958 69.0367 41.549 75.8469Z" fill="black"/>
<path d="M27.7308 42.0872C26.9022 44.4394 26.0959 46.6348 25.3121 48.8301C25.0881 49.4574 24.9537 50.1519 24.5954 50.7119C24.3491 51.0928 23.8564 51.4512 23.4084 51.5632C22.8485 51.6976 22.4006 51.2944 22.2215 50.7343C20.8329 46.7468 19.4668 42.7592 18.1006 38.7717C17.8543 38.0324 18.2126 37.3379 18.8621 37.1363C19.5787 36.9123 20.2058 37.2259 20.497 38.0324C21.3704 40.519 22.2215 43.0056 23.0725 45.4699C23.1621 45.7387 23.2517 45.9851 23.4084 46.4331C23.5652 46.0523 23.6772 45.8059 23.7668 45.5819C24.6626 43.1176 25.536 40.631 26.4095 38.1668C26.6334 37.4947 26.947 36.9795 27.7308 36.9795C28.5147 36.9795 28.8282 37.4947 29.0522 38.1668C29.8584 40.5862 30.6871 42.9832 31.5157 45.3802C31.6277 45.6939 31.7397 46.0075 31.9189 46.4779C32.6579 44.3946 33.3298 42.4456 34.0241 40.519C34.3152 39.7125 34.584 38.8837 34.8751 38.0772C35.1887 37.2483 35.8605 36.8899 36.5772 37.1811C37.2267 37.4275 37.4954 38.122 37.2267 38.9285C35.8829 42.8264 34.5168 46.7468 33.1506 50.6447C32.9491 51.2496 32.5683 51.6528 31.8741 51.6528C31.1798 51.6304 30.8439 51.2048 30.6423 50.5999C29.7913 48.0685 28.9178 45.5147 28.0444 42.9832C27.9548 42.692 27.8652 42.468 27.7308 42.0872Z" fill="black"/>
<path d="M55.2549 46.4554C56.2403 43.6776 57.1362 41.1013 58.0544 38.5251C58.144 38.2787 58.2112 38.0323 58.3008 37.8083C58.6143 37.1586 59.2638 36.8898 59.9133 37.1138C60.5403 37.3378 60.8763 37.9875 60.6299 38.6819C59.9804 40.6085 59.2862 42.5351 58.6143 44.4616C57.92 46.433 57.2258 48.4044 56.5539 50.3982C56.3299 51.0478 56.0164 51.5855 55.2325 51.5855C54.4487 51.5855 54.1351 51.0478 53.9112 50.3982C52.993 47.6875 52.0747 44.9545 51.0893 42.0646C50.8653 42.6247 50.7086 43.0279 50.5518 43.4312C49.7232 45.7386 48.8945 48.0684 48.0883 50.3758C47.8643 51.0254 47.5508 51.5631 46.7669 51.5631C45.9831 51.5631 45.6695 51.0478 45.4456 50.3758C44.1466 46.5674 42.8252 42.7815 41.5263 38.9732C41.1232 37.7859 41.8174 36.7778 42.87 37.1138C43.2956 37.2482 43.7659 37.7859 43.9226 38.2563C44.8185 40.6981 45.6247 43.1623 46.4758 45.6265C46.543 45.8506 46.6325 46.0746 46.7893 46.4554C47.1028 45.5817 47.394 44.8425 47.6403 44.1256C48.357 42.1094 49.0961 40.0709 49.8127 38.0547C50.0367 37.405 50.395 36.957 51.1117 36.957C51.8284 36.957 52.1867 37.4274 52.3883 38.0771C53.2169 40.5413 54.0679 43.0055 54.8966 45.4473C54.9638 45.7162 55.0758 45.9626 55.2549 46.4554Z" fill="black"/>
<path d="M73.9557 42.0647C72.9479 44.8873 72.0296 47.5084 71.089 50.1294C71.0218 50.3086 70.9546 50.4878 70.8874 50.6894C70.6635 51.2719 70.2604 51.7199 69.6333 51.5631C69.1854 51.4511 68.6255 51.0703 68.4911 50.6894C67.0802 46.7467 65.7364 42.7815 64.3703 38.8164C64.1239 38.0771 64.4375 37.3827 65.0645 37.1586C65.8036 36.8898 66.4531 37.2258 66.7666 38.0771C67.6177 40.5189 68.4687 42.9832 69.2973 45.4474C69.3869 45.7386 69.4989 46.0074 69.6781 46.5227C70.0364 45.5146 70.35 44.7081 70.6411 43.8792C71.3354 41.9527 72.0072 40.0485 72.6791 38.1219C72.9031 37.4499 73.2614 36.957 74.0453 36.9794C74.7843 37.0018 75.0979 37.4947 75.3218 38.1219C76.2401 40.855 77.1807 43.5656 78.1437 46.4555C78.3229 46.0298 78.4348 45.761 78.5244 45.4698C79.3755 43.0504 80.2041 40.6085 81.0999 38.2115C81.2567 37.7859 81.7046 37.3154 82.1301 37.1586C82.4213 37.0242 83.1156 37.2482 83.2723 37.5171C83.4963 37.8979 83.5859 38.5476 83.4291 38.9732C82.3765 42.1543 81.2343 45.313 80.1369 48.4716C79.913 49.0989 79.689 49.7262 79.465 50.3758C79.2411 51.0479 78.9275 51.6303 78.0989 51.6079C77.315 51.5855 77.0239 51.0479 76.7999 50.3982C75.9937 47.9564 75.1427 45.537 74.314 43.0952C74.2468 42.8039 74.1348 42.5127 73.9557 42.0647Z" fill="black"/>
<path d="M33.0609 13.0989C34.3374 13.0989 35.3901 14.1966 35.3677 15.4735C35.3453 16.7504 34.2479 17.8033 32.9937 17.7809C31.7619 17.7361 30.7093 16.6832 30.7093 15.4511C30.6869 14.1742 31.7843 13.0989 33.0609 13.0989Z" fill="black"/>
<path d="M25.894 17.7809C24.6622 17.8033 23.5872 16.7953 23.5424 15.5183C23.4976 14.219 24.5278 13.1213 25.8268 13.0989C27.081 13.0765 28.1336 14.0846 28.1784 15.3391C28.2008 16.6608 27.1929 17.7585 25.894 17.7809Z" fill="black"/>
<path d="M16.3763 15.3616C16.3987 14.107 17.4513 13.0766 18.7055 13.099C20.0045 13.1214 21.0347 14.1967 20.9899 15.496C20.9451 16.7729 19.9149 17.781 18.6607 17.7586C17.3618 17.7586 16.3539 16.6833 16.3763 15.3616Z" fill="black"/>
</svg>
