<svg width="73" height="73" viewBox="0 0 73 73" fill="none" xmlns="http://www.w3.org/2000/svg">
<path fill-rule="evenodd" clip-rule="evenodd" d="M23.6703 58.183C29.4549 58.183 34.1443 53.4694 34.1443 47.6549C34.1443 41.8403 29.4549 37.1267 23.6703 37.1267C17.8856 37.1267 13.1963 41.8403 13.1963 47.6549C13.1963 53.4694 17.8856 58.183 23.6703 58.183Z" fill="#AB54FF"/>
<path fill-rule="evenodd" clip-rule="evenodd" d="M22.0304 33.0723C29.0986 33.0723 34.8484 38.8214 34.8484 45.8888C34.8484 52.9556 29.0986 58.7053 22.0304 58.7053C14.9628 58.7053 9.21249 52.9556 9.21249 45.8888C9.21249 38.8214 14.9628 33.0723 22.0304 33.0723ZM22.0304 35.0865C16.0735 35.0865 11.2272 39.9323 11.2272 45.8886C11.2272 51.8449 16.0735 56.6906 22.0304 56.6906C27.9874 56.6906 32.8337 51.8449 32.8337 45.8886C32.8337 39.9323 27.9874 35.0865 22.0304 35.0865Z" fill="black"/>
<path d="M23.7545 51.38C24.3106 51.38 24.7618 50.9294 24.7618 50.3728C24.7618 49.8167 24.3106 49.3655 23.7545 49.3655H23.0771V41.4047C23.0771 41.0527 22.893 40.7259 22.5918 40.5434C22.2907 40.3608 21.9161 40.3487 21.6039 40.5119L19.8405 41.432C19.3473 41.6891 19.1564 42.2976 19.4134 42.7907C19.671 43.2839 20.2796 43.4753 20.7728 43.2178L21.0624 43.0667V49.3661H20.3851C19.829 49.3661 19.3778 49.8167 19.3778 50.3733C19.3778 50.9294 19.829 51.3805 20.3851 51.3805H23.7545V51.38Z" fill="white"/>
<path d="M41.33 36.0218H42.6794C43.2356 36.0218 43.6868 35.5706 43.6868 35.0146C43.6868 34.458 43.2356 34.0073 42.6794 34.0073H41.33C40.7739 34.0073 40.3227 34.458 40.3227 35.0146C40.3227 35.5706 40.7739 36.0218 41.33 36.0218Z" fill="black"/>
<path d="M47.9533 36.0218H49.3022C49.8589 36.0218 50.3096 35.5706 50.3096 35.0146C50.3096 34.458 49.8589 34.0073 49.3022 34.0073H47.9533C47.3967 34.0073 46.946 34.458 46.946 35.0146C46.946 35.5706 47.3967 36.0218 47.9533 36.0218Z" fill="black"/>
<path d="M54.5761 36.0218H55.925C56.4817 36.0218 56.9323 35.5706 56.9323 35.0146C56.9323 34.458 56.4817 34.0073 55.925 34.0073H54.5761C54.0194 34.0073 53.5687 34.458 53.5687 35.0146C53.5687 35.5706 54.02 36.0218 54.5761 36.0218Z" fill="black"/>
<path d="M61.1994 36.0218H62.5483C63.1049 36.0218 63.5556 35.5706 63.5556 35.0146C63.5556 34.458 63.1049 34.0073 62.5483 34.0073H61.1994C60.6427 34.0073 60.192 34.458 60.192 35.0146C60.192 35.5706 60.6427 36.0218 61.1994 36.0218Z" fill="black"/>
<path d="M41.33 41.2154H42.6794C43.2356 41.2154 43.6868 40.7642 43.6868 40.2082C43.6868 39.6516 43.2356 39.2009 42.6794 39.2009H41.33C40.7739 39.2009 40.3227 39.6516 40.3227 40.2082C40.3227 40.7642 40.7739 41.2154 41.33 41.2154Z" fill="black"/>
<path d="M47.9533 41.2154H49.3022C49.8589 41.2154 50.3096 40.7642 50.3096 40.2082C50.3096 39.6516 49.8589 39.2009 49.3022 39.2009H47.9533C47.3967 39.2009 46.946 39.6516 46.946 40.2082C46.946 40.7642 47.3967 41.2154 47.9533 41.2154Z" fill="black"/>
<path d="M54.5761 41.2154H55.925C56.4817 41.2154 56.9323 40.7642 56.9323 40.2082C56.9323 39.6516 56.4817 39.2009 55.925 39.2009H54.5761C54.0194 39.2009 53.5687 39.6516 53.5687 40.2082C53.5687 40.7642 54.02 41.2154 54.5761 41.2154Z" fill="black"/>
<path d="M61.1994 41.2154H62.5483C63.1049 41.2154 63.5556 40.7642 63.5556 40.2082C63.5556 39.6516 63.1049 39.2009 62.5483 39.2009H61.1994C60.6427 39.2009 60.192 39.6516 60.192 40.2082C60.192 40.7642 60.6427 41.2154 61.1994 41.2154Z" fill="black"/>
<path d="M41.33 46.4085H42.6794C43.2356 46.4085 43.6868 45.9579 43.6868 45.4013C43.6868 44.8447 43.2356 44.394 42.6794 44.394H41.33C40.7739 44.394 40.3227 44.8447 40.3227 45.4013C40.3227 45.9579 40.7739 46.4085 41.33 46.4085Z" fill="black"/>
<path d="M47.9533 46.4085H49.3022C49.8589 46.4085 50.3096 45.9579 50.3096 45.4013C50.3096 44.8447 49.8589 44.394 49.3022 44.394H47.9533C47.3967 44.394 46.946 44.8447 46.946 45.4013C46.946 45.9579 47.3967 46.4085 47.9533 46.4085Z" fill="black"/>
<path d="M54.5761 46.4085H55.925C56.4817 46.4085 56.9323 45.9579 56.9323 45.4013C56.9323 44.8447 56.4817 44.394 55.925 44.394H54.5761C54.0194 44.394 53.5687 44.8447 53.5687 45.4013C53.5687 45.9579 54.02 46.4085 54.5761 46.4085Z" fill="black"/>
<path d="M61.1994 46.4085H62.5483C63.1049 46.4085 63.5556 45.9579 63.5556 45.4013C63.5556 44.8447 63.1049 44.394 62.5483 44.394H61.1994C60.6427 44.394 60.192 44.8447 60.192 45.4013C60.192 45.9579 60.6427 46.4085 61.1994 46.4085Z" fill="black"/>
<path d="M41.33 51.6026H42.6794C43.2356 51.6026 43.6868 51.1514 43.6868 50.5954C43.6868 50.0388 43.2356 49.5881 42.6794 49.5881H41.33C40.7739 49.5881 40.3227 50.0388 40.3227 50.5954C40.3227 51.1514 40.7739 51.6026 41.33 51.6026Z" fill="black"/>
<path d="M47.9533 51.6026H49.3022C49.8589 51.6026 50.3096 51.1514 50.3096 50.5954C50.3096 50.0388 49.8589 49.5881 49.3022 49.5881H47.9533C47.3967 49.5881 46.946 50.0388 46.946 50.5954C46.946 51.1514 47.3967 51.6026 47.9533 51.6026Z" fill="black"/>
<path d="M54.5761 51.6026H55.925C56.4817 51.6026 56.9323 51.1514 56.9323 50.5954C56.9323 50.0388 56.4817 49.5881 55.925 49.5881H54.5761C54.0194 49.5881 53.5687 50.0388 53.5687 50.5954C53.5687 51.1514 54.02 51.6026 54.5761 51.6026Z" fill="black"/>
<path d="M61.1994 51.6026H62.5483C63.1049 51.6026 63.5556 51.1514 63.5556 50.5954C63.5556 50.0388 63.1049 49.5881 62.5483 49.5881H61.1994C60.6427 49.5881 60.192 50.0388 60.192 50.5954C60.192 51.1514 60.6427 51.6026 61.1994 51.6026Z" fill="black"/>
<path d="M41.33 56.7964H42.6794C43.2356 56.7964 43.6868 56.3458 43.6868 55.7892C43.6868 55.2326 43.2356 54.782 42.6794 54.782H41.33C40.7739 54.782 40.3227 55.2326 40.3227 55.7892C40.3227 56.3458 40.7739 56.7964 41.33 56.7964Z" fill="black"/>
<path d="M47.9533 56.7964H49.3022C49.8589 56.7964 50.3096 56.3458 50.3096 55.7892C50.3096 55.2326 49.8589 54.782 49.3022 54.782H47.9533C47.3967 54.782 46.946 55.2326 46.946 55.7892C46.946 56.3458 47.3967 56.7964 47.9533 56.7964Z" fill="black"/>
<path d="M54.5761 56.7964H55.925C56.4817 56.7964 56.9323 56.3458 56.9323 55.7892C56.9323 55.2326 56.4817 54.782 55.925 54.782H54.5761C54.0194 54.782 53.5687 55.2326 53.5687 55.7892C53.5687 56.3458 54.02 56.7964 54.5761 56.7964Z" fill="black"/>
<path d="M61.1994 56.7964H62.5483C63.1049 56.7964 63.5556 56.3458 63.5556 55.7892C63.5556 55.2326 63.1049 54.782 62.5483 54.782H61.1994C60.6427 54.782 60.192 55.2326 60.192 55.7892C60.192 56.3458 60.6427 56.7964 61.1994 56.7964Z" fill="black"/>
<path fill-rule="evenodd" clip-rule="evenodd" d="M32.6537 17.2858C32.6537 18.7604 31.4538 19.9597 29.979 19.9597H28.6543C27.1794 19.9597 25.9801 18.7599 25.9801 17.2858V14.9151C25.9801 13.4405 27.18 12.2407 28.6543 12.2407H29.979C31.4538 12.2407 32.6537 13.4405 32.6537 14.9151V17.2858ZM27.9948 14.9149V17.2856C27.9948 17.6491 28.2907 17.945 28.6543 17.945H29.9795C30.3431 17.945 30.639 17.6491 30.639 17.2856V14.9149C30.639 14.5508 30.3431 14.2549 29.9795 14.2549H28.6543C28.2907 14.2549 27.9948 14.5508 27.9948 14.9149Z" fill="black"/>
<path d="M36.149 14.2552H37.4738C37.7692 14.2552 38.0304 14.4545 38.1086 14.7399C38.256 15.2761 38.8101 15.5924 39.3468 15.4439C39.8835 15.2965 40.1989 14.742 40.0514 14.2059C39.733 13.0486 38.6731 12.2407 37.4738 12.2407H36.1495C34.6747 12.2407 33.4748 13.4405 33.4748 14.9146V17.2853C33.4748 18.7599 34.6747 19.9597 36.1495 19.9597H37.4738C38.4984 19.9597 39.446 19.3606 39.8877 18.4341C40.127 17.9316 39.914 17.3304 39.4113 17.0912C38.9098 16.852 38.308 17.0649 38.0687 17.5675C37.958 17.8004 37.7298 17.9452 37.4738 17.9452H36.1495C35.7854 17.9452 35.4895 17.6493 35.4895 17.2853V14.9151C35.4895 14.5511 35.7854 14.2552 36.149 14.2552Z" fill="black"/>
<path d="M43.6485 19.9597C44.2046 19.9597 44.6558 19.5091 44.6558 18.9525V14.2552H45.7807C46.3374 14.2552 46.788 13.8046 46.788 13.248C46.788 12.6914 46.3374 12.2407 45.7807 12.2407H41.5157C40.9591 12.2407 40.5084 12.6914 40.5084 13.248C40.5084 13.8046 40.9591 14.2552 41.5157 14.2552H42.6411V18.9525C42.6411 19.5091 43.0918 19.9597 43.6485 19.9597Z" fill="black"/>
<path d="M11.8526 60.1604C11.8494 60.1604 11.8468 60.1604 11.8437 60.1604C11.2917 60.1604 10.8416 60.6058 10.8363 61.1587C10.8316 61.7153 11.2786 62.1701 11.8347 62.1749H11.8494H11.8583C12.4108 62.1749 12.8604 61.73 12.8657 61.1771C12.8704 60.6205 12.4234 60.1656 11.8673 60.1604H11.8526Z" fill="black"/>
<path d="M14.6343 60.1604C14.6312 60.1604 14.6285 60.1604 14.6254 60.1604C14.0735 60.1604 13.6233 60.6058 13.6181 61.1587C13.6133 61.7153 14.0603 62.1701 14.6165 62.1749H14.6312H14.6401C15.1926 62.1749 15.6422 61.73 15.6474 61.1771C15.6522 60.6205 15.2051 60.1656 14.649 60.1604H14.6343Z" fill="black"/>
<path d="M2.85 11.175C2.85 8.78637 4.78637 6.85 7.175 6.85H65.5931C67.9817 6.85 69.9181 8.78637 69.9181 11.175V68.93C69.9181 69.6038 69.3719 70.15 68.6981 70.15H4.07C3.39621 70.15 2.85 69.6038 2.85 68.93V11.175Z" stroke="black" stroke-width="1.7"/>
</svg>
