<svg width="74" height="73" viewBox="0 0 74 73" fill="none" xmlns="http://www.w3.org/2000/svg">
<circle cx="63.5" cy="20.5" r="8.5" fill="#AB54FF"/>
<path d="M66.8333 17.25L60.875 23.2083L58.1667 20.5" stroke="white" stroke-width="2" stroke-linecap="round" stroke-linejoin="round"/>
<path d="M40.4065 63.2512C40.9676 63.6493 41.614 63.7715 42.2761 63.6037C42.4421 63.5618 42.6456 63.4889 42.8791 63.3647C43.0255 63.6942 43.2622 64.0105 43.6172 64.3026C45.0631 65.4921 47.323 65.0902 48.6139 63.8582C48.8135 63.6677 48.9876 63.4622 49.135 63.2454C50.3623 63.8856 52.5369 64.2533 56.3228 63.1529C56.8901 62.9879 57.2164 62.3943 57.0515 61.8269C56.8865 61.2594 56.2928 60.9329 55.7255 61.0982C50.9127 62.4971 49.769 61.1389 49.6336 60.9428C49.4876 60.4355 49.0061 60.1648 48.4773 60.2378C47.9382 60.3126 47.5598 60.8388 47.5735 61.383C47.5843 61.8166 47.3041 62.1504 47.1362 62.3108C46.738 62.691 46.1688 62.9045 45.6542 62.8677C45.3622 62.8469 45.1216 62.7696 44.9766 62.6504C44.6926 62.4166 44.8001 61.9887 45.4766 60.6599C45.6906 60.2396 45.9119 59.805 46.0771 59.3644C46.2773 58.8305 46.0237 58.2333 45.5003 58.0068C44.9769 57.7805 44.3679 58.0042 44.1158 58.5156C43.7019 59.3554 43.21 60.2014 42.5751 60.8956C42.2101 61.2948 41.3773 61.9235 41.4884 60.8799C41.5921 59.9062 42.2328 59.1193 42.7591 58.3349C43.1251 57.7894 43.5398 57.171 43.9513 56.8425C44.413 56.4739 44.4884 55.8008 44.12 55.339C43.7514 54.8773 43.0784 54.8018 42.6155 55.1711C41.9921 55.6684 41.3753 56.1663 40.7605 56.6626C38.419 58.5527 36.2072 60.3382 33.75 62.0122C33.2617 62.3449 33.1355 63.0104 33.4681 63.4987C33.8009 63.9871 34.4663 64.1133 34.9546 63.7806C36.4878 62.7362 37.9549 61.6278 39.3787 60.5086C39.372 60.5567 39.3661 60.605 39.3609 60.6536C39.2422 61.7659 39.6135 62.6883 40.4065 63.2512Z" fill="black"/>
<path d="M14.9012 10.1283H46.6637C47.2545 10.1283 47.7336 9.64941 47.7336 9.05843C47.7336 8.46759 47.2547 7.98853 46.6637 7.98853H14.9012C14.3104 7.98853 13.8313 8.46744 13.8313 9.05843C13.8315 9.64927 14.3104 10.1283 14.9012 10.1283Z" fill="black"/>
<path d="M14.9012 15.8105H44.0411C44.632 15.8105 45.111 15.3315 45.111 14.7406C45.111 14.1497 44.632 13.6707 44.0411 13.6707H14.9012C14.3104 13.6707 13.8313 14.1496 13.8313 14.7406C13.8315 15.3314 14.3104 15.8105 14.9012 15.8105Z" fill="black"/>
<path d="M14.9012 21.4928H44.0411C44.632 21.4928 45.111 21.0139 45.111 20.4229C45.111 19.8319 44.632 19.353 44.0411 19.353H14.9012C14.3104 19.353 13.8313 19.8321 13.8313 20.4229C13.8313 21.0138 14.3104 21.4928 14.9012 21.4928Z" fill="black"/>
<path d="M14.9012 27.175H46.6637C47.2545 27.175 47.7336 26.6959 47.7336 26.1051C47.7336 25.5142 47.2547 25.0352 46.6637 25.0352H14.9012C14.3104 25.0352 13.8313 25.5142 13.8313 26.1051C13.8313 26.6959 14.3104 27.175 14.9012 27.175Z" fill="black"/>
<path d="M14.9012 32.8573H49.1317C49.7226 32.8573 50.2016 32.3783 50.2016 31.7874C50.2016 31.1966 49.7226 30.7175 49.1317 30.7175H14.9012C14.3104 30.7175 13.8313 31.1964 13.8313 31.7874C13.8313 32.3784 14.3104 32.8573 14.9012 32.8573Z" fill="black"/>
<path d="M14.9012 38.5398H53.8029C54.3937 38.5398 54.8728 38.0609 54.8728 37.4699C54.8728 36.8791 54.3937 36.4001 53.8029 36.4001H14.9012C14.3104 36.4001 13.8313 36.8791 13.8313 37.4699C13.8315 38.0609 14.3104 38.5398 14.9012 38.5398Z" fill="black"/>
<path d="M14.9012 44.2218H53.8029C54.3937 44.2218 54.8728 43.7429 54.8728 43.1519C54.8728 42.5611 54.3937 42.082 53.8029 42.082H14.9012C14.3104 42.082 13.8313 42.5609 13.8313 43.1519C13.8315 43.7428 14.3104 44.2218 14.9012 44.2218Z" fill="black"/>
<path d="M14.9012 49.9043H53.8029C54.3937 49.9043 54.8728 49.4254 54.8728 48.8346C54.8728 48.2437 54.3937 47.7646 53.8029 47.7646H14.9012C14.3104 47.7646 13.8313 48.2436 13.8313 48.8346C13.8315 49.4253 14.3104 49.9043 14.9012 49.9043Z" fill="black"/>
<path d="M62.9257 8.61598V2.40572C62.9257 1.07917 61.8464 0 60.52 0H10.4057C9.07917 0 8 1.07917 8 2.40572V70.5941C8 71.9207 9.07917 72.9999 10.4057 72.9999H24.9658C25.5566 72.9999 26.0357 72.5209 26.0357 71.93C26.0357 71.3391 25.5568 70.8601 24.9658 70.8601H10.4057C10.259 70.8601 10.1397 70.7407 10.1397 70.594V2.40572C10.1397 2.259 10.259 2.13967 10.4057 2.13967H60.52C60.6667 2.13967 60.786 2.259 60.786 2.40572V8.61555C58.7127 8.80989 56.7585 9.56769 55.0822 10.8399C54.6116 11.1971 54.5196 11.8682 54.8767 12.3388C55.2338 12.8093 55.9049 12.9016 56.3757 12.5443C57.9626 11.3399 59.8576 10.7035 61.8558 10.7035C66.8594 10.7035 70.9303 14.7742 70.9303 19.778C70.9303 24.7817 66.8596 28.8525 61.8558 28.8525C56.852 28.8525 52.7813 24.7817 52.7813 19.778C52.7813 18.4516 53.0606 17.1736 53.6117 15.98C53.8593 15.4435 53.6251 14.8079 53.0887 14.5602C52.552 14.3125 51.9165 14.5468 51.669 15.0832C50.9874 16.5601 50.6418 18.1396 50.6418 19.7778C50.6418 25.6004 55.1027 30.3992 60.786 30.9397V70.5941C60.786 70.7409 60.6667 70.8602 60.52 70.8602H29.9345C29.3436 70.8602 28.8646 71.3391 28.8646 71.9301C28.8646 72.5209 29.3435 73 29.9345 73H60.5198C61.8464 73 62.9256 71.9208 62.9256 70.5943V30.9397C68.609 30.399 73.0698 25.6004 73.0698 19.7778C73.0698 13.9552 68.609 9.15649 62.9257 8.61598Z" fill="black"/>
</svg>
