<svg width="86" height="86" viewBox="0 0 86 86" fill="none" xmlns="http://www.w3.org/2000/svg">
<g clip-path="url(#clip0_602_5162)">
<path d="M67.8789 68.3491C66.6699 68.3267 65.1697 67.9013 63.9159 66.7818C62.1471 65.1921 62.1695 62.8635 63.9607 61.2962C66.2892 59.2363 70.4538 59.2587 72.76 61.3186C74.484 62.8635 74.484 65.1921 72.7823 66.7594C71.7076 67.7893 70.0731 68.3491 67.8789 68.3491Z" fill="#7231E5"/>
<path d="M-0.000731587 68.1999C0.581409 66.4983 1.81286 65.8937 3.55928 65.9161C6.80583 65.9833 10.0524 65.9385 13.2989 65.9385C13.6124 65.9385 13.9035 65.9385 14.2841 65.9385C14.4408 61.1918 16.0305 57.0944 19.389 53.7583C22.7251 50.4446 26.8001 48.8549 31.5244 48.7206C31.5244 47.9593 31.5692 47.2652 31.502 46.5711C31.4796 46.3472 31.1662 46.101 30.9423 45.989C25.8597 43.6157 22.8147 39.675 21.7176 34.1895C21.6952 34.0551 21.6504 33.9208 21.6728 33.7641C21.7176 33.0924 21.4041 32.7789 20.7548 32.5102C18.5158 31.5698 17.262 29.7786 17.2172 27.3605C17.1724 22.9945 17.0828 18.6284 17.3291 14.2624C17.6874 7.23191 23.7775 0.940323 30.7855 0.201453C32.9574 -0.0224467 35.1516 0.0447233 37.3234 0.0223333C40.2341 -5.66652e-05 43.1448 0.0447233 46.0555 -5.66652e-05C47.6004 -0.0224467 48.899 0.358183 49.6827 1.76875C50.4887 3.20171 50.2424 4.5675 49.2125 5.88851C49.4588 5.95568 49.6827 6.02285 49.8842 6.09002C54.1383 7.23191 57.1833 11.0158 57.2729 15.4043C57.3625 19.4121 57.3401 23.3975 57.2729 27.4053C57.2281 29.8906 55.9071 31.6146 53.6457 32.555C53.1308 32.7565 52.9516 33.0028 52.8621 33.5626C52.0113 39.1601 49.0558 43.2798 43.9509 45.7651C43.1448 46.1457 42.8761 46.5711 42.9657 47.3772C43.0105 47.7802 42.9657 48.2056 42.9657 48.5639C44.8912 48.8997 46.7496 49.2132 48.6751 49.549C48.6528 49.5714 48.7199 49.4818 48.7423 49.3923C49.1901 47.9145 49.9514 47.3324 51.4963 47.3324C53.9816 47.31 56.4669 47.3324 58.9745 47.3324C66.923 47.3324 74.8714 47.3324 82.8199 47.3324C85.0813 47.3324 85.9545 48.228 85.9545 50.4894C85.9545 61.1023 85.9321 71.6927 85.9769 82.3056C85.9769 84.0744 85.4395 85.3506 83.7603 86.0223C62.2211 86.0223 40.6595 86.0223 19.0979 86.0223C17.9561 85.485 16.8142 84.9476 15.5603 84.3655C15.0454 84.6118 14.3513 85.0372 13.59 85.3282C12.8064 85.6193 12.0003 85.7984 11.1943 86.0223C10.3435 86.0223 9.51502 86.0223 8.68659 86.0223C8.52986 85.9776 8.37313 85.9104 8.2164 85.8656C4.02947 84.97 1.36506 82.4623 0.223168 78.3202C0.133608 77.9843 0.0440484 77.6261 -0.0679016 77.2902C-0.000731587 74.2452 -0.000731587 71.2225 -0.000731587 68.1999ZM48.6528 75.9468C48.6975 75.7453 48.7199 75.6558 48.7199 75.5886C48.7199 68.1775 48.7199 60.7664 48.6975 53.3553C48.6975 53.109 48.3841 52.6836 48.1378 52.6164C46.6824 52.2358 45.2047 51.9447 43.7493 51.6313C43.1224 51.4969 42.7642 51.6985 42.5179 52.3478C41.6895 54.5196 39.5848 55.9078 37.301 55.9078C34.9949 55.9302 32.8902 54.4972 31.9946 52.3478C31.905 52.1239 31.8155 51.8776 31.7259 51.6537C22.8595 51.4074 16.8366 59.3558 17.3515 65.9833C18.4039 65.9833 19.4562 65.9385 20.5085 65.9833C22.9266 66.1176 25.1209 67.7297 25.5239 70.103C25.8597 72.051 25.8821 74.1332 25.5239 76.0812C25.0761 78.656 22.7027 80.2457 19.9712 80.3129C19.6353 80.3129 19.1651 80.4024 18.9636 80.6263C18.5606 81.0741 18.3143 81.6563 17.9784 82.1936C18.6501 82.9101 19.4562 83.1564 20.3966 83.1564C25.7702 83.1564 31.1438 83.1564 36.5174 83.1564C36.7637 83.1564 37.01 83.134 37.301 83.1116C37.301 81.6339 37.2786 80.2009 37.301 78.7904C37.3234 77.5813 38.0847 76.529 39.1818 76.1707C39.6296 76.0364 40.1222 75.9916 40.5924 75.9916C43.2344 75.9468 45.9212 75.9468 48.6528 75.9468ZM51.6306 50.2207C51.6306 58.8409 51.6306 67.3491 51.6306 75.8797C62.1315 75.8797 72.5877 75.8797 83.0662 75.8797C83.0662 67.3043 83.0662 58.7961 83.0662 50.2207C72.5877 50.2207 62.1315 50.2207 51.6306 50.2207ZM54.4294 25.2111C54.4294 24.5618 54.4294 23.9349 54.4294 23.2855C54.4294 23.2632 54.4294 23.2408 54.4294 23.196C54.407 22.166 53.9144 21.5615 53.0636 21.5167C52.2575 21.472 51.7202 22.0093 51.5635 22.9945C51.4067 23.9125 50.8694 24.405 50.0633 24.3603C49.3245 24.3155 48.8095 23.7781 48.6975 22.9273C48.4736 20.957 47.4437 19.9047 45.4734 19.7031C42.697 19.4121 40.1446 18.4941 37.8384 16.9044C37.3682 16.5685 37.0771 16.5909 36.6069 16.9044C34.3455 18.4941 31.7931 19.4121 29.0167 19.7031C27.0912 19.9047 26.0612 20.9346 25.8149 22.8601C25.6806 23.8005 25.2104 24.3379 24.4268 24.3827C23.6431 24.4274 23.1281 23.9349 22.9266 22.9945C22.7251 21.9869 22.2102 21.4943 21.4041 21.5391C20.5757 21.5839 20.0607 22.1884 20.0383 23.2408C20.0159 24.4498 20.0383 25.6365 20.0383 26.8456C20.0607 28.883 20.8891 29.8458 22.949 30.1369C23.8222 30.2712 24.2924 30.7414 24.3372 31.637C24.382 32.2415 24.4044 32.8685 24.4939 33.473C25.3671 40.4363 32.42 45.586 39.3385 44.3098C45.5853 43.1455 49.7723 38.3764 50.1529 31.9729C50.2424 30.6071 50.5335 30.2936 51.8993 30.1369C53.3099 29.9802 54.3622 28.883 54.4294 27.4501C54.4518 26.6664 54.4294 25.9276 54.4294 25.2111ZM54.4294 18.5389C54.4294 17.9119 54.4294 17.0163 54.4294 16.1207C54.407 11.6427 51.3843 8.5977 46.8839 8.5977C45.1151 8.5977 43.3687 8.62009 41.5999 8.5977C40.7267 8.5977 40.1446 8.01556 40.1222 7.20952C40.0998 6.42587 40.6819 5.79895 41.5551 5.75417C42.1149 5.70939 42.6746 5.66461 43.2344 5.75417C44.7345 5.97807 45.8988 5.48549 46.7496 4.25404C46.9511 3.96297 47.0631 3.60473 47.2198 3.26888C46.8839 3.13454 46.5481 2.88825 46.2122 2.88825C41.7566 2.86586 37.3234 2.84347 32.8678 2.88825C29.1958 2.93303 26.0612 4.32121 23.5312 6.98562C20.3742 10.3217 19.7249 14.3967 20.1503 18.8523C21.5608 18.4045 22.8371 18.6956 24.0461 19.4121C25.2328 17.8448 26.7777 17.0163 28.6585 16.8372C31.1885 16.5909 33.4723 15.6729 35.5322 14.2176C36.7189 13.3668 37.816 13.3668 39.0251 14.24C41.1073 15.6953 43.3687 16.6133 45.9212 16.8596C47.7124 17.0387 49.1901 17.7776 50.3096 19.1882C50.3768 19.2777 50.4663 19.3225 50.5559 19.3897C50.5559 19.3001 50.5559 19.2106 50.5559 19.121C51.7874 18.9419 53.0412 18.7404 54.4294 18.5389ZM17.0828 68.8716C12.3362 68.8716 7.63426 68.8716 2.88758 68.8716C2.88758 71.4688 2.77563 74.0213 2.90997 76.5514C3.13387 80.1562 6.13413 82.9549 9.69414 83.1116C13.2765 83.2684 16.635 80.7607 17.0157 77.2007C17.3291 74.4915 17.0828 71.6927 17.0828 68.8716ZM51.6306 78.8575C51.6306 80.2905 51.6306 81.6563 51.6306 83.0892C62.1315 83.0892 72.5877 83.0892 83.0662 83.0892C83.0662 81.6563 83.0662 80.2905 83.0662 78.8575C72.5653 78.8575 62.1315 78.8575 51.6306 78.8575ZM48.6751 78.8799C45.7644 78.8799 42.9657 78.8799 40.1893 78.8799C40.1893 80.3353 40.1893 81.7011 40.1893 83.0669C43.0553 83.0669 45.854 83.0669 48.6751 83.0669C48.6751 81.6563 48.6751 80.2905 48.6751 78.8799ZM34.4127 47.1981C34.4127 48.1832 34.3903 49.2132 34.4127 50.2207C34.4575 51.7432 35.577 52.9075 37.0771 53.0195C38.4877 53.1314 39.8759 52.1015 40.055 50.6237C40.1893 49.4595 40.0774 48.2504 40.0774 47.1757C38.1966 47.1981 36.3606 47.1981 34.4127 47.1981ZM20.0607 68.894C20.0607 71.7599 20.0607 74.5587 20.0607 77.3574C21.5832 77.2678 22.7027 76.417 22.8371 75.0512C22.949 73.7526 22.949 72.4316 22.8371 71.133C22.7027 69.7896 21.5161 68.8492 20.0607 68.894Z" fill="black"/>
<path d="M7.3887 57.3182C7.00807 58.3034 6.62744 59.2214 6.29159 60.1617C6.09008 60.6767 5.84379 61.1693 5.73184 61.7067C5.55272 62.5799 5.01536 63.0948 4.18693 63.0277C3.42567 62.9829 2.77636 62.4007 2.88831 61.5723C3.02265 60.6319 3.29133 59.6468 3.73913 58.8407C4.34366 57.766 4.36605 56.8704 3.73913 55.7957C3.29133 55.0344 3.02265 54.1165 2.88831 53.2209C2.73158 52.3253 3.38089 51.6536 4.18693 51.5864C4.97058 51.5192 5.55272 52.1237 5.73184 53.0193C5.8214 53.5343 6.09008 54.0045 6.2692 54.4747C6.62744 55.4151 7.00807 56.3331 7.3887 57.3182Z" fill="black"/>
<path d="M14.4416 52.9971C14.2401 53.7808 14.0833 54.4749 13.837 55.1466C13.5236 56.0198 13.1429 56.8706 12.8071 57.7438C12.5608 58.4155 11.9115 58.8857 11.2622 58.7513C10.5233 58.5946 9.96356 58.1244 10.0755 57.3856C10.2322 56.4228 10.4561 55.4152 10.9263 54.5644C11.5309 53.4897 11.5309 52.6165 10.9263 51.5194C10.4561 50.6686 10.2322 49.661 10.0755 48.6982C9.96356 47.9594 10.5681 47.422 11.2846 47.3548C12.0458 47.2653 12.6056 47.6907 12.8519 48.4296C13.1206 49.2132 13.4564 49.9521 13.7475 50.7133C14.0162 51.4522 14.2177 52.2359 14.4416 52.9971Z" fill="black"/>
<path d="M68.2895 55.9077C69.6777 55.9077 71.8048 56.6018 73.596 58.1467C76.6634 60.8335 76.7082 65.11 73.7079 67.864C70.2598 71.021 64.3041 70.9762 60.9008 67.752C58.0349 65.0428 58.0797 60.9231 60.9904 58.2587C62.6472 56.7361 64.8862 55.9077 68.2895 55.9077ZM66.8789 67.349C69.0508 67.349 70.6852 66.7669 71.7824 65.7593C73.484 64.192 73.484 61.8635 71.76 60.3185C69.4538 58.2363 65.2669 58.2363 62.9607 60.2962C61.1919 61.8635 61.1695 64.192 62.9159 65.7817C64.1697 66.9012 65.6923 67.3266 66.8789 67.349Z" fill="black"/>
<path d="M37.257 40.1453C34.5702 40.0557 32.3312 39.0258 30.6071 36.9659C29.913 36.1375 29.9354 35.3315 30.6295 34.7493C31.3012 34.1896 32.1073 34.3463 32.8237 35.13C35.3538 37.9959 39.1377 37.9959 41.735 35.13C42.4067 34.3911 43.056 34.212 43.7277 34.615C44.3322 34.9732 44.6009 35.6897 44.3546 36.3614C44.265 36.5853 44.1083 36.8092 43.9516 36.9883C42.1828 39.0482 39.9438 40.0557 37.257 40.1453Z" fill="black"/>
<path d="M5.73184 74.6257C5.73184 74.1331 5.70945 73.6182 5.73184 73.1256C5.77662 72.2524 6.38115 71.6926 7.18719 71.715C7.99324 71.715 8.55299 72.2748 8.57538 73.1704C8.59777 73.9988 8.57538 74.8496 8.59777 75.678C8.62016 76.7752 9.02318 77.2453 10.0979 77.4245C11.0383 77.5812 11.5309 78.1633 11.4413 79.0142C11.3517 79.8202 10.6576 80.3352 9.73966 80.268C7.56783 80.1337 5.84379 78.3425 5.73184 76.1482C5.70945 75.6333 5.73184 75.1183 5.73184 74.6257Z" fill="black"/>
</g>
<defs>
<clipPath id="clip0_602_5162">
<rect width="86" height="86" fill="white"/>
</clipPath>
</defs>
</svg>
