<svg width="86" height="86" viewBox="0 0 86 86" fill="none" xmlns="http://www.w3.org/2000/svg">
<g clip-path="url(#clip0_653_5705)">
<path d="M85.1299 81.6001C85.1299 82.465 85.1533 83.3533 85.1299 84.2182C85.1065 84.8494 84.6858 85.1532 84.078 85.1532C83.2598 85.1766 82.4417 85.1532 81.6235 85.1532C81.7404 83.4468 83.3066 81.8572 85.1299 81.6001Z" fill="#7231E5"/>
<path d="M56.9152 85.1533C56.0503 85.1533 55.2321 85.1767 54.414 85.1533C53.7127 85.1299 53.362 84.7559 53.3387 84.0546C53.3153 83.2365 53.3387 82.4417 53.3387 81.6235C55.0685 81.7638 56.5646 83.2365 56.9152 85.1533Z" fill="#7231E5"/>
<path d="M66.3824 44.0583C66.3824 45.9284 66.3824 47.7284 66.3824 49.5751C64.5357 49.5751 62.7358 49.5751 60.8891 49.5751C60.8891 47.7517 60.8891 45.9284 60.8891 44.0583C62.7124 44.0583 64.5124 44.0583 66.3824 44.0583Z" fill="#7231E5"/>
<path d="M36.5548 49.5519C36.5548 47.6818 36.5548 45.9052 36.5548 44.0352C38.4015 44.0352 40.178 44.0352 42.0481 44.0352C42.0481 45.8585 42.0481 47.6818 42.0481 49.5519C40.2482 49.5519 38.4482 49.5519 36.5548 49.5519Z" fill="#7231E5"/>
<path d="M48.757 44.0352C50.5803 44.0352 52.3802 44.0352 54.2503 44.0352C54.2503 45.8585 54.2503 47.6818 54.2503 49.5519C52.427 49.5519 50.6271 49.5519 48.757 49.5519C48.757 47.7285 48.757 45.9052 48.757 44.0352Z" fill="#7231E5"/>
<path d="M48.757 31.9031C50.6037 31.9031 52.3802 31.9031 54.2503 31.9031C54.2503 33.7264 54.2503 35.5263 54.2503 37.3964C52.4504 37.3964 50.6271 37.3964 48.757 37.3964C48.757 35.5965 48.757 33.7965 48.757 31.9031Z" fill="#7231E5"/>
<path d="M42.0481 37.4198C40.2248 37.4198 38.4249 37.4198 36.5782 37.4198C36.5782 35.5731 36.5782 33.7732 36.5782 31.9031C38.4015 31.9031 40.2014 31.9031 42.0481 31.9031C42.0481 33.7264 42.0481 35.5497 42.0481 37.4198Z" fill="#7231E5"/>
<path d="M42.0715 25.2175C40.2014 25.2175 38.4015 25.2175 36.5548 25.2175C36.5548 23.3708 36.5548 21.5942 36.5548 19.7241C38.4015 19.7241 40.2014 19.7241 42.0715 19.7241C42.0715 21.5708 42.0715 23.3708 42.0715 25.2175Z" fill="#7231E5"/>
<mask id="path-2-outside-1_653_5705" maskUnits="userSpaceOnUse" x="-1" y="-1" width="88" height="88" fill="black">
<rect fill="white" x="-1" y="-1" width="88" height="88"/>
<path d="M62.6241 61.6657C66.3876 61.6657 70.0576 61.6657 73.9848 61.6657C73.8211 60.567 73.7276 59.5151 73.4939 58.5099C73.3302 57.8788 73.3302 57.3879 73.9614 57.1307C74.5692 56.8736 75.0367 57.2009 75.2003 57.7385C75.4575 58.6034 75.5977 59.4917 75.738 60.38C75.8081 60.7774 75.738 61.1982 75.738 61.7358C76.112 61.7358 76.4159 61.7358 76.7198 61.7358C78.8002 61.7358 80.8573 61.7358 82.9378 61.7358C84.878 61.7592 85.9766 62.8345 85.9766 64.7747C85.9766 70.829 85.9766 76.86 85.9766 82.9144C85.9766 84.9013 84.878 86 82.891 86C68.4914 86 54.0919 86 39.6689 86C39.5521 86 39.4352 86 39.3183 86C38.7339 86 38.3365 85.6961 38.3365 85.1117C38.3131 84.4806 38.7105 84.1767 39.3417 84.1533C41.0949 84.1533 42.8481 84.1533 44.6012 84.1533C44.9519 84.1533 45.3025 84.1533 45.7233 84.1533C45.7233 77.9119 45.7233 71.7407 45.7233 65.4993C42.7078 65.4993 39.6689 65.4993 36.4664 65.4993C36.4664 65.8032 36.4664 66.1305 36.4664 66.4811C36.4664 72.442 36.4664 78.4028 36.4664 84.3637C36.4664 85.813 36.2794 86 34.8769 86C23.7733 86 12.6697 86 1.56619 86C0.140255 86 0 85.8597 0 84.4338C0 64.9149 0 45.396 0 25.8771C0 24.4512 0.187007 24.2642 1.61294 24.2642C5.37646 24.2642 9.13998 24.2642 12.9269 24.2642C13.2541 24.2642 13.558 24.2642 13.9554 24.2642C13.9554 22.324 13.9554 20.4306 13.9554 18.4202C13.6282 18.5839 13.3476 18.7241 13.0671 18.8877C9.58413 20.6877 5.32971 20.15 2.47785 17.5086C1.68307 16.7839 1.68307 16.3865 2.4311 15.6151C6.21799 11.8282 9.98152 8.04132 13.7684 4.27779C14.5398 3.50639 14.9138 3.50639 15.6619 4.30117C18.6072 7.48029 18.8877 12.5061 16.3164 16.106C16.0593 16.4566 15.8956 16.9475 15.8956 17.3683C15.8489 19.8462 15.8722 22.324 15.8722 24.8252C15.8722 25.9239 15.6151 26.1577 14.5398 26.1577C10.6828 26.1577 6.82577 26.1577 2.96874 26.1577C2.64148 26.1577 2.33759 26.1577 1.9402 26.1577C1.9402 45.4662 1.9402 64.7279 1.9402 84.0598C10.9166 84.0598 19.8929 84.0598 28.9394 84.0598C28.9394 64.798 28.9394 45.5363 28.9394 26.1577C28.6589 26.1577 28.355 26.1577 28.0511 26.1577C25.1992 26.1577 22.324 26.1577 19.4721 26.1577C19.3085 26.1577 19.1215 26.1577 18.9579 26.1577C18.3033 26.1577 17.8358 25.9005 17.8358 25.2226C17.8358 24.5213 18.3501 24.2876 18.9812 24.2876C20.2903 24.2876 21.5993 24.2876 22.9318 24.2876C24.9421 24.2876 26.9524 24.2876 29.0563 24.2876C29.0563 23.8668 29.0563 23.5162 29.0563 23.1655C29.0563 15.9424 29.0563 8.74259 29.0563 1.51943C29.0563 0.187007 29.2433 0 30.5757 0C43.9 0 57.2242 0 70.5485 0C71.9043 0 72.0679 0.163631 72.0679 1.51943C72.0679 19.5189 72.0679 37.5184 72.0679 55.5178C72.0679 56.8269 71.8809 57.0372 70.5485 57.0372C68.9356 57.0372 67.346 57.0372 65.7331 57.0372C63.9331 57.0606 62.7643 58.206 62.741 59.9826C62.6241 60.5203 62.6241 61.0813 62.6241 61.6657ZM70.0576 55.1438C70.0576 37.308 70.0576 19.6124 70.0576 1.89345C56.9671 1.89345 43.9701 1.89345 30.9263 1.89345C30.9263 29.3134 30.9263 56.71 30.9263 84.0832C32.1886 84.0832 33.3574 84.0832 34.573 84.0832C34.573 83.6858 34.573 83.3819 34.573 83.0546C34.573 77.0704 34.573 71.0862 34.573 65.0786C34.573 63.7929 34.8067 63.5357 36.0924 63.5357C39.3884 63.5357 42.6844 63.5357 46.0038 63.5357C47.4765 63.5357 47.6869 63.7461 47.6869 65.1954C47.6869 71.1563 47.6869 77.1172 47.6869 83.078C47.6869 83.4053 47.7102 83.7559 47.7336 84.0598C48.7388 84.0598 49.6271 84.0598 50.492 84.0598C50.492 77.6314 50.492 71.2498 50.492 64.8915C50.492 62.741 51.5439 61.689 53.7179 61.689C55.7282 61.689 57.7385 61.689 59.7722 61.689C60.0761 61.689 60.38 61.6657 60.754 61.6423C60.754 61.1514 60.754 60.7774 60.754 60.4034C60.754 56.9905 62.6475 55.1204 66.0837 55.1204C67.3928 55.1438 68.7018 55.1438 70.0576 55.1438ZM73.8211 73.9147C70.0576 73.9147 66.3642 73.9147 62.6708 73.9147C62.5773 75.5276 62.5773 75.5276 60.7774 75.8549C60.754 76.0886 60.754 76.3691 60.7306 76.6263C60.7073 78.0989 60.4969 78.5665 59.7956 78.5431C59.1177 78.5197 58.9073 78.0756 58.9073 76.673C58.9073 76.3925 58.9073 76.112 58.9073 75.8549C57.1541 75.6211 57.1541 75.6211 56.9437 73.9614C55.4243 73.9614 53.9049 73.9614 52.3153 73.9614C52.3153 74.8029 52.3153 75.551 52.3153 76.299C52.3153 77.047 52.3153 77.7951 52.3153 78.5197C56.1022 79.9456 56.4762 80.3197 57.9489 84.1299C64.798 84.1299 71.6472 84.1299 78.5431 84.1299C79.1976 81.0677 81.0911 79.221 84.0832 78.5665C84.0832 76.9535 84.0832 75.4575 84.0832 73.9147C82.517 73.9147 81.0209 73.9147 79.5249 73.9147C79.3379 75.4575 79.3379 75.4575 77.5847 75.9016C77.5847 76.112 77.5613 76.3457 77.5613 76.5795C77.5379 78.0756 77.3509 78.5197 76.673 78.5431C75.9717 78.5665 75.738 78.0989 75.738 76.6263C75.738 76.3691 75.7146 76.112 75.6912 75.8549C73.9146 75.5276 73.9146 75.5276 73.8211 73.9147ZM79.4547 71.9043C81.0677 71.9043 82.5637 71.9043 84.1533 71.9043C84.1533 69.6135 84.1533 67.4161 84.1533 65.1954C84.1533 63.7929 83.9195 63.5591 82.5404 63.5591C77.5379 63.5591 72.5588 63.5591 67.5564 63.5591C62.9747 63.5591 58.393 63.5591 53.8114 63.5591C52.6426 63.5591 52.3621 63.8396 52.3387 64.9851C52.3387 65.8967 52.3387 66.785 52.3387 67.6967C52.3387 69.0992 52.3387 70.4784 52.3387 71.9043C53.9516 71.9043 55.4477 71.9043 57.0372 71.9043C57.0372 71.3667 57.0606 70.8758 57.0372 70.3849C57.0139 69.5901 57.3879 69.1693 58.1827 69.1693C59.2813 69.1693 60.4034 69.1693 61.502 69.1693C62.2968 69.1693 62.6708 69.5901 62.6475 70.3849C62.6241 70.8992 62.6475 71.4134 62.6475 71.9277C66.4344 71.9277 70.1044 71.9277 73.8679 71.9277C73.8679 71.3433 73.8679 70.7823 73.8679 70.2446C73.8679 69.5667 74.2419 69.1927 74.8964 69.1927C76.0886 69.1693 77.2808 69.1693 78.4963 69.1927C79.1508 69.2161 79.5015 69.6135 79.5015 70.268C79.4547 70.7823 79.4547 71.3199 79.4547 71.9043ZM4.30117 16.5735C7.38679 18.9812 11.8983 18.4436 14.4697 15.4281C17.1813 12.249 16.3398 7.69068 14.6567 6.21799C11.1971 9.65425 7.7608 13.0905 4.30117 16.5735ZM84.1299 80.6002C82.2832 80.8573 80.717 82.4469 80.6235 84.1533C81.4417 84.1533 82.2598 84.1533 83.078 84.1533C83.6858 84.1533 84.1065 83.826 84.1299 83.2183C84.1767 82.33 84.1299 81.4651 84.1299 80.6002ZM55.9152 84.1533C55.5646 82.2365 54.0685 80.7638 52.3387 80.6235C52.3387 81.4417 52.3387 82.2365 52.3387 83.0546C52.3387 83.7559 52.7127 84.1299 53.414 84.1533C54.2321 84.1533 55.0269 84.1533 55.9152 84.1533ZM60.6839 73.8211C60.6839 72.8627 60.6839 71.9745 60.6839 71.1095C60.0761 71.1095 59.5385 71.1095 58.9541 71.1095C58.9541 72.0446 58.9541 72.9095 58.9541 73.8211C59.5385 73.8211 60.0761 73.8211 60.6839 73.8211ZM77.5379 71.1095C76.9301 71.1095 76.3691 71.1095 75.8081 71.1095C75.8081 72.0446 75.8081 72.9329 75.8081 73.8211C76.4159 73.8211 76.9535 73.8211 77.5379 73.8211C77.5379 72.9095 77.5379 72.0446 77.5379 71.1095Z"/>
<path d="M4.65181 45.7934C4.65181 44.648 4.62843 43.526 4.65181 42.3805C4.67518 41.4455 4.97907 41.1182 5.93748 41.1182C8.20495 41.0949 10.4958 41.0949 12.7633 41.1182C13.6983 41.1182 14.0256 41.4455 14.0256 42.4039C14.0489 44.6714 14.0489 46.9622 14.0256 49.2297C14.0256 50.1647 13.6983 50.492 12.7399 50.492C10.4724 50.5153 8.18157 50.5153 5.91411 50.492C4.97907 50.492 4.67518 50.1647 4.65181 49.2063C4.62843 48.0609 4.65181 46.9388 4.65181 45.7934ZM6.56863 48.5518C8.46208 48.5518 10.2854 48.5518 12.1087 48.5518C12.1087 46.6817 12.1087 44.8818 12.1087 43.0584C10.2387 43.0584 8.43871 43.0584 6.56863 43.0584C6.56863 44.9051 6.56863 46.6817 6.56863 48.5518Z"/>
<path d="M16.8307 45.77C16.8307 44.6246 16.8307 43.5026 16.8307 42.3572C16.8307 41.4455 17.1345 41.1182 18.0228 41.1182C20.337 41.0949 22.6279 41.0949 24.9421 41.1182C25.8538 41.1182 26.1577 41.4455 26.1577 42.3338C26.1577 44.648 26.1577 46.9388 26.1577 49.2531C26.1577 50.1647 25.8538 50.492 24.9655 50.492C22.6513 50.5153 20.3604 50.5153 18.0462 50.492C17.1345 50.492 16.8307 50.1881 16.8307 49.2764C16.8307 48.1076 16.8307 46.9388 16.8307 45.77ZM24.2642 43.0584C22.3708 43.0584 20.5474 43.0584 18.7241 43.0584C18.7241 44.9285 18.7241 46.7285 18.7241 48.5284C20.5942 48.5284 22.4175 48.5284 24.2642 48.5284C24.2642 46.7051 24.2642 44.9051 24.2642 43.0584Z"/>
<path d="M14.0255 33.6613C14.0255 34.76 14.0255 35.882 14.0255 36.9807C14.0255 38.0092 13.745 38.3131 12.7399 38.3131C10.4724 38.3131 8.18157 38.3131 5.91411 38.3131C4.95569 38.3131 4.65181 38.0092 4.65181 37.0508C4.62843 34.7834 4.62843 32.4925 4.65181 30.2251C4.65181 29.29 4.97907 28.9861 5.93748 28.9861C8.20495 28.9861 10.4958 28.9861 12.7632 28.9861C13.6983 28.9861 14.0255 29.29 14.0255 30.2484C14.0489 31.3705 14.0255 32.5159 14.0255 33.6613ZM6.59201 30.903C6.59201 32.773 6.59201 34.573 6.59201 36.4197C8.43871 36.4197 10.2387 36.4197 12.0853 36.4197C12.0853 34.5496 12.0853 32.7263 12.0853 30.903C10.2153 30.903 8.43871 30.903 6.59201 30.903Z"/>
<path d="M9.32699 62.6241C8.1582 62.6241 6.9894 62.6241 5.8206 62.6241C5.00245 62.6241 4.62843 62.2267 4.62843 61.4553C4.62843 59.1177 4.62843 56.7801 4.62843 54.4425C4.62843 53.6477 5.00245 53.2737 5.8206 53.2737C8.1582 53.2971 10.4958 53.2971 12.8334 53.2737C13.6515 53.2737 14.0256 53.6477 14.0256 54.4425C14.0256 56.7801 14.0256 59.1177 14.0256 61.4553C14.0256 62.2267 13.6515 62.6474 12.8334 62.6241C11.6646 62.6241 10.4958 62.6241 9.32699 62.6241ZM6.59201 55.1672C6.59201 57.0606 6.59201 58.8839 6.59201 60.7073C8.46208 60.7073 10.262 60.7073 12.062 60.7073C12.062 58.8372 12.062 57.0139 12.062 55.1672C10.2153 55.1672 8.43871 55.1672 6.59201 55.1672Z"/>
<path d="M26.1576 57.9957C26.1576 59.1411 26.1576 60.2631 26.1576 61.4085C26.1576 62.3202 25.8538 62.6241 24.9655 62.6475C22.6279 62.6475 20.2903 62.6475 17.9761 62.6475C17.2281 62.6475 16.8307 62.2968 16.8307 61.5254C16.8307 59.1645 16.8307 56.8035 16.8307 54.4425C16.8307 53.6945 17.1579 53.2971 17.9293 53.2971C20.2903 53.2971 22.6513 53.2971 25.0122 53.2971C25.8304 53.2971 26.181 53.6945 26.1576 54.4893C26.1576 55.6581 26.1576 56.8269 26.1576 57.9957ZM24.2174 60.7073C24.2174 58.8138 24.2174 57.0139 24.2174 55.2139C22.3474 55.2139 20.5241 55.2139 18.7241 55.2139C18.7241 57.084 18.7241 58.8839 18.7241 60.7073C20.5942 60.7073 22.3707 60.7073 24.2174 60.7073Z"/>
<path d="M26.1577 33.6379C26.1577 34.8067 26.1577 35.9755 26.1577 37.1443C26.1577 37.9391 25.807 38.3365 24.9889 38.3365C22.6513 38.3365 20.3137 38.3365 17.9995 38.3365C17.2047 38.3365 16.8073 38.0092 16.8073 37.1911C16.8307 34.8535 16.8073 32.5159 16.8073 30.2017C16.8073 29.4069 17.1345 29.0095 17.9527 29.0095C20.2903 29.0095 22.6279 29.0095 24.9421 29.0095C25.8304 29.0095 26.1109 29.3368 26.1343 30.2484C26.181 31.3471 26.1577 32.4925 26.1577 33.6379ZM18.7475 30.903C18.7475 32.773 18.7475 34.573 18.7475 36.3963C20.6176 36.3963 22.4175 36.3963 24.2174 36.3963C24.2174 34.5262 24.2174 32.7029 24.2174 30.903C22.3474 30.903 20.5474 30.903 18.7475 30.903Z"/>
<path d="M57.9489 45.7934C57.9489 44.648 57.9255 43.526 57.9489 42.3805C57.9723 41.4221 58.2762 41.1182 59.2112 41.1182C61.4787 41.0949 63.7695 41.0949 66.037 41.1182C66.972 41.1182 67.2993 41.4455 67.2993 42.3805C67.3226 44.648 67.3226 46.9388 67.2993 49.2063C67.2993 50.1414 66.972 50.4686 66.037 50.4686C63.7695 50.492 61.4787 50.492 59.2112 50.4686C58.2762 50.4686 57.9489 50.1414 57.9489 49.2063C57.9255 48.0843 57.9489 46.9388 57.9489 45.7934ZM65.3824 43.0584C63.5124 43.0584 61.689 43.0584 59.8891 43.0584C59.8891 44.9285 59.8891 46.7518 59.8891 48.5752C61.7592 48.5752 63.5591 48.5752 65.3824 48.5752C65.3824 46.7285 65.3824 44.9285 65.3824 43.0584Z"/>
<path d="M67.3227 9.4205C67.3227 10.5192 67.346 11.6412 67.3227 12.7399C67.2993 13.6983 66.9954 14.0256 66.0604 14.0256C63.7929 14.0489 61.502 14.0489 59.2346 14.0256C58.2761 14.0256 57.9489 13.6983 57.9489 12.7633C57.9255 10.4958 57.9255 8.20495 57.9489 5.93748C57.9489 4.97907 58.2762 4.65181 59.2112 4.65181C61.4787 4.62843 63.7695 4.62843 66.037 4.65181C67.0188 4.65181 67.3227 4.97907 67.3227 5.98423C67.3227 7.12966 67.3227 8.27508 67.3227 9.4205ZM59.8657 6.56863C59.8657 8.46208 59.8657 10.262 59.8657 12.0854C61.7358 12.0854 63.5591 12.0854 65.3591 12.0854C65.3591 10.2153 65.3591 8.39196 65.3591 6.56863C63.5124 6.56863 61.7124 6.56863 59.8657 6.56863Z"/>
<path d="M33.6613 45.7934C33.6613 44.6246 33.6847 43.4558 33.6613 42.287C33.6379 41.4689 34.0353 41.0949 34.8301 41.0949C37.1677 41.0949 39.5053 41.0949 41.8429 41.0949C42.6143 41.0949 43.0117 41.4689 43.0117 42.287C43.0117 44.6246 43.0117 46.9622 43.0117 49.2998C43.0117 50.118 42.6143 50.492 41.8429 50.492C39.5053 50.492 37.1677 50.492 34.8301 50.492C34.0353 50.492 33.6613 50.118 33.6613 49.2998C33.6847 48.131 33.6613 46.9622 33.6613 45.7934ZM35.5548 48.5518C37.4482 48.5518 39.2482 48.5518 41.0481 48.5518C41.0481 46.6817 41.0481 44.8584 41.0481 43.0351C39.178 43.0351 37.3781 43.0351 35.5548 43.0351C35.5548 44.9051 35.5548 46.7051 35.5548 48.5518Z"/>
<path d="M67.3227 21.4825C67.3227 22.6279 67.346 23.7499 67.3227 24.8954C67.2993 25.8538 66.9954 26.1577 66.0604 26.1577C63.7929 26.1577 61.502 26.1577 59.2346 26.1577C58.2762 26.1577 57.9723 25.8538 57.9723 24.8954C57.9489 22.6279 57.9489 20.337 57.9723 18.0696C57.9723 17.1112 58.2762 16.8307 59.2346 16.8307C61.502 16.8307 63.7929 16.8307 66.0604 16.8307C67.0188 16.8307 67.3227 17.1112 67.3227 18.0696C67.346 19.215 67.3227 20.3604 67.3227 21.4825ZM59.8891 18.7241C59.8891 20.6409 59.8891 22.4175 59.8891 24.2174C61.7592 24.2174 63.5825 24.2174 65.3825 24.2174C65.3825 22.3474 65.3825 20.5474 65.3825 18.7241C63.5124 18.7241 61.7358 18.7241 59.8891 18.7241Z"/>
<path d="M42.9883 9.4205C42.9883 10.5659 42.9883 11.688 42.9883 12.8334C42.9883 13.6515 42.5909 14.0256 41.8195 14.0256C39.4819 14.0256 37.1443 14.0256 34.8067 14.0256C34.012 14.0256 33.6379 13.6515 33.6379 12.8334C33.6613 10.4958 33.6613 8.1582 33.6379 5.8206C33.6379 5.00245 34.012 4.62843 34.8067 4.62843C37.1443 4.62843 39.4819 4.62843 41.8195 4.62843C42.5909 4.62843 43.0117 5.00245 42.9883 5.8206C42.9883 7.03615 42.9883 8.22832 42.9883 9.4205ZM41.0949 6.59201C39.2014 6.59201 37.3781 6.59201 35.5548 6.59201C35.5548 8.46208 35.5548 10.262 35.5548 12.062C37.4248 12.062 39.2482 12.062 41.0949 12.062C41.0949 10.2387 41.0949 8.46208 41.0949 6.59201Z"/>
<path d="M55.1438 9.4205C55.1438 10.5192 55.1438 11.6412 55.1438 12.7399C55.1438 13.7217 54.8633 14.0256 53.9049 14.0256C51.6374 14.0489 49.3466 14.0489 47.0791 14.0256C46.1207 14.0256 45.8168 13.6983 45.8168 12.7633C45.8168 10.4958 45.8168 8.20495 45.8168 5.93748C45.8168 4.97907 46.1207 4.65181 47.0557 4.65181C49.3232 4.62843 51.614 4.62843 53.8815 4.65181C54.8399 4.65181 55.1204 4.95569 55.1438 5.91411C55.1438 7.0829 55.1438 8.2517 55.1438 9.4205ZM53.2503 6.59201C51.3569 6.59201 49.5569 6.59201 47.757 6.59201C47.757 8.46208 47.757 10.2854 47.757 12.1087C49.6271 12.1087 51.427 12.1087 53.2503 12.1087C53.2503 10.2387 53.2503 8.43871 53.2503 6.59201Z"/>
<path d="M55.1438 45.7233C55.1438 46.9155 55.1438 48.1076 55.1438 49.3232C55.1438 50.1413 54.7464 50.492 53.975 50.492C51.6374 50.492 49.2998 50.492 46.9622 50.492C46.1674 50.492 45.7934 50.0946 45.7934 49.2998C45.8168 46.9622 45.7934 44.6246 45.7934 42.287C45.7934 41.4689 46.2142 41.1182 46.9856 41.1182C49.3232 41.1182 51.6608 41.1182 53.9984 41.1182C54.7931 41.1182 55.1672 41.5156 55.1438 42.3104C55.1204 43.4558 55.1438 44.6013 55.1438 45.7233ZM47.757 43.0351C47.757 44.9051 47.757 46.7285 47.757 48.5518C49.6271 48.5518 51.4036 48.5518 53.2503 48.5518C53.2503 46.6817 53.2503 44.8584 53.2503 43.0351C51.3803 43.0351 49.5803 43.0351 47.757 43.0351Z"/>
<path d="M62.7176 28.9628C63.863 28.9628 64.985 28.9628 66.1305 28.9628C66.9486 28.9628 67.3226 29.3602 67.3226 30.1316C67.3226 32.4692 67.3226 34.8067 67.3226 37.1443C67.3226 37.9391 66.9486 38.3131 66.1305 38.3131C63.7929 38.2898 61.4553 38.2898 59.1177 38.3131C58.2995 38.3131 57.9255 37.9391 57.9255 37.1443C57.9255 34.8067 57.9255 32.4692 57.9255 30.1316C57.9255 29.3602 58.2995 28.9394 59.1177 28.9628C60.3332 28.9861 61.5254 28.9628 62.7176 28.9628ZM59.9125 30.8796C59.9125 32.7497 59.9125 34.573 59.9125 36.4197C61.7825 36.4197 63.5825 36.4197 65.3824 36.4197C65.3824 34.5496 65.3824 32.7263 65.3824 30.8796C63.5124 30.8796 61.7358 30.8796 59.9125 30.8796Z"/>
<path d="M50.5387 28.9628C51.6841 28.9628 52.8062 28.9628 53.9516 28.9628C54.7464 28.9628 55.1438 29.3134 55.1438 30.1082C55.1438 32.4692 55.1438 34.8301 55.1438 37.1911C55.1438 37.9625 54.7698 38.2897 53.9984 38.2897C51.6374 38.2897 49.2764 38.2897 46.9155 38.2897C46.144 38.2897 45.7934 37.9157 45.7934 37.1443C45.7934 34.7834 45.7934 32.4224 45.7934 30.0614C45.7934 29.29 46.1908 28.9394 46.9388 28.9628C48.1544 28.9861 49.3466 28.9628 50.5387 28.9628ZM47.757 30.903C47.757 32.7964 47.757 34.5964 47.757 36.3963C49.6271 36.3963 51.4504 36.3963 53.2503 36.3963C53.2503 34.5262 53.2503 32.7263 53.2503 30.903C51.3803 30.903 49.5803 30.903 47.757 30.903Z"/>
<path d="M33.6613 33.6146C33.6613 32.4692 33.6613 31.3471 33.6613 30.2017C33.6613 29.2666 33.9418 28.9861 34.8535 28.9628C37.1677 28.9628 39.4585 28.9628 41.7728 28.9628C42.6844 28.9628 42.9883 29.2666 43.0117 30.1549C43.0117 32.4692 43.0117 34.76 43.0117 37.0742C43.0117 38.0092 42.7312 38.2898 41.8195 38.2898C39.5053 38.3131 37.2145 38.3131 34.9002 38.2898C33.9185 38.2898 33.6847 38.056 33.6847 37.0041C33.6613 35.882 33.6613 34.76 33.6613 33.6146ZM41.0481 36.4197C41.0481 34.5496 41.0481 32.7497 41.0481 30.903C39.2014 30.903 37.4015 30.903 35.5781 30.903C35.5781 32.773 35.5781 34.573 35.5781 36.4197C37.4248 36.4197 39.2248 36.4197 41.0481 36.4197Z"/>
<path d="M55.1438 21.5058C55.1438 22.6746 55.1438 23.8434 55.1438 25.0122C55.1438 25.8304 54.7698 26.181 53.9516 26.181C51.614 26.181 49.2764 26.181 46.9622 26.181C46.1674 26.181 45.7934 25.7836 45.7934 24.9889C45.7934 22.6746 45.7934 20.3838 45.7934 18.0696C45.7934 17.1345 46.0739 16.854 46.9856 16.8307C49.3232 16.8073 51.6608 16.8307 53.975 16.8307C54.7931 16.8307 55.1438 17.2047 55.1204 18.0228C55.1204 19.1683 55.1438 20.337 55.1438 21.5058ZM53.227 24.2408C53.227 22.3474 53.227 20.5474 53.227 18.7241C51.3803 18.7241 49.5803 18.7241 47.7336 18.7241C47.7336 20.5942 47.7336 22.3941 47.7336 24.2408C49.6037 24.2408 51.3803 24.2408 53.227 24.2408Z"/>
<path d="M42.9883 21.5292C42.9883 22.698 42.9883 23.8668 42.9883 25.0356C42.9883 25.7836 42.6377 26.181 41.8663 26.181C39.5053 26.181 37.1443 26.181 34.7834 26.181C34.0353 26.181 33.6379 25.8304 33.6613 25.059C33.6613 22.698 33.6613 20.3371 33.6613 17.9761C33.6613 17.2281 33.9886 16.8307 34.76 16.8307C37.121 16.8307 39.4819 16.8307 41.8429 16.8307C42.6611 16.8307 43.0117 17.228 42.9883 18.0228C42.9883 19.1916 42.9883 20.3604 42.9883 21.5292ZM41.0715 24.2175C41.0715 22.3474 41.0715 20.5708 41.0715 18.7241C39.2248 18.7241 37.4015 18.7241 35.5548 18.7241C35.5548 20.5708 35.5548 22.3708 35.5548 24.2175C37.4015 24.2175 39.178 24.2175 41.0715 24.2175Z"/>
</mask>
<path d="M62.6241 61.6657C66.3876 61.6657 70.0576 61.6657 73.9848 61.6657C73.8211 60.567 73.7276 59.5151 73.4939 58.5099C73.3302 57.8788 73.3302 57.3879 73.9614 57.1307C74.5692 56.8736 75.0367 57.2009 75.2003 57.7385C75.4575 58.6034 75.5977 59.4917 75.738 60.38C75.8081 60.7774 75.738 61.1982 75.738 61.7358C76.112 61.7358 76.4159 61.7358 76.7198 61.7358C78.8002 61.7358 80.8573 61.7358 82.9378 61.7358C84.878 61.7592 85.9766 62.8345 85.9766 64.7747C85.9766 70.829 85.9766 76.86 85.9766 82.9144C85.9766 84.9013 84.878 86 82.891 86C68.4914 86 54.0919 86 39.6689 86C39.5521 86 39.4352 86 39.3183 86C38.7339 86 38.3365 85.6961 38.3365 85.1117C38.3131 84.4806 38.7105 84.1767 39.3417 84.1533C41.0949 84.1533 42.8481 84.1533 44.6012 84.1533C44.9519 84.1533 45.3025 84.1533 45.7233 84.1533C45.7233 77.9119 45.7233 71.7407 45.7233 65.4993C42.7078 65.4993 39.6689 65.4993 36.4664 65.4993C36.4664 65.8032 36.4664 66.1305 36.4664 66.4811C36.4664 72.442 36.4664 78.4028 36.4664 84.3637C36.4664 85.813 36.2794 86 34.8769 86C23.7733 86 12.6697 86 1.56619 86C0.140255 86 0 85.8597 0 84.4338C0 64.9149 0 45.396 0 25.8771C0 24.4512 0.187007 24.2642 1.61294 24.2642C5.37646 24.2642 9.13998 24.2642 12.9269 24.2642C13.2541 24.2642 13.558 24.2642 13.9554 24.2642C13.9554 22.324 13.9554 20.4306 13.9554 18.4202C13.6282 18.5839 13.3476 18.7241 13.0671 18.8877C9.58413 20.6877 5.32971 20.15 2.47785 17.5086C1.68307 16.7839 1.68307 16.3865 2.4311 15.6151C6.21799 11.8282 9.98152 8.04132 13.7684 4.27779C14.5398 3.50639 14.9138 3.50639 15.6619 4.30117C18.6072 7.48029 18.8877 12.5061 16.3164 16.106C16.0593 16.4566 15.8956 16.9475 15.8956 17.3683C15.8489 19.8462 15.8722 22.324 15.8722 24.8252C15.8722 25.9239 15.6151 26.1577 14.5398 26.1577C10.6828 26.1577 6.82577 26.1577 2.96874 26.1577C2.64148 26.1577 2.33759 26.1577 1.9402 26.1577C1.9402 45.4662 1.9402 64.7279 1.9402 84.0598C10.9166 84.0598 19.8929 84.0598 28.9394 84.0598C28.9394 64.798 28.9394 45.5363 28.9394 26.1577C28.6589 26.1577 28.355 26.1577 28.0511 26.1577C25.1992 26.1577 22.324 26.1577 19.4721 26.1577C19.3085 26.1577 19.1215 26.1577 18.9579 26.1577C18.3033 26.1577 17.8358 25.9005 17.8358 25.2226C17.8358 24.5213 18.3501 24.2876 18.9812 24.2876C20.2903 24.2876 21.5993 24.2876 22.9318 24.2876C24.9421 24.2876 26.9524 24.2876 29.0563 24.2876C29.0563 23.8668 29.0563 23.5162 29.0563 23.1655C29.0563 15.9424 29.0563 8.74259 29.0563 1.51943C29.0563 0.187007 29.2433 0 30.5757 0C43.9 0 57.2242 0 70.5485 0C71.9043 0 72.0679 0.163631 72.0679 1.51943C72.0679 19.5189 72.0679 37.5184 72.0679 55.5178C72.0679 56.8269 71.8809 57.0372 70.5485 57.0372C68.9356 57.0372 67.346 57.0372 65.7331 57.0372C63.9331 57.0606 62.7643 58.206 62.741 59.9826C62.6241 60.5203 62.6241 61.0813 62.6241 61.6657ZM70.0576 55.1438C70.0576 37.308 70.0576 19.6124 70.0576 1.89345C56.9671 1.89345 43.9701 1.89345 30.9263 1.89345C30.9263 29.3134 30.9263 56.71 30.9263 84.0832C32.1886 84.0832 33.3574 84.0832 34.573 84.0832C34.573 83.6858 34.573 83.3819 34.573 83.0546C34.573 77.0704 34.573 71.0862 34.573 65.0786C34.573 63.7929 34.8067 63.5357 36.0924 63.5357C39.3884 63.5357 42.6844 63.5357 46.0038 63.5357C47.4765 63.5357 47.6869 63.7461 47.6869 65.1954C47.6869 71.1563 47.6869 77.1172 47.6869 83.078C47.6869 83.4053 47.7102 83.7559 47.7336 84.0598C48.7388 84.0598 49.6271 84.0598 50.492 84.0598C50.492 77.6314 50.492 71.2498 50.492 64.8915C50.492 62.741 51.5439 61.689 53.7179 61.689C55.7282 61.689 57.7385 61.689 59.7722 61.689C60.0761 61.689 60.38 61.6657 60.754 61.6423C60.754 61.1514 60.754 60.7774 60.754 60.4034C60.754 56.9905 62.6475 55.1204 66.0837 55.1204C67.3928 55.1438 68.7018 55.1438 70.0576 55.1438ZM73.8211 73.9147C70.0576 73.9147 66.3642 73.9147 62.6708 73.9147C62.5773 75.5276 62.5773 75.5276 60.7774 75.8549C60.754 76.0886 60.754 76.3691 60.7306 76.6263C60.7073 78.0989 60.4969 78.5665 59.7956 78.5431C59.1177 78.5197 58.9073 78.0756 58.9073 76.673C58.9073 76.3925 58.9073 76.112 58.9073 75.8549C57.1541 75.6211 57.1541 75.6211 56.9437 73.9614C55.4243 73.9614 53.9049 73.9614 52.3153 73.9614C52.3153 74.8029 52.3153 75.551 52.3153 76.299C52.3153 77.047 52.3153 77.7951 52.3153 78.5197C56.1022 79.9456 56.4762 80.3197 57.9489 84.1299C64.798 84.1299 71.6472 84.1299 78.5431 84.1299C79.1976 81.0677 81.0911 79.221 84.0832 78.5665C84.0832 76.9535 84.0832 75.4575 84.0832 73.9147C82.517 73.9147 81.0209 73.9147 79.5249 73.9147C79.3379 75.4575 79.3379 75.4575 77.5847 75.9016C77.5847 76.112 77.5613 76.3457 77.5613 76.5795C77.5379 78.0756 77.3509 78.5197 76.673 78.5431C75.9717 78.5665 75.738 78.0989 75.738 76.6263C75.738 76.3691 75.7146 76.112 75.6912 75.8549C73.9146 75.5276 73.9146 75.5276 73.8211 73.9147ZM79.4547 71.9043C81.0677 71.9043 82.5637 71.9043 84.1533 71.9043C84.1533 69.6135 84.1533 67.4161 84.1533 65.1954C84.1533 63.7929 83.9195 63.5591 82.5404 63.5591C77.5379 63.5591 72.5588 63.5591 67.5564 63.5591C62.9747 63.5591 58.393 63.5591 53.8114 63.5591C52.6426 63.5591 52.3621 63.8396 52.3387 64.9851C52.3387 65.8967 52.3387 66.785 52.3387 67.6967C52.3387 69.0992 52.3387 70.4784 52.3387 71.9043C53.9516 71.9043 55.4477 71.9043 57.0372 71.9043C57.0372 71.3667 57.0606 70.8758 57.0372 70.3849C57.0139 69.5901 57.3879 69.1693 58.1827 69.1693C59.2813 69.1693 60.4034 69.1693 61.502 69.1693C62.2968 69.1693 62.6708 69.5901 62.6475 70.3849C62.6241 70.8992 62.6475 71.4134 62.6475 71.9277C66.4344 71.9277 70.1044 71.9277 73.8679 71.9277C73.8679 71.3433 73.8679 70.7823 73.8679 70.2446C73.8679 69.5667 74.2419 69.1927 74.8964 69.1927C76.0886 69.1693 77.2808 69.1693 78.4963 69.1927C79.1508 69.2161 79.5015 69.6135 79.5015 70.268C79.4547 70.7823 79.4547 71.3199 79.4547 71.9043ZM4.30117 16.5735C7.38679 18.9812 11.8983 18.4436 14.4697 15.4281C17.1813 12.249 16.3398 7.69068 14.6567 6.21799C11.1971 9.65425 7.7608 13.0905 4.30117 16.5735ZM84.1299 80.6002C82.2832 80.8573 80.717 82.4469 80.6235 84.1533C81.4417 84.1533 82.2598 84.1533 83.078 84.1533C83.6858 84.1533 84.1065 83.826 84.1299 83.2183C84.1767 82.33 84.1299 81.4651 84.1299 80.6002ZM55.9152 84.1533C55.5646 82.2365 54.0685 80.7638 52.3387 80.6235C52.3387 81.4417 52.3387 82.2365 52.3387 83.0546C52.3387 83.7559 52.7127 84.1299 53.414 84.1533C54.2321 84.1533 55.0269 84.1533 55.9152 84.1533ZM60.6839 73.8211C60.6839 72.8627 60.6839 71.9745 60.6839 71.1095C60.0761 71.1095 59.5385 71.1095 58.9541 71.1095C58.9541 72.0446 58.9541 72.9095 58.9541 73.8211C59.5385 73.8211 60.0761 73.8211 60.6839 73.8211ZM77.5379 71.1095C76.9301 71.1095 76.3691 71.1095 75.8081 71.1095C75.8081 72.0446 75.8081 72.9329 75.8081 73.8211C76.4159 73.8211 76.9535 73.8211 77.5379 73.8211C77.5379 72.9095 77.5379 72.0446 77.5379 71.1095Z" fill="black"/>
<path d="M4.65181 45.7934C4.65181 44.648 4.62843 43.526 4.65181 42.3805C4.67518 41.4455 4.97907 41.1182 5.93748 41.1182C8.20495 41.0949 10.4958 41.0949 12.7633 41.1182C13.6983 41.1182 14.0256 41.4455 14.0256 42.4039C14.0489 44.6714 14.0489 46.9622 14.0256 49.2297C14.0256 50.1647 13.6983 50.492 12.7399 50.492C10.4724 50.5153 8.18157 50.5153 5.91411 50.492C4.97907 50.492 4.67518 50.1647 4.65181 49.2063C4.62843 48.0609 4.65181 46.9388 4.65181 45.7934ZM6.56863 48.5518C8.46208 48.5518 10.2854 48.5518 12.1087 48.5518C12.1087 46.6817 12.1087 44.8818 12.1087 43.0584C10.2387 43.0584 8.43871 43.0584 6.56863 43.0584C6.56863 44.9051 6.56863 46.6817 6.56863 48.5518Z" fill="black"/>
<path d="M16.8307 45.77C16.8307 44.6246 16.8307 43.5026 16.8307 42.3572C16.8307 41.4455 17.1345 41.1182 18.0228 41.1182C20.337 41.0949 22.6279 41.0949 24.9421 41.1182C25.8538 41.1182 26.1577 41.4455 26.1577 42.3338C26.1577 44.648 26.1577 46.9388 26.1577 49.2531C26.1577 50.1647 25.8538 50.492 24.9655 50.492C22.6513 50.5153 20.3604 50.5153 18.0462 50.492C17.1345 50.492 16.8307 50.1881 16.8307 49.2764C16.8307 48.1076 16.8307 46.9388 16.8307 45.77ZM24.2642 43.0584C22.3708 43.0584 20.5474 43.0584 18.7241 43.0584C18.7241 44.9285 18.7241 46.7285 18.7241 48.5284C20.5942 48.5284 22.4175 48.5284 24.2642 48.5284C24.2642 46.7051 24.2642 44.9051 24.2642 43.0584Z" fill="black"/>
<path d="M14.0255 33.6613C14.0255 34.76 14.0255 35.882 14.0255 36.9807C14.0255 38.0092 13.745 38.3131 12.7399 38.3131C10.4724 38.3131 8.18157 38.3131 5.91411 38.3131C4.95569 38.3131 4.65181 38.0092 4.65181 37.0508C4.62843 34.7834 4.62843 32.4925 4.65181 30.2251C4.65181 29.29 4.97907 28.9861 5.93748 28.9861C8.20495 28.9861 10.4958 28.9861 12.7632 28.9861C13.6983 28.9861 14.0255 29.29 14.0255 30.2484C14.0489 31.3705 14.0255 32.5159 14.0255 33.6613ZM6.59201 30.903C6.59201 32.773 6.59201 34.573 6.59201 36.4197C8.43871 36.4197 10.2387 36.4197 12.0853 36.4197C12.0853 34.5496 12.0853 32.7263 12.0853 30.903C10.2153 30.903 8.43871 30.903 6.59201 30.903Z" fill="black"/>
<path d="M9.32699 62.6241C8.1582 62.6241 6.9894 62.6241 5.8206 62.6241C5.00245 62.6241 4.62843 62.2267 4.62843 61.4553C4.62843 59.1177 4.62843 56.7801 4.62843 54.4425C4.62843 53.6477 5.00245 53.2737 5.8206 53.2737C8.1582 53.2971 10.4958 53.2971 12.8334 53.2737C13.6515 53.2737 14.0256 53.6477 14.0256 54.4425C14.0256 56.7801 14.0256 59.1177 14.0256 61.4553C14.0256 62.2267 13.6515 62.6474 12.8334 62.6241C11.6646 62.6241 10.4958 62.6241 9.32699 62.6241ZM6.59201 55.1672C6.59201 57.0606 6.59201 58.8839 6.59201 60.7073C8.46208 60.7073 10.262 60.7073 12.062 60.7073C12.062 58.8372 12.062 57.0139 12.062 55.1672C10.2153 55.1672 8.43871 55.1672 6.59201 55.1672Z" fill="black"/>
<path d="M26.1576 57.9957C26.1576 59.1411 26.1576 60.2631 26.1576 61.4085C26.1576 62.3202 25.8538 62.6241 24.9655 62.6475C22.6279 62.6475 20.2903 62.6475 17.9761 62.6475C17.2281 62.6475 16.8307 62.2968 16.8307 61.5254C16.8307 59.1645 16.8307 56.8035 16.8307 54.4425C16.8307 53.6945 17.1579 53.2971 17.9293 53.2971C20.2903 53.2971 22.6513 53.2971 25.0122 53.2971C25.8304 53.2971 26.181 53.6945 26.1576 54.4893C26.1576 55.6581 26.1576 56.8269 26.1576 57.9957ZM24.2174 60.7073C24.2174 58.8138 24.2174 57.0139 24.2174 55.2139C22.3474 55.2139 20.5241 55.2139 18.7241 55.2139C18.7241 57.084 18.7241 58.8839 18.7241 60.7073C20.5942 60.7073 22.3707 60.7073 24.2174 60.7073Z" fill="black"/>
<path d="M26.1577 33.6379C26.1577 34.8067 26.1577 35.9755 26.1577 37.1443C26.1577 37.9391 25.807 38.3365 24.9889 38.3365C22.6513 38.3365 20.3137 38.3365 17.9995 38.3365C17.2047 38.3365 16.8073 38.0092 16.8073 37.1911C16.8307 34.8535 16.8073 32.5159 16.8073 30.2017C16.8073 29.4069 17.1345 29.0095 17.9527 29.0095C20.2903 29.0095 22.6279 29.0095 24.9421 29.0095C25.8304 29.0095 26.1109 29.3368 26.1343 30.2484C26.181 31.3471 26.1577 32.4925 26.1577 33.6379ZM18.7475 30.903C18.7475 32.773 18.7475 34.573 18.7475 36.3963C20.6176 36.3963 22.4175 36.3963 24.2174 36.3963C24.2174 34.5262 24.2174 32.7029 24.2174 30.903C22.3474 30.903 20.5474 30.903 18.7475 30.903Z" fill="black"/>
<path d="M57.9489 45.7934C57.9489 44.648 57.9255 43.526 57.9489 42.3805C57.9723 41.4221 58.2762 41.1182 59.2112 41.1182C61.4787 41.0949 63.7695 41.0949 66.037 41.1182C66.972 41.1182 67.2993 41.4455 67.2993 42.3805C67.3226 44.648 67.3226 46.9388 67.2993 49.2063C67.2993 50.1414 66.972 50.4686 66.037 50.4686C63.7695 50.492 61.4787 50.492 59.2112 50.4686C58.2762 50.4686 57.9489 50.1414 57.9489 49.2063C57.9255 48.0843 57.9489 46.9388 57.9489 45.7934ZM65.3824 43.0584C63.5124 43.0584 61.689 43.0584 59.8891 43.0584C59.8891 44.9285 59.8891 46.7518 59.8891 48.5752C61.7592 48.5752 63.5591 48.5752 65.3824 48.5752C65.3824 46.7285 65.3824 44.9285 65.3824 43.0584Z" fill="black"/>
<path d="M67.3227 9.4205C67.3227 10.5192 67.346 11.6412 67.3227 12.7399C67.2993 13.6983 66.9954 14.0256 66.0604 14.0256C63.7929 14.0489 61.502 14.0489 59.2346 14.0256C58.2761 14.0256 57.9489 13.6983 57.9489 12.7633C57.9255 10.4958 57.9255 8.20495 57.9489 5.93748C57.9489 4.97907 58.2762 4.65181 59.2112 4.65181C61.4787 4.62843 63.7695 4.62843 66.037 4.65181C67.0188 4.65181 67.3227 4.97907 67.3227 5.98423C67.3227 7.12966 67.3227 8.27508 67.3227 9.4205ZM59.8657 6.56863C59.8657 8.46208 59.8657 10.262 59.8657 12.0854C61.7358 12.0854 63.5591 12.0854 65.3591 12.0854C65.3591 10.2153 65.3591 8.39196 65.3591 6.56863C63.5124 6.56863 61.7124 6.56863 59.8657 6.56863Z" fill="black"/>
<path d="M33.6613 45.7934C33.6613 44.6246 33.6847 43.4558 33.6613 42.287C33.6379 41.4689 34.0353 41.0949 34.8301 41.0949C37.1677 41.0949 39.5053 41.0949 41.8429 41.0949C42.6143 41.0949 43.0117 41.4689 43.0117 42.287C43.0117 44.6246 43.0117 46.9622 43.0117 49.2998C43.0117 50.118 42.6143 50.492 41.8429 50.492C39.5053 50.492 37.1677 50.492 34.8301 50.492C34.0353 50.492 33.6613 50.118 33.6613 49.2998C33.6847 48.131 33.6613 46.9622 33.6613 45.7934ZM35.5548 48.5518C37.4482 48.5518 39.2482 48.5518 41.0481 48.5518C41.0481 46.6817 41.0481 44.8584 41.0481 43.0351C39.178 43.0351 37.3781 43.0351 35.5548 43.0351C35.5548 44.9051 35.5548 46.7051 35.5548 48.5518Z" fill="black"/>
<path d="M67.3227 21.4825C67.3227 22.6279 67.346 23.7499 67.3227 24.8954C67.2993 25.8538 66.9954 26.1577 66.0604 26.1577C63.7929 26.1577 61.502 26.1577 59.2346 26.1577C58.2762 26.1577 57.9723 25.8538 57.9723 24.8954C57.9489 22.6279 57.9489 20.337 57.9723 18.0696C57.9723 17.1112 58.2762 16.8307 59.2346 16.8307C61.502 16.8307 63.7929 16.8307 66.0604 16.8307C67.0188 16.8307 67.3227 17.1112 67.3227 18.0696C67.346 19.215 67.3227 20.3604 67.3227 21.4825ZM59.8891 18.7241C59.8891 20.6409 59.8891 22.4175 59.8891 24.2174C61.7592 24.2174 63.5825 24.2174 65.3825 24.2174C65.3825 22.3474 65.3825 20.5474 65.3825 18.7241C63.5124 18.7241 61.7358 18.7241 59.8891 18.7241Z" fill="black"/>
<path d="M42.9883 9.4205C42.9883 10.5659 42.9883 11.688 42.9883 12.8334C42.9883 13.6515 42.5909 14.0256 41.8195 14.0256C39.4819 14.0256 37.1443 14.0256 34.8067 14.0256C34.012 14.0256 33.6379 13.6515 33.6379 12.8334C33.6613 10.4958 33.6613 8.1582 33.6379 5.8206C33.6379 5.00245 34.012 4.62843 34.8067 4.62843C37.1443 4.62843 39.4819 4.62843 41.8195 4.62843C42.5909 4.62843 43.0117 5.00245 42.9883 5.8206C42.9883 7.03615 42.9883 8.22832 42.9883 9.4205ZM41.0949 6.59201C39.2014 6.59201 37.3781 6.59201 35.5548 6.59201C35.5548 8.46208 35.5548 10.262 35.5548 12.062C37.4248 12.062 39.2482 12.062 41.0949 12.062C41.0949 10.2387 41.0949 8.46208 41.0949 6.59201Z" fill="black"/>
<path d="M55.1438 9.4205C55.1438 10.5192 55.1438 11.6412 55.1438 12.7399C55.1438 13.7217 54.8633 14.0256 53.9049 14.0256C51.6374 14.0489 49.3466 14.0489 47.0791 14.0256C46.1207 14.0256 45.8168 13.6983 45.8168 12.7633C45.8168 10.4958 45.8168 8.20495 45.8168 5.93748C45.8168 4.97907 46.1207 4.65181 47.0557 4.65181C49.3232 4.62843 51.614 4.62843 53.8815 4.65181C54.8399 4.65181 55.1204 4.95569 55.1438 5.91411C55.1438 7.0829 55.1438 8.2517 55.1438 9.4205ZM53.2503 6.59201C51.3569 6.59201 49.5569 6.59201 47.757 6.59201C47.757 8.46208 47.757 10.2854 47.757 12.1087C49.6271 12.1087 51.427 12.1087 53.2503 12.1087C53.2503 10.2387 53.2503 8.43871 53.2503 6.59201Z" fill="black"/>
<path d="M55.1438 45.7233C55.1438 46.9155 55.1438 48.1076 55.1438 49.3232C55.1438 50.1413 54.7464 50.492 53.975 50.492C51.6374 50.492 49.2998 50.492 46.9622 50.492C46.1674 50.492 45.7934 50.0946 45.7934 49.2998C45.8168 46.9622 45.7934 44.6246 45.7934 42.287C45.7934 41.4689 46.2142 41.1182 46.9856 41.1182C49.3232 41.1182 51.6608 41.1182 53.9984 41.1182C54.7931 41.1182 55.1672 41.5156 55.1438 42.3104C55.1204 43.4558 55.1438 44.6013 55.1438 45.7233ZM47.757 43.0351C47.757 44.9051 47.757 46.7285 47.757 48.5518C49.6271 48.5518 51.4036 48.5518 53.2503 48.5518C53.2503 46.6817 53.2503 44.8584 53.2503 43.0351C51.3803 43.0351 49.5803 43.0351 47.757 43.0351Z" fill="black"/>
<path d="M62.7176 28.9628C63.863 28.9628 64.985 28.9628 66.1305 28.9628C66.9486 28.9628 67.3226 29.3602 67.3226 30.1316C67.3226 32.4692 67.3226 34.8067 67.3226 37.1443C67.3226 37.9391 66.9486 38.3131 66.1305 38.3131C63.7929 38.2898 61.4553 38.2898 59.1177 38.3131C58.2995 38.3131 57.9255 37.9391 57.9255 37.1443C57.9255 34.8067 57.9255 32.4692 57.9255 30.1316C57.9255 29.3602 58.2995 28.9394 59.1177 28.9628C60.3332 28.9861 61.5254 28.9628 62.7176 28.9628ZM59.9125 30.8796C59.9125 32.7497 59.9125 34.573 59.9125 36.4197C61.7825 36.4197 63.5825 36.4197 65.3824 36.4197C65.3824 34.5496 65.3824 32.7263 65.3824 30.8796C63.5124 30.8796 61.7358 30.8796 59.9125 30.8796Z" fill="black"/>
<path d="M50.5387 28.9628C51.6841 28.9628 52.8062 28.9628 53.9516 28.9628C54.7464 28.9628 55.1438 29.3134 55.1438 30.1082C55.1438 32.4692 55.1438 34.8301 55.1438 37.1911C55.1438 37.9625 54.7698 38.2897 53.9984 38.2897C51.6374 38.2897 49.2764 38.2897 46.9155 38.2897C46.144 38.2897 45.7934 37.9157 45.7934 37.1443C45.7934 34.7834 45.7934 32.4224 45.7934 30.0614C45.7934 29.29 46.1908 28.9394 46.9388 28.9628C48.1544 28.9861 49.3466 28.9628 50.5387 28.9628ZM47.757 30.903C47.757 32.7964 47.757 34.5964 47.757 36.3963C49.6271 36.3963 51.4504 36.3963 53.2503 36.3963C53.2503 34.5262 53.2503 32.7263 53.2503 30.903C51.3803 30.903 49.5803 30.903 47.757 30.903Z" fill="black"/>
<path d="M33.6613 33.6146C33.6613 32.4692 33.6613 31.3471 33.6613 30.2017C33.6613 29.2666 33.9418 28.9861 34.8535 28.9628C37.1677 28.9628 39.4585 28.9628 41.7728 28.9628C42.6844 28.9628 42.9883 29.2666 43.0117 30.1549C43.0117 32.4692 43.0117 34.76 43.0117 37.0742C43.0117 38.0092 42.7312 38.2898 41.8195 38.2898C39.5053 38.3131 37.2145 38.3131 34.9002 38.2898C33.9185 38.2898 33.6847 38.056 33.6847 37.0041C33.6613 35.882 33.6613 34.76 33.6613 33.6146ZM41.0481 36.4197C41.0481 34.5496 41.0481 32.7497 41.0481 30.903C39.2014 30.903 37.4015 30.903 35.5781 30.903C35.5781 32.773 35.5781 34.573 35.5781 36.4197C37.4248 36.4197 39.2248 36.4197 41.0481 36.4197Z" fill="black"/>
<path d="M55.1438 21.5058C55.1438 22.6746 55.1438 23.8434 55.1438 25.0122C55.1438 25.8304 54.7698 26.181 53.9516 26.181C51.614 26.181 49.2764 26.181 46.9622 26.181C46.1674 26.181 45.7934 25.7836 45.7934 24.9889C45.7934 22.6746 45.7934 20.3838 45.7934 18.0696C45.7934 17.1345 46.0739 16.854 46.9856 16.8307C49.3232 16.8073 51.6608 16.8307 53.975 16.8307C54.7931 16.8307 55.1438 17.2047 55.1204 18.0228C55.1204 19.1683 55.1438 20.337 55.1438 21.5058ZM53.227 24.2408C53.227 22.3474 53.227 20.5474 53.227 18.7241C51.3803 18.7241 49.5803 18.7241 47.7336 18.7241C47.7336 20.5942 47.7336 22.3941 47.7336 24.2408C49.6037 24.2408 51.3803 24.2408 53.227 24.2408Z" fill="black"/>
<path d="M42.9883 21.5292C42.9883 22.698 42.9883 23.8668 42.9883 25.0356C42.9883 25.7836 42.6377 26.181 41.8663 26.181C39.5053 26.181 37.1443 26.181 34.7834 26.181C34.0353 26.181 33.6379 25.8304 33.6613 25.059C33.6613 22.698 33.6613 20.3371 33.6613 17.9761C33.6613 17.2281 33.9886 16.8307 34.76 16.8307C37.121 16.8307 39.4819 16.8307 41.8429 16.8307C42.6611 16.8307 43.0117 17.228 42.9883 18.0228C42.9883 19.1916 42.9883 20.3604 42.9883 21.5292ZM41.0715 24.2175C41.0715 22.3474 41.0715 20.5708 41.0715 18.7241C39.2248 18.7241 37.4015 18.7241 35.5548 18.7241C35.5548 20.5708 35.5548 22.3708 35.5548 24.2175C37.4015 24.2175 39.178 24.2175 41.0715 24.2175Z" fill="black"/>
<path d="M62.6241 61.6657C66.3876 61.6657 70.0576 61.6657 73.9848 61.6657C73.8211 60.567 73.7276 59.5151 73.4939 58.5099C73.3302 57.8788 73.3302 57.3879 73.9614 57.1307C74.5692 56.8736 75.0367 57.2009 75.2003 57.7385C75.4575 58.6034 75.5977 59.4917 75.738 60.38C75.8081 60.7774 75.738 61.1982 75.738 61.7358C76.112 61.7358 76.4159 61.7358 76.7198 61.7358C78.8002 61.7358 80.8573 61.7358 82.9378 61.7358C84.878 61.7592 85.9766 62.8345 85.9766 64.7747C85.9766 70.829 85.9766 76.86 85.9766 82.9144C85.9766 84.9013 84.878 86 82.891 86C68.4914 86 54.0919 86 39.6689 86C39.5521 86 39.4352 86 39.3183 86C38.7339 86 38.3365 85.6961 38.3365 85.1117C38.3131 84.4806 38.7105 84.1767 39.3417 84.1533C41.0949 84.1533 42.8481 84.1533 44.6012 84.1533C44.9519 84.1533 45.3025 84.1533 45.7233 84.1533C45.7233 77.9119 45.7233 71.7407 45.7233 65.4993C42.7078 65.4993 39.6689 65.4993 36.4664 65.4993C36.4664 65.8032 36.4664 66.1305 36.4664 66.4811C36.4664 72.442 36.4664 78.4028 36.4664 84.3637C36.4664 85.813 36.2794 86 34.8769 86C23.7733 86 12.6697 86 1.56619 86C0.140255 86 0 85.8597 0 84.4338C0 64.9149 0 45.396 0 25.8771C0 24.4512 0.187007 24.2642 1.61294 24.2642C5.37646 24.2642 9.13998 24.2642 12.9269 24.2642C13.2541 24.2642 13.558 24.2642 13.9554 24.2642C13.9554 22.324 13.9554 20.4306 13.9554 18.4202C13.6282 18.5839 13.3476 18.7241 13.0671 18.8877C9.58413 20.6877 5.32971 20.15 2.47785 17.5086C1.68307 16.7839 1.68307 16.3865 2.4311 15.6151C6.21799 11.8282 9.98152 8.04132 13.7684 4.27779C14.5398 3.50639 14.9138 3.50639 15.6619 4.30117C18.6072 7.48029 18.8877 12.5061 16.3164 16.106C16.0593 16.4566 15.8956 16.9475 15.8956 17.3683C15.8489 19.8462 15.8722 22.324 15.8722 24.8252C15.8722 25.9239 15.6151 26.1577 14.5398 26.1577C10.6828 26.1577 6.82577 26.1577 2.96874 26.1577C2.64148 26.1577 2.33759 26.1577 1.9402 26.1577C1.9402 45.4662 1.9402 64.7279 1.9402 84.0598C10.9166 84.0598 19.8929 84.0598 28.9394 84.0598C28.9394 64.798 28.9394 45.5363 28.9394 26.1577C28.6589 26.1577 28.355 26.1577 28.0511 26.1577C25.1992 26.1577 22.324 26.1577 19.4721 26.1577C19.3085 26.1577 19.1215 26.1577 18.9579 26.1577C18.3033 26.1577 17.8358 25.9005 17.8358 25.2226C17.8358 24.5213 18.3501 24.2876 18.9812 24.2876C20.2903 24.2876 21.5993 24.2876 22.9318 24.2876C24.9421 24.2876 26.9524 24.2876 29.0563 24.2876C29.0563 23.8668 29.0563 23.5162 29.0563 23.1655C29.0563 15.9424 29.0563 8.74259 29.0563 1.51943C29.0563 0.187007 29.2433 0 30.5757 0C43.9 0 57.2242 0 70.5485 0C71.9043 0 72.0679 0.163631 72.0679 1.51943C72.0679 19.5189 72.0679 37.5184 72.0679 55.5178C72.0679 56.8269 71.8809 57.0372 70.5485 57.0372C68.9356 57.0372 67.346 57.0372 65.7331 57.0372C63.9331 57.0606 62.7643 58.206 62.741 59.9826C62.6241 60.5203 62.6241 61.0813 62.6241 61.6657ZM70.0576 55.1438C70.0576 37.308 70.0576 19.6124 70.0576 1.89345C56.9671 1.89345 43.9701 1.89345 30.9263 1.89345C30.9263 29.3134 30.9263 56.71 30.9263 84.0832C32.1886 84.0832 33.3574 84.0832 34.573 84.0832C34.573 83.6858 34.573 83.3819 34.573 83.0546C34.573 77.0704 34.573 71.0862 34.573 65.0786C34.573 63.7929 34.8067 63.5357 36.0924 63.5357C39.3884 63.5357 42.6844 63.5357 46.0038 63.5357C47.4765 63.5357 47.6869 63.7461 47.6869 65.1954C47.6869 71.1563 47.6869 77.1172 47.6869 83.078C47.6869 83.4053 47.7102 83.7559 47.7336 84.0598C48.7388 84.0598 49.6271 84.0598 50.492 84.0598C50.492 77.6314 50.492 71.2498 50.492 64.8915C50.492 62.741 51.5439 61.689 53.7179 61.689C55.7282 61.689 57.7385 61.689 59.7722 61.689C60.0761 61.689 60.38 61.6657 60.754 61.6423C60.754 61.1514 60.754 60.7774 60.754 60.4034C60.754 56.9905 62.6475 55.1204 66.0837 55.1204C67.3928 55.1438 68.7018 55.1438 70.0576 55.1438ZM73.8211 73.9147C70.0576 73.9147 66.3642 73.9147 62.6708 73.9147C62.5773 75.5276 62.5773 75.5276 60.7774 75.8549C60.754 76.0886 60.754 76.3691 60.7306 76.6263C60.7073 78.0989 60.4969 78.5665 59.7956 78.5431C59.1177 78.5197 58.9073 78.0756 58.9073 76.673C58.9073 76.3925 58.9073 76.112 58.9073 75.8549C57.1541 75.6211 57.1541 75.6211 56.9437 73.9614C55.4243 73.9614 53.9049 73.9614 52.3153 73.9614C52.3153 74.8029 52.3153 75.551 52.3153 76.299C52.3153 77.047 52.3153 77.7951 52.3153 78.5197C56.1022 79.9456 56.4762 80.3197 57.9489 84.1299C64.798 84.1299 71.6472 84.1299 78.5431 84.1299C79.1976 81.0677 81.0911 79.221 84.0832 78.5665C84.0832 76.9535 84.0832 75.4575 84.0832 73.9147C82.517 73.9147 81.0209 73.9147 79.5249 73.9147C79.3379 75.4575 79.3379 75.4575 77.5847 75.9016C77.5847 76.112 77.5613 76.3457 77.5613 76.5795C77.5379 78.0756 77.3509 78.5197 76.673 78.5431C75.9717 78.5665 75.738 78.0989 75.738 76.6263C75.738 76.3691 75.7146 76.112 75.6912 75.8549C73.9146 75.5276 73.9146 75.5276 73.8211 73.9147ZM79.4547 71.9043C81.0677 71.9043 82.5637 71.9043 84.1533 71.9043C84.1533 69.6135 84.1533 67.4161 84.1533 65.1954C84.1533 63.7929 83.9195 63.5591 82.5404 63.5591C77.5379 63.5591 72.5588 63.5591 67.5564 63.5591C62.9747 63.5591 58.393 63.5591 53.8114 63.5591C52.6426 63.5591 52.3621 63.8396 52.3387 64.9851C52.3387 65.8967 52.3387 66.785 52.3387 67.6967C52.3387 69.0992 52.3387 70.4784 52.3387 71.9043C53.9516 71.9043 55.4477 71.9043 57.0372 71.9043C57.0372 71.3667 57.0606 70.8758 57.0372 70.3849C57.0139 69.5901 57.3879 69.1693 58.1827 69.1693C59.2813 69.1693 60.4034 69.1693 61.502 69.1693C62.2968 69.1693 62.6708 69.5901 62.6475 70.3849C62.6241 70.8992 62.6475 71.4134 62.6475 71.9277C66.4344 71.9277 70.1044 71.9277 73.8679 71.9277C73.8679 71.3433 73.8679 70.7823 73.8679 70.2446C73.8679 69.5667 74.2419 69.1927 74.8964 69.1927C76.0886 69.1693 77.2808 69.1693 78.4963 69.1927C79.1508 69.2161 79.5015 69.6135 79.5015 70.268C79.4547 70.7823 79.4547 71.3199 79.4547 71.9043ZM4.30117 16.5735C7.38679 18.9812 11.8983 18.4436 14.4697 15.4281C17.1813 12.249 16.3398 7.69068 14.6567 6.21799C11.1971 9.65425 7.7608 13.0905 4.30117 16.5735ZM84.1299 80.6002C82.2832 80.8573 80.717 82.4469 80.6235 84.1533C81.4417 84.1533 82.2598 84.1533 83.078 84.1533C83.6858 84.1533 84.1065 83.826 84.1299 83.2183C84.1767 82.33 84.1299 81.4651 84.1299 80.6002ZM55.9152 84.1533C55.5646 82.2365 54.0685 80.7638 52.3387 80.6235C52.3387 81.4417 52.3387 82.2365 52.3387 83.0546C52.3387 83.7559 52.7127 84.1299 53.414 84.1533C54.2321 84.1533 55.0269 84.1533 55.9152 84.1533ZM60.6839 73.8211C60.6839 72.8627 60.6839 71.9745 60.6839 71.1095C60.0761 71.1095 59.5385 71.1095 58.9541 71.1095C58.9541 72.0446 58.9541 72.9095 58.9541 73.8211C59.5385 73.8211 60.0761 73.8211 60.6839 73.8211ZM77.5379 71.1095C76.9301 71.1095 76.3691 71.1095 75.8081 71.1095C75.8081 72.0446 75.8081 72.9329 75.8081 73.8211C76.4159 73.8211 76.9535 73.8211 77.5379 73.8211C77.5379 72.9095 77.5379 72.0446 77.5379 71.1095Z" stroke="black" stroke-width="0.2" mask="url(#path-2-outside-1_653_5705)"/>
<path d="M4.65181 45.7934C4.65181 44.648 4.62843 43.526 4.65181 42.3805C4.67518 41.4455 4.97907 41.1182 5.93748 41.1182C8.20495 41.0949 10.4958 41.0949 12.7633 41.1182C13.6983 41.1182 14.0256 41.4455 14.0256 42.4039C14.0489 44.6714 14.0489 46.9622 14.0256 49.2297C14.0256 50.1647 13.6983 50.492 12.7399 50.492C10.4724 50.5153 8.18157 50.5153 5.91411 50.492C4.97907 50.492 4.67518 50.1647 4.65181 49.2063C4.62843 48.0609 4.65181 46.9388 4.65181 45.7934ZM6.56863 48.5518C8.46208 48.5518 10.2854 48.5518 12.1087 48.5518C12.1087 46.6817 12.1087 44.8818 12.1087 43.0584C10.2387 43.0584 8.43871 43.0584 6.56863 43.0584C6.56863 44.9051 6.56863 46.6817 6.56863 48.5518Z" stroke="black" stroke-width="0.2" mask="url(#path-2-outside-1_653_5705)"/>
<path d="M16.8307 45.77C16.8307 44.6246 16.8307 43.5026 16.8307 42.3572C16.8307 41.4455 17.1345 41.1182 18.0228 41.1182C20.337 41.0949 22.6279 41.0949 24.9421 41.1182C25.8538 41.1182 26.1577 41.4455 26.1577 42.3338C26.1577 44.648 26.1577 46.9388 26.1577 49.2531C26.1577 50.1647 25.8538 50.492 24.9655 50.492C22.6513 50.5153 20.3604 50.5153 18.0462 50.492C17.1345 50.492 16.8307 50.1881 16.8307 49.2764C16.8307 48.1076 16.8307 46.9388 16.8307 45.77ZM24.2642 43.0584C22.3708 43.0584 20.5474 43.0584 18.7241 43.0584C18.7241 44.9285 18.7241 46.7285 18.7241 48.5284C20.5942 48.5284 22.4175 48.5284 24.2642 48.5284C24.2642 46.7051 24.2642 44.9051 24.2642 43.0584Z" stroke="black" stroke-width="0.2" mask="url(#path-2-outside-1_653_5705)"/>
<path d="M14.0255 33.6613C14.0255 34.76 14.0255 35.882 14.0255 36.9807C14.0255 38.0092 13.745 38.3131 12.7399 38.3131C10.4724 38.3131 8.18157 38.3131 5.91411 38.3131C4.95569 38.3131 4.65181 38.0092 4.65181 37.0508C4.62843 34.7834 4.62843 32.4925 4.65181 30.2251C4.65181 29.29 4.97907 28.9861 5.93748 28.9861C8.20495 28.9861 10.4958 28.9861 12.7632 28.9861C13.6983 28.9861 14.0255 29.29 14.0255 30.2484C14.0489 31.3705 14.0255 32.5159 14.0255 33.6613ZM6.59201 30.903C6.59201 32.773 6.59201 34.573 6.59201 36.4197C8.43871 36.4197 10.2387 36.4197 12.0853 36.4197C12.0853 34.5496 12.0853 32.7263 12.0853 30.903C10.2153 30.903 8.43871 30.903 6.59201 30.903Z" stroke="black" stroke-width="0.2" mask="url(#path-2-outside-1_653_5705)"/>
<path d="M9.32699 62.6241C8.1582 62.6241 6.9894 62.6241 5.8206 62.6241C5.00245 62.6241 4.62843 62.2267 4.62843 61.4553C4.62843 59.1177 4.62843 56.7801 4.62843 54.4425C4.62843 53.6477 5.00245 53.2737 5.8206 53.2737C8.1582 53.2971 10.4958 53.2971 12.8334 53.2737C13.6515 53.2737 14.0256 53.6477 14.0256 54.4425C14.0256 56.7801 14.0256 59.1177 14.0256 61.4553C14.0256 62.2267 13.6515 62.6474 12.8334 62.6241C11.6646 62.6241 10.4958 62.6241 9.32699 62.6241ZM6.59201 55.1672C6.59201 57.0606 6.59201 58.8839 6.59201 60.7073C8.46208 60.7073 10.262 60.7073 12.062 60.7073C12.062 58.8372 12.062 57.0139 12.062 55.1672C10.2153 55.1672 8.43871 55.1672 6.59201 55.1672Z" stroke="black" stroke-width="0.2" mask="url(#path-2-outside-1_653_5705)"/>
<path d="M26.1576 57.9957C26.1576 59.1411 26.1576 60.2631 26.1576 61.4085C26.1576 62.3202 25.8538 62.6241 24.9655 62.6475C22.6279 62.6475 20.2903 62.6475 17.9761 62.6475C17.2281 62.6475 16.8307 62.2968 16.8307 61.5254C16.8307 59.1645 16.8307 56.8035 16.8307 54.4425C16.8307 53.6945 17.1579 53.2971 17.9293 53.2971C20.2903 53.2971 22.6513 53.2971 25.0122 53.2971C25.8304 53.2971 26.181 53.6945 26.1576 54.4893C26.1576 55.6581 26.1576 56.8269 26.1576 57.9957ZM24.2174 60.7073C24.2174 58.8138 24.2174 57.0139 24.2174 55.2139C22.3474 55.2139 20.5241 55.2139 18.7241 55.2139C18.7241 57.084 18.7241 58.8839 18.7241 60.7073C20.5942 60.7073 22.3707 60.7073 24.2174 60.7073Z" stroke="black" stroke-width="0.2" mask="url(#path-2-outside-1_653_5705)"/>
<path d="M26.1577 33.6379C26.1577 34.8067 26.1577 35.9755 26.1577 37.1443C26.1577 37.9391 25.807 38.3365 24.9889 38.3365C22.6513 38.3365 20.3137 38.3365 17.9995 38.3365C17.2047 38.3365 16.8073 38.0092 16.8073 37.1911C16.8307 34.8535 16.8073 32.5159 16.8073 30.2017C16.8073 29.4069 17.1345 29.0095 17.9527 29.0095C20.2903 29.0095 22.6279 29.0095 24.9421 29.0095C25.8304 29.0095 26.1109 29.3368 26.1343 30.2484C26.181 31.3471 26.1577 32.4925 26.1577 33.6379ZM18.7475 30.903C18.7475 32.773 18.7475 34.573 18.7475 36.3963C20.6176 36.3963 22.4175 36.3963 24.2174 36.3963C24.2174 34.5262 24.2174 32.7029 24.2174 30.903C22.3474 30.903 20.5474 30.903 18.7475 30.903Z" stroke="black" stroke-width="0.2" mask="url(#path-2-outside-1_653_5705)"/>
<path d="M57.9489 45.7934C57.9489 44.648 57.9255 43.526 57.9489 42.3805C57.9723 41.4221 58.2762 41.1182 59.2112 41.1182C61.4787 41.0949 63.7695 41.0949 66.037 41.1182C66.972 41.1182 67.2993 41.4455 67.2993 42.3805C67.3226 44.648 67.3226 46.9388 67.2993 49.2063C67.2993 50.1414 66.972 50.4686 66.037 50.4686C63.7695 50.492 61.4787 50.492 59.2112 50.4686C58.2762 50.4686 57.9489 50.1414 57.9489 49.2063C57.9255 48.0843 57.9489 46.9388 57.9489 45.7934ZM65.3824 43.0584C63.5124 43.0584 61.689 43.0584 59.8891 43.0584C59.8891 44.9285 59.8891 46.7518 59.8891 48.5752C61.7592 48.5752 63.5591 48.5752 65.3824 48.5752C65.3824 46.7285 65.3824 44.9285 65.3824 43.0584Z" stroke="black" stroke-width="0.2" mask="url(#path-2-outside-1_653_5705)"/>
<path d="M67.3227 9.4205C67.3227 10.5192 67.346 11.6412 67.3227 12.7399C67.2993 13.6983 66.9954 14.0256 66.0604 14.0256C63.7929 14.0489 61.502 14.0489 59.2346 14.0256C58.2761 14.0256 57.9489 13.6983 57.9489 12.7633C57.9255 10.4958 57.9255 8.20495 57.9489 5.93748C57.9489 4.97907 58.2762 4.65181 59.2112 4.65181C61.4787 4.62843 63.7695 4.62843 66.037 4.65181C67.0188 4.65181 67.3227 4.97907 67.3227 5.98423C67.3227 7.12966 67.3227 8.27508 67.3227 9.4205ZM59.8657 6.56863C59.8657 8.46208 59.8657 10.262 59.8657 12.0854C61.7358 12.0854 63.5591 12.0854 65.3591 12.0854C65.3591 10.2153 65.3591 8.39196 65.3591 6.56863C63.5124 6.56863 61.7124 6.56863 59.8657 6.56863Z" stroke="black" stroke-width="0.2" mask="url(#path-2-outside-1_653_5705)"/>
<path d="M33.6613 45.7934C33.6613 44.6246 33.6847 43.4558 33.6613 42.287C33.6379 41.4689 34.0353 41.0949 34.8301 41.0949C37.1677 41.0949 39.5053 41.0949 41.8429 41.0949C42.6143 41.0949 43.0117 41.4689 43.0117 42.287C43.0117 44.6246 43.0117 46.9622 43.0117 49.2998C43.0117 50.118 42.6143 50.492 41.8429 50.492C39.5053 50.492 37.1677 50.492 34.8301 50.492C34.0353 50.492 33.6613 50.118 33.6613 49.2998C33.6847 48.131 33.6613 46.9622 33.6613 45.7934ZM35.5548 48.5518C37.4482 48.5518 39.2482 48.5518 41.0481 48.5518C41.0481 46.6817 41.0481 44.8584 41.0481 43.0351C39.178 43.0351 37.3781 43.0351 35.5548 43.0351C35.5548 44.9051 35.5548 46.7051 35.5548 48.5518Z" stroke="black" stroke-width="0.2" mask="url(#path-2-outside-1_653_5705)"/>
<path d="M67.3227 21.4825C67.3227 22.6279 67.346 23.7499 67.3227 24.8954C67.2993 25.8538 66.9954 26.1577 66.0604 26.1577C63.7929 26.1577 61.502 26.1577 59.2346 26.1577C58.2762 26.1577 57.9723 25.8538 57.9723 24.8954C57.9489 22.6279 57.9489 20.337 57.9723 18.0696C57.9723 17.1112 58.2762 16.8307 59.2346 16.8307C61.502 16.8307 63.7929 16.8307 66.0604 16.8307C67.0188 16.8307 67.3227 17.1112 67.3227 18.0696C67.346 19.215 67.3227 20.3604 67.3227 21.4825ZM59.8891 18.7241C59.8891 20.6409 59.8891 22.4175 59.8891 24.2174C61.7592 24.2174 63.5825 24.2174 65.3825 24.2174C65.3825 22.3474 65.3825 20.5474 65.3825 18.7241C63.5124 18.7241 61.7358 18.7241 59.8891 18.7241Z" stroke="black" stroke-width="0.2" mask="url(#path-2-outside-1_653_5705)"/>
<path d="M42.9883 9.4205C42.9883 10.5659 42.9883 11.688 42.9883 12.8334C42.9883 13.6515 42.5909 14.0256 41.8195 14.0256C39.4819 14.0256 37.1443 14.0256 34.8067 14.0256C34.012 14.0256 33.6379 13.6515 33.6379 12.8334C33.6613 10.4958 33.6613 8.1582 33.6379 5.8206C33.6379 5.00245 34.012 4.62843 34.8067 4.62843C37.1443 4.62843 39.4819 4.62843 41.8195 4.62843C42.5909 4.62843 43.0117 5.00245 42.9883 5.8206C42.9883 7.03615 42.9883 8.22832 42.9883 9.4205ZM41.0949 6.59201C39.2014 6.59201 37.3781 6.59201 35.5548 6.59201C35.5548 8.46208 35.5548 10.262 35.5548 12.062C37.4248 12.062 39.2482 12.062 41.0949 12.062C41.0949 10.2387 41.0949 8.46208 41.0949 6.59201Z" stroke="black" stroke-width="0.2" mask="url(#path-2-outside-1_653_5705)"/>
<path d="M55.1438 9.4205C55.1438 10.5192 55.1438 11.6412 55.1438 12.7399C55.1438 13.7217 54.8633 14.0256 53.9049 14.0256C51.6374 14.0489 49.3466 14.0489 47.0791 14.0256C46.1207 14.0256 45.8168 13.6983 45.8168 12.7633C45.8168 10.4958 45.8168 8.20495 45.8168 5.93748C45.8168 4.97907 46.1207 4.65181 47.0557 4.65181C49.3232 4.62843 51.614 4.62843 53.8815 4.65181C54.8399 4.65181 55.1204 4.95569 55.1438 5.91411C55.1438 7.0829 55.1438 8.2517 55.1438 9.4205ZM53.2503 6.59201C51.3569 6.59201 49.5569 6.59201 47.757 6.59201C47.757 8.46208 47.757 10.2854 47.757 12.1087C49.6271 12.1087 51.427 12.1087 53.2503 12.1087C53.2503 10.2387 53.2503 8.43871 53.2503 6.59201Z" stroke="black" stroke-width="0.2" mask="url(#path-2-outside-1_653_5705)"/>
<path d="M55.1438 45.7233C55.1438 46.9155 55.1438 48.1076 55.1438 49.3232C55.1438 50.1413 54.7464 50.492 53.975 50.492C51.6374 50.492 49.2998 50.492 46.9622 50.492C46.1674 50.492 45.7934 50.0946 45.7934 49.2998C45.8168 46.9622 45.7934 44.6246 45.7934 42.287C45.7934 41.4689 46.2142 41.1182 46.9856 41.1182C49.3232 41.1182 51.6608 41.1182 53.9984 41.1182C54.7931 41.1182 55.1672 41.5156 55.1438 42.3104C55.1204 43.4558 55.1438 44.6013 55.1438 45.7233ZM47.757 43.0351C47.757 44.9051 47.757 46.7285 47.757 48.5518C49.6271 48.5518 51.4036 48.5518 53.2503 48.5518C53.2503 46.6817 53.2503 44.8584 53.2503 43.0351C51.3803 43.0351 49.5803 43.0351 47.757 43.0351Z" stroke="black" stroke-width="0.2" mask="url(#path-2-outside-1_653_5705)"/>
<path d="M62.7176 28.9628C63.863 28.9628 64.985 28.9628 66.1305 28.9628C66.9486 28.9628 67.3226 29.3602 67.3226 30.1316C67.3226 32.4692 67.3226 34.8067 67.3226 37.1443C67.3226 37.9391 66.9486 38.3131 66.1305 38.3131C63.7929 38.2898 61.4553 38.2898 59.1177 38.3131C58.2995 38.3131 57.9255 37.9391 57.9255 37.1443C57.9255 34.8067 57.9255 32.4692 57.9255 30.1316C57.9255 29.3602 58.2995 28.9394 59.1177 28.9628C60.3332 28.9861 61.5254 28.9628 62.7176 28.9628ZM59.9125 30.8796C59.9125 32.7497 59.9125 34.573 59.9125 36.4197C61.7825 36.4197 63.5825 36.4197 65.3824 36.4197C65.3824 34.5496 65.3824 32.7263 65.3824 30.8796C63.5124 30.8796 61.7358 30.8796 59.9125 30.8796Z" stroke="black" stroke-width="0.2" mask="url(#path-2-outside-1_653_5705)"/>
<path d="M50.5387 28.9628C51.6841 28.9628 52.8062 28.9628 53.9516 28.9628C54.7464 28.9628 55.1438 29.3134 55.1438 30.1082C55.1438 32.4692 55.1438 34.8301 55.1438 37.1911C55.1438 37.9625 54.7698 38.2897 53.9984 38.2897C51.6374 38.2897 49.2764 38.2897 46.9155 38.2897C46.144 38.2897 45.7934 37.9157 45.7934 37.1443C45.7934 34.7834 45.7934 32.4224 45.7934 30.0614C45.7934 29.29 46.1908 28.9394 46.9388 28.9628C48.1544 28.9861 49.3466 28.9628 50.5387 28.9628ZM47.757 30.903C47.757 32.7964 47.757 34.5964 47.757 36.3963C49.6271 36.3963 51.4504 36.3963 53.2503 36.3963C53.2503 34.5262 53.2503 32.7263 53.2503 30.903C51.3803 30.903 49.5803 30.903 47.757 30.903Z" stroke="black" stroke-width="0.2" mask="url(#path-2-outside-1_653_5705)"/>
<path d="M33.6613 33.6146C33.6613 32.4692 33.6613 31.3471 33.6613 30.2017C33.6613 29.2666 33.9418 28.9861 34.8535 28.9628C37.1677 28.9628 39.4585 28.9628 41.7728 28.9628C42.6844 28.9628 42.9883 29.2666 43.0117 30.1549C43.0117 32.4692 43.0117 34.76 43.0117 37.0742C43.0117 38.0092 42.7312 38.2898 41.8195 38.2898C39.5053 38.3131 37.2145 38.3131 34.9002 38.2898C33.9185 38.2898 33.6847 38.056 33.6847 37.0041C33.6613 35.882 33.6613 34.76 33.6613 33.6146ZM41.0481 36.4197C41.0481 34.5496 41.0481 32.7497 41.0481 30.903C39.2014 30.903 37.4015 30.903 35.5781 30.903C35.5781 32.773 35.5781 34.573 35.5781 36.4197C37.4248 36.4197 39.2248 36.4197 41.0481 36.4197Z" stroke="black" stroke-width="0.2" mask="url(#path-2-outside-1_653_5705)"/>
<path d="M55.1438 21.5058C55.1438 22.6746 55.1438 23.8434 55.1438 25.0122C55.1438 25.8304 54.7698 26.181 53.9516 26.181C51.614 26.181 49.2764 26.181 46.9622 26.181C46.1674 26.181 45.7934 25.7836 45.7934 24.9889C45.7934 22.6746 45.7934 20.3838 45.7934 18.0696C45.7934 17.1345 46.0739 16.854 46.9856 16.8307C49.3232 16.8073 51.6608 16.8307 53.975 16.8307C54.7931 16.8307 55.1438 17.2047 55.1204 18.0228C55.1204 19.1683 55.1438 20.337 55.1438 21.5058ZM53.227 24.2408C53.227 22.3474 53.227 20.5474 53.227 18.7241C51.3803 18.7241 49.5803 18.7241 47.7336 18.7241C47.7336 20.5942 47.7336 22.3941 47.7336 24.2408C49.6037 24.2408 51.3803 24.2408 53.227 24.2408Z" stroke="black" stroke-width="0.2" mask="url(#path-2-outside-1_653_5705)"/>
<path d="M42.9883 21.5292C42.9883 22.698 42.9883 23.8668 42.9883 25.0356C42.9883 25.7836 42.6377 26.181 41.8663 26.181C39.5053 26.181 37.1443 26.181 34.7834 26.181C34.0353 26.181 33.6379 25.8304 33.6613 25.059C33.6613 22.698 33.6613 20.3371 33.6613 17.9761C33.6613 17.2281 33.9886 16.8307 34.76 16.8307C37.121 16.8307 39.4819 16.8307 41.8429 16.8307C42.6611 16.8307 43.0117 17.228 42.9883 18.0228C42.9883 19.1916 42.9883 20.3604 42.9883 21.5292ZM41.0715 24.2175C41.0715 22.3474 41.0715 20.5708 41.0715 18.7241C39.2248 18.7241 37.4015 18.7241 35.5548 18.7241C35.5548 20.5708 35.5548 22.3708 35.5548 24.2175C37.4015 24.2175 39.178 24.2175 41.0715 24.2175Z" stroke="black" stroke-width="0.2" mask="url(#path-2-outside-1_653_5705)"/>
</g>
<defs>
<clipPath id="clip0_653_5705">
<rect width="86" height="86" fill="white"/>
</clipPath>
</defs>
</svg>
