<svg width="86" height="86" viewBox="0 0 86 86" fill="none" xmlns="http://www.w3.org/2000/svg">
<g clip-path="url(#clip0_602_5115)">
<path d="M35.5492 75.8471C33.0184 69.0368 30.5101 62.3163 27.9346 55.394C34.8325 57.9703 41.5512 60.4569 48.4716 63.0331C47.4638 64.0188 46.5455 64.8925 45.6497 65.7662C45.1346 66.2814 44.6195 66.7967 44.1044 67.3119C43.3429 68.096 43.3429 68.7008 44.1044 69.4849C45.6497 71.0306 47.195 72.5764 48.6955 74.0549C47.9789 74.727 47.307 75.3766 46.5007 76.1383C45.9408 75.5558 45.2018 74.7494 44.4403 73.9877C43.6341 73.1588 42.8278 72.3523 41.9992 71.5459C41.2153 70.7842 40.6106 70.8066 39.8268 71.5683C38.6174 72.778 37.408 73.9877 36.1986 75.175C36.0195 75.399 35.8179 75.5782 35.5492 75.8471Z" fill="#7231E5"/>
<path d="M0 12.4269C0.0895833 12.2029 0.179167 11.9564 0.246354 11.7324C1.03021 8.97698 3.42656 7.07281 6.29323 7.028C8.91354 6.9832 11.5115 7.0056 14.1094 7.0056C32.2276 7.0056 50.3234 7.0056 68.4417 7.0056C68.7552 7.0056 69.0688 7.0056 69.3599 7.028C70.0318 7.07281 70.4573 7.47604 70.5245 8.1257C70.5917 8.84256 70.2333 9.31301 69.5391 9.46982C69.1807 9.55943 68.8224 9.53703 68.4641 9.53703C47.9719 9.53703 27.4797 9.53703 6.9875 9.53703C5.8901 9.53703 4.8599 9.69384 3.98646 10.4107C3.15781 11.0828 2.57552 11.934 2.55313 12.9869C2.48594 15.7424 2.53073 18.5202 2.53073 21.3205C29.4953 21.3205 56.4151 21.3205 83.4245 21.3205C83.4469 21.0965 83.4693 20.85 83.4693 20.6036C83.4693 18.3186 83.4693 16.0112 83.4693 13.7262C83.4693 11.2172 81.8344 9.58183 79.326 9.55943C78.0495 9.55943 76.7505 9.55943 75.474 9.55943C74.4661 9.55943 73.9286 9.11139 73.9062 8.30492C73.8839 7.47604 74.4438 7.028 75.5188 7.028C76.9521 7.028 78.3854 7.0056 79.7964 7.0504C83.1557 7.14001 85.888 9.87306 86 13.2334C86.0224 13.771 86 14.2862 86 14.8239C86 31.827 86 48.8077 86 65.8108C86 69.2159 84.0292 71.7698 80.8714 72.4642C80.401 72.5762 79.9307 72.5986 79.4604 72.5986C75.8995 72.621 72.3609 72.5986 68.8 72.5986C68.6656 72.5986 68.5089 72.5986 68.3745 72.5762C67.6802 72.4866 67.2995 72.061 67.2771 71.4113C67.2323 70.7393 67.613 70.2912 68.2625 70.1344C68.576 70.0672 68.9344 70.0672 69.2703 70.0672C72.5625 70.0672 75.8771 70.0672 79.1693 70.0672C81.9016 70.0672 83.4693 68.4767 83.4693 65.7212C83.4693 52.056 83.4693 38.3908 83.4693 24.7256C83.4693 24.4792 83.4693 24.2327 83.4693 23.8967C56.4823 23.8967 29.5625 23.8967 2.50833 23.8967C2.50833 24.636 2.50833 25.3976 2.50833 26.1369C2.50833 28.3547 2.50833 30.5501 2.50833 32.7679C2.50833 33.4848 2.44115 34.1344 1.67969 34.4256C0.895833 34.7841 0.447917 34.2912 0 33.7536C0 26.6521 0 19.5283 0 12.4269Z" fill="black"/>
<path d="M0 38.4581C0.134375 38.3237 0.246354 38.1221 0.403125 38.0773C0.828646 37.9653 1.34375 37.7413 1.72448 37.8757C2.06042 37.9877 2.30677 38.4805 2.48594 38.8613C2.59792 39.0854 2.50833 39.4214 2.50833 39.6902C2.50833 48.3598 2.50833 57.0518 2.50833 65.7213C2.50833 68.4768 4.07604 70.0673 6.80833 70.0897C13.8406 70.0897 20.8505 70.0897 27.8828 70.0897C28.1068 70.0897 28.3307 70.0897 28.6667 70.0897C28.5099 69.6641 28.4203 69.3281 28.2859 68.992C26.6286 64.5564 24.9937 60.1432 23.3365 55.7076C22.8437 54.3635 23.2245 53.1538 24.3891 52.773C24.8818 52.6162 25.5312 52.5938 26.0016 52.773C33.325 55.4612 40.626 58.1719 47.9271 60.9049C49.5396 61.5098 49.8531 63.0779 48.6437 64.31C47.3224 65.6541 45.9562 66.9982 44.4557 68.4768C45.0156 68.9696 45.4859 69.4401 46.0234 69.8209C46.2922 70.0001 46.6953 70.0673 47.0312 70.0673C51.9583 70.0897 56.8854 70.0673 61.8125 70.0897C62.1484 70.0897 62.4844 70.0897 62.7979 70.1793C63.425 70.3585 63.7161 70.8066 63.6713 71.4338C63.6266 72.0611 63.2682 72.4643 62.6411 72.5539C62.35 72.5987 62.0365 72.5763 61.7229 72.5763C57.4901 72.5763 53.2797 72.5763 48.9573 72.5763C49.0917 72.8228 49.1812 73.0244 49.2708 73.2036C49.6964 74.0549 49.6292 74.8613 49.0021 75.5334C48.0839 76.5191 47.1432 77.4824 46.1578 78.3785C45.2396 79.2073 44.1198 79.1401 43.1568 78.1992C41.925 76.9895 40.6932 75.7574 39.4615 74.5253C39.3047 74.3685 39.1479 74.2341 38.9016 74.0101C37.6026 75.3094 36.326 76.5863 35.0495 77.8632C33.549 79.3641 32.0708 79.0505 31.3318 77.0791C30.8615 75.8246 30.3464 74.5701 29.9432 73.2932C29.7417 72.666 29.4281 72.5091 28.801 72.5091C21.8583 72.5315 14.9156 72.4195 7.97292 72.5539C3.96406 72.7332 1.0974 71.2994 0 67.1999C0 57.6118 0 48.0462 0 38.4581ZM33.549 75.847C33.8401 75.5782 34.0417 75.399 34.2208 75.2198C35.4302 74.0101 36.6396 72.8004 37.849 71.6131C38.6328 70.8514 39.2375 70.829 40.0214 71.5907C40.85 72.3971 41.6562 73.2036 42.4625 74.0325C43.224 74.7941 43.9406 75.6006 44.5229 76.1831C45.3292 75.4214 46.0234 74.7717 46.7177 74.0997C45.2172 72.5987 43.6719 71.0754 42.1266 69.5297C41.3651 68.7456 41.3651 68.1407 42.1266 67.3567C42.6417 66.8414 43.1568 66.3262 43.6719 65.8109C44.5677 64.9149 45.4859 64.0412 46.4938 63.0779C39.5734 60.5017 32.8547 57.9926 25.9568 55.4388C28.5099 62.3162 30.9958 69.0368 33.549 75.847Z" fill="black"/>
<path d="M19.7307 42.0871C18.9021 44.4394 18.0958 46.6347 17.312 48.8301C17.088 49.4574 16.9537 50.1519 16.5953 50.7119C16.349 51.0927 15.8563 51.4512 15.4083 51.5632C14.8484 51.6976 14.4005 51.2944 14.2214 50.7343C12.8328 46.7468 11.4667 42.7592 10.1005 38.7717C9.85418 38.0324 10.2125 37.3379 10.862 37.1363C11.5787 36.9123 12.2057 37.2259 12.4969 38.0324C13.3703 40.519 14.2214 43.0056 15.0724 45.4698C15.162 45.7387 15.2516 45.9851 15.4083 46.4331C15.5651 46.0523 15.6771 45.8059 15.7667 45.5819C16.6625 43.1176 17.5359 40.631 18.4094 38.1668C18.6333 37.4947 18.9469 36.9795 19.7307 36.9795C20.5146 36.9795 20.8281 37.4947 21.0521 38.1668C21.8583 40.5862 22.687 42.9832 23.5156 45.3802C23.6276 45.6939 23.7396 46.0075 23.9188 46.4779C24.6578 44.3945 25.3297 42.4456 26.024 40.519C26.3151 39.7125 26.5839 38.8837 26.875 38.0772C27.1886 37.2483 27.8604 36.8899 28.5771 37.1811C29.2266 37.4275 29.4953 38.122 29.2266 38.9285C27.8828 42.8264 26.5167 46.7468 25.1505 50.6447C24.949 51.2496 24.5682 51.6528 23.874 51.6528C23.1797 51.6304 22.8438 51.2048 22.6422 50.5999C21.7912 48.0685 20.9177 45.5146 20.0443 42.9832C19.9547 42.692 19.8651 42.468 19.7307 42.0871Z" fill="black"/>
<path d="M47.2551 46.4555C48.2405 43.6776 49.1363 41.1014 50.0545 38.5252C50.1441 38.2787 50.2113 38.0323 50.3009 37.8083C50.6144 37.1586 51.2639 36.8898 51.9134 37.1138C52.5405 37.3379 52.8764 37.9875 52.63 38.682C51.9806 40.6086 51.2863 42.5351 50.6144 44.4617C49.9202 46.4331 49.2259 48.4044 48.554 50.3982C48.3301 51.0479 48.0165 51.5855 47.2327 51.5855C46.4488 51.5855 46.1353 51.0479 45.9113 50.3982C44.9931 47.6876 44.0748 44.9545 43.0894 42.0647C42.8655 42.6247 42.7087 43.028 42.5519 43.4312C41.7233 45.7386 40.8946 48.0684 40.0884 50.3758C39.8644 51.0255 39.5509 51.5631 38.767 51.5631C37.9832 51.5631 37.6696 51.0479 37.4457 50.3758C36.1467 46.5675 34.8254 42.7815 33.5264 38.9732C33.1233 37.7859 33.8176 36.7778 34.8702 37.1138C35.2957 37.2483 35.766 37.7859 35.9228 38.2563C36.8186 40.6982 37.6248 43.1624 38.4759 45.6266C38.5431 45.8506 38.6327 46.0746 38.7894 46.4555C39.103 45.5818 39.3941 44.8425 39.6405 44.1257C40.3571 42.1095 41.0962 40.0709 41.8129 38.0547C42.0368 37.4051 42.3952 36.957 43.1118 36.957C43.8285 36.957 44.1868 37.4275 44.3884 38.0771C45.217 40.5413 46.0681 43.0056 46.8967 45.4474C46.9639 45.7162 47.0759 45.9626 47.2551 46.4555Z" fill="black"/>
<path d="M65.9558 42.0647C64.948 44.8874 64.0298 47.5084 63.0892 50.1295C63.022 50.3087 62.9548 50.4879 62.8876 50.6895C62.6636 51.272 62.2605 51.72 61.6334 51.5632C61.1855 51.4512 60.6256 51.0704 60.4912 50.6895C59.0803 46.7468 57.7366 42.7816 56.3704 38.8165C56.1241 38.0772 56.4376 37.3827 57.0647 37.1587C57.8038 36.8899 58.4532 37.2259 58.7668 38.0772C59.6178 40.519 60.4689 42.9832 61.2975 45.4475C61.3871 45.7387 61.4991 46.0075 61.6782 46.5227C62.0366 45.5147 62.3501 44.7082 62.6412 43.8793C63.3355 41.9527 64.0074 40.0486 64.6793 38.122C64.9032 37.4499 65.2616 36.9571 66.0454 36.9795C66.7845 37.0019 67.098 37.4947 67.322 38.122C68.2402 40.855 69.1808 43.5657 70.1438 46.4555C70.323 46.0299 70.435 45.7611 70.5246 45.4699C71.3756 43.0504 72.2043 40.6086 73.1001 38.2116C73.2569 37.786 73.7048 37.3155 74.1303 37.1587C74.4214 37.0243 75.1157 37.2483 75.2725 37.5171C75.4964 37.898 75.586 38.5476 75.4293 38.9733C74.3767 42.1544 73.2345 45.313 72.1371 48.4717C71.9131 49.099 71.6892 49.7262 71.4652 50.3759C71.2412 51.048 70.9277 51.6304 70.0991 51.608C69.3152 51.5856 69.0241 51.0479 68.8001 50.3983C67.9939 47.9565 67.1428 45.5371 66.3142 43.0952C66.247 42.804 66.135 42.5128 65.9558 42.0647Z" fill="black"/>
<path d="M25.061 13.0989C26.3375 13.0989 27.3901 14.1966 27.3677 15.4735C27.3454 16.7504 26.248 17.8033 24.9938 17.7809C23.762 17.7361 22.7094 16.6832 22.7094 15.4511C22.687 14.1742 23.7844 13.0989 25.061 13.0989Z" fill="black"/>
<path d="M17.8944 17.781C16.6626 17.8034 15.5876 16.7953 15.5428 15.5184C15.498 14.2191 16.5282 13.1214 17.8272 13.099C19.0814 13.0766 20.134 14.0847 20.1788 15.3392C20.2011 16.6609 19.1933 17.7586 17.8944 17.781Z" fill="black"/>
<path d="M8.37598 15.3616C8.39837 14.1071 9.45098 13.0766 10.7051 13.099C12.0041 13.1214 13.0343 14.1967 12.9895 15.496C12.9447 16.7729 11.9145 17.781 10.6603 17.7586C9.36139 17.7586 8.35358 16.6833 8.37598 15.3616Z" fill="black"/>
</g>
<defs>
<clipPath id="clip0_602_5115">
<rect width="86" height="86" fill="white"/>
</clipPath>
</defs>
</svg>
