<?xml version="1.0" encoding="UTF-8"?>
<svg width="60px" height="60px" viewBox="0 0 60 60" version="1.1" xmlns="http://www.w3.org/2000/svg" xmlns:xlink="http://www.w3.org/1999/xlink">
    <!-- Generator: Sketch 54.1 (76490) - https://sketchapp.com -->
    <title>1</title>
    <desc>Created with Sketch.</desc>
    <g id="1" stroke="none" stroke-width="1" fill="none" fill-rule="evenodd">
        <g id="Group-23" transform="translate(3.000000, 8.000000)">
            <g id="Group-22-Copy">
                <text id="TO" font-family="Roboto-Black, Roboto" font-size="12.65" font-weight="700" fill="#7231E5">
                    <tspan x="9.98843506" y="22.12">TO</tspan>
                </text>
                <circle id="Oval" stroke="#000000" stroke-width="1.5" cx="17.71" cy="17.71" r="17.71"></circle>
                <path d="M31.5,30.5 L40.5,38.5" id="Line-4" stroke="#000000" stroke-width="1.265" stroke-linecap="round"></path>
            </g>
            <path d="M37.9599771,4.93541767 L55.0623803,36.2398594 C56.9158953,39.6325554 55.6681427,43.8854497 52.2754467,45.7389647 C51.2466978,46.3009961 50.0932739,46.595669 48.9210096,46.5959451 L14.7015061,46.6040049 C10.835513,46.6049155 7.70076816,43.471647 7.69985759,39.6056539 C7.69958108,38.431673 7.99457259,37.2764771 8.55768774,36.2463643 L25.674788,4.93386271 C27.5291618,1.54163608 31.7823719,0.294960063 35.1745985,2.14933389 C36.3506368,2.79221978 37.3173889,3.75921666 37.9599771,4.93541767 Z" id="Triangle-Copy-45" fill="#934AEF" opacity="0.06" transform="translate(31.811969, 25.602787) scale(-1, -1) rotate(-79.000000) translate(-31.811969, -25.602787) "></path>
        </g>
    </g>
</svg>