<svg xmlns="http://www.w3.org/2000/svg" xmlns:xlink="http://www.w3.org/1999/xlink" width="60" height="60" viewBox="0 0 60 60"><defs><clipPath id="a"><path d="M0,0H28.914V51H0Z" fill="none"/></clipPath><clipPath id="b"><path d="M0,51H29V0H0Z" fill="none"/></clipPath><clipPath id="d"><rect width="60" height="60"/></clipPath></defs><g id="c" clip-path="url(#d)"><g transform="translate(-6 1)"><path d="M15.863.331a7,7,0,0,1,12.285,0l17.1,31.3a7,7,0,0,1-6.141,10.356L4.89,42A7,7,0,0,1-1.254,31.644Z" transform="matrix(-0.921, -0.391, 0.391, -0.921, 41.046, 55.853)" fill="#934aef" opacity="0.06"/><rect width="26" height="6" transform="translate(27.544 47)" fill="#7231e5"/><g transform="translate(25.544 5)"><path d="M9.167,0H.833A.929.929,0,0,0,0,1,.929.929,0,0,0,.833,2H9.167A.929.929,0,0,0,10,1a.929.929,0,0,0-.833-1" transform="translate(9 2)"/><path d="M2,0H1A1,1,0,1,0,1,2H2A1,1,0,0,0,2,0" transform="translate(23 2)"/><path d="M4.586,5H2.413A2.361,2.361,0,0,1,0,2.7V2.3A2.361,2.361,0,0,1,2.414,0H4.586A2.361,2.361,0,0,1,7,2.3v.4A2.361,2.361,0,0,1,4.586,5ZM2.414,1.667A.65.65,0,0,0,1.75,2.3v.4a.649.649,0,0,0,.664.632H4.586A.649.649,0,0,0,5.25,2.7V2.3a.65.65,0,0,0-.664-.633Z" transform="translate(11 43)"/><path d="M0,0H28.914V51H0Z" fill="none"/><g clip-path="url(#a)"><path d="M25.839,51H3.074A3.077,3.077,0,0,1,0,47.927V3.073A3.077,3.077,0,0,1,3.074,0H25.84a3.077,3.077,0,0,1,3.073,3.073V47.928A3.077,3.077,0,0,1,25.839,51ZM3.074,1.7A1.375,1.375,0,0,0,1.7,3.073V47.928A1.375,1.375,0,0,0,3.074,49.3H25.84a1.375,1.375,0,0,0,1.373-1.373V3.073A1.375,1.375,0,0,0,25.839,1.7Z" transform="translate(0 0)"/></g><path d="M0,51H29V0H0Z" fill="none"/><g clip-path="url(#b)"><path d="M28.148,37H.853A.848.848,0,0,1,0,36.159V.841A.848.848,0,0,1,.853,0H28.147A.848.848,0,0,1,29,.841V36.159A.847.847,0,0,1,28.148,37ZM1.706,1.682V35.318H27.294V1.682Z" transform="translate(0 5)"/></g></g></g></g></svg>