<?xml version="1.0" encoding="UTF-8"?>
<svg width="60px" height="60px" viewBox="0 0 60 60" version="1.1" xmlns="http://www.w3.org/2000/svg" xmlns:xlink="http://www.w3.org/1999/xlink">
    <!-- Generator: Sketch 54.1 (76490) - https://sketchapp.com -->
    <title>8</title>
    <desc>Created with Sketch.</desc>
    <defs>
        <polygon id="path-1" points="0 0.0149183509 52.263338 0.0149183509 52.263338 23.2726854 0 23.2726854"></polygon>
        <polygon id="path-3" points="0 53.3333333 52.3636364 53.3333333 52.3636364 0 0 0"></polygon>
    </defs>
    <g id="8" stroke="none" stroke-width="1" fill="none" fill-rule="evenodd">
        <g id="Group-16-Copy-2" transform="translate(-7.000000, 2.000000)">
            <path d="M33.6895775,10.2430349 L49.9162277,39.9444882 C51.7697428,43.3371841 50.5219901,47.5900784 47.1292942,49.4435935 C46.1005452,50.0056249 44.9471213,50.3002977 43.774857,50.3005738 L11.307612,50.3082209 C7.44161889,50.3091315 4.30687406,47.175863 4.30596349,43.3098699 C4.30568698,42.135889 4.60067849,40.9806931 5.16379364,39.9505803 L21.4043884,10.24148 C23.2587622,6.84925336 27.5119722,5.60257734 30.9041989,7.45695116 C32.0802372,8.09983705 33.0469893,9.06683394 33.6895775,10.2430349 Z" id="Triangle-Copy-37" fill="#934AEF" opacity="0.06" transform="translate(27.540246, 28.453012) scale(-1, -1) rotate(23.000000) translate(-27.540246, -28.453012) "></path>
            <g id="Group-37" transform="translate(11.193735, 2.909091)">
                <g id="Group-3" transform="translate(0.000000, 30.060606)">
                    <mask id="mask-2" fill="white">
                        <use xlink:href="#path-1"></use>
                    </mask>
                    <g id="Clip-2"></g>
                    <path d="M49.6299472,5.06429987 L30.829316,15.9708264 L20.5062148,15.9708264 L17.5385029,7.7773925 L23.3915938,4.50542352 L36.3309009,4.50542352 C36.7964652,4.50454115 37.242599,4.69050237 37.5705029,5.02216631 C37.7608563,5.21298061 37.9031273,5.44681086 37.9850209,5.70391383 C38.0557173,5.883919 38.0905166,6.07594657 38.0866744,6.26929772 C38.0866744,7.24344334 37.3008906,8.03317191 36.3309009,8.03317191 L26.6751341,8.03317191 L26.6751341,9.7970461 L36.3309009,9.7970461 C38.1036899,9.79142094 39.5927053,8.45693408 39.8001839,6.6883171 L47.8705509,2.00851357 C48.4135081,1.69361482 49.0827087,1.69328393 49.626105,2.00851357 C50.1691719,2.32330202 50.503882,2.90512021 50.503882,3.5351383 C50.5086024,4.16592848 50.1743314,4.7503938 49.6299472,5.06429987 L49.6299472,5.06429987 Z M12.8062353,20.5076846 L8.00360069,7.23958294 L14.6020775,4.82539595 L19.4055904,18.0874313 L12.8062353,20.5076846 Z M5.60815643,21.2625592 L2.00955609,11.3134132 L6.95830395,9.50343473 L10.5616247,19.4482792 L5.60815643,21.2625592 Z M51.7935424,1.77126411 C50.815978,0.0943041792 48.6775218,-0.481006463 46.9966161,0.480124084 L39.5044446,4.82285911 C39.3415355,4.43295821 39.1071616,4.07824214 38.8126298,3.77580698 C38.1559437,3.11225851 37.2627979,2.73978458 36.3309009,2.74143903 L23.1640261,2.74143903 C23.0149489,2.74143903 22.8682868,2.77982249 22.7375424,2.8525084 L16.9320947,6.09833692 L15.9531033,3.39781818 C15.7881084,2.93953296 15.2844515,2.7022835 14.8288768,2.86850151 L6.57715815,5.88469108 C6.358153,5.96432572 6.17943602,6.12844808 6.08085626,6.34032917 C5.98183739,6.55265144 5.97118902,6.79552607 6.05088714,7.01556915 L6.35090772,7.84368117 L0.579271355,9.95686687 C0.360266209,10.0365015 0.181439451,10.2001827 0.0828596913,10.412505 C-0.0161591767,10.624386 -0.0268075472,10.8672607 0.052890566,11.0873037 L4.25844803,22.6905782 C4.42344288,23.1487531 4.92666072,23.3855614 5.38267444,23.2197846 L11.1577139,21.1083636 L11.4578443,21.936586 C11.6228391,22.3947609 12.1264961,22.6314589 12.5825098,22.4653511 L20.8336796,19.4482792 C21.2896933,19.2823921 21.5254943,18.7768996 21.3603897,18.3187247 L21.1452268,17.7347006 L31.0642388,17.7347006 C31.2184755,17.7347006 31.369858,17.6937803 31.5031273,17.6167928 L50.5077242,6.59235847 C51.5993468,5.96653167 52.2706333,4.79826282 52.2632782,3.5351383 C52.2620707,2.91626023 52.1004789,2.30830159 51.7935424,1.77126411 L51.7935424,1.77126411 Z" id="Fill-1" fill="#000000" mask="url(#mask-2)"></path>
                </g>
                <polygon id="Fill-4" fill="#000000" points="20.3636364 20.1067229 30.7730642 9.6969697 32 10.924014 21.5902468 21.3333333"></polygon>
                <path d="M31.3535354,20.8484343 C31.3535354,21.2947088 30.9921425,21.6564983 30.5454545,21.6564983 C30.0991708,21.6564983 29.7373737,21.2947088 29.7373737,20.8484343 C29.7373737,20.4021599 30.0991708,20.0403704 30.5454545,20.0403704 C30.9921425,20.0403704 31.3535354,20.4021599 31.3535354,20.8484343 M28.1212121,20.8484343 C28.1212121,22.1872577 29.2066033,23.2727273 30.5454545,23.2727273 C31.884609,23.2727273 32.969697,22.1872577 32.969697,20.8484343 C32.969697,19.509611 31.884609,18.4242424 30.5454545,18.4242424 C29.2066033,18.4242424 28.1212121,19.509611 28.1212121,20.8484343" id="Fill-6" fill="#000000"></path>
                <path d="M22.7878283,10.3434007 C23.2345069,10.3434007 23.5958922,10.7052912 23.5958922,11.1514646 C23.5958922,11.5977391 23.2345069,11.9596296 22.7878283,11.9596296 C22.3415538,11.9596296 21.9797643,11.5977391 21.9797643,11.1514646 C21.9797643,10.7052912 22.3415538,10.3434007 22.7878283,10.3434007 M22.7878283,13.5757576 C24.1269548,13.5757576 25.2121212,12.490288 25.2121212,11.1514646 C25.2121212,9.81274234 24.1269548,8.72727273 22.7878283,8.72727273 C21.4490049,8.72727273 20.3636364,9.81274234 20.3636364,11.1514646 C20.3636364,12.490288 21.4490049,13.5757576 22.7878283,13.5757576" id="Fill-8" fill="#000000"></path>
                <path d="M27.1514588,4.70992454 C33.1190021,4.70992454 37.9566376,9.54758165 37.9566376,15.5151515 C37.9566376,21.4827214 33.1190021,26.3203785 27.1514588,26.3203785 C21.1839156,26.3203785 16.3462801,21.4827214 16.3462801,15.5151515 C16.352924,9.55017165 21.1870687,4.71656843 27.1514588,4.70992454 M27.1514588,28.1212121 C34.1140055,28.1212121 39.7575758,22.4772788 39.7575758,15.5151515 C39.7575758,8.55302421 34.1140055,2.90909091 27.1514588,2.90909091 C20.1893626,2.90909091 14.5454545,8.55302421 14.5454545,15.5151515 C14.5528867,22.4742384 20.1925157,28.11378 27.1514588,28.1212121" id="Fill-10" fill="#000000"></path>
                <mask id="mask-4" fill="white">
                    <use xlink:href="#path-3"></use>
                </mask>
                <g id="Clip-13"></g>
                <polygon id="Fill-12" fill="#000000" mask="url(#mask-4)" points="25.2121212 1.93939394 27.1515152 1.93939394 27.1515152 0 25.2121212 0"></polygon>
                <polygon id="Fill-14" fill="#000000" mask="url(#mask-4)" points="21.3333333 0.614550653 23.6272795 0 24.2424242 2.29379769 21.9486266 2.90909091"></polygon>
                <polygon id="Fill-15" fill="#000000" mask="url(#mask-4)" points="17.4545455 3.00421843 19.2990068 1.93939394 20.3636364 3.78366036 18.5197076 4.84848485"></polygon>
                <polygon id="Fill-16" fill="#000000" mask="url(#mask-4)" points="14.5454545 5.3330761 16 3.87878788 17.4545455 5.3330761 16 6.78787879"></polygon>
                <polygon id="Fill-17" fill="#000000" mask="url(#mask-4)" points="12.6060606 8.63214521 13.6706902 6.78787879 15.5151515 7.85270327 14.4499894 9.6969697"></polygon>
                <polygon id="Fill-18" fill="#000000" mask="url(#mask-4)" points="10.6666667 11.9909244 11.2819599 9.6969697 13.5757576 10.3121059 12.9612069 12.6060606"></polygon>
                <polygon id="Fill-19" fill="#000000" mask="url(#mask-4)" points="10.6666667 16.4848485 12.6060606 16.4848485 12.6060606 14.5454545 10.6666667 14.5454545"></polygon>
                <polygon id="Fill-20" fill="#000000" mask="url(#mask-4)" points="10.6666667 18.0693388 12.9610814 17.4545455 13.5757576 19.748843 11.2814914 20.3636364"></polygon>
                <polygon id="Fill-21" fill="#000000" mask="url(#mask-4)" points="12.6060606 23.3679392 14.450327 22.3030303 15.5151515 24.1473455 13.6703524 25.2121212"></polygon>
                <polygon id="Fill-22" fill="#000000" mask="url(#mask-4)" points="14.5454545 26.6666023 16.0002572 25.2121212 17.4545455 26.6666023 16.0002572 28.1212121"></polygon>
                <polygon id="Fill-23" fill="#000000" mask="url(#mask-4)" points="17.4545455 28.9957816 18.519175 27.1515152 20.3636364 28.2163396 19.2984742 30.0606061"></polygon>
                <polygon id="Fill-24" fill="#000000" mask="url(#mask-4)" points="21.3333333 31.3847068 21.9485009 29.0909091 24.2424242 29.7060538 23.6274051 32"></polygon>
                <polygon id="Fill-25" fill="#000000" mask="url(#mask-4)" points="25.2121212 32 27.1515152 32 27.1515152 30.0606061 25.2121212 30.0606061"></polygon>
                <polygon id="Fill-26" fill="#000000" mask="url(#mask-4)" points="29.0909091 29.7063023 31.3842385 29.0909091 32 31.3846068 29.7065221 32"></polygon>
                <polygon id="Fill-27" fill="#000000" mask="url(#mask-4)" points="32 28.215807 33.8447991 27.1515152 34.9090909 28.9956484 33.0648245 30.0606061"></polygon>
                <polygon id="Fill-28" fill="#000000" mask="url(#mask-4)" points="35.8787879 26.6663451 37.3338479 25.2121212 38.7878788 26.6668596 37.3333333 28.1212121"></polygon>
                <polygon id="Fill-29" fill="#000000" mask="url(#mask-4)" points="38.7878788 24.1478294 39.8525083 22.3030303 41.6969697 23.367988 40.6323402 25.2121212"></polygon>
                <polygon id="Fill-30" fill="#000000" mask="url(#mask-4)" points="39.7575758 19.7489686 40.3722749 17.4545455 42.6666667 18.0692132 42.0519675 20.3636364"></polygon>
                <polygon id="Fill-31" fill="#000000" mask="url(#mask-4)" points="39.7575758 16.4848485 41.6969697 16.4848485 41.6969697 14.5454545 39.7575758 14.5454545"></polygon>
                <polygon id="Fill-32" fill="#000000" mask="url(#mask-4)" points="39.7575758 10.311763 42.0518419 9.6969697 42.6666667 11.9912673 40.3724005 12.6060606"></polygon>
                <polygon id="Fill-33" fill="#000000" mask="url(#mask-4)" points="38.7878788 7.85270327 40.6321452 6.78787879 41.6969697 8.63254472 39.8521706 9.6969697"></polygon>
                <polygon id="Fill-34" fill="#000000" mask="url(#mask-4)" points="35.8787879 5.3330761 37.3333333 3.87878788 38.7878788 5.3330761 37.3333333 6.78787879"></polygon>
                <polygon id="Fill-35" fill="#000000" mask="url(#mask-4)" points="32 3.78419304 33.0648245 1.93939394 34.9090909 3.00421843 33.8447991 4.84848485"></polygon>
                <polygon id="Fill-36" fill="#000000" mask="url(#mask-4)" points="29.0909091 2.29372913 29.7071161 0 32 0.615510204 31.3842385 2.90909091"></polygon>
            </g>
            <polygon id="Rectangle" fill="#7231E5" transform="translate(24.462162, 45.357497) rotate(-20.000000) translate(-24.462162, -45.357497) " points="21.0682227 38.5696183 27.8561015 38.5696183 27.8561015 52.1453759 21.0682227 52.1453759"></polygon>
        </g>
    </g>
</svg>