<?xml version="1.0" encoding="UTF-8"?>
<svg width="60px" height="60px" viewBox="0 0 60 60" version="1.1" xmlns="http://www.w3.org/2000/svg" xmlns:xlink="http://www.w3.org/1999/xlink">
    <!-- Generator: Sketch 54.1 (76490) - https://sketchapp.com -->
    <title>12</title>
    <desc>Created with Sketch.</desc>
    <defs>
        <polygon id="path-1" points="0 0.0428261622 12.2607316 0.0428261622 12.2607316 18.04 0 18.04"></polygon>
        <polygon id="path-3" points="0.0392814894 0.0349643339 12.2999826 0.0349643339 12.2999826 24.6 0.0392814894 24.6"></polygon>
        <polygon id="path-5" points="0.0413071378 0.0388243794 12.2586842 0.0388243794 12.2586842 21.32 0.0413071378 21.32"></polygon>
        <polygon id="path-7" points="0.00177688852 0.0103275676 38.5297197 0.0103275676 38.5297197 18.0160636 0.00177688852 18.0160636"></polygon>
    </defs>
    <g id="12" stroke="none" stroke-width="1" fill="none" fill-rule="evenodd">
        <g id="Group-35-Copy" transform="translate(-1.000000, 3.000000)">
            <rect id="Rectangle" stroke="#7231E5" x="28.0435395" y="27.5733133" width="7" height="19" rx="2"></rect>
            <path d="M35.1480083,7.33263073 L52.2504115,38.6370725 C54.1039266,42.0297685 52.8561739,46.2826628 49.463478,48.1361778 C48.434729,48.6982092 47.2813051,48.9928821 46.1090408,48.9931582 L11.8895374,49.001218 C8.02354424,49.0021286 4.88879941,45.8688601 4.88788884,42.0028669 C4.88761233,40.8288861 5.18260384,39.6736902 5.74571899,38.6435774 L22.8628193,7.33107577 C24.7171931,3.93884914 28.9704031,2.69217312 32.3626297,4.54654695 C33.538668,5.18943284 34.5054202,6.15642972 35.1480083,7.33263073 Z" id="Triangle-Copy-49" fill="#934AEF" opacity="0.06" transform="translate(29.000000, 28.000000) scale(-1, -1) rotate(23.000000) translate(-29.000000, -28.000000) "></path>
            <rect id="Rectangle" fill="#7231E5" x="26.5435395" y="27.0733133" width="9" height="19"></rect>
            <g id="Group-13" transform="translate(8.543540, 8.073313)">
                <g id="Group-3" transform="translate(0.000000, 21.320000)">
                    <mask id="mask-2" fill="white">
                        <use xlink:href="#path-1"></use>
                    </mask>
                    <g id="Clip-2"></g>
                    <path d="M10.8984412,15.9634143 C10.8984412,16.3458445 10.5936454,16.6555829 10.2172741,16.6555829 L2.04344436,16.6555829 C1.6671167,16.6555829 1.36232096,16.3458445 1.36232096,15.9634143 L1.36232096,2.11942076 C1.36232096,1.73699049 1.6671167,1.42725211 2.04344436,1.42725211 L10.2172741,1.42725211 C10.5936454,1.42725211 10.8984412,1.73699049 10.8984412,2.11942076 L10.8984412,15.9634143 Z M10.2172741,0.0428261622 L2.04344436,0.0428261622 C0.915115638,0.0428261622 -1.30851064e-05,0.972839135 -1.30851064e-05,2.11942076 L-1.30851064e-05,15.9634143 C-1.30851064e-05,17.1100402 0.915115638,18.0400089 2.04344436,18.0400089 L10.2172741,18.0400089 C11.3456029,18.0400089 12.2607316,17.1100402 12.2607316,15.9634143 L12.2607316,2.11942076 C12.2607316,0.972839135 11.3456029,0.0428261622 10.2172741,0.0428261622 L10.2172741,0.0428261622 Z" id="Fill-1" fill="#000000" mask="url(#mask-2)"></path>
                </g>
                <g id="Group-6" transform="translate(28.700000, 14.760000)">
                    <mask id="mask-4" fill="white">
                        <use xlink:href="#path-3"></use>
                    </mask>
                    <g id="Clip-5"></g>
                    <path d="M10.9376921,22.5529217 C10.9376921,22.9299178 10.6328964,23.2352549 10.2565687,23.2352549 L2.08269532,23.2352549 C1.70636766,23.2352549 1.40157191,22.9299178 1.40157191,22.5529217 L1.40157191,2.08205137 C1.40157191,1.70505528 1.70636766,1.39967446 2.08269532,1.39967446 L10.2565687,1.39967446 C10.6328964,1.39967446 10.9376921,1.70505528 10.9376921,2.08205137 L10.9376921,22.5529217 Z M10.2565687,0.0349643339 L2.08269532,0.0349643339 C0.954366596,0.0349643339 0.0392814894,0.951718508 0.0392814894,2.08205137 L0.0392814894,22.5529217 C0.0392814894,23.6832546 0.954366596,24.6000087 2.08269532,24.6000087 L10.2565687,24.6000087 C11.3848538,24.6000087 12.2999826,23.6832546 12.2999826,22.5529217 L12.2999826,2.08205137 C12.2999826,0.951718508 11.3848538,0.0349643339 10.2565687,0.0349643339 L10.2565687,0.0349643339 Z" id="Fill-4" fill="#000000" mask="url(#mask-4)"></path>
                </g>
                <g id="Group-9" transform="translate(14.760000, 18.040000)">
                    <mask id="mask-6" fill="white">
                        <use xlink:href="#path-5"></use>
                    </mask>
                    <g id="Clip-8"></g>
                    <path d="M10.9012075,19.2605408 C10.9012075,19.639817 10.5974888,19.9470008 10.2224909,19.9470008 L2.07750042,19.9470008 C1.70250254,19.9470008 1.39878382,19.639817 1.39878382,19.2605408 L1.39878382,2.09829242 C1.39878382,1.71901621 1.70250254,1.41178842 2.07750042,1.41178842 L10.2224909,1.41178842 C10.5974888,1.41178842 10.9012075,1.71901621 10.9012075,2.09829242 L10.9012075,19.2605408 Z M10.2224909,0.0388243794 L2.07750042,0.0388243794 C0.953202191,0.0388243794 0.0413071378,0.961123184 0.0413071378,2.09829242 L0.0413071378,19.2605408 C0.0413071378,20.39771 0.953202191,21.3200088 2.07750042,21.3200088 L10.2224909,21.3200088 C11.3468326,21.3200088 12.2586842,20.39771 12.2586842,19.2605408 L12.2586842,2.09829242 C12.2586842,0.961123184 11.3468326,0.0388243794 10.2224909,0.0388243794 L10.2224909,0.0388243794 Z" id="Fill-7" fill="#000000" mask="url(#mask-6)"></path>
                </g>
                <g id="Group-12" transform="translate(1.640000, 0.000000)">
                    <mask id="mask-8" fill="white">
                        <use xlink:href="#path-7"></use>
                    </mask>
                    <g id="Clip-11"></g>
                    <path d="M24.2864809,14.3436926 C24.5552479,14.6138051 24.9902874,14.6138051 25.2590984,14.3436926 L37.1540399,2.37350995 L37.1540399,3.47133481 C37.1540399,3.85376508 37.4618314,4.16354778 37.8419019,4.16354778 C38.2219283,4.16354778 38.5297197,3.85376508 38.5297197,3.47133481 L38.5297197,0.702527243 C38.5280019,0.619818054 38.5121895,0.537951027 38.4815778,0.460605081 C38.4721079,0.437423459 38.4612727,0.414419135 38.4497768,0.391414811 C38.423966,0.339998595 38.3918126,0.291552108 38.353625,0.247759676 C38.2922252,0.171255892 38.2136477,0.110886162 38.1238825,0.0719694054 C38.1173638,0.0719694054 38.1128711,0.063991027 38.1065285,0.0619077838 C38.0301532,0.031456973 37.9493294,0.0151899459 37.8674924,0.0136385946 C37.8570095,0.0151899459 37.8502705,0.0103142703 37.8419019,0.0103142703 L35.0904982,0.0103142703 C34.7104278,0.0103142703 34.4026363,0.320096973 34.4026363,0.702527243 C34.4026363,1.08500184 34.7104278,1.39474022 35.0904982,1.39474022 L36.1814225,1.39474022 L24.7727897,12.8755381 L18.7245643,6.78905481 C18.4557533,6.51889805 18.0207138,6.51889805 17.7519468,6.78905481 L10.6719066,13.9138354 L7.37504083,10.5961154 C7.10627388,10.3260029 6.67123436,10.3260029 6.40242336,10.5961154 L0.211842267,16.8258991 C0.0329726217,16.9994732 -0.0387338011,17.2571305 0.0242075246,17.499097 C0.0873250331,17.7411521 0.27491573,17.9299737 0.515493422,17.9934905 C0.75589493,18.0568299 1.01197671,17.9846699 1.18445973,17.8047132 L6.8887321,12.0642699 L10.1855979,15.3819899 C10.4543648,15.6521467 10.8894484,15.6521467 11.1582153,15.3819899 L18.2382556,8.25720941 L24.2864809,14.3436926 Z" id="Fill-10" fill="#000000" mask="url(#mask-8)"></path>
                </g>
            </g>
        </g>
    </g>
</svg>