<?xml version="1.0" encoding="UTF-8"?>
<svg width="60px" height="60px" viewBox="0 0 60 60" version="1.1" xmlns="http://www.w3.org/2000/svg" xmlns:xlink="http://www.w3.org/1999/xlink">
    <!-- Generator: Sketch 54.1 (76490) - https://sketchapp.com -->
    <title>9</title>
    <desc>Created with Sketch.</desc>
    <defs>
        <polygon id="path-1" points="0 0.040676411 41.5042895 0.040676411 41.5042895 22.040939 0 22.040939"></polygon>
        <polygon id="path-3" points="-7.10542736e-15 22.0002626 41.5043179 22.0002626 41.5043179 4.08562073e-14 -7.10542736e-15 4.08562073e-14"></polygon>
    </defs>
    <g id="9" stroke="none" stroke-width="1" fill="none" fill-rule="evenodd">
        <g id="Group-29-Copy" transform="translate(-8.000000, 4.000000)">
            <g id="Group-22-Copy-3" transform="translate(13.129584, 9.996741)" stroke="#000000" stroke-width="1.265">
                <circle id="Oval" cx="15.9881944" cy="15.9881944" r="15.9881944"></circle>
                <path d="M28.4375,27.5347222 L36.5625,34.7569444" id="Line-4" stroke-linecap="round"></path>
            </g>
            <g id="Group-19-Copy" transform="translate(23.060140, 13.607852)">
                <g id="Group-3" transform="translate(0.000000, 0.053920)">
                    <mask id="mask-2" fill="white">
                        <use xlink:href="#path-1"></use>
                    </mask>
                    <g id="Clip-2"></g>
                    <path d="M40.0194113,4.98995507 L1.48475522,4.98995507 L1.48475522,2.16095799 C1.48475522,1.81057327 1.76986848,1.52546001 2.1202532,1.52546001 L39.3841025,1.52546001 C39.7343927,1.52546001 40.0194113,1.81057327 40.0194113,2.16095799 L40.0194113,4.98995507 Z M1.48475522,15.6068767 L40.0194113,15.6068767 L40.0194113,6.47473867 L1.48475522,6.47473867 L1.48475522,15.6068767 Z M40.0194113,19.9206574 C40.0194113,20.2710421 39.7343927,20.5561554 39.3840079,20.5561554 L2.1202532,20.5561554 C1.76986848,20.5561554 1.48475522,20.2710421 1.48475522,19.9206574 L1.48475522,17.0916603 L40.0194113,17.0916603 L40.0194113,19.9206574 Z M39.3841025,0.040676411 L2.1202532,0.040676411 C0.951137465,0.040676411 -2.83788914e-05,0.991936851 -2.83788914e-05,2.16095799 L-2.83788914e-05,19.9206574 C-2.83788914e-05,21.0897732 0.951137465,22.040939 2.1202532,22.040939 L39.3841025,22.040939 C40.5533129,22.040939 41.5042895,21.0897732 41.5042895,19.9206574 L41.5042895,2.16095799 C41.5042895,0.991842255 40.5533129,0.040676411 39.3841025,0.040676411 L39.3841025,0.040676411 Z" id="Fill-1" fill="#000000" mask="url(#mask-2)"></path>
                </g>
                <path d="M4.51203562,12.639438 L5.08916768,8.78482773 L5.66629973,12.639438 L4.51203562,12.639438 Z M6.0255765,7.43474927 L4.27251778,7.43474927 L3.05298222,15.0567519 L4.15275886,15.0567519 L4.35964098,13.6739431 L5.82957296,13.6739431 L6.03645507,15.0567519 L7.24511206,15.0567519 L6.0255765,7.43474927 Z" id="Fill-4" fill="#000000"></path>
                <rect id="Rectangle" fill="#7231E5" x="1.80555556" y="1.80555556" width="38.8194444" height="2.70833333"></rect>
                <path d="M10.7185276,13.2165322 C10.7185276,13.7826911 10.5007669,13.967816 10.0978812,13.967816 L9.4118688,13.967816 L9.4118688,11.6267467 L9.94539196,11.6267467 C10.4897937,11.6267467 10.718433,11.8445074 10.718433,12.5522769 L10.718433,13.2165322 L10.7185276,13.2165322 Z M9.4118688,8.5235149 L9.98900085,8.5235149 C10.4136437,8.5235149 10.5987686,8.76303274 10.5987686,9.30752907 L10.5987686,9.73207729 C10.5987686,10.3418451 10.3265205,10.5379432 9.88012051,10.5379432 L9.4118688,10.5379432 L9.4118688,8.5235149 Z M11.0233169,10.9951272 C11.55684,10.7447307 11.7963579,10.2438433 11.7963579,9.45982913 L11.7963579,9.18758096 C11.7963579,8.0116543 11.2628347,7.43452224 10.021542,7.43452224 L8.21409039,7.43452224 L8.21409039,15.0564303 L10.0977866,15.0564303 C11.2954704,15.0565249 11.9161168,14.425 11.9161168,13.2490733 L11.9161168,12.6283324 C11.9162114,11.8226556 11.665815,11.2455236 11.0233169,10.9951272 L11.0233169,10.9951272 Z" id="Fill-6" fill="#000000"></path>
                <path d="M16.5219352,10.004316 L16.5219352,9.26391072 C16.5219352,8.04437516 15.9121674,7.34757878 14.7362407,7.34757878 C13.5603141,7.34757878 12.9505463,8.04446975 12.9505463,9.26391072 L12.9505463,13.2273067 C12.9505463,14.4468423 13.5602195,15.1436386 14.7362407,15.1436386 C15.9121674,15.1436386 16.5219352,14.4467477 16.5219352,13.2273067 L16.5219352,12.2147478 L15.3895228,12.2147478 L15.3895228,13.3035513 C15.3895228,13.847953 15.150005,14.043862 14.7688765,14.043862 C14.3877479,14.043862 14.1482301,13.847953 14.1482301,13.3035513 L14.1482301,9.1876661 C14.1482301,8.64326436 14.3877479,8.43638225 14.7688765,8.43638225 C15.150005,8.43638225 15.3895228,8.64326436 15.3895228,9.1876661 L15.3895228,10.004316 L16.5219352,10.004316 Z" id="Fill-8" fill="#000000"></path>
                <mask id="mask-4" fill="white">
                    <use xlink:href="#path-3"></use>
                </mask>
                <g id="Clip-11"></g>
                <polygon id="Fill-10" fill="#000000" mask="url(#mask-4)" points="19.711978 11.7898212 21.8896795 11.7898212 21.8896795 10.7010178 19.711978 10.7010178"></polygon>
                <path d="M27.2793986,7.43470197 C27.0942736,7.94646798 26.8873915,8.39286794 25.9617666,8.39286794 L25.9617666,9.24215357 L26.8873915,9.24215357 L26.8873915,15.05661 L28.0850753,15.05661 L28.0850753,7.43470197 L27.2793986,7.43470197 Z" id="Fill-12" fill="#000000" mask="url(#mask-4)"></path>
                <path d="M31.1447266,13.9677593 C31.133848,13.9132718 31.133848,13.8588789 31.133848,13.8042969 C31.133848,12.5521256 33.5185262,11.6593256 33.5185262,9.26386342 C33.5185262,8.04432786 32.9086639,7.34762608 31.7328318,7.34762608 C30.5569051,7.34762608 29.9471373,8.04451705 29.9471373,9.26386342 L29.9471373,10.0043633 L31.0794551,10.0043633 L31.0794551,9.1877134 C31.0794551,8.64321707 31.3189729,8.43633495 31.7001961,8.43633495 C32.08123,8.43633495 32.3208424,8.62145992 32.3208424,9.30737772 C32.3208424,11.5068364 29.9472319,11.8770863 29.9472319,14.1200593 L29.9472319,15.0565627 L33.4095513,15.0565627 L33.4095513,13.9677593 L33.4094567,13.9677593 L31.1447266,13.9677593 Z" id="Fill-13" fill="#000000" mask="url(#mask-4)"></path>
                <path d="M38.1785767,9.45992372 L38.1785767,9.26392018 C38.1785767,8.04438462 37.5689035,7.34758824 36.3928822,7.34758824 C35.2169556,7.34758824 34.6071878,8.04447921 34.6071878,9.26392018 L34.6071878,9.67768442 L35.7395056,9.67768442 L35.7395056,9.18767556 C35.7395056,8.64327382 35.979118,8.4363917 36.3602465,8.4363917 C36.7414696,8.4363917 36.9808929,8.62151667 36.9808929,9.30743448 L36.9808929,9.73198269 C36.9808929,10.3417505 36.7086447,10.5378486 36.2622447,10.5378486 L35.7941822,10.5378486 L35.7941822,11.6266521 L36.1970679,11.6266521 C36.7414696,11.6266521 36.9809875,11.8881163 36.9809875,12.595602 L36.9809875,13.1944912 C36.9809875,13.8696251 36.7415642,14.05475 36.3603411,14.05475 C35.9792126,14.05475 35.7396002,13.8478679 35.7396002,13.3034662 L35.7396002,12.595602 L34.6072824,12.595602 L34.6072824,13.2272216 C34.6072824,14.4467571 35.2170502,15.1435535 36.3929768,15.1435535 C37.5689981,15.1435535 38.1786713,14.4466625 38.1786713,13.2272216 L38.1786713,12.6283324 C38.1786713,11.8552914 37.9391534,11.2890379 37.3403588,11.0277629 C37.9172071,10.7883396 38.1785767,10.2765736 38.1785767,9.45992372" id="Fill-14" fill="#000000" mask="url(#mask-4)"></path>
                <path d="M8.73256328,2.51125756 C9.18180113,2.51125756 9.5459023,2.87545333 9.5459023,3.32459659 C9.5459023,3.77383444 9.18180113,4.13793562 8.73256328,4.13793562 C8.28332542,4.13793562 7.91922425,3.77383444 7.91922425,3.32459659 C7.91922425,2.87545333 8.28332542,2.51125756 8.73256328,2.51125756" id="Fill-15" fill="#000000" mask="url(#mask-4)"></path>
                <path d="M8.73256328,18.0679131 C9.18180113,18.0679131 9.5459023,18.4321089 9.5459023,18.8812522 C9.5459023,19.33049 9.18180113,19.6944966 8.73256328,19.6944966 C8.28332542,19.6944966 7.91922425,19.33049 7.91922425,18.8812522 C7.91922425,18.4321089 8.28332542,18.0679131 8.73256328,18.0679131" id="Fill-16" fill="#000000" mask="url(#mask-4)"></path>
                <path d="M32.7722654,2.51125756 C33.2214087,2.51125756 33.5856045,2.87545333 33.5856045,3.32459659 C33.5856045,3.77383444 33.2214087,4.13793562 32.7722654,4.13793562 C32.3230276,4.13793562 31.9588318,3.77383444 31.9588318,3.32459659 C31.9588318,2.87545333 32.3230276,2.51125756 32.7722654,2.51125756" id="Fill-17" fill="#000000" mask="url(#mask-4)"></path>
                <path d="M32.7722654,18.0679131 C33.2214087,18.0679131 33.5856045,18.4321089 33.5856045,18.8812522 C33.5856045,19.33049 33.2214087,19.6944966 32.7722654,19.6944966 C32.3230276,19.6944966 31.9588318,19.33049 31.9588318,18.8812522 C31.9588318,18.4321089 32.3230276,18.0679131 32.7722654,18.0679131" id="Fill-18" fill="#000000" mask="url(#mask-4)"></path>
            </g>
            <path d="M31.890305,9.87481785 L46.1830009,36.036338 C48.0365159,39.4290339 46.7887633,43.6819282 43.3960673,45.5354433 C42.3673184,46.0974747 41.2138945,46.3921476 40.0416302,46.3924237 L11.4439559,46.3991594 C7.57796277,46.4000699 4.44321795,43.2668014 4.44230738,39.4008083 C4.44203087,38.2268275 4.73702238,37.0716315 5.30013753,36.0415187 L19.6051159,9.87326289 C21.4594898,6.48103626 25.7126998,5.23436024 29.1049264,7.08873407 C30.2809647,7.73161996 31.2477168,8.69861684 31.890305,9.87481785 Z" id="Triangle-Copy-43" fill="#934AEF" opacity="0.06" transform="translate(25.741804, 26.314373) scale(-1, -1) rotate(23.000000) translate(-25.741804, -26.314373) "></path>
        </g>
    </g>
</svg>