<?xml version="1.0" encoding="UTF-8"?>
<svg width="60px" height="60px" viewBox="0 0 60 60" version="1.1" xmlns="http://www.w3.org/2000/svg" xmlns:xlink="http://www.w3.org/1999/xlink">
    <!-- Generator: Sketch 54.1 (76490) - https://sketchapp.com -->
    <title>2</title>
    <desc>Created with Sketch.</desc>
    <defs>
        <polygon id="path-1" points="0 -4.54747351e-13 37 -4.54747351e-13 37 50 0 50"></polygon>
    </defs>
    <g id="2" stroke="none" stroke-width="1" fill="none" fill-rule="evenodd">
        <g id="Group-22-Copy-2" transform="translate(-9.000000, 1.000000)">
            <path d="M34.2585235,22.0766776 L48.4415292,48.5728613 C50.2659965,51.981266 48.9819617,56.223347 45.573557,58.0478144 C44.5556918,58.5926622 43.4188662,58.8772923 42.26435,58.8763494 L13.9420688,58.8532201 C10.0760769,58.8500629 6.94463053,55.7134978 6.94778768,51.8475059 C6.94872558,50.6990402 7.23222343,49.5684462 7.77328311,48.5554168 L21.9125587,22.0823624 C23.7338864,18.672279 27.9747831,17.384338 31.3848665,19.2056658 C32.605474,19.8575931 33.6054725,20.8566711 34.2585235,22.0766776 Z" id="Triangle-Copy-40" fill="#934AEF" opacity="0.06" transform="translate(28.109612, 38.627571) scale(-1, -1) rotate(23.000000) translate(-28.109612, -38.627571) "></path>
            <path d="" id="Path-13" stroke="#979797"></path>
            <polygon id="Path-14" fill="#7231E5" points="51 2 51.4925455 12 60 12"></polygon>
            <g id="Group-26" transform="translate(23.000000, 0.000000)">
                <g id="Group-3">
                    <mask id="mask-2" fill="white">
                        <use xlink:href="#path-1"></use>
                    </mask>
                    <g id="Clip-2"></g>
                    <path d="M35.3913043,40.3225806 C35.3913043,41.1289901 34.7478261,41.9354839 33.7826087,41.9354839 L9.65217391,41.9354839 C8.84786814,41.9354839 8.04347826,41.2903226 8.04347826,40.3225806 L8.04347826,3.22580645 C8.04347826,2.41939701 8.68695652,1.61290323 9.65217391,1.61290323 L25.7391304,1.61290323 L25.7391304,9.67741935 C25.7391304,11.4516551 27.1869986,12.9032258 28.9565217,12.9032258 L35.3913043,12.9032258 L35.3913043,40.3225806 Z M32.173913,43.5483871 C32.173913,44.3547965 31.5304348,45.1612903 30.5652174,45.1612903 L6.43478261,45.1612903 C5.63047684,45.1612903 4.82608696,44.516129 4.82608696,43.5483871 L4.82608696,6.4516129 C4.82608696,5.64520346 5.46956522,4.83870968 6.43478261,4.83870968 L6.43478261,40.3225806 C6.43478261,42.0966477 7.88256664,43.5483871 9.65217391,43.5483871 L32.173913,43.5483871 Z M27.3478261,48.3870968 L3.2173913,48.3870968 C2.41308554,48.3870968 1.60869565,47.7419355 1.60869565,46.7741935 L1.60869565,9.67741935 C1.60869565,8.87100991 2.25217391,8.06451613 3.2173913,8.06451613 L3.2173913,43.5483871 C3.2173913,45.3224541 4.66517533,46.7741935 6.43478261,46.7741935 L28.9565217,46.7741935 C28.9565217,47.5806873 28.3130435,48.3870968 27.3478261,48.3870968 L27.3478261,48.3870968 Z M27.3478261,2.41939701 L34.9087377,11.2903226 L28.9565217,11.2903226 C28.1521319,11.2903226 27.3478261,10.4839131 27.3478261,9.67741935 L27.3478261,2.41939701 Z M27.3478261,-4.54747351e-13 L9.65217391,-4.54747351e-13 C7.88256664,-4.54747351e-13 6.43478261,1.4514864 6.43478261,3.22580645 C4.66517533,3.22580645 3.2173913,4.67729285 3.2173913,6.4516129 C1.44778403,6.4516129 0,7.9030993 0,9.67741935 L0,46.7741935 C0,48.5482606 1.44778403,50 3.2173913,50 L27.3478261,50 C29.1173492,50 30.5652174,48.5482606 30.5652174,46.7741935 C32.3347406,46.7741935 33.7826087,45.3224541 33.7826087,43.5483871 C35.5521319,43.5483871 37,42.0966477 37,40.3225806 L37,12.0968164 L37,11.2903226 L27.3478261,-4.54747351e-13 Z" id="Fill-1" fill="#000000" mask="url(#mask-2)"></path>
                </g>
                <path d="M18.9327485,18.872549 L23.6929825,18.872549 C25.0053789,18.872549 26.0730994,19.9720588 26.0730994,21.3235294 C26.0730994,22.6771446 25.0077591,23.7745098 23.6929825,23.7745098 L18.9327485,23.7745098 L18.9327485,18.872549 Z M23.6929825,25 C25.6652664,25 27.2631579,23.3548407 27.2631579,21.3235294 C27.2631579,19.2963235 25.6615772,17.6470588 23.6929825,17.6470588 L18.3377193,17.6470588 C18.0091442,17.6470588 17.7426901,17.9213848 17.7426901,18.2598039 L17.7426901,23.7745098 L17.1476608,23.7745098 C16.8190857,23.7745098 16.5526316,24.0488358 16.5526316,24.3872549 C16.5526316,24.725674 16.8190857,25 17.1476608,25 L17.7426901,25 L17.7426901,27.4509804 L17.1476608,27.4509804 C16.8190857,27.4509804 16.5526316,27.7253064 16.5526316,28.0637255 C16.5526316,28.4021446 16.8190857,28.6764706 17.1476608,28.6764706 L17.7426901,28.6764706 L17.7426901,31.7401961 C17.7426901,32.0786152 18.0091442,32.3529412 18.3377193,32.3529412 C18.6662944,32.3529412 18.9327485,32.0786152 18.9327485,31.7401961 L18.9327485,28.6764706 L23.0979532,28.6764706 C23.4265284,28.6764706 23.6929825,28.4021446 23.6929825,28.0637255 C23.6929825,27.7253064 23.4265284,27.4509804 23.0979532,27.4509804 L18.9327485,27.4509804 L18.9327485,25 L23.6929825,25 Z" id="Fill-3" fill="#000000"></path>
            </g>
        </g>
    </g>
</svg>