<?xml version="1.0" encoding="UTF-8"?>
<svg width="60px" height="60px" viewBox="0 0 60 60" version="1.1" xmlns="http://www.w3.org/2000/svg" xmlns:xlink="http://www.w3.org/1999/xlink">
    <!-- Generator: Sketch 54.1 (76490) - https://sketchapp.com -->
    <title>6</title>
    <desc>Created with Sketch.</desc>
    <g id="6" stroke="none" stroke-width="1" fill="none" fill-rule="evenodd">
        <g id="Group-27-Copy" transform="translate(2.000000, 5.000000)">
            <circle id="Oval" fill="#7231E5" cx="15.5" cy="29.5" r="7.5"></circle>
            <g id="Group-16-Copy">
                <g id="october" transform="translate(4.163265, 3.659091)" fill="#000000" fill-rule="nonzero">
                    <path d="M19.2035106,24.5700381 C19.2035106,19.5684885 15.1134198,15.4999032 10.0854333,15.4999032 C5.05782009,15.4999032 0.967356025,19.5684885 0.967356025,24.5700381 C0.967356025,29.5712164 5.05782009,33.640173 10.0854333,33.640173 C15.1134198,33.640173 19.2035106,29.5712164 19.2035106,24.5700381 L19.2035106,24.5700381 Z M2.40051132,24.5700381 C2.40051132,20.354807 5.84792157,16.925523 10.0854333,16.925523 C14.3229451,16.925523 17.7703554,20.354807 17.7703554,24.5700381 C17.7703554,28.7852693 14.3229451,32.2145532 10.0854333,32.2145532 C5.84792157,32.2145532 2.40051132,28.7852693 2.40051132,24.5700381 L2.40051132,24.5700381 Z" id="Shape"></path>
                    <path d="M11.3118261,28.4559659 C11.7074367,28.4559659 12.0284038,28.1370577 12.0284038,27.743156 C12.0284038,27.3496255 11.7074367,27.0303461 11.3118261,27.0303461 L10.8300023,27.0303461 L10.8300023,21.3965489 C10.8300023,21.1474367 10.699003,20.9161448 10.4847761,20.786948 C10.2705492,20.6577512 10.0040719,20.6492123 9.78200747,20.7646727 L8.52762339,21.4158542 C8.17679892,21.5977693 8.04094774,22.0284253 8.22382437,22.3774051 C8.40707411,22.726385 8.84000643,22.8618931 9.19083091,22.6796068 L9.39684698,22.5726853 L9.39684698,27.0307173 L8.91502313,27.0307173 C8.51941265,27.0307173 8.19844549,27.3496255 8.19844549,27.7435272 C8.19844549,28.1370577 8.51941265,28.4563371 8.91502313,28.4563371 L11.3118261,28.4563371 L11.3118261,28.4559659 Z" id="Path"></path>
                    <path d="M23.81424,17.5870997 L24.7741555,17.5870997 C25.169766,17.5870997 25.4907331,17.2678202 25.4907331,16.8742898 C25.4907331,16.4803881 25.169766,16.1614799 24.7741555,16.1614799 L23.81424,16.1614799 C23.4186294,16.1614799 23.0976623,16.4803881 23.0976623,16.8742898 C23.0976623,17.2678202 23.4186294,17.5870997 23.81424,17.5870997 Z" id="Path"></path>
                    <path d="M28.525738,17.5870997 L29.4852803,17.5870997 C29.8812641,17.5870997 30.2018579,17.2678202 30.2018579,16.8742898 C30.2018579,16.4803881 29.8812641,16.1614799 29.4852803,16.1614799 L28.525738,16.1614799 C28.1297543,16.1614799 27.8091604,16.4803881 27.8091604,16.8742898 C27.8091604,17.2678202 28.1297543,17.5870997 28.525738,17.5870997 L28.525738,17.5870997 Z" id="Path"></path>
                    <path d="M33.2368628,17.5870997 L34.196405,17.5870997 C34.5923888,17.5870997 34.9129827,17.2678202 34.9129827,16.8742898 C34.9129827,16.4803881 34.5923888,16.1614799 34.196405,16.1614799 L33.2368628,16.1614799 C32.840879,16.1614799 32.5202851,16.4803881 32.5202851,16.8742898 C32.5202851,17.2678202 32.8412523,17.5870997 33.2368628,17.5870997 L33.2368628,17.5870997 Z" id="Path"></path>
                    <path d="M37.9483608,17.5870997 L38.9079031,17.5870997 C39.3038868,17.5870997 39.6244807,17.2678202 39.6244807,16.8742898 C39.6244807,16.4803881 39.3038868,16.1614799 38.9079031,16.1614799 L37.9483608,16.1614799 C37.552377,16.1614799 37.2317831,16.4803881 37.2317831,16.8742898 C37.2317831,17.2678202 37.552377,17.5870997 37.9483608,17.5870997 L37.9483608,17.5870997 Z" id="Path"></path>
                    <path d="M23.81424,21.2625258 L24.7741555,21.2625258 C25.169766,21.2625258 25.4907331,20.9432464 25.4907331,20.5497159 C25.4907331,20.1558142 25.169766,19.836906 24.7741555,19.836906 L23.81424,19.836906 C23.4186294,19.836906 23.0976623,20.1558142 23.0976623,20.5497159 C23.0976623,20.9432464 23.4186294,21.2625258 23.81424,21.2625258 Z" id="Path"></path>
                    <path d="M28.525738,21.2625258 L29.4852803,21.2625258 C29.8812641,21.2625258 30.2018579,20.9432464 30.2018579,20.5497159 C30.2018579,20.1558142 29.8812641,19.836906 29.4852803,19.836906 L28.525738,19.836906 C28.1297543,19.836906 27.8091604,20.1558142 27.8091604,20.5497159 C27.8091604,20.9432464 28.1297543,21.2625258 28.525738,21.2625258 L28.525738,21.2625258 Z" id="Path"></path>
                    <path d="M33.2368628,21.2625258 L34.196405,21.2625258 C34.5923888,21.2625258 34.9129827,20.9432464 34.9129827,20.5497159 C34.9129827,20.1558142 34.5923888,19.836906 34.196405,19.836906 L33.2368628,19.836906 C32.840879,19.836906 32.5202851,20.1558142 32.5202851,20.5497159 C32.5202851,20.9432464 32.8412523,21.2625258 33.2368628,21.2625258 L33.2368628,21.2625258 Z" id="Path"></path>
                    <path d="M37.9483608,21.2625258 L38.9079031,21.2625258 C39.3038868,21.2625258 39.6244807,20.9432464 39.6244807,20.5497159 C39.6244807,20.1558142 39.3038868,19.836906 38.9079031,19.836906 L37.9483608,19.836906 C37.552377,19.836906 37.2317831,20.1558142 37.2317831,20.5497159 C37.2317831,20.9432464 37.552377,21.2625258 37.9483608,21.2625258 L37.9483608,21.2625258 Z" id="Path"></path>
                    <path d="M23.81424,24.937952 L24.7741555,24.937952 C25.169766,24.937952 25.4907331,24.6190438 25.4907331,24.225142 C25.4907331,23.8312403 25.169766,23.5123321 24.7741555,23.5123321 L23.81424,23.5123321 C23.4186294,23.5123321 23.0976623,23.8312403 23.0976623,24.225142 C23.0976623,24.6190438 23.4186294,24.937952 23.81424,24.937952 Z" id="Path"></path>
                    <path d="M28.525738,24.937952 L29.4852803,24.937952 C29.8812641,24.937952 30.2018579,24.6190438 30.2018579,24.225142 C30.2018579,23.8312403 29.8812641,23.5123321 29.4852803,23.5123321 L28.525738,23.5123321 C28.1297543,23.5123321 27.8091604,23.8312403 27.8091604,24.225142 C27.8091604,24.6190438 28.1297543,24.937952 28.525738,24.937952 L28.525738,24.937952 Z" id="Path"></path>
                    <path d="M33.2368628,24.937952 L34.196405,24.937952 C34.5923888,24.937952 34.9129827,24.6190438 34.9129827,24.225142 C34.9129827,23.8312403 34.5923888,23.5123321 34.196405,23.5123321 L33.2368628,23.5123321 C32.840879,23.5123321 32.5202851,23.8312403 32.5202851,24.225142 C32.5202851,24.6190438 32.8412523,24.937952 33.2368628,24.937952 L33.2368628,24.937952 Z" id="Path"></path>
                    <path d="M37.9483608,24.937952 L38.9079031,24.937952 C39.3038868,24.937952 39.6244807,24.6190438 39.6244807,24.225142 C39.6244807,23.8312403 39.3038868,23.5123321 38.9079031,23.5123321 L37.9483608,23.5123321 C37.552377,23.5123321 37.2317831,23.8312403 37.2317831,24.225142 C37.2317831,24.6190438 37.552377,24.937952 37.9483608,24.937952 L37.9483608,24.937952 Z" id="Path"></path>
                    <path d="M23.81424,28.6137493 L24.7741555,28.6137493 C25.169766,28.6137493 25.4907331,28.2944699 25.4907331,27.9009394 C25.4907331,27.5070377 25.169766,27.1881295 24.7741555,27.1881295 L23.81424,27.1881295 C23.4186294,27.1881295 23.0976623,27.5070377 23.0976623,27.9009394 C23.0976623,28.2944699 23.4186294,28.6137493 23.81424,28.6137493 Z" id="Path"></path>
                    <path d="M28.525738,28.6137493 L29.4852803,28.6137493 C29.8812641,28.6137493 30.2018579,28.2944699 30.2018579,27.9009394 C30.2018579,27.5070377 29.8812641,27.1881295 29.4852803,27.1881295 L28.525738,27.1881295 C28.1297543,27.1881295 27.8091604,27.5070377 27.8091604,27.9009394 C27.8091604,28.2944699 28.1297543,28.6137493 28.525738,28.6137493 L28.525738,28.6137493 Z" id="Path"></path>
                    <path d="M33.2368628,28.6137493 L34.196405,28.6137493 C34.5923888,28.6137493 34.9129827,28.2944699 34.9129827,27.9009394 C34.9129827,27.5070377 34.5923888,27.1881295 34.196405,27.1881295 L33.2368628,27.1881295 C32.840879,27.1881295 32.5202851,27.5070377 32.5202851,27.9009394 C32.5202851,28.2944699 32.8412523,28.6137493 33.2368628,28.6137493 L33.2368628,28.6137493 Z" id="Path"></path>
                    <path d="M37.9483608,28.6137493 L38.9079031,28.6137493 C39.3038868,28.6137493 39.6244807,28.2944699 39.6244807,27.9009394 C39.6244807,27.5070377 39.3038868,27.1881295 38.9079031,27.1881295 L37.9483608,27.1881295 C37.552377,27.1881295 37.2317831,27.5070377 37.2317831,27.9009394 C37.2317831,28.2944699 37.552377,28.6137493 37.9483608,28.6137493 L37.9483608,28.6137493 Z" id="Path"></path>
                    <path d="M23.81424,32.2891755 L24.7741555,32.2891755 C25.169766,32.2891755 25.4907331,31.9702673 25.4907331,31.5763655 C25.4907331,31.1824638 25.169766,30.8635556 24.7741555,30.8635556 L23.81424,30.8635556 C23.4186294,30.8635556 23.0976623,31.1824638 23.0976623,31.5763655 C23.0976623,31.9702673 23.4186294,32.2891755 23.81424,32.2891755 Z" id="Path"></path>
                    <path d="M28.525738,32.2891755 L29.4852803,32.2891755 C29.8812641,32.2891755 30.2018579,31.9702673 30.2018579,31.5763655 C30.2018579,31.1824638 29.8812641,30.8635556 29.4852803,30.8635556 L28.525738,30.8635556 C28.1297543,30.8635556 27.8091604,31.1824638 27.8091604,31.5763655 C27.8091604,31.9702673 28.1297543,32.2891755 28.525738,32.2891755 L28.525738,32.2891755 Z" id="Path"></path>
                    <path d="M33.2368628,32.2891755 L34.196405,32.2891755 C34.5923888,32.2891755 34.9129827,31.9702673 34.9129827,31.5763655 C34.9129827,31.1824638 34.5923888,30.8635556 34.196405,30.8635556 L33.2368628,30.8635556 C32.840879,30.8635556 32.5202851,31.1824638 32.5202851,31.5763655 C32.5202851,31.9702673 32.8412523,32.2891755 33.2368628,32.2891755 L33.2368628,32.2891755 Z" id="Path"></path>
                    <path d="M37.9483608,32.2891755 L38.9079031,32.2891755 C39.3038868,32.2891755 39.6244807,31.9702673 39.6244807,31.5763655 C39.6244807,31.1824638 39.3038868,30.8635556 38.9079031,30.8635556 L37.9483608,30.8635556 C37.552377,30.8635556 37.2317831,31.1824638 37.2317831,31.5763655 C37.2317831,31.9702673 37.552377,32.2891755 37.9483608,32.2891755 L37.9483608,32.2891755 Z" id="Path"></path>
                    <path d="M15.7396788,6.22000899 C16.7887933,6.22000899 17.6423417,5.37131973 17.6423417,4.32772144 L17.6423417,2.65001932 C17.6423417,1.60642112 16.7887933,0.757360537 15.7396788,0.757360537 L14.7973046,0.757360537 C13.7485633,0.757360537 12.8950148,1.60642112 12.8950148,2.65001932 L12.8950148,4.32772144 C12.8950148,5.3709485 13.7481901,6.22000899 14.7973046,6.22000899 L15.7396788,6.22000899 Z M14.3281701,4.32772144 L14.3281701,2.65001932 C14.3281701,2.39236829 14.5386649,2.18298037 14.7973046,2.18298037 L15.740052,2.18298037 C15.9986918,2.18298037 16.2091864,2.39236829 16.2091864,2.65001932 L16.2091864,4.32772144 C16.2091864,4.58500134 15.9986918,4.79438916 15.740052,4.79438916 L14.7973046,4.79438916 C14.5386649,4.79438916 14.3281701,4.58500134 14.3281701,4.32772144 Z" id="Shape"></path>
                    <path d="M20.1287169,2.18298037 L21.0710911,2.18298037 C21.2812126,2.18298037 21.4670749,2.32405733 21.5226844,2.52602014 C21.6275585,2.90544288 22.0216762,3.12930976 22.4034778,3.02424453 C22.7852793,2.91992185 23.009583,2.52750517 22.9047089,2.14808234 C22.6781658,1.32909349 21.9242664,0.757360537 21.0710911,0.757360537 L20.1290901,0.757360537 C19.0799757,0.757360537 18.2264272,1.60642112 18.2264272,2.64964809 L18.2264272,4.32735021 C18.2264272,5.3709485 19.0799757,6.22000899 20.1290901,6.22000899 L21.0710911,6.22000899 C21.799985,6.22000899 22.4740158,5.79603564 22.788265,5.14039907 C22.9584522,4.78473657 22.8069259,4.3592782 22.4493834,4.18998584 C22.0925876,4.02069349 21.6645071,4.17142304 21.4943199,4.52708544 C21.4155709,4.69192283 21.2532213,4.79438916 21.0710911,4.79438916 L20.1290901,4.79438916 C19.8700772,4.79438916 19.6595825,4.58500134 19.6595825,4.32735021 L19.6595825,2.65001932 C19.6595825,2.39236829 19.8700772,2.18298037 20.1287169,2.18298037 L20.1287169,2.18298037 Z" id="Path"></path>
                    <path d="M25.4634883,6.22000899 C25.8590987,6.22000899 26.1800659,5.90110088 26.1800659,5.50719907 L26.1800659,2.18298037 L26.9802443,2.18298037 C27.376228,2.18298037 27.6968219,1.86407216 27.6968219,1.47017045 C27.6968219,1.07626875 27.376228,0.757360537 26.9802443,0.757360537 L23.9463589,0.757360537 C23.5503752,0.757360537 23.2297813,1.07626875 23.2297813,1.47017045 C23.2297813,1.86407216 23.5503752,2.18298037 23.9463589,2.18298037 L24.7469106,2.18298037 L24.7469106,5.50719907 C24.7469106,5.90110088 25.0675044,6.22000899 25.4634883,6.22000899 Z" id="Path"></path>
                    <path d="M2.84538661,34.6700348 C2.84314725,34.6700348 2.84128119,34.6700348 2.83904184,34.6700348 C2.4464171,34.6700348 2.12619641,34.9852305 2.12246419,35.3765334 C2.11910526,35.7704352 2.43708659,36.0923134 2.83269716,36.0956547 L2.84314725,36.0956547 L2.84949202,36.0956547 C3.24249005,36.0956547 3.56233745,35.7808303 3.56606967,35.3895274 C3.5694286,34.9956257 3.25144727,34.6737474 2.8558367,34.6700348 L2.84538661,34.6700348 Z" id="Path"></path>
                    <path d="M4.82418587,34.6700348 C4.82194662,34.6700348 4.82008055,34.6700348 4.8178412,34.6700348 C4.42521636,34.6700348 4.10499568,34.9852305 4.10126355,35.3765334 C4.09790462,35.7704352 4.41588595,36.0923134 4.81149652,36.0956547 L4.82194662,36.0956547 L4.82829129,36.0956547 C5.22128932,36.0956547 5.54113671,35.7808303 5.54486894,35.3895274 C5.54822787,34.9956257 5.23024654,34.6737474 4.83463596,34.6700348 L4.82418587,34.6700348 Z" id="Path"></path>
                </g>
                <path d="M5.175,0.55 C2.62068303,0.55 0.55,2.62068303 0.55,5.175 L0.55,43.93 C0.55,44.7694728 1.23052718,45.45 2.07,45.45 L46.8483673,45.45 C47.6878402,45.45 48.3683673,44.7694728 48.3683673,43.93 L48.3683673,5.175 C48.3683673,2.62068303 46.2976843,0.55 43.7433673,0.55 L5.175,0.55 Z" id="Rectangle" stroke="#000000" stroke-width="1.1"></path>
            </g>
            <path d="M34.6044688,7.25931748 L51.706872,38.5637593 C53.560387,41.9564552 52.3126344,46.2093495 48.9199384,48.0628646 C47.8911895,48.624896 46.7377656,48.9195688 45.5655013,48.9198449 L11.3459979,48.9279048 C7.48000471,48.9288153 4.34525988,45.7955468 4.34434932,41.9295537 C4.3440728,40.7555728 4.63906431,39.6003769 5.20217947,38.5702641 L22.3192797,7.25776252 C24.1736536,3.86553589 28.4268636,2.61885987 31.8190902,4.4732337 C32.9951285,5.11611959 33.9618806,6.08311647 34.6044688,7.25931748 Z" id="Triangle-Copy-41" fill="#934AEF" opacity="0.06" transform="translate(28.456460, 27.926687) scale(-1, -1) rotate(23.000000) translate(-28.456460, -27.926687) "></path>
        </g>
    </g>
</svg>