<?xml version="1.0" encoding="UTF-8"?>
<svg width="60px" height="60px" viewBox="0 0 60 60" version="1.1" xmlns="http://www.w3.org/2000/svg" xmlns:xlink="http://www.w3.org/1999/xlink">
    <!-- Generator: Sketch 54.1 (76490) - https://sketchapp.com -->
    <title>10</title>
    <desc>Created with Sketch.</desc>
    <defs>
        <polygon id="path-1" points="0 0 21 0 21 18.2608696 0 18.2608696"></polygon>
    </defs>
    <g id="10" stroke="none" stroke-width="1" fill="none" fill-rule="evenodd">
        <g id="Group-33-Copy" transform="translate(-5.000000, 3.000000)">
            <g id="Group-3" transform="translate(41.583232, 27.458243)">
                <mask id="mask-2" fill="white">
                    <use xlink:href="#path-1"></use>
                </mask>
                <g id="Clip-2"></g>
                <path d="M18.2753462,10.6403894 C17.4587012,11.5754861 16.3571581,12.3186998 14.9704295,12.8694058 C13.583783,13.4200285 12.0934552,13.6956522 10.4997332,13.6956522 C10.0232338,13.6956522 9.51545761,13.6640048 8.97640459,13.6004602 L8.30842707,13.5293369 L7.80450916,13.9812281 C6.8437117,14.8372897 5.76938187,15.5148766 4.58188908,16.0142389 C4.94120303,15.3723802 5.2146494,14.6906707 5.40222819,13.9695269 L5.71860836,12.828056 L4.69911556,12.2338765 C3.68348107,11.6470259 2.89647105,10.9516164 2.33775715,10.1470235 C1.77912534,9.3427637 1.49993257,8.49648786 1.49993257,7.60882058 C1.49993257,6.52298242 1.90813193,5.51247335 2.72448962,4.57725172 C3.54109357,3.64207174 4.64251356,2.89894136 6.02928317,2.34811044 C7.41605277,1.79723787 8.90613438,1.52161421 10.4999795,1.52161421 C12.0937014,1.52161421 13.583742,1.79711295 14.9703885,2.34794387 C16.357076,2.89881644 17.4586191,3.64190517 18.2753052,4.57708516 C19.0917039,5.51234843 19.4998622,6.5228575 19.4998622,7.60861237 C19.4998622,8.69445053 19.0917039,9.70512616 18.2753462,10.6403894 M19.5937337,3.78648371 C18.6562912,2.61752955 17.3828488,1.69409241 15.7735294,1.01642213 C14.1642101,0.338751856 12.4063054,0 10.5000205,0 C8.59377669,0 6.83591302,0.338751856 5.22655265,1.01642213 C3.61719228,1.69409241 2.34379086,2.61740463 1.40626631,3.78648371 C0.468700709,4.95552116 0,6.22953628 0,7.60865401 C0,8.79747107 0.353403372,9.91137545 1.06049743,10.9496593 C1.7675915,11.9879014 2.73425849,12.8599116 3.96094991,13.5652317 C3.87491815,13.8822051 3.77337112,14.1832716 3.65614464,14.4688476 C3.5389592,14.754132 3.43351283,14.9879895 3.33976448,15.1703783 C3.24593403,15.3525173 3.11910286,15.554769 2.95881945,15.7765088 C2.79878231,15.9985402 2.67769753,16.155153 2.5956472,16.2463058 C2.51367896,16.3375002 2.37892597,16.4879086 2.19130613,16.6980721 C2.00393257,16.9079858 1.8827657,17.044944 1.82813389,17.1083221 C1.82021207,17.1124029 1.78901735,17.147798 1.73434449,17.2155067 C1.67971268,17.2827991 1.65229416,17.316237 1.65229416,17.316237 L1.5819829,17.4232968 C1.54286636,17.4824274 1.5252988,17.520196 1.5291571,17.5358531 C1.53309748,17.5518434 1.5252988,17.5914443 1.50576106,17.6546557 C1.48618226,17.718242 1.4881935,17.7657963 1.51158954,17.7974437 L1.51158954,17.8093947 C1.54286636,17.9441043 1.60529685,18.0531628 1.6990452,18.1363621 C1.79279355,18.2193116 1.89844515,18.2608696 2.01550745,18.2608696 L2.07416174,18.2608696 C2.58210213,18.1973666 3.02736575,18.1104612 3.41011678,17.9994456 C5.45706523,17.4684775 7.2540044,16.5093955 8.80081114,15.1222826 C9.38669729,15.1856606 9.95312778,15.217308 10.4999384,15.217308 C12.4061823,15.217308 14.164128,14.8785562 15.7734473,14.2006777 C17.3827667,13.5229658 18.6562091,12.5998618 19.5936516,11.4308243 C20.5312582,10.2618701 21,8.9877301 21,7.60861237 C21.000041,6.22974449 20.5313403,4.95552116 19.5937337,3.78648371" id="Fill-1" fill="#000000" mask="url(#mask-2)"></path>
            </g>
            <g id="noun_Mail_1839990" transform="translate(8.713667, 11.023460)" fill="#000000">
                <path d="M2.90008361,11.9816458 L5.31438127,10.1457197 L5.31438127,5.04918885 C5.31438127,4.84356513 5.48996656,4.66731622 5.69481605,4.66731622 L12.4841137,4.66731622 L18.4979097,0.0701572764 C18.6295987,-0.032654585 18.8198161,-0.0179671762 18.951505,0.0848446852 L24.9506689,4.66731622 L31.7399666,4.66731622 C31.9448161,4.66731622 32.1204013,4.84356513 32.1204013,5.04918885 L32.1204013,10.1457197 L34.534699,11.9816458 C34.6371237,12.0550828 34.6956522,12.1725821 34.6956522,12.2900814 L34.6956522,31.5746491 C34.6956522,31.7802728 34.534699,31.9565217 34.3298495,31.9565217 L3.10493311,31.9565217 C2.90008361,31.9565217 2.73913043,31.7802728 2.73913043,31.5746491 L2.73913043,12.2900814 C2.73913043,12.1725821 2.79765886,12.0550828 2.90008361,11.9816458 Z M5.31438127,11.0710265 L3.71948161,12.2900814 L5.31438127,13.5238237 L5.31438127,11.0710265 Z M6.06061873,14.0819453 L18.7173913,23.7609476 L31.3741639,14.0819453 L31.3741639,5.41637407 L6.06061873,5.41637407 L6.06061873,14.0819453 Z M32.1204013,13.5238237 L33.715301,12.2900814 L32.1204013,11.0710265 L32.1204013,13.5238237 Z M13.6985786,4.66731622 L23.736204,4.66731622 L18.7173913,0.833902533 L13.6985786,4.66731622 Z M33.4226589,31.2074639 L23.3411371,21.1612763 L18.951505,24.5100055 C18.8198161,24.6128173 18.6295987,24.6275048 18.4979097,24.5246929 L14.0936455,21.1612763 L4.01212375,31.2074639 L33.4226589,31.2074639 Z M23.9410535,20.7059666 L33.9494147,30.6934046 L33.9494147,13.0538266 L23.9410535,20.7059666 Z M3.48536789,13.0538266 L3.48536789,30.6934046 L13.4937291,20.7059666 L3.48536789,13.0538266 Z" id="Shape" stroke="#000000" stroke-width="0.2" fill-rule="nonzero"></path>
                <text id="Created-by-Danishicon" font-family="Helvetica-Bold, Helvetica" font-size="0.1089" font-weight="bold">
                    <tspan x="0" y="34.6955985">Created by </tspan>
                    <tspan x="0" y="34.6956985">Danishicon</tspan>
                </text>
                <text id="from-the-Noun-Project" font-family="Helvetica-Bold, Helvetica" font-size="0.1089" font-weight="bold">
                    <tspan x="0" y="34.6955985">from the Noun </tspan>
                    <tspan x="0" y="34.6956985">Project</tspan>
                </text>
            </g>
            <path d="M32.1663214,9.94220975 L46.7556944,36.6467713 C48.6092094,40.0394673 47.3614568,44.2923616 43.9687609,46.1458766 C42.9400119,46.707908 41.786588,47.0025809 40.6143237,47.002857 L11.4230402,47.0097325 C7.55704702,47.0106431 4.42230219,43.8773746 4.42139162,40.0113814 C4.42111511,38.8374006 4.71610662,37.6822047 5.27922178,36.6520919 L19.8811323,9.9406548 C21.7355061,6.54842817 25.9887161,5.30175215 29.3809428,7.15612597 C30.5569811,7.79901186 31.5237332,8.76600875 32.1663214,9.94220975 Z" id="Triangle-Copy-42" fill="#934AEF" opacity="0.06" transform="translate(26.017693, 26.653355) scale(-1, -1) rotate(23.000000) translate(-26.017693, -26.653355) "></path>
            <ellipse id="Oval" fill="#7231E5" cx="52.9962752" cy="34.7625904" rx="8.67391304" ry="5.47826087"></ellipse>
        </g>
    </g>
</svg>