<?xml version="1.0" encoding="UTF-8"?>
<svg width="60px" height="60px" viewBox="0 0 60 60" version="1.1" xmlns="http://www.w3.org/2000/svg" xmlns:xlink="http://www.w3.org/1999/xlink">
    <!-- Generator: Sketch 54.1 (76490) - https://sketchapp.com -->
    <title>3</title>
    <desc>Created with Sketch.</desc>
    <g id="3" stroke="none" stroke-width="1" fill="none" fill-rule="evenodd">
        <g id="Group-21-Copy" transform="translate(-6.000000, 2.000000)">
            <text id="КТ-1.2-КБМ-0.9-КМ-0.-Copy" font-family="Roboto-Medium, Roboto" font-size="6.65" font-weight="400" fill="#000000">
                <tspan x="24" y="15">КТ 1.2</tspan>
                <tspan x="24" y="23">КБМ 0.9</tspan>
                <tspan x="24" y="31">КМ 0.7</tspan>
                <tspan x="24" y="39">КВС 1</tspan>
            </text>
            <g id="Group-12-Copy-3" transform="translate(19.000000, 0.000000)" stroke="#000000" stroke-width="1.21">
                <path d="M27.5608601,0.605 L4.84,0.605 C2.50107408,0.605 0.605,2.50107408 0.605,4.84 L0.605,42.16 C0.605,44.4989259 2.50107408,46.395 4.84,46.395 L35.16,46.395 C37.4989259,46.395 39.395,44.4989259 39.395,42.16 L39.395,14.2016036 L27.5608601,0.605 Z" id="Combined-Shape"></path>
                <path d="M27.6470588,14.6791849 L27.6470588,0.56705991 L27.6470588,14.6791849 L27.2154505,14.6875 L27.6470588,14.6791849 Z M27.6470588,14.6791849 L39.4362323,14.4520617 L27.6470588,14.6791849 L27.6470588,14.6875 L27.6470588,14.6791849 Z" id="Combined-Shape"></path>
            </g>
            <path d="M34.7111027,20.3754741 L49.2888418,47.599259 C51.1138209,51.0073897 49.830423,55.2496635 46.4222923,57.0746426 C45.4054548,57.6191367 44.2698237,57.9039223 43.1163801,57.9036759 L13.9730821,57.8974511 C10.107089,57.8966254 6.9737517,54.7619493 6.97457745,50.8959562 C6.97482347,49.744123 7.25929878,48.6101485 7.80277612,47.5945934 L22.3683351,20.3770333 C24.1924531,16.9684416 28.4344025,15.6839719 31.8429941,17.50809 C33.0610313,18.1599262 34.0589588,19.1576017 34.7111027,20.3754741 Z" id="Triangle-Copy-39" fill="#934AEF" opacity="0.06" transform="translate(28.546912, 37.291097) scale(-1, -1) rotate(23.000000) translate(-28.546912, -37.291097) "></path>
            <polygon id="Path-14-Copy" fill="#7231E5" points="48 2 48.5472728 14 58 14"></polygon>
        </g>
    </g>
</svg>