<?xml version="1.0" encoding="UTF-8"?>
<svg width="60px" height="60px" viewBox="0 0 60 60" version="1.1" xmlns="http://www.w3.org/2000/svg" xmlns:xlink="http://www.w3.org/1999/xlink">
    <!-- Generator: Sketch 54.1 (76490) - https://sketchapp.com -->
    <title>7</title>
    <desc>Created with Sketch.</desc>
    <defs>
        <polygon id="path-1" points="0 0.047222981 33.9671178 0.047222981 33.9671178 37.7858303 0 37.7858303"></polygon>
        <polygon id="path-3" points="0 0 33.9671178 0 33.9671178 35.2485111 0 35.2485111"></polygon>
    </defs>
    <g id="7" stroke="none" stroke-width="1" fill="none" fill-rule="evenodd">
        <g id="Group-28-Copy" transform="translate(4.000000, 4.000000)">
            <circle id="Oval" fill="#7432E5" cx="26.5" cy="17.5" r="9.5"></circle>
            <path d="M34.4812555,19.5275805 L48.2621317,44.7304279 L48.7668834,45.6535317 C50.6216346,49.045552 49.3754318,53.2989007 45.9834115,55.1536519 C44.9568821,55.7149565 43.8060354,56.0100118 42.6360688,56.0118472 L13.98257,56.0567982 C10.1165815,56.0628631 6.97766205,52.9337767 6.97159717,49.0677883 C6.96974378,47.8863676 7.26693685,46.7236965 7.83549245,45.6880794 L22.2033633,19.5171772 C24.0638601,16.1283049 28.3193146,14.8893118 31.7081869,16.7498086 C32.878532,17.3923301 33.8407182,18.3561482 34.4812555,19.5275805 Z" id="Triangle-Copy-46" fill="#934AEF" opacity="0.06" transform="translate(28.298997, 35.970702) scale(-1, -1) rotate(23.000000) translate(-28.298997, -35.970702) "></path>
            <g id="Group-13" transform="translate(8.000000, 0.000000)">
                <g id="Group-3" transform="translate(0.000000, 9.962264)">
                    <mask id="mask-2" fill="white">
                        <use xlink:href="#path-1"></use>
                    </mask>
                    <g id="Clip-2"></g>
                    <path d="M33.2676959,26.5475612 C32.8814932,26.5475612 32.5682274,26.8604577 32.5682274,27.246506 L32.5682274,34.2915159 C32.5682274,35.4475203 31.6269397,36.388071 30.4698219,36.388071 L1.39898356,36.388071 L1.39898356,0.746074705 C1.39898356,0.360026369 1.08581096,0.047222981 0.699515068,0.047222981 C0.313219178,0.047222981 -4.65753425e-05,0.360026369 -4.65753425e-05,0.746074705 L-4.65753425e-05,37.0869227 C-4.65753425e-05,37.4730642 0.313219178,37.7858675 0.699515068,37.7858675 L30.4697288,37.7858675 C32.3982274,37.7858675 33.9671644,36.218314 33.9671644,34.2915159 L33.9671644,27.246506 C33.9672575,26.8603646 33.6539918,26.5475612 33.2676959,26.5475612" id="Fill-1" fill="#000000" mask="url(#mask-2)"></path>
                </g>
                <g id="Group-6">
                    <mask id="mask-4" fill="white">
                        <use xlink:href="#path-3"></use>
                    </mask>
                    <g id="Clip-5"></g>
                    <path d="M30.4698126,-9.36890045e-06 L0.699505753,-9.36890045e-06 C0.313209863,-9.36890045e-06 -5.5890411e-05,0.314879375 -5.5890411e-05,0.703501366 L-5.5890411e-05,7.86789954 C-5.5890411e-05,8.25661522 0.313209863,8.57150397 0.699505753,8.57150397 C1.08580164,8.57150397 1.39897425,8.25661522 1.39897425,7.86789954 L1.39897425,1.40710579 L30.4697195,1.40710579 C31.6268373,1.40710579 32.5681249,2.35392687 32.5681249,3.517638 L32.5681249,34.5450004 C32.5681249,34.9337161 32.8813907,35.2485111 33.2675934,35.2485111 C33.6539825,35.2485111 33.9671551,34.9337161 33.9671551,34.5450004 L33.9671551,3.517638 C33.9672482,1.57799453 32.3982181,-9.36890045e-06 30.4698126,-9.36890045e-06" id="Fill-4" fill="#000000" mask="url(#mask-4)"></path>
                </g>
                <path d="M21.961002,13.9475776 C21.721768,12.7278175 21.3772009,11.6031363 20.9355027,10.6307857 C20.684012,10.0771351 20.4071788,9.58687033 20.1094265,9.16305855 C22.1595958,9.8801927 23.9006776,11.2953151 25.0337217,13.1420564 C24.0882128,13.4751575 23.0534058,13.744687 21.961002,13.9475776 M20.9673883,18.1131083 C20.9673883,18.9954919 20.9142149,19.858079 20.8133053,20.6852555 C19.5930827,20.5254896 18.3243867,20.4424931 17.0394714,20.4424931 C15.7546483,20.4424931 14.4858601,20.5254896 13.2656375,20.6852555 C13.1648201,19.8581719 13.1115546,18.9955848 13.1115546,18.1131083 C13.1115546,17.2306318 13.1648201,16.3681377 13.2656375,15.5409612 C14.4858601,15.7006341 15.7545561,15.7836306 17.0394714,15.7836306 C18.3242946,15.7836306 19.5929906,15.7006341 20.8133053,15.5409612 C20.9142149,16.3681377 20.9673883,17.2306318 20.9673883,18.1131083 M25.0342746,23.0844391 C24.535809,23.898418 23.9146852,24.6391592 23.1859245,25.2758992 C22.276356,26.0705463 21.2299375,26.6725263 20.1094265,27.063251 C20.4071788,26.6393463 20.684012,26.1489886 20.9355027,25.595338 C21.3772009,24.6229874 21.7218601,23.4983991 21.961002,22.278732 C23.0535901,22.4814367 24.0885814,22.7510591 25.0342746,23.0844391 M14.401907,11.2122257 C15.1443066,9.57794798 16.1056662,8.64054323 17.0395636,8.64054323 C17.973461,8.64054323 18.9348205,9.57785504 19.6772201,11.2122257 C20.068694,12.0737904 20.3761226,13.0736516 20.5932395,14.1621788 C19.4460036,14.3102341 18.2517687,14.3879329 17.0395636,14.3879329 C15.8274506,14.3879329 14.6332157,14.3102341 13.4858876,14.1621788 C13.7030967,13.0735587 14.0105253,12.0737904 14.401907,11.2122257 M9.047525,13.142614 C10.1766986,11.3026575 11.9126198,9.87963505 13.9718202,9.15989855 C13.6732385,9.5845468 13.3957602,10.0757409 13.1436245,10.6306927 C12.7019262,11.6030434 12.3571748,12.7277246 12.118033,13.9474846 C11.0264586,13.7448729 9.992481,13.4755293 9.047525,13.142614 M8.40308603,21.8348449 C7.91696911,20.6917614 7.64723182,19.4336166 7.64723182,18.1131083 C7.64723182,16.7925071 7.91696911,15.5344553 8.40308603,14.3913717 C9.47420203,14.7818176 10.6521255,15.0950294 11.8987044,15.3248729 C11.7867362,16.2238 11.727665,17.1588812 11.727665,18.1131083 C11.727665,19.0672425 11.7868284,20.0023237 11.8987044,20.9012508 C10.6521255,21.1311873 9.47420203,21.444492 8.40308603,21.8348449 M13.1436245,25.5952451 C13.3957602,26.1503828 13.6731463,26.6415769 13.9718202,27.0661322 C11.9126198,26.3464887 10.1766986,24.9236521 9.047525,23.0834168 C9.992481,22.7505944 11.0263664,22.4811579 12.118033,22.2785461 C12.357267,23.4983991 12.7019262,24.6228945 13.1436245,25.5952451 M17.0395636,27.5855805 C16.1056662,27.5855805 15.1443066,26.6482687 14.401907,25.013898 C14.0105253,24.1523333 13.7030967,23.152565 13.4858876,22.0640379 C14.6331236,21.9159826 15.8273585,21.8382838 17.0395636,21.8382838 C18.2516765,21.8382838 19.4459114,21.9159826 20.5932395,22.0640379 C20.3761226,23.152565 20.068694,24.1523333 19.6772201,25.013898 C18.9348205,26.6482687 17.9733688,27.5855805 17.0395636,27.5855805 M26.3581714,16.9200224 C26.4057233,17.3023824 26.7511198,17.5742354 27.1309821,17.5255342 C27.5101994,17.4774836 27.7790151,17.1285824 27.7313711,16.7461294 C27.5580278,15.3545212 27.1253607,14.051207 26.4868196,12.8820069 C26.3825003,12.6902693 26.2720988,12.5019704 26.156168,12.3171104 C24.4240251,9.53993503 21.5715556,7.71996084 18.3573781,7.32654083 C17.3621978,7.20357965 16.3500609,7.21993729 15.3595804,7.37719377 C11.9702166,7.90956085 9.02135302,10.0354974 7.42937772,13.191594 C7.41822698,13.213714 7.40827426,13.2362987 7.39970385,13.2591622 C6.67306274,14.7210341 6.26315789,16.3696247 6.26315789,18.1132013 C6.26315789,19.8567778 6.67306274,21.5052755 7.39970385,22.9671473 C7.40827426,22.9901038 7.41822698,23.0126885 7.42937772,23.0347156 C9.02135302,26.1909051 11.9702166,28.3167487 15.3595804,28.8492088 C16.252561,28.9908511 17.1635119,29.0184546 18.0634963,28.9319264 C21.725915,28.5851629 24.9557587,26.3928663 26.6498416,23.0347156 C26.6555552,23.0232838 26.6600708,23.0113873 26.6653236,22.9996768 C27.1705166,21.9891273 27.5203364,20.899299 27.6919288,19.7675543 C27.7496177,19.3864954 27.4902018,19.0304378 27.1122747,18.9721637 C26.7345319,18.9141684 26.3814866,19.1757048 26.3237055,19.5566707 C26.2042728,20.3451837 25.9841148,21.1097179 25.6763176,21.8351238 C24.6052016,21.4446779 23.4271859,21.1312802 22.1805149,20.9014367 C22.2925752,20.0025096 22.3515543,19.0674284 22.3515543,18.1132942 C22.3515543,17.1590671 22.2924831,16.2239859 22.1805149,15.3250588 C23.4282918,15.0949364 24.6073211,14.7813529 25.6791744,14.3904423 C26.0147102,15.1815576 26.2473091,16.0301106 26.3581714,16.9200224" id="Fill-7" fill="#000000"></path>
                <path d="M6.95261121,34.4150943 L27.047297,34.4150943 C27.4280618,34.4150943 27.7368421,34.0097512 27.7368421,33.5093737 C27.7368421,33.0092374 27.4280618,32.6037736 27.047297,32.6037736 L6.95261121,32.6037736 C6.57184641,32.6037736 6.26315789,33.0092374 6.26315789,33.5093737 C6.26315789,34.0097512 6.57184641,34.4150943 6.95261121,34.4150943" id="Fill-9" fill="#000000"></path>
                <path d="M9.63892017,37.1320755 C9.25699647,37.1320755 8.94736842,37.537325 8.94736842,38.0377358 C8.94736842,38.5380261 9.25699647,38.9433962 9.63892017,38.9433962 L24.3609877,38.9433962 C24.7429114,38.9433962 25.0526316,38.5380261 25.0526316,38.0377358 C25.0526316,37.537325 24.7429114,37.1320755 24.3609877,37.1320755 L9.63892017,37.1320755 Z" id="Fill-11" fill="#000000"></path>
            </g>
        </g>
    </g>
</svg>