<?xml version="1.0" encoding="UTF-8"?>
<svg width="60px" height="60px" viewBox="0 0 60 60" version="1.1" xmlns="http://www.w3.org/2000/svg" xmlns:xlink="http://www.w3.org/1999/xlink">
    <!-- Generator: Sketch 54.1 (76490) - https://sketchapp.com -->
    <title>11</title>
    <desc>Created with Sketch.</desc>
    <defs>
        <polygon id="path-1" points="0 0 34 0 34 49 0 49"></polygon>
    </defs>
    <g id="11" stroke="none" stroke-width="1" fill="none" fill-rule="evenodd">
        <g id="Group-34-Copy" transform="translate(0.000000, 2.000000)">
            <path d="M35.1480083,7.25931748 L52.2504115,38.5637593 C54.1039266,41.9564552 52.8561739,46.2093495 49.463478,48.0628646 C48.434729,48.624896 47.2813051,48.9195688 46.1090408,48.9198449 L11.8895374,48.9279048 C8.02354424,48.9288153 4.88879941,45.7955468 4.88788884,41.9295537 C4.88761233,40.7555728 5.18260384,39.6003769 5.74571899,38.5702641 L22.8628193,7.25776252 C24.7171931,3.86553589 28.9704031,2.61885987 32.3626297,4.4732337 C33.538668,5.11611959 34.5054202,6.08311647 35.1480083,7.25931748 Z" id="Triangle-Copy-47" fill="#934AEF" opacity="0.06" transform="translate(29.000000, 27.926687) scale(-1, -1) rotate(23.000000) translate(-29.000000, -27.926687) "></path>
            <path d="M27.5435395,13.3529276 C28.5382675,9.71240245 29.8246234,7.67830226 31.4026072,7.25062699 C33.7695829,6.60911409 37.1486079,7.17752699 38.1948066,9.20576635 C38.8922724,10.5579259 38.5435395,12.8226705 37.1486079,16 L27.5435395,13.3529276 Z" id="Path-15" fill="#7231E5"></path>
            <g id="Group-3" transform="translate(11.543540, 4.000000)">
                <mask id="mask-2" fill="white">
                    <use xlink:href="#path-1"></use>
                </mask>
                <g id="Clip-2"></g>
                <path d="M26.8120303,33.6633407 C26.2334167,33.6633407 25.7628313,33.1974636 25.7628313,32.6245389 C25.7628313,32.0518148 26.2334167,31.5858374 26.8120303,31.5858374 C27.3906438,31.5858374 27.8613305,32.0518148 27.8613305,32.6245389 C27.8613305,33.1973633 27.3906438,33.6633407 26.8120303,33.6633407 L26.8120303,33.6633407 Z M26.8120303,29.7815658 C25.2285629,29.7815658 23.9404264,31.0569145 23.9404264,32.6244387 C23.9404264,34.1919629 25.2286642,35.4674118 26.8120303,35.4674118 C28.3954976,35.4674118 29.6837353,34.1919629 29.6837353,32.6244387 C29.6837353,31.0569145 28.3955988,29.7815658 26.8120303,29.7815658 L26.8120303,29.7815658 Z M10.2785659,25.8165986 L7.95732833,21.6842443 L10.2785659,17.5517898 L12.5997022,21.6842443 L10.2785659,25.8165986 Z M14.43861,21.2458307 L11.0749568,15.2572848 C10.9141802,14.9711232 10.6094336,14.7936128 10.2785659,14.7936128 C9.94779942,14.7936128 9.64295158,14.9711232 9.48227622,15.2572848 L6.11831934,21.2458307 C5.96523733,21.518461 5.96523733,21.8500276 6.11831934,22.122658 L9.48227622,28.1111036 C9.64295158,28.3972652 9.94779942,28.5747756 10.2785659,28.5747756 C10.6094336,28.5747756 10.9141802,28.3972652 11.0749568,28.1111036 L14.43861,22.122658 C14.591692,21.8500276 14.591692,21.518461 14.43861,21.2458307 L14.43861,21.2458307 Z M18.6984813,39.995481 C18.3770294,39.9995905 18.081496,40.1711872 17.9209219,40.447025 C17.7602466,40.7228628 17.7584242,41.0619467 17.9158597,41.3394884 C18.0046513,41.4956495 18.0494015,41.6664444 18.0494015,41.8471622 C18.0494015,42.4198864 17.578816,42.8858637 17.0001012,42.8858637 C16.4214877,42.8858637 15.950801,42.4198864 15.950801,41.8471622 C15.950801,41.6663441 15.9957537,41.4955493 16.0843428,41.3393882 C16.2418796,41.0617463 16.2399559,40.7226623 16.0793818,40.4469248 C15.9188077,40.1711872 15.6232744,39.9995905 15.3017212,39.995481 C14.7308022,39.9882643 14.2662915,39.522287 14.2662915,38.9569799 C14.2662915,38.384356 14.7369781,37.9182784 15.3155917,37.9182784 C15.6886785,37.9182784 16.0259246,38.1081173 16.2176821,38.4260524 C16.3821035,38.6985825 16.6792567,38.8655686 17.0001012,38.8655686 C17.3209457,38.8655686 17.618099,38.6985825 17.7825204,38.4259522 C17.9741766,38.1080171 18.3113215,37.9182784 18.6845096,37.9182784 C19.2631231,37.9182784 19.733911,38.384356 19.733911,38.9569799 C19.7342148,39.5223872 19.2695015,39.9882643 18.6984813,39.995481 L18.6984813,39.995481 Z M18.684712,36.114107 C18.073194,36.114107 17.4841522,36.3105612 17.0002025,36.6568619 C16.516354,36.3105612 15.927211,36.114107 15.3157942,36.114107 C13.7324281,36.114107 12.4440891,37.3894557 12.4440891,38.9569799 C12.4440891,40.105335 13.1442975,41.1037434 14.1441903,41.5504762 C14.1337621,41.6488036 14.1284974,41.7479328 14.1284974,41.8472624 C14.1284974,43.4148869 15.4167352,44.6901353 17.0002025,44.6901353 C18.5837711,44.6901353 19.8719076,43.4147866 19.8719076,41.8472624 C19.8719076,41.748033 19.8666428,41.6489038 19.8562146,41.5504762 C20.8563099,41.1037434 21.5566196,40.105335 21.5566196,38.9569799 C21.5566196,37.3894557 20.2681794,36.114107 18.684712,36.114107 L18.684712,36.114107 Z M21.400804,21.6842443 L23.7220416,17.5517898 L26.0431779,21.6842443 L23.7220416,25.8165986 L21.400804,21.6842443 Z M24.5184325,28.1111036 L27.8820856,22.122658 C28.0352689,21.8500276 28.0352689,21.518461 27.8820856,21.2458307 L24.5185337,15.2572848 C24.3576559,14.9711232 24.0528081,14.7936128 23.7220416,14.7936128 C23.3912751,14.7936128 23.0865285,14.9711232 22.9257519,15.2572848 L19.5618963,21.2458307 C19.4086118,21.518461 19.4086118,21.8500276 19.5618963,22.122658 L22.9257519,28.1111036 C23.0865285,28.3972652 23.3913763,28.5747756 23.7220416,28.5747756 C24.0528081,28.5747756 24.3576559,28.3973655 24.5184325,28.1111036 L24.5184325,28.1111036 Z M10.2785659,20.6747102 C10.7818534,20.6747102 11.1897683,21.0785439 11.1897683,21.5767959 L11.1897683,21.7918932 C11.1897683,22.2901452 10.7818534,22.6939789 10.2785659,22.6939789 C9.77537967,22.6939789 9.36736347,22.2901452 9.36736347,21.7918932 L9.36736347,21.5767959 C9.36736347,21.0785439 9.77537967,20.6747102 10.2785659,20.6747102 L10.2785659,20.6747102 Z M24.6331428,21.5767959 L24.6331428,21.7918932 C24.6331428,22.2901452 24.2251266,22.6939789 23.7219403,22.6939789 C23.2185516,22.6939789 22.8107379,22.2901452 22.8107379,21.7918932 L22.8107379,21.5767959 C22.8107379,21.0785439 23.2185516,20.6747102 23.7219403,20.6747102 C24.2251266,20.6747102 24.6331428,21.0785439 24.6331428,21.5767959 L24.6331428,21.5767959 Z M17.0001012,47.1958286 C8.63111191,47.1958286 1.8225061,38.2652807 1.8225061,27.288201 C1.8225061,19.1441715 5.67112143,11.7595979 11.434983,8.76828182 L25.3969329,13.2949477 C25.4061461,13.2982554 25.4153594,13.3013626 25.4246739,13.3044698 C25.4340897,13.3074767 25.4434042,13.3103834 25.4526175,13.3130897 L28.4910726,14.2981673 C30.8703234,17.9129248 32.1776964,22.5122587 32.1776964,27.288201 C32.1777976,38.2653809 25.3690906,47.1958286 17.0001012,47.1958286 L17.0001012,47.1958286 Z M16.4170329,5.69768241 L25.958841,8.79123489 L25.1261033,11.3087556 L15.5842952,8.21510284 L16.4170329,5.69768241 Z M18.7853493,2.23227017 C19.730165,1.75847472 20.7996129,1.67588377 21.7974808,1.99923137 L23.8306771,2.65845553 C25.7240546,3.27237495 26.8331904,5.17647735 26.4900721,7.06504383 L17.0203502,3.99474512 C17.3944494,3.237795 18.0068787,2.62257257 18.7853493,2.23227017 L18.7853493,2.23227017 Z M31.0984277,15.143622 L32.5861176,15.6259371 C33.0638914,15.7809956 33.5790245,15.5229991 33.7357513,15.0494042 C33.8923769,14.5759094 33.6315705,14.0664315 33.1532905,13.911373 L29.3762551,12.6867415 C29.365422,12.6829327 29.3541838,12.6793244 29.3431481,12.6760167 L26.8579954,11.870354 L28.0875112,8.15366078 C29.0779882,5.15903703 27.4228396,1.92465895 24.39785,0.943891356 L22.3644512,0.28466719 C20.9042999,-0.188827559 19.3405753,-0.0686497004 17.9617235,0.622849087 C16.5827705,1.31434787 15.5599964,2.49146945 15.0818176,3.93701163 L13.8523018,7.65350439 L7.55619677,5.61228497 C7.07771425,5.457026 6.56328986,5.71522296 6.40666428,6.18881795 C6.25003871,6.66231269 6.51074385,7.17179064 6.98912513,7.32684914 L9.13996784,8.0242616 C6.71353701,9.63478523 4.63042701,11.9692827 3.04513728,14.8738984 C1.05304627,18.5239375 0,22.8166625 0,27.288201 C0,33.0438083 1.74019415,38.4643409 4.89994044,42.55119 C8.1150676,46.7097047 12.4122983,49 17,49 C21.587803,49 25.8851349,46.7097047 29.100262,42.55119 C32.2600083,38.4643409 34,33.0438083 34,27.288201 C34.0002025,22.9367402 32.9811744,18.7110702 31.0984277,15.143622 L31.0984277,15.143622 Z M14.7232089,29.801111 C14.9531356,29.3579865 15.5024894,29.1830821 15.9501936,29.4110091 L17.0003037,29.9452442 L18.0504139,29.4110091 C18.4983205,29.1829818 19.0474719,29.3578862 19.2773986,29.801111 C19.5074266,30.2442355 19.3310583,30.788093 18.8833542,31.0157192 L17.4270502,31.7568327 C17.4083199,31.766455 17.3896909,31.7755761 17.3703532,31.7838953 C17.2506819,31.8366172 17.1250372,31.8617754 17.0010124,31.8617754 L16.9994938,31.8617754 C16.8778989,31.8617754 16.7547853,31.8376195 16.6373414,31.7870025 C16.6152701,31.777681 16.5936037,31.7672569 16.5724436,31.7560309 L15.1170508,31.015619 C14.6695492,30.7879927 14.4931809,30.2441353 14.7232089,29.801111 L14.7232089,29.801111 Z M7.18847597,33.6633407 C6.60996367,33.6633407 6.13917575,33.1974636 6.13917575,32.6245389 C6.13917575,32.0518148 6.60986243,31.5858374 7.18847597,31.5858374 C7.76708951,31.5858374 8.23787743,32.0518148 8.23787743,32.6245389 C8.23787743,33.1973633 7.76719076,33.6633407 7.18847597,33.6633407 L7.18847597,33.6633407 Z M7.18847597,29.7815658 C5.60500864,29.7815658 4.31677089,31.0569145 4.31677089,32.6244387 C4.31677089,34.1919629 5.60500864,35.4674118 7.18847597,35.4674118 C8.77204455,35.4674118 10.0602823,34.1919629 10.0602823,32.6244387 C10.0602823,31.0569145 8.77204455,29.7815658 7.18847597,29.7815658 L7.18847597,29.7815658 Z" id="Fill-1" fill="#000000" mask="url(#mask-2)"></path>
            </g>
        </g>
    </g>
</svg>