<svg xmlns="http://www.w3.org/2000/svg" xmlns:xlink="http://www.w3.org/1999/xlink" width="84" height="96" viewBox="0 0 84 96"><defs><clipPath id="a"><path d="M79.123,96H4.877V75.871H0l1.153-8.078A7.7,7.7,0,0,1,7.6,61.241l10.092-1.595a20.794,20.794,0,0,1-9.3-5.935L7.357,52.619l2.556-2.558a30.381,30.381,0,0,0,7.978-14.106,30.437,30.437,0,0,0,.907-7.367V22.109l4.053-1.352a14.237,14.237,0,0,1-1.194-2.632,25.52,25.52,0,0,1-1.312-8.093,22.1,22.1,0,0,0-1.132-7L18.2,0H32.126l-2.51,5.031a14.6,14.6,0,0,0-1.222,3.6A23.2,23.2,0,0,1,42,4.645,23.193,23.193,0,0,1,55.6,8.626a14.452,14.452,0,0,0-1.217-3.595L51.873,0H65.8L64.789,3.039a22.044,22.044,0,0,0-1.135,6.994,25.512,25.512,0,0,1-1.312,8.093,14.293,14.293,0,0,1-1.194,2.632L65.2,22.109v6.478A30.388,30.388,0,0,0,74.086,50.06l2.555,2.558L75.6,53.71a20.744,20.744,0,0,1-9.313,5.932l10.108,1.6a7.7,7.7,0,0,1,6.45,6.551L84,75.871H79.123V96ZM68.295,89.807v3.1h7.735v-3.1ZM55.921,61.14V92.9H65.2v-30.3ZM31.172,89.807v3.1H52.827v-3.1ZM28.078,61.14,18.8,62.606V92.9h9.28ZM7.97,89.807v3.1H15.7v-3.1Zm60.324-6.194h0v3.1h7.735v-3.1Zm-37.122,0h0v3.1H52.827v-3.1Zm-23.2,0h0v3.1H15.7v-3.1Zm60.324-7.742v4.646h7.735V75.871ZM31.172,77.42v3.1H52.827v-3.1ZM7.97,75.871v4.646H15.7V75.871Zm23.2-4.645v3.1H52.827v-3.1ZM68.295,63.1v9.679H80.433l-.648-4.543a4.625,4.625,0,0,0-3.87-3.933ZM15.7,63.1,8.086,64.3a4.623,4.623,0,0,0-3.87,3.933l-.649,4.543H15.7Zm16.565-2.618-1.1.173v7.479H52.827V60.65l-1.1-.173a13.572,13.572,0,0,1-3.395,1.876A17.487,17.487,0,0,1,42,63.484a15.706,15.706,0,0,1-9.731-3.007Zm2-5.066v2.7A12.81,12.81,0,0,0,42,60.387a12.813,12.813,0,0,0,7.735-2.275v-2.7a16.855,16.855,0,0,1-15.468,0Zm21.655-5.392h0a17.142,17.142,0,0,1-3.093,3.366v4.129l3.093.49V50.019Zm-27.842,0V58l3.094-.49V53.385A17.209,17.209,0,0,1,28.078,50.019ZM18.8,51.1h3.093a9.05,9.05,0,0,1-2.174,5.865,17.214,17.214,0,0,0,3.537.365c.364,0,.736-.011,1.106-.033h.625v-9.3a31.687,31.687,0,0,1-8.457-1.239,33.593,33.593,0,0,1-4.427,5.5l-.391.393a17.922,17.922,0,0,0,4.756,3.247l.6-.6A5.975,5.975,0,0,0,18.8,51.1Zm48.675-4.345a31.582,31.582,0,0,1-8.459,1.238v9.3h.531c.385.023.771.035,1.148.035a17.458,17.458,0,0,0,3.587-.368A9.045,9.045,0,0,1,62.108,51.1H65.2a5.974,5.974,0,0,0,1.734,4.192l.6.595a17.9,17.9,0,0,0,4.757-3.243l-.39-.392A33.293,33.293,0,0,1,67.473,46.751ZM28.078,31.489v8.769a13.921,13.921,0,1,0,27.842,0V31.489A30.054,30.054,0,0,1,48.585,32.5L42,35.8,35.415,32.5A30.067,30.067,0,0,1,28.078,31.489ZM64.4,40.737a16.19,16.19,0,0,1-5.385,1.048v3.109a28.589,28.589,0,0,0,6.868-.9A33.387,33.387,0,0,1,64.4,40.737Zm-44.8,0a33.413,33.413,0,0,1-1.483,3.254,28.6,28.6,0,0,0,6.868.9V41.784A16.2,16.2,0,0,1,19.6,40.737Zm39.412-9.769v7.719a13.123,13.123,0,0,0,4.4-.894c-.036-.126-.074-.254-.111-.377-.069-.233-.141-.473-.2-.714a33.618,33.618,0,0,1-.906-5.735Zm-37.215,0a33.617,33.617,0,0,1-.906,5.735c-.06.242-.132.485-.2.72-.037.124-.073.247-.109.371a13.064,13.064,0,0,0,4.4.894V30.968Zm15.56-3.1v2.139L42,32.333l4.64-2.323V27.871h-.59a6.071,6.071,0,0,1-8.1,0Zm18.562-1.909a13.572,13.572,0,0,1-6.187,1.867v1.527a27.077,27.077,0,0,0,6.187-1.088Zm-27.842,0v2.3a27.009,27.009,0,0,0,6.187,1.09V27.83a13.6,13.6,0,0,1-6.187-1.867Zm31.138-2.586h0c-.034.036-.071.071-.107.1s-.065.061-.1.092v4.3h3.094V24.342l-2.892-.966Zm-34.432,0h0l-2.893.966v3.529h3.093v-4.3c-.028-.029-.057-.056-.087-.084s-.078-.073-.114-.112ZM42,20.129a3.1,3.1,0,1,0,3.093,3.1A3.1,3.1,0,0,0,42,20.129ZM56.875,3.1l.275.548a17.779,17.779,0,0,1,1.863,7.9,11.072,11.072,0,0,1-.818,4.235A10.739,10.739,0,0,1,55.84,19.3l-.136.136a10.7,10.7,0,0,1-4.97,2.812l-2.582.645c0,.049.01.1.016.143a1.291,1.291,0,0,1,.018.186,6.009,6.009,0,0,1-.22,1.549h.869a11.147,11.147,0,0,0,10.571-7.628,22.459,22.459,0,0,0,1.153-7.113A25.234,25.234,0,0,1,61.532,3.1Zm-34.409,0a25.22,25.22,0,0,1,.972,6.936,22.492,22.492,0,0,0,1.152,7.113,11.149,11.149,0,0,0,10.572,7.628h.869a6.012,6.012,0,0,1-.22-1.549,1.289,1.289,0,0,1,.017-.183c.007-.048.014-.1.016-.147l-2.579-.643a10.749,10.749,0,0,1-4.978-2.821l-.123-.122a10.76,10.76,0,0,1-3.182-7.652,17.806,17.806,0,0,1,1.866-8.014l.275-.548ZM42,7.742c-8.051,0-12.333,3.559-13.8,5.09a7.679,7.679,0,0,0,2.147,4.283l.124.122a7.652,7.652,0,0,0,3.547,2.012l2.76.688a6.161,6.161,0,0,1,3.676-2.683V10.839h3.093v6.413a6.155,6.155,0,0,1,3.675,2.684l2.763-.689a7.629,7.629,0,0,0,3.54-2l.136-.135a7.641,7.641,0,0,0,2.146-4.272C54.356,11.3,50.106,7.742,42,7.742ZM62.108,89.807H59.014V82.065h3.094v7.741Zm-37.123,0H21.892V82.065h3.093v7.741ZM62.108,75.871H59.014V68.129h3.094V75.87Zm-37.123,0H21.892V68.129h3.093V75.87ZM42,51.1A6.2,6.2,0,0,1,35.813,44.9h3.093a3.093,3.093,0,1,0,6.187,0h3.094A6.2,6.2,0,0,1,42,51.1ZM49.734,38.71a1.548,1.548,0,1,1,1.546-1.549A1.55,1.55,0,0,1,49.734,38.71Zm-15.468,0a1.548,1.548,0,1,1,1.547-1.549A1.55,1.55,0,0,1,34.266,38.71Zm9.281-13.936H40.453v-3.1h3.093v3.1Z" fill="none"/></clipPath><linearGradient id="b" x1="0.5" y1="0.567" x2="0.341" y2="0.832" gradientUnits="objectBoundingBox"><stop offset="0" stop-color="#9e2fff"/><stop offset="1" stop-color="#7131e5"/></linearGradient></defs><path d="M79.123,96H4.877V75.871H0l1.153-8.078A7.7,7.7,0,0,1,7.6,61.241l10.092-1.595a20.794,20.794,0,0,1-9.3-5.935L7.357,52.619l2.556-2.558a30.381,30.381,0,0,0,7.978-14.106,30.437,30.437,0,0,0,.907-7.367V22.109l4.053-1.352a14.237,14.237,0,0,1-1.194-2.632,25.52,25.52,0,0,1-1.312-8.093,22.1,22.1,0,0,0-1.132-7L18.2,0H32.126l-2.51,5.031a14.6,14.6,0,0,0-1.222,3.6A23.2,23.2,0,0,1,42,4.645,23.193,23.193,0,0,1,55.6,8.626a14.452,14.452,0,0,0-1.217-3.595L51.873,0H65.8L64.789,3.039a22.044,22.044,0,0,0-1.135,6.994,25.512,25.512,0,0,1-1.312,8.093,14.293,14.293,0,0,1-1.194,2.632L65.2,22.109v6.478A30.388,30.388,0,0,0,74.086,50.06l2.555,2.558L75.6,53.71a20.744,20.744,0,0,1-9.313,5.932l10.108,1.6a7.7,7.7,0,0,1,6.45,6.551L84,75.871H79.123V96ZM68.295,89.807v3.1h7.735v-3.1ZM55.921,61.14V92.9H65.2v-30.3ZM31.172,89.807v3.1H52.827v-3.1ZM28.078,61.14,18.8,62.606V92.9h9.28ZM7.97,89.807v3.1H15.7v-3.1Zm60.324-6.194h0v3.1h7.735v-3.1Zm-37.122,0h0v3.1H52.827v-3.1Zm-23.2,0h0v3.1H15.7v-3.1Zm60.324-7.742v4.646h7.735V75.871ZM31.172,77.42v3.1H52.827v-3.1ZM7.97,75.871v4.646H15.7V75.871Zm23.2-4.645v3.1H52.827v-3.1ZM68.295,63.1v9.679H80.433l-.648-4.543a4.625,4.625,0,0,0-3.87-3.933ZM15.7,63.1,8.086,64.3a4.623,4.623,0,0,0-3.87,3.933l-.649,4.543H15.7Zm16.565-2.618-1.1.173v7.479H52.827V60.65l-1.1-.173a13.572,13.572,0,0,1-3.395,1.876A17.487,17.487,0,0,1,42,63.484a15.706,15.706,0,0,1-9.731-3.007Zm2-5.066v2.7A12.81,12.81,0,0,0,42,60.387a12.813,12.813,0,0,0,7.735-2.275v-2.7a16.855,16.855,0,0,1-15.468,0Zm21.655-5.392h0a17.142,17.142,0,0,1-3.093,3.366v4.129l3.093.49V50.019Zm-27.842,0V58l3.094-.49V53.385A17.209,17.209,0,0,1,28.078,50.019ZM18.8,51.1h3.093a9.05,9.05,0,0,1-2.174,5.865,17.214,17.214,0,0,0,3.537.365c.364,0,.736-.011,1.106-.033h.625v-9.3a31.687,31.687,0,0,1-8.457-1.239,33.593,33.593,0,0,1-4.427,5.5l-.391.393a17.922,17.922,0,0,0,4.756,3.247l.6-.6A5.975,5.975,0,0,0,18.8,51.1Zm48.675-4.345a31.582,31.582,0,0,1-8.459,1.238v9.3h.531c.385.023.771.035,1.148.035a17.458,17.458,0,0,0,3.587-.368A9.045,9.045,0,0,1,62.108,51.1H65.2a5.974,5.974,0,0,0,1.734,4.192l.6.595a17.9,17.9,0,0,0,4.757-3.243l-.39-.392A33.293,33.293,0,0,1,67.473,46.751ZM28.078,31.489v8.769a13.921,13.921,0,1,0,27.842,0V31.489A30.054,30.054,0,0,1,48.585,32.5L42,35.8,35.415,32.5A30.067,30.067,0,0,1,28.078,31.489ZM64.4,40.737a16.19,16.19,0,0,1-5.385,1.048v3.109a28.589,28.589,0,0,0,6.868-.9A33.387,33.387,0,0,1,64.4,40.737Zm-44.8,0a33.413,33.413,0,0,1-1.483,3.254,28.6,28.6,0,0,0,6.868.9V41.784A16.2,16.2,0,0,1,19.6,40.737Zm39.412-9.769v7.719a13.123,13.123,0,0,0,4.4-.894c-.036-.126-.074-.254-.111-.377-.069-.233-.141-.473-.2-.714a33.618,33.618,0,0,1-.906-5.735Zm-37.215,0a33.617,33.617,0,0,1-.906,5.735c-.06.242-.132.485-.2.72-.037.124-.073.247-.109.371a13.064,13.064,0,0,0,4.4.894V30.968Zm15.56-3.1v2.139L42,32.333l4.64-2.323V27.871h-.59a6.071,6.071,0,0,1-8.1,0Zm18.562-1.909a13.572,13.572,0,0,1-6.187,1.867v1.527a27.077,27.077,0,0,0,6.187-1.088Zm-27.842,0v2.3a27.009,27.009,0,0,0,6.187,1.09V27.83a13.6,13.6,0,0,1-6.187-1.867Zm31.138-2.586h0c-.034.036-.071.071-.107.1s-.065.061-.1.092v4.3h3.094V24.342l-2.892-.966Zm-34.432,0h0l-2.893.966v3.529h3.093v-4.3c-.028-.029-.057-.056-.087-.084s-.078-.073-.114-.112ZM42,20.129a3.1,3.1,0,1,0,3.093,3.1A3.1,3.1,0,0,0,42,20.129ZM56.875,3.1l.275.548a17.779,17.779,0,0,1,1.863,7.9,11.072,11.072,0,0,1-.818,4.235A10.739,10.739,0,0,1,55.84,19.3l-.136.136a10.7,10.7,0,0,1-4.97,2.812l-2.582.645c0,.049.01.1.016.143a1.291,1.291,0,0,1,.018.186,6.009,6.009,0,0,1-.22,1.549h.869a11.147,11.147,0,0,0,10.571-7.628,22.459,22.459,0,0,0,1.153-7.113A25.234,25.234,0,0,1,61.532,3.1Zm-34.409,0a25.22,25.22,0,0,1,.972,6.936,22.492,22.492,0,0,0,1.152,7.113,11.149,11.149,0,0,0,10.572,7.628h.869a6.012,6.012,0,0,1-.22-1.549,1.289,1.289,0,0,1,.017-.183c.007-.048.014-.1.016-.147l-2.579-.643a10.749,10.749,0,0,1-4.978-2.821l-.123-.122a10.76,10.76,0,0,1-3.182-7.652,17.806,17.806,0,0,1,1.866-8.014l.275-.548ZM42,7.742c-8.051,0-12.333,3.559-13.8,5.09a7.679,7.679,0,0,0,2.147,4.283l.124.122a7.652,7.652,0,0,0,3.547,2.012l2.76.688a6.161,6.161,0,0,1,3.676-2.683V10.839h3.093v6.413a6.155,6.155,0,0,1,3.675,2.684l2.763-.689a7.629,7.629,0,0,0,3.54-2l.136-.135a7.641,7.641,0,0,0,2.146-4.272C54.356,11.3,50.106,7.742,42,7.742ZM62.108,89.807H59.014V82.065h3.094v7.741Zm-37.123,0H21.892V82.065h3.093v7.741ZM62.108,75.871H59.014V68.129h3.094V75.87Zm-37.123,0H21.892V68.129h3.093V75.87ZM42,51.1A6.2,6.2,0,0,1,35.813,44.9h3.093a3.093,3.093,0,1,0,6.187,0h3.094A6.2,6.2,0,0,1,42,51.1ZM49.734,38.71a1.548,1.548,0,1,1,1.546-1.549A1.55,1.55,0,0,1,49.734,38.71Zm-15.468,0a1.548,1.548,0,1,1,1.547-1.549A1.55,1.55,0,0,1,34.266,38.71Zm9.281-13.936H40.453v-3.1h3.093v3.1Z" fill="none"/><g clip-path="url(#a)"><path d="M79.123,96H4.877V75.871H0l1.153-8.078A7.7,7.7,0,0,1,7.6,61.241l10.092-1.595a20.794,20.794,0,0,1-9.3-5.935L7.357,52.619l2.556-2.558a30.381,30.381,0,0,0,7.978-14.106,30.437,30.437,0,0,0,.907-7.367V22.109l4.053-1.352a14.237,14.237,0,0,1-1.194-2.632,25.52,25.52,0,0,1-1.312-8.093,22.1,22.1,0,0,0-1.132-7L18.2,0H32.126l-2.51,5.031a14.6,14.6,0,0,0-1.222,3.6A23.2,23.2,0,0,1,42,4.645,23.193,23.193,0,0,1,55.6,8.626a14.452,14.452,0,0,0-1.217-3.595L51.873,0H65.8L64.789,3.039a22.044,22.044,0,0,0-1.135,6.994,25.512,25.512,0,0,1-1.312,8.093,14.293,14.293,0,0,1-1.194,2.632L65.2,22.109v6.478A30.388,30.388,0,0,0,74.086,50.06l2.555,2.558L75.6,53.71a20.744,20.744,0,0,1-9.313,5.932l10.108,1.6a7.7,7.7,0,0,1,6.45,6.551L84,75.871H79.123V96ZM68.295,89.807v3.1h7.735v-3.1ZM55.921,61.14V92.9H65.2v-30.3ZM31.172,89.807v3.1H52.827v-3.1ZM28.078,61.14,18.8,62.606V92.9h9.28ZM7.97,89.807v3.1H15.7v-3.1Zm60.324-6.194h0v3.1h7.735v-3.1Zm-37.122,0h0v3.1H52.827v-3.1Zm-23.2,0h0v3.1H15.7v-3.1Zm60.324-7.742v4.646h7.735V75.871ZM31.172,77.42v3.1H52.827v-3.1ZM7.97,75.871v4.646H15.7V75.871Zm23.2-4.645v3.1H52.827v-3.1ZM68.295,63.1v9.679H80.433l-.648-4.543a4.625,4.625,0,0,0-3.87-3.933ZM15.7,63.1,8.086,64.3a4.623,4.623,0,0,0-3.87,3.933l-.649,4.543H15.7Zm16.565-2.618-1.1.173v7.479H52.827V60.65l-1.1-.173a13.572,13.572,0,0,1-3.395,1.876A17.487,17.487,0,0,1,42,63.484a15.706,15.706,0,0,1-9.731-3.007Zm2-5.066v2.7A12.81,12.81,0,0,0,42,60.387a12.813,12.813,0,0,0,7.735-2.275v-2.7a16.855,16.855,0,0,1-15.468,0Zm21.655-5.392h0a17.142,17.142,0,0,1-3.093,3.366v4.129l3.093.49V50.019Zm-27.842,0V58l3.094-.49V53.385A17.209,17.209,0,0,1,28.078,50.019ZM18.8,51.1h3.093a9.05,9.05,0,0,1-2.174,5.865,17.214,17.214,0,0,0,3.537.365c.364,0,.736-.011,1.106-.033h.625v-9.3a31.687,31.687,0,0,1-8.457-1.239,33.593,33.593,0,0,1-4.427,5.5l-.391.393a17.922,17.922,0,0,0,4.756,3.247l.6-.6A5.975,5.975,0,0,0,18.8,51.1Zm48.675-4.345a31.582,31.582,0,0,1-8.459,1.238v9.3h.531c.385.023.771.035,1.148.035a17.458,17.458,0,0,0,3.587-.368A9.045,9.045,0,0,1,62.108,51.1H65.2a5.974,5.974,0,0,0,1.734,4.192l.6.595a17.9,17.9,0,0,0,4.757-3.243l-.39-.392A33.293,33.293,0,0,1,67.473,46.751ZM28.078,31.489v8.769a13.921,13.921,0,1,0,27.842,0V31.489A30.054,30.054,0,0,1,48.585,32.5L42,35.8,35.415,32.5A30.067,30.067,0,0,1,28.078,31.489ZM64.4,40.737a16.19,16.19,0,0,1-5.385,1.048v3.109a28.589,28.589,0,0,0,6.868-.9A33.387,33.387,0,0,1,64.4,40.737Zm-44.8,0a33.413,33.413,0,0,1-1.483,3.254,28.6,28.6,0,0,0,6.868.9V41.784A16.2,16.2,0,0,1,19.6,40.737Zm39.412-9.769v7.719a13.123,13.123,0,0,0,4.4-.894c-.036-.126-.074-.254-.111-.377-.069-.233-.141-.473-.2-.714a33.618,33.618,0,0,1-.906-5.735Zm-37.215,0a33.617,33.617,0,0,1-.906,5.735c-.06.242-.132.485-.2.72-.037.124-.073.247-.109.371a13.064,13.064,0,0,0,4.4.894V30.968Zm15.56-3.1v2.139L42,32.333l4.64-2.323V27.871h-.59a6.071,6.071,0,0,1-8.1,0Zm18.562-1.909a13.572,13.572,0,0,1-6.187,1.867v1.527a27.077,27.077,0,0,0,6.187-1.088Zm-27.842,0v2.3a27.009,27.009,0,0,0,6.187,1.09V27.83a13.6,13.6,0,0,1-6.187-1.867Zm31.138-2.586h0c-.034.036-.071.071-.107.1s-.065.061-.1.092v4.3h3.094V24.342l-2.892-.966Zm-34.432,0h0l-2.893.966v3.529h3.093v-4.3c-.028-.029-.057-.056-.087-.084s-.078-.073-.114-.112ZM42,20.129a3.1,3.1,0,1,0,3.093,3.1A3.1,3.1,0,0,0,42,20.129ZM56.875,3.1l.275.548a17.779,17.779,0,0,1,1.863,7.9,11.072,11.072,0,0,1-.818,4.235A10.739,10.739,0,0,1,55.84,19.3l-.136.136a10.7,10.7,0,0,1-4.97,2.812l-2.582.645c0,.049.01.1.016.143a1.291,1.291,0,0,1,.018.186,6.009,6.009,0,0,1-.22,1.549h.869a11.147,11.147,0,0,0,10.571-7.628,22.459,22.459,0,0,0,1.153-7.113A25.234,25.234,0,0,1,61.532,3.1Zm-34.409,0a25.22,25.22,0,0,1,.972,6.936,22.492,22.492,0,0,0,1.152,7.113,11.149,11.149,0,0,0,10.572,7.628h.869a6.012,6.012,0,0,1-.22-1.549,1.289,1.289,0,0,1,.017-.183c.007-.048.014-.1.016-.147l-2.579-.643a10.749,10.749,0,0,1-4.978-2.821l-.123-.122a10.76,10.76,0,0,1-3.182-7.652,17.806,17.806,0,0,1,1.866-8.014l.275-.548ZM42,7.742c-8.051,0-12.333,3.559-13.8,5.09a7.679,7.679,0,0,0,2.147,4.283l.124.122a7.652,7.652,0,0,0,3.547,2.012l2.76.688a6.161,6.161,0,0,1,3.676-2.683V10.839h3.093v6.413a6.155,6.155,0,0,1,3.675,2.684l2.763-.689a7.629,7.629,0,0,0,3.54-2l.136-.135a7.641,7.641,0,0,0,2.146-4.272C54.356,11.3,50.106,7.742,42,7.742ZM62.108,89.807H59.014V82.065h3.094v7.741Zm-37.123,0H21.892V82.065h3.093v7.741ZM62.108,75.871H59.014V68.129h3.094V75.87Zm-37.123,0H21.892V68.129h3.093V75.87ZM42,51.1A6.2,6.2,0,0,1,35.813,44.9h3.093a3.093,3.093,0,1,0,6.187,0h3.094A6.2,6.2,0,0,1,42,51.1ZM49.734,38.71a1.548,1.548,0,1,1,1.546-1.549A1.55,1.55,0,0,1,49.734,38.71Zm-15.468,0a1.548,1.548,0,1,1,1.547-1.549A1.55,1.55,0,0,1,34.266,38.71Zm9.281-13.936H40.453v-3.1h3.093v3.1Z" fill="url(#b)"/></g></svg>