<svg width="88" height="88" viewBox="0 0 88 88" fill="none" xmlns="http://www.w3.org/2000/svg">
<g clip-path="url(#clip0_1833_7613)">
<path d="M75.1364 34.5C72.797 36.1119 69.6183 39.0556 69.0792 39.5591C69.0276 39.6073 69 39.6733 69 39.7439C69 39.8853 69.1147 40 69.2561 40H86C86.5523 40 87 39.5523 87 39V30.2901C87 29.6367 86.3845 29.1605 85.7555 29.3378C85.0003 29.5507 84.0453 29.8345 83.3182 30.1C79.9238 31.3393 78.1347 32.434 75.1364 34.5Z" fill="#AB54FF"/>
<path d="M48.6713 30.2904C48.727 30.4916 48.8278 30.6774 48.966 30.8338C49.1043 30.9902 49.2764 31.113 49.4692 31.1929C49.662 31.2728 49.8705 31.3076 50.0789 31.2949C50.2872 31.2821 50.4899 31.222 50.6715 31.1191L56.5107 27.8301L53.339 33.4639C53.1896 33.6396 53.0868 33.85 53.0401 34.0759C52.9935 34.3017 53.0044 34.5357 53.072 34.7562C53.1396 34.9766 53.2616 35.1766 53.4269 35.3374C53.5921 35.4983 53.7951 35.615 54.0173 35.6768L58.487 36.9271C58.6066 36.9592 58.7298 36.9758 58.8537 36.9766C59.1865 36.9769 59.5081 36.8564 59.7588 36.6376C60.0096 36.4187 60.1724 36.1164 60.2172 35.7866C60.262 35.4568 60.1856 35.122 60.0023 34.8442C59.819 34.5664 59.5412 34.3646 59.2203 34.2761L56.4612 33.5061L61.3103 24.8894C61.4569 24.628 61.5141 24.3258 61.4731 24.0289C61.4321 23.732 61.2952 23.4566 61.0833 23.2446C60.8714 23.0327 60.596 22.8958 60.299 22.8548C60.0021 22.8138 59.6999 22.871 59.4385 23.0176L50.8475 27.8668L48.1928 18.3628C48.1122 18.0734 47.9391 17.8184 47.6999 17.6367C47.4607 17.455 47.1686 17.3567 46.8683 17.3567C46.5679 17.3567 46.2758 17.455 46.0366 17.6367C45.7974 17.8184 45.6243 18.0734 45.5437 18.3628L42.889 27.8668L34.2907 23.0268C34.0292 22.8802 33.7271 22.823 33.4301 22.864C33.1332 22.905 32.8578 23.0419 32.6459 23.2538C32.4339 23.4657 32.297 23.7411 32.2561 24.0381C32.2151 24.335 32.2722 24.6372 32.4188 24.8986L38.1205 35.0259C38.2997 35.3437 38.5977 35.5772 38.9491 35.6752C39.3005 35.7732 39.6764 35.7276 39.9942 35.5484C40.3119 35.3693 40.5455 35.0712 40.6435 34.7198C40.7415 34.3684 40.6958 33.9925 40.5167 33.6748L37.2295 27.8374L43.065 31.1246C43.2466 31.2275 43.4493 31.2876 43.6576 31.3004C43.866 31.3131 44.0745 31.2783 44.2673 31.1984C44.4601 31.1185 44.6322 30.9957 44.7705 30.8393C44.9087 30.6829 45.0095 30.4971 45.0652 30.2959L46.8673 23.8334L48.6713 30.2904Z" fill="black"/>
<path d="M86.625 60.4653H76.175C75.8103 60.4653 75.4606 60.6102 75.2027 60.8681C74.9449 61.1259 74.8 61.4757 74.8 61.8403C74.8 62.205 74.9449 62.5547 75.2027 62.8126C75.4606 63.0705 75.8103 63.2153 76.175 63.2153H86.625C86.9897 63.2153 87.3394 63.0705 87.5973 62.8126C87.8551 62.5547 88 62.205 88 61.8403C88 61.4757 87.8551 61.1259 87.5973 60.8681C87.3394 60.6102 86.9897 60.4653 86.625 60.4653Z" fill="black"/>
<path d="M64.625 52.9834C62.8794 52.9848 61.1735 53.5037 59.7226 54.4743C58.2718 55.445 57.1413 56.8239 56.4739 58.4369C55.8065 60.0498 55.6321 61.8244 55.9729 63.5364C56.3136 65.2484 57.1542 66.8209 58.3884 68.0554C59.6226 69.2898 61.195 70.1307 62.9069 70.4718C64.6188 70.813 66.3934 70.639 68.0065 69.9719C69.6196 69.3048 70.9988 68.1746 71.9697 66.724C72.9407 65.2733 73.4599 63.5675 73.4617 61.8219V61.8036C73.4568 59.4629 72.5237 57.2198 70.8671 55.5663C69.2105 53.9128 66.9656 52.9839 64.625 52.9834ZM70.7117 61.8164C70.71 63.4277 70.0685 64.9724 68.9282 66.1108C67.7879 67.2493 66.2423 67.8883 64.631 67.8875C63.0197 67.8866 61.4747 67.246 60.3356 66.1063C59.1965 64.9666 58.5567 63.4213 58.5567 61.81C58.5567 60.1987 59.1965 58.6533 60.3356 57.5137C61.4747 56.374 63.0197 55.7333 64.631 55.7325C66.2423 55.7316 67.7879 56.3707 68.9282 57.5091C70.0685 58.6476 70.71 60.1923 70.7117 61.8036H72.0867L70.7117 61.8164Z" fill="black"/>
<path d="M64.6268 57.3303C63.7392 57.3307 62.8716 57.5943 62.1337 58.0877C61.3959 58.5812 60.8209 59.2823 60.4816 60.1025C60.1422 60.9227 60.0537 61.8252 60.2273 62.6957C60.4008 63.5662 60.8286 64.3657 61.4565 64.9931C62.0844 65.6205 62.8842 66.0476 63.7549 66.2204C64.6256 66.3933 65.5279 66.304 66.3478 65.964C67.1678 65.624 67.8685 65.0484 68.3613 64.3102C68.8542 63.5719 69.117 62.7041 69.1167 61.8165C69.1164 61.2271 69.0001 60.6436 68.7743 60.0991C68.5486 59.5547 68.2178 59.0601 67.8009 58.6435C67.384 58.227 66.8891 57.8966 66.3445 57.6713C65.7999 57.4459 65.2162 57.3301 64.6268 57.3303ZM64.6268 63.5545C64.2829 63.5556 63.9463 63.4546 63.6598 63.2643C63.3732 63.074 63.1496 62.8029 63.0172 62.4854C62.8848 62.1679 62.8496 61.8183 62.9161 61.4808C62.9825 61.1433 63.1476 60.8331 63.3904 60.5895C63.6333 60.3459 63.9429 60.1798 64.2802 60.1123C64.6175 60.0448 64.9673 60.0789 65.2852 60.2103C65.6031 60.3416 65.8748 60.5644 66.066 60.8503C66.2573 61.1363 66.3593 61.4725 66.3593 61.8165C66.3598 62.2766 66.1776 62.7181 65.8528 63.044C65.5279 63.3699 65.087 63.5535 64.6268 63.5545Z" fill="black"/>
<path d="M36.1405 43.5473C36.1405 42.8965 36.1405 41.9156 36.1038 40.8193C36.5946 39.7428 36.7158 38.5343 36.4485 37.3818C36.3418 36.6601 36.0838 35.9691 35.6913 35.3541C34.5487 30.4967 31.6258 26.2444 27.5 23.4375C25.0213 21.7141 19.4132 19.7268 6.76683 19.9541H6.53767C4.73512 19.9457 2.93453 20.0738 1.15133 20.3373C0.80082 20.4079 0.491598 20.6123 0.289246 20.9071C0.0868944 21.2018 0.00732913 21.5639 0.0674249 21.9163C0.127521 22.2688 0.322551 22.584 0.611152 22.7951C0.899753 23.0061 1.25923 23.0965 1.61333 23.047C3.25279 22.8124 4.90719 22.6978 6.56333 22.7041H6.83283C19.8385 22.4603 24.519 24.7208 25.9362 25.7053C28.9966 27.7896 31.314 30.794 32.5527 34.2835C29.9695 34.982 28.4882 36.4321 28.4882 38.3388C28.5138 38.9551 28.7218 39.5499 29.0856 40.0479C29.4495 40.5459 29.953 40.9247 30.5323 41.1365C31.4366 41.5318 32.3962 41.786 33.3777 41.89C33.4015 43.3181 33.3777 44.3631 33.3777 44.4438C33.3798 44.7343 33.473 45.0167 33.644 45.2515C33.815 45.4863 34.0552 45.6616 34.331 45.7528C35.1361 46.0369 35.8516 46.5292 36.4046 47.1798C36.9575 47.8303 37.3282 48.6157 37.4788 49.4561C37.8816 52.1274 37.6709 54.8552 36.8628 57.433C36.7721 57.5892 36.713 57.7617 36.689 57.9408C36.665 58.1198 36.6766 58.3018 36.7231 58.4764C36.7696 58.651 36.8501 58.8147 36.96 58.9581C37.0698 59.1015 37.2069 59.2218 37.3633 59.3121C37.5721 59.4334 37.8094 59.4967 38.0508 59.4955C38.292 59.496 38.529 59.4329 38.7379 59.3125C38.9468 59.1922 39.1203 59.0187 39.2407 58.8098C40.394 55.7004 40.7255 52.3461 40.2032 49.0711C40.0243 47.8901 39.5611 46.7702 38.8534 45.808C38.1456 44.8457 37.2146 44.0699 36.1405 43.5473ZM31.2382 38.3388C31.2382 37.6641 32.3583 37.1508 33.4547 36.8721C33.597 37.1601 33.69 37.47 33.7297 37.7888C33.8104 38.2443 33.8301 38.7086 33.7883 39.1693C33.0658 39.1026 32.3581 38.9232 31.691 38.6376C31.5178 38.5767 31.3623 38.4741 31.2382 38.3388Z" fill="black"/>
<path d="M15.0095 60.4617H1.375C1.01033 60.4617 0.660591 60.6065 0.402728 60.8644C0.144866 61.1223 0 61.472 0 61.8367C0 62.2013 0.144866 62.5511 0.402728 62.8089C0.660591 63.0668 1.01033 63.2117 1.375 63.2117H15.0095C15.3742 63.2117 15.7239 63.0668 15.9818 62.8089C16.2396 62.5511 16.3845 62.2013 16.3845 61.8367C16.3845 61.472 16.2396 61.1223 15.9818 60.8644C15.7239 60.6065 15.3742 60.4617 15.0095 60.4617Z" fill="black"/>
<path d="M35.6638 60.0033C35.2037 57.7747 33.9053 55.8078 32.0367 54.509C30.168 53.2102 27.872 52.6786 25.6227 53.024C23.3734 53.3695 21.3427 54.5655 19.9499 56.3652C18.5571 58.1649 17.9087 60.4308 18.1386 62.6948C18.3684 64.9588 19.459 67.0481 21.185 68.5312C22.9111 70.0142 25.1407 70.7778 27.4136 70.6641C29.6864 70.5504 31.8288 69.5682 33.3982 67.9204C34.9677 66.2725 35.8443 64.0848 35.8472 61.8092C35.8446 61.2149 35.7875 60.6221 35.6767 60.0382L35.6638 60.0033ZM27.0215 67.8977C25.4092 67.8977 23.8629 67.2572 22.7228 66.1171C21.5827 64.977 20.9422 63.4307 20.9422 61.8183C20.9422 60.206 21.5827 58.6597 22.7228 57.5196C23.8629 56.3795 25.4092 55.739 27.0215 55.739C27.3737 55.7395 27.7252 55.7707 28.072 55.8325C29.2622 56.0482 30.3621 56.6108 31.2333 57.4498C32.1046 58.2888 32.7084 59.3667 32.9688 60.5478C33.0473 60.9638 33.0884 61.3859 33.0917 61.8092C33.0922 63.4209 32.4534 64.9671 31.3154 66.1085C30.1775 67.2499 28.6332 67.8933 27.0215 67.8977Z" fill="black"/>
<path d="M27.016 57.3303C26.1281 57.3296 25.26 57.5922 24.5214 58.085C23.7828 58.5778 23.207 59.2786 22.8668 60.0987C22.5266 60.9188 22.4374 61.8214 22.6103 62.6923C22.7832 63.5632 23.2105 64.3632 23.8382 64.9912C24.4659 65.6191 25.2657 66.0468 26.1365 66.22C27.0073 66.3933 27.91 66.3044 28.7302 65.9645C29.5505 65.6247 30.2515 65.0491 30.7446 64.3108C31.2377 63.5724 31.5007 62.7044 31.5003 61.8165C31.4998 60.6271 31.0273 59.4866 30.1865 58.6455C29.3457 57.8043 28.2053 57.3313 27.016 57.3303ZM27.016 63.5545C26.6721 63.5552 26.3357 63.4539 26.0494 63.2634C25.7631 63.0728 25.5398 62.8017 25.4077 62.4841C25.2756 62.1666 25.2406 61.8171 25.3073 61.4797C25.3739 61.1423 25.5392 60.8323 25.7821 60.5888C26.025 60.3454 26.3347 60.1795 26.6719 60.1122C27.0092 60.0448 27.3588 60.079 27.6766 60.2104C27.9944 60.3419 28.266 60.5646 28.4572 60.8505C28.6483 61.1364 28.7503 61.4726 28.7503 61.8165C28.7503 62.2768 28.5677 62.7183 28.2426 63.0441C27.9174 63.37 27.4763 63.5535 27.016 63.5545Z" fill="black"/>
<path d="M86.625 39.2188H65.3198C67.8139 36.8767 70.4696 34.7129 73.2673 32.7435L73.7605 32.408C77.8909 29.4032 82.3884 26.9388 87.1438 25.0747C87.4777 24.9361 87.7435 24.6717 87.8839 24.3387C88.0243 24.0056 88.0278 23.6307 87.8939 23.295C87.7599 22.9593 87.4991 22.6899 87.168 22.545C86.8368 22.4001 86.462 22.3914 86.1245 22.5208C81.187 24.4618 76.5142 27.0181 72.2168 30.1292L71.7273 30.4647C68.3752 32.8381 65.2084 35.463 62.2545 38.3168L61.754 38.8045C60.654 39.2482 56.32 41.0045 54.2043 42.0569C51.8679 43.0866 49.8232 44.6796 48.2533 46.6933C47.1407 48.2132 46.5074 50.0307 46.4347 51.9128C46.5663 54.1926 46.8406 56.4618 47.256 58.7072C47.6632 59.9867 48.4584 61.1078 49.5312 61.9152C50.604 62.7226 51.9015 63.1763 53.2437 63.2135H53.2895C53.6542 63.2116 54.0031 63.0648 54.2596 62.8056C54.5161 62.5464 54.6591 62.1959 54.6572 61.8312C54.6552 61.4665 54.5085 61.1175 54.2493 60.8611C53.99 60.6046 53.6395 60.4616 53.2748 60.4635H53.24C52.5246 60.4218 51.8354 60.1791 51.2517 59.7634C50.6679 59.3476 50.2133 58.7757 49.94 58.1132C49.5697 56.0662 49.3169 53.9997 49.1828 51.9239C49.1954 51.7596 49.2175 51.5961 49.2488 51.4343C49.302 51.4343 49.3423 51.4527 49.3973 51.4527H49.511C51.4988 51.3133 53.3582 50.4194 54.7085 48.9538C55.4141 48.3541 55.9534 47.5829 56.2745 46.7143C56.5956 45.8457 56.6877 44.9091 56.5418 43.9947C58.0085 43.3255 59.9243 42.528 61.2975 41.9597H86.625C86.9897 41.9597 87.3394 41.8148 87.5973 41.557C87.8551 41.2991 88 40.9494 88 40.5847C88 40.22 87.8551 39.8703 87.5973 39.6124C87.3394 39.3545 86.9897 39.2097 86.625 39.2097V39.2188ZM50.325 48.545C50.3763 48.468 50.4442 48.3617 50.479 48.3103C51.3807 47.1218 52.51 46.1247 53.801 45.377C53.577 46.008 53.2106 46.5789 52.7303 47.0453C52.0703 47.7405 51.2446 48.2565 50.3305 48.545H50.325Z" fill="black"/>
<path d="M1.375 42.0294H8.34167C9.44075 42.0274 10.4942 41.5898 11.2712 40.8125C12.0482 40.0352 12.4854 38.9815 12.4868 37.8824V26.3452C12.4868 25.9805 12.342 25.6308 12.0841 25.3729C11.8262 25.1151 11.4765 24.9702 11.1118 24.9702C10.7472 24.9702 10.3974 25.1151 10.1396 25.3729C9.8817 25.6308 9.73683 25.9805 9.73683 26.3452V37.8824C9.73683 38.2526 9.5899 38.6076 9.32831 38.8696C9.06672 39.1315 8.71186 39.2789 8.34167 39.2794H1.375C1.01033 39.2794 0.660591 39.4242 0.402728 39.6821C0.144866 39.94 0 40.2897 0 40.6544C0 41.0191 0.144866 41.3688 0.402728 41.6267C0.660591 41.8845 1.01033 42.0294 1.375 42.0294Z" fill="black"/>
</g>
<defs>
<clipPath id="clip0_1833_7613">
<rect width="88" height="88" fill="white"/>
</clipPath>
</defs>
</svg>
