<svg width="88" height="88" viewBox="0 0 88 88" fill="none" xmlns="http://www.w3.org/2000/svg">
<g clip-path="url(#clip0_1833_7605)">
<path d="M21.8625 41.8L14.85 40.2875C12.925 39.875 11.1375 41.3875 11.1375 43.3125V46.2C11.1375 48.5375 12.925 49.0875 15.125 49.0875H22.825C24.3375 49.0875 25.85 48.8125 25.85 47.1625V46.75C25.85 44.275 24.2 42.2125 21.8625 41.8ZM13.75 46.2C13.75 46.0625 13.75 46.0625 13.75 43.175C13.75 42.9 14.025 42.625 14.3 42.7625L21.3125 44.275C22.275 44.55 22.9625 45.375 23.1 46.3375C18.2875 46.3375 14.1625 46.3375 13.75 46.2Z" fill="black"/>
<path d="M84.2875 27.0874L74.3875 22.4124C71.0875 20.8999 67.5125 20.3499 64.075 21.0374L62.5625 18.0124C61.4625 15.2624 58.85 13.3374 55.825 13.3374H23.65C20.625 13.3374 18.0125 15.1249 16.9125 17.8749L11.55 29.0124C10.3125 27.2249 8.25 26.1249 6.05 26.1249H3.7125C1.65 26.1249 0 27.7749 0 29.8374V31.3499C0 33.4124 1.65 35.0624 3.7125 35.0624H7.2875C5.775 36.9874 5.0875 39.4624 5.0875 41.9374V50.1874C5.0875 53.3499 6.1875 56.3749 8.3875 58.9874V65.1749C8.3875 67.9249 10.5875 70.1249 13.3375 70.1249H18.425C21.175 70.1249 23.375 67.9249 23.375 65.1749V62.6999H50.875C56.925 70.9499 66.4125 74.5249 66.55 74.5249C66.825 74.6624 67.1 74.6624 67.5125 74.5249C67.65 74.3874 88 66.9624 88 48.3999V32.9999C88 30.5249 86.4875 28.1874 84.2875 27.0874ZM19.3875 18.9749C20.075 17.1874 21.725 16.0874 23.65 16.0874H55.825C57.75 16.0874 59.4 17.1874 60.225 19.1124L61.4625 21.7249C60.9125 21.8624 60.3625 22.1374 59.8125 22.4124L49.9125 27.0874C47.7125 28.1874 46.2 30.3874 46.2 32.8624H12.5125C13.0625 32.0374 12.5125 33.4124 19.3875 18.9749ZM2.75 31.3499V29.8374C2.75 29.2874 3.1625 28.8749 3.7125 28.8749H6.05C8.8 28.8749 9.7625 31.3499 10.0375 31.7624C9.9 32.0374 9.7625 32.1749 9.4875 32.4499H3.7125C3.1625 32.3124 2.75 31.8999 2.75 31.3499ZM20.625 65.0374C20.625 66.2749 19.6625 67.2374 18.425 67.2374H13.2C11.9625 67.3749 11 66.2749 11 65.0374V61.0499C12.65 62.0124 14.575 62.5624 16.5 62.5624H20.625V65.0374ZM16.3625 59.9499C11.4125 59.9499 7.5625 55.1374 7.5625 50.0499V41.7999C7.5625 39.4624 8.525 37.2624 10.175 35.4749H46.2V47.5749H31.075C30.3875 47.5749 29.7 48.1249 29.7 48.9499C29.7 49.7749 30.25 50.3249 31.075 50.3249H46.3375C46.475 51.2874 46.475 52.1124 46.75 52.9374H31.075C30.3875 52.9374 29.7 53.4874 29.7 54.3124C29.7 55.1374 30.25 55.6874 31.075 55.6874H47.3C47.85 57.1999 48.4 58.7124 49.225 59.9499H16.3625ZM85.25 48.3999C85.25 63.6624 69.85 70.6749 67.1 71.7749C57.2 67.7874 48.95 59.2624 48.95 48.3999C48.95 43.3124 48.95 40.5624 48.95 32.9999C48.95 31.4874 49.775 30.2499 51.15 29.5624L61.05 24.8874C65.0375 22.9624 69.4375 22.9624 73.425 24.8874L83.325 29.5624C84.5625 30.2499 85.525 31.4874 85.525 32.9999V48.3999H85.25Z" fill="black"/>
<path d="M72.5427 32.3248L72.5426 32.325L72.5538 32.3303L80.169 35.9441C80.3834 36.098 80.5 36.2986 80.5 36.5642V41.5787L80.2489 40.6648L79.2792 37.1346L78.2971 37.267V48.8639C78.2971 55.8655 72.8009 59.1345 69.4994 60.9314C69.1533 60.7487 68.8992 60.6352 68.7373 60.5928L68.736 60.5925C68.6988 60.5827 68.5827 60.5522 68.4525 60.5761C68.3804 60.5893 68.215 60.6362 68.1062 60.8082C67.9936 60.9864 68.0266 61.1628 68.0522 61.2425C68.0947 61.3751 68.1828 61.4638 68.2072 61.4884L68.209 61.4902C68.25 61.5316 68.2963 61.5703 68.3404 61.6044C68.6734 61.8618 69.4602 62.2947 70.3613 62.5515C70.9243 62.7119 71.586 62.819 72.2328 62.7365C71.1406 63.4779 70.126 64.0452 69.3307 64.4485C69.108 64.5172 68.8919 64.5172 68.6693 64.4485C65.1867 62.6825 57.5 57.7727 57.5 48.8639V36.5642C57.5 36.3648 57.6492 36.151 57.9467 35.9439L65.4489 32.329L65.449 32.3291L65.4573 32.3248C67.6344 31.2251 70.3656 31.2251 72.5427 32.3248ZM79.7888 41.3604L80.5 41.6957V48.8639C80.5 50.4386 80.2598 51.8884 79.8452 53.2179V45.333C80.3028 44.9722 80.4146 44.4111 80.4 43.9153C80.3829 43.336 80.1965 42.6906 80.0337 42.1643C80.0076 42.0799 79.9821 41.9989 79.9577 41.921C79.9021 41.7437 79.8514 41.5823 79.8087 41.4318C79.8016 41.4071 79.795 41.3833 79.7888 41.3604ZM74.8638 58.9061L79.264 54.7651C78.1163 57.3655 76.3105 59.44 74.4619 61.033C74.7043 60.4721 74.8438 59.7676 74.8638 58.9061ZM68.4839 61.5602C68.4852 61.5605 68.4866 61.5609 68.488 61.5613C68.4763 61.559 68.474 61.5575 68.4839 61.5602ZM70.4696 61.5398C71.4721 60.9833 72.6616 60.2777 73.8374 59.3687C73.7218 60.6477 73.2768 61.2406 72.8141 61.5132C72.2382 61.8525 71.4405 61.8192 70.6354 61.5898C70.5795 61.5738 70.5242 61.5571 70.4696 61.5398ZM78.8452 53.7861L77.924 54.653C78.2985 53.9349 78.6124 53.1566 78.8452 52.3125V53.7861ZM79.4004 43.9448C79.408 44.203 79.3686 44.3636 79.2971 44.4675V43.2449C79.3553 43.4959 79.3941 43.7325 79.4004 43.9448ZM79.7116 40.9349C79.7119 40.9353 79.7119 40.9405 79.7105 40.9491C79.7107 40.9388 79.7113 40.9345 79.7116 40.9349ZM79.4022 41.1923C79.4008 41.1921 79.4 41.192 79.4 41.192L79.4022 41.1923Z" fill="#AB54FF" stroke="#AB54FF"/>
<path d="M80.575 32.7249L71.5 28.4624C68.75 27.0874 65.3125 27.0874 62.5625 28.4624L53.625 32.7249C53.2125 32.9999 52.8 33.4124 52.8 33.9624V48.3999C52.8 59.2624 62.2875 65.1749 66.4125 67.2374C66.825 67.3749 67.2375 67.3749 67.65 67.2374C71.775 65.1749 81.2625 59.2624 81.2625 48.3999V33.9624C81.2625 33.4124 80.9875 32.9999 80.575 32.7249ZM78.65 48.3999C78.65 57.1999 70.95 62.4249 67.1 64.4874C62.5625 62.0124 55.55 57.0624 55.55 48.3999V34.7874L63.8 30.7999C65.8625 29.8374 68.3375 29.8374 70.4 30.7999L78.65 34.7874V48.3999Z" fill="black"/>
<path d="M61.7375 47.9874C61.1875 47.5749 60.3625 47.7124 59.8125 48.2624C59.2625 48.8124 59.5375 49.6374 60.0875 50.1874L65.3125 54.1749C65.8625 54.5874 66.6875 54.4499 67.2375 53.8999L74.9375 43.8624C75.35 43.3124 75.2125 42.4874 74.6625 41.9374C74.1125 41.5249 73.2875 41.6624 72.7375 42.2124L65.8625 51.1499L61.7375 47.9874Z" fill="black"/>
</g>
<defs>
<clipPath id="clip0_1833_7605">
<rect width="88" height="88" fill="white"/>
</clipPath>
</defs>
</svg>
