<svg width="88" height="88" viewBox="0 0 88 88" fill="none" xmlns="http://www.w3.org/2000/svg">
<path d="M23.375 85.25H20.625C18.3507 85.25 16.5 83.3993 16.5 81.125V75.625C16.5 74.866 17.116 74.25 17.875 74.25C18.634 74.25 19.25 74.866 19.25 75.625V81.125C19.25 81.8812 19.866 82.5 20.625 82.5H23.375C24.134 82.5 24.75 81.8812 24.75 81.125V75.625C24.75 74.866 25.366 74.25 26.125 74.25C26.884 74.25 27.5 74.866 27.5 75.625V81.125C27.5 83.3993 25.6493 85.25 23.375 85.25Z" fill="black"/>
<path d="M70.125 85.25H67.375C65.1007 85.25 63.25 83.3993 63.25 81.125V75.625C63.25 74.866 63.866 74.25 64.625 74.25C65.384 74.25 66 74.866 66 75.625V81.125C66 81.8812 66.616 82.5 67.375 82.5H70.125C70.884 82.5 71.5 81.8812 71.5 81.125V75.625C71.5 74.866 72.116 74.25 72.875 74.25C73.634 74.25 74.25 74.866 74.25 75.625V81.125C74.25 83.3993 72.3993 85.25 70.125 85.25Z" fill="black"/>
<path d="M22.1595 57.497L26.5595 44.2915C26.8813 43.3318 28.0528 42.35 29.0208 42.2318C31.9715 41.866 38.0215 41.25 45.375 41.25C52.7285 41.25 58.7785 41.866 61.732 42.2318C62.7 42.35 63.8715 43.3318 64.1933 44.2915L68.5933 57.497C69.839 57.7995 70.9418 58.1818 71.8795 58.6658L66.8003 43.4225C66.1485 41.47 64.0695 39.7512 62.0703 39.5037C59.0535 39.1297 52.877 38.5 45.375 38.5C37.873 38.5 31.6965 39.1297 28.6825 39.5037C26.6805 39.7512 24.6015 41.47 23.9498 43.4225L18.8705 58.6658C19.811 58.1818 20.911 57.8023 22.1595 57.497Z" fill="black"/>
<path d="M75.625 77H15.125C14.366 77 13.75 76.384 13.75 75.625C13.75 74.866 14.366 74.25 15.125 74.25H75.625C76.384 74.25 77 74.866 77 75.625C77 76.384 76.384 77 75.625 77Z" fill="black"/>
<path d="M15.125 70.125C14.366 70.125 13.75 69.509 13.75 68.75V64.625C13.75 56.452 22.0357 55 45.375 55C68.7143 55 77 56.452 77 64.625V67.892C77 68.651 76.384 69.267 75.625 69.267C74.866 69.267 74.25 68.651 74.25 67.892V64.625C74.25 59.7768 70.2378 57.75 45.375 57.75C22.7067 57.75 16.5 59.2267 16.5 64.625V68.75C16.5 69.509 15.884 70.125 15.125 70.125Z" fill="black"/>
<path d="M75.625 71.5H64.625C63.866 71.5 63.25 70.884 63.25 70.125V67.375C63.25 65.1007 65.1007 63.25 67.375 63.25H75.625C76.384 63.25 77 63.866 77 64.625V70.125C77 70.884 76.384 71.5 75.625 71.5ZM66 68.75H74.25V66H67.375C66.616 66 66 66.6188 66 67.375V68.75Z" fill="black"/>
<path d="M26.125 71.5H15.125C14.366 71.5 13.75 70.884 13.75 70.125V64.625C13.75 63.866 14.366 63.25 15.125 63.25H23.375C25.6493 63.25 27.5 65.1007 27.5 67.375V70.125C27.5 70.884 26.884 71.5 26.125 71.5ZM16.5 68.75H24.75V67.375C24.75 66.6188 24.134 66 23.375 66H16.5V68.75Z" fill="black"/>
<path d="M59.125 71.5C58.366 71.5 57.75 70.884 57.75 70.125C57.75 67.8507 55.8993 66 53.625 66H37.125C34.8507 66 33 67.8507 33 70.125C33 70.884 32.384 71.5 31.625 71.5C30.866 71.5 30.25 70.884 30.25 70.125C30.25 66.3328 33.3355 63.25 37.125 63.25H53.625C57.4145 63.25 60.5 66.3328 60.5 70.125C60.5 70.884 59.884 71.5 59.125 71.5Z" fill="black"/>
<path d="M64.625 35.75C64.3418 35.75 64.064 35.6647 63.8248 35.4942C63.7533 35.442 56.331 30.25 45.375 30.25C34.419 30.25 26.9968 35.442 26.9253 35.4942C26.5018 35.7912 25.949 35.8325 25.4898 35.5905C25.0305 35.3512 24.7445 34.8783 24.75 34.3585C24.7555 33.8113 24.9645 20.8258 30.5553 11.6545C30.9513 11.0027 31.7955 10.7965 32.4473 11.1953C33.0935 11.5913 33.3025 12.4355 32.9038 13.0845C29.1115 19.3105 27.9785 27.7172 27.6403 31.8643C30.8358 30.1593 37.1333 27.5 45.375 27.5C53.6113 27.5 59.9088 30.1565 63.1043 31.8615C62.5185 24.816 59.6145 5.5 45.375 5.5C44.616 5.5 44 4.884 44 4.125C44 3.366 44.616 2.75 45.375 2.75C65.4088 2.75 65.9835 33.0688 66 34.3585C66.0055 34.8755 65.7195 35.3512 65.2603 35.5905C65.0595 35.695 64.8423 35.75 64.625 35.75Z" fill="black"/>
<path d="M26.125 35.75C25.8308 35.75 25.5365 35.6565 25.289 35.4668C21.45 32.538 17.501 30.987 13.8655 30.987C10.934 30.987 8.86051 31.9578 7.63676 32.7663C7.17476 33.0715 6.57526 33.0743 6.11601 32.769C5.65401 32.4638 5.42026 31.911 5.52201 31.3665C9.05576 12.5813 28.2453 2.75 45.375 2.75C62.5048 2.75 81.6943 12.5813 85.2253 31.3693C85.327 31.9138 85.0933 32.4638 84.6313 32.7718C84.172 33.077 83.5725 33.0743 83.1105 32.769C81.8895 31.9578 79.816 30.9898 76.8818 30.9898C73.2463 30.9898 69.2945 32.538 65.4583 35.4695C64.9825 35.838 64.317 35.8463 63.822 35.497C63.7533 35.442 56.331 30.25 45.375 30.25C34.3695 30.25 26.9995 35.442 26.9253 35.4915C26.686 35.6648 26.4055 35.75 26.125 35.75ZM45.375 27.5C55.1678 27.5 62.2133 31.251 64.5728 32.703C68.695 29.7413 72.8338 28.2398 76.8845 28.2398C78.8425 28.2398 80.5008 28.5973 81.8538 29.0868C77.2943 13.585 60.489 5.5 45.375 5.5C30.261 5.5 13.4558 13.585 8.89626 29.084C10.2465 28.5945 11.9075 28.237 13.8655 28.237C17.9163 28.237 22.055 29.7385 26.1773 32.7003C28.5368 31.251 35.5823 27.5 45.375 27.5Z" fill="black"/>
<path d="M45.375 35.75C44.616 35.75 44 35.134 44 34.375V30.25C44 29.491 44.616 28.875 45.375 28.875C46.134 28.875 46.75 29.491 46.75 30.25V34.375C46.75 35.134 46.134 35.75 45.375 35.75Z" fill="black"/>
<path d="M75.625 55H72.875C72.116 55 71.5 54.384 71.5 53.625C71.5 52.866 72.116 52.25 72.875 52.25H75.625C76.384 52.25 77 52.866 77 53.625C77 54.384 76.384 55 75.625 55Z" fill="black"/>
<path d="M17.875 55H15.125C14.366 55 13.75 54.384 13.75 53.625C13.75 52.866 14.366 52.25 15.125 52.25H17.875C18.634 52.25 19.25 52.866 19.25 53.625C19.25 54.384 18.634 55 17.875 55Z" fill="black"/>
<rect x="17" y="66" width="7" height="2" rx="1" fill="#AB54FF"/>
<rect x="67" y="66" width="7" height="2" rx="1" fill="#AB54FF"/>
</svg>
