<svg width="74" height="74" viewBox="0 0 74 74" fill="none" xmlns="http://www.w3.org/2000/svg">
<rect x="37.9307" y="11.793" width="26.4828" height="9.10345" rx="1" fill="#7231E5"/>
<path d="M54.2197 65.6641L56.3642 50.7135L58.4786 51.0168L56.3341 65.9673L54.2197 65.6641Z" fill="black"/>
<path d="M58.7734 55.8762L61.222 58.3247L58.7734 60.7733L60.2834 62.2833L64.2419 58.3247L60.2834 54.3662L58.7734 55.8762Z" fill="black"/>
<path d="M52.3658 54.3662L48.4072 58.3247L52.3658 62.2833L53.8757 60.7733L51.4271 58.3247L53.8757 55.8762L52.3658 54.3662Z" fill="black"/>
<path d="M67.9473 54.6738C67.6248 54.5681 67.3728 54.3364 67.2575 54.0395C67.203 53.8985 67.1464 53.7587 67.0856 53.6198C66.9595 53.3283 66.9745 52.9887 67.1261 52.6876C67.7679 51.419 67.5234 49.8898 66.5175 48.885L65.9355 48.303V9.20356C65.9355 7.43733 64.4981 6 62.7319 6H7.20356C5.43733 6 4 7.43733 4 9.20356V54.0534C4 55.8196 5.43733 57.257 7.20356 57.257H42.4876C42.4587 57.4321 42.4427 57.6115 42.4427 57.793V58.8566C42.4427 60.2779 43.3504 61.5316 44.7023 61.9758C45.0248 62.0815 45.2768 62.3132 45.3921 62.6101C45.4466 62.7511 45.5032 62.8909 45.564 63.0298C45.6901 63.3213 45.6751 63.6609 45.5235 63.962C44.8817 65.2306 45.1262 66.7598 46.1321 67.7646L46.8839 68.5175C47.8888 69.5234 49.4169 69.7668 50.6865 69.1261C50.9877 68.9734 51.3273 68.9585 51.6198 69.0856C51.7576 69.1454 51.8975 69.203 52.0363 69.2575C52.3353 69.3728 52.567 69.6259 52.6727 69.9495C53.118 71.2992 54.3717 72.2069 55.793 72.2069H56.8566C58.2779 72.2069 59.5316 71.2992 59.9758 69.9473C60.0815 69.6248 60.3132 69.3728 60.6101 69.2575C60.7511 69.203 60.8909 69.1464 61.0298 69.0856C61.3202 68.9585 61.6609 68.9734 61.962 69.1261C63.2306 69.7668 64.7598 69.5234 65.7646 68.5175L66.5175 67.7657C67.5234 66.7608 67.7679 65.2317 67.1261 63.9631C66.9734 63.6619 66.9595 63.3224 67.0856 63.0298C67.1454 62.892 67.203 62.7521 67.2575 62.6133C67.3728 62.3143 67.6259 62.0826 67.9495 61.9769C69.2992 61.5316 70.2069 60.2779 70.2069 58.8566V57.793C70.2069 56.3717 69.2992 55.118 67.9473 54.6738ZM6.13571 9.20356C6.13571 8.61517 6.61517 8.13571 7.20356 8.13571H62.7319C63.3203 8.13571 63.7998 8.61517 63.7998 9.20356V18.8142H6.13571V9.20356ZM7.20356 55.1212C6.61517 55.1212 6.13571 54.6418 6.13571 54.0534V20.9499H63.7998V47.1967C63.1826 47.1294 62.5461 47.2287 61.962 47.5235C61.6619 47.6762 61.3224 47.6901 61.0287 47.564C60.892 47.5042 60.7521 47.4477 60.6122 47.3921C60.3143 47.2768 60.0815 47.0237 59.9758 46.7001C59.5316 45.3504 58.2779 44.4427 56.8566 44.4427H55.793C54.3717 44.4427 53.118 45.3504 52.6738 46.7023C52.5681 47.0248 52.3364 47.2768 52.0374 47.3921C51.8975 47.4466 51.7587 47.5032 51.6198 47.564C51.3283 47.6901 50.9887 47.6762 50.6876 47.5235C49.4179 46.8817 47.8898 47.1262 46.885 48.1321L46.1332 48.8839C45.1273 49.8888 44.8828 51.4179 45.5245 52.6865C45.6772 52.9877 45.6911 53.3273 45.5651 53.6198C45.5053 53.7576 45.4477 53.8975 45.3932 54.0363C45.2779 54.3353 45.0248 54.567 44.7012 54.6727C44.3809 54.7785 44.0872 54.9322 43.8234 55.1202H7.20356V55.1212ZM68.0712 58.8566C68.0712 59.3531 67.754 59.791 67.281 59.9469C66.3498 60.2523 65.6151 60.9421 65.267 61.8391C65.2222 61.9534 65.1752 62.0676 65.1271 62.1787C64.747 63.0543 64.7801 64.0549 65.22 64.9252C65.4443 65.3684 65.3588 65.9023 65.0075 66.2536L64.2547 67.0064C63.9023 67.3588 63.3684 67.4432 62.9263 67.2189C62.057 66.779 61.0543 66.747 60.1808 67.126C60.0687 67.1741 59.9544 67.2211 59.838 67.267C58.9421 67.6151 58.2533 68.3498 57.9469 69.282C57.792 69.754 57.3531 70.0712 56.8566 70.0712H55.793C55.2965 70.0712 54.8586 69.754 54.7027 69.281C54.3973 68.3498 53.7075 67.6151 52.8105 67.267C52.6962 67.2222 52.582 67.1752 52.4709 67.1271C52.0673 66.9509 51.6369 66.8634 51.2044 66.8634C50.6994 66.8634 50.1932 66.983 49.7244 67.2189C49.2802 67.4432 48.7473 67.3578 48.396 67.0064L47.6432 66.2536C47.2918 65.9023 47.2064 65.3684 47.4307 64.9252C47.8706 64.0549 47.9037 63.0543 47.5236 62.1798C47.4755 62.0676 47.4285 61.9534 47.3826 61.837C47.0345 60.941 46.2998 60.2523 45.3676 59.9458C44.8956 59.792 44.5784 59.3531 44.5784 58.8566V57.793C44.5784 57.2965 44.8956 56.8586 45.3676 56.7027C46.2998 56.3973 47.0345 55.7075 47.3826 54.8105C47.4274 54.6962 47.4744 54.582 47.5225 54.4709C47.9026 53.5953 47.8695 52.5947 47.4296 51.7244C47.2053 51.2812 47.2908 50.7463 47.6421 50.3949L48.3939 49.6432C48.7452 49.2908 49.2791 49.2053 49.7233 49.4307C50.5936 49.8706 51.5953 49.9037 52.4688 49.5236C52.582 49.4744 52.6962 49.4274 52.8105 49.3837C53.7064 49.0345 54.3963 48.2998 54.7027 47.3686C54.8576 46.8956 55.2965 46.5784 55.793 46.5784H56.8566C57.3531 46.5784 57.791 46.8956 57.9469 47.3686C58.2533 48.2998 58.9421 49.0345 59.838 49.3826C59.9523 49.4274 60.0666 49.4744 60.1787 49.5225C61.0522 49.9026 62.0549 49.8685 62.9252 49.4296C63.3673 49.2043 63.9023 49.2908 64.2547 49.6421L65.0064 50.3939C65.3578 50.7452 65.4432 51.2802 65.2189 51.7233C64.779 52.5936 64.7459 53.5942 65.126 54.4688C65.1741 54.5809 65.2211 54.6952 65.267 54.8116C65.6151 55.7075 66.3498 56.3963 67.282 56.7027C67.754 56.8576 68.0712 57.2965 68.0712 57.793V58.8566Z" fill="black"/>
<path d="M8.27124 16.6786H14.6784V10.2715H8.27124V16.6786ZM10.4069 12.4072H12.5427V14.5429H10.4069V12.4072Z" fill="black"/>
<path d="M16.8135 16.6786H23.2206V10.2715H16.8135V16.6786ZM18.9492 12.4072H21.0849V14.5429H18.9492V12.4072Z" fill="black"/>
<path d="M25.3572 16.6786H31.7643V10.2715H25.3572V16.6786ZM27.4929 12.4072H29.6286V14.5429H27.4929V12.4072Z" fill="black"/>
<path d="M41.3747 23.0854H11.4748C9.70857 23.0854 8.27124 24.5228 8.27124 26.289V43.3747C8.27124 45.1409 9.70857 46.5782 11.4748 46.5782H27.169L32.8938 50.3947C33.3412 50.6927 33.8602 50.8496 34.3963 50.8496C35.8891 50.8496 37.1033 49.6355 37.1033 48.1426V46.5782H41.3747C43.1409 46.5782 44.5782 45.1409 44.5782 43.3747V26.289C44.5782 24.5228 43.1409 23.0854 41.3747 23.0854ZM42.4425 43.3747C42.4425 43.963 41.9631 44.4425 41.3747 44.4425H34.9676V48.1426C34.9676 48.5698 34.4347 48.8538 34.0791 48.6178L27.8162 44.4425H11.4748C10.8864 44.4425 10.4069 43.963 10.4069 43.3747V26.289C10.4069 25.7006 10.8864 25.2212 11.4748 25.2212H41.3747C41.9631 25.2212 42.4425 25.7006 42.4425 26.289V43.3747Z" fill="black"/>
<path d="M10.4072 50.8496H12.5429V52.9853H10.4072V50.8496Z" fill="black"/>
<path d="M14.6787 50.8496H16.8144V52.9853H14.6787V50.8496Z" fill="black"/>
<path d="M18.9502 50.8496H21.0859V52.9853H18.9502V50.8496Z" fill="black"/>
<path d="M23.2207 50.8496H25.3564V52.9853H23.2207V50.8496Z" fill="black"/>
<path d="M14.6787 31.6288C14.6787 32.8067 13.7208 33.7645 12.543 33.7645V35.9002C13.7208 35.9002 14.6787 36.8581 14.6787 38.036C14.6787 40.3916 16.5944 42.3074 18.9501 42.3074V40.1717C17.7722 40.1717 16.8144 39.2138 16.8144 38.036C16.8144 36.7545 16.2356 35.6162 15.3386 34.8324C16.2356 34.0486 16.8144 32.9103 16.8144 31.6288C16.8144 30.451 17.7722 29.4931 18.9501 29.4931V27.3574C16.5944 27.3574 14.6787 29.2732 14.6787 31.6288Z" fill="black"/>
<path d="M38.1708 31.6288C38.1708 29.2732 36.2551 27.3574 33.8994 27.3574V29.4931C35.0773 29.4931 36.0351 30.451 36.0351 31.6288C36.0351 32.9103 36.6139 34.0486 37.5109 34.8324C36.6139 35.6162 36.0351 36.7545 36.0351 38.036C36.0351 39.2138 35.0773 40.1717 33.8994 40.1717V42.3074C36.2551 42.3074 38.1708 40.3916 38.1708 38.036C38.1708 36.8581 39.1287 35.9002 40.3065 35.9002V33.7645C39.1287 33.7645 38.1708 32.8067 38.1708 31.6288Z" fill="black"/>
<path d="M21.0859 27.3574H31.7645V29.4931H21.0859V27.3574Z" fill="black"/>
<path d="M21.0859 31.6284H31.7645V33.7641H21.0859V31.6284Z" fill="black"/>
<path d="M21.0859 35.8999H23.2216V38.0356H21.0859V35.8999Z" fill="black"/>
<path d="M25.3572 35.8999H31.7643V38.0356H25.3572V35.8999Z" fill="black"/>
<path d="M21.0859 40.1714H31.7645V42.3071H21.0859V40.1714Z" fill="black"/>
<path d="M46.7148 27.3574H48.8505V29.4931H46.7148V27.3574Z" fill="black"/>
<path d="M50.9854 27.3574H61.6639V29.4931H50.9854V27.3574Z" fill="black"/>
<path d="M46.7148 31.6284H61.6648V33.7641H46.7148V31.6284Z" fill="black"/>
<path d="M46.7148 35.8999H50.9863V38.0356H46.7148V35.8999Z" fill="black"/>
<path d="M53.1208 35.8999H55.2566V38.0356H53.1208V35.8999Z" fill="black"/>
<path d="M57.3926 35.8999H61.664V38.0356H57.3926V35.8999Z" fill="black"/>
<path d="M46.7148 40.1714H61.6648V42.3071H46.7148V40.1714Z" fill="black"/>
<path d="M46.7148 23.0854H61.6648V25.2212H46.7148V23.0854Z" fill="black"/>
</svg>
