
<svg width="74" height="74" viewBox="0 0 74 74" fill="none" xmlns="http://www.w3.org/2000/svg">
<rect x="23.7246" y="47.3311" width="31.0441" height="5.98224" rx="2.99112" transform="rotate(-45 23.7246 47.3311)" fill="#7231E5"/>
<path d="M49.2285 24.6949C47.3885 22.8549 44.3939 22.8549 42.5538 24.6949L24.694 42.5548C23.8029 43.4458 23.3115 44.6313 23.3115 45.8921C23.3115 47.1529 23.8019 48.3385 24.694 49.2295C25.614 50.1495 26.8227 50.61 28.0313 50.61C29.24 50.61 30.4487 50.1495 31.3687 49.2295L49.2285 31.3697C50.1196 30.4787 50.611 29.2931 50.611 28.0323C50.611 26.7715 50.1205 25.5861 49.2285 24.6949ZM47.8634 30.0046L30.0036 47.8644C28.9156 48.9524 27.1461 48.9524 26.059 47.8644C25.5328 47.3373 25.2423 46.6374 25.2423 45.8921C25.2423 45.1468 25.5319 44.4469 26.059 43.9199L43.9188 26.0601C44.4623 25.5156 45.1766 25.2443 45.891 25.2443C46.6055 25.2443 47.3199 25.5165 47.8633 26.0601C48.3894 26.5872 48.68 27.287 48.68 28.0323C48.68 28.7776 48.3906 29.4776 47.8634 30.0046Z" fill="black"/>
<path d="M62.2616 13.7094L60.214 11.6618C57.8526 9.3004 54.7016 8 51.3401 8C47.9786 8 44.8276 9.3004 42.4672 11.6618L36.7047 17.4242C32.5062 21.6218 31.8382 28.2676 35.1157 33.2268L35.7673 34.2124L41.3251 28.6547L41.0972 28.0677C40.8761 27.501 40.7651 26.9063 40.7651 26.298C40.7651 24.9996 41.2623 23.788 42.165 22.8844L47.9264 17.1219C48.83 16.2202 50.0416 15.7231 51.3401 15.7231C52.6385 15.7231 53.8501 16.2202 54.7546 17.1229L56.8032 19.1715C58.6857 21.053 58.6847 24.1152 56.8032 25.9977L51.0407 31.7602C49.7152 33.0828 47.6425 33.5192 45.8565 32.827L45.2695 32.6001L39.7127 38.1579L40.6984 38.8095C42.8048 40.2015 45.2154 40.8822 47.6145 40.8822C50.8611 40.8822 54.0855 39.6349 56.499 37.2205L62.2615 31.458C67.1551 26.5646 67.1551 18.6021 62.2616 13.7094ZM60.8984 30.0922L55.1359 35.8547C51.8681 39.1225 46.848 39.8649 42.7981 37.8009L45.7668 34.8303C46.3711 35.0022 46.9938 35.0891 47.6251 35.0891C49.4391 35.0891 51.1363 34.3911 52.4038 33.1245L58.1662 27.3621C60.8008 24.7276 60.8008 20.4402 58.1662 17.8057L56.1177 15.7571C54.8501 14.4906 53.153 13.7926 51.34 13.7926C49.5269 13.7926 47.8298 14.4906 46.5613 15.7571L40.7999 21.5196C39.5323 22.7862 38.8343 24.4843 38.8343 26.2983C38.8343 26.9306 38.9212 27.5533 39.092 28.1576L36.1225 31.1262C34.0614 27.0774 34.8018 22.0574 38.0687 18.7895L43.8312 13.027C45.8277 11.0305 48.494 9.93097 51.34 9.93097C54.1859 9.93097 56.8524 11.0305 58.8507 13.026L60.8983 15.0736C65.039 19.2141 65.039 25.9516 60.8984 30.0922Z" fill="black"/>
<path d="M38.8096 40.6969L38.158 39.7113L32.6012 45.2681L32.8319 45.856C33.5357 47.6487 33.1148 49.6838 31.7603 51.0391L25.9979 56.8016C25.0943 57.7033 23.8827 58.2004 22.5842 58.2004C21.2857 58.2004 20.0732 57.7033 19.1706 56.8016L17.1229 54.754C16.2202 53.8513 15.7231 52.6388 15.7231 51.3403C15.7231 50.0419 16.2202 48.8294 17.1229 47.9258L22.8844 42.1643C24.2108 40.8388 26.2932 40.4054 28.0675 41.0976L28.6546 41.3244L34.2123 35.7667L33.2267 35.115C28.2685 31.8394 21.6227 32.5066 17.4241 36.7041L11.6618 42.4665C9.3004 44.8278 8 47.9799 8 51.3403C8 54.7008 9.3004 57.8529 11.6618 60.2132L13.7103 62.2617C16.0717 64.6231 19.2227 65.9235 22.5842 65.9235C25.9448 65.9235 29.0967 64.6231 31.4581 62.2617L37.2206 56.4993C41.419 52.302 42.087 45.6562 38.8096 40.6969ZM35.8555 55.1344L30.093 60.8969C28.0965 62.8933 25.4301 63.9929 22.5842 63.9929C19.7382 63.9929 17.0718 62.8933 15.0754 60.8969L13.0269 58.8483C11.0304 56.8518 9.93086 54.1864 9.93086 51.3405C9.93086 48.4945 11.0304 45.828 13.0269 43.8317L18.7894 38.0692C20.8321 36.0264 23.5603 34.9712 26.3079 34.9712C27.9548 34.9712 29.6095 35.3497 31.1272 36.1239L28.1576 39.0925C27.5542 38.9217 26.9306 38.8348 26.2983 38.8348C24.4843 38.8348 22.7871 39.5328 21.5196 40.7993L15.7582 46.5618C14.4906 47.8284 13.7926 49.5275 13.7926 51.3405C13.7926 53.1534 14.4906 54.8516 15.7591 56.1191L17.8067 58.1667C19.0743 59.4333 20.7714 60.1313 22.5844 60.1313C24.3974 60.1313 26.0946 59.4333 27.3631 58.1667L33.1256 52.4043C34.8701 50.6589 35.5091 48.1111 34.8362 45.7623L37.8019 42.7976C39.8628 46.8465 39.1224 51.8666 35.8555 55.1344Z" fill="black"/>
<path d="M54.0565 52.6909L48.7468 47.3812C48.3703 47.0038 47.7583 47.0038 47.3817 47.3812C47.0043 47.7587 47.0043 48.3688 47.3817 48.7464L52.6914 54.056C52.8797 54.2443 53.1268 54.3389 53.3739 54.3389C53.621 54.3389 53.8681 54.2443 54.0564 54.056C54.4341 53.6784 54.4341 53.0684 54.0565 52.6909Z" fill="black"/>
<path d="M53.3736 42.7544H50.4773C49.9444 42.7544 49.512 43.1859 49.512 43.7198C49.512 44.2536 49.9444 44.6851 50.4773 44.6851H53.3736C53.9065 44.6851 54.3389 44.2536 54.3389 43.7198C54.3389 43.1859 53.9065 42.7544 53.3736 42.7544Z" fill="black"/>
<path d="M43.719 49.5117C43.1861 49.5117 42.7537 49.9433 42.7537 50.4771V53.3733C42.7537 53.9071 43.1861 54.3387 43.719 54.3387C44.252 54.3387 44.6844 53.9071 44.6844 53.3733V50.4772C44.6844 49.9433 44.252 49.5117 43.719 49.5117Z" fill="black"/>
<path d="M26.5428 25.1767L21.2332 19.8671C20.8566 19.4896 20.2446 19.4896 19.8681 19.8671C19.4906 20.2445 19.4906 20.8546 19.8681 21.2322L25.1777 26.5419C25.366 26.7301 25.6131 26.8247 25.8602 26.8247C26.1073 26.8247 26.3544 26.7301 26.5427 26.5419C26.9203 26.1644 26.9203 25.5543 26.5428 25.1767Z" fill="black"/>
<path d="M23.4466 29.2383H20.5503C20.0174 29.2383 19.585 29.6698 19.585 30.2037C19.585 30.7375 20.0174 31.169 20.5503 31.169H23.4466C23.9795 31.169 24.4119 30.7375 24.4119 30.2037C24.4119 29.6698 23.9795 29.2383 23.4466 29.2383Z" fill="black"/>
<path d="M30.2039 19.5845C29.671 19.5845 29.2385 20.016 29.2385 20.5498V23.4461C29.2385 23.9799 29.671 24.4114 30.2039 24.4114C30.7368 24.4114 31.1693 23.9799 31.1693 23.4461V20.5498C31.1693 20.016 30.7367 19.5845 30.2039 19.5845Z" fill="black"/>
</svg>
