<svg width="74" height="74" viewBox="0 0 74 74" fill="none" xmlns="http://www.w3.org/2000/svg">
<path d="M58.9172 36.4782L68.0246 42.8916L62.2315 43.3058L59.3349 47.4434L58.9172 36.4782Z" fill="#7231E5"/>
<path d="M30.4824 53.5859H41.241L34.6204 58.9652L30.8962 61.8618L30.4824 53.5859Z" fill="#7231E5"/>
<path d="M61.1107 14.2335C61.1107 13.6979 60.6766 13.2637 60.1408 13.2637H10.7217C9.47071 13.2637 9.47071 15.2033 10.7217 15.2033H60.1408C60.6766 15.2033 61.1107 14.7691 61.1107 14.2335Z" fill="black"/>
<path d="M34.8916 18.6279H10.7217C9.47071 18.6279 9.47071 20.5676 10.7217 20.5676H34.8916C36.1426 20.5676 36.1426 18.6279 34.8916 18.6279Z" fill="black"/>
<path d="M34.8916 23.9917H10.7217C9.47071 23.9917 9.47071 25.9313 10.7217 25.9313H34.8916C36.1426 25.9313 36.1426 23.9917 34.8916 23.9917Z" fill="black"/>
<path d="M34.8916 29.3555H10.7217C9.47071 29.3555 9.47071 31.2951 10.7217 31.2951H34.8916C36.1426 31.2951 36.1426 29.3555 34.8916 29.3555Z" fill="black"/>
<path d="M34.8916 34.7192H10.7217C9.47071 34.7192 9.47071 36.6589 10.7217 36.6589H34.8916C36.1426 36.6589 36.1426 34.7192 34.8916 34.7192Z" fill="black"/>
<path d="M69.6229 40.5198L67.4631 38.922V11.391C67.4631 8.41847 65.0446 6 62.0721 6H18.0947C16.8438 6 16.8438 7.93964 18.0947 7.93964H62.0721C63.9752 7.93964 65.5235 9.48799 65.5235 11.391V37.4872L61.0849 34.2039C61.1012 34.1336 61.1105 34.0606 61.1105 33.9854V19.5974C61.1105 19.0618 60.6764 18.6276 60.1407 18.6276H39.9322C39.3965 18.6276 38.9624 19.0618 38.9624 19.5974V35.6892C38.9624 36.2248 39.3965 36.659 39.9322 36.659H57.6127V41.5827H5.93964V11.3917C5.93964 9.48825 7.48825 7.93977 9.39155 7.93977H12.6637C13.9147 7.93977 13.9147 6.00013 12.6637 6.00013H9.39155C6.41873 6 4 8.41873 4 11.3917V48.8384C4 51.8113 6.41873 54.2299 9.39155 54.2299H29.3117V61.4618H23.9361C19.7507 61.4618 19.7381 67.9644 23.9361 67.9644H41.1118C42.3627 67.9644 42.3627 66.0248 41.1118 66.0248H23.9361C22.2485 66.0248 22.2458 63.4015 23.9361 63.4015H47.5268C49.2144 63.4015 49.2172 66.0248 47.5268 66.0248H46.8014C45.5505 66.0248 45.5505 67.9644 46.8014 67.9644H47.5268C51.7123 67.9644 51.7248 61.4618 47.5268 61.4618H42.2938V54.2299H62.0715C65.0445 54.2299 67.4631 51.8112 67.4631 48.8384V43.1281H68.7855C70.2064 43.1281 70.702 41.3177 69.6229 40.5198ZM63.1211 41.1906C62.6666 41.1961 62.2369 41.469 61.9715 41.8381L59.545 45.1311V35.4776L67.2684 41.1906H63.1211ZM40.902 34.7193V20.5672H59.1709V33.0451C58.9059 33.0201 58.6342 33.0687 58.3856 33.1951C57.8973 33.4431 57.596 33.9375 57.5994 34.4852L57.6008 34.7193H40.902ZM40.3543 61.4619H31.2514V54.2301H40.3543V61.4619ZM65.5235 48.8384C65.5235 50.7418 63.9748 52.2903 62.0715 52.2903H9.39155C7.48825 52.2903 5.93964 50.7418 5.93964 48.8384V43.5223H57.6546V46.6864C57.6629 48.0407 59.4888 48.6136 60.2779 47.5167L63.3983 43.1766H65.5236V48.8384H65.5235Z" fill="black"/>
</svg>
