<svg width="74" height="74" viewBox="0 0 74 74" fill="none" xmlns="http://www.w3.org/2000/svg">
<circle cx="12.0586" cy="9.15576" r="2" fill="#7231E5"/>
<circle cx="36.0586" cy="9.15576" r="2" fill="#7231E5"/>
<circle cx="60.0586" cy="9.15576" r="2" fill="#7231E5"/>
<path d="M33.0586 55.1558L34.5586 51.1558H39.0586L40.0586 54.1558L36.0586 59.6558L33.0586 55.1558Z" fill="#7231E5"/>
<path d="M55.1117 21.2382H67.147C67.7293 21.2382 68.1176 20.85 68.1176 20.2676V19.0059C68.1176 16.1912 66.4676 13.7647 64.0411 12.6971C64.7205 12.0176 65.1088 11.0471 65.1088 9.97941C65.1088 7.74706 63.2646 6 61.1293 6C58.897 6 57.1499 7.84412 57.1499 9.97941C57.1499 11.0471 57.5382 12.0176 58.2176 12.6971C55.7911 13.7647 54.1411 16.1912 54.1411 19.0059V20.2676C54.1411 20.85 54.5293 21.2382 55.1117 21.2382ZM61.1293 7.94118C62.2941 7.94118 63.1676 8.91176 63.1676 9.97941C63.1676 11.0471 62.197 12.0176 61.1293 12.0176C59.9646 12.0176 59.0911 11.0471 59.0911 9.97941C59.0911 8.91176 59.9646 7.94118 61.1293 7.94118ZM56.0823 19.1029C56.0823 16.2882 58.3146 14.0559 61.1293 14.0559C63.9441 14.0559 66.1764 16.2882 66.1764 19.1029V19.3941H56.0823V19.1029Z" fill="black"/>
<path d="M22.1117 32.2059L15.1234 23.6647C14.7352 23.2765 14.1529 23.1794 13.7646 23.5676C13.3764 23.9559 13.2793 24.5382 13.6676 24.9265L20.8499 33.6618C20.3646 34.2441 19.8793 34.8265 19.4911 35.5059C19.1999 35.9912 19.297 36.5735 19.7823 36.8647C20.2676 37.1559 20.8499 37.0588 21.1411 36.5735C24.7323 31.1382 30.7499 27.9353 37.1558 27.9353C47.7352 27.9353 56.3734 36.5735 56.3734 47.1529C56.3734 48.1235 56.2764 48.9971 56.1793 49.9676L54.2381 47.0559C53.947 46.5706 53.3646 46.4735 52.8793 46.7647C52.394 47.0559 52.297 47.6382 52.5882 48.1235C53.4617 49.3853 55.3058 52.1029 55.8881 52.9765C56.1793 53.3647 56.7617 53.5588 57.247 53.2676C57.7323 52.9765 55.4999 54.4324 62.0999 49.9676C62.5852 49.6765 62.6823 49.0941 62.3911 48.6088C62.0999 48.1235 61.5176 48.0265 61.0323 48.3176L58.1205 50.2588C58.3146 49.1912 58.3146 48.2206 58.3146 47.1529C58.3146 42.0088 56.4705 37.35 53.4617 33.6618L60.644 24.9265C61.0323 24.5382 60.9352 23.8588 60.547 23.5676C60.1587 23.1794 59.4793 23.2765 59.1881 23.6647L52.1999 32.2059C48.6087 28.6147 43.6587 26.2853 38.2234 25.9941V21.2382H43.4646C44.047 21.2382 44.4352 20.85 44.4352 20.2676V19.0059C44.4352 16.1912 42.7852 13.7647 40.3587 12.6971C41.0382 12.0176 41.4264 11.0471 41.4264 9.97941C41.4264 7.74706 39.5823 6 37.447 6C35.2146 6 33.4676 7.84412 33.4676 9.97941C33.4676 11.0471 33.8558 12.0176 34.5352 12.6971C31.9146 13.8618 30.2646 16.2882 30.2646 19.1029V20.3647C30.2646 20.9471 30.6529 21.3353 31.2352 21.3353H36.0882V26.0912C30.7499 26.2853 25.7999 28.5176 22.1117 32.2059ZM37.2529 7.94118C38.4176 7.94118 39.2911 8.91176 39.2911 9.97941C39.2911 11.0471 38.3205 12.0176 37.2529 12.0176C36.0882 12.0176 35.2146 11.0471 35.2146 9.97941C35.2146 8.91176 36.0882 7.94118 37.2529 7.94118ZM32.2058 19.2971V19.0059C32.2058 16.1912 34.4382 13.9588 37.2529 13.9588C40.0676 13.9588 42.2999 16.1912 42.2999 19.0059V19.2971H32.2058Z" fill="black"/>
<path d="M6.97059 21.2382H19.0059C19.5882 21.2382 19.9765 20.85 19.9765 20.2676V19.0059C19.9765 16.1912 18.3265 13.7647 15.9 12.6971C16.5794 12.0176 16.9676 11.0471 16.9676 9.97941C16.9676 7.74706 15.1235 6 12.9882 6C10.7559 6 9.00882 7.84412 9.00882 9.97941C9.00882 11.0471 9.39706 12.0176 10.0765 12.6971C7.65 13.8618 6 16.2882 6 19.1029V20.3647C6 20.85 6.38824 21.2382 6.97059 21.2382ZM12.9882 7.94118C14.1529 7.94118 15.0265 8.91176 15.0265 9.97941C15.0265 11.0471 14.0559 12.0176 12.9882 12.0176C11.8235 12.1147 10.95 11.1441 10.95 9.97941C10.95 8.81471 11.8235 7.94118 12.9882 7.94118ZM7.94118 19.1029C7.94118 16.2882 10.1735 14.0559 12.9882 14.0559C15.8029 14.0559 18.0353 16.2882 18.0353 19.1029V19.3941H7.94118V19.1029ZM20.1706 46.2794C20.4618 46.7647 21.0441 46.8618 21.5294 46.5706C22.0147 46.2794 22.1118 45.6971 21.8206 45.2118L18.5206 40.3588C18.2294 39.8735 17.6471 39.7765 17.1618 40.0676L12.3088 43.3676C11.8235 43.6588 11.7265 44.2412 12.0176 44.7265C12.3088 45.2118 12.8912 45.3088 13.3765 45.0176L16.2882 42.9794C13.6676 56.1794 23.7618 68.3118 37.0588 68.3118C45.1147 68.3118 52.2 63.75 55.7912 56.9559C56.0824 56.4706 55.8882 55.8882 55.4029 55.5971C54.9176 55.3059 54.3353 55.5 54.0441 55.9853C53.0735 57.8294 51.8118 59.4794 50.3559 60.9353V60.5471C50.3559 56.9559 47.3471 53.9471 43.7559 53.9471H42.2029L40.9412 50.6471C42.6882 49.2882 43.7559 47.25 43.7559 44.9206V43.7559C45.1147 41.5235 45.6 39.5824 45.9882 37.9324C46.8618 33.7588 40.4559 29.5853 37.6412 33.7588L37.5441 33.8559C34.8265 33.3706 32.3029 33.7588 30.4588 34.9235C29.2941 35.7 28.5176 36.6706 28.3235 37.7382C27.6441 40.9412 28.8088 43.0765 29.2941 43.8529V44.9206C29.2941 47.7353 30.8471 50.1618 33.2735 51.3265L32.1088 54.0441H30.4588C26.7706 54.0441 23.8588 57.0529 23.8588 60.6441V61.0324C19.1029 56.4706 17.0647 49.8706 18.3265 43.4647L20.1706 46.2794ZM30.8471 40.2618L30.2647 41.3294C30.0706 40.5529 29.8765 39.3882 30.1676 38.0294C30.4588 36.6706 33.3706 34.7294 37.8353 35.7971C38.3206 35.8941 38.8059 35.7 39 35.2147C39 35.2147 39.0971 35.0206 39.2912 34.7294C40.9412 32.3029 44.6294 35.3118 44.1441 37.4471C43.8529 38.6118 43.5618 40.0676 42.7853 41.6206L41.8147 40.1647C41.5235 39.6794 40.9412 39.3882 40.3588 39.3882H32.4971C31.7206 39.3882 31.1382 39.6794 30.8471 40.2618ZM31.1382 44.9206V43.7559L32.4 41.3294H40.0676L41.7176 43.7559V44.9206C41.7176 47.8324 39.2912 50.2588 36.3794 50.2588C33.6618 50.1618 31.1382 47.8324 31.1382 44.9206ZM40.5529 55.3059L37.0588 60.0618L33.5647 55.2088L35.0206 51.9088C35.5059 52.0059 35.9912 52.1029 36.4765 52.1029C37.4471 52.1029 38.3206 51.9088 39.1941 51.6176L40.5529 55.3059ZM25.7029 60.6441C25.7029 58.1206 27.8382 55.9853 30.3618 55.9853H31.7206L36.2824 62.2941C36.4765 62.5853 36.7676 62.6824 37.0588 62.6824C37.35 62.6824 37.6412 62.4882 37.8353 62.2941L42.3971 55.9853H43.7559C46.2794 55.9853 48.4147 58.1206 48.4147 60.6441V62.6824C45.1147 65.1088 41.2324 66.3706 37.0588 66.3706C33.0794 66.3706 29.1971 65.2059 25.7029 62.6824V60.6441Z" fill="black"/>
</svg>
