<svg width="53" height="53" viewBox="0 0 53 53" fill="none" xmlns="http://www.w3.org/2000/svg">
<g clip-path="url(#clip0_159_3904)">
<path d="M38.2006 50.9985C31.0768 50.9985 25.2646 45.1879 25.2646 38.0522C25.2646 30.9165 31.0768 25.1196 38.2144 25.1196C45.3519 25.1196 51.1503 30.9303 51.1503 38.066C51.1503 45.1879 45.3381 50.9985 38.2006 50.9985ZM38.2006 33.9254C37.0685 33.9254 35.9226 33.9254 34.7906 33.9254C33.7413 33.9254 33.0372 34.5464 33.0234 35.4712C33.0234 36.3959 33.7275 37.0308 34.763 37.0308C37.0547 37.0308 39.3464 37.0308 41.6382 37.0308C42.6736 37.0308 43.3777 36.3821 43.3777 35.4574C43.3639 34.5603 42.6736 33.9254 41.6658 33.9254C40.5061 33.9116 39.3603 33.9254 38.2006 33.9254ZM38.1454 42.2066C39.3326 42.2066 40.5199 42.2066 41.7072 42.2066C42.6736 42.2066 43.3639 41.5579 43.3777 40.6746C43.3915 39.7636 42.6874 39.1149 41.6934 39.1011C39.3741 39.1011 37.0409 39.1011 34.7215 39.1011C33.7275 39.1011 33.0234 39.7636 33.0372 40.6608C33.0372 41.5579 33.7413 42.1928 34.7492 42.2066C35.8812 42.2066 37.0133 42.2066 38.1454 42.2066Z" fill="#7231E5"/>
<path d="M0 46.2784C0 32.2003 0 18.1221 0 4.04401C0.0276114 3.9612 0.0690284 3.89219 0.0828341 3.80937C0.648867 1.42161 2.40219 0 4.83199 0C18.3892 0 31.9463 0 45.5035 0C45.9453 0 46.4009 0.0414063 46.8289 0.151823C48.9549 0.690104 50.3217 2.53958 50.3217 4.88594C50.3217 12.4633 50.3217 20.0268 50.3355 27.6042C50.3355 27.8664 50.4045 28.1562 50.5288 28.3771C52.4478 31.4826 53.2623 34.8503 52.931 38.494C52.3649 44.8568 47.7677 50.5156 41.6241 52.2823C40.5059 52.5997 39.3462 52.7654 38.2003 53C37.372 53 36.5436 53 35.7153 53C35.5772 52.9724 35.453 52.9172 35.3149 52.9034C32.8851 52.6687 30.6624 51.882 28.564 50.6398C28.2464 50.4466 27.8323 50.3224 27.4733 50.3224C19.9216 50.3086 12.3699 50.3086 4.81818 50.3086C2.65069 50.3086 0.869758 49.0664 0.234697 47.1065C0.151862 46.8305 0.0828341 46.5544 0 46.2784ZM36.9578 49.8945C44.0815 49.8945 49.9075 44.0839 49.9075 36.962C49.9075 29.8263 44.0953 24.0156 36.9716 24.0156C29.8341 24.0156 24.0219 29.8263 24.0219 36.9482C24.0219 44.0839 29.8341 49.8945 36.9578 49.8945ZM23.5801 3.10547C23.373 3.10547 23.2073 3.10547 23.0417 3.10547C17.0086 3.10547 10.9617 3.10547 4.92863 3.10547C3.71373 3.10547 3.12008 3.69896 3.12008 4.91354C3.12008 10.9727 3.12008 17.018 3.12008 23.0771C3.12008 23.2427 3.13389 23.4083 3.14769 23.574C9.99531 23.574 16.7877 23.574 23.5939 23.574C23.5801 16.7557 23.5801 9.9651 23.5801 3.10547ZM26.7416 3.10547C26.7416 10.2826 26.7416 17.3906 26.7416 24.5815C29.765 22.1661 33.1474 20.924 36.9578 20.9102C40.782 20.9102 44.1644 22.1661 47.2154 24.5953C47.2154 24.3193 47.2154 24.1674 47.2154 24.0156C47.2154 17.6529 47.2154 11.2901 47.2154 4.91354C47.2154 3.67135 46.6218 3.09167 45.3655 3.09167C39.3462 3.09167 33.3269 3.09167 27.2938 3.09167C27.1282 3.10547 26.9625 3.10547 26.7416 3.10547ZM3.10628 26.7346C3.10628 26.9417 3.10628 27.1073 3.10628 27.2867C3.10628 33.3182 3.10628 39.3635 3.10628 45.3951C3.10628 46.6096 3.71373 47.2031 4.91482 47.2031C11.293 47.2031 17.6851 47.2031 24.0633 47.2031C24.2152 47.2031 24.3532 47.2031 24.5879 47.2031C24.4499 47.0099 24.3808 46.8995 24.298 46.8029C20.2115 41.5305 19.7697 34.4086 23.2212 28.7083C23.6215 28.0458 23.6077 27.4247 23.5801 26.7346C16.7601 26.7346 9.9677 26.7346 3.10628 26.7346Z" fill="black"/>
<path d="M36.9576 32.8211C38.1173 32.8211 39.2632 32.8211 40.4228 32.8211C41.4306 32.8211 42.1347 33.456 42.1347 34.3531C42.1485 35.2778 41.4307 35.9265 40.3952 35.9265C38.1035 35.9265 35.8117 35.9265 33.52 35.9265C32.4846 35.9265 31.7667 35.2916 31.7805 34.3669C31.7805 33.4422 32.4984 32.8211 33.5476 32.8211C34.6935 32.8073 35.8255 32.8211 36.9576 32.8211Z" fill="black"/>
<path d="M36.9022 41.1025C35.7701 41.1025 34.6242 41.1025 33.4922 41.1025C32.4844 41.1025 31.7941 40.4676 31.7803 39.5567C31.7803 38.6596 32.4706 37.9971 33.4646 37.9971C35.7839 37.9971 38.1171 37.9971 40.4364 37.9971C41.4304 37.9971 42.1345 38.6596 42.1207 39.5705C42.1069 40.4538 41.4166 41.1025 40.4502 41.1025C39.2906 41.1025 38.1033 41.1025 36.9022 41.1025Z" fill="black"/>
<path d="M11.8037 14.9062C11.0997 14.9062 10.4646 14.9062 9.82953 14.9062C8.86314 14.8924 8.17285 14.2437 8.17285 13.3604C8.17285 12.4771 8.86314 11.8146 9.82953 11.8146C10.4646 11.8146 11.0997 11.8146 11.8037 11.8146C11.8037 11.1797 11.8037 10.5862 11.8037 9.99271C11.8037 8.90234 12.425 8.18464 13.3638 8.19844C14.3026 8.21224 14.91 8.91615 14.91 10.0203C14.91 10.6 14.91 11.1797 14.91 11.8284C15.5865 11.8284 16.2216 11.8284 16.8566 11.8284C17.8506 11.8422 18.5547 12.5047 18.5409 13.4018C18.5271 14.2852 17.8368 14.92 16.8704 14.9339C16.2492 14.9339 15.6279 14.9339 14.9238 14.9339C14.9238 15.624 14.9376 16.3141 14.9238 16.9904C14.8962 18.1773 13.7227 18.9088 12.6873 18.3844C12.1075 18.0945 11.8314 17.6115 11.8176 16.9628C11.8037 16.2865 11.8037 15.6378 11.8037 14.9062Z" fill="black"/>
<path d="M36.9711 14.9061C35.9771 14.9061 34.9692 14.9061 33.9752 14.9061C33.0088 14.9061 32.3186 14.2574 32.3186 13.3741C32.3048 12.477 33.0088 11.8145 34.0028 11.8145C35.9771 11.8145 37.9651 11.8145 39.9393 11.8145C40.9333 11.8145 41.6374 12.477 41.6236 13.3741C41.6236 14.285 40.9195 14.9061 39.9117 14.9199C38.9315 14.9061 37.9513 14.9061 36.9711 14.9061Z" fill="black"/>
<path d="M11.2657 36.9482C10.7135 36.4375 10.2303 36.0097 9.78851 35.568C9.07062 34.8503 9.04301 33.9117 9.67807 33.263C10.3131 32.6281 11.2519 32.6557 11.9836 33.3597C12.4254 33.7875 12.8672 34.2292 13.309 34.6571C13.3228 34.6709 13.3366 34.6571 13.5022 34.6847C13.875 34.2844 14.2892 33.8013 14.7448 33.3597C15.4626 32.6419 16.4014 32.6143 17.0503 33.2492C17.6854 33.8841 17.6578 34.8365 16.9537 35.5542C16.5119 36.0097 16.0287 36.4237 15.4626 36.9482C16.0563 37.5003 16.5809 37.9281 17.0503 38.4388C17.9063 39.3636 17.4921 40.7576 16.291 41.0336C15.6973 41.1716 15.2003 40.9784 14.7862 40.5505C14.3306 40.0813 13.9026 39.5982 13.3642 39.0323C12.8396 39.5844 12.4254 40.0675 11.9836 40.5091C11.2657 41.2268 10.3269 41.2544 9.67807 40.6195C9.04301 39.9847 9.07062 39.0323 9.78851 38.3146C10.2303 37.8867 10.7135 37.4727 11.2657 36.9482Z" fill="black"/>
</g>
<defs>
<clipPath id="clip0_159_3904">
<rect width="53" height="53" fill="white"/>
</clipPath>
</defs>
</svg>
