<svg width="56" height="56" viewBox="0 0 56 56" fill="none" xmlns="http://www.w3.org/2000/svg">
<g clip-path="url(#clip0_1144_34494)">
<rect x="28.8484" y="28" width="20.3636" height="26.303" fill="#7231E5"/>
<path d="M3.591 21H25.5757C26.5279 20.9994 27.4409 20.6208 28.1142 19.9475C28.7875 19.2742 29.166 18.3612 29.1667 17.409V3.591C29.166 2.6388 28.7875 1.72577 28.1142 1.05246C27.4409 0.379153 26.5279 0.000618113 25.5757 0L3.591 0C2.6388 0.000618113 1.72577 0.379153 1.05246 1.05246C0.379153 1.72577 0.000618113 2.6388 0 3.591L0 17.409C0.000618113 18.3612 0.379153 19.2742 1.05246 19.9475C1.72577 20.6208 2.6388 20.9994 3.591 21ZM2.33333 3.591C2.33395 3.25764 2.46665 2.9381 2.70238 2.70238C2.9381 2.46665 3.25764 2.33395 3.591 2.33333H25.5757C25.909 2.33395 26.2286 2.46665 26.4643 2.70238C26.7 2.9381 26.8327 3.25764 26.8333 3.591V17.409C26.8327 17.7424 26.7 18.0619 26.4643 18.2976C26.2286 18.5333 25.909 18.666 25.5757 18.6667H3.591C3.25764 18.666 2.9381 18.5333 2.70238 18.2976C2.46665 18.0619 2.33395 17.7424 2.33333 17.409V3.591ZM3.591 56H17.409C18.3612 55.9994 19.2742 55.6208 19.9475 54.9475C20.6208 54.2742 20.9994 53.3612 21 52.409V30.4243C20.9994 29.4721 20.6208 28.5591 19.9475 27.8858C19.2742 27.2125 18.3612 26.834 17.409 26.8333H3.591C2.6388 26.834 1.72577 27.2125 1.05246 27.8858C0.379153 28.5591 0.000618113 29.4721 0 30.4243V52.409C0.000618113 53.3612 0.379153 54.2742 1.05246 54.9475C1.72577 55.6208 2.6388 55.9994 3.591 56ZM2.33333 30.4243C2.33395 30.091 2.46665 29.7714 2.70238 29.5357C2.9381 29.3 3.25764 29.1673 3.591 29.1667H17.409C17.7424 29.1673 18.0619 29.3 18.2976 29.5357C18.5333 29.7714 18.666 30.091 18.6667 30.4243V52.409C18.666 52.7424 18.5333 53.0619 18.2976 53.2976C18.0619 53.5333 17.7424 53.666 17.409 53.6667H3.591C3.25764 53.666 2.9381 53.5333 2.70238 53.2976C2.46665 53.0619 2.33395 52.7424 2.33333 52.409V30.4243ZM52.409 26.8333H30.4243C29.4721 26.834 28.5591 27.2125 27.8858 27.8858C27.2125 28.5591 26.834 29.4721 26.8333 30.4243V52.409C26.834 53.3612 27.2125 54.2742 27.8858 54.9475C28.5591 55.6208 29.4721 55.9994 30.4243 56H52.409C53.3612 55.9994 54.2742 55.6208 54.9475 54.9475C55.6208 54.2742 55.9994 53.3612 56 52.409V30.4243C55.9994 29.4721 55.6208 28.5591 54.9475 27.8858C54.2742 27.2125 53.3612 26.834 52.409 26.8333ZM53.6667 52.409C53.666 52.7424 53.5333 53.0619 53.2976 53.2976C53.0619 53.5333 52.7424 53.666 52.409 53.6667H30.4243C30.091 53.666 29.7714 53.5333 29.5357 53.2976C29.3 53.0619 29.1673 52.7424 29.1667 52.409V30.4243C29.1673 30.091 29.3 29.7714 29.5357 29.5357C29.7714 29.3 30.091 29.1673 30.4243 29.1667H52.409C52.7424 29.1673 53.0619 29.3 53.2976 29.5357C53.5333 29.7714 53.666 30.091 53.6667 30.4243V52.409ZM52.409 0H38.591C37.6388 0.000618113 36.7258 0.379153 36.0525 1.05246C35.3792 1.72577 35.0006 2.6388 35 3.591V17.409C35.0006 18.3612 35.3792 19.2742 36.0525 19.9475C36.7258 20.6208 37.6388 20.9994 38.591 21H52.409C53.3612 20.9994 54.2742 20.6208 54.9475 19.9475C55.6208 19.2742 55.9994 18.3612 56 17.409V3.591C55.9994 2.6388 55.6208 1.72577 54.9475 1.05246C54.2742 0.379153 53.3612 0.000618113 52.409 0ZM53.6667 17.409C53.666 17.7424 53.5333 18.0619 53.2976 18.2976C53.0619 18.5333 52.7424 18.666 52.409 18.6667H38.591C38.2576 18.666 37.9381 18.5333 37.7024 18.2976C37.4667 18.0619 37.334 17.7424 37.3333 17.409V3.591C37.334 3.25764 37.4667 2.9381 37.7024 2.70238C37.9381 2.46665 38.2576 2.33395 38.591 2.33333H52.409C52.7424 2.33395 53.0619 2.46665 53.2976 2.70238C53.5333 2.9381 53.666 3.25764 53.6667 3.591V17.409Z" fill="black"/>
</g>
<defs>
<clipPath id="clip0_1144_34494">
<rect width="56" height="56" fill="white"/>
</clipPath>
</defs>
</svg>
