<svg width="50" height="50" viewBox="0 0 50 50" fill="none" xmlns="http://www.w3.org/2000/svg">
<g opacity="0.3" clip-path="url(#clip0_301_18585)">
<path d="M14.3824 20.8596C13.906 20.4516 13.1889 20.507 12.7809 20.9835C12.4168 21.4086 12.4168 22.0358 12.7809 22.461L24.1388 33.819C24.5774 34.2675 25.2964 34.2756 25.7449 33.8371C25.751 33.8311 25.757 33.8252 25.763 33.819L44.7081 13.9426L46.3323 12.2388L49.592 8.83145C50.0722 8.42794 50.1344 7.7115 49.7309 7.23118C49.3273 6.75095 48.6109 6.68878 48.1306 7.09228C48.0659 7.14665 48.0075 7.20805 47.9564 7.27539L45.0374 10.308L43.4586 11.9662L24.9225 31.3997L14.3824 20.8596Z" fill="#333333"/>
<path d="M47.9025 15.4986H47.9252C47.4624 15.0752 46.744 15.1072 46.3205 15.57C46.0579 15.8572 45.9605 16.2589 46.0625 16.6345C50.7035 28.2901 45.017 41.5012 33.3614 46.1421C21.7059 50.783 8.49471 45.0966 3.85368 33.441C-0.787352 21.7854 4.89915 8.57434 16.5548 3.93331C25.1215 0.52223 34.9003 2.62811 41.3035 9.26306C41.7892 9.66003 42.5048 9.58809 42.9018 9.10239C43.259 8.66531 43.241 8.03223 42.8596 7.61613C42.8127 7.58216 42.7633 7.55171 42.7119 7.52526C33.0609 -2.29501 17.2762 -2.43224 7.45597 7.21877C-2.3643 16.8698 -2.50163 32.6544 7.14939 42.4747C16.8004 52.2951 32.5851 52.4323 42.4053 42.7813C49.506 35.8031 51.7743 25.2693 48.1751 15.987C48.1263 15.804 48.0326 15.6361 47.9025 15.4986Z" fill="#333333"/>
</g>
<defs>
<clipPath id="clip0_301_18585">
<rect width="50" height="50" fill="white"/>
</clipPath>
</defs>
</svg>
