<svg width="50" height="50" viewBox="0 0 50 50" fill="none" xmlns="http://www.w3.org/2000/svg">
<g opacity="0.3">
<path d="M42.4892 48.117L37.8757 42.4574C37.6201 42.1438 37.6671 41.6824 37.9806 41.4269C38.2943 41.1712 38.7557 41.2183 39.0111 41.5318L43.6247 47.1914C43.8803 47.505 43.8333 47.9664 43.5198 48.222C43.2076 48.4764 42.7459 48.4319 42.4892 48.117Z" fill="#333333"/>
<path d="M7.32827 48.222C7.0148 47.9664 6.96773 47.505 7.22329 47.1915L11.6731 41.7327C11.9288 41.4192 12.3901 41.3724 12.7036 41.6279C13.017 41.8834 13.064 42.3449 12.8085 42.6584L8.35874 48.1171C8.10288 48.4311 7.64126 48.4772 7.32827 48.222Z" fill="#333333"/>
<path d="M6.82744 19.0697C4.43076 17.2897 3 14.4472 3 11.4658C3 6.24639 7.24629 2 12.4657 2C15.9554 2 19.1514 3.91055 20.8066 6.98623C20.9983 7.34238 20.8649 7.78662 20.5088 7.97832C20.1526 8.17012 19.7084 8.03662 19.5167 7.68047C18.1173 5.08018 15.4155 3.46484 12.4657 3.46484C8.054 3.46484 4.46484 7.0541 4.46484 11.4658C4.46484 14.0234 5.64434 16.3663 7.70088 17.8938C8.02568 18.135 8.09336 18.5937 7.85215 18.9185C7.61094 19.2432 7.15215 19.3109 6.82744 19.0697Z" fill="#333333"/>
<path d="M43.2934 18.7257C43.0394 18.4108 43.0887 17.9498 43.4035 17.6957C45.2976 16.1674 46.3839 13.8967 46.3839 11.4658C46.3839 7.0541 42.7947 3.46484 38.383 3.46484C35.4788 3.46484 32.7971 5.04346 31.3845 7.58447C31.1878 7.93809 30.7418 8.06514 30.3884 7.86875C30.0349 7.67217 29.9076 7.22627 30.1041 6.87275C31.775 3.86719 34.9473 2 38.383 2C43.6023 2 47.8487 6.24639 47.8487 11.4658C47.8487 14.3416 46.5639 17.0278 44.3234 18.8357C44.0093 19.0893 43.548 19.0411 43.2934 18.7257Z" fill="#333333"/>
<path d="M25.4257 47.4789C13.9819 47.4789 4.67188 38.1688 4.67188 26.725C4.67188 15.2813 13.9819 5.97119 25.4257 5.97119C36.8693 5.97119 46.1795 15.2812 46.1795 26.725C46.1795 38.1688 36.8693 47.4789 25.4257 47.4789ZM25.4257 7.43613C14.7896 7.43613 6.13672 16.0891 6.13672 26.7251C6.13672 37.3611 14.7896 46.0142 25.4257 46.0142C36.0616 46.0142 44.7146 37.3612 44.7146 26.7251C44.7146 16.0891 36.0617 7.43613 25.4257 7.43613Z" fill="#333333"/>
<path d="M26.7302 25.8731C26.4441 25.587 26.4441 25.1234 26.7302 24.8373L36.3635 15.2043C36.6496 14.9182 37.1134 14.9183 37.3993 15.2043C37.6853 15.4903 37.6853 15.9541 37.3993 16.2401L27.7659 25.8732C27.48 26.1591 27.0163 26.1592 26.7302 25.8731Z" fill="#333333"/>
<path d="M22.7611 26.1344L15.3077 21.8313C14.9574 21.6291 14.8374 21.1811 15.0397 20.8308C15.2418 20.4805 15.6897 20.3604 16.0401 20.5628L23.4936 24.8659C23.8439 25.0681 23.9639 25.5161 23.7616 25.8664C23.5587 26.2177 23.1105 26.336 22.7611 26.1344Z" fill="#333333"/>
<path d="M25.4267 29.7181C23.7763 29.7181 22.4336 28.3756 22.4336 26.7253C22.4336 25.075 23.7763 23.7324 25.4267 23.7324C27.0769 23.7324 28.4194 25.0751 28.4194 26.7253C28.4194 28.3756 27.077 29.7181 25.4267 29.7181ZM25.4267 25.1973C24.584 25.1973 23.8984 25.8828 23.8984 26.7253C23.8984 27.5678 24.584 28.2532 25.4267 28.2532C26.2691 28.2532 26.9546 27.5678 26.9546 26.7253C26.9546 25.8828 26.2691 25.1973 25.4267 25.1973Z" fill="#333333"/>
<path d="M25.4238 13.6567C25.0193 13.6567 24.6914 13.3288 24.6914 12.9243V11.5156C24.6914 11.1111 25.0193 10.7832 25.4238 10.7832C25.8284 10.7832 26.1562 11.1111 26.1562 11.5156V12.9243C26.1562 13.3288 25.8283 13.6567 25.4238 13.6567Z" fill="#333333"/>
<path d="M11.6216 27.4575H10.2129C9.8084 27.4575 9.48047 27.1297 9.48047 26.7251C9.48047 26.3205 9.8084 25.9927 10.2129 25.9927H11.6216C12.0261 25.9927 12.354 26.3205 12.354 26.7251C12.354 27.1297 12.0261 27.4575 11.6216 27.4575Z" fill="#333333"/>
<path d="M25.4238 42.6671C25.0193 42.6671 24.6914 42.3393 24.6914 41.9347V40.5261C24.6914 40.1215 25.0193 39.7937 25.4238 39.7937C25.8284 39.7937 26.1562 40.1215 26.1562 40.5261V41.9347C26.1562 42.3392 25.8283 42.6671 25.4238 42.6671Z" fill="#333333"/>
<path d="M40.6333 27.4578H39.2246C38.82 27.4578 38.4922 27.1299 38.4922 26.7253C38.4922 26.3208 38.82 25.9929 39.2246 25.9929H40.6333C41.0379 25.9929 41.3657 26.3208 41.3657 26.7253C41.3657 27.1299 41.0378 27.4578 40.6333 27.4578Z" fill="#333333"/>
</g>
</svg>
