<svg width="50" height="50" viewBox="0 0 50 50" fill="none" xmlns="http://www.w3.org/2000/svg">
<g opacity="0.3" clip-path="url(#clip0_301_18592)">
<path d="M40.0755 13.023C40.1625 13.1049 40.299 13.1025 40.3865 13.021C40.6981 12.7305 41.12 12.5525 41.5815 12.5538C42.5279 12.5567 43.3003 13.3339 43.2869 14.2678C43.263 15.937 40.8614 17.28 40.332 17.556C40.2676 17.5896 40.1909 17.5904 40.1258 17.5582C39.5872 17.2925 37.1376 15.9884 37.1722 14.2678C37.1908 13.3529 37.9611 12.5604 38.8883 12.5538C39.3499 12.5505 39.7668 12.732 40.0755 13.023Z" stroke="#333333" stroke-width="1.5" stroke-miterlimit="10" stroke-linecap="round" stroke-linejoin="round"/>
<path d="M34.2637 9.17566H45.2884C46.3297 9.17566 47.1737 10.0199 47.1737 11.0612V17.8575C47.1737 18.8989 46.3297 19.743 45.2884 19.743H42.9602C42.6853 19.743 42.4214 19.851 42.2255 20.0438L40.5994 21.6435C40.3945 21.8451 40.0655 21.8439 39.8621 21.641L38.2671 20.0491C38.0707 19.8531 37.8047 19.743 37.5271 19.743H35.1707C34.1294 19.743 33.2852 18.8989 33.2852 17.8575V14.1227" stroke="#333333" stroke-width="1.5" stroke-miterlimit="10" stroke-linecap="round" stroke-linejoin="round"/>
<path d="M9.59099 13.023C9.678 13.1049 9.81452 13.1025 9.90202 13.021C10.2136 12.7305 10.6355 12.5525 11.097 12.5538C12.0435 12.5567 12.8158 13.3339 12.8024 14.2678C12.7785 15.937 10.3769 17.28 9.84753 17.556C9.78308 17.5896 9.70642 17.5904 9.64128 17.5582C9.10271 17.2925 6.6532 15.9884 6.68786 14.2678C6.70632 13.3529 7.47663 12.5604 8.40378 12.5538C8.8654 12.5505 9.2823 12.732 9.59099 13.023Z" stroke="#333333" stroke-width="1.5" stroke-miterlimit="10" stroke-linecap="round" stroke-linejoin="round"/>
<path d="M16.6933 13.8859V17.8576C16.6933 18.899 15.849 19.7431 14.8077 19.7431H12.4796C12.2047 19.7431 11.9408 19.8511 11.7449 20.0439L10.1189 21.6435C9.91406 21.8452 9.58506 21.8439 9.38164 21.641L7.78652 20.0491C7.59023 19.8531 7.32412 19.7431 7.04668 19.7431H4.69014C3.64883 19.7431 2.80469 18.899 2.80469 17.8576V11.0612C2.80469 10.0199 3.64883 9.17572 4.69014 9.17572H15.8894" stroke="#333333" stroke-width="1.5" stroke-miterlimit="10" stroke-linecap="round" stroke-linejoin="round"/>
<path d="M25.5566 0.732416H31.5234C32.9696 0.732416 34.1421 1.90488 34.1421 3.35107V11.9591C34.1421 13.4054 32.9696 14.5778 31.5234 14.5778H28.4007C27.9536 14.5778 27.5277 14.7684 27.2297 15.1015L25.5946 16.929C25.3016 17.2565 24.7882 17.2545 24.4978 16.9246L22.9013 15.1108C22.6029 14.7721 22.1733 14.5778 21.7219 14.5778H18.5641C17.1177 14.5778 15.9453 13.4054 15.9453 11.9591V3.35107C15.9453 1.90488 17.1177 0.732416 18.5641 0.732416H22.1387" stroke="#333333" stroke-width="1.5" stroke-miterlimit="10" stroke-linecap="round" stroke-linejoin="round"/>
<path d="M24.8061 5.01242C24.9396 5.1382 25.1491 5.13449 25.2833 5.00949C25.7614 4.56369 26.4087 4.29054 27.1167 4.29269C28.5687 4.29699 29.7537 5.48927 29.7331 6.92238C29.6963 9.48293 26.0119 11.5436 25.1997 11.9669C25.1009 12.0184 24.9832 12.0197 24.8833 11.9703C24.057 11.5627 20.2989 9.56212 20.3521 6.92238C20.3804 5.51857 21.5623 4.30265 22.9847 4.29269C23.6929 4.28761 24.3326 4.56603 24.8061 5.01242Z" stroke="#333333" stroke-width="1.5" stroke-miterlimit="10" stroke-linecap="round" stroke-linejoin="round"/>
<path d="M7.71357 42.0152L3.57148 43.722C2.65596 44.0992 2.05859 44.9915 2.05859 45.9816V48.2897C2.05859 48.8296 2.49629 49.2673 3.03623 49.2673H15.3568" stroke="#333333" stroke-width="1.5" stroke-miterlimit="10" stroke-linecap="round" stroke-linejoin="round"/>
<path d="M15.595 43.5995L11.7507 42.0154L11.75 42.0162" stroke="#333333" stroke-width="1.5" stroke-miterlimit="10" stroke-linecap="round" stroke-linejoin="round"/>
<path d="M38.25 39.8375V42.0154" stroke="#333333" stroke-width="1.5" stroke-miterlimit="10" stroke-linecap="round" stroke-linejoin="round"/>
<path d="M42.2852 42.0154V39.9123" stroke="#333333" stroke-width="1.5" stroke-miterlimit="10" stroke-linecap="round" stroke-linejoin="round"/>
<path d="M34.6848 49.2676H40.2653L39.9741 48.9472C38.2781 47.0809 38.248 44.5503 38.248 42.0154L34.418 43.5937" stroke="#333333" stroke-width="1.5" stroke-miterlimit="10" stroke-linecap="round" stroke-linejoin="round"/>
<path d="M46.4264 43.7221L42.2844 42.0153C42.2844 44.5167 42.2573 47.0889 40.5433 48.9638L40.2656 49.2675H46.9617C47.5017 49.2675 47.9393 48.8298 47.9393 48.2899V45.9817C47.9393 44.9916 47.3419 44.0993 46.4264 43.7221Z" stroke="#333333" stroke-width="1.5" stroke-miterlimit="10" stroke-linecap="round" stroke-linejoin="round"/>
<path d="M7.71094 38.9606V42.0165L7.71162 42.0172C8.77568 43.2455 10.6812 43.2458 11.7456 42.0179L11.7469 42.0165V38.9897" stroke="#333333" stroke-width="1.5" stroke-miterlimit="10" stroke-linecap="round" stroke-linejoin="round"/>
<path d="M5.09375 34.5057C5.60527 37.2156 7.86387 39.7772 9.73281 39.7772C11.6146 39.7772 13.889 37.1834 14.3812 34.4549" stroke="#333333" stroke-width="1.5" stroke-miterlimit="10" stroke-linecap="round" stroke-linejoin="round"/>
<path d="M3.57031 43.7221L7.7124 49.2675" stroke="#333333" stroke-width="1.5" stroke-miterlimit="10" stroke-linecap="round" stroke-linejoin="round"/>
<path d="M15.2111 45.2494L11.75 49.2676" stroke="#333333" stroke-width="1.5" stroke-miterlimit="10" stroke-linecap="round" stroke-linejoin="round"/>
<path d="M4.14738 29.6467C3.54982 31.6287 4.12355 33.9684 4.70968 34.884C4.70968 34.884 5.84367 32.9344 8.46515 31.9803C10.9266 31.0844 12.0335 28.5484 11.1935 27.2361C10.4404 26.0597 8.3047 25.8958 6.34689 26.9877" stroke="#333333" stroke-width="1.5" stroke-miterlimit="10" stroke-linecap="round" stroke-linejoin="round"/>
<path d="M11.466 28.0356C12.3468 27.6534 13.8011 27.6196 14.7324 28.5625C16.7081 30.5632 15.4618 33.7233 14.7574 34.8239C14.7574 34.8239 13.7299 33.5392 12.1812 32.5479C11.3707 32.0291 10.797 31.3172 10.5352 30.5989" stroke="#333333" stroke-width="1.5" stroke-miterlimit="10" stroke-linecap="round" stroke-linejoin="round"/>
<path d="M22.4766 36.5629V40.1334L22.4773 40.1343C23.8177 41.6813 26.2176 41.6817 27.5584 40.1352L27.56 40.1334V36.5629" stroke="#333333" stroke-width="1.5" stroke-miterlimit="10" stroke-linecap="round" stroke-linejoin="round"/>
<path d="M21.1133 35.1297C22.0596 36.4326 23.3719 37.313 25.0204 37.313C28.5523 37.313 30.5592 33.2168 30.7121 29.6386" stroke="#333333" stroke-width="1.5" stroke-miterlimit="10" stroke-linecap="round" stroke-linejoin="round"/>
<path d="M19.4023 30.412C19.4618 30.9559 19.5623 31.5035 19.7027 32.0396" stroke="#333333" stroke-width="1.5" stroke-miterlimit="10" stroke-linecap="round" stroke-linejoin="round"/>
<path d="M22.482 40.1333L17.1749 42.3201C16.0763 42.7726 15.3594 43.8434 15.3594 45.0316V49.2675H34.688V45.0316C34.688 43.8434 33.971 42.7726 32.8725 42.3201L27.5654 40.1333L27.5645 40.1343" stroke="#333333" stroke-width="1.5" stroke-miterlimit="10" stroke-linecap="round" stroke-linejoin="round"/>
<path d="M35.7556 34.4811C35.8269 37.3742 38.2782 40.7539 40.266 40.7539C42.2846 40.7539 44.778 37.273 44.778 34.3525C44.778 32.0921 43.8248 30.163 42.0399 29.4063L42.0397 29.4066C41.5356 31.7072 39.7333 33.5009 37.4303 33.9938L35.7539 34.3525L35.7556 34.4811Z" stroke="#333333" stroke-width="1.5" stroke-miterlimit="10" stroke-linecap="round" stroke-linejoin="round"/>
<path d="M34.3413 29.5491C33.5182 30.723 33.0352 32.1528 33.0352 33.6955V42.395" stroke="#333333" stroke-width="1.5" stroke-miterlimit="10" stroke-linecap="round" stroke-linejoin="round"/>
<path d="M47.4989 44.5051V33.6956C47.4989 29.7021 44.2616 26.4648 40.2682 26.4648C39.0796 26.4648 37.958 26.7515 36.9688 27.2597" stroke="#333333" stroke-width="1.5" stroke-miterlimit="10" stroke-linecap="round" stroke-linejoin="round"/>
<path d="M19.8125 41.2313L19.844 41.2685C21.7373 43.497 22.8583 46.2787 23.0393 49.1973L23.0436 49.2676" stroke="#333333" stroke-width="1.5" stroke-miterlimit="10" stroke-linecap="round" stroke-linejoin="round"/>
<path d="M30.1509 41.2948C28.2721 43.5065 27.1536 46.2635 26.9604 49.159L26.9531 49.2676" stroke="#333333" stroke-width="1.5" stroke-miterlimit="10" stroke-linecap="round" stroke-linejoin="round"/>
<path d="M30.9 24.1853C30.8831 24.1832 30.8661 24.1812 30.8489 24.1793C31.0375 23.8361 31.1313 23.4333 31.0933 23.0059C31.0061 22.0274 30.2135 21.2359 29.2348 21.1506C28.5259 21.0888 27.884 21.3881 27.4719 21.885C27.3313 20.6431 26.2776 19.6777 24.998 19.6777C24.3699 19.6777 23.7965 19.9107 23.3584 20.2945C22.9838 19.8019 22.3933 19.4824 21.7266 19.4824C20.6592 19.4824 19.783 20.2981 19.6855 21.34C18.1083 21.3867 16.8438 22.679 16.8438 24.2676C16.8438 25.0358 17.1399 25.7347 17.6237 26.2572C17.6237 26.2572 17.5418 27.3068 17.7227 28.2715C18.0156 29.834 19.3828 30.3223 19.3828 30.3223C19.3828 28.7598 21.417 29.1879 21.7266 27.7832C21.7266 27.7832 22.2381 27.8809 22.5078 27.8809C24.0665 27.8809 25.3874 26.8661 25.8482 25.4616C26.2784 26.0964 27.0055 26.5137 27.8301 26.5137C28.088 26.5137 28.3362 26.4724 28.569 26.3968C29.1484 28.4668 30.7109 27.7832 30.7109 29.6387C31.6931 29.1951 32.2641 27.6827 32.5439 26.6752C32.8662 25.5155 32.0944 24.3334 30.9 24.1853Z" stroke="#333333" stroke-width="1.5" stroke-miterlimit="10" stroke-linecap="round" stroke-linejoin="round"/>
</g>
<defs>
<clipPath id="clip0_301_18592">
<rect width="50" height="50" fill="white"/>
</clipPath>
</defs>
</svg>
